<svg width="184" height="18" viewBox="0 0 184 18" fill="none" xmlns="http://www.w3.org/2000/svg">
<path d="M7.42058 0.433952H10.046L17.3971 17.4926H13.9255L12.3373 13.587H4.93838L3.39785 17.4926H0L7.42058 0.433952ZM11.2741 10.9877L8.64866 4.04877L5.97552 10.9877H11.2784H11.2741ZM27.352 17.4926H29.9774L36.8729 0.433952H33.5966L28.8014 13.3267L24.1494 0.433952H20.6561L27.3563 17.4926H27.352ZM47.7217 0.433952H50.3471L57.6939 17.4926H54.2223L52.6341 13.587H45.2352L43.6946 17.4926H40.2968L47.7217 0.433952ZM51.5752 10.9877L48.9498 4.04877L46.2766 10.9877H51.5795H51.5752ZM64.4115 17.4926H74.7005V14.7457H67.4492V0.433952H64.4115V17.4926ZM87.2461 0.433952H89.8715L97.2183 17.4926H93.7467L92.1584 13.587H84.7595L83.219 17.4926H79.8212L87.2461 0.433952ZM91.0996 10.9877L88.4742 4.04877L85.801 10.9877H91.1039H91.0996ZM103.936 17.4926H106.974V4.40895H107.021L115.457 17.4926H119.311V0.433952H116.273V13.1097H116.225L107.963 0.433952H103.94V17.4926H103.936ZM142.007 2.69918C141.156 1.71845 140.232 1.02847 139.234 0.624891C138.253 0.208297 137.185 0 136.031 0C134.712 0 133.501 0.216976 132.394 0.650928C131.301 1.06752 130.355 1.67072 129.552 2.45617C128.767 3.24162 128.146 4.20066 127.695 5.32459C127.243 6.43117 127.022 7.66793 127.022 9.03488C127.022 10.4018 127.248 11.5822 127.695 12.6714C128.146 13.765 128.762 14.7023 129.552 15.4921C130.355 16.2645 131.301 16.8677 132.394 17.2973C133.501 17.7139 134.716 17.9222 136.031 17.9222C137.346 17.9222 138.465 17.6792 139.572 17.1975C140.683 16.7158 141.62 15.9434 142.393 14.8846L139.889 13.101C139.325 13.8257 138.717 14.3551 138.058 14.6893C137.415 15.0104 136.747 15.171 136.057 15.171C135.172 15.171 134.369 15.0104 133.649 14.6893C132.941 14.3682 132.334 13.9255 131.817 13.3657C131.301 12.8016 130.902 12.1376 130.611 11.3652C130.338 10.5928 130.203 9.7509 130.203 8.83526C130.203 7.98472 130.338 7.19059 130.611 6.44853C130.902 5.71081 131.301 5.06856 131.817 4.52178C132.334 3.95764 132.941 3.52369 133.649 3.21992C134.373 2.8988 135.176 2.73824 136.057 2.73824C136.652 2.73824 137.237 2.85107 137.815 3.07672C138.409 3.30238 139.021 3.74935 139.646 4.42631L142.007 2.6905V2.69918ZM149.249 17.4926H152.287V9.97656H160.263V17.4926H163.301V0.433952H160.263V7.22964H152.287V0.433952H149.249V17.4926V17.4926ZM171.927 17.4926H183.662V14.7457H174.961V10.1198H182.794V7.37285H174.961V3.18087H183.228V0.433952H171.927V17.4926V17.4926Z" fill="black"/>
</svg>
