<svg width="262" height="170" viewBox="0 0 262 170" fill="none" xmlns="http://www.w3.org/2000/svg">
<path d="M181.823 41.272L179.214 39.7163L183.709 31.5005L184.537 41.272H181.823Z" fill="white" stroke="#1A1A1A" stroke-width="0.839783" stroke-miterlimit="10"/>
<path d="M235.775 67.959L235.818 69.5936L192.796 102.432C190.767 103.98 189.244 106.102 188.419 108.518L179.522 134.679L134.414 160.943H261L251.024 92.4417C250.002 85.4266 246.74 78.9242 241.729 73.913L235.779 67.959" fill="#1A1A1A"/>
<path d="M235.775 67.959L235.818 69.5936L192.796 102.432C190.767 103.98 189.244 106.102 188.419 108.518L179.522 134.679L134.414 160.943H261L251.024 92.4417C250.002 85.4266 246.74 78.9242 241.729 73.913L235.779 67.959" stroke="#1A1A1A" stroke-width="0.839783" stroke-miterlimit="10"/>
<path d="M179.522 134.679C179.185 134.557 163.384 133.001 163.384 133.001C163.384 133.001 165.012 143.289 162.158 148.483L164.144 148.587L179.78 135.317L179.522 134.675V134.679Z" fill="#1A1A1A" stroke="#1A1A1A" stroke-width="0.839783" stroke-miterlimit="10"/>
<path d="M187.451 111.364L188.218 101.259C188.376 99.1874 189.692 97.3808 191.62 96.5957L193.925 95.6602L194.129 96.6997L192.211 102.883L187.458 111.364H187.451Z" fill="#1A1A1A" stroke="#1A1A1A" stroke-width="0.839783" stroke-miterlimit="10"/>
<path d="M51.3737 119.054V123.527C51.3737 126.23 52.6319 128.779 54.7755 130.424L61.3818 135.492C64.7729 138.091 69.1891 138.948 73.3042 137.801L100.913 130.116C102.572 129.653 102.665 127.338 101.049 126.743L85.5777 121.061C84.4629 120.652 83.6349 119.702 83.3768 118.545L82.6814 115.39L51.3701 119.061L51.3737 119.054Z" fill="white" stroke="#1A1A1A" stroke-width="0.839783" stroke-miterlimit="10"/>
<path d="M93.6722 153.576L93.7582 151.494L69.1357 142.124L69.8957 144.765L93.6722 153.576Z" fill="#00FF00" stroke="#1A1A1A" stroke-width="0.839783" stroke-linejoin="round"/>
<path d="M93.6719 153.577L138.87 133.88L138.913 132.812L93.7579 151.495L93.6719 153.577Z" fill="#00FF00" stroke="#1A1A1A" stroke-width="0.839783" stroke-linejoin="round"/>
<path d="M138.873 132.797L118.168 126.33C118.168 126.33 118.161 126.33 118.158 126.33L69.1743 142.109C69.1743 142.109 69.16 142.134 69.1743 142.138L93.7538 151.49C93.7538 151.49 93.761 151.49 93.7645 151.49L138.876 132.825C138.876 132.825 138.887 132.8 138.876 132.797H138.873Z" fill="#1A1A1A" stroke="#1A1A1A" stroke-width="0.839783" stroke-miterlimit="10"/>
<path d="M119.212 146.211L110.182 140.902L109.767 138.038C109.681 137.45 109.369 136.92 108.896 136.558L100.063 129.858C99.5577 129.474 98.9018 129.353 98.2924 129.532C97.3389 129.808 96.7331 130.74 96.8657 131.722L97.0019 132.729V132.736L96.0269 132.668L94.4425 131.385C94.0052 131.03 93.4604 130.837 92.9012 130.837H91.1447L91.0551 130.822L90.901 130.639C90.3848 130.019 89.589 129.704 88.7861 129.797C87.8469 129.905 87.0619 130.557 86.7787 131.457L85.5098 135.475L82.5991 137.282C82.004 137.651 81.7746 138.4 82.0614 139.038L82.8966 140.902C83.1332 141.425 83.7677 141.633 84.2659 141.347L85.1083 140.863C85.5815 140.59 85.7392 139.981 85.456 139.515L84.3735 137.733L91.2594 149.053C92.532 151.147 94.715 152.516 97.1525 152.749L101.518 153.168L108.709 158.352C108.709 158.352 109.215 149.208 119.212 146.214V146.211Z" fill="white" stroke="#1A1A1A" stroke-width="0.839783" stroke-miterlimit="10"/>
<path d="M89.6786 137.73L87.6713 135.722C87.0977 135.149 86.2016 135.045 85.5098 135.471L82.5991 137.278C82.004 137.647 81.7746 138.396 82.0614 139.034L82.8966 140.898C83.1332 141.422 83.7677 141.63 84.2659 141.343L85.1083 140.859C85.5815 140.586 85.7392 139.977 85.456 139.511L84.3735 137.73L91.2594 149.05C92.532 151.143 94.715 152.512 97.1525 152.745L101.518 153.165L108.709 158.348" fill="white"/>
<path d="M89.6786 137.73L87.6713 135.722C87.0977 135.149 86.2016 135.045 85.5098 135.471L82.5991 137.278C82.004 137.647 81.7746 138.396 82.0614 139.034L82.8966 140.898C83.1332 141.422 83.7677 141.63 84.2659 141.343L85.1083 140.859C85.5815 140.586 85.7392 139.977 85.456 139.511L84.3735 137.73L91.2594 149.05C92.532 151.143 94.715 152.512 97.1525 152.745L101.518 153.165L108.709 158.348" stroke="#1A1A1A" stroke-width="0.839783" stroke-miterlimit="10"/>
<path d="M149.201 92.9179L148.595 4.75516C148.58 2.84458 146.992 1.32472 145.085 1.39283L4.26528 6.45425C2.38696 6.52236 0.920869 8.10674 1.00331 9.98506L5.36216 110.188L5.82099 120.766C5.90702 122.734 7.64554 124.215 9.59913 123.985L146.286 107.97C148.003 107.769 149.29 106.31 149.279 104.582L149.201 92.9214V92.9179Z" fill="#00FF00" stroke="#1A1A1A" stroke-width="0.839783" stroke-miterlimit="10"/>
<path d="M204.873 66.9015C163.016 81.5445 189.133 13.5737 189.133 13.5737L238.536 25.1878C239.382 43.4261 231.478 48.7779 231.478 48.7779V68.6185L202.532 85.3298L198.532 68.597" fill="white"/>
<path d="M204.873 66.9015C163.016 81.5445 189.133 13.5737 189.133 13.5737L238.536 25.1878C239.382 43.4261 231.478 48.7779 231.478 48.7779V68.6185L202.532 85.3298L198.532 68.597" stroke="#1A1A1A" stroke-width="0.839783" stroke-miterlimit="10"/>
<path d="M202.532 85.33L198.406 68.6187" stroke="#1A1A1A" stroke-width="0.839783" stroke-miterlimit="10"/>
<path d="M233.316 67.5901L192.979 90.8361L194.126 96.7005L192.208 102.884L192.799 102.432L235.779 69.6261V67.8769C235.779 66.6724 234.804 65.6938 233.596 65.6938H231.477V68.6475" fill="#00FF00"/>
<path d="M233.316 67.5901L192.979 90.8361L194.126 96.7005L192.208 102.884L192.799 102.432L235.779 69.6261V67.8769C235.779 66.6724 234.804 65.6938 233.596 65.6938H231.477V68.6475" stroke="#1A1A1A" stroke-width="0.839783" stroke-linejoin="round"/>
<path d="M198.739 87.5167L195.194 82.8711L201.259 80.1826L202.532 85.3301L198.739 87.5167Z" fill="#00FF00" stroke="#1A1A1A" stroke-width="0.839783" stroke-linejoin="round"/>
<path d="M151.634 4.36454C151.619 2.45396 150.032 0.934096 148.125 1.0022L7.30434 6.06004C5.42602 6.12815 3.95993 7.71253 4.04238 9.59444L8.40122 109.798L152.24 92.5272L151.634 4.36454Z" fill="#1A1A1A" stroke="#1A1A1A" stroke-width="0.839783" stroke-miterlimit="10"/>
<path d="M8.40137 109.798L8.86019 120.376C8.94622 122.344 10.6847 123.824 12.6383 123.595L149.325 107.579C151.042 107.378 152.329 105.919 152.319 104.191L152.24 92.5308L8.40137 109.798Z" fill="white" stroke="#1A1A1A" stroke-width="0.839783" stroke-miterlimit="10"/>
<path d="M13.2302 101.822L147.032 87.5161L145.569 7.46533L10.1152 13.5735L13.2302 101.822Z" fill="#808080" stroke="#1A1A1A" stroke-width="0.839783" stroke-miterlimit="10"/>
<path d="M28.7046 23.4985L127.27 19.0536C131.514 18.8636 135.081 22.208 135.156 26.4558L135.97 70.9583C136.041 74.8691 133.113 78.1848 129.223 78.6006L31.6225 89.0353C27.2672 89.5013 23.4317 86.1748 23.2776 81.7945L21.4961 31.3021C21.3491 27.1655 24.5645 23.6813 28.7011 23.4949L28.7046 23.4985Z" fill="#00FF00" stroke="#1A1A1A" stroke-width="0.839783" stroke-miterlimit="10"/>
<path d="M91.6747 60.8477L113.182 59.5824C114.397 59.5107 115.419 60.4785 115.415 61.6937C115.412 62.7906 114.569 63.701 113.476 63.7871L91.9686 65.5112C90.7391 65.608 89.6853 64.6366 89.6924 63.3999V62.9411C89.6996 61.8299 90.5671 60.9122 91.6783 60.8441L91.6747 60.8477Z" fill="white" stroke="#1A1A1A" stroke-width="0.839783" stroke-miterlimit="10"/>
<path d="M33.3646 31.8615L65.701 30.0119C67.5758 29.9043 69.1602 31.3776 69.196 33.2523L69.938 73.8943C69.9703 75.6292 68.6547 77.0953 66.927 77.2459L35.3146 80.0562C33.4255 80.2247 31.7838 78.7729 31.7192 76.8802L30.2531 35.2776C30.1886 33.4818 31.5723 31.9619 33.3681 31.8615H33.3646Z" fill="#1A1A1A" stroke="#1A1A1A" stroke-width="0.839783" stroke-miterlimit="10"/>
<path d="M149.77 129.632L130.991 127.524C129.044 127.305 128.281 124.886 129.743 123.588C131.457 122.068 133.751 121.369 136.02 121.681L150.283 123.628C152.319 123.904 153.401 126.176 152.337 127.933L151.957 128.56C151.502 129.313 150.648 129.732 149.774 129.635L149.77 129.632Z" fill="white" stroke="#1A1A1A" stroke-width="0.839783" stroke-miterlimit="10"/>
<path d="M119.212 146.211L110.183 140.902L109.767 138.038C109.681 137.45 109.369 136.92 108.896 136.558L100.063 129.858C99.5578 129.474 98.9019 129.353 98.2925 129.532C97.339 129.808 96.7332 130.74 96.8658 131.722L97.002 132.729" stroke="#1A1A1A" stroke-width="0.839783" stroke-miterlimit="10"/>
<path d="M100.478 132.973L96.0228 132.669L94.4384 131.385C94.0011 131.03 93.4563 130.837 92.8971 130.837H91.1406" stroke="#1A1A1A" stroke-width="0.839783" stroke-miterlimit="10"/>
<path d="M93.8905 134.213L90.901 130.636C90.3848 130.016 89.589 129.7 88.7861 129.793C87.8469 129.901 87.0619 130.553 86.7787 131.453L85.5098 135.471" stroke="#1A1A1A" stroke-width="0.839783" stroke-miterlimit="10"/>
<path d="M86.6885 133.521L89.678 137.729" stroke="#1A1A1A" stroke-width="0.839783" stroke-miterlimit="10"/>
<path d="M120.316 136.94L117.99 134.212L105.383 133.897" stroke="#1A1A1A" stroke-width="0.839783" stroke-miterlimit="10"/>
<path d="M127.506 136.51L115.38 137.234C113.505 137.345 112.128 139.037 112.397 140.894L112.498 141.572L121.527 141.998L124.122 143.031C126.316 143.902 128.736 144.024 131.005 143.371L139.404 140.959L155.384 148.121C155.384 148.121 162.212 148.802 162.155 148.479C162.098 148.157 164.908 144.988 163.381 132.997L118.9 126.133L117.147 124.986C115.81 124.111 114.157 123.86 112.62 124.294L109.784 125.097" fill="white"/>
<path d="M127.506 136.51L115.38 137.234C113.505 137.345 112.128 139.037 112.397 140.894L112.498 141.572L121.527 141.998L124.122 143.031C126.316 143.902 128.736 144.024 131.005 143.371L139.404 140.959L155.384 148.121C155.384 148.121 162.212 148.802 162.155 148.479C162.098 148.157 164.908 144.988 163.381 132.997L118.9 126.133L117.147 124.986C115.81 124.111 114.157 123.86 112.62 124.294L109.784 125.097" stroke="#1A1A1A" stroke-width="0.839783" stroke-miterlimit="10"/>
<path d="M117.563 127.313L108.537 124.75C107.609 124.488 106.616 124.613 105.788 125.105L98.2959 129.532" stroke="#1A1A1A" stroke-width="0.839783" stroke-miterlimit="10"/>
<path d="M114.487 128.398L106.898 127.57C105.927 127.463 104.956 127.742 104.185 128.341L101.163 130.696" stroke="#1A1A1A" stroke-width="0.839783" stroke-miterlimit="10"/>
<path d="M114.652 130.137L102.231 131.507" stroke="#1A1A1A" stroke-width="0.839783" stroke-miterlimit="10"/>
<path d="M238.532 25.1881L189.129 13.574L191.642 7.31894C193 3.94226 196.983 2.48334 200.202 4.1896L206.378 7.46591L233.789 12.3983C237.427 13.0543 239.883 16.4919 239.313 20.1481L238.528 25.1881H238.532Z" fill="#1A1A1A" stroke="#1A1A1A" stroke-width="0.839783" stroke-linejoin="round"/>
<path d="M200.467 16.2402C200.467 16.2402 192.333 53.441 231.473 48.781C231.473 48.781 239.668 43.5798 238.531 25.1909L200.467 16.2438V16.2402Z" fill="#1A1A1A" stroke="#1A1A1A" stroke-width="0.839783" stroke-linejoin="round"/>
<path d="M202.321 39.8883C203.353 38.605 204.704 37.8271 206.181 37.8271C209.432 37.8271 212.071 41.591 212.071 46.2366C212.071 50.8822 209.432 54.646 206.181 54.646C204.4 54.646 202.805 53.5168 201.726 51.7353" fill="white"/>
<path d="M202.321 39.8883C203.353 38.605 204.704 37.8271 206.181 37.8271C209.432 37.8271 212.071 41.591 212.071 46.2366C212.071 50.8822 209.432 54.646 206.181 54.646C204.4 54.646 202.805 53.5168 201.726 51.7353" stroke="#1A1A1A" stroke-width="0.839783" stroke-miterlimit="10"/>
<path d="M109.787 125.105L112.623 124.302C114.161 123.868 115.81 124.119 117.15 124.994L118.903 126.141L163.384 133.005C164.911 144.996 162.101 148.168 162.158 148.487C162.216 148.806 155.387 148.128 155.387 148.128L139.407 140.967L131.008 143.379C128.739 144.031 126.32 143.909 124.126 143.038L121.531 142.006L112.501 141.579L112.401 140.902C112.132 139.045 113.508 137.353 115.383 137.242L120.419 136.941L118.021 134.22L105.386 133.905L99.8116 129.679C99.3456 129.324 98.7147 129.281 98.2021 129.568L105.848 125.108C106.87 124.513 108.11 124.424 109.207 124.872L109.791 125.112L109.787 125.105Z" fill="white" stroke="#1A1A1A" stroke-width="0.839783" stroke-miterlimit="10"/>
<path d="M120.417 136.933L117.99 134.212L105.383 133.897" stroke="#1A1A1A" stroke-width="0.839783" stroke-miterlimit="10"/>
<path d="M117.563 127.313L108.537 124.75C107.609 124.488 106.616 124.613 105.788 125.105L98.2959 129.532" stroke="#1A1A1A" stroke-width="0.839783" stroke-miterlimit="10"/>
<path d="M114.487 128.398L106.898 127.57C105.927 127.463 104.956 127.742 104.185 128.341L101.163 130.696" stroke="#1A1A1A" stroke-width="0.839783" stroke-miterlimit="10"/>
<path d="M114.652 130.137L102.231 131.507" stroke="#1A1A1A" stroke-width="0.839783" stroke-miterlimit="10"/>
<path d="M212.102 99.2588C199.176 101.897 191.853 117.4 188.917 125.297C187.767 128.387 185.627 131.007 182.82 132.735L164.144 148.586L119.208 146.206C117.778 146.622 114.365 147.826 111.702 151.149C109.989 153.286 109.153 155.594 108.784 157.662C108.178 161.028 110.612 164.183 114.021 164.437C134.722 165.989 155.427 167.538 176.128 169.09C183.239 169.624 190.244 167.133 195.423 162.233C207.421 150.88 219.415 139.528 231.413 128.176" fill="#1A1A1A"/>
<path d="M212.102 99.2588C199.176 101.897 191.853 117.4 188.917 125.297C187.767 128.387 185.627 131.007 182.82 132.735L164.144 148.586L119.208 146.206C117.778 146.622 114.365 147.826 111.702 151.149C109.989 153.286 109.153 155.594 108.784 157.662C108.178 161.028 110.612 164.183 114.021 164.437C134.722 165.989 155.427 167.538 176.128 169.09C183.239 169.624 190.244 167.133 195.423 162.233C207.421 150.88 219.415 139.528 231.413 128.176" stroke="#1A1A1A" stroke-width="0.839783" stroke-miterlimit="10"/>
<path d="M116.624 161.306C117.44 161.306 118.101 160.645 118.101 159.829C118.101 159.013 117.44 158.352 116.624 158.352C115.809 158.352 115.147 159.013 115.147 159.829C115.147 160.645 115.809 161.306 116.624 161.306Z" fill="#00FF00" stroke="#1A1A1A" stroke-width="0.839783" stroke-linejoin="round"/>
<path d="M123.054 161.764C123.87 161.764 124.531 161.103 124.531 160.287C124.531 159.472 123.87 158.811 123.054 158.811C122.238 158.811 121.577 159.472 121.577 160.287C121.577 161.103 122.238 161.764 123.054 161.764Z" fill="#00FF00" stroke="#1A1A1A" stroke-width="0.839783" stroke-linejoin="round"/>
<path d="M78.0469 31.7624L124.274 28.7227" stroke="#1A1A1A" stroke-width="0.839783" stroke-miterlimit="10"/>
<path d="M78.0469 37.9064L124.274 34.8667" stroke="#1A1A1A" stroke-width="0.839783" stroke-miterlimit="10"/>
<path d="M78.0469 44.0495L124.274 41.0098" stroke="#1A1A1A" stroke-width="0.839783" stroke-miterlimit="10"/>
<path d="M78.0469 50.1899L124.274 47.1538" stroke="#1A1A1A" stroke-width="0.839783" stroke-miterlimit="10"/>
</svg>
