<svg width="99" height="203" viewBox="0 0 99 203" fill="none" xmlns="http://www.w3.org/2000/svg">
<path d="M31.3175 148.595L3.90039 176.04H96.159L72.0623 148.595H31.3175Z" fill="#808080" stroke="#1A1A1A" stroke-width="1.19184" stroke-linecap="round" stroke-linejoin="round"/>
<path d="M43.6443 50.3919L41.6429 43.3343C41.3916 42.4411 40.8557 41.6546 40.1167 41.0944C39.3777 40.5341 38.4761 40.231 37.5491 40.231C36.6221 40.231 35.7205 40.5341 34.9815 41.0944C34.2425 41.6546 33.7065 42.4411 33.4553 43.3343L31.4766 50.3919C31.374 50.7628 31.3204 51.1455 31.3174 51.5303V167.889H43.8262V51.5303C43.8158 51.1445 43.7547 50.7617 43.6443 50.3919Z" fill="white" stroke="#1A1A1A" stroke-width="1.19184" stroke-miterlimit="10"/>
<path d="M57.8936 8.9458H45.3848V167.889H57.8936V8.9458Z" fill="white" stroke="#1A1A1A" stroke-width="1.19184" stroke-miterlimit="10"/>
<path d="M59.4623 32.8729H43.8262V16.9365C43.8262 4.74507 51.6499 1 51.6499 1C51.6499 1 59.4623 4.59709 59.4623 16.9365V32.8729Z" fill="#21F225" stroke="#1D1D1B" stroke-width="1.19184" stroke-miterlimit="10"/>
<path d="M71.8126 51.1205L69.8112 44.0629C69.5599 43.1697 69.024 42.3831 68.285 41.8229C67.546 41.2627 66.6443 40.9595 65.7173 40.9595C64.7903 40.9595 63.8887 41.2627 63.1497 41.8229C62.4107 42.3831 61.8748 43.1697 61.6235 44.0629L59.6221 51.1205C59.5212 51.4916 59.4677 51.8741 59.4629 52.2588V167.889H71.9717V52.2929C71.9699 51.8968 71.9164 51.5027 71.8126 51.1205Z" fill="white" stroke="#1A1A1A" stroke-width="1.19184" stroke-miterlimit="10"/>
<path d="M31.3174 167.89L37.5718 140.468L43.8149 167.89H31.3174Z" fill="#21F225" stroke="#1A1A1A" stroke-width="1.19184" stroke-miterlimit="10"/>
<path d="M59.4629 167.89L65.7173 140.468L71.9604 167.89H59.4629Z" fill="#21F225" stroke="#1A1A1A" stroke-width="1.19184" stroke-miterlimit="10"/>
<path d="M37.5267 167.89C37.9709 167.879 38.4127 167.957 38.8262 168.12C39.2397 168.283 39.6164 168.527 39.9343 168.838C40.2522 169.149 40.5047 169.52 40.6771 169.93C40.8495 170.34 40.9383 170.78 40.9382 171.225V181.14H34.2402V171.225C34.2402 170.348 34.5849 169.507 35.2 168.882C35.815 168.258 36.6509 167.902 37.5267 167.89Z" fill="white" stroke="#1A1A1A" stroke-width="1.19184" stroke-miterlimit="10"/>
<path d="M37.5723 181.14V171.862" stroke="#1A1A1A" stroke-width="1.19184" stroke-miterlimit="10"/>
<path d="M51.6385 167.889C52.5222 167.889 53.3697 168.241 53.9946 168.866C54.6194 169.492 54.9705 170.34 54.9705 171.224V181.139H48.3066V171.224C48.3066 170.34 48.6577 169.492 49.2825 168.866C49.9074 168.241 50.7549 167.889 51.6385 167.889Z" fill="white" stroke="#1A1A1A" stroke-width="1.19184" stroke-miterlimit="10"/>
<path d="M51.6387 181.14V171.862" stroke="#1A1A1A" stroke-width="1.19184" stroke-miterlimit="10"/>
<path d="M65.7167 167.889C66.6004 167.889 67.4478 168.241 68.0727 168.866C68.6975 169.492 69.0486 170.34 69.0486 171.224V181.139H62.3848V171.224C62.3848 170.34 62.7358 169.492 63.3607 168.866C63.9855 168.241 64.833 167.889 65.7167 167.889Z" fill="white" stroke="#1A1A1A" stroke-width="1.19184" stroke-miterlimit="10"/>
<path d="M65.7168 181.14V171.862" stroke="#1A1A1A" stroke-width="1.19184" stroke-miterlimit="10"/>
<path d="M24.0508 146.888H20.9805V202.119H24.0508V146.888Z" fill="#3C3C3B" stroke="#1A1A1A" stroke-width="1.19184" stroke-miterlimit="10"/>
<path d="M84.1729 146.888H81.1025V202.119H84.1729V146.888Z" fill="#3C3C3B" stroke="#1A1A1A" stroke-width="1.19184" stroke-miterlimit="10"/>
<path d="M98.1831 187.57H3.90039V190.473H98.1831V187.57Z" fill="#3C3C3B" stroke="#1A1A1A" stroke-width="1.19184" stroke-miterlimit="10"/>
<path d="M0 202.106H98.1832" stroke="#1A1A1A" stroke-width="1.19184" stroke-miterlimit="10"/>
</svg>
