<svg width="1920" height="886" viewBox="0 0 1920 886" fill="none" xmlns="http://www.w3.org/2000/svg">
<mask id="mask0_68_40" style="mask-type:alpha" maskUnits="userSpaceOnUse" x="0" y="0" width="1920" height="886">
<rect width="1920" height="886" fill="#D9D9D9"/>
</mask>
<g mask="url(#mask0_68_40)">
<mask id="mask1_68_40" style="mask-type:alpha" maskUnits="userSpaceOnUse" x="-120" y="-959" width="2734" height="2089">
<rect width="2398.23" height="1676.14" transform="matrix(0.98195 0.189905 0.225817 -0.974346 -120 674.431)" fill="#C4C4C4"/>
</mask>
<g mask="url(#mask1_68_40)">
<path d="M0.853285 -828.484C123.451 -882.224 280.236 -865.17 421.556 -807.437C562.875 -749.703 852.212 -679.061 809.567 -552.289C698.566 -222.326 1394.74 -195.142 1326.07 13.2161C1253.95 232.031 1518.81 478.142 1713.45 411.117C1777.42 389.078 1884.63 563.134 1956.99 569.376C2080.44 580.027 2176.41 470.588 2297.57 466.496" stroke="#21F225" stroke-miterlimit="10"/>
<path d="M-9.86932 -771.248C112.698 -822.753 264.92 -815.191 403.19 -768.369C530.501 -725.25 779.466 -670.566 793.918 -555.767C795.15 -546.065 794.235 -536.036 791.333 -525.709C722.669 -281.691 1093.25 -202.765 1244.77 -89.3575C1296.42 -50.6399 1329.38 -8.9863 1315.64 43.0842C1268.39 221.955 1448.92 412.682 1615.77 445.734C1649.42 452.382 1683.63 451.072 1716.31 440.021C1781.57 417.983 1889.52 579.157 1961.37 590.282C2081.76 608.914 2181.44 491.842 2301.63 484.614" stroke="#21F225" stroke-miterlimit="10"/>
<path d="M-20.076 -714.52C102.402 -763.699 250.145 -765.599 385.151 -729.62C510.065 -696.335 753.006 -651.032 774.433 -529.461C776.139 -519.738 775.64 -509.704 773.316 -499.403C718.863 -257.653 1093.84 -177.271 1233.77 -60.4513C1281.48 -20.541 1315.39 21.4363 1305.37 72.5938C1271.06 247.543 1458.24 428.021 1619.1 470.859C1652.17 479.677 1686.24 479.498 1719.26 468.504C1785.75 446.467 1894.22 594.691 1965.74 610.818C2082.76 637.198 2186.31 512.861 2305.45 502.533" stroke="#21F225" stroke-miterlimit="10"/>
<path d="M-29.4077 -658.677C92.8399 -705.445 236.116 -716.695 367.631 -691.503C490.199 -668.032 726.575 -632.102 755.246 -503.701C757.43 -493.962 757.363 -483.894 755.636 -473.647C715.472 -234.494 1094.7 -152.328 1223 -32.1803C1266.71 8.91493 1301.58 51.0926 1295.33 101.412C1274.06 272.075 1468.15 442.946 1622.62 495.212C1655.18 506.239 1689.01 507.179 1722.36 496.286C1790 474.327 1898.78 609.405 1970.12 630.692C2083.47 664.508 2190.96 533.42 2308.96 520.072" stroke="#21F225" stroke-miterlimit="10"/>
<path d="M-38.7545 -602.819C83.3085 -647.182 222.207 -667.902 350.126 -653.385C470.467 -639.745 699.869 -613.282 736.098 -477.915C738.698 -468.175 739.096 -458.073 737.965 -447.876C711.94 -211.344 1095.49 -127.35 1212.23 -3.85399C1252.01 38.4122 1287.79 80.758 1285.29 130.311C1276.87 296.473 1478.24 458.513 1626.09 519.692C1658.23 532.988 1691.71 534.952 1725.37 524.176C1794.21 502.286 1903.08 624.081 1974.45 650.684C2083.94 691.502 2195.6 554.063 2312.47 537.706" stroke="#21F225" stroke-miterlimit="10"/>
<path d="M-48.1047 -546.963C73.784 -588.979 208.449 -619.212 332.644 -615.28C450.845 -611.541 672.977 -594.552 716.949 -452.152C719.964 -442.408 720.839 -432.29 720.309 -422.105C708.227 -188.3 1096.26 -102.359 1201.48 24.4555C1237.3 67.8848 1273.99 110.251 1275.27 159.178C1279.48 320.617 1488.43 474.662 1629.52 544.198C1661.32 559.864 1694.41 562.756 1728.41 552.074C1798.41 530.249 1907.22 638.577 1978.77 670.712C2084.3 718.1 2200.26 574.714 2316.01 555.305" stroke="#21F225" stroke-miterlimit="10"/>
<path d="M-57.4449 -491.127C64.296 -530.777 194.761 -570.711 315.196 -577.203C431.335 -583.473 645.892 -575.853 697.835 -426.41C701.227 -416.659 702.577 -406.524 702.66 -396.368C704.364 -165.348 1097.23 -77.5008 1190.72 52.7526C1222.68 97.2927 1260.13 139.652 1265.23 188.038C1281.72 344.479 1498.61 491.391 1632.9 568.711C1664.37 586.833 1697.06 590.536 1731.38 579.945C1802.6 558.178 1911.23 652.851 1983.05 690.705C2084.57 744.229 2204.89 595.305 2319.53 572.857" stroke="#21F225" stroke-miterlimit="10"/>
<path d="M-66.8029 -435.279C54.7831 -472.597 181.135 -522.347 297.753 -539.122C411.887 -555.525 618.574 -557.131 678.75 -400.639C682.505 -390.861 684.378 -380.729 685.058 -370.581C700.339 -142.423 1098.03 -52.4075 1180.01 81.0818C1208.07 126.766 1246.21 168.994 1255.23 216.953C1283.63 368.214 1508.76 508.796 1636.28 593.31C1667.46 613.99 1699.73 618.409 1734.38 607.925C1806.77 586.213 1915.23 667.013 1987.33 710.834C2084.9 770.134 2209.55 616.008 2323.09 590.534" stroke="#21F225" stroke-miterlimit="10"/>
<path d="M-76.1491 -379.451C45.3183 -414.434 167.516 -474.181 280.366 -501.049C392.468 -527.742 591.107 -538.401 659.699 -374.887C663.805 -365.118 666.187 -354.967 667.485 -344.809C696.148 -119.561 1098.83 -27.3083 1169.31 109.416C1193.46 156.258 1232.22 198.266 1245.24 245.857C1285.11 391.734 1518.77 526.678 1639.66 617.942C1670.56 641.268 1702.42 646.304 1737.39 635.888C1810.99 614.226 1919.25 680.992 1991.59 730.937C2085.29 795.635 2214.22 636.666 2326.65 608.145" stroke="#21F225" stroke-miterlimit="10"/>
<path d="M-85.5129 -323.608C35.8249 -356.286 153.837 -426.173 262.957 -462.981C372.953 -500.1 563.411 -519.604 640.628 -349.133C645.058 -339.334 647.96 -329.184 649.866 -319.051C691.669 -96.7416 1099.51 -2.20259 1158.57 137.719C1178.82 185.692 1218.06 227.434 1235.2 274.751C1286.04 415.189 1528.45 544.963 1642.94 642.569C1673.5 668.613 1704.97 674.188 1740.32 663.854C1815.12 642.219 1923.3 694.781 1995.8 751.047C2085.8 820.876 2218.85 657.313 2330.18 625.741" stroke="#21F225" stroke-miterlimit="10"/>
<path d="M-94.8794 -267.768C26.376 -298.156 140.12 -378.304 245.563 -424.919C353.401 -472.584 535.559 -500.743 621.597 -323.363C626.364 -313.552 629.772 -303.382 632.306 -293.255C687.024 -73.882 1100.23 22.9927 1147.87 166.078C1164.23 215.196 1203.83 256.68 1225.2 303.685C1286.58 438.661 1537.93 563.619 1646.24 667.256C1676.4 696.11 1707.59 702.123 1743.25 691.853C1819.24 670.262 1927.48 708.484 2000.01 771.216C2086.45 845.968 2223.49 678.003 2333.76 643.374" stroke="#21F225" stroke-miterlimit="10"/>
<path d="M-104.236 -211.95C16.9108 -240.056 126.328 -330.571 228.198 -386.882C333.767 -445.226 507.551 -481.817 602.587 -297.648C607.676 -287.804 611.579 -277.651 614.74 -267.529C682.173 -51.0752 1100.91 48.1142 1137.16 194.347C1149.64 244.607 1189.46 285.841 1215.2 332.532C1286.67 462.168 1547.05 582.427 1649.51 691.875C1679.2 723.593 1710.16 729.964 1746.18 719.81C1823.39 698.257 1931.77 722.006 2004.2 791.35C2087.3 870.906 2228.14 698.643 2337.31 660.957" stroke="#21F225" stroke-miterlimit="10"/>
<path d="M-113.609 -156.117C7.45992 -181.934 112.419 -282.915 210.831 -348.829C314.042 -417.915 479.417 -462.771 583.587 -271.876C588.976 -262.017 593.396 -251.861 597.205 -241.727C677.152 -28.1218 1101.56 73.3065 1126.47 222.712C1135.04 274.091 1174.96 315.159 1205.2 361.496C1286.43 485.997 1555.86 601.473 1652.74 716.647C1681.86 751.266 1712.72 757.968 1749.06 747.874C1827.46 726.36 1936.24 735.583 2008.37 811.578C2088.32 895.825 2232.76 719.363 2340.85 678.618" stroke="#21F225" stroke-miterlimit="10"/>
<path d="M-122.97 -100.305C-1.99373 -123.859 98.4213 -235.372 193.515 -310.781C294.217 -390.685 451.207 -443.624 564.618 -246.119C570.314 -236.208 575.24 -226.086 579.674 -215.956C671.949 -5.1516 1102.23 98.495 1115.8 251.026C1120.48 303.538 1160.41 344.518 1195.22 390.391C1285.96 510.01 1564.37 620.494 1655.99 741.344C1684.44 778.867 1715.28 785.875 1751.99 775.875C1831.61 754.393 1940.93 749.046 2012.54 831.748C2089.56 920.664 2237.41 740.014 2344.43 696.225" stroke="#21F225" stroke-miterlimit="10"/>
<path d="M-132.35 -44.4791C-11.437 -65.7609 84.3308 -187.795 176.172 -272.735C274.27 -363.462 422.831 -424.354 545.624 -220.358C551.604 -210.412 557.045 -200.287 562.139 -190.162C666.616 17.9582 1102.51 123.623 1105.1 279.381C1105.76 332.994 1145.79 374.048 1185.22 419.33C1285.35 534.367 1572.55 639.579 1659.19 766.098C1686.89 806.543 1717.82 813.849 1754.84 803.926C1835.66 782.477 1945.7 762.527 2016.66 851.973C2090.9 945.56 2242.01 760.728 2347.98 713.838" stroke="#21F225" stroke-miterlimit="10"/>
<path d="M-141.721 11.3255C-20.8863 -7.70924 70.1808 -140.276 158.853 -234.709C254.268 -336.286 394.368 -405.019 526.68 -194.596C532.967 -184.597 538.899 -174.486 544.651 -164.364C661.191 41.2053 1103.17 148.818 1094.45 307.719C1091.26 362.44 1131.18 403.672 1175.25 448.271C1284.74 559.075 1580.49 658.556 1662.42 790.866C1689.26 834.216 1720.38 841.833 1757.74 831.966C1839.76 810.528 1950.7 776.038 2020.82 872.211C2092.49 970.504 2246.66 781.425 2351.55 731.471" stroke="#21F225" stroke-miterlimit="10"/>
<path d="M-151.106 67.1436C-30.3086 50.347 55.9188 -92.7399 141.533 -196.667C234.172 -309.101 365.837 -385.548 507.715 -168.83C514.286 -158.795 520.718 -148.66 527.104 -138.56C655.62 64.5697 1103.75 174.025 1083.73 336.082C1076.65 391.909 1116.51 433.447 1165.22 477.22C1284.1 584.078 1588.11 677.478 1665.58 815.669C1691.49 861.907 1722.87 869.829 1760.6 860.051C1843.84 838.659 1955.82 789.618 2024.94 892.499C2094.17 995.559 2251.28 802.163 2355.13 749.16" stroke="#21F225" stroke-miterlimit="10"/>
<path d="M-160.497 122.961C-39.7676 108.398 41.6255 -45.2049 124.22 -158.623C214 -281.884 337.211 -365.952 488.783 -143.039C495.646 -132.932 502.581 -122.829 509.624 -112.732C650.062 88.1209 1104.38 199.261 1073.07 364.467C1062.13 421.416 1101.91 463.333 1155.25 506.191C1283.61 609.368 1595.59 696.304 1668.77 840.487C1693.67 889.556 1725.4 897.852 1763.45 888.148C1847.9 866.762 1961.09 803.249 2029.06 912.783C2095.99 1020.67 2255.91 822.888 2358.7 766.82" stroke="#21F225" stroke-miterlimit="10"/>
<path d="M-169.874 178.755C-49.1858 166.437 27.2931 2.34447 106.957 -120.584C193.829 -254.643 308.58 -346.259 469.88 -117.264C477.026 -107.121 484.459 -96.9938 492.149 -86.9361C644.47 111.782 1105.02 224.486 1062.42 392.799C1047.61 450.831 1087.39 493.291 1145.27 535.13C1283.25 634.868 1602.88 714.956 1671.93 865.28C1695.78 917.163 1727.9 925.83 1766.32 916.213C1851.99 894.869 1966.51 816.909 2033.17 933.041C2097.92 1045.83 2260.54 843.58 2362.26 784.445" stroke="#21F225" stroke-miterlimit="10"/>
<path d="M-179.271 234.565C-58.6413 224.469 12.902 49.9303 89.6635 -82.5408C173.559 -227.39 279.852 -326.442 450.951 -91.4814C458.389 -81.2657 466.311 -71.1503 474.668 -61.1141C638.872 135.607 1105.64 249.705 1051.75 421.175C1033.09 480.324 1072.87 523.343 1135.29 564.094C1283.02 660.578 1609.98 733.509 1675.07 890.125C1697.77 944.785 1730.38 953.872 1769.13 944.308C1856.01 922.967 1971.99 830.677 2037.24 953.351C2099.89 1071.13 2265.14 864.316 2365.83 802.111" stroke="#21F225" stroke-miterlimit="10"/>
<path d="M-188.655 290.352C-68.0584 282.49 -1.49425 97.5296 72.3945 -44.5181C153.312 -200.095 251.095 -306.544 432.072 -65.6963C439.801 -55.4077 448.197 -45.2846 457.235 -35.2887C633.334 159.554 1106.27 274.95 1041.11 449.515C1018.59 509.744 1058.46 553.41 1125.34 593.024C1282.98 686.418 1617.01 751.879 1678.23 914.923C1699.79 972.321 1732.88 981.847 1771.99 972.387C1860.1 951.084 1977.6 844.473 2041.37 973.629C2102.03 1096.48 2269.81 885.015 2369.44 819.741" stroke="#21F225" stroke-miterlimit="10"/>
<path d="M-198.113 346.167C54.6721 334.308 48.1977 -511.4 413.129 -39.9052C576.985 171.783 1110.74 291.047 1030.41 477.866C941.99 683.512 1599.47 698.087 1681.31 939.76C1747.77 1135.94 1955.72 798.441 2045.41 993.927C2104.15 1121.92 2274.39 905.721 2372.97 837.376" stroke="#21F225" stroke-miterlimit="10"/>
</g>
</g>
</svg>
