<svg width="1920" height="1119" viewBox="0 0 1920 1119" fill="none" xmlns="http://www.w3.org/2000/svg">
<mask id="mask0_68_30" style="mask-type:alpha" maskUnits="userSpaceOnUse" x="0" y="0" width="1920" height="1119">
<rect width="1920" height="1119" fill="#D9D9D9"/>
</mask>
<g mask="url(#mask0_68_30)">
<mask id="mask1_68_30" style="mask-type:alpha" maskUnits="userSpaceOnUse" x="-53" y="-596" width="2474" height="1695">
<rect width="2398.23" height="1676.14" transform="matrix(1.00011 0.00814134 0.0448366 -0.999166 -53 1079.11)" fill="#C4C4C4"/>
</mask>
<g mask="url(#mask1_68_30)">
<path d="M-207.512 -420.723C-96.7332 -495.865 60.5388 -507.611 210.002 -476.544C359.465 -445.476 656.824 -428.637 637.947 -296.223C588.812 48.4259 1278.32 -51.4641 1248.69 165.909C1217.57 394.192 1522.78 588.024 1701.98 486.716C1760.88 453.41 1897.96 605.064 1970.24 598.041C2093.57 586.06 2168.04 460.992 2286.43 434.932" stroke="#21F225" stroke-miterlimit="10"/>
<path d="M-207.645 -362.491C-96.4904 -435.429 54.5684 -455.68 199.048 -434.787C332.078 -415.543 586.836 -407.052 621.927 -296.797C624.903 -287.48 625.827 -277.452 624.852 -266.77C601.715 -14.3335 980.471 -4.12492 1150.09 79.8328C1207.92 108.511 1247.9 143.475 1243.87 197.175C1229.94 381.657 1442.15 536.367 1612.23 538.521C1646.52 538.939 1679.92 531.429 1710.05 514.618C1770.21 481.078 1905.67 619.931 1978.35 617.803C2100.12 614.226 2176.84 480.978 2293.72 452.01" stroke="#21F225" stroke-miterlimit="10"/>
<path d="M-207.364 -304.853C-95.873 -375.488 49.0605 -404.227 188.358 -393.404C317.243 -383.393 564.371 -383.032 607.552 -267.385C610.998 -258.135 612.333 -248.178 611.921 -237.626C602.346 9.99524 985.689 20.8364 1144.54 110.256C1198.7 140.825 1239.68 175.935 1239.13 228.061C1237.22 406.332 1454.1 549.755 1620.07 562.622C1654.19 565.278 1687.66 558.906 1718.13 542.089C1779.5 508.327 1913.12 634.35 1986.38 637.2C2106.25 641.855 2185.46 500.76 2300.74 468.934" stroke="#21F225" stroke-miterlimit="10"/>
<path d="M-206.383 -248.244C-94.6803 -316.466 44.1596 -353.588 178.063 -352.736C302.856 -351.949 541.824 -359.61 593.371 -238.565C597.29 -229.386 599.054 -219.474 599.22 -209.083C603.224 33.3858 991.066 45.2083 1139.08 140.016C1189.54 172.475 1231.5 207.607 1234.51 258.224C1244.63 429.909 1466.56 562.63 1627.96 585.929C1661.99 590.849 1695.42 585.621 1726.23 568.845C1788.75 534.949 1920.28 647.99 1994.3 655.946C2111.91 668.583 2193.77 520.13 2307.37 485.544" stroke="#21F225" stroke-miterlimit="10"/>
<path d="M-205.414 -191.617C-93.456 -257.441 39.3576 -303.078 167.783 -312.069C288.598 -320.545 518.987 -336.246 579.232 -209.727C583.56 -200.621 585.789 -190.76 586.531 -180.528C603.96 56.7918 996.385 69.6261 1133.65 169.829C1180.45 204.155 1223.33 239.287 1229.89 288.468C1251.83 453.39 1479.31 576.102 1635.82 609.371C1669.85 616.598 1703.13 612.44 1734.26 595.722C1797.98 561.676 1927.18 661.639 2002.19 674.818C2117.29 695.041 2202.08 539.586 2314.03 502.245" stroke="#21F225" stroke-miterlimit="10"/>
<path d="M-204.45 -134.992C-92.2364 -198.476 34.6841 -252.698 157.523 -271.42C274.432 -289.242 495.949 -312.938 565.087 -180.91C569.824 -171.877 572.525 -162.087 573.856 -151.975C604.5 80.1271 1001.69 94.0591 1128.23 199.621C1171.34 235.812 1215.13 270.798 1225.29 318.676C1258.79 476.657 1492.27 590.129 1643.65 632.845C1677.77 642.464 1710.84 639.289 1742.32 622.602C1807.19 588.409 1933.89 675.141 2010.09 693.726C2122.48 721.13 2210.42 559.046 2320.72 518.906" stroke="#21F225" stroke-miterlimit="10"/>
<path d="M-203.478 -78.3895C-90.9795 -139.52 30.0462 -202.517 147.292 -230.806C260.353 -258.094 472.718 -289.625 550.975 -152.121C556.084 -143.15 559.255 -133.43 561.183 -123.458C604.877 103.399 1007.17 118.326 1122.79 229.403C1162.32 267.387 1206.84 302.23 1220.66 348.88C1265.33 499.712 1505.33 604.726 1651.43 656.334C1685.68 668.427 1718.49 666.124 1750.32 649.467C1816.39 615.11 1940.42 688.447 2017.93 712.606C2127.5 746.773 2218.72 578.449 2327.36 535.526" stroke="#21F225" stroke-miterlimit="10"/>
<path d="M-202.523 -21.7708C-89.7524 -80.5802 25.4437 -152.481 137.066 -190.187C246.312 -227.075 449.26 -266.247 536.895 -123.309C542.365 -114.378 546.05 -104.755 548.565 -94.9C605.088 126.673 1012.52 142.856 1117.41 259.208C1153.31 299.027 1198.5 333.613 1216.09 379.132C1271.52 522.705 1518.47 619.996 1659.23 679.907C1693.65 694.571 1726.19 693.046 1758.36 676.435C1825.59 641.919 1946.94 701.645 2025.8 731.621C2132.53 772.187 2227.07 597.959 2334.09 552.26" stroke="#21F225" stroke-miterlimit="10"/>
<path d="M-201.559 34.8258C-88.4807 -21.666 20.8124 -102.641 126.893 -149.586C232.271 -196.224 425.657 -242.833 522.845 -94.5215C528.66 -85.6624 532.848 -76.1146 535.973 -66.3619C605.125 149.916 1017.86 167.391 1112.04 289.016C1144.3 330.685 1190.06 364.942 1211.52 409.371C1277.26 545.562 1531.56 635.759 1667.04 703.512C1701.66 720.83 1733.91 719.986 1766.4 703.385C1834.84 668.697 1953.44 714.658 2033.65 750.614C2137.56 797.19 2235.42 617.424 2340.78 568.93" stroke="#21F225" stroke-miterlimit="10"/>
<path d="M-200.611 91.4414C-87.2406 37.2392 16.0921 -52.9458 116.697 -108.986C218.107 -165.493 401.841 -219.312 508.775 -65.7288C514.914 -56.8983 519.614 -47.4457 523.331 -37.8279C604.871 173.17 1023.1 191.955 1106.62 318.8C1135.27 362.289 1181.45 396.198 1206.9 439.61C1282.44 568.457 1544.41 651.978 1674.74 727.133C1709.53 747.184 1741.49 746.942 1774.36 730.352C1843.98 695.474 1959.92 727.482 2041.45 769.623C2142.64 821.919 2243.73 636.884 2347.46 585.59" stroke="#21F225" stroke-miterlimit="10"/>
<path d="M-199.665 148.053C-85.9587 96.1184 11.311 -3.38121 106.517 -68.3964C203.887 -134.88 377.885 -195.7 494.75 -36.9274C501.222 -28.1463 506.422 -18.7662 510.756 -9.26906C604.461 196.493 1028.4 216.597 1101.26 348.633C1126.28 393.956 1172.77 427.545 1202.33 469.879C1287.24 591.441 1557.12 668.598 1682.47 750.808C1717.38 773.695 1749.14 773.935 1782.34 757.349C1853.13 722.299 1966.52 740.197 2049.25 788.69C2147.84 846.474 2252.06 656.385 2354.18 602.278" stroke="#21F225" stroke-miterlimit="10"/>
<path d="M-198.713 204.642C-84.6991 154.97 6.43048 46.0642 96.3591 -27.8348C189.556 -104.407 353.786 -171.995 480.733 -8.18326C487.528 0.570585 493.213 9.84484 498.162 19.2226C603.839 219.802 1033.63 241.178 1095.88 378.377C1117.28 425.53 1163.95 458.833 1197.75 500.064C1291.6 614.539 1569.52 685.433 1690.17 774.421C1725.13 800.21 1756.74 800.844 1790.31 784.308C1862.31 749.073 1973.2 752.712 2057.04 807.725C2153.22 870.841 2260.38 675.835 2360.88 618.922" stroke="#21F225" stroke-miterlimit="10"/>
<path d="M-197.775 261.248C-83.4211 213.842 1.42108 95.455 86.2033 12.7411C175.127 -73.9644 329.585 -148.15 466.739 20.6145C473.83 29.3289 480.023 38.5111 485.613 47.7835C603.076 243.285 1038.86 265.83 1090.53 408.213C1108.29 457.177 1155.02 490.298 1193.18 530.363C1295.7 638.014 1581.64 702.559 1697.85 798.192C1732.79 826.937 1764.35 827.915 1798.25 811.38C1871.42 775.965 1980.07 765.25 2064.81 826.858C2158.75 895.159 2268.69 695.368 2367.57 635.645" stroke="#21F225" stroke-miterlimit="10"/>
<path d="M-196.829 317.832C-82.1549 272.668 -3.69655 144.752 76.0957 53.3045C160.585 -43.5821 305.328 -124.191 452.769 49.3921C460.173 58.1018 466.858 67.1585 473.061 76.3137C602.138 266.819 1044.09 290.478 1085.18 437.997C1099.34 488.781 1146.05 521.814 1188.62 560.592C1299.6 661.713 1593.47 719.715 1705.54 821.887C1740.34 853.61 1771.94 854.891 1806.22 838.381C1880.61 802.776 1987.12 777.636 2072.58 845.935C2164.49 919.359 2277.02 714.831 2374.29 652.307" stroke="#21F225" stroke-miterlimit="10"/>
<path d="M-195.899 374.433C-80.873 331.514 -8.898 194.097 65.9622 93.8704C145.923 -13.1861 280.931 -100.082 438.778 78.1773C446.468 86.8697 453.66 95.836 460.51 104.866C601.097 290.513 1048.94 315.135 1079.81 467.825C1090.21 520.424 1137.04 553.512 1184.05 590.867C1303.43 685.773 1604.98 736.994 1713.19 845.645C1747.78 880.378 1779.52 881.937 1814.13 865.445C1889.69 829.655 1994.27 790.024 2080.32 865.071C2170.34 943.595 2285.31 734.362 2380.98 668.98" stroke="#21F225" stroke-miterlimit="10"/>
<path d="M-194.963 431.01C-79.6064 390.316 -14.1694 243.398 55.8483 134.412C131.197 17.1748 256.459 -75.893 424.836 106.956C432.837 115.644 440.509 124.508 448.006 133.414C599.991 314.359 1054.17 339.789 1074.5 497.627C1081.31 552.015 1128.07 585.299 1179.52 621.138C1307.33 710.181 1616.24 754.211 1720.86 869.413C1755.15 907.157 1787.13 908.987 1822.07 892.491C1898.82 856.492 2001.64 802.4 2088.08 884.215C2176.43 967.834 2293.64 753.868 2387.71 685.668" stroke="#21F225" stroke-miterlimit="10"/>
<path d="M-194.04 487.605C-78.3124 449.118 -19.5478 292.735 45.7362 174.969C116.381 47.5619 231.946 -51.5574 410.874 135.741C419.16 144.414 427.328 153.209 435.445 161.98C598.762 338.347 1059.33 364.471 1069.11 527.467C1072.3 583.651 1119.06 617.245 1174.92 651.428C1311.25 734.883 1627.18 771.432 1728.49 893.227C1762.37 933.981 1794.67 936.064 1829.99 919.588C1907.95 883.412 2009.15 814.821 2095.83 903.416C2182.65 992.165 2301.96 773.419 2394.44 702.413" stroke="#21F225" stroke-miterlimit="10"/>
<path d="M-193.122 544.2C-77.0551 507.921 -24.9569 342.076 35.6319 215.527C101.495 77.994 207.361 -27.0821 396.948 164.545C405.535 173.235 414.192 181.909 422.954 190.556C597.581 362.516 1064.54 389.171 1063.79 557.317C1063.39 615.306 1110.14 649.287 1170.38 681.73C1315.36 759.841 1637.95 788.583 1736.13 917.052C1769.55 960.773 1802.26 963.16 1837.9 946.698C1917.05 910.309 2016.8 827.268 2103.57 922.612C2189.01 1016.53 2310.29 792.956 2401.16 719.129" stroke="#21F225" stroke-miterlimit="10"/>
<path d="M-192.195 600.768C-75.7602 566.705 -30.4019 391.439 25.5748 256.073C86.6154 108.449 182.789 -2.50976 383.049 193.328C391.92 202.003 401.072 210.609 410.462 219.1C596.386 386.799 1069.76 413.859 1058.48 587.113C1054.47 646.87 1101.3 681.388 1165.84 712.001C1319.65 784.98 1648.51 805.599 1743.76 940.855C1776.64 987.536 1809.8 990.216 1845.83 973.773C1926.19 937.202 2024.62 839.715 2111.29 941.785C2195.47 1040.92 2318.6 812.462 2407.87 735.812" stroke="#21F225" stroke-miterlimit="10"/>
<path d="M-191.284 657.357C-74.5028 625.489 -35.8979 440.849 15.4895 296.626C71.6409 138.935 158.145 22.2016 369.125 222.124C378.296 230.817 387.926 239.322 397.969 247.671C595.214 411.246 1074.95 438.546 1053.14 616.957C1045.55 678.514 1092.5 713.579 1161.28 742.298C1324.1 810.303 1658.88 822.549 1751.36 964.717C1783.63 1014.34 1817.34 1017.34 1853.71 1000.89C1935.26 964.1 2032.52 852.255 2118.99 961.015C2202.01 1065.44 2326.9 832.016 2414.6 752.534" stroke="#21F225" stroke-miterlimit="10"/>
<path d="M-190.366 713.92C-73.2104 684.256 -41.3971 490.273 5.42364 337.156C56.6956 169.457 133.487 46.9987 355.25 250.913C364.721 259.624 374.819 268.051 385.524 276.237C594.124 435.801 1080.16 463.255 1047.84 646.76C1036.65 710.079 1083.79 745.766 1156.76 772.556C1328.76 835.719 1669.13 839.336 1758.98 988.526C1790.62 1041.04 1824.89 1044.39 1861.63 1027.98C1944.39 991.006 2040.54 864.801 2126.74 980.204C2208.73 1089.98 2335.25 851.521 2421.35 769.214" stroke="#21F225" stroke-miterlimit="10"/>
<path d="M-189.514 770.524C56.8979 712.886 -103.286 -117.539 341.314 279.719C540.939 458.074 1087.48 478.269 1042.47 676.582C992.929 894.881 1642.09 789.631 1766.53 1012.39C1867.56 1193.21 2010.66 823.515 2134.41 999.428C2215.44 1114.6 2343.52 871.047 2428.03 785.913" stroke="#21F225" stroke-miterlimit="10"/>
</g>
</g>
</svg>
