<svg width="1920" height="767" viewBox="0 0 1920 767" fill="none" xmlns="http://www.w3.org/2000/svg">
<mask id="mask0_68_3" style="mask-type:alpha" maskUnits="userSpaceOnUse" x="0" y="0" width="1920" height="767">
<rect width="1920" height="767" fill="#D9D9D9"/>
</mask>
<g mask="url(#mask0_68_3)">
<mask id="mask1_68_3" style="mask-type:alpha" maskUnits="userSpaceOnUse" x="-62" y="-408" width="2440" height="915">
<rect width="2398.23" height="895.532" transform="matrix(1.00011 0.00814134 0.0448366 -0.999166 -61.4199 487.062)" fill="#C4C4C4"/>
</mask>
<g mask="url(#mask1_68_3)">
<path d="M2577.73 -1039.38C2466.95 -1114.52 2309.68 -1126.27 2160.22 -1095.2C2010.75 -1064.13 1713.39 -1047.3 1732.27 -914.882C1781.41 -570.233 1091.9 -670.123 1121.53 -452.75C1152.65 -224.467 847.438 -30.6348 668.237 -131.943C609.342 -165.249 472.262 -13.5951 399.974 -20.6179C276.645 -32.5984 202.181 -157.666 83.7869 -183.726" stroke="#21F225" stroke-miterlimit="10"/>
<path d="M2577.86 -981.15C2466.71 -1054.09 2315.65 -1074.34 2171.17 -1053.45C2038.14 -1034.2 1783.38 -1025.71 1748.29 -915.455C1745.31 -906.139 1744.39 -896.111 1745.37 -885.428C1768.5 -632.992 1389.75 -622.784 1220.13 -538.826C1162.3 -510.148 1122.31 -475.183 1126.35 -421.484C1140.28 -237.002 928.068 -82.2913 757.991 -80.1372C723.693 -79.7198 690.297 -87.2298 660.167 -104.041C600.007 -137.58 464.547 1.27232 391.872 -0.855848C270.096 -4.43242 193.377 -137.68 76.4998 -166.649" stroke="#21F225" stroke-miterlimit="10"/>
<path d="M2577.58 -923.512C2466.09 -994.147 2321.16 -1022.89 2181.86 -1012.06C2052.97 -1002.05 1805.85 -1001.69 1762.67 -886.044C1759.22 -876.793 1757.88 -866.836 1758.3 -856.285C1767.87 -608.663 1384.53 -597.822 1225.68 -508.402C1171.52 -477.834 1130.54 -442.724 1131.09 -390.597C1133 -212.327 916.118 -68.9033 750.151 -56.0362C716.027 -53.3808 682.559 -59.7526 652.089 -76.5693C590.716 -110.332 457.098 15.6916 383.837 18.5414C263.966 23.1968 184.762 -117.899 69.4825 -149.725" stroke="#21F225" stroke-miterlimit="10"/>
<path d="M2576.6 -866.903C2464.9 -935.125 2326.06 -972.246 2192.15 -971.394C2067.36 -970.608 1828.39 -978.268 1776.85 -857.224C1772.93 -848.045 1771.16 -838.133 1771 -827.742C1766.99 -585.273 1379.15 -573.45 1231.14 -478.643C1180.68 -446.183 1138.72 -411.052 1135.71 -360.435C1125.58 -188.749 903.663 -56.0285 742.254 -32.7299C708.231 -27.8092 674.797 -33.038 643.991 -49.8139C581.467 -83.7098 449.934 29.3309 375.914 37.2874C258.307 49.9239 176.447 -98.529 62.8484 -133.115" stroke="#21F225" stroke-miterlimit="10"/>
<path d="M2575.63 -810.276C2463.67 -876.1 2330.86 -921.737 2202.43 -930.728C2081.62 -939.204 1851.23 -954.905 1790.99 -828.385C1786.66 -819.28 1784.43 -809.419 1783.69 -799.187C1766.26 -561.867 1373.83 -549.033 1236.57 -448.83C1189.77 -414.503 1146.88 -379.372 1140.33 -330.19C1118.39 -165.269 890.904 -42.5569 734.398 -9.28797C700.368 -2.06091 667.091 -6.2187 635.954 -22.9369C572.241 -56.9827 443.034 42.9799 368.023 56.1591C252.933 76.3824 168.137 -79.0726 56.1847 -116.414" stroke="#21F225" stroke-miterlimit="10"/>
<path d="M2574.67 -753.651C2462.45 -817.135 2335.53 -871.357 2212.7 -890.079C2095.79 -907.901 1874.27 -931.596 1805.13 -799.569C1800.39 -790.536 1797.69 -780.746 1796.36 -770.634C1765.72 -538.532 1368.53 -524.6 1241.99 -419.038C1198.88 -382.847 1155.09 -347.861 1144.93 -299.982C1111.43 -142.002 877.949 -28.5298 726.57 14.1862C692.443 23.8054 659.377 20.6298 627.896 3.9437C563.025 -30.25 436.332 56.4818 360.127 75.0671C247.739 102.471 159.798 -59.6129 49.5013 -99.7522" stroke="#21F225" stroke-miterlimit="10"/>
<path d="M2573.7 -697.048C2461.2 -758.179 2340.17 -821.176 2222.93 -849.464C2109.86 -876.753 1897.5 -908.283 1819.24 -770.78C1814.13 -761.809 1810.96 -752.088 1809.03 -742.117C1765.34 -515.26 1363.05 -500.332 1247.43 -389.256C1207.9 -351.272 1163.37 -316.429 1149.55 -269.779C1104.88 -118.946 864.891 -13.933 718.786 37.6749C684.537 49.7685 651.725 47.4657 619.898 30.8081C553.829 -3.54824 429.796 69.7883 352.284 93.9478C242.718 128.114 151.493 -40.2099 42.8539 -83.1327" stroke="#21F225" stroke-miterlimit="10"/>
<path d="M2572.74 -640.43C2459.97 -699.239 2344.77 -771.14 2233.15 -808.846C2123.91 -845.734 1920.96 -884.905 1833.32 -741.968C1827.85 -733.036 1824.17 -723.414 1821.65 -713.559C1765.13 -491.986 1357.7 -475.803 1252.81 -359.451C1216.91 -319.632 1171.72 -285.046 1154.13 -239.527C1098.7 -95.9534 851.749 1.33693 710.988 61.2484C676.566 75.9125 644.026 74.3869 611.861 57.7761C544.627 23.2604 423.282 82.986 344.416 112.963C237.69 153.528 143.144 -20.6995 36.1301 -66.3992" stroke="#21F225" stroke-miterlimit="10"/>
<path d="M2571.78 -583.833C2458.7 -640.325 2349.41 -721.3 2243.32 -768.245C2137.95 -814.882 1944.56 -861.492 1847.37 -713.18C1841.56 -704.321 1837.37 -694.773 1834.25 -685.021C1765.09 -468.742 1352.35 -451.267 1258.18 -329.643C1225.91 -287.974 1180.16 -253.717 1158.7 -209.288C1092.96 -73.0963 838.653 17.0999 703.178 84.853C668.556 102.171 636.308 101.328 603.819 84.7264C535.382 50.038 416.782 95.9998 336.57 131.956C232.661 178.532 134.802 -1.23433 29.4336 -49.7289" stroke="#21F225" stroke-miterlimit="10"/>
<path d="M2570.83 -527.217C2457.46 -581.419 2354.13 -671.604 2253.52 -727.645C2152.11 -784.152 1968.38 -837.97 1861.44 -684.388C1855.3 -675.557 1850.6 -666.104 1846.89 -656.487C1765.35 -445.489 1347.12 -426.704 1263.59 -299.858C1234.95 -256.37 1188.77 -222.461 1163.32 -179.049C1087.78 -50.2012 825.81 33.3195 695.478 108.474C660.692 128.525 628.729 128.284 595.854 111.693C526.237 76.815 410.296 108.823 328.769 150.964C227.574 203.26 126.491 18.2258 22.7618 -33.0683" stroke="#21F225" stroke-miterlimit="10"/>
<path d="M2569.88 -470.605C2456.18 -522.54 2358.91 -622.04 2263.7 -687.055C2166.33 -753.539 1992.33 -814.359 1875.47 -655.586C1869 -646.805 1863.8 -637.425 1859.46 -627.928C1765.76 -422.166 1341.82 -402.061 1268.96 -270.026C1243.94 -224.702 1197.44 -191.114 1167.88 -148.779C1082.98 -27.2181 813.093 49.9395 687.743 132.15C652.839 155.036 621.075 155.276 587.873 138.691C517.084 103.64 403.699 121.538 320.963 170.032C222.374 227.816 118.162 37.7259 16.0326 -16.3805" stroke="#21F225" stroke-miterlimit="10"/>
<path d="M2568.93 -414.017C2454.92 -463.688 2363.79 -572.594 2273.86 -646.493C2180.66 -723.066 2016.43 -790.654 1889.48 -626.842C1882.69 -618.088 1877 -608.814 1872.06 -599.436C1766.38 -398.857 1336.59 -377.481 1274.34 -240.281C1252.93 -193.128 1206.27 -159.826 1172.47 -118.595C1078.62 -4.11984 800.702 66.7747 680.048 155.763C645.086 181.551 613.482 182.185 579.91 165.649C507.912 130.414 397.014 134.053 313.177 189.067C216.995 252.182 109.841 57.1768 9.34237 0.26331" stroke="#21F225" stroke-miterlimit="10"/>
<path d="M2567.99 -357.41C2453.64 -404.817 2368.8 -523.204 2284.01 -605.918C2195.09 -692.623 2040.63 -766.809 1903.48 -598.044C1896.39 -589.33 1890.19 -580.148 1884.61 -570.875C1767.14 -375.373 1331.36 -352.828 1279.69 -210.446C1261.92 -161.481 1215.2 -128.361 1177.03 -88.2953C1074.52 19.3549 788.575 83.9004 672.364 179.533C637.433 208.279 605.871 209.256 571.97 192.721C498.796 157.307 390.152 146.591 305.405 208.2C211.467 276.501 101.523 76.7097 2.65043 16.9858" stroke="#21F225" stroke-miterlimit="10"/>
<path d="M2567.05 -300.827C2452.37 -345.991 2373.91 -473.907 2294.12 -565.354C2209.63 -662.241 2064.89 -742.85 1917.45 -569.267C1910.04 -560.557 1903.36 -551.5 1897.16 -542.345C1768.08 -351.84 1326.13 -328.18 1285.04 -180.662C1270.88 -129.878 1224.16 -96.8445 1181.59 -58.0669C1070.62 43.0542 776.748 101.057 664.68 203.228C629.881 234.951 598.282 236.233 563.999 219.722C489.612 184.117 383.096 158.977 297.637 227.276C205.728 300.7 93.2017 96.1723 -4.0746 33.6482" stroke="#21F225" stroke-miterlimit="10"/>
<path d="M2566.12 -244.226C2451.09 -287.145 2379.12 -424.561 2304.26 -524.788C2224.29 -631.845 2089.29 -718.741 1931.44 -540.481C1923.75 -531.789 1916.56 -522.823 1909.71 -513.792C1769.12 -328.146 1321.28 -303.523 1290.41 -150.834C1280.01 -98.2349 1233.17 -65.1469 1186.17 -27.7922C1066.78 67.1144 765.235 118.336 657.029 226.986C622.44 261.72 590.696 263.278 556.092 246.786C480.527 210.996 375.949 171.365 289.9 246.412C199.88 324.936 84.9107 115.703 -10.7668 50.3211" stroke="#21F225" stroke-miterlimit="10"/>
<path d="M2565.18 -187.648C2449.82 -228.343 2384.39 -375.261 2314.37 -484.247C2239.02 -601.484 2113.76 -694.552 1945.38 -511.703C1937.38 -503.015 1929.71 -494.151 1922.21 -485.245C1770.23 -304.3 1316.05 -278.869 1295.72 -121.032C1288.91 -66.6434 1242.15 -33.36 1190.7 2.47911C1062.89 91.5218 753.979 135.552 649.354 250.755C615.069 288.499 583.084 290.328 548.147 273.832C471.393 237.833 368.577 183.742 282.134 265.557C193.783 349.176 76.5748 135.21 -17.4882 67.0097" stroke="#21F225" stroke-miterlimit="10"/>
<path d="M2564.26 -131.054C2448.53 -169.541 2389.77 -325.924 2324.48 -443.689C2253.84 -571.097 2138.27 -670.216 1959.34 -482.917C1951.06 -474.245 1942.89 -465.449 1934.77 -456.679C1771.46 -280.312 1310.89 -254.188 1301.1 -91.1919C1297.91 -35.0079 1251.16 -1.41388 1195.3 32.7696C1058.97 116.224 743.041 152.773 641.731 274.569C607.843 315.323 575.547 317.405 540.227 300.93C462.267 264.754 361.067 196.163 274.392 284.757C187.569 373.506 68.2554 154.761 -24.222 83.7543" stroke="#21F225" stroke-miterlimit="10"/>
<path d="M2563.34 -74.4591C2447.27 -110.737 2395.17 -276.582 2334.59 -403.131C2268.72 -540.665 2162.86 -645.741 1973.27 -454.113C1964.68 -445.423 1956.03 -436.75 1947.26 -428.103C1772.64 -256.143 1305.68 -229.488 1306.43 -61.3413C1306.83 -3.35244 1260.08 30.6287 1199.84 63.0716C1054.86 141.182 732.264 169.925 634.085 298.393C600.669 342.114 567.96 344.501 532.315 328.04C453.164 291.65 353.413 208.61 266.65 303.953C181.213 397.867 59.9293 174.298 -30.9403 100.47" stroke="#21F225" stroke-miterlimit="10"/>
<path d="M2562.41 -17.8904C2445.98 -51.9537 2400.62 -227.219 2344.64 -362.586C2283.6 -510.21 2187.43 -621.168 1987.17 -425.33C1978.3 -416.656 1969.15 -408.05 1959.76 -399.558C1773.83 -231.859 1300.46 -204.799 1311.74 -31.5452C1315.75 28.2117 1268.91 62.7291 1204.38 93.342C1050.57 166.322 721.707 186.941 626.459 322.196C593.574 368.877 560.416 371.558 524.387 355.114C444.028 318.544 345.598 221.056 258.925 323.127C174.743 422.263 51.6148 193.803 -37.65 117.153" stroke="#21F225" stroke-miterlimit="10"/>
<path d="M2561.5 38.6984C2444.72 6.83077 2406.12 -177.809 2354.73 -322.032C2298.58 -479.724 2212.07 -596.457 2001.09 -396.535C1991.92 -387.842 1982.29 -379.336 1972.25 -370.987C1775 -207.413 1295.27 -180.112 1317.07 -1.70182C1324.66 59.8549 1277.72 94.9206 1208.93 123.64C1046.12 191.644 711.342 203.891 618.861 346.058C586.591 395.677 552.873 398.681 516.509 382.228C434.957 345.441 337.7 233.597 251.226 342.356C168.204 446.781 43.3201 213.357 -44.3781 133.875" stroke="#21F225" stroke-miterlimit="10"/>
<path d="M2560.58 95.2617C2443.43 65.5968 2411.61 -128.385 2364.79 -281.503C2313.52 -449.202 2236.73 -571.66 2014.97 -367.746C2005.5 -359.034 1995.4 -350.607 1984.69 -342.422C1776.09 -182.857 1290.06 -155.404 1322.38 28.1008C1333.57 91.4208 1286.42 127.107 1213.46 153.897C1041.45 217.06 701.092 220.677 611.241 369.867C579.6 422.386 545.332 425.735 508.591 409.319C425.831 372.347 329.677 246.143 243.476 361.546C161.484 471.317 34.9699 232.862 -51.1295 150.555" stroke="#21F225" stroke-miterlimit="10"/>
<path d="M2559.73 151.865C2313.32 94.2276 2473.5 -736.198 2028.9 -338.94C1829.28 -160.585 1282.73 -140.389 1327.74 57.9234C1377.29 276.222 728.129 170.972 603.689 393.728C502.657 574.552 359.559 204.857 235.811 380.769C154.78 495.943 26.6952 252.389 -57.8105 167.254" stroke="#21F225" stroke-miterlimit="10"/>
</g>
</g>
</svg>
