<svg width="106" height="106" viewBox="0 0 106 106" fill="none" xmlns="http://www.w3.org/2000/svg">
<circle cx="53" cy="53" r="53" fill="#7289DA"/>
<path d="M70.0435 56.1074C70.0435 52.6098 67.4348 49.768 64.3913 49.768C61.1304 49.768 58.5217 52.6098 58.5217 56.1074C58.5217 59.3864 61.1304 62.2282 64.3913 62.2282C67.4348 62.2282 70.0435 59.3864 70.0435 56.1074ZM43.9565 49.768C40.913 49.768 38.3043 52.6098 38.3043 56.1074C38.3043 59.3864 40.913 62.2282 43.9565 62.2282C47.2174 62.2282 49.6087 59.3864 49.6087 56.1074C49.8261 52.6098 47.2174 49.768 43.9565 49.768ZM87 67.4746C87 67.4746 82.2174 75.5628 69.8261 76C69.8261 76 67.8696 73.5954 66.1304 71.4094C73.5217 69.442 76.3478 64.8514 76.3478 64.8514C73.9565 66.3816 71.7826 67.256 69.8261 68.1304C57.8696 73.1582 44.6087 71.4094 35.0435 66.163C35.0435 65.9444 33.7391 65.2886 32.8696 64.6328C32.8696 64.6328 35.4783 69.2234 42.6522 71.4094C40.913 73.3768 38.9565 76 38.9565 76C26.5652 75.5628 22 67.4746 22 67.4746C22 49.3308 29.8261 34.9032 29.8261 34.9032C37.8696 28.7824 45.4783 29.001 45.4783 29.001L46.1304 29.6568C36.1304 32.4986 31.5652 36.8706 31.5652 36.8706C31.5652 36.8706 32.6522 36.2148 34.8261 35.3404C47.6522 29.6568 63.087 29.6568 76.3478 36.8706C76.3478 36.8706 72 32.7172 62.4348 29.8754L63.3043 29.001C63.3043 29.001 70.913 28.7824 78.9565 34.9032C78.9565 34.9032 87 49.3308 87 67.4746Z" fill="white"/>
</svg>
