<svg width="1209" height="648" viewBox="0 0 1209 648" fill="none" xmlns="http://www.w3.org/2000/svg">
<mask id="mask0_59_5" style="mask-type:alpha" maskUnits="userSpaceOnUse" x="0" y="0" width="1209" height="648">
<rect width="1209" height="648" fill="#D9D9D9"/>
</mask>
<g mask="url(#mask0_59_5)">
<path d="M16 359.917H1287" stroke="black" stroke-miterlimit="10"/>
<path d="M43.7129 359.917V268.394" stroke="black" stroke-miterlimit="10"/>
<path d="M24.8174 290.928C24.8174 290.928 27.7928 274.244 43.6906 274.244C59.5884 274.244 61.7168 290.928 61.7168 290.928" stroke="black" stroke-miterlimit="10"/>
<path d="M21.082 275.826C28.204 271.245 36.4983 268.809 44.9722 268.809C53.4461 268.809 61.7404 271.245 68.8624 275.826" stroke="black" stroke-miterlimit="10"/>
<path d="M24.8174 257.452C24.8174 257.452 43.6906 259.619 43.6906 274.158C43.6906 274.158 47.1222 257.452 64.3665 257.452" stroke="black" stroke-miterlimit="10"/>
<path d="M175.956 314.155H78.4189V359.917H175.956V314.155Z" fill="#29FC2E" stroke="black" stroke-linecap="round" stroke-linejoin="round"/>
<path d="M145.007 330.189H106.956V359.916H145.007V330.189Z" fill="white" stroke="black" stroke-linecap="round" stroke-linejoin="round"/>
<path d="M127.198 330.189V359.916" stroke="black" stroke-linecap="round" stroke-linejoin="round"/>
<path d="M172.719 231.256H76.4854V244.105H172.719V231.256Z" fill="#29FC2E" stroke="black" stroke-linecap="round" stroke-linejoin="round"/>
<path d="M168.375 244.105H82.3926V314.155H168.375V244.105Z" fill="white" stroke="black" stroke-linecap="round" stroke-linejoin="round"/>
<path d="M121.79 257.561H88.4521V265.902H121.79V257.561Z" fill="#29FC2E" stroke="black" stroke-linecap="round" stroke-linejoin="round"/>
<path d="M161.665 250.237H128.327V258.579H161.665V250.237Z" stroke="black" stroke-linecap="round" stroke-linejoin="round"/>
<path d="M121.79 299.335H88.4521V307.677H121.79V299.335Z" stroke="black" stroke-linecap="round" stroke-linejoin="round"/>
<path d="M161.665 292.033H128.327V300.375H161.665V292.033Z" fill="#29FC2E" stroke="black" stroke-linecap="round" stroke-linejoin="round"/>
<path d="M246.8 323.494H175.955V359.938H246.8V323.494Z" fill="white" stroke="black" stroke-linecap="round" stroke-linejoin="round"/>
<path d="M341.145 258.601H246.822V359.938H341.145V258.601Z" fill="#29FC2E" stroke="black" stroke-linecap="round" stroke-linejoin="round"/>
<path d="M199.389 337.036H187.553V359.917H199.389V337.036Z" fill="#29FC2E" stroke="black" stroke-linecap="round" stroke-linejoin="round"/>
<path d="M236.484 337.036H211.399V359.917H236.484V337.036Z" fill="#29FC2E" stroke="black" stroke-linecap="round" stroke-linejoin="round"/>
<path d="M341.145 245.492H264.545V258.6H341.145V245.492Z" fill="white" stroke="black" stroke-linecap="round" stroke-linejoin="round"/>
<path d="M415.204 193.664H341.318V359.938H415.204V193.664Z" fill="white" stroke="black" stroke-linecap="round" stroke-linejoin="round"/>
<path d="M423.045 181.595H333.457V193.663H423.045V181.595Z" fill="#29FC2E" stroke="black" stroke-linecap="round" stroke-linejoin="round"/>
<path d="M392.943 203.5H361.147V211.322H392.943V203.5Z" fill="#29FC2E" stroke="black" stroke-linecap="round" stroke-linejoin="round"/>
<path d="M392.943 221.81H361.147V229.631H392.943V221.81Z" fill="#29FC2E" stroke="black" stroke-linecap="round" stroke-linejoin="round"/>
<path d="M392.943 240.118H361.147V247.94H392.943V240.118Z" fill="#29FC2E" stroke="black" stroke-linecap="round" stroke-linejoin="round"/>
<path d="M392.943 258.427H361.147V266.249H392.943V258.427Z" fill="#29FC2E" stroke="black" stroke-linecap="round" stroke-linejoin="round"/>
<path d="M392.943 276.736H361.147V284.558H392.943V276.736Z" fill="#29FC2E" stroke="black" stroke-linecap="round" stroke-linejoin="round"/>
<path d="M392.943 295.045H361.147V302.867H392.943V295.045Z" fill="#29FC2E" stroke="black" stroke-linecap="round" stroke-linejoin="round"/>
<path d="M392.943 313.354H361.147V321.175H392.943V313.354Z" fill="#29FC2E" stroke="black" stroke-linecap="round" stroke-linejoin="round"/>
<path d="M392.943 331.208H361.147V359.917H392.943V331.208Z" stroke="black" stroke-linecap="round" stroke-linejoin="round"/>
<path d="M373.18 359.917V331.208" stroke="black" stroke-linecap="round" stroke-linejoin="round"/>
<path d="M277.88 331.208H260.418V359.917H277.88V331.208Z" fill="white" stroke="black" stroke-linecap="round" stroke-linejoin="round"/>
<path d="M282.44 272.576H260.418V291.708H282.44V272.576Z" fill="white" stroke="black" stroke-linecap="round" stroke-linejoin="round"/>
<path d="M320.795 272.576H298.772V291.708H320.795V272.576Z" fill="white" stroke="black" stroke-linecap="round" stroke-linejoin="round"/>
<path d="M282.44 299.682H260.418V318.814H282.44V299.682Z" fill="white" stroke="black" stroke-linecap="round" stroke-linejoin="round"/>
<path d="M320.795 299.682H298.772V318.814H320.795V299.682Z" fill="white" stroke="black" stroke-linecap="round" stroke-linejoin="round"/>
<path d="M271.43 272.576V291.708" stroke="black" stroke-linecap="round" stroke-linejoin="round"/>
<path d="M271.43 299.682V318.836" stroke="black" stroke-linecap="round" stroke-linejoin="round"/>
<path d="M307.417 272.576V291.708" stroke="black" stroke-linecap="round" stroke-linejoin="round"/>
<path d="M307.417 299.682V318.836" stroke="black" stroke-linecap="round" stroke-linejoin="round"/>
<path d="M168.376 298.967H246.823" stroke="black" stroke-linecap="round" stroke-linejoin="round"/>
<path d="M172.719 272.706H76.4854V285.555H172.719V272.706Z" fill="#29FC2E" stroke="black" stroke-linecap="round" stroke-linejoin="round"/>
<path d="M900.522 331.208H424.174V359.917H900.522V331.208Z" fill="#29FC2E" stroke="black" stroke-linecap="round" stroke-linejoin="round"/>
<path d="M709.01 247.463H615.426V320.655H709.01V247.463Z" fill="white" stroke="black" stroke-linecap="round" stroke-linejoin="round"/>
<path d="M709.01 247.463H615.426V282.803H709.01V247.463Z" fill="white" stroke="black" stroke-linecap="round" stroke-linejoin="round"/>
<path d="M702.473 222.979H621.92V247.464H702.473V222.979Z" fill="white" stroke="black" stroke-linecap="round" stroke-linejoin="round"/>
<path d="M662.207 271.926C665.974 271.926 669.027 268.88 669.027 265.122C669.027 261.365 665.974 258.319 662.207 258.319C658.441 258.319 655.388 261.365 655.388 265.122C655.388 268.88 658.441 271.926 662.207 271.926Z" fill="#29FC2E" stroke="black" stroke-linecap="round" stroke-linejoin="round"/>
<path d="M709.01 211.322H615.426V222.979H709.01V211.322Z" fill="#29FC2E" stroke="black" stroke-linecap="round" stroke-linejoin="round"/>
<path d="M699.758 170.046H624.656V211.323H699.758V170.046Z" fill="white" stroke="black" stroke-linecap="round" stroke-linejoin="round"/>
<path d="M692.048 140.059H632.345C632.345 115.315 645.723 88.0571 662.207 88.0571C678.67 88.1438 692.048 112.779 692.048 140.059Z" fill="white" stroke="black" stroke-linecap="round" stroke-linejoin="round"/>
<path d="M695.806 151.629H628.609V170.046H695.806V151.629Z" fill="white" stroke="black" stroke-linecap="round" stroke-linejoin="round"/>
<path d="M647.396 140.059C647.396 140.059 646.201 104.329 662.403 88.0571C662.403 88.0571 677.02 96.8757 677.02 140.059" stroke="black" stroke-linecap="round" stroke-linejoin="round"/>
<path d="M662.207 140.059V88.144" stroke="black" stroke-linecap="round" stroke-linejoin="round"/>
<path d="M701.778 140.059H622.614V151.607H701.778V140.059Z" fill="#29FC2E" stroke="black" stroke-linecap="round" stroke-linejoin="round"/>
<path d="M669.83 61.688H654.128V88.1437H669.83V61.688Z" fill="#29FC2E" stroke="black" stroke-linecap="round" stroke-linejoin="round"/>
<path d="M661.99 61.6883V8.0835" stroke="black" stroke-linecap="round" stroke-linejoin="round"/>
<path d="M679.147 17.7686H688.03V44.376H672.11V36.7491H679.147V17.7686Z" fill="white" stroke="black" stroke-linecap="round" stroke-linejoin="round"/>
<path d="M648.959 62.728H674.608" stroke="black" stroke-linecap="round" stroke-linejoin="round"/>
<path d="M648.959 78.957H674.608" stroke="black" stroke-linecap="round" stroke-linejoin="round"/>
<path d="M615.404 291.708H507.182V331.207H615.404V291.708Z" fill="white" stroke="black" stroke-linecap="round" stroke-linejoin="round"/>
<path d="M615.404 282.803H507.182V291.73H615.404V282.803Z" fill="#29FC2E" stroke="black" stroke-linecap="round" stroke-linejoin="round"/>
<path d="M615.404 262.349H507.182V282.781H615.404V262.349Z" fill="white" stroke="black" stroke-linecap="round" stroke-linejoin="round"/>
<path d="M615.404 252.425H507.182V261.352H615.404V252.425Z" fill="#29FC2E" stroke="black" stroke-linecap="round" stroke-linejoin="round"/>
<path d="M520.886 267.354V273.854" stroke="black" stroke-linecap="round" stroke-linejoin="round"/>
<path d="M540.193 267.354V273.854" stroke="black" stroke-linecap="round" stroke-linejoin="round"/>
<path d="M559.501 267.354V273.854" stroke="black" stroke-linecap="round" stroke-linejoin="round"/>
<path d="M578.809 267.354V273.854" stroke="black" stroke-linecap="round" stroke-linejoin="round"/>
<path d="M598.138 267.354V273.854" stroke="black" stroke-linecap="round" stroke-linejoin="round"/>
<path d="M817.862 282.803H709.64V291.73H817.862V282.803Z" fill="#29FC2E" stroke="black" stroke-linecap="round" stroke-linejoin="round"/>
<path d="M817.862 262.349H709.64V282.781H817.862V262.349Z" fill="white" stroke="black" stroke-linecap="round" stroke-linejoin="round"/>
<path d="M817.862 252.425H709.64V261.352H817.862V252.425Z" fill="#29FC2E" stroke="black" stroke-linecap="round" stroke-linejoin="round"/>
<path d="M723.322 267.354V273.854" stroke="black" stroke-linecap="round" stroke-linejoin="round"/>
<path d="M742.651 267.354V273.854" stroke="black" stroke-linecap="round" stroke-linejoin="round"/>
<path d="M761.959 267.354V273.854" stroke="black" stroke-linecap="round" stroke-linejoin="round"/>
<path d="M781.267 267.354V273.854" stroke="black" stroke-linecap="round" stroke-linejoin="round"/>
<path d="M800.574 267.354V273.854" stroke="black" stroke-linecap="round" stroke-linejoin="round"/>
<path d="M515.5 291.708V331.207" stroke="black" stroke-linecap="round" stroke-linejoin="round"/>
<path d="M531.202 291.708V331.207" stroke="black" stroke-linecap="round" stroke-linejoin="round"/>
<path d="M546.926 291.708V331.207" stroke="black" stroke-linecap="round" stroke-linejoin="round"/>
<path d="M562.65 291.708V331.207" stroke="black" stroke-linecap="round" stroke-linejoin="round"/>
<path d="M578.374 291.708V331.207" stroke="black" stroke-linecap="round" stroke-linejoin="round"/>
<path d="M594.099 291.708V331.207" stroke="black" stroke-linecap="round" stroke-linejoin="round"/>
<path d="M609.801 291.708V331.207" stroke="black" stroke-linecap="round" stroke-linejoin="round"/>
<path d="M817.862 291.708H709.64V331.207H817.862V291.708Z" fill="white" stroke="black" stroke-linecap="round" stroke-linejoin="round"/>
<path d="M717.937 291.708V331.207" stroke="black" stroke-linecap="round" stroke-linejoin="round"/>
<path d="M733.66 291.708V331.207" stroke="black" stroke-linecap="round" stroke-linejoin="round"/>
<path d="M749.385 291.708V331.207" stroke="black" stroke-linecap="round" stroke-linejoin="round"/>
<path d="M765.108 291.708V331.207" stroke="black" stroke-linecap="round" stroke-linejoin="round"/>
<path d="M780.811 291.708V331.207" stroke="black" stroke-linecap="round" stroke-linejoin="round"/>
<path d="M796.535 291.708V331.207" stroke="black" stroke-linecap="round" stroke-linejoin="round"/>
<path d="M812.259 291.708V331.207" stroke="black" stroke-linecap="round" stroke-linejoin="round"/>
<path d="M643.073 282.803V320.655" stroke="black" stroke-linecap="round" stroke-linejoin="round"/>
<path d="M662.207 282.803V320.655" stroke="black" stroke-linecap="round" stroke-linejoin="round"/>
<path d="M681.341 282.803V320.655" stroke="black" stroke-linecap="round" stroke-linejoin="round"/>
<path d="M630.563 235.222H695.805" stroke="black" stroke-linecap="round" stroke-linejoin="round"/>
<path d="M632.366 170.046V211.323" stroke="black" stroke-linecap="round" stroke-linejoin="round"/>
<path d="M640.749 170.046V211.323" stroke="black" stroke-linecap="round" stroke-linejoin="round"/>
<path d="M649.154 170.046V211.323" stroke="black" stroke-linecap="round" stroke-linejoin="round"/>
<path d="M657.56 170.046V211.323" stroke="black" stroke-linecap="round" stroke-linejoin="round"/>
<path d="M665.965 170.046V211.323" stroke="black" stroke-linecap="round" stroke-linejoin="round"/>
<path d="M674.348 170.046V211.323" stroke="black" stroke-linecap="round" stroke-linejoin="round"/>
<path d="M682.753 170.046V211.323" stroke="black" stroke-linecap="round" stroke-linejoin="round"/>
<path d="M691.157 170.046V211.323" stroke="black" stroke-linecap="round" stroke-linejoin="round"/>
<path d="M646.114 151.629V170.046" stroke="black" stroke-linecap="round" stroke-linejoin="round"/>
<path d="M677.041 151.629V170.046" stroke="black" stroke-linecap="round" stroke-linejoin="round"/>
<path d="M661.969 160.838H663.446C665.894 160.838 668.241 161.808 669.972 163.535C671.703 165.262 672.676 167.604 672.676 170.047H652.717C652.717 168.835 652.956 167.636 653.421 166.518C653.887 165.399 654.569 164.383 655.428 163.527C656.287 162.672 657.307 161.994 658.43 161.533C659.552 161.071 660.755 160.835 661.969 160.838Z" fill="#29FC2E" stroke="black" stroke-linecap="round" stroke-linejoin="round"/>
<path d="M663.445 160.838V151.629" stroke="black" stroke-linecap="round" stroke-linejoin="round"/>
<path d="M507.182 241.375H441.462V331.208H507.182V241.375Z" fill="white" stroke="black" stroke-linecap="round" stroke-linejoin="round"/>
<path d="M499.645 230.931H447.348V241.375H499.645V230.931Z" fill="#29FC2E" stroke="black" stroke-linecap="round" stroke-linejoin="round"/>
<path d="M447.348 230.953L474.322 220.509L499.624 230.953H447.348Z" fill="white" stroke="black" stroke-linecap="round" stroke-linejoin="round"/>
<path d="M466.959 215.417V208.592C466.959 207.697 467.136 206.81 467.48 205.984C467.824 205.157 468.329 204.406 468.964 203.774C469.6 203.142 470.354 202.641 471.184 202.3C472.014 201.96 472.903 201.786 473.8 201.789C475.609 201.789 477.344 202.505 478.623 203.781C479.901 205.057 480.62 206.788 480.62 208.592V215.417" fill="white"/>
<path d="M466.959 215.417V208.592C466.959 207.697 467.136 206.81 467.48 205.984C467.824 205.157 468.329 204.406 468.964 203.774C469.6 203.142 470.354 202.641 471.184 202.3C472.014 201.96 472.903 201.786 473.8 201.789V201.789C475.609 201.789 477.344 202.505 478.623 203.781C479.901 205.057 480.62 206.788 480.62 208.592V215.417" stroke="black" stroke-linecap="round" stroke-linejoin="round"/>
<path d="M447.978 217.714V230.931" stroke="black" stroke-linecap="round" stroke-linejoin="round"/>
<path d="M499.624 217.714V230.931" stroke="black" stroke-linecap="round" stroke-linejoin="round"/>
<path d="M440.289 230.931H506.074" stroke="black" stroke-linecap="round" stroke-linejoin="round"/>
<path d="M435.099 247.463H510.939" stroke="black" stroke-linecap="round" stroke-linejoin="round"/>
<path d="M435.099 279.683H507.182" stroke="black" stroke-linecap="round" stroke-linejoin="round"/>
<path d="M461.009 310.082H449.52V331.208H461.009V310.082Z" fill="#29FC2E" stroke="black" stroke-linecap="round" stroke-linejoin="round"/>
<path d="M461.009 253.92H449.52V268.741H461.009V253.92Z" fill="#29FC2E" stroke="black" stroke-linecap="round" stroke-linejoin="round"/>
<path d="M480.077 253.92H468.588V268.741H480.077V253.92Z" fill="#29FC2E" stroke="black" stroke-linecap="round" stroke-linejoin="round"/>
<path d="M499.146 253.92H487.657V268.741H499.146V253.92Z" fill="#29FC2E" stroke="black" stroke-linecap="round" stroke-linejoin="round"/>
<path d="M480.077 310.082H468.588V331.208H480.077V310.082Z" fill="#29FC2E" stroke="black" stroke-linecap="round" stroke-linejoin="round"/>
<path d="M499.146 310.082H487.657V331.208H499.146V310.082Z" fill="#29FC2E" stroke="black" stroke-linecap="round" stroke-linejoin="round"/>
<path d="M453.255 279.683V303.733" stroke="black" stroke-linecap="round" stroke-linejoin="round"/>
<path d="M473.019 279.683V303.733" stroke="black" stroke-linecap="round" stroke-linejoin="round"/>
<path d="M492.804 279.683V303.733" stroke="black" stroke-linecap="round" stroke-linejoin="round"/>
<path d="M483.596 224.323V215.417H463.072V224.864L474.322 220.509L483.596 224.323Z" fill="#29FC2E" stroke="black" stroke-linecap="round" stroke-linejoin="round"/>
<path d="M883.387 241.375H817.667V331.208H883.387V241.375Z" fill="white" stroke="black" stroke-linecap="round" stroke-linejoin="round"/>
<path d="M875.829 230.931H823.531V241.375H875.829V230.931Z" fill="#29FC2E" stroke="black" stroke-linecap="round" stroke-linejoin="round"/>
<path d="M823.531 230.953L850.527 220.509L875.829 230.953H823.531Z" fill="white" stroke="black" stroke-linecap="round" stroke-linejoin="round"/>
<path d="M843.164 215.417V208.592C843.164 207.699 843.34 206.814 843.683 205.989C844.026 205.163 844.528 204.413 845.161 203.781C845.795 203.15 846.546 202.648 847.374 202.306C848.201 201.965 849.088 201.789 849.984 201.789C850.881 201.786 851.77 201.96 852.6 202.3C853.43 202.641 854.184 203.142 854.82 203.774C855.455 204.406 855.96 205.157 856.304 205.984C856.648 206.81 856.825 207.697 856.825 208.592V215.417" fill="white"/>
<path d="M843.164 215.417V208.592C843.164 207.699 843.34 206.814 843.683 205.989C844.026 205.163 844.528 204.413 845.161 203.781C845.795 203.15 846.546 202.648 847.374 202.306C848.201 201.965 849.088 201.789 849.984 201.789V201.789C850.881 201.786 851.77 201.96 852.6 202.3C853.43 202.641 854.184 203.142 854.82 203.774C855.455 204.406 855.96 205.157 856.304 205.984C856.648 206.81 856.825 207.697 856.825 208.592V215.417" stroke="black" stroke-linecap="round" stroke-linejoin="round"/>
<path d="M824.161 217.714V230.931" stroke="black" stroke-linecap="round" stroke-linejoin="round"/>
<path d="M875.828 217.714V230.931" stroke="black" stroke-linecap="round" stroke-linejoin="round"/>
<path d="M816.473 230.931H882.257" stroke="black" stroke-linecap="round" stroke-linejoin="round"/>
<path d="M811.281 247.463H887.143" stroke="black" stroke-linecap="round" stroke-linejoin="round"/>
<path d="M817.667 279.683H887.144" stroke="black" stroke-linecap="round" stroke-linejoin="round"/>
<path d="M837.192 310.082H825.703V331.208H837.192V310.082Z" fill="#29FC2E" stroke="black" stroke-linecap="round" stroke-linejoin="round"/>
<path d="M837.192 253.92H825.703V268.741H837.192V253.92Z" fill="#29FC2E" stroke="black" stroke-linecap="round" stroke-linejoin="round"/>
<path d="M856.26 253.92H844.771V268.741H856.26V253.92Z" fill="#29FC2E" stroke="black" stroke-linecap="round" stroke-linejoin="round"/>
<path d="M875.351 253.92H863.862V268.741H875.351V253.92Z" fill="#29FC2E" stroke="black" stroke-linecap="round" stroke-linejoin="round"/>
<path d="M856.26 310.082H844.771V331.208H856.26V310.082Z" fill="#29FC2E" stroke="black" stroke-linecap="round" stroke-linejoin="round"/>
<path d="M875.351 310.082H863.862V331.208H875.351V310.082Z" fill="#29FC2E" stroke="black" stroke-linecap="round" stroke-linejoin="round"/>
<path d="M829.438 279.683V303.733" stroke="black" stroke-linecap="round" stroke-linejoin="round"/>
<path d="M849.202 279.683V303.733" stroke="black" stroke-linecap="round" stroke-linejoin="round"/>
<path d="M868.987 279.683V303.733" stroke="black" stroke-linecap="round" stroke-linejoin="round"/>
<path d="M859.8 224.323V215.417H839.276V224.864L850.526 220.509L859.8 224.323Z" fill="#29FC2E" stroke="black" stroke-linecap="round" stroke-linejoin="round"/>
<path d="M709.64 320.655H615.426V331.207H709.64V320.655Z" fill="#29FC2E" stroke="black" stroke-linecap="round" stroke-linejoin="round"/>
<path d="M606.478 277.256L662.402 247.463L717.936 277.256" stroke="black" stroke-linecap="round" stroke-linejoin="round"/>
<path d="M679.148 14.2583H661.99V36.7273H679.148V14.2583Z" fill="white" stroke="black" stroke-linecap="round" stroke-linejoin="round"/>
<path d="M957.771 336.278H908.102V359.917H957.771V336.278Z" fill="#29FC2E" stroke="black" stroke-linecap="round" stroke-linejoin="round"/>
<path d="M918.505 336.277V119.778L932.926 95.0557L948.65 119.778V336.277H918.505Z" fill="white" stroke="black" stroke-linecap="round" stroke-linejoin="round"/>
<path d="M1036.44 220.141H965.591V359.917H1036.44V220.141Z" fill="white" stroke="black" stroke-linecap="round" stroke-linejoin="round"/>
<path d="M1217.11 238.233H1129.02V359.917H1217.11V238.233Z" fill="#29FC2E" stroke="black" stroke-linecap="round" stroke-linejoin="round"/>
<path d="M1044.58 210.802H957.468V220.141H1044.58V210.802Z" fill="#29FC2E" stroke="black" stroke-linecap="round" stroke-linejoin="round"/>
<path d="M1015.74 331.208H982.986V359.917H1015.74V331.208Z" stroke="black" stroke-linecap="round" stroke-linejoin="round"/>
<path d="M999.362 331.208V359.917" stroke="black" stroke-linecap="round" stroke-linejoin="round"/>
<path d="M996.082 230.931H982.986V253.92H996.082V230.931Z" stroke="black" stroke-linecap="round" stroke-linejoin="round"/>
<path d="M1015.72 230.931H1002.62V253.92H1015.72V230.931Z" fill="#29FC2E" stroke="black" stroke-linecap="round" stroke-linejoin="round"/>
<path d="M996.082 259.814H982.986V282.803H996.082V259.814Z" fill="#29FC2E" stroke="black" stroke-linecap="round" stroke-linejoin="round"/>
<path d="M1015.72 259.814H1002.62V282.803H1015.72V259.814Z" stroke="black" stroke-linecap="round" stroke-linejoin="round"/>
<path d="M996.082 288.675H982.986V311.664H996.082V288.675Z" stroke="black" stroke-linecap="round" stroke-linejoin="round"/>
<path d="M1015.72 288.675H1002.62V311.664H1015.72V288.675Z" fill="#29FC2E" stroke="black" stroke-linecap="round" stroke-linejoin="round"/>
<path d="M1129.02 257.192H1036.44V359.916H1129.02V257.192Z" fill="white" stroke="black" stroke-linecap="round" stroke-linejoin="round"/>
<path d="M1112.32 245.102H1036.44V257.192H1112.32V245.102Z" fill="#29FC2E" stroke="black" stroke-linecap="round" stroke-linejoin="round"/>
<path d="M1223.99 228.439H1119.86V238.233H1223.99V228.439Z" fill="white" stroke="black" stroke-linecap="round" stroke-linejoin="round"/>
<path d="M1079.42 268.871H1057.11V291.123H1079.42V268.871Z" fill="#29FC2E" stroke="black" stroke-linecap="round" stroke-linejoin="round"/>
<path d="M1065.47 268.871V291.123" stroke="black" stroke-linecap="round" stroke-linejoin="round"/>
<path d="M1057.11 291.123H1085.63" stroke="black" stroke-linecap="round" stroke-linejoin="round"/>
<path d="M1079.42 297.428H1057.11V319.681H1079.42V297.428Z" stroke="black" stroke-linecap="round" stroke-linejoin="round"/>
<path d="M1065.47 297.428V319.681" stroke="black" stroke-linecap="round" stroke-linejoin="round"/>
<path d="M1057.11 319.681H1085.63" stroke="black" stroke-linecap="round" stroke-linejoin="round"/>
<path d="M1115.38 268.871H1093.08V291.123H1115.38V268.871Z" stroke="black" stroke-linecap="round" stroke-linejoin="round"/>
<path d="M1101.44 268.871V291.123" stroke="black" stroke-linecap="round" stroke-linejoin="round"/>
<path d="M1093.08 291.123H1121.57" stroke="black" stroke-linecap="round" stroke-linejoin="round"/>
<path d="M1115.38 297.428H1093.08V319.681H1115.38V297.428Z" fill="#29FC2E" stroke="black" stroke-linecap="round" stroke-linejoin="round"/>
<path d="M1101.44 297.428V319.681" stroke="black" stroke-linecap="round" stroke-linejoin="round"/>
<path d="M1093.08 319.681H1121.57" stroke="black" stroke-linecap="round" stroke-linejoin="round"/>
<path d="M1112.32 331.208H1096.77V359.917H1112.32V331.208Z" stroke="black" stroke-linecap="round" stroke-linejoin="round"/>
<path d="M1188.18 248.46H1155.65V257.192H1188.18V248.46Z" fill="white" stroke="black" stroke-linecap="round" stroke-linejoin="round"/>
<path d="M1188.18 267.419H1155.65V276.151H1188.18V267.419Z" fill="white" stroke="black" stroke-linecap="round" stroke-linejoin="round"/>
<path d="M1188.18 286.356H1155.65V295.088H1188.18V286.356Z" fill="white" stroke="black" stroke-linecap="round" stroke-linejoin="round"/>
<path d="M1188.18 305.315H1155.65V314.047H1188.18V305.315Z" fill="white" stroke="black" stroke-linecap="round" stroke-linejoin="round"/>
<path d="M1191.61 331.208H1151.33V359.917H1191.61V331.208Z" stroke="black" stroke-linecap="round" stroke-linejoin="round"/>
<path d="M1171.46 331.208V359.917" stroke="black" stroke-linecap="round" stroke-linejoin="round"/>
<path d="M530 45C530 65.4298 513.43 82 493 82C513.43 82 530 98.5702 530 119C530 98.5702 546.57 82 567 82C546.57 82 530 65.4298 530 45Z" fill="#21F225"/>
<path d="M900.253 279.369C900.253 279.369 841.387 303.988 833.411 308.042C825.434 312.095 830.414 333.268 840.143 355.228C849.872 377.188 861.435 409.389 861.435 409.389L882.367 355.392L876.225 338.684L906.657 337.223L927.671 313.655L933.289 306.433C933.289 306.433 920.121 280.386 900.253 279.369Z" fill="#21F225" stroke="black" stroke-linecap="round" stroke-linejoin="round"/>
<path d="M854.834 485.922L848.004 513.823C848.004 513.823 866.659 517.483 877.224 509.769L880.811 491.223C880.811 491.223 865.497 493.652 854.834 485.922Z" fill="white" stroke="black" stroke-linecap="round" stroke-linejoin="round"/>
<path d="M840.896 513.445C840.896 513.445 861.91 518.648 880.811 506.88L879.73 524.934C879.73 524.934 891.457 535.143 896.273 546.517L900.302 570.02C900.302 570.02 886.134 577.537 880.811 577.537L874.98 565.096C874.98 565.096 865.366 570.479 866.791 584.167C866.791 584.167 835.442 597.462 817.376 593.408C817.376 593.408 816.409 581.656 817.376 577.996C818.342 574.336 838.144 562.782 838.144 562.782L840.896 513.445Z" fill="#1D1D1B" stroke="black" stroke-linecap="round" stroke-linejoin="round"/>
<path d="M858.602 514.283C858.602 514.283 859.437 547.371 865.923 547.929C872.409 548.487 869.019 512.215 869.019 512.215L858.602 514.283Z" fill="#21F225" stroke="black" stroke-linecap="round" stroke-linejoin="round"/>
<path d="M867.676 426.245L880.894 451.751C880.894 451.751 897.272 442.182 900.221 429.413L890.721 413.083C890.721 413.083 880.795 425.014 867.676 426.245Z" fill="#1A1A1A"/>
<path d="M875.291 456.166C875.291 456.166 894.52 446.187 901.022 424.867L912.111 439.244C912.111 439.244 927.654 439.244 938.743 444.545L957.234 459.563C957.234 459.563 951.535 474.564 947.522 478.076L934.861 472.562C934.861 472.562 931.176 482.967 941.183 492.355C941.183 492.355 926.442 523.063 910.063 531.959C910.063 531.959 901.612 523.753 899.925 520.355C898.238 516.958 905.543 495.195 905.543 495.195L875.291 456.166Z" fill="black" stroke="black" stroke-linecap="round" stroke-linejoin="round"/>
<path d="M889.132 445.12C889.132 445.12 911.522 469.46 916.763 465.586C922.004 461.713 895.618 436.684 895.618 436.684L889.132 445.12Z" fill="#21F225" stroke="black" stroke-linecap="round" stroke-linejoin="round"/>
<path d="M927.72 313.704C927.72 313.704 867.118 354.227 865.333 368.555C863.548 382.883 854.834 485.922 854.834 485.922C854.834 485.922 867.266 494.03 880.811 491.239C880.811 491.239 921.48 437.275 905.494 385.394C905.494 385.394 931.143 390.105 976.07 363.927C976.07 363.927 950.536 316.855 927.72 313.704Z" fill="#21F225" stroke="black" stroke-linecap="round" stroke-linejoin="round"/>
<path d="M955.728 71.6013C955.728 71.6013 954.238 44.0609 970.191 37.857C986.144 31.653 983.294 38.415 1003.03 35.592C1008.42 34.6391 1013.97 35.3632 1018.93 37.6668C1023.89 39.9703 1028.03 43.7427 1030.79 48.4759C1030.79 48.4759 1040.62 45.7678 1042.42 53.3997C1044.22 61.0316 1043.45 66.8088 1047.63 74.9167C1051.81 83.0245 1062.5 106.101 1062.5 106.101C1062.5 106.101 1088.71 99.2894 1094.2 115.948C1099.68 132.607 1096.05 163.89 1074.66 161.575C1074.66 161.575 1063.19 169.421 1054 165.958V161.116C1054 161.116 1036.48 163.66 1021.98 143.604C1021.98 143.604 973.696 177.184 959.266 160.722C959.266 160.722 954.352 170.438 945.246 165.482C936.139 160.525 942.674 149.069 942.674 149.069C942.674 149.069 931.209 146.295 938.923 136.579C946.638 126.863 953.664 136.579 963.05 122.628L955.728 71.6013Z" fill="#1A1A1A"/>
<path d="M996.79 145.672L968.34 154.337C968.34 154.337 952.354 199.407 926.59 208.302L872.72 191.085C872.72 191.085 872.622 204.97 865.333 206.185L926.508 239.995L954.434 217.378L1021.98 231.953L1035.08 210.928C1035.08 210.928 1054.41 203.395 1100.6 234.283L1087.61 280.665C1087.61 280.665 1106.66 288.412 1107.49 302.79C1107.49 302.79 1125.82 265.943 1128.16 221.235C1128.16 221.235 1066.38 191.348 1054 161.083C1054 161.083 1034.56 160.049 1021.98 143.571L996.79 145.672Z" fill="#3C3C3B" stroke="black" stroke-linecap="round" stroke-linejoin="round"/>
<path d="M982.639 149.988C982.639 149.988 972.435 180.827 957.415 189.378C942.396 197.929 949.767 209.073 956.089 219.906C962.411 230.738 968.045 252.386 941.725 262.94C915.404 273.493 883.236 264.072 876.455 266.715C869.674 269.357 871.197 291.022 871.197 291.022L900.253 279.451C900.253 279.451 914.814 285.671 922.741 305.202C930.669 324.733 969.863 352.421 976.071 364.009C976.071 364.009 946.589 381.176 933.879 382.9C933.879 382.9 972.222 423.242 989.354 414.445C998.133 409.734 986.783 397.704 1010.99 351.125C1035.2 304.546 1025.34 292.039 1018.26 271.72C1011.19 251.402 1022.55 226.865 1037.33 213.554C1037.33 213.554 1009.73 204.347 1035.1 155.076L1031.35 152.68C1031.35 152.68 1018.16 181.927 1016.36 184.799C1014.56 187.671 1002.93 196.994 985.407 196.288L973.942 186.063C973.942 186.063 984.752 156.52 986.422 148.938L982.639 149.988Z" fill="#1D1D1B" stroke="black" stroke-linecap="round" stroke-linejoin="round"/>
<path d="M865.333 206.185C861.759 205.023 858.404 203.27 855.407 200.998C852.131 197.929 849.756 188.279 851.738 182.452C853.72 176.626 850.412 167.582 851.001 163.61C851.114 162.53 851.602 161.523 852.381 160.767C853.159 160.011 854.178 159.553 855.26 159.474L858.142 179.547C858.142 179.547 866.577 174.016 869.477 166.056C872.376 158.096 865.808 140.616 873.915 134.183L876.618 165.596L872.72 191.085C872.72 191.085 873.588 203.411 865.333 206.185Z" fill="white" stroke="black" stroke-linecap="round" stroke-linejoin="round"/>
<path d="M870.476 139.698L867.822 136.415C867.822 136.415 864.727 142.652 867.102 154.37L866.987 164.546L862.221 176.265C862.221 176.265 869.116 169.29 870.05 163.709C870.983 158.129 868.641 144.95 870.476 139.698Z" fill="white" stroke="black" stroke-linecap="round" stroke-linejoin="round"/>
<path d="M866.251 144.162L862.745 140.764C862.045 145.189 862.405 149.718 863.794 153.976C866.136 159.803 865.333 168.567 865.333 168.567L866.971 164.53L867.086 154.354C867.086 154.354 866.169 145.458 866.251 144.162Z" fill="white" stroke="black" stroke-linecap="round" stroke-linejoin="round"/>
<path d="M862.483 147.92L860.075 146.279C860.201 150.47 861.015 154.612 862.483 158.539C863.687 161.039 864.679 163.636 865.447 166.302C865.694 163.46 865.495 160.597 864.858 157.817C863.793 153.976 861.992 150.382 862.483 147.92Z" fill="white" stroke="black" stroke-linecap="round" stroke-linejoin="round"/>
<path d="M1087.61 280.665L1084.14 283.324L1068.25 271.491L1054.02 274.429L1039.78 283.291C1039.78 283.291 1043.83 286.147 1056.16 280.173L1068.22 279.681L1051.31 293.615L1047.6 303.709L1044.6 306.679C1048.57 307.539 1052.71 306.809 1056.15 304.644C1059.42 302.543 1070.13 294.534 1070.13 294.534L1071.77 296.422L1063.58 308.304C1063.58 308.304 1061.06 313.967 1061.17 315.788C1063.66 314.784 1065.71 312.921 1066.94 310.536L1076.55 299.491C1076.55 299.491 1091.44 313.556 1106.2 297.521C1106.33 297.521 1104.15 287.756 1087.61 280.665Z" fill="white" stroke="black" stroke-linecap="round" stroke-linejoin="round"/>
<path d="M1044.63 306.696L1058.42 295.109L1070.17 286.771" fill="white"/>
<path d="M1044.63 306.696L1058.42 295.109L1070.17 286.771" stroke="black" stroke-linecap="round" stroke-linejoin="round"/>
<path d="M965.179 64.4616C965.179 64.4616 947.604 112.748 973.106 138.581C973.106 138.581 1006.27 143.423 1021.59 111.32C1021.59 111.32 1037.74 115.013 1036.33 88.0302C1034.92 61.0478 1020.75 90.0161 1020.75 90.0161L1021.88 61.9012C1021.88 61.9012 997.2 30.0936 965.179 64.4616Z" fill="white" stroke="black" stroke-linecap="round" stroke-linejoin="round"/>
<path d="M955.729 71.6013L963.345 70.436L965.179 64.4454C965.179 64.4454 986.816 72.8651 1015.66 63.3458C1015.66 63.3458 1015.66 81.137 1020.93 85.1089L1020.82 87.7021C1020.82 87.7021 1042.11 80.9565 1047.63 74.8838C1045.12 69.7028 1043.68 64.0726 1043.37 58.3235C1042.57 47.9015 1037.3 46.3587 1030.79 48.4759C1030.79 48.4759 1022.82 33.7046 1006.77 35.3458C990.714 36.9871 978.184 29.6999 966.244 38.4642C954.304 47.2286 956.089 59.8991 955.729 71.6013Z" fill="#1A1A1A"/>
<path d="M996.79 135.233V156.832C996.79 156.832 1008.12 166.072 1021.98 143.571L1021.59 111.32C1021.59 111.32 1015.48 126.502 996.79 135.233Z" fill="white" stroke="black" stroke-linecap="round" stroke-linejoin="round"/>
<path d="M963.426 70.4526C963.426 70.4526 949.209 73.2099 946.408 75.4913C943.608 77.7727 942.903 92.6917 944.656 101.292C946.408 109.892 986.34 112.535 990.517 111.665C994.693 110.795 1013.99 103.048 1013.99 103.048C1013.99 103.048 1017.15 87.6038 1016.1 79.7094C1016.1 79.7094 978.953 82.7785 962.312 74.7856L963.426 70.4526Z" fill="#3C3C3B" stroke="black" stroke-linecap="round" stroke-linejoin="round"/>
<path d="M948.259 79.6929C948.259 79.6929 944.738 93.9226 948.603 101.834C948.603 101.834 971.206 109.728 988.191 107.447C988.191 107.447 990.631 94.4478 989.829 86.4713C989.779 86.4713 966.571 80.8582 948.259 79.6929Z" fill="#21F225" stroke="black" stroke-linecap="round" stroke-linejoin="round"/>
<path d="M1005.49 91.1322V102.523C1005.49 102.523 1047.04 91.5261 1054 83.8122L1050.73 72.3234L1046.14 71.5684L1047.61 74.8509C1047.61 74.8509 1027.4 88.6703 1005.49 91.1322Z" fill="#21F225" stroke="black" stroke-linecap="round" stroke-linejoin="round"/>
<path d="M1011.04 98.7148C1011.97 98.7148 1012.73 97.6126 1012.73 96.2529C1012.73 94.8932 1011.97 93.791 1011.04 93.791C1010.11 93.791 1009.35 94.8932 1009.35 96.2529C1009.35 97.6126 1010.11 98.7148 1011.04 98.7148Z" fill="white" stroke="black" stroke-linecap="round" stroke-linejoin="round"/>
<path d="M976.071 363.927C976.071 363.927 948.03 380.52 933.944 382.818C933.944 382.818 965.834 418.499 986.946 415.266C1008.06 412.032 976.071 363.927 976.071 363.927Z" fill="black" stroke="black" stroke-linecap="round" stroke-linejoin="round"/>
<path d="M900.253 279.369L871.197 290.94C871.197 290.94 869.002 270.604 876.455 266.632C883.907 262.661 900.253 279.369 900.253 279.369Z" fill="black" stroke="black" stroke-linecap="round" stroke-linejoin="round"/>
<g filter="url(#filter0_f_59_5)">
<ellipse cx="923" cy="625" rx="117" ry="17" fill="#D9D9D9"/>
</g>
</g>
<defs>
<filter id="filter0_f_59_5" x="791" y="593" width="264" height="64" filterUnits="userSpaceOnUse" color-interpolation-filters="sRGB">
<feFlood flood-opacity="0" result="BackgroundImageFix"/>
<feBlend mode="normal" in="SourceGraphic" in2="BackgroundImageFix" result="shape"/>
<feGaussianBlur stdDeviation="7.5" result="effect1_foregroundBlur_59_5"/>
</filter>
</defs>
</svg>
