<svg width="67" height="94" viewBox="0 0 67 94" fill="none" xmlns="http://www.w3.org/2000/svg">
<path d="M51.0162 92.4545H1V24.2507L26.0535 5.30518L51.0162 24.2507V92.4545Z" fill="white" stroke="black" stroke-width="1.5" stroke-linejoin="round"/>
<path d="M26.0079 23.4923C28.5191 23.4923 30.5548 21.4566 30.5548 18.9454C30.5548 16.4342 28.5191 14.3984 26.0079 14.3984C23.4967 14.3984 21.4609 16.4342 21.4609 18.9454C21.4609 21.4566 23.4967 23.4923 26.0079 23.4923Z" fill="white" stroke="black" stroke-width="1.5" stroke-linejoin="round"/>
<path d="M26.008 18.9455C15.5501 18.9455 7.0625 10.4579 7.0625 0" stroke="black" stroke-width="1.5" stroke-linejoin="round"/>
<path d="M26.5085 74.9334C35.5114 74.9334 42.8168 67.4765 42.8168 58.2614C42.8168 49.0463 35.5114 41.5894 26.5085 41.5894C17.5056 41.5894 10.2002 49.0463 10.2002 58.2614C10.2002 67.4765 17.5056 74.9334 26.5085 74.9334Z" fill="#00FF00" stroke="black" stroke-width="1.5" stroke-miterlimit="10" stroke-linecap="round"/>
<path d="M26.5088 66.9929V64.9316" stroke="black" stroke-width="1.5" stroke-miterlimit="10"/>
<path d="M26.5088 49.0469V51.8963" stroke="black" stroke-width="1.5" stroke-miterlimit="10"/>
<path d="M22.9922 51.8975V64.932" stroke="black" stroke-width="1.5" stroke-miterlimit="10"/>
<path d="M20.5068 64.932H29.9796C31.6923 64.932 33.0867 63.5073 33.0867 61.7491V61.446C33.0867 59.6879 31.6923 58.2631 29.9796 58.2631H28.1154C29.828 58.2631 31.2224 56.8384 31.2224 55.0803C31.2224 53.3222 29.828 51.8975 28.1154 51.8975H20.5068" stroke="black" stroke-width="1.5" stroke-miterlimit="10"/>
<path d="M59.9577 8.04136C59.5907 11.6825 56.6835 14.5898 53.0423 14.9567C52.9859 14.9567 52.9859 15.0414 53.0423 15.0414C56.6835 15.4083 59.5907 18.3156 59.9577 21.9567C59.9577 22.0131 60.0423 22.0131 60.0423 21.9567C60.4093 18.3156 63.3165 15.4083 66.9577 15.0414C67.0141 15.0414 67.0141 14.9567 66.9577 14.9567C63.3165 14.5898 60.4093 11.6825 60.0423 8.04136C60.0423 7.98491 59.9577 7.98491 59.9577 8.04136Z" fill="#21F225"/>
</svg>
