<svg width="70" height="90" viewBox="0 0 70 90" fill="none" xmlns="http://www.w3.org/2000/svg">
<path d="M13.655 89.2207H64.2326C65.4837 89.2207 66.4907 88.181 66.4907 86.8966V39.5112C66.4907 38.2268 65.4684 37.1871 64.2326 37.1871H6.36209C3.28013 37.1871 0.762695 34.6183 0.762695 31.4531V76.025C0.762695 83.3186 6.52991 89.2207 13.655 89.2207Z" fill="white" stroke="black" stroke-width="1.5" stroke-miterlimit="10"/>
<path d="M7.01814 24.373H52.4693C53.7204 24.373 54.7274 25.4128 54.7274 26.6972V37.1865H7.01814C3.57002 37.1865 0.762695 34.3119 0.762695 30.7798C0.762695 27.2477 3.57002 24.373 7.01814 24.373Z" fill="white" stroke="black" stroke-width="1.5" stroke-miterlimit="10"/>
<path d="M56.4216 54.8477L69.2376 55.0464V69.7712L56.2995 69.5724C54.1635 69.5418 52.4395 67.7529 52.4395 65.5663V58.8691C52.4395 56.6366 54.2245 54.8171 56.4063 54.863L56.4216 54.8477Z" fill="#00FF00" stroke="black" stroke-width="1.5" stroke-miterlimit="10"/>
<path d="M60.8462 64.7712C62.1736 64.7712 63.2568 63.6703 63.2568 62.3094C63.2568 60.9486 62.1736 59.8477 60.8462 59.8477C59.5188 59.8477 58.4355 60.9486 58.4355 62.3094C58.4355 63.6703 59.5188 64.7712 60.8462 64.7712Z" fill="white" stroke="black" stroke-width="1.5" stroke-miterlimit="10"/>
<path d="M28.2866 35.3222C37.6087 35.3222 45.161 27.5852 45.161 18.0439C45.161 8.50263 37.6087 0.765625 28.2866 0.765625C18.9644 0.765625 11.4121 8.50263 11.4121 18.0439C11.4121 27.5852 18.9644 35.3222 28.2866 35.3222Z" fill="#00FF00" stroke="black" stroke-width="1.5" stroke-miterlimit="10"/>
<path d="M28.2861 27.0958V24.9551" stroke="black" stroke-width="1.5" stroke-miterlimit="10"/>
<path d="M28.2861 8.50244V11.4535" stroke="black" stroke-width="1.5" stroke-miterlimit="10"/>
<path d="M24.6553 11.4536V24.9551" stroke="black" stroke-width="1.5" stroke-miterlimit="10"/>
<path d="M22.0768 24.9554H31.8719C33.6417 24.9554 35.0912 23.4723 35.0912 21.6527V21.3316C35.0912 19.512 33.6417 18.0288 31.8719 18.0288H29.9342C31.7041 18.0288 33.1535 16.5457 33.1535 14.7261C33.1535 12.9065 31.7041 11.4233 29.9342 11.4233H22.0615" stroke="black" stroke-width="1.5" stroke-miterlimit="10"/>
<path d="M59.732 5.59665C59.4421 7.90552 57.657 9.72509 55.4142 10.0156C55.3684 10.0156 55.3684 10.0921 55.4142 10.0921C57.657 10.3826 59.4421 12.2022 59.732 14.511C59.732 14.5722 59.8083 14.5722 59.8083 14.511C60.0982 12.2022 61.8833 10.3826 64.1261 10.0921C64.1718 10.0921 64.1718 10.0156 64.1261 10.0156C61.8833 9.72509 60.0982 7.90552 59.8083 5.59665C59.8083 5.53549 59.732 5.53549 59.732 5.59665Z" fill="#21F225"/>
</svg>
