<svg width="100" height="79" viewBox="0 0 100 79" fill="none" xmlns="http://www.w3.org/2000/svg">
<path d="M77.1416 1H1V56.1586H77.1416V1Z" stroke="#1D1D1B" stroke-miterlimit="10"/>
<path d="M49.3102 56.1582H28.8315V70.7144H49.3102V56.1582Z" stroke="#1D1D1B" stroke-miterlimit="10"/>
<path d="M59.1139 70.7246H17.9946V74.7959H59.1139V70.7246Z" stroke="#1D1D1B" stroke-miterlimit="10"/>
<path d="M5.31445 50.7907L30.6342 25.6592L44.003 38.9287L68.6037 14.5109L78.0632 23.9L98.9368 3.18164" stroke="#21F225" stroke-miterlimit="10"/>
<path d="M99.4939 8.44883L98.471 8.40862L98.6533 3.4527L93.6703 3.63364L93.6298 2.62838L99.7066 2.40723L99.4939 8.44883Z" fill="#21F225"/>
<path d="M30.6342 28.6451C32.2955 28.6451 33.6422 27.3084 33.6422 25.6595C33.6422 24.0105 32.2955 22.6738 30.6342 22.6738C28.9729 22.6738 27.6262 24.0105 27.6262 25.6595C27.6262 27.3084 28.9729 28.6451 30.6342 28.6451Z" fill="#21F225"/>
<path d="M44.0334 41.7632C45.6946 41.7632 47.0414 40.4265 47.0414 38.7776C47.0414 37.1287 45.6946 35.792 44.0334 35.792C42.3721 35.792 41.0254 37.1287 41.0254 38.7776C41.0254 40.4265 42.3721 41.7632 44.0334 41.7632Z" fill="#21F225"/>
<path d="M68.5937 17.4459C70.255 17.4459 71.6017 16.1091 71.6017 14.4602C71.6017 12.8113 70.255 11.4746 68.5937 11.4746C66.9324 11.4746 65.5857 12.8113 65.5857 14.4602C65.5857 16.1091 66.9324 17.4459 68.5937 17.4459Z" fill="#21F225"/>
<path d="M1 7.72559H77.1416" stroke="#1D1D1B" stroke-miterlimit="10"/>
<path d="M1 50.791H77.1416" stroke="#1D1D1B" stroke-miterlimit="10"/>
<path d="M85.5878 56.209C85.5878 62.3192 80.6319 67.275 74.5217 67.275C80.6319 67.275 85.5878 72.2309 85.5878 78.3411C85.5878 72.2309 90.5437 67.275 96.6539 67.275C90.5437 67.275 85.5878 62.3192 85.5878 56.209Z" fill="#21F225"/>
</svg>
