<svg width="78" height="93" viewBox="0 0 78 93" fill="none" xmlns="http://www.w3.org/2000/svg">
<path d="M12.9426 0C12.9426 5.63498 8.37223 10.2054 2.73725 10.2054C8.37223 10.2054 12.9426 14.7758 12.9426 20.4108C12.9426 14.7758 17.5131 10.2054 23.1481 10.2054C17.5131 10.2054 12.9426 5.63498 12.9426 0Z" fill="#21F225"/>
<path d="M74.2505 24.6152L40.7845 5.65416C38.9769 4.63003 36.6835 5.2614 35.662 7.06436L1.84968 66.7427C0.828157 68.5457 1.46539 70.8375 3.27297 71.8616L36.739 90.8226C38.5465 91.8468 40.84 91.2154 41.8615 89.4124L75.6738 29.7341C76.6953 27.9311 76.0581 25.6393 74.2505 24.6152Z" stroke="#1D1D1B" stroke-miterlimit="10"/>
<path d="M33.8936 10.1855L73.9054 32.8553" stroke="#1D1D1B" stroke-miterlimit="10"/>
<path d="M3.92102 63.0869L43.9328 85.7566" stroke="#1D1D1B" stroke-miterlimit="10"/>
<path d="M28.3849 63.0386L20.2521 45.6194L45.0473 34.1206L52.7184 34.7722L57.6815 45.4022L53.1705 51.5344L28.3849 63.0386Z" fill="#21F225"/>
<path d="M50.7069 42.9643C51.616 43.4793 52.7694 43.1618 53.2832 42.2551C53.7969 41.3483 53.4764 40.1957 52.5674 39.6806C51.6583 39.1656 50.5049 39.4831 49.9911 40.3899C49.4774 41.2966 49.7978 42.4492 50.7069 42.9643Z" fill="white"/>
<path d="M23.4682 44.1387L31.5261 61.5785" stroke="#1D1D1B" stroke-miterlimit="10"/>
<path d="M35.2076 29.8444C38.8364 30.7522 42.2454 32.3834 45.2296 34.6397C48.2137 36.8961 50.7114 39.731 52.5722 42.9739" stroke="#1D1D1B" stroke-miterlimit="10"/>
<path d="M45.0054 59.3417C43.1949 58.3632 41.812 56.7481 41.1253 54.8105C40.7582 53.6215 40.7354 52.3538 41.0595 51.1539C41.3836 49.9541 42.0414 48.8711 42.9568 48.0302C43.3488 47.5685 43.8368 47.1977 44.3869 46.9433C44.937 46.6889 45.5362 46.5571 46.143 46.5569C47.5248 46.682 48.8092 47.3241 49.7387 48.3546L48.9091 49.0825C48.1837 48.2753 47.1858 47.7638 46.1072 47.6463C45.6495 47.6592 45.2003 47.7711 44.7905 47.9744C44.3807 48.1776 44.0201 48.4673 43.7336 48.8234C42.9547 49.5214 42.3922 50.4276 42.1125 51.4353C41.8327 52.4429 41.8473 53.5101 42.1546 54.511C42.6326 55.756 43.4262 56.8562 44.4576 57.7037C45.489 58.5511 46.7228 59.1167 48.0377 59.3448C49.2768 59.5998 50.5622 59.4981 51.7441 59.0515C52.926 58.6049 53.9557 57.8318 54.7133 56.8222C57.1192 53.8476 55.1414 49.3728 55.0103 49.0464L55.666 48.1569C55.7626 48.3882 58.4058 54.0091 55.5701 57.4968C54.6822 58.643 53.4919 59.5192 52.1324 60.0272C50.7729 60.5352 49.2978 60.6551 47.8722 60.3733C46.8659 60.1919 45.8968 59.8432 45.0054 59.3417Z" fill="#1D1D1B"/>
</svg>
