<svg width="92" height="101" viewBox="0 0 92 101" fill="none" xmlns="http://www.w3.org/2000/svg">
<path d="M10.9102 0C10.9102 6.02412 6.02413 10.9102 4.45918e-06 10.9102C6.02413 10.9102 10.9102 15.7962 10.9102 21.8203C10.9102 15.7962 15.7962 10.9102 21.8204 10.9102C15.7962 10.9102 10.9102 6.02412 10.9102 0Z" fill="#21F225"/>
<path d="M91.2615 10.4219H25.3646V100.293H91.2615V10.4219Z" stroke="#1D1D1B" stroke-miterlimit="10"/>
<path d="M59.4034 41.3262L64.0324 33.042L63.872 42.5172L72.0397 37.6467L67.1434 45.7713L76.6687 45.6118L68.3407 50.2165L76.6687 54.8106L67.1434 54.6617L72.0397 62.7863L63.872 57.9158L64.0324 67.3804L59.4034 59.0962L54.7743 67.3804L54.9347 57.9158L46.7671 62.7863L51.6634 54.6617L42.1381 54.8106L50.466 50.2165L42.1381 45.6118L51.6634 45.7713L46.7671 37.6467L54.9347 42.5172L54.7743 33.042L59.4034 41.3262Z" fill="#21F225"/>
<path d="M44.4793 35.5408L38.1184 27.6076L31.8003 35.5408V9.0293H44.4793V35.5408Z" fill="#21F225"/>
<path d="M56.1321 50.5248L58.1527 52.5347L64.0111 46.707" stroke="#1D1D1B" stroke-miterlimit="10"/>
<path d="M43.5922 76.5469H74.349" stroke="#1D1D1B" stroke-miterlimit="10"/>
<path d="M43.5922 81.1943H74.349" stroke="#1D1D1B" stroke-miterlimit="10"/>
<path d="M43.5922 85.8301H60.3229" stroke="#1D1D1B" stroke-miterlimit="10"/>
</svg>
