<svg width="101" height="88" viewBox="0 0 101 88" fill="none" xmlns="http://www.w3.org/2000/svg">
<path d="M87.4218 0C87.4218 6.1553 82.4294 11.1477 76.2741 11.1477C82.4294 11.1477 87.4218 16.1402 87.4218 22.2955C87.4218 16.1402 92.4142 11.1477 98.5695 11.1477C92.4142 11.1477 87.4218 6.1553 87.4218 0Z" fill="#21F225"/>
<path d="M50.1173 33.9267C55.5044 33.9267 59.8716 29.5816 59.8716 24.2217C59.8716 18.8617 55.5044 14.5166 50.1173 14.5166C44.7302 14.5166 40.363 18.8617 40.363 24.2217C40.363 29.5816 44.7302 33.9267 50.1173 33.9267Z" stroke="#1D1D1B" stroke-miterlimit="10"/>
<path d="M50.1171 37.5615C53.9288 37.5638 57.5836 39.072 60.2781 41.7546C62.9726 44.4371 64.4863 48.0744 64.4862 51.8669V63.0504H35.7391V51.8669C35.7391 48.0729 37.2539 44.4343 39.9503 41.7515C42.6467 39.0687 46.3038 37.5615 50.1171 37.5615Z" fill="#21F225"/>
<path d="M50.1173 29.1086C52.8302 29.1086 55.0294 26.9205 55.0294 24.2213C55.0294 21.5221 52.8302 19.334 50.1173 19.334C47.4044 19.334 45.2052 21.5221 45.2052 24.2213C45.2052 26.9205 47.4044 29.1086 50.1173 29.1086Z" fill="#21F225"/>
<path d="M14.3782 58.8847C19.7653 58.8847 24.1324 54.5396 24.1324 49.1797C24.1324 43.8197 19.7653 39.4746 14.3782 39.4746C8.99104 39.4746 4.6239 43.8197 4.6239 49.1797C4.6239 54.5396 8.99104 58.8847 14.3782 58.8847Z" stroke="#1D1D1B" stroke-miterlimit="10"/>
<path d="M14.3779 62.5195C18.1912 62.5195 21.8483 64.0267 24.5447 66.7095C27.241 69.3923 28.7559 73.0309 28.7559 76.8249V87.9997H0V76.8249C0 73.0309 1.51481 69.3923 4.2112 66.7095C6.90758 64.0267 10.5647 62.5195 14.3779 62.5195Z" fill="#21F225"/>
<path d="M14.3782 54.0666C17.091 54.0666 19.2903 51.8785 19.2903 49.1793C19.2903 46.4801 17.091 44.292 14.3782 44.292C11.6653 44.292 9.46606 46.4801 9.46606 49.1793C9.46606 51.8785 11.6653 54.0666 14.3782 54.0666Z" fill="#21F225"/>
<path d="M86.5383 58.8847C91.9255 58.8847 96.2926 54.5396 96.2926 49.1797C96.2926 43.8197 91.9255 39.4746 86.5383 39.4746C81.1512 39.4746 76.7841 43.8197 76.7841 49.1797C76.7841 54.5396 81.1512 58.8847 86.5383 58.8847Z" stroke="#1D1D1B" stroke-miterlimit="10"/>
<path d="M86.5298 62.5195C90.3431 62.5195 94.0002 64.0267 96.6966 66.7095C99.393 69.3923 100.908 73.0309 100.908 76.8249V87.9997H72.1606V76.8249C72.1606 73.0324 73.6743 69.3951 76.3688 66.7126C79.0632 64.03 82.7181 62.5218 86.5298 62.5195Z" fill="#21F225"/>
<path d="M86.5383 54.0666C89.2512 54.0666 91.4504 51.8785 91.4504 49.1793C91.4504 46.4801 89.2512 44.292 86.5383 44.292C83.8254 44.292 81.6262 46.4801 81.6262 49.1793C81.6262 51.8785 83.8254 54.0666 86.5383 54.0666Z" fill="#21F225"/>
<path d="M61.4885 24.8477C65.1333 26.3869 68.4271 28.6443 71.1715 31.484C73.9159 34.3236 76.0541 37.6867 77.4572 41.3706" stroke="#1D1D1B" stroke-miterlimit="10"/>
<path d="M22.9698 40.8047C25.804 33.8493 31.2179 28.2447 38.0907 25.1514" stroke="#1D1D1B" stroke-miterlimit="10"/>
</svg>
