<svg width="685" height="409" viewBox="0 0 685 409" fill="none" xmlns="http://www.w3.org/2000/svg">
<path d="M437.758 98.272L431.455 94.5144L442.312 74.6699L444.312 98.272H437.758Z" fill="white" stroke="#1A1A1A" stroke-width="2" stroke-miterlimit="10"/>
<path d="M568.073 162.731L568.177 166.68L464.262 245.997C459.362 249.737 455.682 254.863 453.69 260.698L432.201 323.885L323.247 387.323H629L604.905 221.866C602.437 204.923 594.558 189.217 582.454 177.113L568.082 162.731" fill="#1A1A1A"/>
<path d="M568.073 162.731L568.177 166.68L464.262 245.997C459.362 249.737 455.682 254.863 453.69 260.698L432.201 323.885L323.247 387.323H629L604.905 221.866C602.437 204.923 594.558 189.217 582.454 177.113L568.082 162.731" stroke="#1A1A1A" stroke-width="2" stroke-miterlimit="10"/>
<path d="M432.2 323.883C431.386 323.589 393.221 319.831 393.221 319.831C393.221 319.831 397.152 344.68 390.26 357.226L395.056 357.477L432.823 325.424L432.2 323.874V323.883Z" fill="#1A1A1A" stroke="#1A1A1A" stroke-width="2" stroke-miterlimit="10"/>
<path d="M451.353 267.572L453.205 243.165C453.586 238.16 456.764 233.797 461.422 231.9L466.989 229.641L467.483 232.152L462.851 247.087L451.37 267.572H451.353Z" fill="#1A1A1A" stroke="#1A1A1A" stroke-width="2" stroke-miterlimit="10"/>
<path d="M122.672 286.144V296.949C122.672 303.477 125.711 309.633 130.888 313.607L146.845 325.85C155.036 332.127 165.703 334.196 175.642 331.426L242.327 312.863C246.336 311.746 246.561 306.152 242.656 304.715L205.288 290.992C202.595 290.005 200.595 287.711 199.972 284.914L198.292 277.295L122.663 286.161L122.672 286.144Z" fill="white" stroke="#1A1A1A" stroke-width="2" stroke-miterlimit="10"/>
<path d="M224.837 369.531L225.045 364.501L165.572 341.868L167.408 348.249L224.837 369.531Z" fill="#00FF00" stroke="#1A1A1A" stroke-width="2" stroke-linejoin="round"/>
<path d="M224.838 369.533L334.008 321.956L334.112 319.376L225.046 364.502L224.838 369.533Z" fill="#00FF00" stroke="#1A1A1A" stroke-width="2" stroke-linejoin="round"/>
<path d="M334.016 319.339L284.007 303.72C284.007 303.72 283.99 303.72 283.981 303.72L165.668 341.833C165.668 341.833 165.633 341.893 165.668 341.902L225.037 364.491C225.037 364.491 225.054 364.491 225.063 364.491L334.025 319.408C334.025 319.408 334.051 319.348 334.025 319.339H334.016Z" fill="#1A1A1A" stroke="#1A1A1A" stroke-width="2" stroke-miterlimit="10"/>
<path d="M286.527 351.739L264.717 338.916L263.713 331.998C263.505 330.578 262.752 329.297 261.609 328.423L240.275 312.241C239.054 311.314 237.47 311.02 235.998 311.453C233.695 312.119 232.232 314.37 232.552 316.743L232.881 319.176V319.193L230.526 319.029L226.699 315.929C225.643 315.072 224.327 314.604 222.976 314.604H218.734L218.517 314.57L218.145 314.128C216.898 312.63 214.976 311.868 213.037 312.093C210.768 312.353 208.872 313.929 208.188 316.102L205.123 325.808L198.093 330.172C196.655 331.063 196.101 332.873 196.794 334.414L198.811 338.916C199.383 340.18 200.915 340.683 202.119 339.99L204.153 338.821C205.296 338.163 205.677 336.691 204.993 335.566L202.378 331.262L219.011 358.605C222.084 363.661 227.357 366.969 233.245 367.531L243.79 368.544L261.159 381.064C261.159 381.064 262.379 358.977 286.527 351.748V351.739Z" fill="white" stroke="#1A1A1A" stroke-width="2" stroke-miterlimit="10"/>
<path d="M215.193 331.252L210.344 326.403C208.959 325.018 206.794 324.767 205.123 325.797L198.093 330.161C196.655 331.053 196.101 332.862 196.794 334.403L198.811 338.906C199.383 340.17 200.915 340.672 202.119 339.979L204.153 338.81C205.296 338.152 205.677 336.681 204.993 335.555L202.378 331.252L219.011 358.594C222.084 363.651 227.357 366.958 233.245 367.521L243.79 368.534L261.159 381.053" fill="white"/>
<path d="M215.193 331.252L210.344 326.403C208.959 325.018 206.794 324.767 205.123 325.797L198.093 330.161C196.655 331.053 196.101 332.862 196.794 334.403L198.811 338.906C199.383 340.17 200.915 340.672 202.119 339.979L204.153 338.81C205.296 338.152 205.677 336.681 204.993 335.555L202.378 331.252L219.011 358.594C222.084 363.651 227.357 366.958 233.245 367.521L243.79 368.534L261.159 381.053" stroke="#1A1A1A" stroke-width="2" stroke-miterlimit="10"/>
<path d="M358.961 223.018L357.498 10.071C357.463 5.4562 353.628 1.78515 349.022 1.94966L8.8869 14.1749C4.35004 14.3394 0.808867 18.1663 1.008 22.7032L11.5363 264.733L12.6445 290.283C12.8523 295.036 17.0515 298.612 21.7702 298.058L351.922 259.373C356.069 258.888 359.178 255.364 359.152 251.191L358.961 223.026V223.018Z" fill="#00FF00" stroke="#1A1A1A" stroke-width="2" stroke-miterlimit="10"/>
<path d="M493.43 160.176C392.329 195.545 455.412 31.3691 455.412 31.3691L574.738 59.4215C576.782 103.474 557.691 116.401 557.691 116.401V164.323L487.776 204.688L478.114 164.271" fill="white"/>
<path d="M493.43 160.176C392.329 195.545 455.412 31.3691 455.412 31.3691L574.738 59.4215C576.782 103.474 557.691 116.401 557.691 116.401V164.323L487.776 204.688L478.114 164.271" stroke="#1A1A1A" stroke-width="2" stroke-miterlimit="10"/>
<path d="M487.776 204.689L477.811 164.325" stroke="#1A1A1A" stroke-width="2" stroke-miterlimit="10"/>
<path d="M562.132 161.839L464.702 217.987L467.473 232.152L462.841 247.087L464.269 245.996L568.08 166.757V162.532C568.08 159.622 565.725 157.259 562.808 157.259H557.691V164.393" fill="#00FF00"/>
<path d="M562.132 161.839L464.702 217.987L467.473 232.152L462.841 247.087L464.269 245.996L568.08 166.757V162.532C568.08 159.622 565.725 157.259 562.808 157.259H557.691V164.393" stroke="#1A1A1A" stroke-width="2" stroke-linejoin="round"/>
<path d="M478.617 209.969L470.054 198.748L484.703 192.255L487.777 204.688L478.617 209.969Z" fill="#00FF00" stroke="#1A1A1A" stroke-width="2" stroke-linejoin="round"/>
<path d="M364.839 9.12665C364.804 4.51186 360.969 0.840816 356.362 1.00532L16.2277 13.2219C11.6909 13.3864 8.14969 17.2133 8.34882 21.7589L18.8771 263.788L366.302 222.073L364.839 9.12665Z" fill="#1A1A1A" stroke="#1A1A1A" stroke-width="2" stroke-miterlimit="10"/>
<path d="M18.877 263.788L19.9852 289.338C20.193 294.091 24.3922 297.667 29.1109 297.113L359.263 258.428C363.41 257.944 366.518 254.42 366.492 250.246L366.302 222.082L18.877 263.788Z" fill="white" stroke="#1A1A1A" stroke-width="2" stroke-miterlimit="10"/>
<path d="M30.5405 244.523L353.723 209.969L350.19 16.6152L23.0166 31.3687L30.5405 244.523Z" fill="#808080" stroke="#1A1A1A" stroke-width="2" stroke-miterlimit="10"/>
<path d="M67.9173 55.3416L305.99 44.6055C316.241 44.1467 324.856 52.2247 325.038 62.4846L327.003 169.975C327.176 179.421 320.103 187.43 310.709 188.434L74.9651 213.638C64.4454 214.764 55.1812 206.729 54.8089 196.149L50.5058 74.1904C50.1509 64.1989 57.9172 55.7832 67.9087 55.333L67.9173 55.3416Z" fill="#00FF00" stroke="#1A1A1A" stroke-width="2" stroke-miterlimit="10"/>
<path d="M220.015 145.554L271.963 142.497C274.898 142.324 277.366 144.662 277.357 147.597C277.349 150.246 275.314 152.446 272.673 152.653L220.725 156.818C217.755 157.052 215.209 154.705 215.227 151.718V150.61C215.244 147.926 217.339 145.709 220.023 145.545L220.015 145.554Z" fill="white" stroke="#1A1A1A" stroke-width="2" stroke-miterlimit="10"/>
<path d="M79.1728 75.5415L157.278 71.0739C161.806 70.8142 165.633 74.3727 165.719 78.9009L167.512 177.067C167.59 181.257 164.412 184.798 160.239 185.162L83.8829 191.95C79.32 192.357 75.3546 188.85 75.1988 184.279L71.6576 83.7927C71.5017 79.455 74.8438 75.7839 79.1815 75.5415H79.1728Z" fill="#1A1A1A" stroke="#1A1A1A" stroke-width="2" stroke-miterlimit="10"/>
<path d="M360.338 311.694L314.978 306.603C310.277 306.075 308.433 300.231 311.965 297.097C316.104 293.426 321.645 291.737 327.126 292.49L361.576 297.192C366.494 297.859 369.109 303.348 366.537 307.59L365.62 309.105C364.52 310.924 362.46 311.937 360.347 311.703L360.338 311.694Z" fill="white" stroke="#1A1A1A" stroke-width="2" stroke-miterlimit="10"/>
<path d="M286.527 351.739L264.718 338.916L263.713 331.998C263.505 330.578 262.752 329.297 261.609 328.423L240.276 312.241C239.055 311.314 237.47 311.02 235.999 311.453C233.696 312.119 232.232 314.37 232.553 316.743L232.882 319.176" stroke="#1A1A1A" stroke-width="2" stroke-miterlimit="10"/>
<path d="M241.279 319.765L230.517 319.029L226.69 315.929C225.634 315.072 224.318 314.604 222.967 314.604H218.725" stroke="#1A1A1A" stroke-width="2" stroke-miterlimit="10"/>
<path d="M225.366 322.759L218.145 314.118C216.898 312.621 214.976 311.859 213.037 312.084C210.768 312.344 208.872 313.919 208.188 316.093L205.123 325.798" stroke="#1A1A1A" stroke-width="2" stroke-miterlimit="10"/>
<path d="M207.972 321.087L215.193 331.252" stroke="#1A1A1A" stroke-width="2" stroke-miterlimit="10"/>
<path d="M289.194 329.347L283.575 322.758L253.124 321.996" stroke="#1A1A1A" stroke-width="2" stroke-miterlimit="10"/>
<path d="M306.562 328.308L277.271 330.057C272.743 330.326 269.418 334.412 270.068 338.897L270.31 340.534L292.12 341.564L298.388 344.057C303.687 346.161 309.531 346.456 315.012 344.88L335.298 339.053L373.896 356.352C373.896 356.352 390.39 357.997 390.251 357.218C390.113 356.439 396.901 348.785 393.212 319.823L285.773 303.243L281.54 300.472C278.31 298.36 274.319 297.754 270.604 298.801L263.756 300.741" fill="white"/>
<path d="M306.562 328.308L277.271 330.057C272.743 330.326 269.418 334.412 270.068 338.897L270.31 340.534L292.12 341.564L298.388 344.057C303.687 346.161 309.531 346.456 315.012 344.88L335.298 339.053L373.896 356.352C373.896 356.352 390.39 357.997 390.251 357.218C390.113 356.439 396.901 348.785 393.212 319.823L285.773 303.243L281.54 300.472C278.31 298.36 274.319 297.754 270.604 298.801L263.756 300.741" stroke="#1A1A1A" stroke-width="2" stroke-miterlimit="10"/>
<path d="M282.543 306.092L260.742 299.902C258.5 299.27 256.101 299.573 254.101 300.759L236.006 311.451" stroke="#1A1A1A" stroke-width="2" stroke-miterlimit="10"/>
<path d="M275.116 308.716L256.787 306.716C254.44 306.456 252.094 307.131 250.232 308.577L242.934 314.266" stroke="#1A1A1A" stroke-width="2" stroke-miterlimit="10"/>
<path d="M275.514 312.914L245.514 316.221" stroke="#1A1A1A" stroke-width="2" stroke-miterlimit="10"/>
<path d="M574.731 59.4225L455.404 31.3702L461.474 16.2617C464.755 8.10576 474.374 4.5819 482.149 8.70317L497.067 16.6167L563.276 28.5303C572.064 30.1147 577.995 38.4179 576.618 47.2492L574.722 59.4225H574.731Z" fill="#1A1A1A" stroke="#1A1A1A" stroke-width="2" stroke-linejoin="round"/>
<path d="M482.789 37.8096C482.789 37.8096 463.144 127.664 557.682 116.408C557.682 116.408 577.474 103.845 574.73 59.4289L482.789 37.8182V37.8096Z" fill="#1A1A1A" stroke="#1A1A1A" stroke-width="2" stroke-linejoin="round"/>
<path d="M487.265 94.9286C489.759 91.829 493.023 89.9502 496.59 89.9502C504.443 89.9502 510.816 99.0412 510.816 110.262C510.816 121.483 504.443 130.574 496.59 130.574C492.287 130.574 488.434 127.847 485.828 123.544" fill="white"/>
<path d="M487.265 94.9286C489.759 91.829 493.023 89.9502 496.59 89.9502C504.443 89.9502 510.816 99.0412 510.816 110.262C510.816 121.483 504.443 130.574 496.59 130.574C492.287 130.574 488.434 127.847 485.828 123.544" stroke="#1A1A1A" stroke-width="2" stroke-miterlimit="10"/>
<path d="M263.764 300.76L270.613 298.821C274.327 297.773 278.31 298.379 281.548 300.492L285.782 303.263L393.221 319.843C396.909 348.804 390.121 356.467 390.26 357.237C390.398 358.008 373.904 356.371 373.904 356.371L335.306 339.073L315.02 344.899C309.54 346.475 303.696 346.181 298.397 344.077L292.128 341.583L270.319 340.553L270.076 338.917C269.427 334.432 272.751 330.345 277.28 330.077L289.444 329.349L283.652 322.778L253.132 322.016L239.669 311.808C238.543 310.951 237.019 310.847 235.781 311.54L254.249 300.769C256.717 299.332 259.712 299.115 262.362 300.198L263.773 300.778L263.764 300.76Z" fill="white" stroke="#1A1A1A" stroke-width="2" stroke-miterlimit="10"/>
<path d="M289.436 329.33L283.575 322.758L253.124 321.996" stroke="#1A1A1A" stroke-width="2" stroke-miterlimit="10"/>
<path d="M282.543 306.092L260.742 299.902C258.5 299.27 256.101 299.573 254.101 300.759L236.006 311.451" stroke="#1A1A1A" stroke-width="2" stroke-miterlimit="10"/>
<path d="M275.116 308.716L256.787 306.716C254.44 306.456 252.094 307.131 250.232 308.577L242.934 314.266" stroke="#1A1A1A" stroke-width="2" stroke-miterlimit="10"/>
<path d="M275.514 312.914L245.514 316.221" stroke="#1A1A1A" stroke-width="2" stroke-miterlimit="10"/>
<path d="M510.894 238.332C479.673 244.704 461.985 282.151 454.894 301.225C452.114 308.688 446.945 315.017 440.166 319.19L395.057 357.477L286.519 351.728C283.064 352.732 274.822 355.641 268.389 363.667C264.25 368.827 262.233 374.403 261.341 379.399C259.878 387.529 265.757 395.148 273.991 395.763C323.991 399.512 374.001 403.252 424.001 407.001C441.179 408.291 458.097 402.274 470.608 390.438C499.587 363.018 528.557 335.597 557.536 308.177" fill="#1A1A1A"/>
<path d="M510.894 238.332C479.673 244.704 461.985 282.151 454.894 301.225C452.114 308.688 446.945 315.017 440.166 319.19L395.057 357.477L286.519 351.728C283.064 352.732 274.822 355.641 268.389 363.667C264.25 368.827 262.233 374.403 261.341 379.399C259.878 387.529 265.757 395.148 273.991 395.763C323.991 399.512 374.001 403.252 424.001 407.001C441.179 408.291 458.097 402.274 470.608 390.438C499.587 363.018 528.557 335.597 557.536 308.177" stroke="#1A1A1A" stroke-width="2" stroke-miterlimit="10"/>
<path d="M280.276 388.198C282.246 388.198 283.843 386.601 283.843 384.631C283.843 382.661 282.246 381.063 280.276 381.063C278.306 381.063 276.709 382.661 276.709 384.631C276.709 386.601 278.306 388.198 280.276 388.198Z" fill="#00FF00" stroke="#1A1A1A" stroke-width="2" stroke-linejoin="round"/>
<path d="M295.808 389.305C297.778 389.305 299.376 387.708 299.376 385.738C299.376 383.768 297.778 382.171 295.808 382.171C293.838 382.171 292.241 383.768 292.241 385.738C292.241 387.708 293.838 389.305 295.808 389.305Z" fill="#00FF00" stroke="#1A1A1A" stroke-width="2" stroke-linejoin="round"/>
<path d="M187.097 75.3021L298.752 67.96" stroke="#1A1A1A" stroke-width="2" stroke-miterlimit="10"/>
<path d="M187.097 90.1419L298.752 82.7998" stroke="#1A1A1A" stroke-width="2" stroke-miterlimit="10"/>
<path d="M187.097 104.981L298.752 97.6387" stroke="#1A1A1A" stroke-width="2" stroke-miterlimit="10"/>
<path d="M187.097 119.812L298.752 112.479" stroke="#1A1A1A" stroke-width="2" stroke-miterlimit="10"/>
<path d="M473 386H685" stroke="black" stroke-width="2"/>
</svg>
