<svg width="970" height="631" viewBox="0 0 970 631" fill="none" xmlns="http://www.w3.org/2000/svg">
<path d="M351.83 282.873L358.31 299.433H371.9C380.9 293.293 383.84 280.993 383.84 280.993L391.5 279.183C391.5 279.183 399.65 285.343 405 280.393L395.46 274.033L383.8 274.433L383.22 273.063L397.76 267.433C397.76 267.433 408.56 269.883 412.51 265.043L408.37 263.263L411.56 262.153L396.86 257.153L379.61 262.853L379.18 261.853L389.04 250.853C389.04 250.853 400.29 252.723 405.8 245.853L383.71 247.143L369.99 260.833C369.99 260.833 371.72 251.733 370.57 249.003C369.42 246.273 364.72 244.633 364.72 244.633C364.72 244.633 364.72 255.853 363.95 258.903C362.69 264.133 355.72 268.413 355.72 268.413V281.333L351.83 282.873Z" fill="white"/>
<path d="M351.83 282.873L355.72 281.333V268.483C355.72 268.483 363.3 263.083 363.95 258.973C364.6 254.863 364.72 244.703 364.72 244.703C364.72 244.703 371.53 245.703 370.89 252.033C370.25 258.363 369.99 260.903 369.99 260.903C369.99 260.903 374.87 264.113 373.2 274.523" stroke="black" stroke-width="1.58" stroke-linecap="round" stroke-linejoin="round"/>
<path d="M358.31 299.433H371.9C371.9 299.433 379.42 296.183 383.84 280.993L391.5 279.183C391.5 279.183 399.33 286.233 405 280.393L395.46 274.033L383.8 274.433" stroke="black" stroke-width="1.58" stroke-linecap="round" stroke-linejoin="round"/>
<path d="M369.99 260.903L383.71 247.213L405.8 245.923C405.8 245.923 401.42 252.973 389.04 250.923L379.9 261.483" stroke="black" stroke-width="1.58" stroke-linecap="round" stroke-linejoin="round"/>
<path d="M378.04 259.433C378.04 259.433 383.37 270.433 383.8 276.433" stroke="black" stroke-width="1.58" stroke-linecap="round" stroke-linejoin="round"/>
<path d="M379.61 262.883L396.86 257.183L411.56 262.183C411.56 262.183 406.19 266.183 397.22 262.653L382.02 269.113" stroke="black" stroke-width="1.58" stroke-linecap="round" stroke-linejoin="round"/>
<path d="M408.39 263.563L412.51 265.053C412.51 265.053 410.12 270.303 397.76 267.443L383.22 273.073" stroke="black" stroke-width="1.58" stroke-linecap="round" stroke-linejoin="round"/>
<path d="M374.22 556.353C374.22 556.353 359.77 549.353 352.16 563.193L353.64 571.193C360.728 566.586 368.997 564.127 377.45 564.113L374.22 556.353Z" fill="white" stroke="black" stroke-width="1.58" stroke-linecap="round" stroke-linejoin="round"/>
<path d="M353.64 571.233L355.97 583.853L372.19 597.793L383.98 579.923L377.45 564.153C368.997 564.167 360.728 566.626 353.64 571.233Z" fill="#21F225" stroke="black" stroke-width="1.58" stroke-linecap="round" stroke-linejoin="round"/>
<path d="M354.66 577.723L364.86 587.483C364.86 587.483 377.95 576.173 384.17 575.483C384.17 575.483 410.79 614.483 429.88 616.973V624.973C429.88 624.973 389.27 633.433 373.3 627.433C357.33 621.433 334.02 609.903 334.02 609.903L354.66 577.723Z" fill="black" stroke="black" stroke-width="1.58" stroke-linecap="round" stroke-linejoin="round"/>
<path d="M457.6 428.233C457.6 428.233 441.6 429.133 441.6 444.913L446.79 451.223C450.753 443.76 456.793 437.605 464.18 433.503L457.6 428.233Z" fill="white" stroke="black" stroke-width="1.58" stroke-linecap="round" stroke-linejoin="round"/>
<path d="M446.81 451.223L454.95 461.143L475.9 465.483L477.56 444.133L464.2 433.503C456.813 437.605 450.773 443.76 446.81 451.223Z" fill="#21F225" stroke="black" stroke-width="1.58" stroke-linecap="round" stroke-linejoin="round"/>
<path d="M125.76 327.163C125.76 327.163 134.95 340.013 151.39 324.163C151.39 324.213 143.28 315.283 125.76 327.163Z" fill="black" stroke="black" stroke-width="1.58" stroke-linecap="round" stroke-linejoin="round"/>
<path d="M229.21 171.433C229.21 171.433 181.97 175.673 166.3 182.883C150.63 190.093 95.98 252.233 95.98 252.233L125.76 327.163C125.76 327.163 141.96 315.923 151.39 324.163L135.56 257.883L158.99 236.603C158.99 236.603 147.48 306.653 193.04 395.183L191.66 354.433L231.66 366.863L279.98 320.863L358.9 303.633C358.9 303.633 357.63 285.743 347.45 278.473L283.9 287.093C283.9 287.093 284.21 281.373 279.44 281.373C279.44 281.373 271.44 241.623 273.72 220.003L248.59 189.003L229.21 171.433Z" fill="#1D1D1B" stroke="black" stroke-width="1.58" stroke-linecap="round" stroke-linejoin="round"/>
<path d="M128.41 325.553V337.143C128.41 337.143 120.99 340.203 120.51 355.503L109.39 363.723C109.39 363.723 101.39 363.883 101.02 365.653C100.821 366.72 100.821 367.815 101.02 368.883H110.68L124.22 360.663L116.48 372.743C116.48 372.743 103.75 372.103 101.98 374.683C101.98 374.683 101.18 383.683 102.98 384.183C104.78 384.683 122.15 383.383 122.15 383.383L134.07 371.943L125.79 387.083L111.68 395.183C111.68 395.183 111.68 399.183 113.29 399.183C114.9 399.183 131.98 391.773 131.98 391.773L144.39 372.593L149.54 338.593L147.37 321.883C147.37 321.883 139.9 319.113 128.41 325.553Z" fill="white" stroke="black" stroke-width="1.58" stroke-linecap="round" stroke-linejoin="round"/>
<path d="M101.8 379.353L119.9 377.903C119.9 377.903 128.6 368.073 131.01 363.723" stroke="black" stroke-width="1.58" stroke-linecap="round" stroke-linejoin="round"/>
<path d="M225.04 123.103L228.04 108.103C228.04 108.103 255.46 82.7029 252.23 96.0129C252.23 96.0129 292.15 73.6329 295.78 83.7129C295.78 83.7129 314.1 102.183 312.51 119.593C312.51 119.593 314.84 124.343 310.85 132.153L233.85 138.343L225.04 123.103Z" fill="#1A1A1A"/>
<path d="M235.31 160.673L229.21 171.433C229.21 171.433 223.41 170.083 223.41 174.523C223.41 178.963 232.9 214.303 244.9 213.723C256.9 213.143 248.57 188.983 248.57 188.983L253.57 179.643C253.57 179.643 239.09 171.983 235.31 160.673Z" fill="white" stroke="black" stroke-width="1.58" stroke-linecap="round" stroke-linejoin="round"/>
<path d="M237.22 133.333C237.22 133.333 229.42 121.393 225.04 123.103C220.66 124.813 220.72 152.103 233.24 145.663C233.24 145.663 231.11 162.343 243.93 172.603C256.75 182.863 265.53 188.213 277.72 180.733C284.423 176.699 290.847 172.219 296.95 167.323C296.95 167.323 306.62 136.403 305.61 122.933C305.61 122.933 292.51 102.213 287.47 101.003C282.43 99.7932 245.68 106.243 245.68 106.243C245.68 106.243 240.99 128.363 237.22 133.333Z" fill="white" stroke="black" stroke-width="1.58" stroke-linecap="round" stroke-linejoin="round"/>
<path d="M280.01 157.653L285.65 160.673V154.723" stroke="black" stroke-width="1.58" stroke-linecap="round" stroke-linejoin="round"/>
<path d="M245.97 141.943C245.97 141.943 243.88 124.153 250.97 113.693C250.97 113.693 268.76 108.693 272.42 109.503C275.86 110.243 304.84 125.503 319.42 139.243C320.235 140.023 320.791 141.032 321.014 142.137C321.238 143.242 321.118 144.389 320.67 145.423C318.21 151.183 313.22 162.263 310.34 164.183C306.41 166.803 296.73 169.183 296.73 169.183C296.73 169.183 288.1 154.793 282.61 152.703C277.12 150.613 253.82 147.963 245.97 141.943Z" fill="#3C3C3B" stroke="black" stroke-width="1.58" stroke-linecap="round" stroke-linejoin="round"/>
<path d="M270.64 117.933L266.45 133.933C266.206 134.864 266.277 135.849 266.651 136.735C267.026 137.622 267.683 138.359 268.52 138.833L304.32 159.103C304.828 159.39 305.388 159.572 305.967 159.639C306.546 159.705 307.133 159.655 307.692 159.491C308.251 159.327 308.772 159.052 309.224 158.683C309.675 158.314 310.048 157.859 310.32 157.343L316.65 145.433C317.162 144.467 317.291 143.343 317.014 142.286C316.736 141.228 316.071 140.313 315.15 139.723L277.21 115.383C276.632 115.012 275.974 114.783 275.291 114.714C274.607 114.645 273.917 114.739 273.277 114.987C272.636 115.236 272.063 115.632 271.605 116.144C271.147 116.656 270.816 117.269 270.64 117.933Z" fill="#21F225" stroke="black" stroke-width="1.58" stroke-linecap="round" stroke-linejoin="round"/>
<path d="M225.04 113.973L253.97 114.543C254.691 114.557 255.397 114.745 256.03 115.089C256.663 115.433 257.204 115.924 257.608 116.521C258.012 117.118 258.266 117.803 258.35 118.518C258.434 119.234 258.345 119.959 258.09 120.633C257.754 121.531 257.138 122.298 256.333 122.82C255.528 123.342 254.578 123.592 253.62 123.533L223.41 121.773L225.04 113.973Z" fill="#21F225" stroke="black" stroke-width="1.58" stroke-linecap="round" stroke-linejoin="round"/>
<path d="M251.95 120.623C252.977 120.623 253.81 119.791 253.81 118.763C253.81 117.736 252.977 116.903 251.95 116.903C250.923 116.903 250.09 117.736 250.09 118.763C250.09 119.791 250.923 120.623 251.95 120.623Z" fill="white" stroke="black" stroke-width="1.58" stroke-linecap="round" stroke-linejoin="round"/>
<path d="M253.53 231.903C247.14 267.293 258.39 290.043 258.39 290.043C264.02 290.043 264.05 300.153 264.05 300.153L280.05 320.803" stroke="black" stroke-width="1.58" stroke-linecap="round" stroke-linejoin="round"/>
<path d="M191.66 354.433V374.513C191.66 374.513 253.49 435.843 313.26 441.833L321.09 452.273C321.09 452.273 332.48 503.923 337.17 521.423C340.26 532.953 352.17 568.423 352.17 568.423C352.17 568.423 357.98 560.773 364.23 559.423C367.73 558.673 378.48 557.993 378.48 557.993L358.9 426.433C351.18 412.593 310.48 385.563 310.48 385.563L354.04 369.003L364.9 371.543L442.4 446.923L451.9 436.553L461.62 428.043L383.71 326.543L276.38 324.223L231.69 366.833L191.66 354.433Z" fill="#3C3C3B"/>
<path d="M191.66 354.433V374.513C191.66 374.513 262.66 441.833 313.26 441.833L321.09 452.273C321.09 452.273 338.83 539.113 352.2 568.433C352.2 568.433 357.38 556.693 378.51 558.003C378.51 558.003 359.11 436.003 358.89 426.493C358.67 416.983 265.79 354.493 265.79 354.493" stroke="black" stroke-width="1.58" stroke-linecap="round" stroke-linejoin="round"/>
<path d="M276.42 324.223L383.75 326.543L461.66 428.043C461.66 428.043 445.59 441.293 442.38 446.923L364.9 371.543L354.05 369.013L310.49 385.573" stroke="black" stroke-width="1.58" stroke-linecap="round" stroke-linejoin="round"/>
<path d="M445.84 452.883L458.32 456.623C458.32 456.623 466.89 437.713 475.63 434.683L502.9 454.483L530.19 455.553L533.58 459.833C533.58 459.833 509.5 489.273 439.93 486.233L444.21 475.173L445.84 452.883Z" fill="black" stroke="black" stroke-width="1.58" stroke-linecap="round" stroke-linejoin="round"/>
<path d="M689.7 218.873C689.7 218.873 637.08 240.873 629.95 244.463C622.82 248.053 627.28 266.953 635.95 286.553C644.62 306.153 655.03 334.913 655.03 334.913L673.75 286.743L668.25 271.843L695.46 270.533L714.24 249.533L719.24 243.093C719.24 243.093 707.47 219.783 689.7 218.873Z" fill="#21F225" stroke="black" stroke-width="1.46" stroke-linecap="round" stroke-linejoin="round"/>
<path d="M649.1 403.143L643 428.043C643 428.043 659.67 431.313 669.13 424.433L672.33 407.883C672.33 407.883 658.64 410.043 649.1 403.143Z" fill="white" stroke="black" stroke-width="1.46" stroke-linecap="round" stroke-linejoin="round"/>
<path d="M636.64 427.703C636.64 427.703 655.43 432.343 672.33 421.853L671.33 438.013C671.33 438.013 681.82 447.123 686.11 457.263L689.72 478.263C689.72 478.263 677.06 484.973 672.3 484.973L667.03 473.793C667.03 473.793 658.44 478.613 659.64 490.793C659.64 490.793 631.64 502.653 615.47 499.043C615.47 499.043 614.61 488.553 615.47 485.293C616.33 482.033 634.03 471.713 634.03 471.713L636.64 427.703Z" fill="#1D1D1B" stroke="black" stroke-width="1.46" stroke-linecap="round" stroke-linejoin="round"/>
<path d="M652.43 428.433C652.43 428.433 653.17 457.953 658.98 458.433C664.79 458.913 661.75 426.573 661.75 426.573L652.43 428.433Z" fill="#21F225" stroke="black" stroke-width="1.46" stroke-linecap="round" stroke-linejoin="round"/>
<path d="M660.58 349.913L672.41 372.663C672.41 372.663 687.1 364.133 689.68 352.723L681.18 338.163C681.18 338.163 672.31 348.813 660.58 349.913Z" fill="#1A1A1A"/>
<path d="M667.4 376.593C667.4 376.593 684.59 367.703 690.4 348.673L700.31 361.433C700.31 361.433 714.2 361.373 724.11 366.173L740.65 379.563C740.65 379.563 735.54 392.953 731.97 396.083L720.64 391.153C720.64 391.153 717.35 400.443 726.3 408.823C726.3 408.823 713.04 436.213 698.51 444.143C698.51 444.143 690.95 436.823 689.45 433.803C687.95 430.783 694.45 411.353 694.45 411.353L667.4 376.593Z" fill="black" stroke="black" stroke-width="1.46" stroke-linecap="round" stroke-linejoin="round"/>
<path d="M679.77 366.743C679.77 366.743 699.77 388.453 704.47 385.003C709.17 381.553 685.56 359.223 685.56 359.223L679.77 366.743Z" fill="#21F225" stroke="black" stroke-width="1.46" stroke-linecap="round" stroke-linejoin="round"/>
<path d="M714.26 249.503C714.26 249.503 660.03 285.653 658.5 298.433C656.97 311.213 649.1 403.143 649.1 403.143C649.1 403.143 660.22 410.373 672.33 407.883C672.33 407.883 708.67 359.743 694.39 313.463C694.39 313.463 717.33 317.663 757.48 294.313C757.48 294.313 734.65 252.323 714.26 249.503Z" fill="#21F225" stroke="black" stroke-width="1.46" stroke-linecap="round" stroke-linejoin="round"/>
<path d="M739.3 33.553C739.3 33.553 737.96 8.97299 752.22 3.43299C766.48 -2.10701 763.96 3.93299 781.57 1.43299C799.18 -1.06701 806.4 12.913 806.4 12.913C806.4 12.913 815.12 10.493 816.8 17.283C818.48 24.073 817.72 29.233 821.45 36.463C825.18 43.693 834.75 64.333 834.75 64.333C834.75 64.333 858.15 58.263 863.08 73.063C868.01 87.863 864.72 115.833 845.6 113.773C845.6 113.773 835.42 120.773 827.15 117.683V113.363C827.15 113.363 811.47 115.623 798.52 97.733C798.52 97.733 755.36 127.733 742.52 113.003C742.52 113.003 738.12 121.673 729.98 117.253C721.84 112.833 727.68 102.563 727.68 102.563C727.68 102.563 717.42 100.093 724.32 91.423C731.22 82.753 737.57 91.473 745.89 78.973L739.3 33.553Z" fill="#1A1A1A"/>
<path d="M776 99.6131L750.61 107.333C750.61 107.333 736.32 147.543 713.28 155.483L665.09 140.123C665.09 140.123 665.01 152.503 658.5 153.593L713.18 183.753L738.18 163.573L798.56 176.573L810.33 157.813C810.33 157.813 827.61 151.083 868.83 178.643L857.23 220.023C857.23 220.023 874.23 226.933 875.01 239.773C875.01 239.773 891.39 206.893 893.49 167.013C893.49 167.013 838.25 140.343 827.19 113.353C827.19 113.353 809.81 112.423 798.56 97.7231L776 99.6131Z" fill="#3C3C3B" stroke="black" stroke-width="1.46" stroke-linecap="round" stroke-linejoin="round"/>
<path d="M763.35 103.433C763.35 103.433 754.23 130.933 740.81 138.503C727.39 146.073 733.96 156.053 739.62 165.733C745.28 175.413 750.31 194.733 726.77 204.113C703.23 213.493 674.49 205.113 668.44 207.483C662.39 209.853 663.73 229.163 663.73 229.163L689.73 218.843C689.73 218.843 702.73 224.393 709.84 241.843C716.95 259.293 751.96 283.963 757.51 294.303C757.51 294.303 731.09 309.623 719.79 311.153C719.79 311.153 754.07 347.153 769.39 339.293C777.24 335.083 767.09 324.363 788.72 282.813C810.35 241.263 801.55 230.163 795.23 211.973C788.91 193.783 799.06 171.973 812.23 160.083C812.23 160.083 787.55 151.873 810.23 107.913L806.9 105.793C806.9 105.793 795.11 131.873 793.51 134.433C791.91 136.993 781.51 145.313 765.82 144.673L755.58 135.553C755.58 135.553 765.24 109.143 766.73 102.433L763.35 103.433Z" fill="#1D1D1B" stroke="black" stroke-width="1.46" stroke-linecap="round" stroke-linejoin="round"/>
<path d="M658.5 153.593C658.5 153.593 652.63 151.693 649.62 148.953C646.61 146.213 644.56 137.613 646.34 132.423C648.12 127.233 645.16 119.163 645.68 115.603C645.782 114.641 646.218 113.745 646.913 113.071C647.607 112.397 648.515 111.987 649.48 111.913L652.06 129.823C652.06 129.823 659.6 124.903 662.2 117.823C664.8 110.743 658.91 95.1331 666.2 89.3931L668.66 117.393L665.13 140.133C665.13 140.133 665.9 151.113 658.5 153.593Z" fill="white" stroke="black" stroke-width="1.46" stroke-linecap="round" stroke-linejoin="round"/>
<path d="M663.08 94.283L660.72 91.333C660.72 91.333 657.95 96.903 660.07 107.333L659.96 116.423L655.7 126.883C655.7 126.883 661.87 120.663 662.7 115.673C663.53 110.683 661.44 98.963 663.08 94.283Z" fill="white" stroke="black" stroke-width="1.46" stroke-linecap="round" stroke-linejoin="round"/>
<path d="M659.31 98.2632L656.18 95.2632C656.18 95.2632 655.03 101.873 657.12 107.063C659.21 112.253 658.5 120.063 658.5 120.063L659.96 116.463L660.07 107.373C660.07 107.373 659.24 99.3532 659.31 98.2632Z" fill="white" stroke="black" stroke-width="1.46" stroke-linecap="round" stroke-linejoin="round"/>
<path d="M655.95 101.613L653.79 100.093C653.79 100.093 653.98 106.803 655.95 111.023C657.025 113.255 657.912 115.573 658.6 117.953C658.82 115.417 658.637 112.862 658.06 110.383C657.12 107.023 655.5 103.773 655.95 101.613Z" fill="white" stroke="black" stroke-width="1.46" stroke-linecap="round" stroke-linejoin="round"/>
<path d="M857.19 220.033L854.09 222.373L839.9 211.843L827.19 214.433L814.47 222.333C814.47 222.333 818.09 224.893 829.09 219.553L839.88 219.113L824.76 231.553L821.44 240.553L818.76 243.203C822.299 243.982 826.003 243.347 829.08 241.433C832.08 239.563 841.59 232.433 841.59 232.433L843.08 234.113L835.83 244.723C835.83 244.723 833.58 249.773 833.67 251.403C833.67 251.403 836.44 250.633 838.83 246.713L847.43 236.853C847.43 236.853 860.73 249.403 873.92 235.103C873.9 235.073 871.98 226.363 857.19 220.033Z" fill="white" stroke="black" stroke-width="1.46" stroke-linecap="round" stroke-linejoin="round"/>
<path d="M818.76 243.243L831.09 232.923L841.59 225.473" fill="white"/>
<path d="M818.76 243.243L831.09 232.923L841.59 225.473" stroke="black" stroke-width="1.46" stroke-linecap="round" stroke-linejoin="round"/>
<path d="M747.74 27.1531C747.74 27.1531 732.03 70.2331 754.84 93.2931C754.84 93.2931 784.48 97.5931 798.16 68.9631C798.16 68.9631 812.61 72.2631 811.34 48.1831C810.07 24.1031 797.4 49.9631 797.4 49.9631L798.4 24.8731C798.4 24.8731 776.37 -3.49688 747.74 27.1531Z" fill="white" stroke="black" stroke-width="1.46" stroke-linecap="round" stroke-linejoin="round"/>
<path d="M739.3 33.5531L746.1 32.5531L747.74 27.1931C747.74 27.1931 767.09 34.7131 792.86 26.1931C792.86 26.1931 792.79 42.0531 797.58 45.6031L797.49 47.9131C797.49 47.9131 816.49 41.9131 821.49 36.4731C821.49 36.4731 818.4 30.9931 817.68 21.7031C816.96 12.4131 812.25 11.0331 806.44 12.9231C806.44 12.9231 799.3 -0.296921 784.97 1.14308C770.64 2.58308 759.42 -3.85692 748.73 3.93308C738.04 11.7231 739.61 23.0931 739.3 33.5531Z" fill="#1A1A1A"/>
<path d="M776 90.3029V109.563C776 109.563 786.13 117.813 798.52 97.7329L798.16 68.9629C798.16 68.9629 792.71 82.5129 776 90.3029Z" fill="white" stroke="black" stroke-width="1.46" stroke-linecap="round" stroke-linejoin="round"/>
<path d="M746.1 32.5132C746.1 32.5132 733.39 34.9632 730.9 37.0032C728.41 39.0432 727.77 52.3532 729.33 60.0032C730.89 67.6532 766.61 70.0032 770.33 69.2432C774.05 68.4832 791.33 61.5732 791.33 61.5732C791.33 61.5732 794.15 47.7932 793.21 40.7432C793.21 40.7432 760 43.4832 745.13 36.3232L746.1 32.5132Z" fill="#3C3C3B" stroke="black" stroke-width="1.46" stroke-linecap="round" stroke-linejoin="round"/>
<path d="M732.62 40.7432C732.62 40.7432 729.48 53.4432 732.92 60.4932C732.92 60.4932 753.13 67.4932 768.32 65.4932C768.32 65.4932 770.5 53.9032 769.74 46.7932C769.74 46.8032 748.99 41.7932 732.62 40.7432Z" fill="#21F225" stroke="black" stroke-width="1.46" stroke-linecap="round" stroke-linejoin="round"/>
<path d="M783.78 50.9632V61.1132C783.78 61.1132 820.9 51.3132 827.15 44.4332L824.23 34.2332L820.13 33.5732L821.45 36.4332C821.45 36.4332 803.37 48.7532 783.78 50.9632Z" fill="#21F225" stroke="black" stroke-width="1.46" stroke-linecap="round" stroke-linejoin="round"/>
<path d="M788.73 57.713C789.564 57.713 790.24 56.728 790.24 55.513C790.24 54.298 789.564 53.313 788.73 53.313C787.896 53.313 787.22 54.298 787.22 55.513C787.22 56.728 787.896 57.713 788.73 57.713Z" fill="white" stroke="black" stroke-width="1.46" stroke-linecap="round" stroke-linejoin="round"/>
<path d="M757.48 294.313C757.48 294.313 732.41 309.113 719.76 311.163C719.76 311.163 748.28 342.993 767.15 340.113C786.02 337.233 757.48 294.313 757.48 294.313Z" fill="black" stroke="black" stroke-width="1.46" stroke-linecap="round" stroke-linejoin="round"/>
<path d="M689.7 218.873L663.7 229.193C663.7 229.193 661.7 211.063 668.41 207.513C675.12 203.963 689.7 218.873 689.7 218.873Z" fill="black" stroke="black" stroke-width="1.46" stroke-linecap="round" stroke-linejoin="round"/>
<path d="M567.56 526.743C663.199 526.743 740.73 521.809 740.73 515.723C740.73 509.637 663.199 504.703 567.56 504.703C471.921 504.703 394.39 509.637 394.39 515.723C394.39 521.809 471.921 526.743 567.56 526.743Z" fill="#21F225" stroke="black" stroke-width="1.21" stroke-linecap="round" stroke-linejoin="round"/>
<path d="M567.56 526.753C471.92 526.753 394.39 521.813 394.39 515.753V540.193C394.39 546.283 471.92 551.193 567.56 551.193C663.2 551.193 740.74 546.263 740.74 540.193V515.723C740.74 521.813 663.2 526.753 567.56 526.753Z" fill="#3C3C3B"/>
<path d="M649.79 90.2232C649.64 91.5771 649.033 92.8394 648.07 93.8026C647.106 94.7659 645.844 95.3726 644.49 95.5232C644.43 95.5232 644.43 95.5932 644.49 95.5932C645.844 95.7438 647.106 96.3506 648.07 97.3138C649.033 98.277 649.64 99.5394 649.79 100.893C649.79 100.953 649.86 100.953 649.86 100.893C650.011 99.5394 650.618 98.277 651.581 97.3138C652.544 96.3506 653.806 95.7438 655.16 95.5932C655.22 95.5932 655.22 95.5232 655.16 95.5232C653.806 95.3726 652.544 94.7659 651.581 93.8026C650.618 92.8394 650.011 91.5771 649.86 90.2232C649.9 90.1632 649.79 90.1632 649.79 90.2232Z" fill="#34EF3A"/>
<path d="M251.17 379.563C251.17 379.563 197.45 419.563 216.58 438.193C235.71 456.823 528.9 316.813 590.13 317.343C651.36 317.873 549.34 385.933 558.26 410.553C567.18 435.173 798.32 305.433 798.32 305.433" stroke="#34EF3A" stroke-width="2" stroke-miterlimit="10"/>
<path style="mix-blend-mode:multiply" d="M396.11 515.763L0 8.56299H969.36L742.46 515.763H396.11Z" fill="url(#paint0_linear_2_3652)"/>
<defs>
<linearGradient id="paint0_linear_2_3652" x1="484.68" y1="13.193" x2="484.68" y2="451.733" gradientUnits="userSpaceOnUse">
<stop stop-color="white" stop-opacity="0"/>
<stop offset="1" stop-color="#21F225"/>
</linearGradient>
</defs>
</svg>
