<svg width="1228" height="628" viewBox="0 0 1228 628" fill="none" xmlns="http://www.w3.org/2000/svg">
<mask id="mask0_59_86" style="mask-type:alpha" maskUnits="userSpaceOnUse" x="0" y="0" width="1228" height="628">
<rect width="1228" height="628" fill="#D9D9D9"/>
</mask>
<g mask="url(#mask0_59_86)">
<path d="M820.257 312.895L808.345 347.625L863.831 351.192C863.831 351.192 875.491 365.81 886.996 367.633L899.283 363.663C899.283 363.663 903.793 324.869 878.55 306.508C853.307 288.147 849.992 294.285 839.57 282.22C833.343 275.009 825.016 269.926 815.756 267.684C815.756 267.684 793.668 293.164 792.662 299.505C791.655 305.846 799.973 313.53 801.983 312.103C803.994 310.676 820.257 312.895 820.257 312.895Z" fill="black" stroke="black" stroke-linecap="round" stroke-linejoin="round"/>
<path d="M783.435 339.084L811.236 339.203L820.256 312.894L799.35 304.713L776.514 307.959L783.435 339.084Z" fill="white" stroke="black" stroke-linecap="round" stroke-linejoin="round"/>
<path d="M645.346 276.062L670.042 303.233L699.899 256.324C699.899 256.324 718.319 253.137 725.466 243.93L727.894 231.254C727.894 231.254 696.091 208.622 667.828 221.895C639.564 235.168 643.357 241.041 627.794 244.364C618.472 246.352 610.004 251.203 603.574 258.238C603.574 258.238 615.273 289.871 620.363 293.768C625.453 297.666 636.186 294.109 635.899 291.661C635.613 289.212 645.346 276.062 645.346 276.062Z" fill="black" stroke="black" stroke-linecap="round" stroke-linejoin="round"/>
<path d="M650.558 320.937L664.054 296.637L645.347 276.052L628.106 290.437L619.959 312.009L650.558 320.937Z" fill="white" stroke="black" stroke-linecap="round" stroke-linejoin="round"/>
<path d="M775.978 300.3C775.978 300.3 786.155 318.752 788.305 328.673C792.218 346.666 788.565 363.967 788.565 363.967C712.051 358.383 666.864 365.879 666.864 365.879C666.864 365.879 659.088 404.919 658.754 431.823C658.269 470.637 660.98 499.299 644.157 512.723C614.284 536.557 443.967 445.994 443.967 445.994L394.745 440.278C394.745 440.278 398.681 429.323 399.274 419.908C399.564 415.062 396.585 399.003 396.585 399.003C396.585 399.003 405.697 387.29 406.44 374.448L427.45 355.103L426.991 352.312C432.042 345.865 438.121 340.295 444.984 335.825C473.206 318.175 510.967 334.072 510.967 334.072C575.117 334.161 609.176 312.412 650.916 302.342C681.34 294.974 775.978 300.3 775.978 300.3ZM591.43 396.357L552.548 409.591L601.783 452.253C601.783 452.253 588.765 410.373 591.43 396.357Z" fill="#3C3C3B"/>
<path d="M441.169 402.653C441.169 402.653 494.741 428.148 559.356 407.586C623.971 387.024 649.863 367.06 676.336 364.135C702.81 361.209 776.698 360.482 788.566 363.957C788.566 363.957 798.047 334.571 775.979 300.3C775.979 300.3 708.281 292.555 655.082 301.551C601.882 310.546 588.194 333.904 510.997 334.027C510.997 334.027 466.234 318.005 445.014 335.781C431.169 347.613 418.282 360.521 406.472 374.385C406.472 374.385 405.315 389.21 396.617 398.94C396.617 398.94 404.001 416.507 394.777 440.215L443.999 445.931C443.999 445.931 603.045 529.361 638.785 515.524C667.01 504.579 656.507 457.93 659.279 422.311C662.241 384.3 666.941 365.819 666.941 365.819" stroke="#1A1A1A" stroke-linecap="round" stroke-linejoin="round"/>
<path d="M452.621 439.623L488.105 414.55" stroke="#1A1A1A" stroke-linecap="round" stroke-linejoin="round"/>
<path d="M591.43 396.358C588.747 410.373 601.784 452.245 601.784 452.245L552.549 409.583L591.43 396.358Z" stroke="#1A1A1A" stroke-linecap="round" stroke-linejoin="round"/>
<path d="M394.779 440.189L365.369 437.403L367.246 410.711L386.779 397.872L396.618 398.914C396.618 398.914 403.767 419.635 394.779 440.189Z" fill="white" stroke="black" stroke-linecap="round" stroke-linejoin="round"/>
<path d="M167.951 241.975C167.951 241.975 189.62 210.87 218.378 209.021C247.135 207.172 262.433 255.269 246.702 279.665C230.971 304.061 215.608 319.554 208.004 310.578C200.399 301.601 196.341 295.859 196.341 295.859L189.807 287.002L181.119 284.888L186.806 276.229L167.951 241.975Z" fill="white" stroke="black" stroke-linecap="round" stroke-linejoin="round"/>
<path d="M214.63 214.544C214.63 214.544 183.424 228.949 168.333 246.355C168.333 246.355 162.013 242.854 160.863 231.768C158.759 211.553 185.742 217.187 205.866 206.309C225.991 195.431 251.409 188.905 259.55 195.077C275.1 206.878 279.67 222.369 286.625 240.324C293.58 258.279 323.393 250.202 336.434 224.889C349.475 199.577 386.983 188.056 448.502 218.798C510.022 249.541 477.93 313.282 477.93 313.282C477.93 313.282 458.744 279.948 439.748 299.174C364.085 375.713 262.502 326.779 214.63 214.544Z" fill="#21F225" stroke="black" stroke-linecap="round" stroke-linejoin="round"/>
<path d="M152.559 272.102L159.426 285.216C160.034 286.377 161.015 287.3 162.211 287.836C163.407 288.373 164.748 288.491 166.019 288.172C170.928 286.956 178.889 284.91 184.653 283.109C184.653 283.109 185.247 278.272 193.461 275.237C201.675 272.202 229.548 265.298 231.523 258.01C233.498 250.723 224.904 227.079 211.913 227.294C198.921 227.51 185.418 229.205 181.603 232.293C177.789 235.38 151.911 252.342 149.485 257.005C147.059 261.668 152.559 272.102 152.559 272.102Z" fill="#3C3C3B" stroke="black" stroke-linecap="round" stroke-linejoin="round"/>
<path d="M159.31 277.767L153.252 263.743C152.655 262.37 152.543 260.834 152.936 259.389C153.33 257.944 154.204 256.676 155.414 255.795L176.744 240.19C177.537 239.61 178.45 239.214 179.417 239.031C180.383 238.849 181.378 238.884 182.329 239.136C183.279 239.387 184.162 239.847 184.912 240.483C185.662 241.119 186.26 241.915 186.663 242.812C189.97 250.195 194.547 260.638 194.648 262.183C194.757 263.902 178.408 274.638 168.944 280.703C168.138 281.221 167.229 281.558 166.28 281.69C165.33 281.822 164.364 281.745 163.447 281.466C162.53 281.187 161.685 280.711 160.971 280.072C160.257 279.434 159.69 278.647 159.31 277.767Z" fill="#21F225" stroke="black" stroke-linecap="round" stroke-linejoin="round"/>
<path d="M284.879 232.593L215.348 249.875C213.388 250.359 211.317 250.075 209.559 249.081C207.802 248.086 206.491 246.457 205.896 244.528C205.582 243.499 205.481 242.417 205.6 241.348C205.719 240.279 206.055 239.245 206.588 238.311C207.122 237.377 207.84 236.561 208.7 235.915C209.56 235.269 210.543 234.805 211.588 234.552L280.962 217.74L284.879 232.593Z" fill="white" stroke="black" stroke-linecap="round" stroke-linejoin="round"/>
<path d="M214.793 244.674C212.984 244.566 211.605 243.011 211.713 241.201C211.822 239.392 213.377 238.013 215.186 238.121C216.996 238.23 218.375 239.785 218.267 241.594C218.158 243.404 216.603 244.783 214.793 244.674Z" fill="#1D1D1B" stroke="black" stroke-linecap="round" stroke-linejoin="round"/>
<path d="M259.779 286.335L249.194 315.231C249.194 315.231 277.136 340.81 275.552 350.469C273.969 360.129 273.396 404.851 273.396 404.851C273.396 404.851 302.449 430.791 326.426 450.587C350.404 470.383 356.062 484.309 366.385 481.593C376.707 478.878 394.779 440.188 394.779 440.188L365.369 437.402C368.507 429.935 373.069 423.151 378.8 417.427C388.508 407.592 404.211 396.421 406.463 374.385L427.473 355.04C427.473 355.04 426.49 342.408 418.278 344.485C410.066 346.563 390.134 370.974 368.179 359.378C346.224 347.781 341.476 316.989 341.476 316.989L350.177 312.592C350.177 312.592 320.538 280.759 336.53 247.572C336.53 247.572 274.884 270.993 271.759 283.176L268.586 295.374L259.779 286.335Z" fill="#1D1D1B" stroke="black" stroke-linecap="round" stroke-linejoin="round"/>
<path d="M350.187 312.593C350.187 312.593 371.552 281.958 336.539 247.573C336.539 247.573 319.108 277.283 350.187 312.593Z" fill="black" stroke="black" stroke-linecap="round" stroke-linejoin="round"/>
<path d="M168.644 386.631C170.521 392.796 175.894 397.199 175.894 397.199C204.213 410.337 212.373 401.615 212.373 401.615C212.373 401.615 294.126 475.399 312.591 479.768C331.055 484.136 318.514 443.969 318.514 443.969L288.547 418.223L285.328 424.588C285.328 424.588 235.622 400.228 225.765 388.722C215.909 377.215 205.34 369.59 188.07 366.666C170.799 363.742 135.695 383.108 131.658 389.59C131.658 389.59 139.304 393.733 146.893 388.993C154.481 384.253 166.473 381.5 166.473 381.5L168.644 386.631Z" fill="white" stroke="black" stroke-linecap="round" stroke-linejoin="round"/>
<path d="M203.555 394.307C203.555 394.307 187.726 390.834 185.402 385.048C185.402 385.048 172.797 384.348 166.465 381.499C160.133 378.651 162.433 373.935 177.479 375.712C185.709 376.703 195.967 372.759 202.326 374.706" fill="white"/>
<path d="M203.555 394.307C203.555 394.307 187.726 390.834 185.402 385.048C185.402 385.048 172.797 384.348 166.465 381.499C160.133 378.651 162.433 373.935 177.479 375.712C185.709 376.703 195.967 372.759 202.326 374.706" stroke="black" stroke-linecap="round" stroke-linejoin="round"/>
<path d="M166.465 381.5L150.463 389.217L141.528 411.184C141.528 411.184 150.835 412.193 155.175 396.196L169.794 389.575L166.465 381.5Z" fill="white" stroke="black" stroke-linecap="round" stroke-linejoin="round"/>
<path d="M172.327 393.429L159.045 399.873C156.103 407.756 146.53 414.56 146.471 413.709C146.54 412.313 146.691 410.923 146.923 409.545C146.923 409.545 152.226 406.823 155.174 396.223L169.793 389.602L172.327 393.429Z" fill="white" stroke="black" stroke-linecap="round" stroke-linejoin="round"/>
<path d="M152.434 409.314L152.104 414.821C152.104 414.821 161.075 411.149 163.236 402.758L175.873 397.234L172.305 393.447L159.023 399.89C159.023 399.89 156.145 406.11 152.434 409.314Z" fill="white" stroke="black" stroke-linecap="round" stroke-linejoin="round"/>
<path d="M235.899 295.017L251.684 307.957L259.779 286.327L249.533 274.254L235.899 295.017Z" fill="white" stroke="black" stroke-linecap="round" stroke-linejoin="round"/>
<path d="M322.444 391.332L311.126 405.262C308.295 412.848 297.705 421.387 298.051 420.385L305.269 399.412C305.269 399.412 320.735 381.272 323.11 379.609C325.485 377.946 365.475 361.886 365.475 361.886C389.946 323.396 380.034 276.718 380.034 276.718C364.598 276.382 336.456 291.32 336.456 291.32C329.569 272.991 333.436 255.363 333.436 255.363C351.222 243.534 410.795 240.235 410.795 240.235C410.795 240.235 421.066 259.734 416.855 297.238C412.643 334.742 374.628 374.842 367.91 385.345C361.191 395.848 344.084 398.654 344.084 398.654L332.54 411.889C336.615 420.736 329.758 428.947 329.758 428.947L325.293 409.4L334.871 396.535L326.225 408.148L312.587 403.47L322.444 391.332Z" fill="white" stroke="black" stroke-linecap="round" stroke-linejoin="round"/>
<path d="M320.557 393.652L312.998 404.648L317.793 430.515C317.793 430.515 321.836 428.381 322.481 425.914" fill="white"/>
<path d="M320.557 393.652L312.998 404.648L317.793 430.515C317.793 430.515 321.836 428.381 322.481 425.914" stroke="black" stroke-linecap="round" stroke-linejoin="round"/>
<path d="M327.347 392.999L317.808 407.533L324.225 431.692C324.225 431.692 328.291 427.791 328.414 423.275" fill="white"/>
<path d="M327.347 392.999L317.808 407.533L324.225 431.692C324.225 431.692 328.291 427.791 328.414 423.275" stroke="black" stroke-linecap="round" stroke-linejoin="round"/>
<path d="M334.813 396.598L325.235 409.462L329.7 429.009C329.7 429.009 336.185 421.025 332.483 411.951L343.998 398.715" fill="white"/>
<path d="M334.813 396.598L325.235 409.462L329.7 429.009C329.7 429.009 336.185 421.025 332.483 411.951L343.998 398.715" stroke="black" stroke-linecap="round" stroke-linejoin="round"/>
<path d="M365.367 437.43C365.367 437.43 350.542 478.359 360.742 481.366C370.943 484.372 380.906 470.306 394.777 440.216L365.367 437.43Z" fill="black" stroke="black" stroke-linecap="round" stroke-linejoin="round"/>
<path d="M1187.43 339.955C1187.43 339.955 1153.85 587.562 956.642 517.364C759.433 447.165 627.237 -6.24026 501.678 22.0604C376.119 50.361 340.222 648.118 160.48 590.923C-19.2615 533.728 -168.45 311.442 -201.061 294.444" stroke="url(#paint0_linear_59_86)" stroke-width="3" stroke-miterlimit="10"/>
<path d="M767.625 108.3C767.429 111.565 767.878 114.836 768.947 117.927C770.016 121.018 771.683 123.868 773.853 126.315C776.024 128.762 778.655 130.756 781.597 132.186C784.538 133.615 787.733 134.451 790.998 134.646C784.405 134.25 777.925 136.489 772.983 140.871C768.041 145.252 765.041 151.416 764.643 158.009C764.84 154.745 764.393 151.475 763.325 148.385C762.258 145.295 760.593 142.445 758.424 139.999C756.255 137.552 753.625 135.557 750.685 134.127C747.745 132.697 744.552 131.86 741.289 131.664C744.552 131.86 747.822 131.411 750.912 130.343C754.002 129.274 756.851 127.608 759.297 125.438C761.743 123.268 763.737 120.638 765.166 117.698C766.595 114.757 767.43 111.564 767.625 108.3Z" fill="#21F225"/>
<path d="M327.314 559.711C327.117 562.975 327.565 566.246 328.633 569.337C329.701 572.427 331.367 575.278 333.537 577.724C335.707 580.171 338.337 582.166 341.278 583.595C344.22 585.025 347.413 585.861 350.678 586.055C344.088 585.66 337.61 587.898 332.67 592.278C327.73 596.658 324.731 602.82 324.334 609.41C324.529 606.146 324.08 602.876 323.012 599.786C321.943 596.697 320.277 593.847 318.107 591.402C315.937 588.956 313.307 586.962 310.367 585.533C307.426 584.104 304.233 583.269 300.969 583.074C304.234 583.271 307.504 582.823 310.595 581.755C313.686 580.687 316.536 579.021 318.983 576.851C321.43 574.682 323.425 572.051 324.854 569.11C326.284 566.169 327.12 562.975 327.314 559.711Z" fill="#21F225"/>
</g>
<defs>
<linearGradient id="paint0_linear_59_86" x1="-200.458" y1="274.87" x2="1187.72" y2="358.128" gradientUnits="userSpaceOnUse">
<stop stop-color="white" stop-opacity="0"/>
<stop offset="1" stop-color="#21F225"/>
</linearGradient>
</defs>
</svg>
