<svg width="643" height="405" viewBox="0 0 643 405" fill="none" xmlns="http://www.w3.org/2000/svg">
<path d="M272 405L401.08 217.128L284.02 47H367.111L446.545 166.507H449.158L528.592 47H606.458L489.398 216.606L619 405H536.431L444.455 266.706H441.319L350.389 405H272Z" fill="#1A1A1A"/>
<path d="M328.031 156C329.621 181.91 324.321 211.99 299.621 225.9C292.761 229.76 284.421 231.46 276.891 229.16C266.801 226.09 260.121 217.05 251.121 212.04C240.521 206.14 228.171 203.76 216.121 203.83C193.731 203.95 170.761 210.55 151.981 222.71C131.091 236.25 114.311 254.97 96.7206 272.34C84.7206 284.2 72.1706 295.71 57.7806 304.62C40.8306 315.12 19.4206 321.78 1.00058 314.14" stroke="#00FF00" stroke-width="5" stroke-miterlimit="10"/>
<path d="M618.853 250.112C619.538 256.098 622.231 261.676 626.495 265.937C630.758 270.198 636.34 272.889 642.33 273.574C642.33 273.574 642.33 273.574 642.33 273.95C636.34 274.634 630.758 277.326 626.495 281.586C622.231 285.847 619.538 291.425 618.853 297.412C618.853 297.412 618.54 297.412 618.477 297.412C617.792 291.425 615.099 285.847 610.835 281.586C606.572 277.326 600.99 274.634 595 273.95C595 273.95 595 273.95 595 273.574C600.99 272.889 606.572 270.198 610.835 265.937C615.099 261.676 617.792 256.098 618.477 250.112C618.477 250.112 618.791 249.861 618.853 250.112Z" fill="#34EF3A"/>
<path d="M223.853 0.111525C224.538 6.09804 227.231 11.6763 231.495 15.937C235.758 20.1976 241.34 22.8894 247.33 23.5735C247.33 23.5735 247.33 23.5735 247.33 23.9499C241.34 24.634 235.758 27.3258 231.495 31.5864C227.231 35.8471 224.538 41.4254 223.853 47.4119C223.853 47.4119 223.54 47.4119 223.477 47.4119C222.792 41.4254 220.099 35.8471 215.835 31.5864C211.572 27.3258 205.99 24.634 200 23.9499C200 23.9499 200 23.9499 200 23.5735C205.99 22.8894 211.572 20.1976 215.835 15.937C220.099 11.6763 222.792 6.09804 223.477 0.111525C223.477 0.111525 223.791 -0.139406 223.853 0.111525Z" fill="#34EF3A"/>
</svg>
