<svg width="541" height="767" viewBox="0 0 541 767" fill="none" xmlns="http://www.w3.org/2000/svg">
<mask id="mask0_68_35" style="mask-type:alpha" maskUnits="userSpaceOnUse" x="0" y="0" width="541" height="767">
<rect width="541" height="767" fill="#D9D9D9"/>
</mask>
<g mask="url(#mask0_68_35)">
<path d="M218.688 361.456C218.688 361.456 140.398 378.589 129.628 381.796C118.858 385.004 120.256 412.25 127.348 441.537C134.441 470.824 141.5 513.162 141.5 513.162L179.503 451.241L175.664 429.242L213.608 434.287L244.876 409.933L253.443 402.286C253.443 402.286 243.017 367.182 218.688 361.456Z" fill="#21F225" stroke="black" stroke-linecap="round" stroke-linejoin="round"/>
<path d="M116.15 606.116L101.44 639.008C101.44 639.008 123.677 647.722 138.468 640.581L147.068 618.502C147.068 618.502 127.593 618.054 116.15 606.116Z" fill="white" stroke="black" stroke-linecap="round" stroke-linejoin="round"/>
<path d="M92.7382 636.942C92.7382 636.942 117.544 648.091 143.55 637.823L138.158 659.857C138.158 659.857 150.36 675.093 153.757 690.212L153.458 720.12C153.458 720.12 134.257 726.208 127.677 725.01L123.265 708.346C123.265 708.346 110.172 712.826 108.858 730.037C108.858 730.037 67.123 739.387 45.7035 730.32C45.7035 730.32 47.1489 715.602 49.1655 711.303C51.1822 707.004 78.254 697.202 78.254 697.202L92.7382 636.942Z" fill="#1D1D1B" stroke="black" stroke-linecap="round" stroke-linejoin="round"/>
<path d="M114.434 641.959C114.434 641.959 108.033 682.976 115.925 685.124C123.817 687.272 127.774 641.751 127.774 641.751L114.434 641.959Z" fill="#21F225" stroke="black" stroke-linecap="round" stroke-linejoin="round"/>
<path d="M145.426 535.366L156.034 569.812C156.034 569.812 178.428 561.691 184.941 546.598L176.867 524.309C176.867 524.309 161.919 536.799 145.426 535.366Z" fill="#1A1A1A"/>
<path d="M148.12 574.001C148.12 574.001 174.13 566.014 186.956 541.169L197.432 561.406C197.432 561.406 216.645 564.904 229.16 573.94L248.643 596.632C248.643 596.632 238.227 613.861 232.478 617.292L218.068 607.638C218.068 607.638 211.175 619.649 221.436 633.485C221.436 633.485 196.317 668.061 174.074 675.352C174.074 675.352 165.471 663.324 164.149 658.752C162.827 654.18 176.745 628.969 176.745 628.969L148.12 574.001Z" fill="black" stroke="black" stroke-linecap="round" stroke-linejoin="round"/>
<path d="M167.707 563.484C167.707 563.484 189.915 598.557 197.263 594.957C204.612 591.357 177.62 554.534 177.62 554.534L167.707 563.484Z" fill="#21F225" stroke="black" stroke-linecap="round" stroke-linejoin="round"/>
<path d="M244.927 410.006C244.927 410.006 160.917 446.373 155.492 463.651C150.067 480.93 116.149 606.115 116.149 606.115C116.149 606.115 129.694 618.917 147.063 618.522C147.063 618.522 209.454 561.083 201.35 493.468C201.35 493.468 231.995 505.052 293.408 482.859C293.408 482.859 272.42 419.028 244.927 410.006Z" fill="#21F225" stroke="black" stroke-linecap="round" stroke-linejoin="round"/>
<path d="M333.932 117.562C333.932 117.562 338.276 83.2432 359.388 79.1774C380.501 75.1117 375.459 82.8145 400.488 83.7722C407.361 83.8085 414.057 85.9507 419.675 89.9101C425.292 93.8695 429.562 99.4561 431.909 105.918C431.909 105.918 444.664 104.787 445.177 114.61C445.689 124.433 443.44 131.389 446.781 142.333C450.122 153.278 458.158 184.16 458.158 184.16C458.158 184.16 492.08 181.652 495.12 203.443C498.16 225.234 486.638 263.017 460.718 255.348C460.718 255.348 444.784 262.449 434.205 256.108L435.293 250.133C435.293 250.133 413.059 249.329 399.648 221.319C399.648 221.319 332.422 251.89 318.284 228.33C318.284 228.33 310.028 239.214 299.885 231.048C289.743 222.883 300.394 210.217 300.394 210.217C300.394 210.217 286.845 204.214 298.564 193.961C310.282 183.707 316.784 197.278 331.518 182.175L333.932 117.562Z" fill="#1A1A1A"/>
<path d="M368.046 218.201L330.934 222.493C330.934 222.493 301.051 274.509 267.207 279.689L204.489 246.322C204.489 246.322 201.248 263.433 191.966 263.292L259.986 318.778L299.584 297.154L379.801 330.337L400.72 307.342C400.72 307.342 426.301 302.395 476.453 350.904L449.979 405.215C449.979 405.215 471.784 419.061 469.586 436.99C469.586 436.99 500.518 395.647 513.456 341.006C513.456 341.006 443.806 290.224 435.3 250.092C435.3 250.092 411.501 244.441 399.655 221.277L368.046 218.201Z" fill="#3C3C3B" stroke="black" stroke-linecap="round" stroke-linejoin="round"/>
<path d="M349.586 220.344C349.586 220.344 330.046 256.103 309.56 263.275C289.075 270.447 295.681 285.857 301.063 300.646C306.444 315.435 308.545 343.416 273.64 350.516C238.736 357.616 201.091 338.752 192.116 340.487C183.141 342.222 180.157 369.298 180.157 369.298L218.671 361.558C218.671 361.558 235.272 372.51 240.683 398.395C246.094 424.279 288.32 467.265 293.39 482.96C293.39 482.96 253.092 497.51 236.995 496.777C236.995 496.777 275.326 555.185 298.478 548.185C310.388 544.348 299.061 526.949 339.446 474.919C379.832 422.89 370.454 405.239 366.273 378.574C362.091 351.909 381.653 324.189 402.904 311.089C402.904 311.089 370.86 293.517 413.288 238.428L409.19 234.627C409.19 234.627 386.323 267.75 383.45 270.889C380.578 274.027 364.11 282.914 342.607 278.1L330.732 262.902C330.732 262.902 350.73 228.88 354.499 219.9L349.586 220.344Z" fill="#1D1D1B" stroke="black" stroke-linecap="round" stroke-linejoin="round"/>
<path d="M191.969 263.293C187.812 261.055 184.059 258.137 180.865 254.659C177.506 250.135 176.738 237.692 180.497 230.948C184.255 224.205 182.197 212.301 183.818 207.533C184.2 206.224 185.03 205.092 186.162 204.334C187.294 203.577 188.657 203.241 190.011 203.387L189.065 228.805C189.065 228.805 200.734 223.878 206.105 214.708C211.477 205.537 207.285 182.49 218.752 176.376L215.035 215.747L204.491 246.322C204.491 246.322 202.795 261.727 191.969 263.293Z" fill="white" stroke="black" stroke-linecap="round" stroke-linejoin="round"/>
<path d="M213.261 182.407L210.719 177.759C210.719 177.759 205.491 184.758 205.794 199.753L203.367 212.284L194.843 225.672C194.843 225.672 204.933 218.616 207.341 211.94C209.748 205.264 209.814 188.475 213.261 182.407Z" fill="white" stroke="black" stroke-linecap="round" stroke-linejoin="round"/>
<path d="M207.035 186.964L203.465 181.983C201.606 187.286 201.033 192.955 201.793 198.522C203.379 206.239 200.418 216.873 200.418 216.873L203.35 212.26L205.777 199.729C205.777 199.729 206.642 188.546 207.035 186.964Z" fill="white" stroke="black" stroke-linecap="round" stroke-linejoin="round"/>
<path d="M201.533 190.755L198.926 188.188C198.14 193.388 198.215 198.682 199.148 203.858C200.075 207.213 200.717 210.641 201.068 214.105C202.011 210.653 202.408 207.075 202.245 203.501C201.792 198.523 200.373 193.682 201.533 190.755Z" fill="white" stroke="black" stroke-linecap="round" stroke-linejoin="round"/>
<path d="M449.98 405.215L445.091 407.715L428.112 389.538L409.859 389.96L390.275 397.694C390.275 397.694 394.634 402.128 411.22 397.531L426.231 399.637L402.208 413.027L395.345 424.646L390.973 427.637C395.683 429.591 400.97 429.622 405.703 427.724C410.224 425.869 425.263 418.396 425.263 418.396L426.864 421.094L414.072 433.914C414.072 433.914 409.682 440.334 409.415 442.607C412.713 441.928 415.66 440.089 417.721 437.424L432.086 425.957C432.086 425.957 447.329 446.664 469.172 430.198C469.333 430.227 468.835 417.687 449.98 405.215Z" fill="white" stroke="black" stroke-linecap="round" stroke-linejoin="round"/>
<path d="M391.01 427.666L410.66 416.471L427.048 408.825" fill="white"/>
<path d="M391.01 427.666L410.66 416.471L427.048 408.825" stroke="black" stroke-linecap="round" stroke-linejoin="round"/>
<path d="M347.217 110.879C347.217 110.879 314.648 166.508 340.366 204.124C340.366 204.124 380.274 217.561 406.415 181.393C406.415 181.393 425.547 189.584 429.867 155.972C434.187 122.36 410.168 154.918 410.168 154.918L417.881 120.479C417.881 120.479 394.517 75.6757 347.217 110.879Z" fill="white" stroke="black" stroke-linecap="round" stroke-linejoin="round"/>
<path d="M333.931 117.563L343.607 117.839L347.22 110.859C347.22 110.859 372.072 126.117 409.862 120.861C409.862 120.861 405.865 142.815 411.492 148.903L410.768 152.077C410.768 152.077 438.601 148.544 446.788 142.293C444.855 135.336 444.33 128.063 445.245 120.9C446.594 107.859 440.422 104.768 431.909 105.918C431.909 105.918 425.368 85.8957 405.159 84.3091C384.95 82.7224 371.1 70.9108 354.372 79.0389C337.645 87.1669 337.005 103.204 333.931 117.563Z" fill="#1A1A1A"/>
<path d="M370.392 205.321L365.54 231.973C365.54 231.973 377.473 245.926 399.656 221.278L406.415 181.393C406.415 181.393 395.453 198.752 370.392 205.321Z" fill="white" stroke="black" stroke-linecap="round" stroke-linejoin="round"/>
<path d="M343.705 117.877C343.705 117.877 325.513 118.08 321.538 120.265C317.564 122.45 313.342 140.701 313.576 151.708C313.811 162.715 362.574 174.961 367.932 174.827C373.29 174.694 398.879 169.476 398.879 169.476C398.879 169.476 406.255 151.13 406.733 141.152C406.733 141.152 360.128 136.581 341.355 122.973L343.705 117.877Z" fill="#3C3C3B" stroke="black" stroke-linecap="round" stroke-linejoin="round"/>
<path d="M322.884 125.866C322.884 125.866 315.335 142.633 318.335 153.264C318.335 153.264 344.5 168.092 366.006 169.099C366.006 169.099 371.943 153.608 372.743 143.584C372.682 143.573 345.256 131.424 322.884 125.866Z" fill="#21F225" stroke="black" stroke-linecap="round" stroke-linejoin="round"/>
<path d="M391.048 152.859L388.49 166.915C388.49 166.915 442.321 162.696 452.658 154.743L451.19 139.83L445.691 137.866L446.776 142.248C446.776 142.248 418.689 154.753 391.048 152.859Z" fill="#21F225" stroke="black" stroke-linecap="round" stroke-linejoin="round"/>
<path d="M396.209 163.466C397.36 163.675 398.541 162.485 398.847 160.807C399.152 159.13 398.466 157.6 397.315 157.39C396.163 157.18 394.982 158.37 394.676 160.048C394.371 161.726 395.057 163.256 396.209 163.466Z" fill="white" stroke="black" stroke-linecap="round" stroke-linejoin="round"/>
<path d="M293.408 482.858C293.408 482.858 255.021 497.024 237.094 496.69C237.094 496.69 268.496 547.895 295.318 548.656C322.14 549.417 293.408 482.858 293.408 482.858Z" fill="black" stroke="black" stroke-linecap="round" stroke-linejoin="round"/>
<path d="M218.688 361.456L180.175 369.196C180.175 369.196 182.03 343.609 192.134 340.385C202.237 337.161 218.688 361.456 218.688 361.456Z" fill="black" stroke="black" stroke-linecap="round" stroke-linejoin="round"/>
</g>
</svg>
