<svg width="801" height="584" viewBox="0 0 801 584" fill="none" xmlns="http://www.w3.org/2000/svg">
<path d="M83.5369 159.13L79.3529 163.664V438.223L83.5369 442.763V159.13Z" fill="#1D1D1B" stroke="black" stroke-linecap="round" stroke-linejoin="round"/>
<path d="M355.281 503.531C354.79 504.559 354.067 505.459 353.17 506.16C344.533 513.454 314.059 518.85 277.789 518.85C241.519 518.85 211.051 513.454 202.408 506.16C201.512 505.459 200.792 504.559 200.303 503.531C200.076 503.029 199.957 502.484 199.953 501.933V505.124C199.956 505.474 200.007 505.823 200.103 506.16C202.57 515.022 236.404 522.041 277.789 522.041C319.173 522.041 353.014 515.047 355.449 506.16V502.969C355.407 503.16 355.35 503.348 355.281 503.531Z" fill="#1D1D1B" stroke="black" stroke-linecap="round" stroke-linejoin="round"/>
<path d="M355.118 500.003C354.8 500.591 354.398 501.13 353.925 501.602C352.345 503.219 349.698 504.724 346.151 506.161C332.949 511.419 307.289 514.985 277.789 514.985C248.288 514.985 222.628 511.419 209.427 506.161C205.88 504.749 203.238 503.219 201.652 501.602C201.183 501.126 200.782 500.589 200.459 500.003C200.137 499.411 199.963 498.748 199.953 498.074V501.933C199.957 502.485 200.076 503.029 200.303 503.532C200.792 504.559 201.512 505.459 202.408 506.161C211.051 513.455 241.525 518.85 277.789 518.85C314.052 518.85 344.533 513.455 353.17 506.161C354.067 505.46 354.79 504.56 355.281 503.532C355.359 503.349 355.424 503.162 355.474 502.97V499.11C355.388 499.42 355.269 499.72 355.118 500.003Z" fill="#21F225" stroke="black" stroke-linecap="round" stroke-linejoin="round"/>
<path d="M355.243 496.393C354.897 497.116 354.423 497.77 353.844 498.323C353.236 498.917 352.573 499.452 351.865 499.922C348.374 502.27 342.585 504.387 335.079 506.166C320.853 509.526 300.457 511.637 277.789 511.637C255.12 511.637 234.7 509.526 220.499 506.166C213.005 504.393 207.21 502.276 203.719 499.922C203.008 499.455 202.345 498.92 201.739 498.323C201.158 497.77 200.682 497.116 200.334 496.393C200.088 495.867 199.958 495.294 199.953 494.713V498.073C199.963 498.748 200.137 499.41 200.459 500.003C200.782 500.588 201.183 501.126 201.652 501.601C203.238 503.219 205.88 504.724 209.427 506.16C222.628 511.418 248.295 514.984 277.789 514.984C307.283 514.984 332.949 511.418 346.151 506.16C349.698 504.749 352.345 503.219 353.925 501.601C354.398 501.129 354.8 500.591 355.118 500.003C355.269 499.719 355.388 499.419 355.474 499.11V495.75C355.418 495.971 355.34 496.187 355.243 496.393Z" fill="#1D1D1B" stroke="black" stroke-linecap="round" stroke-linejoin="round"/>
<path d="M277.789 477.803C234.8 477.803 199.953 485.372 199.953 494.714C199.958 495.295 200.088 495.868 200.334 496.394C200.682 497.117 201.158 497.771 201.739 498.324C202.345 498.921 203.008 499.456 203.719 499.922C207.21 502.27 212.993 504.387 220.499 506.167C234.725 509.527 255.126 511.638 277.789 511.638C300.451 511.638 320.878 509.527 335.079 506.167C342.572 504.394 348.374 502.277 351.865 499.922C352.573 499.453 353.236 498.918 353.844 498.324C354.423 497.77 354.897 497.117 355.243 496.394C355.339 496.193 355.416 495.984 355.474 495.77C355.573 495.433 355.624 495.084 355.624 494.733C355.624 485.372 320.778 477.803 277.789 477.803Z" fill="#0A0A0A" stroke="black" stroke-linecap="round" stroke-linejoin="round"/>
<path d="M271.606 475.105H251.835V489.625H271.606V475.105Z" fill="#1D1D1B" stroke="black" stroke-linecap="round" stroke-linejoin="round"/>
<path d="M83.5371 159.13V442.763L459.662 417.977V197.123L83.5371 159.13Z" fill="#3C3C3B" stroke="black" stroke-miterlimit="10"/>
<path d="M236.704 432.666C236.704 432.878 236.704 433.334 236.704 433.865C236.71 435.614 237.023 437.35 237.628 438.992L251.098 475.261C251.535 476.445 252.358 477.448 253.435 478.107C254.511 478.766 255.778 479.044 257.031 478.896L280.942 476.104C281.971 475.985 282.93 475.524 283.666 474.797C284.403 474.069 284.875 473.116 285.008 472.089L285.407 468.967L258.904 475.105C257.678 475.231 256.445 474.949 255.395 474.305C254.344 473.661 253.535 472.689 253.09 471.539L240.788 439.885C239.963 437.762 239.54 435.505 239.539 433.228V432.459L236.704 432.666Z" fill="#0A0A0A" stroke="black" stroke-linecap="round" stroke-linejoin="round"/>
<path d="M239.546 432.478V433.983C239.545 435.773 239.877 437.548 240.526 439.216L252.91 471.065C253.409 472.355 254.318 473.445 255.497 474.168C256.675 474.891 258.059 475.208 259.435 475.068L281.992 472.801C282.577 472.742 283.14 472.548 283.637 472.234C284.134 471.921 284.552 471.496 284.858 470.994C285.164 470.492 285.349 469.925 285.398 469.34C285.448 468.754 285.362 468.164 285.145 467.618L272.262 435.145C271.825 434.037 271.6 432.857 271.6 431.666V430.417L239.546 432.478Z" fill="#1D1D1B" stroke="black" stroke-linecap="round" stroke-linejoin="round"/>
<path d="M95.9587 174.855V425.709L450.576 406.175V206.591L95.9587 174.855Z" fill="white" stroke="black" stroke-linecap="round" stroke-linejoin="round"/>
<path d="M532.121 185.409C531.807 188.164 530.569 190.732 528.608 192.693C526.647 194.654 524.079 195.892 521.324 196.206C521.205 196.206 521.205 196.35 521.324 196.363C524.082 196.677 526.652 197.918 528.613 199.883C530.574 201.848 531.811 204.42 532.121 207.178C532.121 207.291 532.258 207.291 532.271 207.178C532.585 204.422 533.825 201.854 535.787 199.893C537.749 197.932 540.318 196.694 543.074 196.381C543.187 196.381 543.187 196.238 543.074 196.225C540.318 195.912 537.749 194.675 535.787 192.714C533.825 190.752 532.585 188.184 532.271 185.428C532.258 185.322 532.134 185.322 532.121 185.409Z" fill="#34EF3A"/>
<path d="M170.471 466.924C170.158 469.68 168.919 472.248 166.958 474.21C164.998 476.172 162.43 477.412 159.674 477.727C159.555 477.727 159.555 477.865 159.674 477.877C162.429 478.191 164.997 479.43 166.958 481.39C168.919 483.351 170.157 485.919 170.471 488.674C170.471 488.793 170.609 488.793 170.627 488.674C170.939 485.918 172.177 483.349 174.138 481.388C176.1 479.427 178.668 478.189 181.425 477.877C181.537 477.877 181.537 477.74 181.425 477.727C178.668 477.414 176.099 476.175 174.138 474.213C172.176 472.25 170.939 469.681 170.627 466.924C170.602 466.811 170.484 466.811 170.471 466.924Z" fill="#34EF3A"/>
<path d="M79.3541 324.287C79.3541 324.287 -17.8775 399.743 5.15334 405.001C28.1842 410.259 147.728 389.389 170.547 405.001C193.365 420.613 103.971 603.286 236.704 580.567C369.438 557.849 756.659 344.407 770.841 286.256" stroke="#34EF3A" stroke-width="2" stroke-miterlimit="10"/>
<path d="M758.182 41.603L751.969 47.7604L737.562 39.867L743.863 33.7533L752.137 31.8799L758.182 41.603Z" fill="#21F225" stroke="black" stroke-width="1.92" stroke-linecap="round" stroke-linejoin="round"/>
<path d="M736.114 37.887C736.114 37.887 736.67 15.4494 737.032 13.9194C737.032 13.9194 778.572 15.8365 794.315 28.3948C810.059 40.9532 787.865 44.5314 787.727 44.0069C787.59 43.4823 778.51 39.136 778.51 39.136C778.51 39.136 761.405 50.2579 759.039 47.4665C756.672 44.6751 755.916 38.0118 754.105 36.969C752.294 35.9261 744.488 34.0839 741.303 38.9861C740.409 39.1737 739.486 39.1728 738.593 38.9836C737.699 38.7943 736.855 38.4209 736.114 37.887Z" fill="black" stroke="black" stroke-width="1.92" stroke-linecap="round" stroke-linejoin="round"/>
<path d="M715.581 68.3057L719.34 76.2053L707.132 87.1962L703.441 79.2278L704.409 70.7973L715.581 68.3057Z" fill="#21F225" stroke="black" stroke-width="1.92" stroke-linecap="round" stroke-linejoin="round"/>
<path d="M624.188 184.927C624.188 184.927 644.078 210.331 651.178 223.677C658.047 236.541 654.656 264.33 654.656 264.33C654.656 264.33 688.772 237.883 720.027 211.949C743.408 192.54 765.502 174.436 768.811 162.378C773.345 145.872 741.515 97.5627 741.515 97.5627L758.208 49.2904C758.208 49.2904 749.553 44.2945 746.486 43.0081C743.545 41.7591 734.303 39.1675 734.303 39.1675L715.774 75.5248C715.774 75.5248 710.847 78.9094 709.492 80.4644C707.057 83.262 704.796 87.902 704.796 87.902L706.57 96.245L693.555 127.713L651.359 168.017C651.359 168.017 633.649 171.239 624.188 184.927Z" fill="#3C3C3B" stroke="black" stroke-width="1.92" stroke-linecap="round" stroke-linejoin="round"/>
<path d="M654.656 264.331C654.656 264.331 757.845 185.072 768.23 165.8C778.615 146.529 723.779 71.1602 723.779 71.1602C723.779 71.1602 707.131 78.3105 704.814 87.9025L719.283 156.04L673.309 183.748C673.309 183.748 657.191 173.962 642.94 176.772" stroke="black" stroke-width="1.92" stroke-linecap="round" stroke-linejoin="round"/>
<path d="M624.188 184.928C624.188 184.928 630.839 173.288 651.347 168.017L693.543 127.713C693.543 127.713 699.063 113.669 706.557 96.2456" stroke="black" stroke-width="1.92" stroke-linecap="round" stroke-linejoin="round"/>
<path d="M639.251 122.916C639.251 122.916 646.432 122.916 647.881 124.053C649.33 125.189 650.916 128.961 652.252 128.474C653.589 127.987 651.034 122.741 651.034 122.741L647.244 120.737L640.999 120.768L639.251 122.916Z" fill="white" stroke="black" stroke-width="1.92" stroke-linecap="round" stroke-linejoin="round"/>
<path d="M638.089 124.39L646.107 125.558C646.107 125.558 647.599 131.734 648.605 131.528C649.61 131.322 648.848 125.083 648.848 125.083C648.848 125.083 647.087 122.435 639.263 122.916L638.089 124.39Z" fill="white" stroke="black" stroke-width="1.92" stroke-linecap="round" stroke-linejoin="round"/>
<path d="M635.423 127.763L640.95 120.769L647.194 120.738C647.194 120.738 656.168 126.358 654.332 121.518C652.496 116.678 639.132 114.911 639.132 114.911L627.099 121.287L572.644 142.975L536.274 172.326L538.041 178.14L563.882 196.456L586.532 160.148L628.878 132.459L637.047 133.621L649.655 129.786C649.655 129.786 650.854 125.146 638.008 127.669L635.423 127.763Z" fill="white" stroke="black" stroke-width="1.92" stroke-linecap="round" stroke-linejoin="round"/>
<path d="M501.615 301.586L494.565 311.978L434.415 331.961L416.817 327.334C416.817 327.334 399.587 331.555 395.584 331.624C391.581 331.693 399.644 337.569 404.558 336.076C409.473 334.584 410.853 335.452 410.853 335.452C410.853 335.452 385.43 355.435 383.238 359.807C381.046 364.178 408.18 347.411 408.18 347.411C408.18 347.411 383.519 365.596 383.676 368.88C383.832 372.165 410.591 354.786 410.591 354.786C410.591 354.786 390.095 369.574 390.888 371.553C391.681 373.533 414.431 360.175 414.431 360.175C414.431 360.175 402.366 371.06 402.984 373.096C403.603 375.131 431.348 358.545 435.901 349.753C435.901 349.753 507.46 340.585 514.785 337.194C522.11 333.803 536.33 306.514 536.33 306.514L501.615 301.586Z" fill="white" stroke="black" stroke-width="1.92" stroke-linecap="round" stroke-linejoin="round"/>
<path d="M489.088 223.346L495.214 221.473C495.214 221.473 508.328 237.946 499.804 247.57L488.564 247.457L482.525 235.043L480.97 222.79L489.088 223.346Z" fill="white" stroke="black" stroke-width="1.92" stroke-linecap="round" stroke-linejoin="round"/>
<path d="M429.138 234.599C429.138 234.599 440.853 253.958 446.773 260.384L450.158 258.948C456.705 261.193 463.559 262.416 470.478 262.576C482.343 262.732 491.361 251.398 488.151 240.001C488.032 239.589 487.908 239.177 487.764 238.752C484.354 228.935 481.419 224.907 481.419 224.907L456.615 210.856L432.485 227.162L429.138 234.599Z" fill="white" stroke="black" stroke-width="1.92" stroke-linecap="round" stroke-linejoin="round"/>
<path d="M475.749 196.155C475.749 196.155 472.202 188.318 464.971 191.946C457.739 195.574 434.758 214.983 423.174 216.813C411.59 218.643 422.194 224.744 422.194 224.744C422.194 224.744 410.666 230.508 415.949 233.986C421.232 237.465 441.421 233.187 451.063 226.786C451.063 226.786 462.928 236.684 468.874 233.599C474.819 230.514 471.303 223.945 474.775 225.437C478.247 226.93 482.094 233.668 490.812 229.04C490.824 229.034 489.088 204.38 475.749 196.155Z" fill="#1A1A1A"/>
<path d="M449.809 238.958C449.809 238.958 445.962 230.79 442.259 231.102C438.555 231.414 434.727 236.448 430.699 237.103L429.138 234.605C429.138 234.605 425.348 239.408 426.116 241.418C426.884 243.429 431.486 258.841 444.607 257.699C457.727 256.556 455.073 248.225 455.073 248.225L449.809 238.958Z" fill="#3C3C3B" stroke="black" stroke-width="1.92" stroke-linecap="round" stroke-linejoin="round"/>
<path d="M476.479 198.436C476.479 198.436 471.939 217.894 447.928 240.794C447.455 241.295 447.088 241.885 446.846 242.53C446.605 243.175 446.496 243.861 446.524 244.549C446.553 245.237 446.719 245.912 447.013 246.535C447.306 247.158 447.721 247.716 448.234 248.175C449.172 249.028 450.393 249.503 451.66 249.511C452.928 249.52 454.154 249.059 455.103 248.219C461.685 242.412 475.905 228.236 483.898 208.065C483.898 208.065 484.11 199.054 475.78 196.156L476.479 198.436Z" fill="#21F225" stroke="black" stroke-width="1.92" stroke-linecap="round" stroke-linejoin="round"/>
<path d="M452.506 246.127C453.578 246.127 454.448 245.257 454.448 244.185C454.448 243.112 453.578 242.243 452.506 242.243C451.433 242.243 450.564 243.112 450.564 244.185C450.564 245.257 451.433 246.127 452.506 246.127Z" fill="white" stroke="black" stroke-width="1.92" stroke-linecap="round" stroke-linejoin="round"/>
<path d="M426.115 241.412C427.924 242.453 429.935 243.092 432.013 243.286C434.091 243.48 436.186 243.224 438.155 242.536C444.694 240.131 450.964 257.773 445.537 257.592C440.11 257.411 435.014 259.94 426.115 241.412Z" fill="#21F225" stroke="black" stroke-width="1.92" stroke-linecap="round" stroke-linejoin="round"/>
<path d="M495.214 221.484C495.214 221.484 503.719 234.599 499.804 247.581C498.892 250.598 502.789 264.13 502.47 271.899C501.914 285.263 496.587 299.145 496.587 299.145C496.587 299.145 524.633 314.576 544.829 307.344L552.366 288.123C552.366 288.123 594.419 278.556 618.986 277.507C643.553 276.457 672.441 277.719 672.866 252.702L654.656 264.33C654.656 264.33 659.439 226.049 649.579 215.208C639.718 204.367 624.188 184.927 624.188 184.927L628.665 179.582C628.665 179.582 619.922 170.97 617.106 176.291C614.29 181.611 599.827 206.641 599.827 206.641C599.827 206.641 591.758 205.573 586.713 207.571L563.869 196.455C563.869 196.455 561.459 166.924 534.443 162.939C534.443 162.939 523.478 184.796 512.381 189.855C501.284 194.913 495.214 221.484 495.214 221.484Z" fill="#1D1D1B" stroke="black" stroke-width="1.92" stroke-linecap="round" stroke-linejoin="round"/>
<path d="M624.188 184.927C624.188 184.927 618.512 180.418 617.637 176.884C616.763 173.349 624.619 174.548 628.666 179.582L624.188 184.927Z" fill="black" stroke="black" stroke-width="1.92" stroke-linecap="round" stroke-linejoin="round"/>
<path d="M672.866 252.703L654.656 264.33C654.656 264.33 655.081 268.346 660.708 271.98C660.708 271.98 672.954 268.177 672.866 252.703Z" fill="black" stroke="black" stroke-width="1.92" stroke-linecap="round" stroke-linejoin="round"/>
<path d="M715.774 75.5248C721.906 62.1547 728.476 48.8469 734.315 39.1675C734.315 39.1675 750.551 42.9894 758.22 49.2904L741.527 97.5627" stroke="black" stroke-width="1.92" stroke-linecap="round" stroke-linejoin="round"/>
<path d="M704.783 87.9016C704.783 87.9016 683.788 79.9645 682.464 79.1152C682.464 79.1152 698.001 40.541 715.056 29.8312C732.11 19.1213 728.17 41.2529 727.601 41.2029C727.033 41.153 719.958 48.297 719.958 48.297C719.958 48.297 724.804 68.1118 721.388 69.4232C717.972 70.7346 711.434 69.2421 709.854 70.6159C708.274 71.9898 703.946 78.7342 707.524 83.3616C707.407 84.267 707.102 85.1381 706.631 85.9197C706.159 86.7012 705.529 87.3761 704.783 87.9016Z" fill="black" stroke="black" stroke-width="1.92" stroke-linecap="round" stroke-linejoin="round"/>
<path d="M362.124 246.901C363.185 246.44 364.059 245.634 364.603 244.613C365.147 243.593 365.33 242.418 365.121 241.28C365.121 241.237 365.159 241.218 365.184 241.28C365.642 242.343 366.448 243.219 367.469 243.764C368.49 244.309 369.666 244.49 370.804 244.278C370.854 244.278 370.867 244.322 370.804 244.34C369.742 244.799 368.867 245.605 368.322 246.626C367.778 247.647 367.596 248.823 367.807 249.961C367.807 250.004 367.763 250.023 367.744 249.961C367.286 248.898 366.481 248.022 365.459 247.477C364.438 246.932 363.262 246.751 362.124 246.963C362.093 246.969 362.074 246.919 362.124 246.901Z" fill="#34EF3A"/>
<path style="mix-blend-mode:multiply" d="M96.3274 174.855L699.832 0L699.906 539.445L96.3274 425.708V174.855Z" fill="url(#paint0_linear_2_4504)"/>
<path fill-rule="evenodd" clip-rule="evenodd" d="M301.119 268.495C281.416 266.359 264.899 281.316 264.899 301.98C264.899 322.644 281.391 340.11 301.119 340.978C320.14 341.809 335.103 326.734 335.103 307.331C335.103 287.929 320.153 270.562 301.119 268.495ZM259.278 301.549C259.278 277.675 278.375 260.489 301.119 263.068C322.944 265.566 340.024 285.487 340.024 307.706C340.024 329.925 322.944 347.261 301.119 346.424C278.412 345.512 259.316 325.416 259.316 301.549H259.278Z" fill="#1A1A1A"/>
<path d="M301.213 315.213C302.085 315.308 302.968 315.199 303.792 314.894C304.417 314.651 304.958 314.23 305.347 313.683C305.732 313.121 305.99 312.482 306.102 311.81C306.244 311.077 306.313 310.332 306.308 309.586V308.812L311.691 309.205V309.974C311.691 313.502 310.805 316.168 309.025 317.954C307.245 319.74 304.654 320.546 301.2 320.334C297.747 320.121 295.243 318.91 293.282 316.693C291.321 314.476 290.334 311.335 290.334 307.326V300.588C290.304 298.844 290.562 297.108 291.096 295.448C291.54 294.068 292.286 292.805 293.282 291.751C294.239 290.786 295.415 290.066 296.71 289.653C298.161 289.199 299.689 289.048 301.2 289.21C302.772 289.33 304.309 289.73 305.74 290.39C307.003 290.98 308.127 291.832 309.037 292.888C309.935 293.96 310.612 295.2 311.03 296.535C311.493 298.037 311.718 299.603 311.698 301.175V301.937L306.315 301.512V300.744C306.314 300.021 306.232 299.3 306.071 298.596C305.914 297.89 305.637 297.216 305.253 296.603C304.849 295.99 304.317 295.472 303.692 295.086C302.931 294.642 302.074 294.387 301.194 294.343C300.39 294.246 299.574 294.36 298.827 294.674C298.171 294.969 297.599 295.422 297.16 295.991C296.698 296.605 296.366 297.306 296.186 298.052C295.975 298.881 295.871 299.733 295.873 300.588V308.15C295.868 309.059 295.965 309.966 296.161 310.854C296.338 311.634 296.649 312.378 297.079 313.052C297.496 313.68 298.06 314.196 298.721 314.557C299.491 314.962 300.343 315.187 301.213 315.213Z" fill="#1A1A1A"/>
<path d="M333.28 254.12C333.28 259.934 328.84 264.111 323.288 263.487C328.815 264.111 333.28 269.344 333.28 275.158C333.28 269.344 337.682 265.167 343.072 265.791C337.682 265.148 333.28 259.934 333.28 254.12Z" fill="white"/>
<defs>
<linearGradient id="paint0_linear_2_4504" x1="764.809" y1="269.719" x2="397.077" y2="269.719" gradientUnits="userSpaceOnUse">
<stop stop-color="white" stop-opacity="0"/>
<stop offset="1" stop-color="#21F225"/>
</linearGradient>
</defs>
</svg>
