<svg width="792" height="816" viewBox="0 0 792 816" fill="none" xmlns="http://www.w3.org/2000/svg">
<path d="M331.622 476.943C321.849 505.682 287.345 693.133 134.871 686.065C105.91 684.722 78.2911 671.85 58.3302 654.679C38.3693 637.509 25.3904 616.206 16.3708 594.488C-9.6354 531.891 -3.3101 461.763 40.4649 408.823C51.0296 396.047 63.9988 384.092 81.1979 376.781C95.7219 370.611 112.477 368.061 128.961 365.589C192.388 356.067 255.815 346.555 319.251 337.033C376.44 328.448 435.241 319.371 482.666 294.417C536.562 266.064 570.487 219.528 588.854 170.47C599.428 142.224 603.977 108.337 578.975 84.3786C556.909 63.2395 517.325 57.0977 484.907 63.7031C452.479 70.2988 426.048 87.3336 402.909 105.605C359.917 139.558 323.259 182.899 325.229 231.966C326.591 265.813 346.571 298.908 374.296 326.333C402.021 353.759 437.211 376.134 473.144 397.042C497.364 411.131 522.434 424.921 541.612 443.105C576.541 476.219 587.888 520.042 589.974 561.596C592.62 614.14 581.254 668.614 541.062 708.98C500.86 749.337 426.81 771.509 362.746 751.288C339.425 743.919 317.948 730.863 306.736 713.307C297.842 699.391 295.901 683.679 296.374 668.556C297.774 623.797 318.768 581.76 342.679 542.05C349.951 529.97 357.647 517.647 358.739 504.079C359.83 490.521 352.684 475.205 336.972 468.291" stroke="#21F225" stroke-width="0.8162" stroke-miterlimit="10" stroke-linecap="round" stroke-linejoin="round"/>
<path d="M330.22 476.13C316.768 503.266 281.656 686.245 133.653 683.986C105.281 683.551 78.1644 672.591 58.667 656.338C39.2083 640.114 26.7122 619.612 17.905 598.869C-7.49274 539.064 -2.55804 471.359 40.2029 421.616C49.8599 410.375 63.8721 400.265 81.9886 393.572C84.6249 392.587 87.3192 391.699 90.0714 390.868C103.34 386.928 117.7 384.553 131.683 382.013C138.926 380.68 146.101 379.28 153.189 377.851C191.16 370.058 226.659 360.951 260.13 353.496C277.252 349.681 294.084 346.321 311.061 342.69C323.277 340.073 335.706 337.369 348.376 334.143C362.001 330.686 376.13 326.717 390.065 322.333C407.843 316.78 425.254 310.3 442.318 302.739C451.077 298.857 459.759 294.695 468.238 290.224C475.828 286.226 483.138 282.015 490.168 277.708C493.925 275.381 497.595 273.015 501.1 270.726C503.64 269.065 506.054 267.443 508.391 265.782C527.116 252.484 541.833 237.081 552.736 220.095C556.715 212.514 560.606 204.692 564.16 196.783C567.694 188.903 570.891 180.897 573.769 172.853C584.333 143.322 590.012 108.229 567.743 83.7C548.081 62.0491 511.617 55.521 482.395 61.5083C452.941 67.5439 429.339 83.9704 408.78 102.068C407.399 103.284 406.018 104.501 404.647 105.747C368.211 138.88 337.54 181.612 340.022 229.52C341.712 263.503 360.891 296.781 387.235 324.573C403.864 342.207 423.217 357.899 443.728 372.472C455.693 380.97 468.025 389.12 480.299 396.952C488.981 402.457 497.72 407.874 506.122 413.398C519.526 422.186 532.157 431.244 542.847 441.645C555.585 454.044 565.048 467.583 572.61 482.426C583.918 504.589 589.51 529.783 591.615 554.167C594.956 592.872 590.63 632.62 572.378 667.298C566.314 678.819 558.685 689.77 549.308 699.949C523.697 727.732 482.539 747.857 439.296 752.492C418.717 754.742 397.674 753.564 377.433 748.06C363.131 744.139 349.399 738.065 338.284 729.972C331.659 725.153 325.981 719.62 321.674 713.439C312.548 700.354 310.124 685.396 309.941 670.949C309.709 644.836 316.411 619.458 326.589 594.746C333.04 578.966 340.911 563.448 349.283 548.199C355.802 536.273 362.803 524.057 363.469 510.624C364.145 497.124 356.922 481.885 341.616 474.71" stroke="#21F225" stroke-width="0.8162" stroke-miterlimit="10" stroke-linecap="round" stroke-linejoin="round"/>
<path d="M328.834 475.306C311.712 500.839 275.894 679.415 132.44 681.907C104.638 682.39 78.0427 673.332 59.0089 657.996C40.0523 642.729 28.039 623.009 19.4443 603.241C-5.33539 546.217 -1.90717 480.801 39.9557 434.38C48.7146 424.665 63.7794 416.457 82.7843 410.325C85.5365 409.436 88.3563 408.596 91.2244 407.823C105.159 404.057 120.089 401.469 134.41 398.418C141.885 396.824 149.224 395.076 156.38 393.251C194.921 383.401 228.421 370.673 257.971 361.383C273.21 356.593 287.927 352.74 302.885 348.317C313.595 345.15 324.614 341.818 336.221 337.714C348.679 333.301 362.227 328.163 375.718 322.736C392.936 315.88 409.933 308.096 427.248 299.559C436.055 295.223 444.987 290.685 453.843 286.011C461.694 281.868 469.391 277.657 476.846 273.486C480.815 271.264 484.716 269.014 488.366 267.015C491.032 265.557 493.485 264.225 495.851 262.853C514.769 251.854 529.042 239.184 538.727 224.679C542.175 216.751 545.893 208.533 549.321 200.238C552.73 191.981 555.869 183.608 558.746 175.197C569.301 144.382 576.138 108.12 556.564 82.983C539.326 60.8396 505.971 53.8962 479.946 59.2751C453.457 64.7506 432.752 80.6363 414.713 98.5017C413.496 99.7088 412.279 100.916 411.082 102.142C379.088 134.957 351.827 178.509 354.878 227.036C356.906 261.154 375.351 294.547 400.247 322.775C416.036 340.679 434.21 356.786 453.466 371.755C464.707 380.465 476.189 388.905 487.526 396.834C495.532 402.435 503.557 407.843 511.157 413.28C523.305 421.913 534.565 430.517 544.164 440.165C555.627 451.666 564.318 463.718 572.102 477.498C583.758 498.106 590.392 522.809 593.337 546.719C598.04 584.671 595.298 623.608 578.881 658.112C573.406 669.614 566.385 680.594 557.636 690.888C533.658 719.115 494.112 740.264 452.336 746.522C432.433 749.506 412.038 749.341 392.212 744.812C378.2 741.606 364.642 736.285 353.488 728.888C346.863 724.494 341.117 719.347 336.704 713.562C327.356 701.308 324.391 687.112 323.609 673.332C322.199 648.436 327.598 624.014 336.221 599.948C341.726 584.604 348.582 569.384 355.989 554.329C361.774 542.567 368.06 530.447 368.311 517.14C368.562 503.698 361.271 488.546 346.38 481.091" stroke="#21F225" stroke-width="0.8162" stroke-miterlimit="10" stroke-linecap="round" stroke-linejoin="round"/>
<path d="M327.435 474.481C306.643 498.411 270.043 672.651 131.234 679.817C103.973 681.227 77.9377 674.071 59.3577 659.644C40.913 645.322 29.3826 626.404 20.981 607.602C-3.18068 553.378 -1.43277 490.029 39.6962 447.142C47.5763 438.924 63.6551 432.618 83.5774 427.085C86.4551 426.283 89.3909 425.511 92.3845 424.777C106.995 421.204 122.476 418.374 137.154 414.811C144.851 412.947 152.354 410.852 159.597 408.63C198.698 396.656 230.151 380.374 255.838 369.259C269.174 363.494 281.806 359.148 294.727 353.933C303.939 350.216 313.558 346.256 324.074 341.264C335.382 335.904 348.313 329.559 361.379 323.128C378.008 314.939 394.618 305.88 412.184 296.368C421.049 291.569 430.223 286.654 439.446 281.786C447.567 277.499 455.621 273.269 463.511 269.261C467.692 267.137 471.825 265.012 475.621 263.303C478.411 262.048 480.903 261.005 483.288 259.923C502.409 251.222 516.218 241.285 524.697 229.262C527.623 220.986 531.148 212.363 534.451 203.7C537.744 195.077 540.805 186.327 543.683 177.549C554.228 145.44 562.253 108.077 545.353 82.2835C530.559 59.6959 500.284 52.289 477.465 57.0595C453.941 61.9653 436.114 77.2812 420.615 94.9534C419.572 96.1412 418.509 97.3387 417.476 98.5555C389.954 131.099 366.188 175.425 369.694 224.569C372.137 258.813 389.741 292.37 413.217 320.994C428.147 339.197 445.163 355.701 463.153 371.046C473.66 379.978 484.321 388.679 494.703 396.723C502.042 402.411 509.333 407.839 516.132 413.169C526.996 421.687 536.923 429.798 545.421 438.683C555.599 449.286 563.518 459.851 571.533 472.569C583.527 491.613 591.205 515.842 595 539.27C601.064 576.459 599.915 614.613 585.333 648.934C580.456 660.416 574.025 671.425 565.903 681.835C543.548 710.526 505.625 732.737 465.307 740.559C446.08 744.287 426.332 745.107 406.921 741.573C393.208 739.072 379.814 734.514 368.622 727.812C361.997 723.843 356.193 719.092 351.654 713.684C342.075 702.26 338.598 688.817 337.188 675.722C334.639 652.043 338.666 628.567 345.764 605.159C350.293 590.229 356.154 575.319 362.605 560.467C367.646 548.859 373.228 536.846 373.054 523.664C372.871 510.279 365.522 495.205 351.036 487.489" stroke="#21F225" stroke-width="0.8162" stroke-miterlimit="10" stroke-linecap="round" stroke-linejoin="round"/>
<path d="M326.033 473.657C301.572 495.975 264.103 665.995 130.016 677.738C103.276 680.084 77.8303 674.831 59.6849 661.302C41.752 647.936 30.6948 629.81 22.5057 611.983C-1.03796 560.531 -1.18282 498.939 39.444 459.916C46.4646 453.175 63.5477 448.781 84.3778 443.856C87.3714 443.151 90.4327 442.427 93.5422 441.741C108.839 438.371 124.869 435.281 139.886 431.215C147.814 429.071 155.482 426.638 162.792 424.03C202.453 409.921 231.781 390.115 253.683 377.146C265.069 370.405 275.682 365.577 286.556 359.56C294.281 355.282 302.499 350.695 311.924 344.834C322.093 338.508 334.406 330.995 347.037 323.53C363.087 314.038 379.301 303.685 397.108 293.188C406.022 287.935 415.447 282.643 425.046 277.573C433.438 273.14 441.859 268.891 450.183 265.038C454.577 263.001 458.942 261.002 462.882 259.592C465.798 258.549 468.328 257.786 470.733 256.994C490.076 250.591 503.402 243.387 510.674 233.837C513.079 225.223 516.41 216.184 519.597 207.145C522.765 198.145 525.758 189.028 528.636 179.883C539.172 146.49 548.404 108.084 534.16 81.5563C521.828 58.5824 494.615 50.654 475.001 54.8258C454.442 59.1715 439.502 73.8983 426.523 91.3774C425.645 92.5555 424.756 93.7337 423.887 94.9504C400.826 127.234 380.479 172.322 384.535 222.084C387.336 256.463 404.148 290.175 426.205 319.194C440.275 337.697 456.132 354.597 472.867 370.328C482.64 379.473 492.471 388.444 501.906 396.605C508.569 402.37 515.136 407.816 521.133 413.05C530.732 421.423 539.297 429.081 546.704 437.193C555.598 446.888 562.744 455.956 570.991 467.631C583.323 485.091 592.053 508.867 596.689 531.802C604.115 568.238 604.549 605.61 591.812 639.738C587.534 651.2 581.691 662.238 574.207 672.774C553.474 701.938 517.173 725.202 478.314 734.588C459.753 739.069 440.671 740.865 421.666 738.325C408.262 736.529 395.032 732.734 383.791 726.727C377.167 723.183 371.305 718.828 366.65 713.806C356.858 703.222 352.86 690.533 350.823 678.105C347.143 655.652 349.789 633.103 355.371 610.361C358.934 595.847 363.792 581.236 369.277 566.605C373.574 555.152 378.451 543.245 377.852 530.189C377.244 516.863 369.818 501.865 355.748 493.879" stroke="#21F225" stroke-width="0.8162" stroke-miterlimit="10" stroke-linecap="round" stroke-linejoin="round"/>
<path d="M324.632 472.841C296.492 493.555 258.086 659.452 128.799 675.656C102.561 678.949 77.733 675.589 60.0221 662.957C42.6203 650.548 32.017 633.214 24.0403 616.353C1.11472 567.701 -1.23192 507.355 39.1921 472.686C45.3918 467.375 63.431 464.951 85.1688 460.615C88.2783 459.997 91.4651 459.34 94.6906 458.693C110.663 455.526 127.244 452.175 142.608 447.617C150.768 445.203 158.6 442.412 165.978 439.428C206.199 423.175 233.306 399.921 251.519 385.04C260.916 377.363 269.568 371.993 278.375 365.185C284.633 360.347 291.441 355.113 299.756 348.392C308.795 341.091 320.48 332.429 332.676 323.921C348.156 313.125 363.965 301.478 382.023 289.996C390.995 284.289 400.661 278.62 410.637 273.348C419.299 268.77 428.087 264.512 436.846 260.813C441.443 258.872 446.049 256.998 450.124 255.878C453.176 255.038 455.735 254.565 458.159 254.063C477.733 249.949 490.577 245.487 496.632 238.418C498.515 229.457 501.663 220.022 504.715 210.606C507.757 201.23 510.693 191.746 513.561 182.244C524.087 147.556 534.526 108.185 522.938 80.8556C513.049 57.5437 488.926 49.0456 472.509 52.609C454.914 56.3849 442.862 70.5323 432.413 87.8279C431.708 88.9964 430.974 90.1553 430.27 91.3624C411.661 123.385 394.732 169.236 399.338 219.616C402.486 254.13 418.517 288.017 439.164 317.412C452.374 336.224 467.072 353.51 482.543 369.618C491.581 378.975 500.582 388.217 509.07 396.493C515.067 402.345 520.9 407.801 526.095 412.939C534.429 421.167 541.633 428.361 547.949 435.71C555.559 444.507 561.932 452.069 570.411 462.701C583.081 478.577 592.854 501.889 598.339 524.351C607.117 560.033 609.155 596.633 598.242 630.558C594.554 642.011 589.31 653.078 582.453 663.72C563.342 693.367 528.664 717.674 491.272 728.625C473.388 733.859 454.962 736.63 436.363 735.085C423.259 733.994 410.212 730.962 398.923 725.65C392.308 722.531 386.379 718.572 381.599 713.927C371.584 704.183 367.065 692.247 364.399 680.485C359.59 659.259 360.846 637.627 364.911 615.561C367.509 601.462 371.352 587.16 375.891 572.732C379.445 561.434 383.607 549.633 382.603 536.702C381.56 523.424 374.076 508.523 360.411 500.267" stroke="#21F225" stroke-width="0.8162" stroke-miterlimit="10" stroke-linecap="round" stroke-linejoin="round"/>
<path d="M323.239 472.022C291.429 491.133 251.99 653.041 127.599 673.582C101.834 677.84 77.6625 676.363 60.3765 664.62C43.5058 653.157 33.3564 636.624 25.5922 620.739C3.26532 574.859 6.02721 523.319 38.9381 485.464C45.1379 482.837 63.3122 481.118 85.9674 477.391C89.2025 476.86 92.5052 476.261 95.8561 475.672C112.505 472.707 129.636 469.086 145.348 464.035C153.74 461.341 161.736 458.203 169.181 454.842C209.963 436.436 234.791 409.85 249.373 392.951C256.76 384.385 263.491 378.398 270.203 370.836C275.012 365.419 280.4 359.547 287.605 351.986C295.523 343.681 306.571 333.898 318.333 324.357C333.234 312.267 348.646 299.336 366.956 286.85C375.975 280.698 385.893 274.643 396.236 269.158C405.168 264.426 414.313 260.148 423.507 256.614C428.316 254.769 433.154 253.031 437.374 252.191C440.551 251.563 443.149 251.38 445.592 251.158C465.418 249.352 477.75 247.613 482.598 243.026C483.95 233.717 486.914 223.877 489.85 214.085C492.766 204.331 495.634 194.471 498.512 184.612C509.029 148.639 520.665 108.36 511.742 80.162C504.277 56.5797 483.264 47.4635 470.044 50.3992C455.423 53.644 446.268 67.154 438.33 84.2758C437.799 85.425 437.22 86.5838 436.688 87.7716C422.531 119.562 409.021 166.147 414.178 217.146C417.684 251.795 432.922 285.845 452.159 315.627C464.51 334.748 478.049 352.411 492.264 368.905C500.579 378.484 508.739 387.977 516.281 396.379C521.602 402.308 526.711 407.784 531.104 412.825C538.164 420.907 543.996 427.648 549.24 434.224C555.546 442.143 561.147 448.169 569.867 457.768C582.856 472.051 593.701 494.918 600.026 516.888C610.166 551.807 613.807 587.654 604.719 621.357C601.629 632.8 596.984 643.906 590.755 654.644C573.267 684.793 540.201 710.133 504.277 722.629C487.059 728.626 469.3 732.363 451.097 731.813C438.301 731.427 425.428 729.157 414.082 724.532C407.476 721.837 401.479 718.284 396.583 714.006C386.366 705.102 381.316 693.929 378.022 682.823C372.093 662.843 371.958 642.11 374.498 620.729C376.12 607.045 378.969 593.043 382.552 578.828C385.362 567.674 388.809 555.979 387.39 543.184C385.922 529.963 378.37 515.14 365.121 506.613" stroke="#21F225" stroke-width="0.8162" stroke-miterlimit="10" stroke-linecap="round" stroke-linejoin="round"/>
<path d="M321.837 471.192C286.357 488.7 245.827 646.765 126.38 671.486C101.069 676.73 77.5835 677.116 60.7128 666.262C44.3829 655.755 34.6777 640.014 27.1163 625.094C5.4171 582.024 7.58026 533.585 38.6756 498.231C44.1511 497.294 63.185 497.275 86.7576 494.156C90.1086 493.712 93.5368 493.18 97.0036 492.63C114.338 489.868 132.01 485.986 148.079 480.443C156.693 477.469 164.853 473.982 172.386 470.245C213.727 449.676 236.266 419.923 247.227 400.841C252.606 391.473 257.425 384.743 262.041 376.467C265.402 370.441 269.361 363.932 275.454 355.559C282.243 346.231 292.663 335.347 303.991 324.763C318.322 311.379 333.328 297.154 351.889 283.673C360.967 277.077 371.126 270.636 381.845 264.948C391.048 260.071 400.56 255.774 410.188 252.404C415.2 250.646 420.289 249.043 424.645 248.493C427.957 248.077 430.593 248.174 433.046 248.242C453.133 248.753 464.943 249.729 468.584 247.624C469.414 237.967 472.195 227.721 474.996 217.561C477.787 207.441 480.587 197.205 483.465 186.978C493.972 149.712 506.767 108.602 500.548 79.4671C495.469 55.6724 477.594 45.8705 467.579 48.1882C455.923 50.8825 449.666 63.7649 444.248 80.7321C443.881 81.8717 443.466 83.0112 443.099 84.1893C433.384 115.768 423.302 163.077 429.01 214.693C432.853 249.478 447.319 283.712 465.136 313.861C476.628 333.29 489.008 351.339 501.968 368.22C509.548 378.012 516.878 387.765 523.474 396.302C528.119 402.309 532.503 407.803 536.105 412.748C541.89 420.686 546.37 426.972 550.523 432.776C555.545 439.797 560.344 444.307 569.325 452.872C582.613 465.542 594.539 487.975 601.724 509.472C613.226 543.638 618.469 578.741 611.207 612.212C608.725 623.656 604.669 634.79 599.059 645.625C583.202 676.296 551.74 702.649 517.293 716.7C500.741 723.45 483.649 728.153 465.851 728.607C453.364 728.916 440.675 727.419 429.261 723.489C422.665 721.22 416.61 718.062 411.579 714.17C401.159 706.107 395.577 695.696 391.647 685.248C384.588 666.503 383.071 646.678 384.085 625.973C384.742 612.695 386.577 599.001 389.213 585.008C391.28 574.009 394.013 562.421 392.178 549.751C390.266 536.579 382.666 521.842 369.822 513.054" stroke="#21F225" stroke-width="0.8162" stroke-miterlimit="10" stroke-linecap="round" stroke-linejoin="round"/>
<path d="M320.442 470.368C281.293 486.273 239.613 640.658 125.169 669.397C100.292 675.645 77.5406 677.886 61.0562 667.91C45.2864 658.359 36.006 643.411 28.6571 629.466C7.56632 589.177 9.1404 543.838 38.4299 511.004C43.1811 511.757 63.0745 513.428 87.5645 510.917C91.041 510.56 94.5851 510.096 98.1678 509.584C116.178 507.025 134.41 502.873 150.818 496.837C159.663 493.583 167.988 489.759 175.588 485.626C217.489 462.893 237.827 430.117 245.069 408.718C248.488 398.616 251.317 391.016 253.867 382.084C255.769 375.411 258.29 368.294 263.302 359.11C268.951 348.748 278.753 336.773 289.646 325.146C303.407 310.468 318.018 294.959 336.81 280.473C345.946 273.433 356.346 266.606 367.433 260.715C376.896 255.694 386.775 251.377 396.848 248.161C402.072 246.491 407.403 245.032 411.893 244.762C415.341 244.559 418.016 244.945 420.488 245.293C440.845 248.142 452.134 251.812 454.558 252.188C454.867 242.184 457.455 231.542 460.139 220.996C462.805 210.499 465.547 199.896 468.415 189.312C478.912 150.761 492.809 108.869 489.342 78.7397C486.59 54.7615 471.921 44.2548 465.103 45.9447C456.421 48.0982 453.051 60.3143 450.154 77.1463C449.961 78.2665 449.7 79.4061 449.507 80.5745C444.244 111.96 437.571 159.964 443.848 212.199C448.039 247.109 461.713 281.526 478.13 312.052C488.753 331.8 499.955 350.254 511.678 367.482C518.506 377.506 525.024 387.501 530.674 396.164C534.643 402.238 538.293 407.752 541.103 412.609C545.603 420.393 548.732 426.226 551.803 431.276C555.531 437.399 559.529 440.383 568.78 447.925C582.348 458.992 595.375 480.99 603.41 502.004C616.273 535.407 623.139 569.786 617.673 603.015C615.79 614.459 612.333 625.622 607.35 636.564C593.135 667.756 563.256 695.133 530.287 710.729C514.402 718.242 497.985 723.911 480.583 725.359C468.406 726.373 455.9 725.63 444.418 722.404C437.841 720.56 431.719 717.798 426.562 714.283C415.959 707.059 409.827 697.412 405.259 687.63C397.089 670.131 394.163 651.194 393.67 631.175C393.352 618.302 394.192 604.908 395.872 591.137C397.195 580.283 399.214 568.801 396.963 556.266C394.617 543.142 386.959 528.493 374.521 519.435" stroke="#21F225" stroke-width="0.8162" stroke-miterlimit="10" stroke-linecap="round" stroke-linejoin="round"/>
<path d="M319.045 469.55C276.217 483.842 233.35 634.742 123.956 667.324C99.4947 674.606 77.5058 678.681 61.398 669.574C46.198 660.98 37.3329 646.813 30.1964 633.844C9.72368 596.336 10.699 554.097 38.173 523.774C42.2 526.227 62.9528 529.587 88.3506 527.685C91.9429 527.414 95.6029 527.019 99.3112 526.545C118.007 524.189 136.78 519.766 153.535 513.238C162.612 509.704 171.091 505.522 178.769 501.022C221.221 476.117 239.52 440.386 242.9 416.601C244.436 405.805 245.15 397.287 245.672 387.707C246.077 380.368 247.198 372.643 251.118 362.677C255.609 351.262 264.812 338.216 275.27 325.546C288.452 309.573 302.677 292.78 321.711 277.29C330.904 269.806 341.536 262.582 353.009 256.498C362.743 251.332 372.979 246.996 383.496 243.944C388.923 242.37 394.505 240.854 399.131 241.057C402.704 241.211 405.417 241.743 407.909 242.361C428.526 247.556 439.294 253.91 440.511 256.759C440.288 246.407 442.703 235.359 445.252 224.447C447.792 213.573 450.467 202.603 453.345 191.652C463.832 151.817 478.752 109.172 478.124 78.0187C477.632 53.8956 466.246 42.6549 462.615 43.7172C456.918 45.3782 456.406 56.8699 456.049 73.5861C456.029 74.687 455.933 75.8169 455.894 76.9757C455.112 108.187 451.819 156.868 458.656 209.72C463.185 244.765 476.077 279.376 491.094 310.259C500.847 330.326 510.89 349.147 521.368 366.771C527.462 377.017 533.15 387.254 537.853 396.051C541.146 402.202 544.072 407.726 546.08 412.497C549.296 420.126 551.073 425.505 553.062 429.792C555.486 435.017 558.673 436.465 568.214 442.993C582.033 452.448 596.2 474.012 605.075 494.542C619.29 527.192 627.797 560.837 624.128 593.816C622.853 605.259 619.985 616.471 615.62 627.49C603.047 659.232 574.761 687.614 543.26 704.745C528.041 713.021 512.3 719.646 495.294 722.089C483.426 723.798 471.113 723.818 459.554 721.297C452.997 719.868 446.817 717.512 441.515 714.383C430.728 708 424.055 699.115 418.85 689.989C409.579 673.746 405.234 655.678 403.225 636.355C401.931 623.887 401.767 610.802 402.491 597.244C403.071 586.534 404.365 575.168 401.719 562.759C398.928 549.683 391.212 535.13 379.189 525.792" stroke="#21F225" stroke-width="0.8162" stroke-miterlimit="10" stroke-linecap="round" stroke-linejoin="round"/>
<path d="M317.65 468.72C271.152 481.41 227.078 628.997 122.744 665.23C98.6888 673.583 77.4918 679.464 61.7413 671.217C47.1303 663.569 38.6612 650.204 31.7371 638.2C11.8728 603.483 12.2591 564.344 37.9272 536.532C41.2299 540.674 62.8422 545.725 89.1573 544.431C92.8656 544.248 96.6511 543.909 100.485 543.485C119.857 541.341 139.18 536.638 156.283 529.627C165.582 525.812 174.235 521.283 181.99 516.407C224.992 489.328 241.418 450.633 240.771 424.482C240.491 412.981 238.975 403.555 237.527 393.329C236.397 385.342 236.126 376.999 238.995 366.231C242.317 353.764 250.94 339.646 260.954 325.942C273.566 308.676 287.395 290.608 306.67 274.104C315.922 266.176 326.796 258.566 338.635 252.279C348.64 246.968 359.243 242.603 370.184 239.716C375.824 238.228 381.637 237.05 386.408 237.34C390.116 237.562 392.868 238.528 395.37 239.426C416.248 246.987 426.494 256.007 426.504 261.337C425.76 250.638 427.981 239.184 430.415 227.895C432.829 216.655 435.436 205.308 438.314 193.99C448.792 152.861 464.668 109.482 466.947 77.2953C468.666 53.0274 460.564 40.9466 460.168 41.4777C457.406 42.4338 459.781 53.4041 461.983 70.0043C462.128 71.0956 462.196 72.2158 462.331 73.3553C466.049 104.412 466.116 153.749 473.514 207.22C478.381 242.4 490.49 277.204 504.107 308.444C512.991 328.83 521.885 348.028 531.098 366.028C536.458 376.487 541.315 386.965 545.072 395.907C547.689 402.126 549.881 407.669 551.097 412.353C553.039 419.818 553.444 424.752 554.362 428.277C555.482 432.603 557.848 432.526 567.688 438.031C581.739 445.882 597.055 467.011 606.779 487.059C622.356 518.946 632.506 551.886 630.613 584.604C629.956 596.057 627.677 607.298 623.93 618.403C613.018 650.696 586.307 680.082 556.283 698.749C541.73 707.798 526.665 715.359 510.046 718.816C498.486 721.221 486.367 721.993 474.74 720.187C468.202 719.173 461.964 717.223 456.527 714.471C445.557 708.918 438.353 700.816 432.491 692.337C422.129 677.349 416.344 660.15 412.829 641.522C410.55 629.451 409.391 616.675 409.169 603.348C408.995 592.783 409.575 581.523 406.523 569.249C403.288 556.232 395.524 541.756 383.916 532.157" stroke="#21F225" stroke-width="0.8162" stroke-miterlimit="10" stroke-linecap="round" stroke-linejoin="round"/>
<path d="M316.25 467.905C266.082 478.991 220.791 623.469 121.528 663.159C97.868 672.613 77.4918 680.271 62.0793 672.884C48.0768 666.172 39.9649 653.637 33.263 642.59C13.9394 610.712 13.8139 574.614 37.6666 549.323C40.2353 555.156 62.7167 561.896 89.9493 561.22C93.7831 561.124 97.6845 560.853 101.634 560.477C121.692 558.545 141.556 553.562 159.016 546.059C168.547 541.964 177.354 537.087 185.186 531.834C228.739 502.583 243.389 460.846 238.618 432.406C236.561 420.161 232.756 409.905 229.347 398.993C226.653 390.369 225.011 381.389 226.827 369.839C228.951 356.309 237.015 341.138 246.595 326.383C258.637 307.822 272.079 288.479 291.577 270.961C300.886 262.598 312.001 254.593 324.217 248.103C334.492 242.647 345.453 238.253 356.838 235.54C362.681 234.139 368.745 233.116 373.651 233.676C377.495 234.12 380.276 235.366 382.796 236.544C403.926 246.491 413.66 258.156 412.462 265.969C411.197 254.921 413.235 243.072 415.533 231.397C417.832 219.779 420.371 208.056 423.24 196.381C433.708 153.967 450.463 109.825 455.726 76.6248C459.598 52.2024 454.876 39.3683 457.667 39.291C457.869 39.687 463.075 49.9813 467.864 66.485C468.173 67.5569 468.405 68.6771 468.714 69.807C476.961 100.7 480.351 150.703 488.318 204.792C493.523 240.107 504.831 275.104 517.057 306.702C525.072 327.406 532.807 346.981 540.774 365.368C545.4 376.039 549.427 386.758 552.237 395.845C554.178 402.122 555.646 407.675 556.071 412.291C556.737 419.572 555.772 424.063 555.617 426.844C555.424 430.243 556.95 428.679 567.109 433.15C581.362 439.417 597.866 460.093 608.431 479.658C625.369 510.792 637.18 543.007 637.054 575.474C637.006 586.937 635.335 598.216 632.187 609.408C622.945 642.271 597.789 672.652 569.243 692.844C555.356 702.666 540.967 711.173 524.744 715.635C513.493 718.735 501.577 720.261 489.863 719.169C483.344 718.561 477.048 717.025 471.466 714.65C460.332 709.928 452.577 702.598 446.069 694.776C434.625 681.034 427.382 664.714 422.37 646.79C419.106 635.115 416.943 622.648 415.784 609.544C414.867 599.124 414.713 587.97 411.265 575.831C407.576 562.862 399.773 548.473 388.571 538.604" stroke="#21F225" stroke-width="0.8162" stroke-miterlimit="10" stroke-linecap="round" stroke-linejoin="round"/>
<path d="M314.85 467.084C261.013 476.567 214.524 618.138 120.321 661.072C97.0667 671.676 77.5307 681.062 62.4272 674.534C49.0523 668.75 41.2978 657.036 34.8083 646.954C16.0932 617.867 15.3786 584.869 37.4157 562.079C39.2602 569.602 62.601 578.274 90.751 577.974C94.7007 577.936 98.7277 577.762 102.793 577.424C123.527 575.695 143.942 570.442 161.749 562.456C171.512 558.081 180.483 552.857 188.383 547.227C232.486 515.793 245.426 470.946 236.465 440.286C232.66 427.258 226.528 416.23 221.178 404.613C216.929 395.381 213.896 385.743 214.679 373.392C215.596 358.82 223.119 342.567 232.254 326.768C243.736 306.914 256.783 286.296 276.512 267.755C285.889 258.947 297.236 250.556 309.829 243.863C320.374 238.253 331.692 233.849 343.522 231.29C349.577 229.986 355.873 229.098 360.923 229.938C364.902 230.595 367.722 232.13 370.252 233.588C391.623 245.911 400.865 260.232 398.45 270.526C396.654 259.131 398.508 246.876 400.691 234.834C402.864 222.84 405.336 210.75 408.204 198.717C418.662 155.01 436.228 110.095 444.543 75.8999C450.521 51.3037 449.198 37.5522 455.214 37.05C458.372 36.7893 466.397 46.5235 473.794 62.9113C474.267 63.9639 474.673 65.0745 475.136 66.1947C487.941 96.9231 494.624 147.603 503.161 202.3C508.694 237.75 519.22 272.94 530.055 304.895C537.192 325.928 543.787 345.86 550.499 364.633C554.391 375.516 557.597 386.477 559.451 395.709C560.726 402.044 561.46 407.616 561.083 412.155C560.484 419.253 558.157 423.27 556.911 425.337C555.434 427.78 556.071 424.777 566.578 428.195C581.005 432.898 598.716 453.091 610.131 472.173C628.431 502.554 641.912 534.064 643.544 566.251C644.123 577.714 643.042 589.041 640.502 600.311C632.96 633.743 609.339 665.128 582.27 686.837C569.05 697.431 555.337 706.875 539.509 712.351C528.578 716.136 516.854 718.415 505.053 718.039C498.564 717.836 492.21 716.706 486.474 714.726C475.175 710.815 466.88 704.278 459.704 697.112C447.189 684.616 438.469 669.175 431.97 651.947C427.721 640.667 424.553 628.509 422.458 615.627C420.777 605.342 419.918 594.314 416.065 582.301C411.932 569.38 404.08 555.078 393.284 544.948" stroke="#21F225" stroke-width="0.8162" stroke-miterlimit="10" stroke-linecap="round" stroke-linejoin="round"/>
<path d="M313.459 466.261C255.942 474.131 208.314 612.998 119.113 658.994C96.2646 670.776 77.5978 681.862 62.7647 676.193C50.0368 671.326 42.6203 660.443 36.3433 651.336C18.2365 625.04 16.9328 595.143 37.1641 574.863C38.2843 584.076 62.4846 594.196 91.5424 594.747C95.608 594.824 99.7605 594.689 103.952 594.389C125.371 592.873 146.317 587.33 164.481 578.861C174.467 574.206 183.602 568.634 191.579 562.618C236.223 529.002 247.473 480.959 234.311 448.173C228.748 434.325 220.308 422.592 213.007 410.231C207.194 400.401 202.771 390.097 202.52 376.953C202.221 361.338 209.212 344.004 217.904 327.172C228.816 306.033 241.476 284.131 261.437 264.576C270.872 255.334 282.46 246.546 295.42 239.641C306.236 233.886 317.921 229.453 330.185 227.068C336.443 225.851 342.99 225.117 348.176 226.228C352.28 227.107 355.138 228.922 357.688 230.66C379.3 245.378 388.04 262.335 384.418 275.111C382.101 263.378 383.771 250.708 385.819 238.289C387.866 225.928 390.27 213.461 393.148 201.062C403.597 156.07 421.926 110.335 433.331 75.1835C441.375 50.3844 443.519 36.0149 452.732 34.8174C458.854 34.0255 469.68 43.0934 479.694 59.3364C480.331 60.3697 480.911 61.4802 481.538 62.5811C498.911 93.1164 508.867 144.491 517.993 199.816C523.865 235.402 533.589 270.795 543.043 303.097C549.301 324.458 554.757 344.757 560.204 363.917C563.362 375.022 565.747 386.205 566.645 395.591C567.263 401.984 567.273 407.566 566.075 412.037C564.231 418.952 560.571 422.515 558.185 423.848C555.472 425.364 555.172 420.902 566.027 423.259C580.619 426.426 599.556 446.117 611.82 464.716C631.482 494.334 646.662 525.139 650.013 557.065C651.22 568.538 650.738 579.914 648.787 591.251C642.954 625.263 620.869 657.652 595.258 680.867C582.704 692.243 569.668 702.605 554.236 709.104C543.613 713.575 532.092 716.598 520.205 716.955C513.744 717.158 507.322 716.434 501.451 714.84C489.988 711.741 481.162 705.995 473.32 699.486C459.743 688.236 449.535 673.673 441.558 657.14C436.305 646.257 432.153 634.408 429.12 621.757C426.687 611.617 425.103 600.695 420.864 588.817C416.277 575.945 408.387 561.739 398.006 551.329" stroke="#21F225" stroke-width="0.8162" stroke-miterlimit="10" stroke-linecap="round" stroke-linejoin="round"/>
<path d="M312.055 465.436C250.869 471.703 202.149 608.04 117.892 656.904C95.4594 669.912 78.3183 679.984 63.099 677.841C51.9452 671.786 43.9396 663.838 37.875 655.697C20.3766 632.202 18.4839 605.385 36.8997 587.625C37.2956 598.538 62.365 610.339 92.3402 611.507C96.5313 611.671 100.8 611.604 105.107 611.343C127.202 610.039 148.698 604.216 167.211 595.264C177.428 590.32 186.718 584.4 194.781 578.017C239.966 542.209 249.526 490.93 232.163 456.069C224.853 441.381 214.095 428.962 204.834 415.867C197.466 405.447 191.633 394.477 190.368 380.522C188.852 363.874 195.303 345.458 203.559 327.573C213.902 305.14 226.176 281.973 246.359 261.394C255.861 251.708 267.681 242.525 281.018 235.427C292.104 229.526 304.146 225.065 316.845 222.844C323.315 221.714 330.094 221.134 335.425 222.515C339.664 223.616 342.552 225.712 345.13 227.73C366.965 244.833 375.221 264.436 370.393 279.694C367.554 267.613 369.031 254.548 370.963 241.752C372.884 229.015 375.231 216.18 378.099 203.414C388.538 157.128 407.591 110.533 422.135 74.4744C432.236 49.4532 437.856 34.427 450.265 32.6019C459.353 31.2595 472.969 39.6901 485.61 55.7882C486.411 56.8118 487.155 57.9031 487.947 58.9943C509.907 89.3171 523.117 141.407 532.823 197.349C539.022 233.07 547.946 268.666 556.019 301.316C561.388 323.006 565.714 343.662 569.905 363.208C572.329 374.525 573.903 385.95 573.836 395.481C573.787 401.932 573.083 407.533 571.064 411.927C567.984 418.667 562.972 421.816 559.457 422.366C555.507 422.994 554.261 417.064 565.473 418.329C580.209 419.99 600.383 439.14 613.497 457.257C634.51 486.121 651.4 516.212 656.48 547.877C658.324 559.36 658.431 570.774 657.079 582.189C652.974 616.789 632.405 650.173 608.263 674.886C596.385 687.044 584.005 698.323 568.978 705.846C558.665 711.003 547.347 714.759 535.372 715.86C528.931 716.459 522.461 716.14 516.435 714.952C504.817 712.654 495.45 707.7 486.933 701.867C472.303 691.843 460.579 678.179 451.135 662.341C444.886 651.863 439.73 640.323 435.761 627.885C432.564 617.89 430.256 607.084 425.631 595.332C420.58 582.517 412.652 568.389 402.686 557.718" stroke="#21F225" stroke-width="0.8162" stroke-miterlimit="10" stroke-linecap="round" stroke-linejoin="round"/>
<path d="M310.659 464.609C245.803 469.273 196.089 603.253 116.68 654.812C94.6911 669.094 78.3226 680.557 63.4412 679.485C52.9248 674.222 45.2668 667.231 39.4147 660.065C22.5344 639.37 20.0429 615.643 36.6528 600.395C36.3149 612.997 62.2534 626.478 93.1363 628.275C97.4433 628.526 101.837 628.516 106.26 628.313C129.041 627.222 151.078 621.109 169.948 611.674C180.387 606.45 189.851 600.182 197.982 593.423C243.698 555.432 251.568 500.87 230.014 463.962C220.936 448.424 207.89 435.348 196.669 421.5C187.755 410.501 180.512 398.864 178.214 384.099C175.471 366.426 181.401 346.91 189.204 327.982C198.986 304.255 210.864 279.813 231.279 258.22C240.849 248.1 252.901 238.52 266.604 231.219C277.951 225.174 290.36 220.684 303.503 218.636C310.176 217.593 317.207 217.169 322.672 218.82C327.037 220.143 329.963 222.528 332.561 224.817C354.608 244.305 362.401 266.554 356.356 284.284C352.986 271.856 354.289 258.384 356.085 245.212C357.882 232.098 360.161 218.897 363.029 205.773C373.458 158.203 393.197 110.701 410.918 73.7725C423.047 48.4809 432.163 32.8367 447.778 30.3838C459.84 28.4911 476.237 36.3035 491.505 52.2278C492.471 53.2322 493.388 54.3234 494.344 55.405C520.891 85.5057 537.356 138.329 547.641 194.88C554.169 230.737 562.281 266.535 568.992 299.533C573.473 321.55 576.669 342.564 579.596 362.506C581.286 374.036 582.058 385.692 581.015 395.378C580.32 401.887 578.881 407.507 576.051 411.824C571.735 418.39 565.342 421.123 560.726 420.901C555.511 420.65 553.464 411.766 564.917 413.417C579.663 415.542 601.217 432.19 615.172 449.824C637.547 477.925 656.166 507.312 662.945 538.716C665.427 550.208 666.131 561.671 665.359 573.162C662.993 608.343 643.94 642.741 621.246 668.95C610.044 681.89 598.33 694.087 583.69 702.633C573.685 708.475 562.57 712.956 550.518 714.81C544.106 715.795 537.578 715.892 531.407 715.1C519.636 713.594 509.728 709.441 500.534 704.275C484.861 695.468 471.612 682.72 460.699 667.578C453.437 657.506 447.305 646.265 442.399 634.059C438.45 624.209 435.417 613.519 430.396 601.892C424.891 589.125 416.924 575.084 407.364 564.143" stroke="#21F225" stroke-width="0.8162" stroke-miterlimit="10" stroke-linecap="round" stroke-linejoin="round"/>
<path d="M309.258 463.789C240.732 466.85 190.13 598.619 115.462 652.737C93.9465 668.333 78.3119 681.138 63.7782 681.147C53.8895 676.676 46.5888 670.65 40.9395 664.441C24.6676 646.546 21.587 625.9 36.3911 613.172C35.3288 627.464 62.1269 642.635 93.9272 645.04C98.3501 645.378 102.87 645.436 107.418 645.272C130.875 644.403 153.462 638 172.68 628.073C183.351 622.568 192.969 615.953 201.177 608.817C247.434 568.634 253.576 510.779 227.859 471.852C217.015 455.445 201.679 441.732 188.498 427.131C178.03 415.552 169.377 403.259 166.065 387.663C162.096 368.967 167.504 348.359 174.862 328.379C184.084 303.358 195.576 277.651 216.213 255.034C225.841 244.479 238.134 234.504 252.214 227C263.832 220.81 276.608 216.291 290.185 214.408C297.071 213.452 304.333 213.172 309.944 215.103C314.444 216.648 317.399 219.313 320.016 221.882C342.275 243.765 349.595 268.651 342.343 288.863C338.451 276.087 339.561 262.21 341.242 248.671C342.912 235.189 345.124 221.602 347.992 208.121C358.412 159.257 378.827 110.808 399.734 73.0589C413.901 47.4776 426.522 31.2636 445.324 28.1541C460.351 25.7302 479.549 32.9149 497.433 48.6654C498.563 49.6601 499.654 50.732 500.765 51.8039C531.889 81.6536 551.609 135.24 562.482 192.399C569.329 228.391 576.639 264.402 581.989 297.737C585.572 320.084 587.658 341.464 589.319 361.782C590.285 373.525 590.246 385.423 588.228 395.253C586.876 401.83 584.722 407.469 581.062 411.699C575.51 418.111 567.736 420.4 562.019 419.405C555.52 418.266 552.468 409.468 564.375 408.474C579.44 407.228 602.057 425.2 616.861 442.36C640.598 469.708 660.945 498.37 669.414 529.514C672.543 541.006 673.846 552.517 673.653 564.086C673.055 599.845 655.489 635.258 634.243 662.963C623.717 676.696 612.66 689.8 598.426 699.37C588.73 705.898 577.818 711.103 565.679 713.711C559.286 715.082 552.71 715.584 546.384 715.198C534.458 714.473 524.009 711.113 514.149 706.632C497.424 699.032 482.658 687.222 470.278 672.755C462.012 663.089 454.875 652.148 449.052 640.163C444.33 630.458 440.583 619.884 435.175 608.382C429.207 595.674 421.211 581.71 412.056 570.508" stroke="#21F225" stroke-width="0.8162" stroke-miterlimit="10" stroke-linecap="round" stroke-linejoin="round"/>
<path d="M307.865 462.967C235.66 464.425 184.314 594.118 114.253 650.65C93.2494 667.597 78.3198 681.716 64.124 682.798C54.863 679.118 47.9197 674.048 42.4828 668.805C26.8289 653.711 23.1496 636.154 36.1382 625.928C34.3517 641.91 62.0092 658.761 94.7173 661.794C99.2657 662.219 103.901 662.344 108.565 662.219C132.708 661.562 155.826 654.87 175.401 644.469C186.294 638.675 196.077 631.712 204.372 624.209C251.16 581.834 255.573 520.657 225.704 479.731C213.083 462.445 195.478 448.105 180.316 432.75C168.313 420.592 158.231 407.642 153.895 391.225C148.69 371.525 153.586 349.797 160.5 328.783C169.153 302.478 180.268 275.496 201.127 251.856C210.823 240.867 223.348 230.495 237.795 222.789C249.682 216.454 262.816 211.905 276.838 210.196C283.926 209.327 291.429 209.201 297.185 211.394C301.811 213.151 304.804 216.106 307.441 218.955C329.912 243.223 336.759 270.755 328.3 293.449C323.886 280.325 324.804 266.052 326.359 252.127C327.904 238.269 330.057 224.315 332.925 210.466C343.335 160.318 364.426 110.884 388.52 72.3431C404.715 46.4528 420.832 29.6401 442.841 25.9221C460.832 22.9381 482.83 29.5338 503.332 45.0912C504.626 46.0762 505.881 47.1288 507.166 48.1911C542.867 77.7896 565.841 132.129 577.314 189.907C584.489 226.033 590.978 262.247 594.967 295.93C597.651 318.605 598.617 340.343 599.013 361.057C599.245 373.012 598.414 385.151 595.411 395.127C593.412 401.761 590.534 407.43 586.044 411.572C579.264 417.83 570.09 419.675 563.282 417.907C555.508 415.879 551.568 405.672 563.813 403.528C579.062 400.853 602.876 418.216 618.53 434.884C643.628 461.48 665.723 489.407 675.873 520.31C679.648 531.801 681.551 543.37 681.927 555.007C683.115 591.337 667.027 627.782 647.23 656.975C637.39 671.489 626.979 685.501 613.151 696.105C603.754 703.309 593.045 709.229 580.829 712.609C574.455 714.366 567.831 715.274 561.36 715.303C549.27 715.351 538.3 712.792 527.754 708.997C509.976 702.594 493.684 691.73 479.856 677.94C470.575 668.689 462.454 658.047 455.704 646.275C450.219 636.715 445.747 626.256 439.963 614.88C433.531 602.23 425.506 588.353 416.767 576.87" stroke="#21F225" stroke-width="0.8162" stroke-miterlimit="10" stroke-linecap="round" stroke-linejoin="round"/>
<path d="M306.462 462.151C230.587 461.996 178.623 589.71 113.043 648.578C92.609 666.917 78.3263 682.31 64.4686 684.464C55.8353 681.576 49.2493 677.462 44.0249 673.194C28.989 660.901 24.7109 646.425 35.8937 638.719C33.3829 656.391 61.8999 674.923 95.5254 678.582C100.19 679.094 104.951 679.287 109.731 679.201C134.549 678.756 158.218 671.774 178.141 660.891C189.256 654.817 199.202 647.506 207.575 639.617C254.894 595.05 257.559 530.551 223.548 487.636C209.149 469.461 189.275 454.503 172.144 438.395C158.595 425.657 147.093 412.06 141.734 394.813C135.302 374.099 139.725 351.28 146.147 329.204C154.298 301.614 164.968 273.348 186.04 248.694C195.803 237.27 208.56 226.502 223.383 218.593C235.541 212.113 249.032 207.536 263.489 205.991C270.78 205.209 278.525 205.237 284.425 207.7C289.176 209.68 292.208 212.924 294.864 216.044C317.539 242.697 323.932 272.875 314.255 298.05C309.321 284.579 310.055 269.9 311.484 255.608C312.903 241.374 314.989 227.053 317.857 212.838C328.258 161.405 350.015 110.947 377.306 71.6529C395.528 45.415 415.141 28.0421 440.356 23.7255C461.321 20.1717 486.12 26.188 509.229 41.5619C510.687 42.5276 512.117 43.5802 513.555 44.6231C553.825 73.9609 580.063 129.073 592.124 187.459C599.618 223.721 605.296 260.137 607.933 294.168C609.719 317.171 609.565 339.276 608.705 360.367C608.203 372.544 606.59 384.924 602.592 395.035C599.946 401.737 596.335 407.435 591.023 411.481C583.008 417.594 572.443 418.984 564.544 416.445C555.486 413.528 550.686 401.94 563.25 398.618C578.711 394.543 603.703 411.269 620.197 427.454C646.647 453.286 670.51 480.48 682.33 511.15C686.753 522.642 689.254 534.25 690.21 545.983C693.194 582.882 678.583 620.351 660.215 651.041C651.061 666.347 641.288 681.257 627.874 692.894C618.778 700.774 608.261 707.418 595.978 711.551C589.623 713.695 582.941 714.999 576.326 715.443C564.071 716.264 552.569 714.506 541.358 711.397C522.527 706.182 504.71 696.293 489.423 683.16C479.138 674.324 470.022 663.981 462.335 652.431C456.087 643.026 450.891 632.673 444.721 621.423C437.816 608.83 429.762 595.031 421.438 583.288" stroke="#21F225" stroke-width="0.8162" stroke-miterlimit="10" stroke-linecap="round" stroke-linejoin="round"/>
<path d="M305.067 461.333C225.523 459.575 173.105 585.367 111.831 646.495C92.0152 666.263 78.3217 682.892 64.8116 686.117C56.806 684.032 50.5773 680.874 45.5653 677.561C31.1475 668.069 26.2804 656.683 35.6476 651.488C32.4029 670.86 61.789 691.062 96.3319 695.34C101.122 695.929 105.998 696.199 110.895 696.161C136.399 695.929 160.609 688.667 180.888 677.301C192.235 670.946 202.336 663.279 210.786 655.022C258.627 608.263 259.544 540.423 221.409 495.538C205.214 476.475 183.1 460.908 163.979 444.037C148.895 430.73 135.964 416.466 129.59 398.389C121.932 376.67 125.824 352.731 131.812 329.612C139.392 300.728 149.687 271.197 170.98 245.519C180.811 233.66 193.799 222.497 209 214.385C221.428 207.751 235.286 203.154 250.177 201.783C257.68 201.088 265.657 201.271 271.702 204.004C276.579 206.206 279.65 209.73 282.334 213.13C305.212 242.159 311.141 274.992 300.258 302.65C294.792 288.831 295.342 273.746 296.646 259.077C297.95 244.467 299.958 229.778 302.826 215.206C313.227 162.479 335.641 110.979 366.118 70.9601C386.378 44.3649 409.487 26.4416 437.898 21.5165C461.828 17.4027 489.437 22.8395 515.154 38.0203C516.776 38.9763 518.379 40.0096 519.982 41.0525C564.82 70.12 594.312 126.014 606.972 185.009C614.785 221.406 619.642 258.015 620.936 292.404C621.815 315.735 620.598 338.207 618.435 359.684C617.228 372.073 614.794 384.705 609.811 394.951C606.518 401.72 602.173 407.447 596.04 411.397C586.779 417.365 574.834 418.301 565.843 414.989C555.501 411.184 549.861 398.215 562.724 393.715C578.407 388.23 604.558 404.318 621.911 420.03C649.723 445.109 675.353 471.55 688.824 501.988C693.904 513.48 697.013 525.136 698.52 536.947C703.319 574.396 690.167 612.918 673.238 645.095C664.769 661.183 655.643 677.001 642.626 689.671C633.838 698.227 623.505 705.586 611.154 710.492C604.809 713.012 598.078 714.721 591.328 715.59C578.899 717.174 566.867 716.218 554.989 713.814C535.105 709.777 515.772 700.864 499.017 688.396C487.718 679.985 477.608 669.942 469.003 658.595C461.983 649.344 456.063 639.107 449.515 627.973C442.147 615.448 434.064 601.716 426.146 589.703" stroke="#21F225" stroke-width="0.8162" stroke-miterlimit="10" stroke-linecap="round" stroke-linejoin="round"/>
<path d="M303.677 460.505C220.463 457.144 167.746 581.052 110.625 644.402C91.4848 665.628 78.332 683.464 65.16 687.762C57.7917 686.468 51.9203 684.266 47.1015 681.929C33.3113 675.237 27.8359 666.941 35.3876 664.257C31.4186 685.319 61.6835 707.143 97.1245 712.107C102.03 712.773 107.032 713.131 112.054 713.121C138.234 713.16 162.985 705.55 183.622 693.701C195.191 687.057 205.456 679.051 213.983 670.418C262.345 621.467 261.505 550.285 219.256 503.42C201.275 483.469 176.91 467.284 155.81 449.66C139.19 435.773 124.83 420.873 117.433 401.955C108.549 379.232 111.919 354.172 117.462 330.02C124.473 299.842 134.4 269.046 155.906 242.345C165.805 230.051 179.025 218.482 194.592 210.168C207.291 203.388 221.506 198.763 236.841 197.556C244.547 196.947 252.766 197.285 258.956 200.289C263.968 202.713 267.067 206.517 269.771 210.197C292.842 241.611 298.317 277.09 286.227 307.22C280.24 293.053 280.606 277.573 281.785 262.528C282.963 247.55 284.913 232.485 287.772 217.546C298.163 163.534 321.253 110.952 354.917 70.2385C377.215 43.2666 403.81 24.8122 435.427 19.2788C462.321 14.6048 492.75 19.4623 521.065 34.4402C522.851 35.3866 524.618 36.4005 526.386 37.4338C575.781 66.2309 608.537 122.907 621.796 182.52C629.927 219.062 633.954 255.864 633.906 290.6C633.877 314.26 631.55 337.099 628.121 358.952C626.19 371.564 622.955 384.447 616.987 394.818C613.047 401.665 607.967 407.411 601.024 411.264C590.517 417.097 577.191 417.58 567.109 413.485C555.472 408.801 549.012 394.442 562.165 388.763C578.098 381.888 605.389 397.329 623.583 412.548C652.756 436.865 680.153 462.552 695.286 492.778C701.031 504.251 704.73 515.965 706.806 527.862C713.431 565.862 701.746 605.427 686.227 639.1C678.453 655.981 669.946 672.697 657.353 686.39C648.855 695.632 638.715 703.686 626.316 709.374C619.981 712.281 613.201 714.386 606.306 715.67C593.704 718.007 581.15 717.862 568.606 716.153C547.65 713.295 526.81 705.376 508.597 693.566C496.294 685.589 485.179 675.826 475.658 664.691C467.874 655.594 461.23 645.474 454.296 634.455C446.455 621.988 438.353 608.333 430.849 596.059" stroke="#21F225" stroke-width="0.8162" stroke-miterlimit="10" stroke-linecap="round" stroke-linejoin="round"/>
<path d="M302.272 459.682C215.379 454.718 162.536 576.734 109.404 642.324C91.017 665.027 78.3278 684.042 65.4937 689.411C58.7532 688.909 53.2487 687.663 48.6327 686.292C35.4896 682.39 29.3864 677.185 35.1323 677.012C30.439 699.763 61.5634 723.278 97.9121 728.86C102.943 729.613 108.062 730.038 113.199 730.067C140.055 730.318 165.327 722.38 186.341 710.087C198.122 703.134 208.561 694.8 217.175 685.799C266.069 634.656 263.442 560.134 217.098 511.298C197.311 490.449 170.716 473.665 147.636 455.269C129.481 440.812 113.701 425.255 105.28 405.497C95.1695 381.779 98.0183 355.59 103.117 330.395C109.568 298.923 119.119 266.862 140.828 239.137C150.803 226.399 164.236 214.444 180.189 205.926C193.149 199.002 207.731 194.319 223.51 193.314C231.429 192.783 239.879 193.295 246.214 196.559C251.351 199.215 254.49 203.29 257.213 207.249C280.486 241.039 285.508 279.174 272.201 311.786C265.692 297.281 265.866 281.386 266.918 265.964C267.971 250.609 269.854 235.168 272.722 219.871C283.103 164.566 306.879 110.902 343.72 69.5026C368.075 42.1445 398.137 23.1686 432.95 17.0268C462.81 11.783 496.058 16.0707 526.97 30.8555C528.921 31.7922 530.862 32.7869 532.793 33.8105C586.737 62.3372 622.767 119.796 636.625 180.017C645.065 216.694 648.271 253.69 646.89 288.783C645.944 312.761 642.516 335.967 637.832 358.207C635.167 371.031 631.14 384.174 624.187 394.671C619.6 401.595 613.786 407.361 606.022 411.117C594.27 416.805 579.562 416.824 568.389 411.967C555.468 406.385 548.196 390.664 561.62 383.798C577.824 375.512 606.225 390.316 625.268 405.062C655.804 428.625 684.977 453.53 701.761 483.564C708.164 495.026 712.471 506.789 715.097 518.773C723.557 557.304 713.321 597.931 699.221 633.092C692.143 650.754 684.263 668.378 672.085 683.105C663.887 693.023 653.93 701.782 641.473 708.252C635.148 711.535 628.32 714.046 621.28 715.746C608.494 718.845 595.419 719.502 582.208 718.488C560.181 716.808 537.844 709.884 518.173 698.72C504.856 691.169 492.756 681.705 482.307 670.783C473.751 661.84 466.383 651.836 459.082 640.933C450.767 628.534 442.646 614.956 435.548 602.402" stroke="#21F225" stroke-width="0.8162" stroke-miterlimit="10" stroke-linecap="round" stroke-linejoin="round"/>
<path d="M300.874 458.858C210.311 452.291 157.497 572.385 108.189 640.235C90.6134 664.416 78.3298 684.618 65.824 691.059C59.7112 691.349 54.5737 691.059 50.1605 690.663C37.6547 689.543 30.9335 687.447 34.8735 689.784C29.456 714.226 61.4398 739.431 98.7059 745.621C103.853 746.461 109.097 746.954 114.35 747.021C141.892 747.475 167.705 739.267 189.066 726.491C201.07 719.257 211.663 710.557 220.364 701.199C269.682 647.767 265.375 569.99 214.937 519.185C193.354 497.447 164.518 480.045 139.449 460.895C119.768 445.86 102.549 429.655 93.1049 409.067C81.7773 384.354 84.0853 357.035 88.7496 330.797C94.6307 298.031 103.805 264.705 125.736 235.956C135.779 222.784 149.444 210.433 165.764 201.713C178.994 194.644 193.943 189.931 210.147 189.091C218.269 188.647 226.96 189.313 233.44 192.847C238.703 195.725 241.87 200.081 244.622 204.32C268.089 240.485 272.657 281.276 258.142 316.37C251.102 301.517 251.102 285.216 252.029 269.427C252.956 253.696 254.772 237.887 257.64 222.234C268.012 165.644 292.473 110.87 332.491 68.804C358.903 41.0402 392.441 21.5622 430.451 14.812C463.275 9.00814 499.344 12.7261 532.853 27.2984C534.978 28.2255 537.074 29.2105 539.179 30.2148C597.671 58.4614 636.965 116.712 651.441 177.541C660.2 214.354 662.575 251.542 659.862 286.993C658.007 311.29 653.469 334.872 647.52 357.498C644.121 370.535 639.302 383.939 631.364 394.562C626.13 401.563 619.573 407.357 610.997 411.008C597.999 416.551 581.911 416.116 569.646 410.496C555.441 404.016 547.368 386.923 561.042 378.889C577.526 369.203 607.038 383.369 626.922 397.623C658.809 420.423 689.769 444.556 708.195 474.386C715.264 485.83 720.169 497.65 723.356 509.731C733.66 548.783 724.882 590.472 712.193 627.14C705.809 645.594 698.547 664.116 686.795 679.876C678.886 690.47 669.113 699.944 656.607 707.186C650.292 710.846 643.406 713.753 636.241 715.887C623.271 719.74 609.665 721.199 595.797 720.89C572.698 720.378 548.865 714.458 527.726 703.942C513.404 696.824 500.3 687.65 488.934 676.931C479.615 668.143 471.522 658.255 463.835 647.468C455.047 635.136 446.907 621.626 440.214 608.811" stroke="#21F225" stroke-width="0.8162" stroke-miterlimit="10" stroke-linecap="round" stroke-linejoin="round"/>
<path d="M299.475 458.036C205.243 449.856 152.603 567.98 106.974 638.157C90.2866 663.825 78.3216 685.206 66.1635 692.719C60.6784 693.801 55.9175 694.457 51.6974 695.037C39.8387 696.678 32.4897 697.702 34.6142 702.559C28.4628 728.691 61.3254 755.586 99.4993 762.394C104.762 763.321 110.132 763.871 115.511 763.987C143.728 764.654 170.092 756.165 191.81 742.897C204.045 735.383 214.794 726.335 223.572 716.591C273.431 660.986 267.327 579.849 212.795 527.073C189.405 504.437 158.31 486.476 131.29 466.524C110.045 450.948 91.4357 434.067 80.9676 412.629C68.4136 386.922 70.2001 358.473 74.4202 331.192C79.7315 297.122 88.5386 262.55 110.682 232.768C120.793 219.161 134.689 206.414 151.386 197.491C164.886 190.278 180.193 185.536 196.841 184.87C205.175 184.512 214.089 185.333 220.723 189.138C226.112 192.238 229.318 196.873 232.089 201.393C255.749 239.934 259.863 283.38 244.131 320.955C236.57 305.755 236.377 289.059 237.188 272.883C237.99 256.785 239.747 240.6 242.606 224.579C252.968 166.695 278.134 110.81 321.31 68.0978C349.788 39.9285 386.784 19.9482 428 12.5993C463.788 6.22572 502.687 9.37388 538.784 23.7531C541.073 24.6608 543.342 25.6265 545.602 26.6405C608.681 54.5105 651.095 113.679 666.285 175.087C675.295 212.064 676.898 249.407 672.852 285.225C670.07 309.84 664.45 333.799 657.236 356.802C653.103 370.061 647.493 383.726 638.579 394.464C632.698 401.543 625.397 407.356 616.011 410.91C601.767 416.318 584.297 415.41 570.942 409.027C555.462 401.649 546.587 383.185 560.512 373.972C577.296 362.876 607.889 376.406 628.623 390.186C661.872 412.233 694.609 435.564 714.686 465.221C722.411 476.635 727.925 488.513 731.663 500.691C743.811 540.255 736.481 583.026 725.202 621.19C719.514 640.427 712.87 659.866 701.533 676.65C693.923 687.92 684.324 698.098 671.77 706.123C665.454 710.159 658.521 713.472 651.22 716.021C638.058 720.628 623.939 722.887 609.415 723.283C585.234 723.94 559.923 719.025 537.307 709.155C521.991 702.473 507.882 693.598 495.579 683.072C485.497 674.448 476.671 664.666 468.607 653.995C459.346 641.74 451.176 628.288 444.899 615.203" stroke="#21F225" stroke-width="0.8162" stroke-miterlimit="10" stroke-linecap="round" stroke-linejoin="round"/>
<path d="M298.079 457.219C200.167 447.436 147.856 563.503 105.761 636.075C90.0105 663.221 79.3396 687.392 66.5055 694.374C61.9378 696.866 57.2445 697.841 53.2369 699.405C42.0058 703.799 35.1011 707.99 34.3672 715.33C31.5087 743.856 61.2135 771.736 100.295 779.153C105.684 780.167 111.169 780.785 116.664 780.949C145.557 781.828 172.471 773.059 194.537 759.308C206.995 751.514 217.907 742.118 226.772 731.998C277.172 674.22 269.253 589.712 210.645 534.977C185.45 511.443 152.143 492.863 123.124 472.168C100.363 456.012 80.3053 438.494 68.8135 416.215C55.0427 389.514 56.2981 359.935 60.074 331.62C64.8252 296.257 73.304 260.449 95.6116 229.614C105.819 215.592 119.918 202.43 136.982 193.304C150.753 185.945 166.426 181.185 183.509 180.682C192.046 180.422 201.201 181.387 207.98 185.463C213.494 188.785 216.729 193.71 219.53 198.499C243.334 239.445 247.052 285.518 230.104 325.575C222.021 310.028 221.644 292.925 222.32 276.383C222.996 259.908 224.686 243.356 227.554 226.968C237.907 167.8 263.787 110.776 310.112 67.4257C340.657 38.8315 381.11 18.3684 425.532 10.411C464.285 3.47736 505.993 6.09439 544.698 20.2225C547.151 21.1206 549.585 22.0766 552.018 23.0713C619.607 50.6805 665.343 110.602 681.103 172.619C690.441 209.73 691.194 247.257 685.825 283.442C682.126 308.376 675.405 332.712 666.926 356.101C662.059 369.572 655.657 383.498 645.758 394.362C639.23 401.517 631.196 407.36 620.998 410.817C605.508 416.099 586.667 414.709 572.211 407.563C555.447 399.287 545.78 379.442 559.956 369.061C577.039 356.545 608.724 369.456 630.298 382.754C664.908 404.048 699.422 426.568 721.14 456.06C729.532 467.455 735.645 479.372 739.943 491.655C753.955 531.712 748.064 575.574 738.195 615.245C733.212 635.264 727.176 655.611 716.264 673.428C708.944 685.384 699.519 696.257 686.936 705.055C680.62 709.468 673.638 713.176 666.212 716.151C652.847 721.51 638.216 724.581 623.035 725.672C597.763 727.498 570.985 723.596 546.89 714.364C530.57 708.116 515.467 699.531 502.237 689.217C491.382 680.748 481.832 671.082 473.391 660.527C463.657 648.339 455.468 634.955 449.606 621.599" stroke="#21F225" stroke-width="0.8162" stroke-miterlimit="10" stroke-linecap="round" stroke-linejoin="round"/>
<path d="M296.685 456.39C195.104 445.005 143.246 558.899 104.56 633.991C89.8142 662.605 78.9695 687.172 66.8596 696.027C62.823 698.982 58.5836 701.223 54.7788 703.782C44.1562 710.918 36.1119 718.316 34.1129 728.108C28.0194 757.977 61.0944 787.894 101.094 795.929C106.598 797.029 112.209 797.715 117.819 797.918C147.399 798.999 174.853 789.961 197.267 775.717C209.956 767.643 221.033 757.899 229.966 747.402C280.906 687.452 271.239 599.506 208.488 542.868C181.517 518.407 145.96 499.238 114.942 477.8C90.664 461.054 69.1483 442.919 56.6523 419.781C41.626 392.094 42.3793 361.375 45.7206 332.018C49.902 295.361 57.9946 258.268 80.5242 226.429C90.7896 211.963 105.13 198.414 122.571 189.086C136.612 181.573 152.642 176.793 170.17 176.455C178.919 176.281 188.296 177.401 195.229 181.747C200.859 185.291 204.143 190.496 206.972 195.566C230.989 238.867 234.234 287.616 216.079 330.145C207.465 314.25 206.905 296.741 207.465 279.823C208.015 262.971 209.638 246.052 212.506 229.297C222.848 168.845 249.444 110.681 298.906 66.6936C331.537 37.6745 375.438 16.7286 423.056 8.16285C464.774 0.669059 509.322 2.68736 550.605 16.6417C553.222 17.5301 555.83 18.4668 558.418 19.4518C630.545 46.8389 679.603 107.504 695.942 170.139C705.609 207.386 705.454 245.086 698.82 281.648C694.165 306.891 686.382 331.603 676.648 355.378C671.056 369.072 663.862 383.277 652.969 394.238C645.803 401.49 637.016 407.333 626.007 410.693C609.262 415.821 589.05 413.977 573.502 406.068C555.453 396.884 545.014 375.668 559.422 364.118C576.814 350.173 609.571 362.476 632.004 375.281C667.976 395.812 704.267 417.531 727.636 446.859C736.695 458.215 743.406 470.2 748.254 482.58C764.12 523.129 759.736 568.082 751.209 609.26C746.95 630.061 741.485 651.306 731.016 670.166C723.976 682.797 714.725 694.376 702.113 703.956C695.797 708.755 688.758 712.859 681.206 716.259C667.638 722.372 652.486 726.225 636.668 728.05C610.304 731.005 582.048 728.185 556.496 719.571C539.171 713.777 523.054 705.482 508.916 695.351C497.289 687.056 486.995 677.515 478.207 667.047C467.971 654.956 459.791 641.62 454.335 627.994" stroke="#21F225" stroke-width="0.8162" stroke-miterlimit="10" stroke-linecap="round" stroke-linejoin="round"/>
<path d="M459.006 634.373C473.675 674.758 515.21 709.832 566.054 724.762C618.365 740.126 680.682 732.835 717.252 702.87C748.763 677.057 758.217 639.317 764.185 603.287C773.417 547.586 775.687 486.168 734.085 437.67C709.054 408.497 670.996 387.599 633.662 367.831C610.389 355.499 576.56 343.814 558.85 359.188C544.21 371.897 555.421 394.513 574.755 404.586C591.393 413.258 612.977 415.566 630.977 410.583C660.711 402.355 675.834 377.759 686.331 354.669C713.206 295.607 727.672 230.915 710.753 167.672C693.834 104.428 641.474 43.0101 564.818 15.8548C469.33 -17.9639 354.876 9.00799 287.702 65.984C220.528 122.96 194.57 203.905 192.6 283.285C192.166 300.58 192.919 318.494 202.054 334.737C221.416 289.726 218.655 238.303 194.416 192.645C191.577 187.295 188.255 181.809 182.489 178.043C175.42 173.427 165.802 172.152 156.84 172.239C116.523 172.626 84.085 196.372 65.4568 223.257C42.6953 256.11 34.9891 294.477 31.3774 332.429C28.4803 362.829 28.2872 394.668 44.5012 423.359C75.3841 477.998 155.015 505.655 206.342 550.763C273.1 609.439 284.65 700.677 233.169 762.801C208.264 792.853 166.401 816.908 118.976 814.881C71.5503 812.853 24.3761 776.388 33.8496 740.879C38.34 724.057 53.5304 710.846 67.1854 697.684C107.126 659.191 149.318 437.554 295.273 455.574" stroke="#21F225" stroke-width="0.8162" stroke-miterlimit="10" stroke-linecap="round" stroke-linejoin="round"/>
<path d="M206.5 725.357C188.703 744.147 159.703 746.741 138.868 731.386C119.743 717.298 112.814 691.915 122.109 670.058L192.427 504.695C210.438 462.339 249.924 433.003 295.684 427.981L302.14 427.279L480.371 440.528L576.072 488.806L655.472 610.18L670.201 775.421H625.8L631.05 799.843L201.86 801.918L265.05 663.541L206.515 725.373L206.5 725.357Z" fill="#1A1A1A"/>
<path d="M381.632 801.915H552.063L520.361 732.727L495.466 584.321L453.263 419.812L360.264 429.688L381.632 801.915Z" fill="#808080" stroke="black" stroke-width="1.5" stroke-miterlimit="10"/>
<path d="M627.92 673.569C628.439 671.493 680.396 552.5 680.396 552.5L773.41 555.614L715.486 745.551C710.083 763.287 693.721 775.406 675.176 775.406H625.783" fill="#1A1A1A"/>
<path d="M627.92 673.569C628.439 671.493 680.396 552.5 680.396 552.5L773.41 555.614L715.486 745.551C710.083 763.287 693.721 775.406 675.176 775.406H625.783" stroke="black" stroke-width="1.5" stroke-miterlimit="10"/>
<path d="M680.397 552.5C680.397 552.5 711.061 602.381 739.634 602.381C763.277 602.381 773.412 555.614 773.412 555.614" fill="#808080"/>
<path d="M680.397 552.5C680.397 552.5 711.061 602.381 739.634 602.381C763.277 602.381 773.412 555.614 773.412 555.614L680.397 552.5Z" stroke="black" stroke-width="1.5" stroke-miterlimit="10"/>
<path d="M687.419 490.926C661.7 499.763 664.035 480.791 664.035 480.791L732.369 456.889C733.667 457.667 789.271 482.027 789.271 482.027L757.707 555.093L732.629 576.141L730.843 600.914C730.843 600.914 709.795 597.312 680.413 552.498L683.16 550.514C683.16 550.514 692.746 565.411 708.589 561.198C724.432 556.986 728.172 548.942 728.172 548.942L730.706 533.373L719.96 529.054C719.96 529.054 663.837 529.878 676.506 510.875C676.506 510.875 665.577 514.065 663.99 499.504C663.99 499.504 713.153 482.104 687.434 490.926H687.419Z" fill="white"/>
<path d="M330.958 225.42C355.927 225.42 376.168 205.179 376.168 180.21C376.168 155.241 355.927 135 330.958 135C305.989 135 285.748 155.241 285.748 180.21C285.748 205.179 305.989 225.42 330.958 225.42Z" fill="#1A1A1A" stroke="black" stroke-width="1.5" stroke-miterlimit="10"/>
<path d="M370.398 337.652C370.398 337.652 338.376 326.357 338.376 244.897C338.376 163.436 406.862 135.168 457.964 159.437C509.066 183.706 465.809 307.247 465.809 307.247L370.398 337.637V337.652Z" fill="#1A1A1A" stroke="black" stroke-width="1.5" stroke-miterlimit="10"/>
<path d="M370.398 257.779V445.198H449.019L461.932 367.981L370.398 257.779Z" fill="white" stroke="black" stroke-width="1.5" stroke-miterlimit="10"/>
<path d="M453.262 368.821C497.265 368.821 532.937 327.395 532.937 276.294C532.937 225.193 497.265 183.768 453.262 183.768C409.259 183.768 373.588 225.193 373.588 276.294C373.588 327.395 409.259 368.821 453.262 368.821Z" fill="white" stroke="black" stroke-width="1.5" stroke-miterlimit="10"/>
<path d="M302.126 427.279L295.669 427.981C249.91 433.003 210.439 462.324 192.413 504.695L122.094 670.058C112.799 691.915 119.728 717.298 138.853 731.386C159.688 746.741 188.704 744.147 206.485 725.357L348.496 575.364L274.575 508.862L171.7 620.574" fill="#1A1A1A"/>
<path d="M302.126 427.279L295.669 427.981C249.91 433.003 210.439 462.324 192.413 504.695L122.094 670.058C112.799 691.915 119.728 717.298 138.853 731.386C159.688 746.741 188.704 744.147 206.485 725.357L348.496 575.364L274.575 508.862L171.7 620.574" stroke="black" stroke-width="1.5" stroke-miterlimit="10"/>
<path d="M265.035 663.522L201.845 801.915H381.632L388.379 513.01" fill="#1A1A1A"/>
<path d="M265.035 663.522L201.845 801.915H381.632L388.379 513.01" stroke="black" stroke-width="1.5" stroke-miterlimit="10"/>
<path d="M495.464 584.322L520.359 732.728L552.061 801.917L631.034 799.826L586.861 594.594" fill="#1A1A1A"/>
<path d="M495.464 584.322L520.359 732.728L552.061 801.917L631.034 799.826L586.861 594.594" stroke="black" stroke-width="1.5" stroke-miterlimit="10"/>
<path d="M480.355 440.527L543.332 458.584C577.461 468.368 605.362 492.988 619.313 525.636L655.457 610.18" fill="#1A1A1A"/>
<path d="M480.355 440.527L543.332 458.584C577.461 468.368 605.362 492.988 619.313 525.636L655.457 610.18" stroke="black" stroke-width="1.5" stroke-miterlimit="10"/>
<path d="M495.467 584.321L525.032 477.157L453.264 419.812L495.467 584.321Z" fill="#333333" stroke="black" stroke-width="1.5" stroke-miterlimit="10"/>
<path d="M368.124 543.141L348.495 799.825" stroke="black" stroke-width="1.5" stroke-miterlimit="10"/>
<path d="M505.234 548.943L536.463 725.006L580.117 799.827" stroke="black" stroke-width="1.5" stroke-miterlimit="10"/>
<path d="M668.446 438.97V456.218C668.446 465.361 673.162 473.862 680.916 478.716V542.318C680.916 555.613 691.692 566.404 705.001 566.404C716.922 566.404 727.042 557.689 728.812 545.905L741.71 460.018L750.379 456.844C754.775 455.241 757.691 451.059 757.691 446.373V408.566C757.691 402.537 752.806 397.652 746.777 397.652H625.968C617.787 397.652 611.162 404.277 611.162 412.458C611.162 420.639 617.787 427.263 625.968 427.263H656.754C663.21 427.263 668.446 432.499 668.446 438.955V438.97Z" fill="#00FF00" stroke="black" stroke-width="1.5" stroke-miterlimit="10"/>
<path d="M744.641 408.184H744.626C740.647 408.184 737.422 411.409 737.422 415.388V438.008C737.422 441.987 740.647 445.213 744.626 445.213H744.641C748.62 445.213 751.845 441.987 751.845 438.008V415.388C751.845 411.409 748.62 408.184 744.641 408.184Z" stroke="black" stroke-width="1.5" stroke-miterlimit="10"/>
<path d="M650.785 427.279H719.363" stroke="black" stroke-width="1.5" stroke-miterlimit="10"/>
<path d="M756.79 467.774L763.537 445.199C763.537 445.199 711.58 440.88 717.548 414.81C722.478 393.243 791.072 429.096 791.072 429.096L785.882 480.793" fill="white"/>
<path d="M756.79 467.774L763.537 445.199C763.537 445.199 711.58 440.88 717.548 414.81C722.478 393.243 791.072 429.096 791.072 429.096L785.882 480.793" stroke="black" stroke-width="1.5" stroke-miterlimit="10"/>
<path d="M720.92 504.693L676.489 510.86C676.489 510.86 670.261 523.391 682.731 525.345C695.202 527.298 720.92 529.115 720.92 529.115L747.158 540.547" fill="white"/>
<path d="M720.92 504.693L676.489 510.86C676.489 510.86 670.261 523.391 682.731 525.345C695.202 527.298 720.92 529.115 720.92 529.115L747.158 540.547" stroke="black" stroke-width="1.5" stroke-miterlimit="10"/>
<path d="M274.591 508.861C274.591 508.861 275.033 602.197 348.511 575.364L274.591 508.861Z" fill="#808080"/>
<path d="M274.591 508.861C274.591 508.861 275.033 602.197 348.511 575.364" stroke="black" stroke-width="1.5" stroke-miterlimit="10"/>
<path d="M360.584 446.421L318.488 542.748C314.458 552.699 318.091 564.101 327.112 569.901C337.674 576.678 351.731 573.427 358.249 562.697L401.032 492.134L421.592 489.066C429.697 487.861 436.87 483.129 441.159 476.138L446.807 466.935L456.285 473.116C465.092 478.855 476.891 476.199 482.37 467.225C487.804 458.311 484.874 446.68 475.853 441.429L387.341 389.794C376.962 383.734 363.637 387.794 358.386 398.616L349.518 416.917C345.214 425.785 347.793 436.454 355.654 442.391L360.569 446.466L360.584 446.421Z" fill="#00FF00" stroke="black" stroke-width="1.5" stroke-miterlimit="10"/>
<path d="M299.668 572.479C294.509 567.259 286.389 557.735 280.741 543.601C274.941 529.085 274.377 516.249 274.59 508.861C280.543 489.553 286.496 470.26 292.433 450.952L308.399 421.494L365.529 393.455L428.704 431.781C428.704 431.781 425.972 463.728 370.383 424.684L338.361 440.527L381.617 452.021L400.971 494.605C400.971 494.605 403.444 510.342 390.882 508.861C390.882 508.861 394.698 532.169 377.816 530.428C377.816 530.428 384.731 551.187 365.377 550.942L340.345 527.269L323.372 530.703L330.958 579.79C327.493 580.355 321.632 580.874 314.687 579.271C307.635 577.638 302.553 574.555 299.683 572.51L299.668 572.479Z" fill="white" stroke="black" stroke-width="1.5" stroke-miterlimit="10"/>
<path d="M342.435 564.664C342.435 564.664 309.375 611.935 322.456 643.072C335.536 674.209 316.869 753.762 316.869 753.762" stroke="black" stroke-width="1.5" stroke-miterlimit="10"/>
<path d="M699.596 561.199C699.596 561.199 662.964 594.26 669.115 634.219C675.266 674.179 676.701 709.162 663.88 734.912" stroke="black" stroke-width="1.5" stroke-miterlimit="10"/>
<path d="M376.778 248.924L378.991 254.999C383.143 266.37 394.392 273.543 406.435 272.521L433.237 270.247C444.257 269.316 454.713 264.95 463.138 257.792L464.496 256.632C468.648 253.106 473.99 251.335 479.424 251.671C486.888 252.144 493.543 256.555 496.885 263.241C499.572 268.629 504.334 272.689 510.058 274.536L520.482 277.878C528.389 280.412 536.936 276.627 540.371 269.071L560.427 224.991L399.612 183.795L379.495 218.275C374.061 227.586 373.069 238.819 376.747 248.939L376.778 248.924Z" fill="#808080" stroke="black" stroke-width="1.5" stroke-miterlimit="10"/>
<path d="M528.365 164.231L443.555 158.092C420.484 156.422 400.428 173.771 398.758 196.842L398.675 197.983C397.005 221.054 414.354 241.111 437.425 242.781L522.235 248.919C545.306 250.589 565.362 233.24 567.032 210.17L567.115 209.028C568.785 185.957 551.436 165.901 528.365 164.231Z" fill="#00FF00" stroke="black" stroke-width="1.5" stroke-miterlimit="10"/>
<path d="M528.365 164.231L443.555 158.092C420.484 156.422 400.428 173.771 398.758 196.842L398.675 197.983C397.005 221.054 414.354 241.111 437.425 242.781L522.235 248.919C545.306 250.589 565.362 233.24 567.032 210.17L567.115 209.028C568.785 185.957 551.436 165.901 528.365 164.231Z" fill="#00FF00" stroke="black" stroke-width="1.5" stroke-miterlimit="10"/>
<path d="M362.094 280.323V248.438C362.094 248.285 362.125 248.132 362.186 247.995L382.044 200.938C382.715 199.351 384.257 198.328 385.982 198.328C388.546 198.328 390.53 200.572 390.225 203.121L387.309 226.642L364.277 280.766C363.789 281.895 362.11 281.559 362.11 280.323H362.094Z" fill="#00FF00" stroke="black" stroke-width="1.5" stroke-miterlimit="10"/>
<path d="M377.097 274.047C374.228 279.786 369.145 283.602 363.345 283.602C354.37 283.602 347.105 274.475 347.105 263.21C347.105 251.946 354.37 242.818 363.345 242.818C368.947 242.818 373.892 246.39 376.807 251.808" fill="white"/>
<path d="M377.097 274.047C374.228 279.786 369.145 283.602 363.345 283.602C354.37 283.602 347.105 274.475 347.105 263.21C347.105 251.946 354.37 242.818 363.345 242.818C368.947 242.818 373.892 246.39 376.807 251.808" stroke="black" stroke-width="1.5" stroke-miterlimit="10"/>
<path d="M482.904 252.193L489.147 265.915" stroke="black" stroke-width="1.5" stroke-miterlimit="10"/>
<path d="M458.055 474.123L412.234 444.756" stroke="black" stroke-width="1.5" stroke-miterlimit="10"/>
<path d="M220.542 710.52L348.495 575.363" stroke="black" stroke-width="1.5" stroke-miterlimit="10"/>
<path d="M377.816 530.414L348.495 502.07H323.417" fill="white"/>
<path d="M377.816 530.414L348.495 502.07H323.417" stroke="black" stroke-width="1.5" stroke-miterlimit="10"/>
<path d="M390.881 508.861L363.331 474.121H329.645" fill="white"/>
<path d="M390.881 508.861L363.331 474.121H329.645" stroke="black" stroke-width="1.5" stroke-miterlimit="10"/>
<path d="M767.23 506.359L762.316 514.57L719.364 501.001L725.302 478.717L767.23 492.53V506.359Z" fill="white"/>
<path d="M761.352 523.087L756.452 531.299L713.486 517.73L719.423 495.445L761.352 509.259V523.087Z" fill="white"/>
<path d="M788.799 481.829L756.456 496.65L680.276 492.834L670.584 478.502L732.355 456.889L788.799 481.829Z" fill="white"/>
<path d="M723.531 478.717L663.988 499.505C663.988 499.505 661.958 511.457 676.504 510.877L720.936 504.71L759.384 514.586" fill="white"/>
<path d="M723.531 478.717L663.988 499.505C663.988 499.505 661.958 511.457 676.504 510.877L720.936 504.71L759.384 514.586" stroke="black" stroke-width="1.5" stroke-miterlimit="10"/>
<path d="M764.056 491.704L723.532 478.715C723.532 478.715 713.138 482.088 687.419 490.926C661.7 499.763 664.035 480.791 664.035 480.791L732.369 456.889C733.667 457.667 789.271 482.027 789.271 482.027L757.707 555.093L732.629 576.141L730.843 600.914" stroke="black" stroke-width="1.5" stroke-miterlimit="10"/>
<path d="M675.878 267.027C675.878 278.826 666.308 288.396 654.509 288.396C666.308 288.396 675.878 297.966 675.878 309.765C675.878 297.966 685.448 288.396 697.247 288.396C685.448 288.396 675.878 278.826 675.878 267.027Z" fill="#21F225" stroke="#21F225" stroke-width="1.5" stroke-linejoin="bevel"/>
<path d="M242.398 308.238C242.398 320.037 232.829 329.607 221.03 329.607C232.829 329.607 242.398 339.177 242.398 350.976C242.398 339.177 251.968 329.607 263.767 329.607C251.968 329.607 242.398 320.037 242.398 308.238Z" fill="#21F225" stroke="#21F225" stroke-width="1.5" stroke-linejoin="bevel"/>
</svg>
