<svg width="648" height="505" viewBox="0 0 648 505" fill="none" xmlns="http://www.w3.org/2000/svg">
<g clip-path="url(#clip0_2_2864)">
<path d="M227.895 196.331L233.662 211.038H245.742C253.731 205.585 256.354 194.667 256.354 194.667L263.153 193.064C263.153 193.064 270.438 198.529 275.137 194.133L266.638 188.473L256.257 188.85L255.735 187.635L268.75 182.607C268.75 182.607 278.342 184.781 281.851 180.482L278.209 178.891L281.038 177.92L267.986 173.487L252.663 178.551L252.287 177.677L261.041 167.961C261.041 167.961 271.033 169.625 275.926 163.54L256.305 164.682L244.164 176.827C244.164 176.827 245.706 168.75 244.686 166.321C243.666 163.892 239.49 162.435 239.49 162.435C239.49 162.435 239.49 172.406 238.81 175.114C237.693 179.766 231.525 183.615 231.525 183.615V195.031L227.895 196.331Z" fill="white"/>
<path d="M227.895 196.331L231.355 194.97V183.554C231.355 183.554 238.093 178.757 238.64 175.053C239.186 171.349 239.32 162.374 239.32 162.374C239.32 162.374 245.39 163.297 244.795 168.884C244.2 174.47 243.994 176.765 243.994 176.765C243.994 176.765 248.341 179.619 246.847 188.91" stroke="black" stroke-width="1.16" stroke-linecap="round" stroke-linejoin="round"/>
<path d="M233.662 211.038H245.743C245.743 211.038 252.421 208.148 256.354 194.667L263.154 193.064C263.154 193.064 270.099 199.318 275.137 194.133L266.638 188.473L256.257 188.85" stroke="black" stroke-width="1.16" stroke-linecap="round" stroke-linejoin="round"/>
<path d="M244.019 176.814L256.16 164.669L275.781 163.528C275.781 163.528 271.883 169.782 260.895 167.948L252.809 177.336" stroke="black" stroke-width="1.16" stroke-linecap="round" stroke-linejoin="round"/>
<path d="M251.17 175.502C251.17 175.502 255.905 185.218 256.294 190.61" stroke="black" stroke-width="1.16" stroke-linecap="round" stroke-linejoin="round"/>
<path d="M252.566 178.575L267.889 173.511L280.892 177.944C280.892 177.944 276.133 181.502 268.156 178.356L254.667 184.089" stroke="black" stroke-width="1.16" stroke-linecap="round" stroke-linejoin="round"/>
<path d="M278.124 179.182L281.766 180.506C281.766 180.506 279.678 185.169 268.751 182.607L255.832 187.611" stroke="black" stroke-width="1.16" stroke-linecap="round" stroke-linejoin="round"/>
<path d="M247.782 439.248C247.782 439.248 234.949 433.055 228.198 445.321L229.509 452.462C235.798 448.358 243.14 446.164 250.648 446.146L247.782 439.248Z" fill="white" stroke="black" stroke-width="1.16" stroke-linecap="round" stroke-linejoin="round"/>
<path d="M229.51 452.474L231.574 463.683L245.986 476.071L256.452 460.198L250.648 446.146C243.139 446.168 235.796 448.366 229.51 452.474Z" fill="#21F225" stroke="black" stroke-width="1.16" stroke-linecap="round" stroke-linejoin="round"/>
<path d="M230.408 458.291L239.478 466.962C239.478 466.962 251.097 456.907 256.622 456.312C256.622 456.312 280.261 491.009 297.21 493.171V500.263C297.21 500.263 261.15 507.756 246.957 502.437C232.764 497.118 212.087 486.868 212.087 486.868L230.408 458.291Z" fill="black" stroke="black" stroke-width="1.16" stroke-linecap="round" stroke-linejoin="round"/>
<path d="M321.821 325.453C321.821 325.453 307.604 326.254 307.604 340.257L312.205 345.88C315.721 339.232 321.09 333.748 327.661 330.092L321.821 325.453Z" fill="white" stroke="black" stroke-width="1.16" stroke-linecap="round" stroke-linejoin="round"/>
<path d="M312.241 345.88L319.526 354.685L338.127 358.535L339.596 339.577L327.746 330.128C321.162 333.767 315.776 339.239 312.241 345.88Z" fill="#21F225" stroke="black" stroke-width="1.16" stroke-linecap="round" stroke-linejoin="round"/>
<path d="M27.1367 235.667C27.1367 235.667 35.2958 247.083 49.8898 233.056C49.9019 233.056 42.702 225.114 27.1367 235.667Z" fill="black" stroke="black" stroke-width="1.16" stroke-linecap="round" stroke-linejoin="round"/>
<path d="M119.011 97.3149C119.011 97.3149 77.0621 101.08 63.1601 107.48C49.2582 113.88 0.716797 169.114 0.716797 169.114L27.1365 235.667C27.1365 235.667 41.5241 225.696 49.8896 233.056L35.8419 174.106L56.6523 155.209C56.6523 155.209 46.4292 217.438 86.8845 296.087L85.6703 259.859L121.233 270.899L164.14 230.02L234.184 214.754C234.184 214.754 233.055 198.869 224.022 192.408L167.54 200.071C167.54 200.071 167.819 194.982 163.582 194.982C163.582 194.982 156.528 159.678 158.507 140.477L136.191 112.921L119.011 97.3149Z" fill="#1D1D1B" stroke="black" stroke-width="1.16" stroke-linecap="round" stroke-linejoin="round"/>
<path d="M29.4918 234.234V244.545C29.4918 244.545 22.9112 247.266 22.4862 260.868L12.6152 268.154C12.6152 268.154 5.45181 268.288 5.17256 269.867C4.99717 270.814 4.99717 271.786 5.17256 272.733H13.7808L25.8008 265.446L18.9045 276.121C18.9045 276.121 7.60084 275.538 6.03459 277.834C6.03459 277.834 5.31826 285.849 6.88451 286.274C8.45075 286.699 23.8825 285.558 23.8825 285.558L34.4698 275.405L27.1364 288.898L14.6064 296.099C14.6064 296.099 14.6065 299.633 16.027 299.633C17.4475 299.633 32.6243 293.051 32.6243 293.051L43.6487 276.048L48.226 245.845L46.2956 231.016C46.2956 231.016 39.6542 228.526 29.4918 234.234Z" fill="white" stroke="black" stroke-width="1.16" stroke-linecap="round" stroke-linejoin="round"/>
<path d="M5.86523 282.036L21.9162 280.748C21.9162 280.748 29.6382 272.016 31.7872 268.154" stroke="black" stroke-width="1.16" stroke-linecap="round" stroke-linejoin="round"/>
<path d="M115.308 54.4079L117.93 41.0487C117.93 41.0487 142.286 18.4839 139.421 30.3007C139.421 30.3007 174.861 10.432 178.091 19.3705C178.091 19.3705 194.36 35.7779 192.952 51.2381C192.952 51.2381 195.016 55.4645 191.471 62.3991L123.127 67.9006L115.308 54.4079Z" fill="#1A1A1A"/>
<path d="M124.425 87.7817L119.01 97.3153C119.01 97.3153 113.862 96.1008 113.862 100.06C113.862 104.019 122.264 135.425 132.912 134.915C143.56 134.405 136.178 112.933 136.178 112.933L140.61 104.639C140.61 104.639 127.789 97.8375 124.425 87.7817Z" fill="white" stroke="black" stroke-width="1.16" stroke-linecap="round" stroke-linejoin="round"/>
<path d="M126.126 63.4922C126.126 63.4922 119.205 52.9021 115.308 54.408C111.41 55.914 111.471 80.1669 122.592 74.4589C122.592 74.4589 120.698 89.2754 132.087 98.3839C143.476 107.492 151.258 112.253 162.088 105.61C168.038 102.023 173.741 98.0431 179.159 93.696C179.159 93.696 187.755 66.2248 186.857 54.2623C186.857 54.2623 175.225 35.851 170.745 34.8308C166.265 33.8106 133.641 39.4822 133.641 39.4822C133.641 39.4822 129.477 59.0837 126.126 63.4922Z" fill="white" stroke="black" stroke-width="1.16" stroke-linecap="round" stroke-linejoin="round"/>
<path d="M164.128 85.0975L169.142 87.7815V82.4985" stroke="black" stroke-width="1.16" stroke-linecap="round" stroke-linejoin="round"/>
<path d="M133.896 71.1553C133.896 71.1553 132.038 55.3672 138.303 46.0522C138.303 46.0522 154.087 41.6437 157.353 42.336C160.413 42.9918 186.153 56.5209 199.108 68.7506C199.836 69.4398 200.333 70.3373 200.53 71.3201C200.728 72.3029 200.617 73.3228 200.213 74.24C198.039 79.3651 193.608 89.2023 191.046 90.9025C187.561 93.2343 178.965 95.3232 178.965 95.3232C178.965 95.3232 171.304 82.5349 166.423 80.6767C161.542 78.8186 140.865 76.4989 133.896 71.1553Z" fill="#3C3C3B" stroke="black" stroke-width="1.16" stroke-linecap="round" stroke-linejoin="round"/>
<path d="M155.835 49.8173L152.12 64.0387C151.9 64.8642 151.961 65.7394 152.293 66.5265C152.625 67.3136 153.209 67.968 153.953 68.3865L185.752 86.3849C186.202 86.6418 186.699 86.8055 187.213 86.8662C187.728 86.9269 188.249 86.8835 188.746 86.7384C189.244 86.5934 189.707 86.3497 190.108 86.0219C190.509 85.6941 190.841 85.2889 191.082 84.8304L196.691 74.2281C197.147 73.3719 197.263 72.3757 197.018 71.4375C196.773 70.4992 196.184 69.6875 195.368 69.1638L161.675 47.5462C161.161 47.2156 160.577 47.0114 159.969 46.9502C159.361 46.8889 158.747 46.9725 158.177 47.1939C157.608 47.4154 157.099 47.7686 156.692 48.2245C156.285 48.6805 155.991 49.2262 155.835 49.8173Z" fill="#21F225" stroke="black" stroke-width="1.16" stroke-linecap="round" stroke-linejoin="round"/>
<path d="M115.308 46.3076L140.999 46.8177C141.638 46.8302 142.264 46.9962 142.825 47.3018C143.387 47.6075 143.866 48.0437 144.223 48.5737C144.58 49.1036 144.805 49.7118 144.878 50.3468C144.95 50.9818 144.869 51.625 144.641 52.2221C144.343 53.0206 143.796 53.702 143.081 54.1656C142.366 54.6293 141.521 54.8505 140.671 54.7967L113.851 53.2422L115.308 46.3076Z" fill="#21F225" stroke="black" stroke-width="1.16" stroke-linecap="round" stroke-linejoin="round"/>
<path d="M139.202 52.2096C140.114 52.2096 140.853 51.4701 140.853 50.5579C140.853 49.6457 140.114 48.9062 139.202 48.9062C138.29 48.9062 137.551 49.6457 137.551 50.5579C137.551 51.4701 138.29 52.2096 139.202 52.2096Z" fill="white" stroke="black" stroke-width="1.16" stroke-linecap="round" stroke-linejoin="round"/>
<path d="M140.61 151.031C134.94 182.474 144.92 202.683 144.92 202.683C149.922 202.683 149.947 211.657 149.947 211.657L164.128 230.008" stroke="black" stroke-width="1.16" stroke-linecap="round" stroke-linejoin="round"/>
<path d="M85.6582 259.872V277.712C85.6582 277.712 140.574 332.181 193.644 337.5L200.601 346.779C200.601 346.779 210.715 392.649 214.879 408.195C217.623 418.445 228.235 449.948 228.235 449.948C228.235 449.948 233.383 443.147 238.932 441.945C242.04 441.277 251.595 440.73 251.595 440.73L234.172 323.911C227.312 311.62 191.167 287.61 191.167 287.61L229.898 272.842L239.526 275.089L308.344 342.055L316.843 332.837L325.476 325.283L256.269 235.121L160.959 233.068L121.245 270.911L85.6582 259.872Z" fill="#3C3C3B"/>
<path d="M85.6582 259.872V277.712C85.6582 277.712 148.733 337.5 193.644 337.5L200.601 346.779C200.601 346.779 216.385 423.946 228.235 449.948C228.235 449.948 232.824 439.516 251.595 440.682C251.595 440.682 234.366 332.29 234.172 323.862C233.978 315.433 151.489 259.872 151.489 259.872" stroke="black" stroke-width="1.16" stroke-linecap="round" stroke-linejoin="round"/>
<path d="M160.935 233.068L256.245 235.121L325.451 325.283C325.451 325.283 311.185 337.051 308.331 342.055L239.49 275.089L229.898 272.842L191.167 287.562" stroke="black" stroke-width="1.16" stroke-linecap="round" stroke-linejoin="round"/>
<path d="M311.379 347.338L322.465 350.665C322.465 350.665 330.077 333.869 337.836 331.234L362.118 348.819L386.401 349.767L389.412 353.568C389.412 353.568 367.934 379.667 306.146 376.922L309.959 367.097L311.379 347.338Z" fill="black" stroke="black" stroke-width="1.16" stroke-linecap="round" stroke-linejoin="round"/>
<g style="mix-blend-mode:multiply">
<path d="M588.957 311.511L295.146 356.276C248.645 363.356 208.129 327.651 208.129 276V81.1748C208.129 29.5235 248.645 -6.18185 295.146 0.898498L588.969 45.6152C613.252 49.3193 632.071 79.8996 632.071 114.087V243.039C632.059 277.238 613.3 307.807 588.957 311.511Z" fill="#95FC95"/>
</g>
<path d="M502.194 263.138L433.595 272.235C421.454 273.85 411.389 264.948 411.389 252.378V72.4791C411.389 59.885 421.478 51.0073 433.595 52.6104L502.194 61.7189C512.114 63.0305 519.957 72.977 519.957 83.9679V240.901C519.957 251.832 512.114 261.827 502.194 263.138Z" fill="white" stroke="black" stroke-width="0.97" stroke-linecap="round" stroke-linejoin="round"/>
<path d="M469.376 128.381C455.753 127.798 444.353 115.289 444.353 100.448C444.353 85.6196 455.753 74.8351 469.376 76.3168C482.549 77.7498 492.918 90.186 492.918 104.14C492.918 118.082 482.549 128.952 469.376 128.381Z" fill="white" stroke="black" stroke-width="0.97" stroke-linecap="round" stroke-linejoin="round"/>
<path d="M431.543 149.756L501.077 150.825" stroke="black" stroke-width="0.97" stroke-linecap="round" stroke-linejoin="round"/>
<path d="M431.543 162.423H501.077" stroke="black" stroke-width="0.97" stroke-linecap="round" stroke-linejoin="round"/>
<path d="M431.543 175.09L501.077 174.021" stroke="black" stroke-width="0.97" stroke-linecap="round" stroke-linejoin="round"/>
<path d="M431.543 187.745L501.077 185.631" stroke="black" stroke-width="0.97" stroke-linecap="round" stroke-linejoin="round"/>
<path d="M493.537 227.749L441.584 232.17C440.446 232.265 439.3 232.118 438.223 231.738C437.145 231.358 436.16 230.753 435.333 229.965C434.506 229.177 433.855 228.222 433.424 227.164C432.993 226.106 432.79 224.968 432.83 223.826C432.836 221.42 433.735 219.102 435.352 217.32C436.97 215.539 439.19 214.421 441.584 214.183L493.537 210.904C497.714 210.637 501.077 214.159 501.077 218.762C501.077 223.377 497.714 227.385 493.537 227.749Z" fill="#1D1D1B" stroke="black" stroke-width="0.97" stroke-linecap="round" stroke-linejoin="round"/>
<path d="M501.077 72.7222L509.054 82.5958" stroke="black" stroke-width="0.97" stroke-linecap="round" stroke-linejoin="round"/>
<path d="M509.054 73.6694L501.077 81.7456" stroke="black" stroke-width="0.97" stroke-linecap="round" stroke-linejoin="round"/>
<path d="M596.496 241.351L544.227 248.286C534.988 249.5 527.29 242.748 527.29 233.153V96.04C527.29 86.4336 534.988 79.669 544.227 80.8956L596.496 87.8788C604.06 88.8868 610.046 96.4651 610.046 104.881V224.482C610.046 232.765 604.06 240.355 596.496 241.351Z" fill="white" stroke="black" stroke-width="0.74" stroke-linecap="round" stroke-linejoin="round"/>
<path d="M571.485 138.644C561.104 138.206 552.423 128.661 552.423 117.354C552.423 106.047 561.104 97.8254 571.485 98.9548C581.526 100.048 589.43 109.533 589.43 120.159C589.43 130.798 581.526 139.081 571.485 138.644Z" fill="white" stroke="black" stroke-width="0.74" stroke-linecap="round" stroke-linejoin="round"/>
<path d="M542.649 154.941L595.647 155.743" stroke="black" stroke-width="0.74" stroke-linecap="round" stroke-linejoin="round"/>
<path d="M542.649 164.584H595.647" stroke="black" stroke-width="0.74" stroke-linecap="round" stroke-linejoin="round"/>
<path d="M542.649 174.24L595.647 173.438" stroke="black" stroke-width="0.74" stroke-linecap="round" stroke-linejoin="round"/>
<path d="M542.649 183.895L595.647 182.279" stroke="black" stroke-width="0.74" stroke-linecap="round" stroke-linejoin="round"/>
<path d="M589.904 214.378L550.311 217.742C549.443 217.816 548.569 217.706 547.747 217.417C546.925 217.129 546.174 216.669 545.543 216.069C544.912 215.469 544.415 214.741 544.086 213.935C543.756 213.128 543.602 212.261 543.633 211.39C543.628 209.553 544.31 207.78 545.546 206.42C546.782 205.061 548.481 204.212 550.311 204.043L589.904 201.541C593.097 201.347 595.647 203.97 595.647 207.528C595.694 209.175 595.135 210.782 594.077 212.045C593.018 213.308 591.533 214.138 589.904 214.378Z" fill="#1D1D1B" stroke="black" stroke-width="0.74" stroke-linecap="round" stroke-linejoin="round"/>
<path d="M595.646 96.2222L601.729 103.752" stroke="black" stroke-width="0.74" stroke-linecap="round" stroke-linejoin="round"/>
<path d="M601.729 96.9385L595.646 103.096" stroke="black" stroke-width="0.74" stroke-linecap="round" stroke-linejoin="round"/>
<path d="M376.64 285.631L293.629 296.646C278.962 298.589 266.76 287.853 266.76 272.599V54.906C266.76 39.6645 278.962 28.9286 293.629 30.8717L376.64 41.8748C388.635 43.4657 398.13 55.5133 398.13 68.8117V258.706C398.13 272.004 388.635 284.04 376.64 285.631Z" fill="white" stroke="black" stroke-width="1.17" stroke-linecap="round" stroke-linejoin="round"/>
<path d="M336.925 122.564C320.437 121.847 306.645 106.703 306.645 88.7532C306.645 70.8034 320.437 57.7479 336.925 59.5453C352.867 61.282 365.409 76.3292 365.409 93.2103C365.409 110.104 352.867 123.244 336.925 122.564Z" fill="white" stroke="black" stroke-width="1.17" stroke-linecap="round" stroke-linejoin="round"/>
<path d="M291.14 148.432L375.28 149.707" stroke="black" stroke-width="1.17" stroke-linecap="round" stroke-linejoin="round"/>
<path d="M291.14 163.759H375.28" stroke="black" stroke-width="1.17" stroke-linecap="round" stroke-linejoin="round"/>
<path d="M291.14 179.073L375.28 177.798" stroke="black" stroke-width="1.17" stroke-linecap="round" stroke-linejoin="round"/>
<path d="M291.14 194.399L375.28 191.837" stroke="black" stroke-width="1.17" stroke-linecap="round" stroke-linejoin="round"/>
<path d="M366.174 242.796L303.293 248.189C301.915 248.306 300.528 248.13 299.222 247.672C297.917 247.213 296.724 246.483 295.723 245.529C294.721 244.575 293.933 243.419 293.411 242.138C292.888 240.857 292.644 239.479 292.694 238.096C292.687 235.179 293.771 232.365 295.732 230.205C297.693 228.046 300.39 226.698 303.293 226.425L366.174 222.454C371.225 222.138 375.28 226.401 375.28 231.975C375.28 237.513 371.225 242.371 366.174 242.796Z" fill="#1D1D1B" stroke="black" stroke-width="1.17" stroke-linecap="round" stroke-linejoin="round"/>
<path d="M375.279 55.1973L384.944 67.1476" stroke="black" stroke-width="1.17" stroke-linecap="round" stroke-linejoin="round"/>
<path d="M384.944 56.3389L375.279 66.1275" stroke="black" stroke-width="1.17" stroke-linecap="round" stroke-linejoin="round"/>
<g style="mix-blend-mode:multiply">
<path d="M604.898 311.511L311.088 356.276C264.586 363.356 224.07 327.651 224.07 276V81.1748C224.07 29.5235 264.586 -6.18185 311.088 0.898498L604.91 45.6152C629.193 49.3193 648.012 79.8996 648.012 114.087V243.039C648 277.238 629.242 307.807 604.898 311.511Z" fill="#21F225"/>
</g>
<path d="M117.42 98.1898C113.778 91.7288 109.819 85.3528 105.679 79.159C101.532 72.955 97.0744 66.9641 92.3237 61.2092C87.6911 55.4502 82.4613 50.1986 76.7219 45.5426C73.9032 43.2954 70.7904 41.4444 67.4701 40.041C64.3332 38.6501 60.8248 38.3342 57.4899 39.1423C57.0892 39.2516 56.7007 39.4095 56.2758 39.5431L55.0616 40.0896C54.2485 40.446 53.4578 40.8515 52.694 41.3041C51.1481 42.1941 49.6888 43.2268 48.3353 44.3888C45.6083 46.7269 43.2828 49.4962 41.4511 52.5865C37.8534 58.9004 35.9503 66.038 35.9267 73.3053C35.824 80.6839 36.9566 88.0276 39.2778 95.0321C41.5652 102.09 44.5888 108.888 48.2988 115.314C52.0176 121.765 56.163 127.96 60.7074 133.859C65.2604 139.773 70.1898 145.384 75.2771 150.861L79.1866 154.881C80.4979 156.217 81.7849 157.565 83.1569 158.852C85.8401 161.439 88.5477 164.014 91.2066 166.734C92.53 168.095 93.9142 169.382 95.189 170.791L98.8922 175.102C99.5114 175.819 100.106 176.523 100.738 177.264L102.425 179.547L105.801 184.125L108.848 188.983C109.346 189.797 109.88 190.574 110.342 191.412L111.689 193.914C112.563 195.602 113.523 197.242 114.324 198.954L116.655 204.14C119.608 211.117 121.92 218.349 123.564 225.745C125.227 233.119 126.355 240.603 126.939 248.14C127.57 255.658 127.801 263.199 127.692 270.729C127.57 285.801 126.295 300.787 125.385 315.762C124.474 330.736 123.746 345.795 126.04 360.563C127.099 367.937 129.346 375.09 132.694 381.744C136.143 388.362 140.975 394.161 146.863 398.746C152.71 403.402 159.098 407.333 165.889 410.454C172.672 413.619 179.696 416.243 186.893 418.299C201.316 422.368 216.147 424.82 231.112 425.61C246.112 426.524 261.165 425.893 276.036 423.728C290.912 421.657 305.432 417.546 319.186 411.51C332.809 405.341 345.582 396.657 354.87 384.792C345.642 396.73 332.894 405.499 319.283 411.741C305.507 417.855 290.954 422.039 276.036 424.177C261.172 426.413 246.12 427.121 231.112 426.29C216.07 425.548 201.158 423.132 186.65 419.089C179.394 417.051 172.31 414.444 165.464 411.292C158.578 408.172 152.095 404.229 146.159 399.548C140.123 394.9 135.154 389.011 131.589 382.278C128.137 375.514 125.808 368.233 124.693 360.721C122.264 345.759 123.005 330.59 123.794 315.616C124.583 300.642 125.834 285.631 125.87 270.681C125.943 263.187 125.676 255.706 125.008 248.262C124.396 240.824 123.243 233.441 121.56 226.17C119.912 218.903 117.604 211.801 114.664 204.954L112.357 199.877C111.556 198.201 110.609 196.598 109.747 194.946L108.411 192.517C107.95 191.704 107.428 190.939 106.93 190.149L103.931 185.449L100.592 180.98L98.9286 178.758C98.3458 178.029 97.7144 177.349 97.1074 176.632L93.465 172.43C92.2508 171.058 90.8424 169.795 89.5433 168.471C86.9328 165.836 84.1889 163.237 81.4571 160.638C80.073 159.35 78.7617 158.002 77.4383 156.654L73.4802 152.622C68.32 147.121 63.3056 141.461 58.6555 135.498C54.0084 129.519 49.7618 123.238 45.9434 116.698C42.1034 110.125 38.9697 103.164 36.5945 95.9308C34.1265 88.6536 32.8954 81.014 32.9521 73.3296C32.9717 65.5203 35.0175 57.8498 38.8892 51.0684C42.839 44.1309 49.133 38.8299 56.64 36.1183C60.6483 35.0958 64.8818 35.4245 68.6843 37.0534C72.3019 38.5469 75.6937 40.5375 78.7617 42.9679C84.7273 47.7373 90.1653 53.132 94.9826 59.0596C99.8392 64.8769 104.344 70.9735 108.593 77.2159C112.843 83.4583 116.837 89.8464 120.589 96.4652L117.42 98.1898Z" fill="#21F225"/>
</g>
<defs>
<clipPath id="clip0_2_2864">
<rect width="648" height="505" fill="white"/>
</clipPath>
</defs>
</svg>
