<svg width="1211" height="822" viewBox="0 0 1211 822" fill="none" xmlns="http://www.w3.org/2000/svg">
<mask id="mask0_59_20" style="mask-type:alpha" maskUnits="userSpaceOnUse" x="0" y="0" width="1211" height="822">
<rect width="1211" height="822" fill="#D9D9D9"/>
</mask>
<g mask="url(#mask0_59_20)">
<g opacity="0.6">
<mask id="mask1_59_20" style="mask-type:alpha" maskUnits="userSpaceOnUse" x="251" y="0" width="960" height="820">
<rect x="251" width="960" height="820" fill="#D9D9D9"/>
</mask>
<g mask="url(#mask1_59_20)">
<path d="M246 88.4946C263.274 75.4007 288.817 76.1077 308.457 85.6515C328.083 95.2107 342.714 112.116 354.778 129.79C385.73 175.173 403.066 227.656 427.594 276.528C452.122 325.4 486.778 373.134 538.493 395.05C619.223 429.244 710.973 391.115 793.548 361.224C815.156 353.401 838.101 346.009 860.908 349.482C890.108 353.924 913.776 375.839 927.423 401.013C941.07 426.186 946.387 454.602 952.166 482.419C970.762 571.987 997.58 663.752 1060.02 732.695C1122.46 801.638 1259.81 864.218 1410.47 808.216" stroke="#00FF00" stroke-width="1.84338" stroke-miterlimit="10"/>
<path opacity="0.9756" d="M1408.08 813.389C1323.5 842.881 1243.46 832.753 1178.67 805.336C1132.43 785.772 1094.08 757.463 1068.14 728.063C1044.09 700.907 1025.05 670.508 1009.4 638.388C1003.33 625.925 997.799 613.199 992.666 600.382C980.525 570.045 970.858 539.185 962.744 508.417C960.362 499.381 958.102 490.359 955.935 481.369C951.371 462.435 947.052 443.24 939.937 425.136C937.032 417.728 933.636 410.505 929.548 403.527C922.786 392.063 913.764 381.212 903.053 372.191C891.296 362.309 877.879 354.84 863.11 352.058C857.408 350.998 851.706 350.645 846.036 350.844C829.776 351.382 813.639 356.3 798.224 361.464C782.856 366.597 767.165 372.022 751.274 377.186C710.87 390.311 669.252 401.637 627.895 401.868C601.431 402.052 575.089 397.78 549.624 386.714C532.98 379.491 517.98 369.747 504.425 358.344C475.778 334.231 453.801 302.618 436.358 270.559C418.792 238.178 404.499 204.214 386.964 171.556C378.926 156.541 370.197 141.833 360.177 127.74C347.759 110.312 332.851 93.53 313.088 83.8786C293.308 74.2272 267.797 73.1514 250.354 85.5691" stroke="#00FF00" stroke-width="1.82837" stroke-miterlimit="10"/>
<path opacity="0.9512" d="M1407.57 817.802C1326.24 844.144 1249.48 831.557 1186.47 802.419C1141.62 781.686 1103.99 752.702 1078.15 722.656C1054.27 695.085 1035.04 664.456 1018.88 632.397C1012.62 619.964 1006.81 607.3 1001.37 594.667C988.492 564.745 977.949 535.022 969.066 505.484C966.453 496.816 963.979 488.164 961.597 479.558C956.572 461.423 951.823 443.104 944.369 425.875C941.341 418.821 937.837 411.936 933.58 405.282C926.588 394.339 917.29 383.904 906.455 374.867C894.56 364.939 881.466 357.071 867.204 353.874C861.702 352.629 856.215 352.122 850.744 352.138C835.115 352.153 819.608 356.425 804.808 360.944C790.054 365.431 774.978 370.195 759.717 374.714C720.896 386.194 680.892 395.815 640.335 394.616C614.377 393.94 588.205 388.96 562.678 377.603C546.003 370.18 530.85 360.406 517.064 349.141C487.925 325.32 465.272 294.736 447.045 263.8C428.711 232.54 413.573 199.774 395.253 167.916C386.816 153.285 377.749 138.838 367.437 124.945C354.665 107.748 339.481 91.0886 319.579 81.3296C299.662 71.5706 274.165 70.1414 256.568 81.8521" stroke="#00FF00" stroke-width="1.81336" stroke-miterlimit="10"/>
<path opacity="0.9268" d="M1408.85 821.563C1330.78 844.738 1257.3 829.708 1196.05 798.848C1152.61 776.963 1115.76 747.225 1089.96 716.611C1066.34 688.579 1046.83 657.781 1030.13 625.768C1023.67 613.35 1017.62 600.764 1011.87 588.315C998.269 558.823 986.835 530.207 977.168 501.914C974.341 493.615 971.636 485.331 969.023 477.109C963.537 459.789 958.296 442.345 950.566 425.978C947.4 419.277 943.773 412.73 939.377 406.399C932.154 395.979 922.595 385.974 911.637 376.906C899.588 366.948 886.848 358.695 873.078 355.053C867.76 353.639 862.489 352.962 857.248 352.793C842.249 352.317 827.372 355.913 813.171 359.771C799.032 363.597 784.571 367.716 769.925 371.574C732.687 381.394 694.312 389.217 654.523 386.712C629.072 385.098 603.069 379.504 577.496 367.854C560.79 360.247 545.499 350.442 531.483 339.3C501.852 315.771 478.538 286.217 459.512 256.402C440.424 226.249 424.426 194.713 405.338 163.638C396.532 149.376 387.127 135.191 376.522 121.498C363.382 104.531 347.922 87.9946 327.881 78.1434C307.825 68.2922 282.344 66.4941 264.594 77.5133" stroke="#00FF00" stroke-width="1.79835" stroke-miterlimit="10"/>
<path opacity="0.9024" d="M1411.79 824.742C1336.96 844.767 1266.79 827.293 1207.28 794.697C1165.26 771.675 1129.12 741.23 1103.41 709.971C1079.99 681.508 1060.27 650.51 1043.02 618.528C1036.37 606.141 1030.07 593.616 1024.01 581.336C1009.69 552.275 997.364 524.78 986.929 497.717C983.871 489.771 980.935 481.872 978.123 474.034C972.175 457.513 966.489 440.945 958.436 425.439C955.132 419.091 951.382 412.883 946.848 406.874C939.379 396.976 929.558 387.386 918.478 378.288C906.291 368.283 893.873 359.662 880.61 355.574C875.492 353.991 870.421 353.145 865.395 352.807C851.026 351.808 836.764 354.759 823.178 357.971C809.654 361.152 795.807 364.61 781.791 367.822C746.136 375.998 709.405 382.1 670.369 378.196C645.426 375.706 619.576 369.436 593.957 357.479C577.236 349.672 561.776 339.836 547.529 328.832C517.407 305.58 493.355 277.133 473.607 248.378C453.689 219.394 436.922 189.025 417.035 158.734C407.86 144.826 398.117 130.917 387.22 117.408C373.727 100.687 357.99 84.2739 337.811 74.3305C317.617 64.3717 292.166 62.2202 274.231 72.5478" stroke="#00FF00" stroke-width="1.78334" stroke-miterlimit="10"/>
<path opacity="0.878" d="M1416.3 827.441C1344.72 844.316 1277.86 824.429 1220.09 790.08C1179.48 765.937 1144.06 734.769 1118.42 702.88C1095.19 673.987 1075.28 642.789 1057.5 610.853C1050.65 598.497 1044.1 586.033 1037.74 573.938C1022.68 545.307 1009.46 518.919 998.273 493.1C994.984 485.523 991.833 477.993 988.79 470.539C982.382 454.833 976.234 439.126 967.858 424.495C964.431 418.502 960.558 412.646 955.871 406.944C948.156 397.57 938.09 388.41 926.871 379.281C914.53 369.246 902.466 360.24 889.694 355.706C884.777 353.954 879.905 352.94 875.094 352.417C861.34 350.911 847.723 353.201 834.752 355.767C821.827 358.288 808.61 361.1 795.209 363.651C761.137 370.168 726.036 374.548 687.783 369.246C663.363 365.864 637.667 358.933 612.001 346.685C595.25 338.693 579.635 328.811 565.158 317.946C534.544 294.985 509.817 267.583 489.284 239.935C468.598 212.072 450.986 182.918 430.315 153.411C420.772 139.871 410.69 126.224 399.502 112.915C385.624 96.4244 369.61 80.1338 349.308 70.0828C328.976 60.0319 303.541 57.5114 285.452 67.1475" stroke="#00FF00" stroke-width="1.76852" stroke-miterlimit="10"/>
<path opacity="0.8537" d="M1422.24 829.784C1353.92 843.493 1290.38 821.224 1234.33 785.093C1195.16 759.842 1160.44 727.922 1134.88 695.402C1111.85 666.095 1091.73 634.681 1073.41 602.792C1066.36 590.451 1059.56 578.064 1052.89 566.153C1037.11 537.952 1023 512.686 1011.04 488.097C1007.54 480.889 1004.16 473.727 1000.9 466.658C994.032 451.766 987.439 436.935 978.74 423.165C975.175 417.525 971.179 412.008 966.353 406.644C958.392 397.776 948.08 389.047 936.738 379.887C924.259 369.806 912.517 360.431 900.253 355.452C895.535 353.531 890.879 352.347 886.283 351.64C873.159 349.612 860.172 351.241 847.801 353.177C835.491 355.052 822.888 357.188 810.117 359.094C777.628 363.966 744.156 366.609 706.672 359.924C682.759 355.667 657.232 348.059 631.505 335.503C614.722 327.327 598.954 317.399 584.247 306.672C553.141 284.004 527.737 257.647 506.421 231.105C484.966 204.38 466.509 176.424 445.07 147.701C435.142 134.514 424.737 121.144 413.257 108.019C399.011 91.744 382.72 75.5917 362.264 65.4485C341.794 55.29 316.374 52.4161 298.132 61.3605" stroke="#00FF00" stroke-width="1.75351" stroke-miterlimit="10"/>
<path opacity="0.8293" d="M1429.53 831.85C1364.44 842.408 1304.25 817.757 1249.92 779.828C1212.17 753.471 1178.15 720.813 1152.68 687.663C1129.83 657.925 1109.51 626.297 1090.67 594.453C1083.42 582.143 1076.38 569.817 1069.4 558.076C1052.89 530.305 1037.9 506.146 1025.17 482.801C1021.44 475.947 1017.84 469.169 1014.37 462.484C1007.04 448.391 999.981 434.452 990.975 421.527C987.287 416.24 983.153 411.061 978.189 406.02C969.982 397.675 959.408 389.376 947.944 380.186C935.311 370.073 923.923 360.314 912.15 354.889C907.617 352.799 903.175 351.447 898.795 350.555C886.301 348.004 873.944 348.988 862.188 350.263C850.492 351.493 838.505 352.968 826.348 354.228C795.442 357.44 763.614 358.363 726.899 350.294C703.493 345.146 678.119 336.877 652.346 324.029C635.533 315.654 619.612 305.695 604.673 295.106C573.091 272.729 546.996 247.433 524.896 221.983C502.673 196.379 483.432 169.576 461.147 141.698C450.881 128.85 440.108 115.771 428.336 102.831C413.736 86.8016 397.168 70.7723 376.59 60.5369C355.981 50.2708 330.592 47.0434 312.181 55.2809" stroke="#00FF00" stroke-width="1.7385" stroke-miterlimit="10"/>
<path opacity="0.8049" d="M1438.04 833.733C1376.21 841.125 1319.35 814.123 1266.73 774.38C1230.41 746.947 1197.09 713.52 1171.7 679.741C1149.05 649.588 1128.53 617.744 1109.14 585.947C1101.69 573.667 1094.4 561.403 1087.1 549.846C1069.87 522.506 1053.98 499.468 1040.47 477.353C1036.51 470.868 1032.7 464.459 1028.99 458.158C1021.2 444.88 1013.7 431.801 1004.36 419.752C1000.55 414.819 996.274 409.978 991.171 405.26C982.703 397.437 971.899 389.553 960.296 380.347C947.51 370.204 936.475 360.061 925.195 354.19C920.861 351.931 916.619 350.41 912.469 349.334C900.59 346.275 888.879 346.629 877.721 347.228C866.625 347.828 855.268 348.627 843.726 349.226C814.403 350.794 784.204 349.995 748.257 340.512C725.374 334.488 700.154 325.543 674.335 312.388C657.491 303.828 641.431 293.823 626.247 283.388C594.173 261.303 567.401 237.052 544.517 212.693C521.526 188.226 501.44 162.622 478.371 135.543C467.736 123.064 456.625 110.246 444.561 97.506C429.607 81.7225 412.748 65.8162 392.031 55.4732C371.269 45.1148 345.911 41.5186 327.33 49.0645" stroke="#00FF00" stroke-width="1.72349" stroke-miterlimit="10"/>
<path opacity="0.7805" d="M1447.68 835.544C1389.09 839.786 1335.58 810.447 1284.66 768.86C1249.78 740.367 1217.15 706.157 1191.85 671.731C1169.38 641.163 1148.67 609.105 1128.75 577.353C1121.1 565.089 1113.55 552.887 1105.96 541.514C1087.99 514.604 1071.21 492.673 1056.95 471.803C1052.77 465.686 1048.72 459.646 1044.81 453.729C1036.54 441.266 1028.61 429.063 1018.94 417.875C1014.99 413.295 1010.6 408.792 1005.36 404.397C996.641 397.097 985.591 389.643 973.865 380.391C960.94 370.202 950.244 359.705 939.455 353.389C935.321 350.96 931.279 349.27 927.345 348.01C916.08 344.429 904.999 344.137 894.456 344.091C883.975 344.045 873.217 344.183 862.321 344.137C834.581 344.045 806.026 341.54 770.832 330.659C748.471 323.743 723.405 314.122 697.525 300.675C680.65 291.915 664.436 281.894 649.022 271.582C616.456 249.79 589.008 226.583 565.34 203.331C541.581 179.986 520.664 155.581 496.797 129.301C485.793 117.175 474.328 104.634 461.987 92.0784C446.665 76.5255 429.545 60.7421 408.674 50.3069C387.773 39.841 362.446 35.8913 343.696 42.7456" stroke="#00FF00" stroke-width="1.70848" stroke-miterlimit="10"/>
<path opacity="0.7561" d="M1458.33 837.392C1403 838.483 1352.82 806.839 1303.61 763.377C1270.15 733.839 1238.22 698.83 1213.01 663.774C1190.73 632.776 1169.81 600.517 1149.36 568.812C1141.5 556.579 1133.71 544.438 1125.81 533.25C1107.13 506.77 1089.45 485.961 1074.42 466.32C1070.01 460.557 1065.74 454.901 1061.6 449.368C1052.87 437.704 1044.5 426.393 1034.51 416.05C1030.44 411.839 1025.9 407.658 1020.52 403.586C1011.55 396.793 1000.25 389.785 988.404 380.502C975.325 370.282 964.967 359.401 954.701 352.639C950.766 350.042 946.924 348.182 943.205 346.753C932.555 342.65 922.119 341.712 912.191 341.021C902.309 340.329 892.182 339.807 881.9 339.1C855.743 337.348 828.833 333.137 794.407 320.857C772.553 313.065 747.657 302.769 721.73 289.029C704.825 280.085 688.457 270.018 672.827 259.844C639.77 238.344 611.646 216.198 587.194 194.037C562.666 171.829 540.904 148.607 516.269 123.126C504.896 111.354 493.093 99.0901 480.46 86.7339C464.769 71.4115 447.372 55.751 426.379 45.2236C405.339 34.6655 380.027 30.3316 361.124 36.5097" stroke="#00FF00" stroke-width="1.69347" stroke-miterlimit="10"/>
<path opacity="0.7317" d="M1469.88 839.397C1417.8 837.323 1370.97 803.404 1323.47 758.052C1291.44 727.484 1260.21 691.676 1235.08 655.959C1213 624.546 1191.87 592.072 1170.87 560.398C1162.82 548.195 1154.78 536.116 1146.58 525.112C1127.16 499.047 1108.6 479.36 1092.8 460.964C1088.16 455.57 1083.67 450.283 1079.32 445.134C1070.13 434.284 1061.31 423.849 1051 414.367C1046.8 410.509 1042.13 406.667 1036.61 402.917C1027.38 396.647 1015.85 390.054 1003.86 380.741C990.647 370.474 980.626 359.24 970.852 352.017C967.117 349.266 963.475 347.222 959.986 345.608C949.951 340.982 940.161 339.399 930.832 338.062C921.565 336.725 912.052 335.542 902.401 334.189C877.827 330.793 852.561 324.861 818.888 311.183C797.557 302.515 772.798 291.542 746.826 277.495C729.89 268.351 713.368 258.254 697.508 248.218C663.959 226.994 635.174 205.909 609.923 184.854C584.642 163.768 562.02 141.761 536.6 117.064C524.859 105.66 512.718 93.6575 499.793 81.4856C483.748 66.4092 466.059 50.8716 444.927 40.2367C423.75 29.5709 398.453 24.8835 379.381 30.3701" stroke="#00FF00" stroke-width="1.67846" stroke-miterlimit="10"/>
<path opacity="0.7073" d="M1482.23 841.842C1433.41 836.616 1389.92 800.439 1344.12 753.181C1313.52 721.599 1282.98 684.96 1257.95 648.614C1236.05 616.786 1214.73 584.082 1193.2 552.469C1184.96 540.281 1176.66 528.279 1168.15 517.444C1148 491.809 1128.56 473.244 1111.99 456.078C1107.14 451.037 1102.42 446.134 1097.85 441.37C1088.2 431.334 1078.93 421.775 1068.28 413.153C1063.95 409.649 1059.14 406.145 1053.5 402.734C1044 396.986 1032.23 390.823 1020.14 381.479C1006.76 371.182 997.098 359.564 987.815 351.895C984.281 348.975 980.838 346.746 977.564 344.963C968.144 339.815 958.984 337.587 950.285 335.589C941.618 333.606 932.735 331.747 923.698 329.749C900.707 324.692 877.085 317.054 844.182 301.962C823.373 292.419 798.768 280.769 772.733 266.431C755.767 257.102 739.107 246.959 723.001 237.061C688.96 216.13 659.499 196.089 633.464 176.141C607.415 156.193 583.963 135.368 557.744 111.47C545.634 100.42 533.154 88.6942 519.937 76.7221C503.524 61.8762 485.574 46.4616 464.304 35.7344C442.988 24.9765 417.722 19.9203 398.48 24.6999" stroke="#00FF00" stroke-width="1.66345" stroke-miterlimit="10"/>
<path opacity="0.6829" d="M1495.28 844.846C1449.7 836.47 1409.54 798.049 1365.47 748.854C1336.28 716.288 1306.45 678.805 1281.52 641.797C1259.81 609.57 1238.29 576.635 1216.22 545.068C1207.79 532.912 1199.24 520.97 1190.42 510.32C1169.55 485.116 1149.2 467.657 1131.87 451.735C1126.78 447.063 1121.85 442.53 1117.05 438.134C1106.94 428.898 1097.24 420.215 1086.25 412.454C1081.8 409.303 1076.85 406.137 1071.07 403.048C1061.31 397.823 1049.31 392.075 1037.07 382.716C1023.56 372.373 1014.24 360.401 1005.44 352.271C1002.11 349.182 998.867 346.784 995.809 344.817C987.003 339.146 978.489 336.272 970.39 333.629C962.336 331.001 954.068 328.48 945.662 325.821C924.253 319.121 902.276 309.761 870.126 293.271C849.824 282.851 825.388 270.526 799.308 255.88C782.325 246.366 765.497 236.177 749.16 226.418C714.627 205.778 684.505 186.783 657.672 167.941C630.869 149.115 606.556 129.505 579.569 106.39C567.075 95.6939 554.273 84.2444 540.764 72.4568C523.981 57.8414 505.754 42.5651 484.346 31.7303C462.892 20.8802 437.657 15.4705 418.262 19.5585" stroke="#00FF00" stroke-width="1.64863" stroke-miterlimit="10"/>
<path opacity="0.6585" d="M1508.92 848.509C1466.58 836.967 1429.76 796.333 1387.4 745.187C1359.63 711.637 1330.51 673.293 1305.67 635.655C1284.14 603.013 1262.43 569.863 1239.83 538.327C1231.2 526.201 1222.41 514.321 1213.26 503.855C1191.67 479.081 1170.43 462.745 1152.33 448.052C1147.01 443.749 1141.86 439.584 1136.85 435.573C1126.28 427.151 1116.13 419.344 1104.82 412.444C1100.24 409.647 1095.14 406.819 1089.24 404.052C1079.2 399.35 1066.99 394.032 1054.61 384.627C1040.95 374.253 1031.98 361.912 1023.68 353.321C1020.53 350.063 1017.5 347.496 1014.67 345.345C1006.48 339.136 998.596 335.632 991.112 332.343C983.658 329.054 976.02 325.888 968.228 322.584C948.403 314.224 928.07 303.174 896.672 285.27C876.893 273.989 852.611 260.972 826.469 246.034C809.456 236.321 792.474 226.116 775.907 216.48C740.882 196.132 710.099 178.197 682.467 160.447C654.911 142.742 629.737 124.331 601.966 102.016C589.103 91.6882 575.963 80.5 562.162 68.9121C545.026 54.5426 526.507 39.3739 504.976 28.447C483.383 17.4739 458.148 11.7107 438.6 15.1071" stroke="#00FF00" stroke-width="1.63362" stroke-miterlimit="10"/>
<path opacity="0.6341" d="M1523.01 852.923C1483.93 838.231 1450.39 795.399 1409.79 742.27C1383.42 707.752 1355 668.547 1330.27 630.249C1308.91 597.191 1287.03 563.826 1263.88 532.336C1255.05 520.226 1246.01 508.423 1236.56 498.126C1214.23 473.783 1192.11 458.552 1173.24 445.105C1167.71 441.155 1162.33 437.375 1157.09 433.748C1146.05 426.14 1135.48 419.209 1123.83 413.169C1119.13 410.741 1113.87 408.236 1107.85 405.792C1097.55 401.612 1085.09 396.71 1072.61 387.289C1058.81 376.869 1050.17 364.175 1042.36 355.123C1039.41 351.711 1036.58 348.945 1033.97 346.639C1026.39 339.908 1019.14 335.758 1012.29 331.824C1005.43 327.89 998.423 324.063 991.262 320.098C973.019 310.093 954.331 297.337 923.702 278.004C904.445 265.847 880.301 252.139 854.129 236.908C837.085 227.011 819.949 216.76 803.151 207.278C767.635 187.222 736.191 170.332 707.759 153.688C679.435 137.121 653.416 119.908 624.862 98.3769C611.63 88.4028 598.136 77.4912 584.058 66.0878C566.554 51.9488 547.758 36.9184 526.089 25.8839C504.358 14.8339 479.153 8.7019 459.436 11.4068" stroke="#00FF00" stroke-width="1.61861" stroke-miterlimit="10"/>
<path opacity="0.6098" d="M1537.48 858.245C1501.64 840.387 1471.41 795.404 1432.56 740.262C1407.57 704.791 1379.89 664.695 1355.25 625.766C1334.07 592.294 1311.99 558.714 1288.31 527.27C1279.27 515.19 1269.97 503.449 1260.23 493.336C1237.18 469.423 1214.17 455.315 1194.53 443.097C1188.77 439.516 1183.16 436.104 1177.72 432.861C1166.22 426.053 1155.23 420.013 1143.21 414.819C1138.39 412.744 1132.99 410.592 1126.85 408.456C1116.27 404.798 1103.59 400.326 1090.98 390.859C1077.02 380.409 1068.74 367.361 1061.42 357.832C1058.67 354.252 1056.04 351.316 1053.65 348.826C1046.68 341.557 1040.08 336.778 1033.82 332.182C1027.57 327.603 1021.19 323.115 1014.64 318.504C997.981 306.84 980.938 292.393 951.061 271.646C932.312 258.629 908.337 244.229 882.103 228.706C865.029 218.609 847.739 208.328 830.726 198.984C794.718 179.22 762.613 163.375 733.382 147.838C704.305 132.392 677.426 116.378 648.087 95.6462C634.486 86.0256 620.655 75.3906 606.285 64.1716C588.412 50.2631 569.355 35.3557 547.547 24.2289C525.693 13.0714 500.504 6.58591 480.617 8.59918" stroke="#00FF00" stroke-width="1.6036" stroke-miterlimit="10"/>
<path opacity="0.5854" d="M1552.2 864.536C1519.62 843.527 1492.65 796.377 1455.58 739.221C1431.98 702.813 1405.03 661.826 1380.49 622.237C1359.5 588.364 1337.21 554.538 1313.01 523.156C1303.77 511.092 1294.23 499.412 1284.18 489.499C1260.4 466.016 1236.49 453.014 1216.09 442.041C1210.1 438.829 1204.28 435.786 1198.62 432.928C1186.66 426.934 1175.25 421.755 1162.89 417.436C1157.96 415.715 1152.39 413.902 1146.12 412.103C1135.27 408.984 1122.38 404.911 1109.62 395.429C1095.51 384.947 1087.57 371.531 1080.76 361.541C1078.21 357.807 1075.78 354.671 1073.61 352.013C1067.27 344.205 1061.29 338.78 1055.66 333.555C1050.02 328.314 1044.26 323.166 1038.33 317.91C1023.25 304.601 1007.84 288.464 978.744 266.287C960.517 252.394 936.696 237.318 910.4 221.488C893.295 211.207 875.867 200.879 858.609 191.673C822.109 172.202 789.343 157.402 759.313 142.971C729.483 128.647 701.743 113.847 671.636 93.8991C657.666 84.6473 643.496 74.2736 628.835 63.2544C610.608 49.5918 591.259 34.8074 569.313 23.573C547.29 12.3079 522.147 5.45356 502.091 6.75988" stroke="#00FF00" stroke-width="1.58859" stroke-miterlimit="10"/>
<path opacity="0.561" d="M1567.06 871.912C1537.72 847.752 1514.01 798.45 1478.73 739.266C1456.5 701.936 1430.31 660.057 1405.87 619.823C1385.05 585.535 1362.58 551.494 1337.84 520.143C1328.4 508.109 1318.61 496.491 1308.25 486.747C1283.75 463.694 1258.95 451.814 1237.77 442.071C1231.56 439.212 1225.51 436.553 1219.62 434.079C1207.2 428.9 1195.36 424.581 1182.66 421.139C1177.6 419.771 1171.89 418.311 1165.49 416.82C1154.37 414.223 1141.24 410.581 1128.38 401.068C1114.13 390.54 1106.53 376.77 1100.21 366.335C1097.86 362.431 1095.63 359.127 1093.68 356.284C1087.95 347.924 1082.6 341.884 1077.59 336.013C1072.55 330.127 1067.41 324.318 1062.11 318.401C1048.62 303.432 1034.85 285.604 1006.51 261.998C988.803 247.245 965.136 231.477 938.794 215.355C921.658 204.889 904.077 194.515 886.587 185.448C849.595 166.268 816.169 152.498 785.34 139.189C754.772 125.987 726.156 112.386 695.265 93.2525C680.911 84.3542 666.419 74.2571 651.465 63.4223C632.869 49.9903 613.244 35.3288 591.159 24.0022C568.998 12.6295 543.87 5.42172 523.646 6.03646" stroke="#00FF00" stroke-width="1.57358" stroke-miterlimit="10"/>
<path opacity="0.5366" d="M1581.96 880.502C1555.88 853.177 1535.4 801.754 1501.94 740.541C1481.04 702.274 1455.6 659.488 1431.28 618.608C1410.64 583.921 1387.98 549.649 1362.7 518.344C1353.07 506.341 1343.03 494.784 1332.35 485.225C1307.11 462.602 1281.43 451.829 1259.49 443.345C1253.05 440.856 1246.78 438.566 1240.68 436.476C1227.8 432.096 1215.53 428.653 1202.47 426.071C1197.29 425.042 1191.42 423.95 1184.9 422.767C1173.52 420.708 1160.16 417.48 1147.16 407.921C1132.76 397.363 1125.49 383.239 1119.68 372.328C1117.51 368.271 1115.5 364.766 1113.76 361.754C1108.65 352.856 1103.94 346.171 1099.53 339.67C1095.11 333.123 1090.57 326.668 1085.9 320.106C1073.99 303.477 1061.86 283.974 1034.28 258.939C1017.08 243.325 993.566 226.865 967.178 210.436C950.012 199.771 932.277 189.381 914.557 180.437C877.073 161.534 842.986 148.824 811.357 136.621C780.037 124.526 750.56 112.155 718.885 93.8049C704.162 85.2754 689.332 75.4396 674.086 64.8046C655.122 51.6031 635.235 37.0799 613.012 25.6457C590.712 14.1808 565.6 6.60419 545.222 6.52734" stroke="#00FF00" stroke-width="1.55857" stroke-miterlimit="10"/>
<path opacity="0.5122" d="M1596.8 890.369C1573.96 859.893 1556.69 806.349 1525.08 743.077C1505.51 703.903 1480.86 660.195 1456.62 618.654C1436.15 583.553 1413.32 549.066 1387.5 517.806C1377.66 505.819 1367.38 494.339 1356.39 484.949C1330.43 462.741 1303.86 453.105 1281.15 445.851C1274.48 443.73 1267.99 441.809 1261.66 440.103C1248.32 436.538 1235.63 433.956 1222.22 432.25C1216.92 431.574 1210.9 430.821 1204.26 429.96C1192.59 428.439 1179.01 425.611 1165.88 416.036C1151.35 405.432 1144.4 390.955 1139.1 379.582C1137.13 375.356 1135.32 371.668 1133.81 368.486C1129.32 359.035 1125.25 351.735 1121.45 344.588C1117.63 337.381 1113.72 330.28 1109.68 323.057C1099.35 304.784 1088.86 283.576 1062.05 257.126C1045.36 240.651 1022.02 223.5 995.571 206.779C978.373 195.929 960.484 185.494 942.534 176.688C904.559 158.077 869.81 146.396 837.383 135.316C805.309 124.343 774.972 113.185 742.529 95.6191C727.437 87.443 712.268 77.8838 696.731 67.4333C677.413 54.4777 657.234 40.062 634.873 28.5357C612.435 16.9632 587.353 9.03307 566.806 8.26465" stroke="#00FF00" stroke-width="1.54356" stroke-miterlimit="10"/>
<path opacity="0.4878" d="M1611.44 901.584C1591.84 867.957 1577.75 812.293 1548.01 746.962C1529.77 706.865 1505.9 662.251 1481.78 620.064C1461.47 584.563 1438.45 549.846 1412.11 518.632C1402.07 506.675 1391.55 495.257 1380.25 486.051C1353.57 464.274 1326.09 455.744 1302.63 449.735C1295.74 447.968 1289.02 446.431 1282.48 445.109C1268.68 442.343 1255.55 440.637 1241.81 439.792C1236.4 439.469 1230.21 439.07 1223.45 438.516C1211.51 437.548 1197.7 435.12 1184.46 425.515C1169.76 414.88 1163.17 400.049 1158.36 388.2C1156.58 383.82 1154.98 379.932 1153.69 376.597C1149.83 366.607 1146.37 358.662 1143.19 350.87C1139.98 343.001 1136.69 335.256 1133.26 327.387C1124.52 307.454 1115.65 284.57 1089.62 256.677C1073.45 239.341 1050.26 221.483 1023.76 204.47C1006.54 193.42 988.509 182.954 970.313 174.286C931.876 155.967 896.467 145.317 863.241 135.342C830.413 125.491 799.215 115.548 765.989 98.7655C750.513 90.9583 735.021 81.6604 719.192 71.4096C699.505 58.6845 679.049 44.3918 656.565 32.7733C633.989 21.0932 608.923 12.8096 588.222 11.3496" stroke="#00FF00" stroke-width="1.52874" stroke-miterlimit="10"/>
<path opacity="0.4634" d="M1625.82 914.281C1609.48 877.489 1598.55 819.735 1570.7 752.328C1553.77 711.325 1530.7 665.789 1506.68 622.941C1486.55 587.025 1463.36 552.077 1436.46 520.91C1426.23 508.984 1415.45 497.627 1403.85 488.605C1376.43 467.259 1348.08 459.851 1323.84 455.071C1316.73 453.673 1309.78 452.505 1303.03 451.567C1288.75 449.616 1275.23 448.755 1261.14 448.801C1255.6 448.816 1249.27 448.786 1242.37 448.555C1230.15 448.125 1216.14 446.096 1202.75 436.46C1187.92 425.779 1181.65 410.61 1177.35 398.285C1175.77 393.736 1174.38 389.678 1173.31 386.159C1170.08 375.616 1167.25 367.041 1164.68 358.619C1162.07 350.105 1159.41 341.698 1156.62 333.169C1149.45 311.591 1142.22 287.017 1116.97 257.694C1101.31 239.498 1078.27 220.948 1051.73 203.628C1034.47 192.393 1016.29 181.881 997.86 173.352C958.901 155.325 922.831 145.719 888.805 136.867C855.225 128.122 823.167 119.393 789.156 103.41C773.311 95.9562 757.467 86.9349 741.36 76.8686C721.304 64.374 700.588 50.2197 677.95 38.4935C655.22 26.7213 630.185 18.0688 609.314 15.9019" stroke="#00FF00" stroke-width="1.51373" stroke-miterlimit="10"/>
<path opacity="0.439" d="M1639.78 928.565C1626.69 888.622 1618.9 828.762 1592.97 759.281C1577.32 717.371 1555.07 670.912 1531.17 627.42C1511.22 591.104 1487.83 555.925 1460.4 524.804C1449.97 512.894 1438.93 501.613 1427.04 492.761C1398.9 471.845 1369.65 465.544 1344.65 462.009C1337.3 460.979 1330.14 460.18 1323.16 459.627C1308.42 458.489 1294.47 458.474 1280.02 459.411C1274.37 459.78 1267.88 460.103 1260.86 460.18C1248.36 460.303 1234.12 458.674 1220.61 449.007C1205.62 438.295 1199.67 422.758 1195.91 409.971C1194.53 405.268 1193.34 401.011 1192.48 397.323C1189.89 386.227 1187.69 377.036 1185.72 367.969C1183.72 358.794 1181.68 349.727 1179.5 340.567C1173.92 317.33 1168.31 291.081 1143.83 260.328C1128.67 241.287 1105.8 222.03 1079.22 204.418C1061.94 192.984 1043.59 182.441 1024.95 174.065C985.5 156.33 948.769 147.754 913.944 140.024C879.611 132.386 846.676 124.886 811.898 109.686C795.684 102.602 779.501 93.8416 763.103 83.9597C742.693 71.711 721.685 57.6642 698.924 45.8459C676.056 33.966 651.051 24.9447 630.012 22.1016" stroke="#00FF00" stroke-width="1.49872" stroke-miterlimit="10"/>
<path opacity="0.4146" d="M1653.24 944.495C1643.41 901.386 1638.72 839.42 1614.73 767.88C1600.36 725.048 1578.94 677.682 1555.15 633.529C1535.37 596.814 1511.79 561.405 1483.84 530.33C1473.22 518.45 1461.92 507.231 1449.72 498.563C1420.86 478.077 1390.72 472.898 1364.93 470.592C1357.37 469.916 1349.98 469.501 1342.78 469.332C1327.58 468.994 1313.2 469.839 1298.41 471.653C1292.64 472.36 1286 473.067 1278.85 473.435C1266.09 474.096 1251.62 472.867 1237.99 463.169C1222.85 452.427 1217.24 436.536 1213.98 423.273C1212.78 418.401 1211.83 413.959 1211.17 410.102C1209.2 398.468 1207.63 388.648 1206.27 378.935C1204.88 369.099 1203.45 359.386 1201.9 349.566C1197.9 324.684 1193.92 296.744 1170.21 264.547C1155.56 244.645 1132.87 224.697 1106.22 206.777C1088.91 195.159 1070.41 184.585 1051.54 176.332C1011.59 158.889 974.217 151.343 938.577 144.735C903.491 138.218 869.696 131.933 834.148 117.517C817.55 110.786 801.045 102.302 784.355 92.6201C763.576 80.6019 742.291 66.6935 719.392 54.7675C696.385 42.7955 671.396 33.4054 650.203 29.8706" stroke="#00FF00" stroke-width="1.48371" stroke-miterlimit="10"/>
<path opacity="0.3902" d="M1666.09 962.227C1659.5 915.968 1657.92 851.896 1635.88 778.282C1622.79 734.543 1602.18 686.255 1578.51 641.456C1558.88 604.326 1535.14 568.702 1506.65 537.657C1495.83 525.808 1484.29 514.635 1471.76 506.167C1442.18 486.111 1411.13 482.039 1384.59 480.978C1376.8 480.671 1369.19 480.625 1361.77 480.84C1346.11 481.317 1331.29 483.007 1316.17 485.712C1310.27 486.772 1303.48 487.833 1296.21 488.509C1283.17 489.723 1268.48 488.893 1254.71 479.165C1239.43 468.376 1234.15 452.132 1231.4 438.408C1230.38 433.382 1229.64 428.756 1229.21 424.714C1227.89 412.543 1226.94 402.077 1226.19 391.718C1225.42 381.237 1224.6 370.863 1223.67 360.382C1221.25 333.841 1218.89 304.241 1195.97 270.599C1181.82 249.837 1159.3 229.197 1132.59 210.985C1115.26 199.182 1096.6 188.562 1077.5 180.448C1037.06 163.297 999.026 156.78 962.587 151.279C926.763 145.869 892.092 140.813 855.761 127.181C838.794 120.818 821.95 112.596 804.968 103.098C783.821 91.3107 762.259 77.5252 739.237 65.5071C716.092 53.4275 691.118 43.6838 669.771 39.4575" stroke="#00FF00" stroke-width="1.4687" stroke-miterlimit="10"/>
<path opacity="0.3659" d="M1678.22 981.839C1674.89 932.429 1676.36 866.237 1656.31 790.562C1644.47 745.902 1624.71 696.707 1601.15 651.247C1581.69 613.717 1557.78 577.847 1528.75 546.865C1517.73 535.031 1505.94 523.935 1493.11 515.636C1462.79 496.01 1430.87 493.06 1403.56 493.229C1395.53 493.275 1387.71 493.613 1380.07 494.212C1363.95 495.503 1348.71 498.039 1333.23 501.635C1327.21 503.034 1320.28 504.463 1312.87 505.447C1299.57 507.214 1284.64 506.768 1270.74 497.025C1255.31 486.205 1250.35 469.607 1248.12 455.422C1247.31 450.228 1246.78 445.417 1246.55 441.222C1245.88 428.497 1245.54 417.416 1245.38 406.412C1245.23 395.27 1245.03 384.251 1244.71 373.124C1243.88 344.938 1243.14 313.648 1221 278.577C1207.35 256.954 1184.99 235.622 1158.25 217.103C1140.88 205.1 1122.08 194.45 1102.73 186.474C1061.81 169.599 1023.11 164.128 985.873 159.748C949.296 155.445 913.764 151.618 876.649 138.77C859.313 132.761 842.131 124.816 824.857 115.518C803.357 103.976 781.518 90.3133 758.342 78.1876C735.059 66.0157 710.116 55.9033 688.585 50.9854" stroke="#00FF00" stroke-width="1.45369" stroke-miterlimit="10"/>
<path opacity="0.3415" d="M1689.23 1003.45C1689.14 950.872 1693.67 882.575 1675.62 804.857C1665.03 759.289 1646.12 709.188 1622.67 663.067C1603.38 625.138 1579.29 589.037 1549.72 558.1C1538.5 546.297 1526.47 535.263 1513.33 527.148C1482.28 507.953 1449.47 506.109 1421.39 507.523C1413.15 507.938 1405.09 508.645 1397.25 509.628C1380.66 511.718 1364.99 515.115 1349.17 519.587C1343.03 521.324 1335.94 523.122 1328.41 524.413C1314.84 526.733 1299.69 526.687 1285.67 516.898C1270.1 506.032 1265.46 489.081 1263.74 474.434C1263.11 469.086 1262.8 464.076 1262.79 459.711C1262.74 446.448 1263.03 434.722 1263.5 423.088C1263.96 411.301 1264.37 399.621 1264.68 387.833C1265.43 357.988 1266.31 325.022 1244.96 288.507C1231.82 266.023 1209.63 244 1182.83 225.189C1165.43 213.001 1146.48 202.305 1126.9 194.467C1085.48 177.884 1046.12 173.443 1008.09 170.185C970.757 166.988 934.364 164.391 896.481 152.327C878.761 146.686 861.256 138.987 843.69 129.889C821.821 118.577 799.706 105.038 776.392 92.8199C752.97 80.5405 728.042 70.0746 706.357 64.4497" stroke="#00FF00" stroke-width="1.43868" stroke-miterlimit="10"/>
<path opacity="0.3171" d="M1697.5 1027.17C1700.65 971.444 1708.23 901.025 1692.19 821.247C1682.83 774.758 1664.78 723.75 1641.46 676.984C1622.34 638.655 1598.05 602.324 1567.96 571.433C1556.54 559.661 1544.27 548.688 1530.82 540.757C1499.05 521.993 1465.35 521.27 1436.5 523.914C1428.03 524.697 1419.75 525.773 1411.68 527.141C1394.64 530.046 1378.52 534.272 1362.38 539.651C1356.11 541.741 1348.89 543.908 1341.22 545.506C1327.39 548.38 1311.99 548.734 1297.85 538.913C1282.13 528.017 1277.81 510.697 1276.61 495.59C1276.16 490.072 1276.09 484.893 1276.29 480.344C1276.88 466.543 1277.79 454.187 1278.85 441.907C1279.93 429.459 1280.96 417.118 1281.88 404.7C1284.2 373.195 1286.7 338.554 1266.14 300.61C1253.49 277.28 1231.49 254.535 1204.64 235.432C1187.21 223.045 1168.11 212.318 1148.3 204.618C1106.4 188.328 1066.37 184.916 1027.53 182.78C989.448 180.689 952.195 179.322 913.528 168.057C895.439 162.785 877.581 155.347 859.738 146.449C837.5 135.383 815.108 121.967 791.671 109.641C768.111 97.254 743.214 86.4346 721.36 80.1182" stroke="#00FF00" stroke-width="1.42367" stroke-miterlimit="10"/>
<path opacity="0.2927" d="M1704.13 1053.05C1710.54 994.175 1721.13 921.62 1707.11 839.799C1698.98 792.371 1681.8 740.472 1658.59 693.045C1639.64 654.316 1615.19 617.755 1584.55 586.895C1572.93 575.138 1560.4 564.242 1546.65 556.481C1514.14 538.131 1479.55 538.53 1449.93 542.419C1441.24 543.556 1432.74 545.016 1424.45 546.768C1406.95 550.487 1390.4 555.559 1373.92 561.829C1367.53 564.257 1360.15 566.793 1352.36 568.699C1338.27 572.126 1322.64 572.863 1308.38 563.012C1292.51 552.07 1288.52 534.396 1287.83 518.828C1287.58 513.157 1287.7 507.778 1288.12 503.06C1289.36 488.737 1290.89 475.735 1292.55 462.81C1294.24 449.716 1295.88 436.714 1297.43 423.636C1301.34 390.486 1305.45 354.155 1285.68 314.781C1273.53 290.591 1251.7 267.154 1224.79 247.759C1207.33 235.187 1188.07 224.429 1168.03 216.853C1125.64 200.854 1084.95 198.472 1045.31 197.458C1006.48 196.474 968.363 196.351 928.912 185.855C910.454 180.937 892.258 173.775 874.123 165.061C851.532 154.226 828.863 140.933 805.273 128.515C781.559 116.036 756.693 104.847 734.67 97.8394" stroke="#00FF00" stroke-width="1.40885" stroke-miterlimit="10"/>
<path opacity="0.2683" d="M1709.22 1081.28C1718.87 1019.24 1732.47 944.546 1720.5 860.696C1713.6 812.331 1697.29 759.54 1674.19 711.468C1655.4 672.324 1630.78 635.547 1599.6 604.734C1587.78 593.007 1574.99 582.173 1560.93 574.596C1527.7 556.676 1492.22 558.198 1461.83 563.316C1452.92 564.822 1444.19 566.651 1435.69 568.787C1417.73 573.305 1400.73 579.237 1383.91 586.384C1377.4 589.15 1369.88 592.07 1361.95 594.268C1347.6 598.248 1331.74 599.385 1317.34 589.503C1301.32 578.53 1297.65 560.503 1297.48 544.458C1297.42 538.618 1297.77 533.07 1298.39 528.168C1300.28 513.307 1302.45 499.675 1304.69 486.089C1307.01 472.35 1309.24 458.687 1311.42 444.948C1316.91 410.138 1322.63 372.132 1303.66 331.313C1292.01 306.263 1270.34 282.134 1243.39 262.432C1225.9 249.66 1206.5 238.872 1186.23 231.449C1143.35 215.742 1102 214.374 1061.56 214.497C1021.96 214.62 982.997 215.727 942.763 206.014C923.936 201.465 905.402 194.564 886.975 186.035C864.015 175.431 841.07 162.26 817.356 149.75C793.504 137.163 768.653 125.621 746.477 117.922" stroke="#00FF00" stroke-width="1.39384" stroke-miterlimit="10"/>
<path opacity="0.2439" d="M1712.79 1111.89C1725.69 1046.69 1742.26 969.851 1732.36 883.972C1726.68 834.67 1711.25 781.003 1688.27 732.254C1669.65 692.711 1644.84 655.688 1613.14 624.936C1601.12 613.241 1588.09 602.467 1573.72 595.06C1539.77 577.57 1503.39 580.198 1472.24 586.561C1463.09 588.436 1454.15 590.634 1445.42 593.139C1426.99 598.471 1409.55 605.249 1392.41 613.287C1385.77 616.406 1378.12 619.68 1370.05 622.185C1355.44 626.734 1339.33 628.24 1324.81 618.343C1308.66 607.324 1305.29 588.943 1305.64 572.437C1305.77 566.444 1306.35 560.711 1307.18 555.624C1309.72 540.225 1312.5 525.963 1315.34 511.732C1318.28 497.331 1321.12 483.023 1323.93 468.639C1331 432.185 1338.33 392.488 1320.15 350.24C1308.99 324.329 1287.51 299.509 1260.51 279.514C1242.99 266.559 1223.44 255.724 1202.94 248.439C1159.57 233.024 1117.53 232.686 1076.32 233.931C1035.96 235.145 996.107 237.574 955.135 228.568C935.924 224.418 917.067 217.748 898.348 209.419C875.019 199.06 851.797 186.012 827.945 173.395C803.955 160.716 779.135 148.805 756.789 140.414" stroke="#00FF00" stroke-width="1.37883" stroke-miterlimit="10"/>
<path opacity="0.2195" d="M1714.75 1145.02C1730.9 1076.66 1750.47 997.662 1742.63 909.77C1738.14 859.515 1723.6 804.973 1700.75 755.578C1682.28 715.636 1657.3 678.382 1625.06 647.661C1612.84 635.981 1599.57 625.284 1584.89 618.061C1550.2 601.002 1512.95 604.752 1481.03 612.344C1471.65 614.573 1462.49 617.154 1453.55 620.044C1434.66 626.191 1416.77 633.799 1399.31 642.743C1392.55 646.201 1384.74 649.843 1376.55 652.656C1361.68 657.758 1345.34 659.664 1330.69 649.72C1314.39 638.67 1311.36 619.921 1312.22 602.954C1312.54 596.791 1313.33 590.874 1314.37 585.634C1317.54 569.697 1320.93 554.805 1324.41 539.928C1327.96 524.882 1331.42 509.913 1334.84 494.868C1343.5 456.754 1352.44 415.382 1335.06 371.705C1324.41 344.933 1303.09 319.421 1276.03 299.119C1258.49 285.979 1238.78 275.098 1218.04 267.952C1174.18 252.829 1131.49 253.521 1089.47 255.888C1048.36 258.208 1007.65 261.866 965.892 253.644C946.298 249.863 927.118 243.455 908.107 235.309C884.424 225.182 860.926 212.257 836.936 199.547C812.807 186.76 788.002 174.496 765.503 165.414" stroke="#00FF00" stroke-width="1.36382" stroke-miterlimit="10"/>
<path opacity="0.1951" d="M1715.04 1180.75C1734.45 1109.24 1756.97 1028.08 1751.22 938.177C1747.95 886.969 1734.28 831.551 1711.57 781.496C1693.25 741.153 1668.12 703.67 1635.34 672.994C1622.93 661.345 1609.4 650.694 1594.42 643.671C1559.01 627.042 1520.85 631.899 1488.17 640.736C1478.57 643.333 1469.18 646.284 1460.02 649.557C1440.67 656.504 1422.34 664.972 1404.54 674.792C1397.64 678.604 1389.71 682.615 1381.38 685.735C1366.24 691.39 1349.67 693.68 1334.89 683.721C1318.43 672.641 1315.72 653.522 1317.11 636.094C1317.61 629.763 1318.63 623.677 1319.87 618.252C1323.69 601.792 1327.7 586.239 1331.77 570.732C1335.92 555.041 1340.01 539.411 1344.06 523.72C1354.3 483.962 1364.84 440.884 1348.26 395.793C1338.1 368.16 1316.97 341.957 1289.86 321.348C1272.29 308.008 1252.42 297.097 1231.46 290.089C1187.11 275.243 1143.75 276.964 1100.93 280.468C1059.07 283.895 1017.51 288.782 974.959 281.344C954.996 277.917 935.478 271.785 916.175 263.839C892.123 253.942 868.348 241.155 844.22 228.338C819.953 215.459 795.164 202.826 772.495 193.037" stroke="#00FF00" stroke-width="1.34881" stroke-miterlimit="10"/>
<path opacity="0.1707" d="M1713.61 1219.23C1736.26 1144.57 1761.75 1061.21 1758.09 969.334C1756.01 917.174 1743.24 860.894 1720.65 810.178C1702.5 769.437 1677.19 731.722 1643.87 701.093C1631.25 689.459 1617.48 678.886 1602.19 672.031C1566.06 655.833 1527.01 661.811 1493.55 671.878C1483.73 674.844 1474.11 678.163 1464.73 681.821C1444.92 689.582 1426.16 698.895 1408.03 709.607C1401 713.757 1392.93 718.137 1384.47 721.564C1369.08 727.773 1352.25 730.462 1337.35 720.473C1320.75 709.346 1318.35 689.874 1320.26 671.985C1320.95 665.5 1322.18 659.214 1323.65 653.62C1328.11 636.622 1332.73 620.439 1337.41 604.272C1342.17 587.92 1346.87 571.629 1351.55 555.292C1363.36 513.874 1375.52 469.121 1359.72 422.586C1350.06 394.092 1329.09 367.182 1301.94 346.296C1284.34 332.772 1264.31 321.83 1243.12 314.945C1198.28 300.391 1154.26 303.142 1110.65 307.768C1068.01 312.301 1025.61 318.418 982.288 311.763C961.955 308.705 942.099 302.834 922.504 295.073C898.099 285.422 874.032 272.743 849.781 259.833C825.375 246.847 800.617 233.861 777.779 223.379" stroke="#00FF00" stroke-width="1.3338" stroke-miterlimit="10"/>
<path opacity="0.1463" d="M1710.34 1260.5C1736.23 1182.68 1764.67 1097.15 1763.11 1003.28C1762.24 950.151 1750.36 893.011 1727.89 841.634C1709.89 800.493 1684.41 762.548 1650.57 731.965C1637.77 720.362 1623.74 709.85 1608.14 703.18C1571.28 687.412 1531.34 694.497 1497.12 705.808C1487.07 709.127 1477.23 712.831 1467.64 716.873C1447.35 725.433 1428.16 735.607 1409.7 747.211C1402.55 751.698 1394.35 756.462 1385.74 760.182C1370.1 766.944 1353.04 770.017 1338.01 759.997C1321.26 748.84 1319.18 728.999 1321.61 710.664C1322.48 704.01 1323.94 697.555 1325.62 691.776C1330.72 674.256 1335.96 657.428 1341.25 640.615C1346.63 623.617 1351.95 606.666 1357.23 589.684C1370.63 546.621 1384.39 500.178 1369.4 452.213C1360.23 422.859 1339.45 395.257 1312.23 374.064C1294.61 360.34 1274.44 349.367 1253 342.62C1207.67 328.358 1162.96 332.031 1118.58 337.887C1075.17 343.435 1031.93 350.873 987.821 345.002C967.119 342.297 946.91 336.703 927.038 329.142C902.264 319.721 877.921 307.18 853.531 294.163C828.987 281.069 804.244 267.714 781.253 256.557" stroke="#00FF00" stroke-width="1.31879" stroke-miterlimit="10"/>
<path opacity="0.122" d="M1705.14 1304.73C1734.29 1223.75 1765.66 1136.01 1766.21 1040.18C1766.52 986.063 1755.55 928.093 1733.2 876.055C1715.36 834.514 1689.71 796.324 1655.33 765.787C1642.33 754.214 1628.05 743.764 1612.13 737.278C1574.54 721.94 1533.72 730.147 1498.73 742.688C1488.44 746.376 1478.39 750.449 1468.57 754.875C1447.83 764.25 1428.18 775.269 1409.4 787.748C1402.14 792.589 1393.79 797.707 1385.05 801.733C1369.15 809.064 1351.83 812.522 1336.68 802.471C1319.79 791.268 1318.02 771.073 1320.99 752.278C1322.07 745.454 1323.73 738.83 1325.63 732.867C1331.36 714.825 1337.23 697.351 1343.12 679.892C1349.1 662.249 1355.05 644.637 1360.96 626.994C1375.95 582.272 1391.3 534.138 1377.12 484.759C1368.43 454.544 1347.84 426.251 1320.57 404.766C1302.92 390.857 1282.6 379.838 1260.95 373.23C1215.12 359.26 1169.75 363.978 1124.57 370.94C1080.41 377.594 1036.3 386.247 991.413 381.175C970.343 378.839 949.795 373.506 929.632 366.129C904.489 356.939 879.884 344.521 855.34 331.412C830.659 318.226 805.946 304.502 782.771 292.653" stroke="#00FF00" stroke-width="1.30378" stroke-miterlimit="10"/>
<path opacity="0.0732" d="M1709.88 1406.84C1745.53 1319.55 1782.77 1227.39 1787.55 1127.63C1790.24 1071.55 1780.97 1011.94 1758.96 958.546C1741.37 916.221 1715.45 877.554 1680 847.109C1666.6 835.583 1651.81 825.27 1635.29 819.138C1596.26 804.646 1553.64 815.096 1517.12 830.127C1506.4 834.538 1495.9 839.363 1485.63 844.558C1463.96 855.546 1443.4 868.241 1423.99 882.533C1416.45 888.051 1407.85 893.921 1398.83 898.547C1382.43 906.985 1364.64 911.226 1349.22 901.114C1332.04 889.833 1330.89 868.901 1334.92 849.199C1336.34 842.053 1338.48 835.06 1340.79 828.759C1347.84 809.671 1354.89 790.891 1362.01 772.142C1369.22 753.192 1376.4 734.274 1383.56 715.324C1401.71 667.298 1420.2 615.813 1407.69 563.545C1399.96 531.61 1379.75 501.933 1352.39 479.849C1334.67 465.556 1314.05 454.46 1291.93 448.143C1245.12 434.757 1198.41 441.535 1151.65 450.741C1105.97 459.624 1060.16 470.72 1013.71 467.231C991.891 465.617 970.683 460.822 949.935 453.83C924.07 445.116 898.897 432.944 874.092 419.65C849.118 406.264 824.452 391.818 800.969 378.57" stroke="#00FF00" stroke-width="1.27395" stroke-miterlimit="10"/>
<path opacity="0.0488" d="M1677.08 1455.99C1715.98 1365.54 1756.14 1271.15 1763.05 1169.44C1766.93 1112.38 1758.58 1051.9 1736.68 997.884C1719.27 955.145 1693.16 916.262 1657.17 885.848C1643.56 874.352 1628.53 864.102 1611.71 858.154C1571.93 844.092 1528.44 855.649 1491.14 871.924C1480.18 876.704 1469.46 881.898 1458.99 887.477C1436.86 899.28 1415.85 912.82 1396.12 927.988C1388.45 933.859 1379.72 940.099 1370.56 945.032C1353.91 954.053 1335.86 958.664 1320.32 948.521C1302.98 937.21 1302.17 915.893 1306.7 895.745C1308.33 888.43 1310.67 881.268 1313.2 874.783C1320.89 855.157 1328.57 835.747 1336.29 816.352C1344.09 796.757 1351.9 777.162 1359.68 757.567C1379.41 707.881 1399.53 654.706 1387.79 601.024C1380.55 568.228 1360.52 537.86 1333.11 515.468C1315.36 500.991 1294.59 489.864 1272.23 483.671C1224.93 470.577 1177.56 478.399 1130 488.711C1083.57 498.716 1036.89 511.026 989.667 508.322C967.475 507.061 945.928 502.543 924.889 495.735C898.655 487.251 873.22 475.218 848.277 461.817C823.165 448.323 798.529 433.523 774.877 419.584" stroke="#00FF00" stroke-width="1.25894" stroke-miterlimit="10"/>
<path opacity="0.0244" d="M1663.25 1512.97C1705.41 1419.36 1748.48 1322.73 1757.52 1219.09C1762.58 1161.03 1755.15 1099.72 1733.36 1045.04C1716.12 1001.9 1689.84 962.789 1653.31 932.421C1639.51 920.941 1624.23 910.767 1607.09 904.988C1566.6 891.357 1522.21 904.036 1484.15 921.54C1472.97 926.673 1462.02 932.252 1451.33 938.215C1428.74 950.833 1407.3 965.233 1387.23 981.278C1379.44 987.486 1370.57 994.095 1361.28 999.336C1344.37 1008.89 1326.08 1013.9 1310.41 1003.73C1292.92 992.374 1292.44 970.704 1297.48 950.095C1299.31 942.61 1301.86 935.28 1304.6 928.61C1312.91 908.446 1321.22 888.406 1329.55 868.365C1337.98 848.11 1346.4 827.87 1354.81 807.629C1376.12 756.299 1397.87 701.418 1386.91 646.306C1380.18 612.634 1360.32 581.574 1332.84 558.906C1315.06 544.229 1294.15 533.071 1271.55 527.016C1223.76 514.199 1175.72 523.067 1127.37 534.501C1080.17 545.627 1032.67 559.152 984.64 557.231C962.079 556.339 940.194 552.082 918.863 545.474C892.275 537.236 866.549 525.31 841.467 511.817C816.217 498.231 791.597 483.062 767.775 468.432" stroke="#00FF00" stroke-width="1.24393" stroke-miterlimit="10"/>
</g>
</g>
<path d="M1278.46 820.409H878.35L774.343 737.31C773.67 736.776 773.508 735.802 773.995 735.082L896.543 553.523L911.882 530.782L966.252 573.735L1278.46 820.409Z" fill="#1A1A1A" stroke="black" stroke-width="2" stroke-miterlimit="10"/>
<path d="M1050.93 793.496C1044.62 802.963 1038.24 811.99 1031.95 820.391H879.951L782.187 742.119C777.708 738.522 776.71 732.094 779.889 727.314L898.423 549.467L912.694 528.025C913.46 526.888 915.038 526.633 916.105 527.491L969.199 569.981L1099.59 674.336C1111.36 682.179 1089.61 735.528 1050.98 793.472L1050.93 793.496Z" fill="#1A1A1A" stroke="black" stroke-width="2" stroke-miterlimit="10"/>
<path d="M865.861 646.001C904.645 587.803 926.498 534.235 914.671 526.353C902.843 518.471 861.815 559.26 823.031 617.458C784.247 675.656 762.395 729.224 774.222 737.106C786.049 744.988 827.078 704.199 865.861 646.001Z" fill="#21F225" stroke="black" stroke-width="2" stroke-miterlimit="10"/>
<path d="M914.388 546.099L860.157 500.593L793.557 333.816C782.558 306.271 763.854 282.462 739.674 265.267L599.212 165.391C590.44 159.148 578.211 161.469 572.432 170.519C563.336 184.744 559.229 211.755 593.665 258.653L675.07 342.866C677.669 345.535 675.279 349.967 671.613 349.271L487.292 314.045C487.292 314.045 284.383 251.622 261.944 274.062C246.071 289.934 233.888 328.757 351.702 344.189L350.217 346.834C350.217 346.834 294.292 350.593 289.999 380.552C289.999 380.552 278.605 406.402 329.239 442.556C329.239 442.556 323.809 446.942 323.067 449.24C322.324 451.537 311.487 509.504 349.335 523.543C349.335 523.543 362.934 528.161 373.446 525.353C373.446 525.353 358.223 540.321 357.689 551.738C357.156 563.155 360.381 568.423 360.381 568.423L378.876 595.155C378.876 595.155 388.993 605.343 396.28 608.452C403.566 611.562 464.898 630.706 464.898 630.706L530.848 651.266L636.758 684.125C636.758 684.125 691.662 695.914 702.383 696.47C713.104 697.027 753.087 705.985 753.087 705.985L774.204 715.87L795.321 729.144C795.321 729.144 821.821 706.82 832.844 690.762C843.867 674.704 871.667 642.077 877.909 627.109C884.151 612.142 915.293 567.332 915.943 547.631L914.388 546.099Z" fill="white"/>
<path d="M916.012 547.746L860.157 500.616L793.557 333.838C782.558 306.293 763.854 282.485 739.674 265.289L599.212 165.413C590.44 159.171 578.211 161.491 572.433 170.542C563.336 184.766 559.229 211.778 593.666 258.676L675.07 342.888C677.669 345.557 675.279 349.989 671.613 349.293L487.292 314.067C487.292 314.067 284.383 251.645 261.944 274.084C246.071 289.957 231.521 328.779 349.359 344.211" stroke="black" stroke-width="2" stroke-miterlimit="10"/>
<path d="M328.567 422.064C328.567 422.064 386.766 412.944 370.638 361.753C363.932 340.451 338.034 344.767 310.072 357.089C297.912 362.449 289.349 374.099 289.094 387.395C289.001 392.083 289.79 397.165 292.088 402.432C301.207 423.48 329.24 442.601 329.24 442.601" stroke="black" stroke-width="2" stroke-miterlimit="10"/>
<path d="M357.295 501.104C357.295 501.104 418.488 488.062 405.377 443.09C394.702 412.691 324.761 435.038 322.324 451.56C322.324 451.56 307.844 533.29 373.469 525.377" stroke="black" stroke-width="2" stroke-miterlimit="10"/>
<path d="M400.759 581.652C400.759 581.652 440.765 547.981 427.352 519.369C413.939 490.757 388.367 513.544 388.367 513.544C388.367 513.544 342.536 542.667 362.284 571.512C366.763 578.032 370.29 583.346 373.121 587.663C380.756 599.358 392.219 608.06 405.585 612.214L628.497 681.691C639.218 685.033 650.148 687.632 661.217 689.511L740.486 702.901C752.391 704.92 763.785 709.259 774.018 715.687L795.414 729.146" stroke="black" stroke-width="2" stroke-miterlimit="10"/>
<path d="M479.727 682.41L659.662 644.353C686.72 638.621 703.08 610.937 695.004 584.46L563.661 153.929C556.63 130.91 533.425 116.893 509.778 121.372L331.236 155.206C312.37 158.779 300.72 177.831 306.104 196.256L441.809 659.738C446.59 676.029 463.089 685.914 479.704 682.387L479.727 682.41Z" fill="#1A1A1A" stroke="black" stroke-width="2" stroke-miterlimit="10"/>
<path d="M491.213 657.764L671.891 620.867C682.519 618.709 688.97 607.872 685.814 597.5L550.039 150.98C546.372 138.914 534.236 131.511 521.821 133.739L343.626 165.855C333.37 167.712 326.965 178.038 329.889 188.063L462.345 640.406C465.989 652.821 478.52 660.363 491.19 657.787L491.213 657.764Z" fill="white" stroke="black" stroke-width="2" stroke-miterlimit="10"/>
<path d="M493.534 621.053L649.15 589.285C658.293 587.428 663.862 578.076 661.147 569.142L544.215 184.605C541.059 174.209 530.616 167.827 519.919 169.754L366.461 197.414C357.62 199.016 352.12 207.903 354.65 216.536L468.704 606.109C471.837 616.806 482.628 623.304 493.557 621.076L493.534 621.053Z" stroke="black" stroke-width="2" stroke-miterlimit="10"/>
<path d="M622.278 617.061L537.207 636.414" stroke="black" stroke-width="2" stroke-miterlimit="10"/>
<path d="M543.473 368.203L458.401 387.58" stroke="black" stroke-width="2" stroke-miterlimit="10"/>
<path d="M550.457 392.153L465.386 411.507" stroke="black" stroke-width="2" stroke-miterlimit="10"/>
<path d="M493.859 138.775L494.555 141.189C496.62 148.266 492.188 155.576 484.971 157.038L390.34 176.206C382.032 177.9 373.771 173.073 371.149 164.997L369.896 161.099L493.859 138.752V138.775Z" fill="#00FF00" stroke="black" stroke-width="2" stroke-miterlimit="10"/>
<path d="M456.823 152.118L415.401 160.263" stroke="black" stroke-width="2" stroke-miterlimit="10"/>
<path d="M403.706 166.923C405.346 166.923 406.676 165.593 406.676 163.953C406.676 162.312 405.346 160.982 403.706 160.982C402.065 160.982 400.735 162.312 400.735 163.953C400.735 165.593 402.065 166.923 403.706 166.923Z" fill="#1A1A1A" stroke="black" stroke-width="2" stroke-miterlimit="10"/>
<path d="M633.764 562.83C678.223 562.83 714.264 526.789 714.264 482.331C714.264 437.872 678.223 401.831 633.764 401.831C589.306 401.831 553.265 437.872 553.265 482.331C553.265 526.789 589.306 562.83 633.764 562.83Z" fill="#7B61FF" stroke="black" stroke-width="2" stroke-miterlimit="10"/>
<path d="M595.058 447.475C595.058 447.475 582.388 470.448 582.388 498.759C582.388 498.759 589.86 511.522 609.306 512.125C609.306 512.125 612.485 508.343 615.107 505.001C603.574 501.752 599.188 494.535 599.188 494.535C602.785 496.902 606.22 498.596 609.306 499.733C628.265 507.693 649.359 504.955 664.187 496.647C664.373 496.508 666.507 495.348 667.784 494.443C667.784 494.443 663.56 501.497 652.375 504.815C655.021 508.157 658.269 512.125 658.269 512.125C677.692 511.499 685.095 498.759 685.095 498.759C685.095 470.448 672.425 447.475 672.425 447.475C659.755 437.984 647.711 438.239 647.711 438.239L646.829 439.306C662.655 443.878 669.965 450.839 669.965 450.839C669.965 450.839 668.039 449.772 664.767 448.287C644.509 439.376 619.957 439.376 599.072 450.839C599.072 450.839 606.034 444.249 620.978 439.654L619.748 438.262C619.748 438.262 607.705 438.007 595.035 447.498L595.058 447.475ZM641.237 480.821C641.144 475.46 645.205 471.051 650.217 471.051C655.23 471.051 659.198 475.437 659.198 480.821C659.198 486.205 655.16 490.59 650.217 490.59C645.274 490.59 641.237 486.205 641.237 480.821ZM609.144 480.821C609.144 475.46 613.112 471.051 618.124 471.051C623.136 471.051 627.105 475.437 627.105 480.821C627.105 486.205 623.067 490.59 618.124 490.59C613.181 490.59 609.144 486.205 609.144 480.821Z" fill="white" stroke="black" stroke-width="2" stroke-linejoin="round"/>
<path d="M181.56 126.776H265.912C277.259 126.776 286.472 135.988 286.472 147.336V184.557C286.472 195.905 277.282 205.117 265.912 205.117H257.419V226.374L238.205 205.117H181.56C170.213 205.117 161 195.905 161 184.557V147.336C161 135.988 170.189 126.776 181.56 126.776Z" fill="white" stroke="black" stroke-width="2" stroke-miterlimit="10"/>
<path d="M224.165 174.605C228.138 174.605 231.359 171.384 231.359 167.411C231.359 163.438 228.138 160.217 224.165 160.217C220.192 160.217 216.972 163.438 216.972 167.411C216.972 171.384 220.192 174.605 224.165 174.605Z" fill="#00FF00" stroke="black" stroke-width="2" stroke-miterlimit="10"/>
<path d="M195.413 174.605C199.386 174.605 202.607 171.384 202.607 167.411C202.607 163.438 199.386 160.217 195.413 160.217C191.44 160.217 188.22 163.438 188.22 167.411C188.22 171.384 191.44 174.605 195.413 174.605Z" fill="#00FF00" stroke="black" stroke-width="2" stroke-miterlimit="10"/>
<path d="M252.916 174.605C256.889 174.605 260.11 171.384 260.11 167.411C260.11 163.438 256.889 160.217 252.916 160.217C248.943 160.217 245.723 163.438 245.723 167.411C245.723 171.384 248.943 174.605 252.916 174.605Z" fill="#00FF00" stroke="black" stroke-width="2" stroke-miterlimit="10"/>
<path d="M853.102 313.276H797.989C784.878 313.276 774.227 323.904 774.227 337.038V353.584C774.227 366.695 784.855 377.346 797.989 377.346V394.75L813.699 377.346H853.102C866.213 377.346 876.864 366.718 876.864 353.584V337.038C876.864 323.927 866.236 313.276 853.102 313.276Z" fill="#26A4E3" stroke="black" stroke-width="2" stroke-miterlimit="10"/>
<path d="M831.081 346.509C831.081 349.757 828.459 352.38 825.21 352.38C821.961 352.38 819.339 349.757 819.339 346.509C819.339 343.26 821.961 340.638 825.21 340.638C828.459 340.638 831.081 343.26 831.081 346.509Z" fill="white" stroke="black" stroke-width="2" stroke-miterlimit="10"/>
<path d="M854.588 346.509C854.588 349.757 851.965 352.38 848.717 352.38C845.468 352.38 842.846 349.757 842.846 346.509C842.846 343.26 845.468 340.638 848.717 340.638C851.965 340.638 854.588 343.26 854.588 346.509Z" fill="white" stroke="black" stroke-width="2" stroke-miterlimit="10"/>
<path d="M807.551 346.509C807.551 349.757 804.928 352.38 801.68 352.38C798.431 352.38 795.809 349.757 795.809 346.509C795.809 343.26 798.431 340.638 801.68 340.638C804.928 340.638 807.551 343.26 807.551 346.509Z" fill="white" stroke="black" stroke-width="2" stroke-miterlimit="10"/>
<path d="M229.316 550.997H291.623C306.451 550.997 318.472 538.977 318.472 524.149V505.445C318.472 490.617 306.451 478.596 291.623 478.596V458.941L273.871 478.596H229.316C214.488 478.596 202.468 490.617 202.468 505.445V524.149C202.468 538.977 214.488 550.997 229.316 550.997Z" fill="#7B61FF" stroke="black" stroke-width="2" stroke-miterlimit="10"/>
<path d="M260.853 520.062C264.518 520.062 267.489 517.09 267.489 513.425C267.489 509.759 264.518 506.788 260.853 506.788C257.187 506.788 254.216 509.759 254.216 513.425C254.216 517.09 257.187 520.062 260.853 520.062Z" fill="white" stroke="black" stroke-width="2" stroke-miterlimit="10"/>
<path d="M234.282 520.062C237.948 520.062 240.919 517.09 240.919 513.425C240.919 509.759 237.948 506.788 234.282 506.788C230.617 506.788 227.646 509.759 227.646 513.425C227.646 517.09 230.617 520.062 234.282 520.062Z" fill="white" stroke="black" stroke-width="2" stroke-miterlimit="10"/>
<path d="M287.446 520.062C291.112 520.062 294.083 517.09 294.083 513.425C294.083 509.759 291.112 506.788 287.446 506.788C283.781 506.788 280.81 509.759 280.81 513.425C280.81 517.09 283.781 520.062 287.446 520.062Z" fill="white" stroke="black" stroke-width="2" stroke-miterlimit="10"/>
<path d="M647.27 159.032C675.722 159.032 698.786 135.968 698.786 107.516C698.786 79.0645 675.722 56 647.27 56C618.818 56 595.754 79.0645 595.754 107.516C595.754 135.968 618.818 159.032 647.27 159.032Z" fill="#FFD362" stroke="black" stroke-width="2" stroke-miterlimit="10"/>
<path d="M676.3 97.907C676.3 92.1984 671.682 87.5806 665.974 87.5806C660.265 87.5806 655.647 92.1984 655.647 97.907" stroke="black" stroke-width="2" stroke-miterlimit="10"/>
<path d="M638.893 97.907C638.893 92.1984 634.275 87.5806 628.567 87.5806C622.858 87.5806 618.24 92.1984 618.24 97.907" stroke="black" stroke-width="2" stroke-miterlimit="10"/>
<path d="M676.3 107.515C676.3 123.55 663.305 136.545 647.27 136.545C631.235 136.545 618.24 123.55 618.24 107.515H676.3Z" fill="white" stroke="black" stroke-width="2" stroke-miterlimit="10"/>
<path d="M340.61 347.392C340.61 347.392 356.46 344.143 364.953 352.335C373.446 360.526 374.003 379.88 373.075 384.381C372.147 388.883 368.387 403.735 358.455 409.002L340.61 347.392Z" fill="white"/>
<path d="M328.567 422.064C328.567 422.064 386.766 412.944 370.638 361.753C363.932 340.451 338.034 344.767 310.072 357.089C297.912 362.449 289.349 374.099 289.094 387.395C289.001 392.083 289.79 397.165 292.088 402.432C301.207 423.48 329.24 442.601 329.24 442.601" stroke="black" stroke-width="2" stroke-miterlimit="10"/>
<path d="M371.403 427.913C371.403 427.913 400.689 424.827 406.026 445.526C411.363 466.225 397.301 482.376 390.014 486.344L372.053 457.128L371.403 427.913Z" fill="white"/>
<path d="M357.295 501.104C357.295 501.104 418.488 488.062 405.377 443.09C394.702 412.691 324.761 435.038 322.324 451.56C322.324 451.56 307.844 533.29 373.469 525.377" stroke="black" stroke-width="2" stroke-miterlimit="10"/>
<path d="M400.759 581.652C400.759 581.652 440.765 547.981 427.352 519.369C413.939 490.757 388.367 513.544 388.367 513.544C388.367 513.544 342.536 542.667 362.284 571.512" fill="white"/>
<path d="M570.274 663.589L628.45 681.713C639.171 685.054 650.101 687.653 661.17 689.533L740.44 702.923C752.344 704.941 763.738 709.281 773.972 715.709L795.367 729.168" stroke="black" stroke-width="2" stroke-miterlimit="10"/>
<path d="M400.759 581.652C400.759 581.652 440.765 547.981 427.352 519.369C413.939 490.757 388.367 513.544 388.367 513.544C388.367 513.544 342.536 542.667 362.284 571.512C366.763 578.032 370.29 583.346 373.121 587.663C380.756 599.358 392.219 608.06 405.585 612.214L430.183 619.872" stroke="black" stroke-width="2" stroke-miterlimit="10"/>
<path d="M774.227 737.057C786.038 744.924 827.065 704.152 865.842 645.952C904.618 587.753 926.477 534.195 914.643 526.305" stroke="black" stroke-width="2" stroke-miterlimit="10"/>
<path d="M409.229 458.917L579.742 248.606" stroke="black" stroke-width="2" stroke-miterlimit="10"/>
<path d="M422.665 506.999L593.179 296.688" stroke="black" stroke-width="2" stroke-miterlimit="10"/>
<path d="M472.765 364.869C517.224 364.869 553.265 328.828 553.265 284.369C553.265 239.91 517.224 203.869 472.765 203.869C428.307 203.869 392.266 239.91 392.266 284.369C392.266 328.828 428.307 364.869 472.765 364.869Z" fill="#26A4E3" stroke="black" stroke-width="2" stroke-miterlimit="10"/>
<path d="M499.358 320.688C498.245 325.631 495.321 326.861 491.144 324.54L468.495 307.832L457.565 318.344C456.359 319.551 455.338 320.572 453.017 320.572L454.642 297.482L496.643 259.542C498.477 257.917 496.249 257.012 493.812 258.637L441.902 291.31L419.555 284.325C414.682 282.793 414.612 279.452 420.553 277.131L507.968 243.46C512.005 241.929 515.556 244.365 514.233 250.538L499.358 320.665V320.688Z" fill="white" stroke="black" stroke-width="2" stroke-miterlimit="10"/>
<path d="M501.632 694.286H585.311C596.295 694.286 605.198 685.382 605.198 674.399V627.686C605.198 616.703 596.295 607.799 585.311 607.799H501.632C490.649 607.799 481.745 616.703 481.745 627.686V674.399C481.745 685.382 490.649 694.286 501.632 694.286Z" fill="#00FF00" stroke="black" stroke-width="2" stroke-miterlimit="10"/>
<path d="M483.416 619.678L543.472 661.726L603.527 619.678" fill="#00FF00"/>
<path d="M483.416 619.678L543.472 661.726L603.527 619.678" stroke="black" stroke-width="2" stroke-miterlimit="10"/>
<path d="M523.979 648.083L482 677.507" stroke="black" stroke-width="2" stroke-miterlimit="10"/>
<path d="M604.943 677.507L562.941 648.083" stroke="black" stroke-width="2" stroke-miterlimit="10"/>
<path d="M949.5 38C949.5 53.1843 937.184 65.5 922 65.5C937.184 65.5 949.5 77.8157 949.5 93C949.5 77.8157 961.816 65.5 977 65.5C961.816 65.5 949.5 53.1843 949.5 38Z" fill="#21F225"/>
<path d="M136 297C136 305.835 128.835 313 120 313C128.835 313 136 320.165 136 329C136 320.165 143.165 313 152 313C143.165 313 136 305.835 136 297Z" fill="#21F225"/>
<path d="M143.68 491C120.32 502.287 82.5747 547.111 93.0478 564.803C105.913 586.535 143.135 565.057 168.086 562.085C175.417 561.215 205.032 555.928 203.044 572.113C201.098 587.943 112.862 622.279 79.362 652.879C55.84 674.37 16.9409 720.291 52.0612 748.958C121.417 792.508 256.676 722.216 334 707.291" stroke="#00FF00" stroke-width="5" stroke-miterlimit="10"/>
</g>
</svg>
