<svg width="572" height="567" viewBox="0 0 572 567" fill="none" xmlns="http://www.w3.org/2000/svg">
<path d="M496.053 500.952C511.124 516.864 535.684 519.061 553.328 506.058C569.524 494.127 575.392 472.631 567.521 454.121L507.971 314.081C492.718 278.211 459.278 253.368 420.526 249.115L415.059 248.521L264.122 259.74L183.076 300.625L115.835 403.413L103.361 543.349H140.963L136.517 564.031L499.982 565.789L446.469 448.602L496.04 500.965L496.053 500.952Z" fill="#1A1A1A"/>
<path d="M347.74 565.787H203.408L230.255 507.194L251.338 381.514L287.078 242.198L365.836 250.561L347.74 565.787Z" fill="#808080" stroke="#1A1A1A" stroke-width="1.5" stroke-miterlimit="10"/>
<path d="M139.167 457.094C138.728 455.336 94.7279 354.565 94.7279 354.565L15.9569 357.202L65.011 518.053C69.5868 533.073 83.4435 543.337 99.1486 543.337H140.977" fill="#1A1A1A"/>
<path d="M139.167 457.094C138.728 455.336 94.7279 354.565 94.7279 354.565L15.9569 357.202L65.011 518.053C69.5868 533.073 83.4435 543.337 99.1486 543.337H140.977" stroke="#1A1A1A" stroke-width="1.5" stroke-miterlimit="10"/>
<path d="M94.7271 354.565C94.7271 354.565 68.7588 396.808 44.5613 396.808C24.539 396.808 15.9561 357.202 15.9561 357.202" fill="#808080"/>
<path d="M94.7271 354.565C94.7271 354.565 68.7588 396.808 44.5613 396.808C24.539 396.808 15.9561 357.202 15.9561 357.202L94.7271 354.565Z" stroke="#1A1A1A" stroke-width="1.5" stroke-miterlimit="10"/>
<path d="M88.7801 302.421C110.56 309.905 108.583 293.838 108.583 293.838L50.713 273.596C49.6143 274.255 2.52496 294.885 2.52496 294.885L29.2559 356.761L50.4933 374.586L52.0056 395.565C52.0056 395.565 69.8306 392.515 94.7131 354.564L92.3864 352.884C92.3864 352.884 84.2689 365.499 70.8517 361.932C57.4346 358.364 54.2677 351.552 54.2677 351.552L52.122 338.368L61.2219 334.71C61.2219 334.71 108.751 335.408 98.0221 319.315C98.0221 319.315 107.277 322.016 108.621 309.685C108.621 309.685 66.9868 294.949 88.7671 302.421H88.7801Z" fill="white"/>
<path d="M390.654 77.5735C369.509 77.5735 352.367 60.432 352.367 39.2868C352.367 18.1416 369.509 1 390.654 1C411.799 1 428.941 18.1416 428.941 39.2868C428.941 60.432 411.799 77.5735 390.654 77.5735Z" fill="#1A1A1A" stroke="#1A1A1A" stroke-width="1.5" stroke-miterlimit="10"/>
<path d="M357.253 172.618C357.253 172.618 384.372 163.053 384.372 94.0673C384.372 25.0813 326.373 1.14237 283.097 21.6947C239.821 42.247 276.453 146.87 276.453 146.87L357.253 172.606V172.618Z" fill="#1A1A1A" stroke="#1A1A1A" stroke-width="1.5" stroke-miterlimit="10"/>
<path d="M357.254 104.978V263.696H290.672L279.737 198.304L357.254 104.978Z" fill="white" stroke="#1A1A1A" stroke-width="1.5" stroke-miterlimit="10"/>
<path d="M287.079 199.014C249.814 199.014 219.605 163.932 219.605 120.657C219.605 77.3811 249.814 42.2993 287.079 42.2993C324.343 42.2993 354.552 77.3811 354.552 120.657C354.552 163.932 324.343 199.014 287.079 199.014Z" fill="white" stroke="#1A1A1A" stroke-width="1.5" stroke-miterlimit="10"/>
<path d="M415.071 248.521L420.538 249.115C459.291 253.368 492.717 278.199 507.983 314.081L567.533 454.121C575.405 472.631 569.536 494.127 553.34 506.058C535.696 519.061 511.124 516.864 496.065 500.952L375.802 373.928L438.402 317.61L525.523 412.215" fill="#1A1A1A"/>
<path d="M415.071 248.521L420.538 249.115C459.291 253.368 492.717 278.199 507.983 314.081L567.533 454.121C575.405 472.631 569.536 494.127 553.34 506.058C535.696 519.061 511.124 516.864 496.065 500.952L375.802 373.928L438.402 317.61L525.523 412.215" stroke="#1A1A1A" stroke-width="1.5" stroke-miterlimit="10"/>
<path d="M446.481 448.587L499.995 565.787H347.739L342.026 321.124" fill="#1A1A1A"/>
<path d="M446.481 448.587L499.995 565.787H347.739L342.026 321.124" stroke="#1A1A1A" stroke-width="1.5" stroke-miterlimit="10"/>
<path d="M251.339 381.515L230.257 507.194L203.41 565.787L136.531 564.017L173.939 390.214" fill="#1A1A1A"/>
<path d="M251.339 381.515L230.257 507.194L203.41 565.787L136.531 564.017L173.939 390.214" stroke="#1A1A1A" stroke-width="1.5" stroke-miterlimit="10"/>
<path d="M264.134 259.739L210.802 275.031C181.899 283.316 158.27 304.166 146.456 331.815L115.847 403.412" fill="#1A1A1A"/>
<path d="M264.134 259.739L210.802 275.031C181.899 283.316 158.27 304.166 146.456 331.815L115.847 403.412" stroke="#1A1A1A" stroke-width="1.5" stroke-miterlimit="10"/>
<path d="M251.337 381.514L226.299 290.761L287.077 242.198L251.337 381.514Z" fill="#333333" stroke="#1A1A1A" stroke-width="1.5" stroke-miterlimit="10"/>
<path d="M359.18 346.64L375.803 564.016" stroke="#1A1A1A" stroke-width="1.5" stroke-miterlimit="10"/>
<path d="M243.065 351.553L216.619 500.654L179.651 564.017" stroke="#1A1A1A" stroke-width="1.5" stroke-miterlimit="10"/>
<path d="M104.848 258.421V273.028C104.848 280.77 100.854 287.97 94.2872 292.081V345.943C94.2872 357.202 85.1614 366.34 73.89 366.34C63.7948 366.34 55.2248 358.96 53.7254 348.981L42.8029 276.246L35.461 273.558C31.7383 272.2 29.2694 268.659 29.2694 264.69V232.673C29.2694 227.567 33.4057 223.431 38.5115 223.431H140.821C147.749 223.431 153.359 229.041 153.359 235.969C153.359 242.897 147.749 248.507 140.821 248.507H114.749C109.281 248.507 104.848 252.941 104.848 258.408V258.421Z" fill="#00FF00" stroke="#1A1A1A" stroke-width="1.5" stroke-miterlimit="10"/>
<path d="M40.3206 232.349H40.3335C43.703 232.349 46.4346 235.081 46.4346 238.45V257.607C46.4346 260.976 43.703 263.708 40.3335 263.708H40.3206C36.9511 263.708 34.2195 260.976 34.2195 257.607V238.45C34.2195 235.081 36.9511 232.349 40.3206 232.349Z" stroke="#1A1A1A" stroke-width="1.5" stroke-miterlimit="10"/>
<path d="M119.804 248.521H61.7278" stroke="#1A1A1A" stroke-width="1.5" stroke-miterlimit="10"/>
<path d="M30.0319 282.814L24.3187 263.696C24.3187 263.696 68.3187 260.038 63.2646 237.961C59.0896 219.696 1.00017 250.059 1.00017 250.059L5.395 293.84" fill="white"/>
<path d="M30.0319 282.814L24.3187 263.696C24.3187 263.696 68.3187 260.038 63.2646 237.961C59.0896 219.696 1.00017 250.059 1.00017 250.059L5.395 293.84" stroke="#1A1A1A" stroke-width="1.5" stroke-miterlimit="10"/>
<path d="M60.4086 314.081L98.0362 319.303C98.0362 319.303 103.31 329.915 92.7495 331.569C82.1889 333.224 60.4086 334.762 60.4086 334.762L38.1889 344.444" fill="white"/>
<path d="M60.4086 314.081L98.0362 319.303C98.0362 319.303 103.31 329.915 92.7495 331.569C82.1889 333.224 60.4086 334.762 60.4086 334.762L38.1889 344.444" stroke="#1A1A1A" stroke-width="1.5" stroke-miterlimit="10"/>
<path d="M438.389 317.609C438.389 317.609 438.014 396.652 375.789 373.928L438.389 317.609Z" fill="#808080"/>
<path d="M438.389 317.609C438.389 317.609 438.014 396.652 375.789 373.928" stroke="#1A1A1A" stroke-width="1.5" stroke-miterlimit="10"/>
<path d="M365.564 264.73L401.214 346.306C404.626 354.733 401.55 364.389 393.911 369.301C384.966 375.04 373.061 372.287 367.542 363.2L331.31 303.443L313.899 300.845C307.035 299.824 300.96 295.817 297.328 289.897L292.545 282.102L284.518 287.337C277.06 292.198 267.068 289.948 262.428 282.348C257.826 274.799 260.308 264.95 267.947 260.503L342.905 216.774C351.695 211.643 362.979 215.081 367.425 224.246L374.935 239.744C378.581 247.254 376.396 256.289 369.739 261.317L365.577 264.769L365.564 264.73Z" fill="#00FF00" stroke="#1A1A1A" stroke-width="1.5" stroke-miterlimit="10"/>
<path d="M417.152 371.486C421.521 367.065 428.398 358.999 433.18 347.03C438.092 334.737 438.571 323.866 438.39 317.61C433.348 301.259 428.307 284.921 423.279 268.569L409.759 243.622L361.377 219.877L307.876 252.334C307.876 252.334 310.19 279.388 357.266 246.324L384.385 259.741L347.753 269.474L331.362 305.537C331.362 305.537 329.268 318.864 339.907 317.61C339.907 317.61 336.675 337.348 350.971 335.875C350.971 335.875 345.116 353.454 361.506 353.247L382.704 333.199L397.078 336.107L390.654 377.677C393.588 378.156 398.552 378.595 404.433 377.238C410.405 375.855 414.709 373.244 417.139 371.512L417.152 371.486Z" fill="white" stroke="#1A1A1A" stroke-width="1.5" stroke-miterlimit="10"/>
<path d="M380.934 364.868C380.934 364.868 408.932 404.899 397.854 431.268C386.776 457.637 402.585 525.008 402.585 525.008" stroke="#1A1A1A" stroke-width="1.5" stroke-miterlimit="10"/>
<path d="M78.4676 361.934C78.4676 361.934 109.49 389.931 104.281 423.772C99.0716 457.612 97.8565 487.238 108.714 509.044" stroke="#1A1A1A" stroke-width="1.5" stroke-miterlimit="10"/>
<path d="M351.85 97.4779L349.976 102.622C346.46 112.252 336.933 118.328 326.735 117.462L304.037 115.536C294.704 114.747 285.85 111.05 278.715 104.988L277.564 104.006C274.049 101.02 269.525 99.5202 264.923 99.8046C258.602 100.205 252.966 103.941 250.136 109.603C247.861 114.165 243.828 117.604 238.98 119.168L230.152 121.999C223.456 124.144 216.218 120.939 213.309 114.54L196.325 77.21L332.513 42.3228L349.549 71.5226C354.151 79.4074 354.991 88.9209 351.876 97.4909L351.85 97.4779Z" fill="#808080" stroke="#1A1A1A" stroke-width="1.5" stroke-miterlimit="10"/>
<path d="M223.477 25.7535L295.299 20.5548C314.837 19.1406 331.822 33.8327 333.236 53.3705L333.306 54.3374C334.721 73.8752 320.029 90.8602 300.491 92.2744L228.668 97.4731C209.13 98.8873 192.145 84.1952 190.731 64.6574L190.661 63.6905C189.247 44.1527 203.939 27.1677 223.477 25.7535Z" fill="#00FF00" stroke="#1A1A1A" stroke-width="1.5" stroke-miterlimit="10"/>
<path d="M223.477 25.7535L295.299 20.5548C314.837 19.1406 331.822 33.8327 333.236 53.3705L333.306 54.3374C334.721 73.8752 320.029 90.8602 300.491 92.2744L228.668 97.4731C209.13 98.8873 192.145 84.1952 190.731 64.6574L190.661 63.6905C189.247 44.1527 203.939 27.1677 223.477 25.7535Z" fill="#00FF00" stroke="#1A1A1A" stroke-width="1.5" stroke-miterlimit="10"/>
<path d="M364.286 124.069V97.0664C364.286 96.9371 364.26 96.8078 364.208 96.6915L347.391 56.8407C346.823 55.4964 345.517 54.6304 344.056 54.6304C341.885 54.6304 340.205 56.5305 340.463 58.6891L342.932 78.6081L362.437 124.444C362.851 125.4 364.273 125.116 364.273 124.069H364.286Z" fill="#00FF00" stroke="#1A1A1A" stroke-width="1.5" stroke-miterlimit="10"/>
<path d="M351.58 118.755C354.01 123.615 358.314 126.846 363.226 126.846C370.827 126.846 376.979 119.117 376.979 109.577C376.979 100.038 370.827 92.3081 363.226 92.3081C358.482 92.3081 354.294 95.3328 351.826 99.9215" fill="white"/>
<path d="M351.58 118.755C354.01 123.615 358.314 126.846 363.226 126.846C370.827 126.846 376.979 119.117 376.979 109.577C376.979 100.038 370.827 92.3081 363.226 92.3081C358.482 92.3081 354.294 95.3328 351.826 99.9215" stroke="#1A1A1A" stroke-width="1.5" stroke-miterlimit="10"/>
<path d="M261.976 100.246L256.689 111.867" stroke="#1A1A1A" stroke-width="1.5" stroke-miterlimit="10"/>
<path d="M283.02 288.19L321.824 263.321" stroke="#1A1A1A" stroke-width="1.5" stroke-miterlimit="10"/>
<path d="M484.161 488.387L375.803 373.928" stroke="#1A1A1A" stroke-width="1.5" stroke-miterlimit="10"/>
<path d="M350.972 335.861L375.803 311.857H397.04" fill="white"/>
<path d="M350.972 335.861L375.803 311.857H397.04" stroke="#1A1A1A" stroke-width="1.5" stroke-miterlimit="10"/>
<path d="M339.907 317.608L363.238 288.188H391.766" fill="white"/>
<path d="M339.907 317.608L363.238 288.188H391.766" stroke="#1A1A1A" stroke-width="1.5" stroke-miterlimit="10"/>
<path d="M21.1907 315.49L25.3528 322.444L61.7266 310.953L56.6983 292.081L21.1907 303.779V315.49Z" fill="white"/>
<path d="M26.1687 329.657L30.318 336.611L66.7046 325.12L61.6764 306.248L26.1687 317.946V329.657Z" fill="white"/>
<path d="M2.92485 294.717L30.315 307.268L94.8286 304.036L103.037 291.899L50.7252 273.596L2.92485 294.717Z" fill="white"/>
<path d="M58.198 292.081L108.622 309.686C108.622 309.686 110.341 319.807 98.0229 319.316L60.3954 314.094L27.8349 322.457" fill="white"/>
<path d="M58.198 292.081L108.622 309.686C108.622 309.686 110.341 319.807 98.0229 319.316L60.3954 314.094L27.8349 322.457" stroke="#1A1A1A" stroke-width="1.5" stroke-miterlimit="10"/>
<path d="M23.8787 303.08L58.1972 292.08C58.1972 292.08 66.9998 294.937 88.7801 302.421C110.56 309.905 108.583 293.838 108.583 293.838L50.713 273.596C49.6143 274.255 2.52496 294.885 2.52496 294.885L29.2559 356.761L50.4933 374.586L52.0056 395.565" stroke="#1A1A1A" stroke-width="1.5" stroke-miterlimit="10"/>
<path d="M98.5535 112.81C98.5535 122.802 106.658 130.906 116.65 130.906C106.658 130.906 98.5535 139.01 98.5535 149.002C98.5535 139.01 90.4492 130.906 80.4571 130.906C90.4492 130.906 98.5535 122.802 98.5535 112.81Z" fill="#21F225" stroke="#21F225" stroke-width="1.5" stroke-linejoin="bevel"/>
<path d="M465.652 147.709C465.652 157.702 473.756 165.806 483.748 165.806C473.756 165.806 465.652 173.91 465.652 183.902C465.652 173.91 457.547 165.806 447.555 165.806C457.547 165.806 465.652 157.702 465.652 147.709Z" fill="#21F225" stroke="#21F225" stroke-width="1.5" stroke-linejoin="bevel"/>
</svg>
