<svg width="188" height="186" viewBox="0 0 188 186" fill="none" xmlns="http://www.w3.org/2000/svg">
<path d="M25.4564 164.142C20.5382 169.335 12.5241 170.052 6.76663 165.808C1.48154 161.915 -0.433414 154.901 2.13532 148.861L21.5674 103.163C26.5446 91.4587 37.4564 83.3517 50.1019 81.964L51.8861 81.77L101.139 85.4312L127.586 98.7726L149.527 132.314L153.598 177.977H141.328L142.779 184.726L24.1741 185.3L41.6364 147.06L25.4606 164.147L25.4564 164.142Z" fill="#1A1A1A"/>
<path d="M73.8534 185.299H120.951L112.19 166.179L105.311 125.168L93.6482 79.707L67.9482 82.436L73.8534 185.299Z" fill="#808080" stroke="#1A1A1A" stroke-width="1.25136" stroke-miterlimit="10"/>
<path d="M141.914 149.831C142.057 149.257 156.415 116.374 156.415 116.374L182.119 117.234L166.112 169.723C164.619 174.624 160.097 177.973 154.973 177.973H141.323" fill="#1A1A1A"/>
<path d="M141.914 149.831C142.057 149.257 156.415 116.374 156.415 116.374L182.119 117.234L166.112 169.723C164.619 174.624 160.097 177.973 154.973 177.973H141.323" stroke="#1A1A1A" stroke-width="1.25136" stroke-miterlimit="10"/>
<path d="M156.415 116.374C156.415 116.374 164.889 130.158 172.785 130.158C179.319 130.158 182.119 117.234 182.119 117.234" fill="#808080"/>
<path d="M156.415 116.374C156.415 116.374 164.889 130.158 172.785 130.158C179.319 130.158 182.119 117.234 182.119 117.234L156.415 116.374Z" stroke="#1A1A1A" stroke-width="1.25136" stroke-miterlimit="10"/>
<path d="M158.356 99.3577C151.249 101.8 151.894 96.557 151.894 96.557L170.778 89.9517C171.136 90.1668 186.502 96.8986 186.502 96.8986L177.78 117.09L170.85 122.907L170.356 129.752C170.356 129.752 164.54 128.757 156.42 116.373L157.179 115.825C157.179 115.825 159.828 119.941 164.206 118.777C168.585 117.613 169.618 115.39 169.618 115.39L170.318 111.088L167.349 109.894C167.349 109.894 151.839 110.122 155.34 104.871C155.34 104.871 152.32 105.752 151.881 101.728C151.881 101.728 165.468 96.9197 158.36 99.3577H158.356Z" fill="white"/>
<path d="M59.85 25.9871C66.75 25.9871 72.3436 20.3936 72.3436 13.4936C72.3436 6.59356 66.75 1 59.85 1C52.95 1 47.3564 6.59356 47.3564 13.4936C47.3564 20.3936 52.95 25.9871 59.85 25.9871Z" fill="#1A1A1A" stroke="#1A1A1A" stroke-width="1.25136" stroke-miterlimit="10"/>
<path d="M70.7487 57.0017C70.7487 57.0017 61.8994 53.8804 61.8994 31.3692C61.8994 8.85803 80.8254 1.04639 94.9471 7.75293C109.069 14.4595 97.1151 48.5996 97.1151 48.5996L70.7487 56.9975V57.0017Z" fill="#1A1A1A" stroke="#1A1A1A" stroke-width="1.25136" stroke-miterlimit="10"/>
<path d="M70.749 34.9292V86.7214H92.4757L96.0441 65.3828L70.749 34.9292Z" fill="white" stroke="#1A1A1A" stroke-width="1.25136" stroke-miterlimit="10"/>
<path d="M93.6486 65.615C105.809 65.615 115.666 54.1673 115.666 40.0458C115.666 25.9243 105.809 14.4766 93.6486 14.4766C81.4885 14.4766 71.6309 25.9243 71.6309 40.0458C71.6309 54.1673 81.4885 65.615 93.6486 65.615Z" fill="white" stroke="#1A1A1A" stroke-width="1.25136" stroke-miterlimit="10"/>
<path d="M51.8821 81.77L50.098 81.964C37.4525 83.3517 26.5449 91.4544 21.5635 103.163L2.13141 148.861C-0.43732 154.901 1.47763 161.915 6.76272 165.808C12.5202 170.052 20.5386 169.335 25.4525 164.142L64.6963 122.693L44.2687 104.315L15.8398 135.186" fill="#1A1A1A"/>
<path d="M51.8821 81.77L50.098 81.964C37.4525 83.3517 26.5449 91.4544 21.5635 103.163L2.13141 148.861C-0.43732 154.901 1.47763 161.915 6.76272 165.808C12.5202 170.052 20.5386 169.335 25.4525 164.142L64.6963 122.693L44.2687 104.315L15.8398 135.186" stroke="#1A1A1A" stroke-width="1.25136" stroke-miterlimit="10"/>
<path d="M41.6322 147.054L24.1699 185.298H73.8532L75.7175 105.461" fill="#1A1A1A"/>
<path d="M41.6322 147.054L24.1699 185.298H73.8532L75.7175 105.461" stroke="#1A1A1A" stroke-width="1.25136" stroke-miterlimit="10"/>
<path d="M105.311 125.167L112.19 166.179L120.951 185.299L142.774 184.721L130.568 128.006" fill="#1A1A1A"/>
<path d="M105.311 125.167L112.19 166.179L120.951 185.299L142.774 184.721L130.568 128.006" stroke="#1A1A1A" stroke-width="1.25136" stroke-miterlimit="10"/>
<path d="M101.135 85.4312L118.538 90.421C127.969 93.1247 135.68 99.9282 139.535 108.95L149.523 132.314" fill="#1A1A1A"/>
<path d="M101.135 85.4312L118.538 90.421C127.969 93.1247 135.68 99.9282 139.535 108.95L149.523 132.314" stroke="#1A1A1A" stroke-width="1.25136" stroke-miterlimit="10"/>
<path d="M105.311 125.168L113.481 95.5539L93.6484 79.707L105.311 125.168Z" fill="#333333" stroke="#1A1A1A" stroke-width="1.25136" stroke-miterlimit="10"/>
<path d="M70.1206 113.788L64.6963 184.721" stroke="#1A1A1A" stroke-width="1.25136" stroke-miterlimit="10"/>
<path d="M108.011 115.391L116.641 164.045L128.704 184.721" stroke="#1A1A1A" stroke-width="1.25136" stroke-miterlimit="10"/>
<path d="M153.113 85.001V89.7673C153.113 92.2938 154.417 94.6432 156.559 95.9845V113.561C156.559 117.235 159.537 120.217 163.215 120.217C166.509 120.217 169.306 117.808 169.795 114.552L173.359 90.8176L175.755 89.9402C176.97 89.4973 177.776 88.3416 177.776 87.0467V76.5988C177.776 74.9327 176.426 73.583 174.76 73.583H141.375C139.114 73.583 137.283 75.4136 137.283 77.6744C137.283 79.9352 139.114 81.7658 141.375 81.7658H149.882C151.666 81.7658 153.113 83.2126 153.113 84.9968V85.001Z" fill="#00FF00" stroke="#1A1A1A" stroke-width="1.25136" stroke-miterlimit="10"/>
<path d="M174.169 76.4932H174.165C173.065 76.4932 172.174 77.3845 172.174 78.484V84.735C172.174 85.8346 173.065 86.7259 174.165 86.7259H174.169C175.268 86.7259 176.16 85.8346 176.16 84.735V78.484C176.16 77.3845 175.268 76.4932 174.169 76.4932Z" stroke="#1A1A1A" stroke-width="1.25136" stroke-miterlimit="10"/>
<path d="M148.232 81.77H167.184" stroke="#1A1A1A" stroke-width="1.25136" stroke-miterlimit="10"/>
<path d="M177.526 92.9596L179.39 86.7213C179.39 86.7213 165.033 85.5276 166.682 78.3233C168.044 72.3634 187 82.2713 187 82.2713L185.566 96.5575" fill="white"/>
<path d="M177.526 92.9596L179.39 86.7213C179.39 86.7213 165.033 85.5276 166.682 78.3233C168.044 72.3634 187 82.2713 187 82.2713L185.566 96.5575" stroke="#1A1A1A" stroke-width="1.25136" stroke-miterlimit="10"/>
<path d="M167.613 103.163L155.335 104.867C155.335 104.867 153.614 108.33 157.06 108.869C160.506 109.409 167.613 109.911 167.613 109.911L174.864 113.071" fill="white"/>
<path d="M167.613 103.163L155.335 104.867C155.335 104.867 153.614 108.33 157.06 108.869C160.506 109.409 167.613 109.911 167.613 109.911L174.864 113.071" stroke="#1A1A1A" stroke-width="1.25136" stroke-miterlimit="10"/>
<path d="M44.2725 104.315C44.2725 104.315 44.3948 130.108 64.7 122.693L44.2725 104.315Z" fill="#808080"/>
<path d="M44.2725 104.315C44.2725 104.315 44.3948 130.108 64.7 122.693" stroke="#1A1A1A" stroke-width="1.25136" stroke-miterlimit="10"/>
<path d="M68.0366 87.0589L56.4035 113.678C55.29 116.429 56.2938 119.579 58.7866 121.182C61.7055 123.055 65.5902 122.157 67.3913 119.191L79.2142 99.6917L84.8958 98.8439C87.1355 98.5107 89.1179 97.2031 90.3032 95.2713L91.8638 92.7279L94.4832 94.4361C96.9169 96.0221 100.177 95.2882 101.692 92.808C103.193 90.3447 102.383 87.1306 99.8906 85.6797L75.4307 71.4103C72.5625 69.7358 68.8802 70.8578 67.4292 73.8483L64.9786 78.9056C63.7891 81.3563 64.502 84.3046 66.6742 85.9454L68.0324 87.0716L68.0366 87.0589Z" fill="#00FF00" stroke="#1A1A1A" stroke-width="1.25136" stroke-miterlimit="10"/>
<path d="M51.2028 121.895C49.7772 120.453 47.5332 117.821 45.9726 113.915C44.3698 109.904 44.2137 106.356 44.2728 104.315C45.9178 98.9791 47.5628 93.6476 49.2035 88.3119L53.6155 80.1712L69.4033 72.4229L86.8614 83.0141C86.8614 83.0141 86.1064 91.8423 70.7446 81.0528L61.8954 85.431L73.849 88.6071L79.1974 100.375C79.1974 100.375 79.8807 104.724 76.4093 104.315C76.4093 104.315 77.4638 110.756 72.7988 110.275C72.7988 110.275 74.7095 116.011 69.3611 115.944L62.4437 109.402L57.7533 110.351L59.8497 123.916C58.8922 124.072 57.2725 124.215 55.3533 123.772C53.4046 123.321 52 122.469 51.2071 121.904L51.2028 121.895Z" fill="white" stroke="#1A1A1A" stroke-width="1.25136" stroke-miterlimit="10"/>
<path d="M63.0211 119.736C63.0211 119.736 53.885 132.799 57.4998 141.403C61.1146 150.008 55.9561 171.992 55.9561 171.992" stroke="#1A1A1A" stroke-width="1.25136" stroke-miterlimit="10"/>
<path d="M161.722 118.778C161.722 118.778 151.598 127.914 153.298 138.957C154.998 149.999 155.395 159.667 151.852 166.782" stroke="#1A1A1A" stroke-width="1.25136" stroke-miterlimit="10"/>
<path d="M72.5122 32.4819L73.1238 34.1606C74.2711 37.303 77.3797 39.2854 80.7077 39.0028L88.1144 38.3744C91.1598 38.1171 94.0491 36.9107 96.3774 34.9325L96.7528 34.612C97.9001 33.6376 99.3763 33.1483 100.878 33.2411C102.941 33.3719 104.78 34.5909 105.703 36.4383C106.446 37.9273 107.762 39.0492 109.343 39.5596L112.224 40.4833C114.409 41.1835 116.771 40.1375 117.72 38.0496L123.263 25.8681L78.8223 14.4839L73.263 24.0122C71.7614 26.5852 71.4873 29.6896 72.5038 32.4861L72.5122 32.4819Z" fill="#808080" stroke="#1A1A1A" stroke-width="1.25136" stroke-miterlimit="10"/>
<path d="M114.403 9.07741L90.9657 7.38099C84.5902 6.91951 79.0478 11.7138 78.5863 18.0893L78.5635 18.4048C78.102 24.7803 82.8962 30.3227 89.2717 30.7842L112.709 32.4806C119.084 32.9421 124.627 28.1479 125.088 21.7724L125.111 21.4568C125.572 15.0813 120.778 9.53888 114.403 9.07741Z" fill="#00FF00" stroke="#1A1A1A" stroke-width="1.25136" stroke-miterlimit="10"/>
<path d="M114.403 9.07741L90.9657 7.38099C84.5902 6.91951 79.0478 11.7138 78.5863 18.0893L78.5635 18.4048C78.102 24.7803 82.8962 30.3227 89.2717 30.7842L112.709 32.4806C119.084 32.9421 124.627 28.1479 125.088 21.7724L125.111 21.4568C125.572 15.0813 120.778 9.53888 114.403 9.07741Z" fill="#00FF00" stroke="#1A1A1A" stroke-width="1.25136" stroke-miterlimit="10"/>
<path d="M68.4541 41.1593V32.348C68.4541 32.3058 68.4625 32.2637 68.4794 32.2257L73.967 19.2218C74.1526 18.7831 74.5786 18.5005 75.0552 18.5005C75.7638 18.5005 76.3121 19.1205 76.2278 19.8249L75.4222 26.3248L69.0573 41.2816C68.9223 41.5938 68.4583 41.501 68.4583 41.1593H68.4541Z" fill="#00FF00" stroke="#1A1A1A" stroke-width="1.25136" stroke-miterlimit="10"/>
<path d="M72.7448 39.5276C71.9466 41.1711 70.5329 42.2639 68.9196 42.2639C66.4232 42.2639 64.4023 39.65 64.4023 36.4242C64.4023 33.1983 66.4232 30.5845 68.9196 30.5845C71.4159 30.5845 72.7448 33.9214 72.7448 35.5899" fill="white"/>
<path d="M72.7448 39.5276C71.9466 41.1711 70.5329 42.2639 68.9196 42.2639C66.4232 42.2639 64.4023 39.65 64.4023 36.4242C64.4023 33.1983 66.4232 30.5845 68.9196 30.5845C71.4159 30.5845 72.7448 33.9214 72.7448 35.5899" stroke="#1A1A1A" stroke-width="1.25136" stroke-miterlimit="10"/>
<path d="M101.84 33.3853L103.565 37.1772" stroke="#1A1A1A" stroke-width="1.25136" stroke-miterlimit="10"/>
<path d="M94.9728 94.7145L82.3105 86.5991" stroke="#1A1A1A" stroke-width="1.25136" stroke-miterlimit="10"/>
<path d="M29.3369 160.042L64.696 122.692" stroke="#1A1A1A" stroke-width="1.25136" stroke-miterlimit="10"/>
<path d="M72.7984 110.27L64.6957 102.438H57.7656" fill="white"/>
<path d="M72.7984 110.27L64.6957 102.438H57.7656" stroke="#1A1A1A" stroke-width="1.25136" stroke-miterlimit="10"/>
<path d="M76.4097 104.314L68.7963 94.7144H59.4873" fill="white"/>
<path d="M76.4097 104.314L68.7963 94.7144H59.4873" stroke="#1A1A1A" stroke-width="1.25136" stroke-miterlimit="10"/>
<path d="M180.411 103.623L179.053 105.892L167.184 102.143L168.824 95.9844L180.411 99.8016V103.623Z" fill="white"/>
<path d="M178.787 108.246L177.433 110.515L165.56 106.765L167.2 100.607L178.787 104.424V108.246Z" fill="white"/>
<path d="M186.371 96.8438L177.433 100.939L156.382 99.8849L153.703 95.9243L170.773 89.9517L186.371 96.8438Z" fill="white"/>
<path d="M168.335 95.9844L151.881 101.729C151.881 101.729 151.32 105.032 155.34 104.872L167.618 103.168L178.243 105.897" fill="white"/>
<path d="M168.335 95.9844L151.881 101.729C151.881 101.729 151.32 105.032 155.34 104.872L167.618 103.168L178.243 105.897" stroke="#1A1A1A" stroke-width="1.25136" stroke-miterlimit="10"/>
<path d="M179.534 99.5728L168.336 95.9833C168.336 95.9833 165.463 96.9155 158.356 99.3577C151.249 101.8 151.894 96.557 151.894 96.557L170.778 89.9517C171.136 90.1668 186.502 96.8986 186.502 96.8986L177.78 117.09L170.85 122.907L170.356 129.752" stroke="#1A1A1A" stroke-width="1.25136" stroke-miterlimit="10"/>
<path d="M155.167 37.4849C155.167 40.7454 152.522 43.39 149.262 43.39C152.522 43.39 155.167 46.0346 155.167 49.2951C155.167 46.0346 157.811 43.39 161.072 43.39C157.811 43.39 155.167 40.7454 155.167 37.4849Z" fill="#21F225" stroke="#21F225" stroke-width="1.25136" stroke-linejoin="bevel"/>
<path d="M35.3768 48.8735C35.3768 52.1341 32.7322 54.7787 29.4717 54.7787C32.7322 54.7787 35.3768 57.4232 35.3768 60.6838C35.3768 57.4232 38.0214 54.7787 41.2819 54.7787C38.0214 54.7787 35.3768 52.1341 35.3768 48.8735Z" fill="#21F225" stroke="#21F225" stroke-width="1.25136" stroke-linejoin="bevel"/>
</svg>
