<svg width="256" height="173" viewBox="0 0 256 173" fill="none" xmlns="http://www.w3.org/2000/svg">
<path d="M191.098 48.8417L187.885 59.8238L189.38 62.4403L191.063 61.0075L193.492 60.1887L196.278 63.4638C196.278 63.4638 200.096 55.0715 199.411 52.2414C198.895 50.0877 194.569 46.9817 193.181 46.0117C190.422 44.0538 179.759 44.2318 179.759 44.2318L179.395 45.6557L191.098 48.8417Z" fill="#1A1A1A"/>
<path d="M149.873 80.3464L153.789 87.4661L165.867 83.3634L170.886 80.293L171.456 77.4007C171.456 77.4007 167.228 71.8295 166.899 69.5957C166.65 67.8959 168.537 62.9121 168.537 62.9121L156.228 70.6815L149.873 80.3464Z" fill="#808080"/>
<path d="M229.716 45.6117C229.716 45.6117 217.487 43.4313 213.393 43.8318C208.943 44.2323 196.34 48.9313 196.34 48.9313C196.34 48.9313 199.233 52.0106 199.473 53.3811C199.793 55.161 197.693 60.2516 197.693 60.2516L190.297 78.5848L192.335 84.0313L198.165 90.706L204.074 78.4602L217.745 63.5623L229.716 45.6117Z" fill="#808080"/>
<path d="M124.534 130.638L129.225 130.202L142.094 102.872L139.985 97.167L124.534 130.638Z" fill="#808080"/>
<path d="M206.656 121.454L209.62 110.454L224.91 78.5225L225.08 81.7441L209.753 127.622L206.656 121.454Z" fill="#1A1A1A"/>
<path d="M207.092 78.7176L193.528 114.708L197.774 121.195L207.226 129.668L208.098 132.115L209.54 129.695L208.756 124.64L206.834 122.094L207.065 118.161L217.06 93.4375L231.683 61.1854L232.235 47.8716L220.487 62.9831L207.092 78.7176Z" fill="#21F225"/>
<path d="M193.911 124.693L195.264 121.454L204.235 129.428L204.022 133.806L200.542 129.161L193.911 124.693Z" fill="#1A1A1A"/>
<path d="M163.463 85.7659L170.877 80.3193L169.346 87.7772L162.911 91.0434L163.463 85.7659Z" fill="#1A1A1A"/>
<path d="M165.261 126.838L135.374 129.632L140.812 118.828L144.274 109.493C144.274 109.493 145.992 114.832 147.371 115.936C152.089 119.852 171.081 122.281 171.081 122.281L172.203 123.447L165.261 126.838Z" fill="#1A1A1A"/>
<path d="M153.469 88.1428L160.713 103.005L164.443 101.279C164.443 101.279 169.738 108.781 170.397 111.709C171.197 115.163 171.018 118.772 169.881 122.13C171.28 122.601 172.763 122.774 174.233 122.638C177.401 122.495 182.154 121.587 183.978 121.748C186.729 122.015 194.757 124.133 194.757 124.133C194.757 124.133 196.359 122.878 195.566 121.748C194.249 119.861 190.28 117.342 190.538 114.459C191.312 105.844 197.444 94.6395 198.156 91.6759C198.717 89.3709 192.336 84.0312 192.336 84.0312L190.209 78.4956L166.881 88.5611L162.734 90.6703L162.921 86.7633L164.745 83.5862C164.745 83.5862 158.996 84.8054 157.323 85.7666C156.308 86.3629 153.469 88.1428 153.469 88.1428Z" fill="#1A1A1A"/>
<path d="M139.985 97.1758C135.864 104.918 129.563 118.214 124.534 130.638" stroke="#1A1A1A" stroke-width="1.23287" stroke-linecap="round" stroke-linejoin="round"/>
<path d="M169.195 62.1289C162.555 65.7599 156.681 69.5423 155.524 71.5892C154.465 73.4759 152.507 76.2347 149.846 80.3464" stroke="#1A1A1A" stroke-width="1.23287" stroke-linecap="round" stroke-linejoin="round"/>
<path d="M206.656 139.066L231.692 61.1944L232.582 49.892C232.656 48.955 232.409 48.0207 231.882 47.2426C231.355 46.4646 230.578 45.8892 229.68 45.6112C218.548 42.3534 206.586 43.5336 196.305 48.9041" stroke="#1A1A1A" stroke-width="1.23287" stroke-linecap="round" stroke-linejoin="round"/>
<path d="M164.451 127.416C167.951 124.939 171.929 123.22 176.132 122.37C180.334 121.519 184.668 121.556 188.855 122.477C203.229 125.574 204.982 138.327 204.982 138.327" stroke="#1A1A1A" stroke-width="1.23287" stroke-miterlimit="10"/>
<path d="M202.82 132.427C195.228 123.261 178.113 130.051 178.113 130.051L205.366 139.209L202.82 132.427Z" fill="#1D1D1B" stroke="#1A1A1A" stroke-width="1.23287" stroke-miterlimit="10"/>
<path d="M207.982 134.928L207.235 129.677C207.235 129.677 193.546 118.935 193.528 114.708C193.511 110.481 204.493 82.5449 207.092 78.727C209.691 74.9091 230.553 53.1495 231.381 46.6528" stroke="#1A1A1A" stroke-width="1.23287" stroke-miterlimit="10"/>
<path d="M205.552 138.577L204.244 129.419C204.244 129.419 190.556 118.739 190.556 114.476C190.556 110.214 201.521 82.3133 204.119 78.4865C206.718 74.6596 228.826 52.1258 229.716 45.6113" stroke="#1A1A1A" stroke-width="1.23287" stroke-miterlimit="10"/>
<path d="M229.075 69.3198C229.075 69.3198 215.725 94.8261 210.198 108.968C204.671 123.109 206.949 122.148 208.249 123.741C209.548 125.334 209.548 130.051 209.548 130.051" stroke="#1A1A1A" stroke-width="1.23287" stroke-miterlimit="10"/>
<path d="M31.7854 111.37L23.8643 103.014L67.1101 61.7017H79.9797L31.7854 111.37Z" fill="#1D1D1B" stroke="#1A1A1A" stroke-width="1.23287" stroke-miterlimit="10"/>
<path d="M18.2393 119.291L26.5876 111.371L40.2493 142.412V155.281L18.2393 119.291Z" fill="#1D1D1B" stroke="#1A1A1A" stroke-width="1.23287" stroke-miterlimit="10"/>
<path d="M1.93457 110.196L10.5677 108.469L29.3203 143.293L23.9446 146.186L1.93457 110.196Z" fill="#1D1D1B" stroke="#1A1A1A" stroke-width="1.23287" stroke-miterlimit="10"/>
<path d="M10.5673 108.469L5.33398 102.951L41.0325 68.7056H49.5321L10.5673 108.469Z" fill="#1D1D1B" stroke="#1A1A1A" stroke-width="1.23287" stroke-miterlimit="10"/>
<path d="M138.4 45.9673C138.4 45.9673 139.29 53.6387 139.29 55.6589C139.29 57.6791 141.96 64.2471 142.717 65.9825C143.473 67.7179 161.923 105.515 161.923 105.515" stroke="#1A1A1A" stroke-width="1.23287" stroke-miterlimit="10"/>
<path d="M125.691 56.8252C125.691 56.8252 128.593 63.1884 131.112 64.8348C133.63 66.4813 142.005 109.502 147.034 115.109C152.063 120.715 174.776 122.682 174.776 122.682" stroke="#1A1A1A" stroke-width="1.23287" stroke-miterlimit="10"/>
<path d="M198.156 91.6938C191.774 87.0037 165.786 100.896 160.713 103.005" stroke="#1A1A1A" stroke-width="1.23287" stroke-miterlimit="10"/>
<path d="M192.335 84.0308C192.335 84.0308 197.782 89.9223 198.129 91.6666" stroke="#1A1A1A" stroke-width="1.23287" stroke-miterlimit="10"/>
<path d="M166.88 88.5607C166.88 88.5607 169.755 92.5299 172.221 93.8114C172.221 93.8114 191.801 87.0477 192.362 84.0219L190.234 78.4863C190.234 78.4863 190.635 79.3763 187.858 80.0883C185.081 80.8002 169.079 88.3115 166.88 88.5251C164.682 88.7387 162.964 92.3964 162.964 92.3964L162.733 87.7241C162.733 87.7241 162.03 84.8318 170.868 80.3286" stroke="#1A1A1A" stroke-width="1.23287" stroke-linecap="round" stroke-linejoin="round"/>
<path d="M169.346 87.7864L171.456 77.4361C171.456 77.4361 166.115 72.7016 167.112 68.2963C168.109 63.891 171.625 56.8959 171.625 56.8959L171.847 54.1281C171.847 54.1281 175.122 45.8693 179.768 44.1872C183.951 42.6743 193.439 44.0448 198.539 51.565C199.037 52.3143 199.343 53.1747 199.43 54.0703C199.517 54.9658 199.382 55.869 199.037 56.7001L190.235 78.5219" stroke="#1A1A1A" stroke-width="1.23287" stroke-linecap="round" stroke-linejoin="round"/>
<path d="M174.09 54.0566L169.453 58.5776L173.547 60.9627" fill="white"/>
<path d="M174.09 54.0566L169.453 58.5776L173.547 60.9627" stroke="#1A1A1A" stroke-width="1.23287" stroke-linecap="round" stroke-linejoin="round"/>
<path d="M190.466 61.4257C190.466 61.4257 193.314 59.2542 194.809 60.6603C196.304 62.0665 194.809 70.3876 188.579 68.5543" stroke="#1A1A1A" stroke-width="1.23287" stroke-linecap="round" stroke-linejoin="round"/>
<path d="M179.768 44.187C179.768 44.187 177.588 46.2606 180.934 46.1983C184.281 46.136 191.348 47.5689 191.009 49.6603C190.671 51.7517 186.559 60.0105 188.339 61.8082C190.119 63.6059 191.116 61.0072 191.116 61.0072" stroke="#1A1A1A" stroke-width="1.23287" stroke-linecap="round" stroke-linejoin="round"/>
<path d="M171.42 71.0909C174.297 72.4165 177.463 72.9921 180.623 72.764C182.012 72.7032 183.362 72.2898 184.547 71.5626C185.732 70.8355 186.712 69.8187 187.396 68.6079" stroke="#1A1A1A" stroke-width="1.23287" stroke-linecap="round" stroke-linejoin="round"/>
<path d="M66.585 75.5141L67.9111 81.6727L73.4648 85.2325C73.4648 85.2325 109.457 89.0772 113.756 89.5221C118.055 89.9671 133.336 72.3726 137.306 66.8459L76.7846 64.9414L66.585 75.5141Z" fill="#3C3C3B" stroke="#1A1A1A" stroke-width="1.23287" stroke-miterlimit="10"/>
<path d="M110.979 66.0358L100.192 80.5422L69.6556 79.145L68.374 73.6628L76.8203 64.959L110.979 66.0358Z" fill="#1D1D1B" stroke="#1A1A1A" stroke-width="1.23287" stroke-miterlimit="10"/>
<path d="M67.9111 81.6727L104.633 84.832C105.931 84.9457 107.237 84.7436 108.44 84.243C109.642 83.7425 110.706 82.9583 111.54 81.9575L124.48 66.4722" stroke="#1A1A1A" stroke-width="1.23287" stroke-miterlimit="10"/>
<path d="M137.305 66.8729L81.4658 57.4393L132.891 3.04492L162.582 13.0125C162.844 13.1004 163.085 13.2398 163.293 13.4224C163.5 13.605 163.669 13.8272 163.789 14.0759C163.909 14.3246 163.978 14.5948 163.993 14.8707C164.007 15.1466 163.966 15.4225 163.872 15.6824L146.348 62.9392C145.869 64.2548 144.971 65.3767 143.792 66.1324C142.614 66.8881 141.22 67.2358 139.824 67.1221L137.305 66.8729Z" fill="#1D1D1B" stroke="#1A1A1A" stroke-width="1.23287" stroke-miterlimit="10"/>
<path d="M81.4666 57.4389L40.25 68.7058L72.0057 38.9188L132.892 3L81.4666 57.4389Z" fill="#3C3C3B" stroke="#1A1A1A" stroke-width="1.23287" stroke-miterlimit="10"/>
<path d="M165.867 83.3989C165.867 83.3989 157.572 84.4936 153.469 88.1424" stroke="#1A1A1A" stroke-width="1.23287" stroke-linecap="round" stroke-linejoin="round"/>
<path d="M142.094 102.872L129.225 130.202" stroke="#1A1A1A" stroke-width="1.23287" stroke-linecap="round" stroke-linejoin="round"/>
<path d="M135.383 129.632L140.821 118.819L144.265 109.493" stroke="#1A1A1A" stroke-width="1.23287" stroke-linecap="round" stroke-linejoin="round"/>
<path d="M164.442 101.278C164.442 101.278 174.437 111.673 169.88 122.13" stroke="#1A1A1A" stroke-width="1.23287" stroke-linecap="round" stroke-linejoin="round"/>
<path d="M168.536 99.3472C168.536 99.3472 178.175 108.941 173.725 122.584" stroke="#1A1A1A" stroke-width="1.23287" stroke-linecap="round" stroke-linejoin="round"/>
<path d="M162.983 92.3882L159.992 97.7635" stroke="#1A1A1A" stroke-width="1.23287" stroke-linecap="round" stroke-linejoin="round"/>
<path d="M162.92 86.7544L161.104 91.7649L162.911 91.044" stroke="#1A1A1A" stroke-width="1.23287" stroke-linecap="round" stroke-linejoin="round"/>
<path d="M23.0897 121.694C28.2263 121.694 32.3904 117.53 32.3904 112.394C32.3904 107.258 28.2263 103.094 23.0897 103.094C17.9531 103.094 13.7891 107.258 13.7891 112.394C13.7891 117.53 17.9531 121.694 23.0897 121.694Z" fill="#3C3C3B" stroke="#1A1A1A" stroke-width="1.23287" stroke-miterlimit="10"/>
<path d="M28.3592 121.694C33.4959 121.694 37.6599 117.53 37.6599 112.394C37.6599 107.258 33.4959 103.094 28.3592 103.094C23.2226 103.094 19.0586 107.258 19.0586 112.394C19.0586 117.53 23.2226 121.694 28.3592 121.694Z" fill="#1D1D1B" stroke="#1A1A1A" stroke-width="1.23287" stroke-miterlimit="10"/>
<path d="M28.3595 117.565C31.2153 117.565 33.5304 115.25 33.5304 112.394C33.5304 109.539 31.2153 107.224 28.3595 107.224C25.5036 107.224 23.1885 109.539 23.1885 112.394C23.1885 115.25 25.5036 117.565 28.3595 117.565Z" fill="#21F225" stroke="#1A1A1A" stroke-width="1.23287" stroke-miterlimit="10"/>
<path d="M5.65478 112.394C8.22554 112.394 10.3096 110.31 10.3096 107.739C10.3096 105.169 8.22554 103.085 5.65478 103.085C3.08402 103.085 1 105.169 1 107.739C1 110.31 3.08402 112.394 5.65478 112.394Z" fill="#3C3C3B" stroke="#1A1A1A" stroke-width="1.23287" stroke-miterlimit="10"/>
<path d="M8.28954 112.394C10.8603 112.394 12.9443 110.31 12.9443 107.739C12.9443 105.169 10.8603 103.085 8.28954 103.085C5.71878 103.085 3.63477 105.169 3.63477 107.739C3.63477 110.31 5.71878 112.394 8.28954 112.394Z" fill="#1D1D1B" stroke="#1A1A1A" stroke-width="1.23287" stroke-miterlimit="10"/>
<path d="M8.28916 110.33C9.71955 110.33 10.8791 109.17 10.8791 107.74C10.8791 106.31 9.71955 105.15 8.28916 105.15C6.85878 105.15 5.69922 106.31 5.69922 107.74C5.69922 109.17 6.85878 110.33 8.28916 110.33Z" fill="#21F225" stroke="#1A1A1A" stroke-width="1.23287" stroke-miterlimit="10"/>
<path d="M47.1379 71.153L57.7914 70.6013L67.1098 61.7017L40.8633 68.5454L49.532 68.7056L47.1379 71.153Z" fill="#1D1D1B" stroke="#1A1A1A" stroke-width="1.23287" stroke-linecap="round" stroke-linejoin="round"/>
<path d="M8.28906 141.371L19.0582 156.215H254.458L169.008 126.526L8.28906 141.371Z" fill="#1A1A1A" stroke="#1A1A1A" stroke-width="1.23287" stroke-linecap="round" stroke-linejoin="round"/>
<path d="M254.459 156.216H19.0586V171.906H254.459V156.216Z" fill="#808080" stroke="#1A1A1A" stroke-width="1.23287" stroke-linecap="round" stroke-linejoin="round"/>
<path d="M19.0582 156.215L8.28906 141.371V155.281L19.0582 171.905V156.215Z" fill="#808080" stroke="#1A1A1A" stroke-width="1.23287" stroke-linecap="round" stroke-linejoin="round"/>
<path d="M67.1104 61.7019H79.98L76.8204 64.9591L133.31 66.1962L81.4663 57.439L67.1104 61.7019Z" fill="#1D1D1B" stroke="#1A1A1A" stroke-width="1.23287" stroke-linecap="round" stroke-linejoin="round"/>
</svg>
