<svg width="2456" height="1607" viewBox="0 0 2456 1607" fill="none" xmlns="http://www.w3.org/2000/svg">
<path d="M124.043 805.818H339.052V1037.37H285.3V979.479H277.03C269.22 999.694 255.438 1016 235.682 1028.41C215.927 1040.81 192.956 1047.01 166.77 1047.01C114.855 1047.01 73.9666 1030.24 44.1043 996.707C14.7014 963.17 0 914.241 0 849.923V742.418C0 679.937 14.9312 631.468 44.7935 597.012C74.6558 562.555 116.233 545.327 169.526 545.327C197.091 545.327 221.44 549.921 242.574 559.11C263.707 567.839 281.395 580.243 295.637 596.323C309.879 611.943 320.675 630.55 328.026 652.142C335.377 673.276 339.052 696.017 339.052 720.366V728.636H281.165V720.366C281.165 704.746 278.868 689.585 274.274 674.884C270.139 660.182 263.477 647.318 254.289 636.292C245.56 624.807 234.075 615.848 219.832 609.416C206.05 602.525 189.281 599.079 169.526 599.079C132.313 599.079 104.288 612.632 85.4521 639.738C67.0753 666.844 57.8869 702.449 57.8869 746.553V845.788C57.8869 893.108 67.0753 929.632 85.4521 955.36C104.288 980.628 132.772 993.262 170.904 993.262C205.361 993.262 232.237 982.236 251.532 960.183C271.288 938.131 281.165 907.35 281.165 867.84V859.57H124.043V805.818Z" fill="#1A1A1A"/>
<path d="M743.092 1037.37H685.205V876.11C685.205 864.165 682.449 854.976 676.936 848.544C671.423 842.112 661.775 838.897 647.992 838.897H497.762V1037.37H439.875V554.975H612.157C636.966 554.975 658.559 558.65 676.936 566.001C695.312 572.892 710.473 582.31 722.418 594.255C734.823 606.2 744.011 620.213 749.983 636.292C756.415 651.913 759.631 668.452 759.631 685.91V706.584C759.631 724.501 754.578 742.418 744.47 760.336C734.823 778.253 719.662 792.036 698.988 801.684V809.953C712.77 812.25 723.567 817.763 731.377 826.492C739.187 835.221 743.092 847.626 743.092 863.705V1037.37ZM497.762 785.144H605.266C637.885 785.144 662.004 778.253 677.625 764.471C693.704 750.228 701.744 729.555 701.744 702.449V690.044C701.744 665.695 693.704 646.17 677.625 631.468C662.004 616.308 637.885 608.727 605.266 608.727H497.762V785.144Z" fill="#1A1A1A"/>
<path d="M1117.5 917.457H910.761L875.615 1037.37H813.593L959.689 554.975H1068.57L1214.67 1037.37H1152.65L1117.5 917.457ZM1010 579.784L926.611 863.705H1101.65L1018.26 579.784H1010Z" fill="#1A1A1A"/>
<path d="M1530.5 1012.56H1538.77V554.975H1596.65V1037.37H1480.88L1341.68 579.784H1333.41V1037.37H1275.52V554.975H1391.29L1530.5 1012.56Z" fill="#1A1A1A"/>
<path d="M1688.52 554.975H2027.57V608.727H1886.99V1037.37H1829.1V608.727H1688.52V554.975Z" fill="#1A1A1A"/>
<path d="M2393.71 694.179C2393.71 678.559 2390.49 664.776 2384.06 652.831C2378.09 640.886 2369.82 631.009 2359.25 623.199C2348.69 615.389 2336.51 609.416 2322.73 605.281C2308.95 601.147 2294.47 599.079 2279.31 599.079C2265.99 599.079 2253.36 600.917 2241.41 604.592C2229.47 607.808 2218.67 612.632 2209.02 619.064C2199.83 625.496 2192.48 633.536 2186.97 643.184C2181.46 652.372 2178.7 663.168 2178.7 675.573V679.707C2178.7 693.031 2181.46 704.516 2186.97 714.164C2192.48 723.352 2200.52 731.392 2211.09 738.284C2222.12 744.715 2235.67 750.228 2251.75 754.823C2267.83 758.957 2286.66 762.633 2308.26 765.849C2358.79 773.659 2396.01 788.59 2419.9 810.642C2443.79 832.235 2455.73 861.408 2455.73 898.162V906.431C2455.73 927.105 2452.06 946.171 2444.7 963.629C2437.81 980.628 2427.25 995.329 2413 1007.73C2399.22 1020.14 2381.99 1029.79 2361.32 1036.68C2340.65 1043.57 2316.76 1047.01 2289.65 1047.01C2258.87 1047.01 2231.53 1042.65 2207.64 1033.92C2184.21 1024.73 2164.46 1012.33 2148.38 996.707C2132.76 980.628 2120.81 962.021 2112.54 940.888C2104.27 919.295 2100.14 895.865 2100.14 870.597V849.923H2158.03V866.462C2158.03 908.728 2169.51 940.428 2192.48 961.562C2215.91 982.695 2248.3 993.262 2289.65 993.262C2325.49 993.262 2352.36 985.452 2370.28 969.831C2388.66 953.752 2397.84 932.618 2397.84 906.431V902.297C2397.84 877.028 2388.43 857.733 2369.59 844.41C2351.21 831.086 2321.12 821.439 2279.31 815.466C2254.96 812.25 2232.91 807.426 2213.16 800.994C2193.86 794.103 2177.32 785.374 2163.54 774.807C2149.76 763.781 2139.19 750.688 2131.84 735.527C2124.49 720.366 2120.81 702.449 2120.81 681.775V673.505C2120.81 654.669 2124.72 637.441 2132.53 621.821C2140.34 606.2 2151.14 592.647 2164.92 581.162C2179.16 569.676 2195.93 560.947 2215.22 554.975C2234.98 548.543 2256.57 545.327 2280 545.327C2307.11 545.327 2331.23 549.232 2352.36 557.042C2373.95 564.853 2392.1 575.419 2406.8 588.742C2421.5 601.606 2432.53 616.997 2439.88 634.914C2447.69 652.372 2451.6 670.749 2451.6 690.044V718.988H2393.71V694.179Z" fill="#1A1A1A"/>
<path d="M642.584 1114.89H801.084C860.809 1114.89 904.453 1129.14 932.019 1157.62C959.584 1186.1 973.367 1231.59 973.367 1294.07V1418.11C973.367 1480.59 959.584 1526.07 932.019 1554.56C904.453 1583.04 860.809 1597.28 801.084 1597.28H642.584V1542.84H683.932V1168.65H642.584V1114.89ZM792.814 1543.53C813.948 1543.53 832.095 1541.46 847.256 1537.33C862.876 1533.2 875.74 1526.3 885.847 1516.66C895.954 1506.55 903.305 1493.23 907.899 1476.69C912.953 1460.15 915.48 1439.24 915.48 1413.98V1298.2C915.48 1272.93 912.953 1252.03 907.899 1235.49C903.305 1218.95 895.954 1205.86 885.847 1196.21C875.74 1186.1 862.876 1178.98 847.256 1174.85C832.095 1170.71 813.948 1168.65 792.814 1168.65H741.819V1543.53H792.814Z" fill="#1A1A1A"/>
<path d="M1328.48 1477.38H1121.74L1086.59 1597.28H1024.57L1170.67 1114.89H1279.55L1425.65 1597.28H1363.62L1328.48 1477.38ZM1220.97 1139.7L1137.59 1423.62H1312.63L1229.24 1139.7H1220.97Z" fill="#1A1A1A"/>
<path d="M1477.54 1302.34C1477.54 1239.86 1492.47 1191.39 1522.33 1156.93C1552.2 1122.47 1593.77 1105.25 1647.07 1105.25C1700.36 1105.25 1741.94 1122.47 1771.8 1156.93C1801.66 1191.39 1816.59 1239.86 1816.59 1302.34V1409.84C1816.59 1474.16 1801.66 1523.09 1771.8 1556.63C1741.94 1590.16 1700.36 1606.93 1647.07 1606.93C1593.77 1606.93 1552.2 1590.16 1522.33 1556.63C1492.47 1523.09 1477.54 1474.16 1477.54 1409.84V1302.34ZM1647.07 1553.18C1684.28 1553.18 1712.07 1540.55 1730.45 1515.28C1749.29 1489.55 1758.71 1453.03 1758.71 1405.71V1306.47C1758.71 1262.37 1749.29 1226.76 1730.45 1199.66C1712.07 1172.55 1684.28 1159 1647.07 1159C1609.85 1159 1581.83 1172.55 1562.99 1199.66C1544.62 1226.76 1535.43 1262.37 1535.43 1306.47V1405.71C1535.43 1453.03 1544.62 1489.55 1562.99 1515.28C1581.83 1540.55 1609.85 1553.18 1647.07 1553.18Z" fill="#1A1A1A"/>
<path d="M1242.24 0H1304.26L1430.37 457.582H1438.64L1564.76 0H1626.78L1490.33 482.391H1378.69L1242.24 0Z" fill="#1A1A1A"/>
<path d="M1710.37 0H2002.56V53.7521H1768.26V213.63H1998.43V267.382H1768.26V428.639H2006.7V482.391H1710.37V0Z" fill="#1A1A1A"/>
<path d="M559.603 363.178L575.247 309.83H381.627L365.817 363.178H559.603Z" fill="#1A1A1A"/>
<path d="M407.454 363.175L391.81 309.827H585.43L601.24 363.175H407.454Z" fill="#1A1A1A"/>
<path d="M450.1 482.85L485.242 362.954L501.09 309.208L584.466 25.3163H592.734L675.913 308.535H736.323L643.036 0.510254H534.165L388.084 482.85H450.1Z" fill="#1A1A1A"/>
<path d="M752.48 361.883H691.643L691.959 362.954L727.101 482.85H789.116L752.48 361.883Z" fill="#1A1A1A"/>
<path d="M1022.27 363.178L1006.63 309.83H1200.25L1216.06 363.178H1022.27Z" fill="#1A1A1A"/>
<path d="M1174.42 363.175L1190.07 309.827H996.448L980.637 363.175H1174.42Z" fill="#1A1A1A"/>
<path d="M1127.88 483.306L1092.74 363.41L1076.89 309.664L993.515 25.7721H985.247L902.068 308.991H841.658L934.945 0.966064H1043.82L1189.9 483.306H1127.88Z" fill="#1A1A1A"/>
<path d="M825.501 362.339H886.338L886.022 363.41L850.88 483.306H788.865L825.501 362.339Z" fill="#1A1A1A"/>
</svg>
