<svg width="544" height="715" viewBox="0 0 544 715" fill="none" xmlns="http://www.w3.org/2000/svg">
<path d="M86.2056 629.869H119.987L106.493 679.337C106.493 679.337 115.764 693.9 114 704.466L106.85 713.999C106.85 713.999 71.6612 706.324 63.1972 678.812C54.7332 651.3 61.0765 650.231 53.6634 637.526C49.218 629.932 47.25 621.142 48.0333 612.379C48.0333 612.379 76.991 600.781 82.7525 601.813C88.5141 602.845 92.8117 612.397 90.9538 613.73C89.0958 615.062 86.2056 629.869 86.2056 629.869Z" fill="black" stroke="black" stroke-linecap="round" stroke-linejoin="round"/>
<path d="M120.061 605.569L111.86 629.853H86.205L85.323 609.172L94.9881 590.218L120.061 605.569Z" fill="white" stroke="black" stroke-linecap="round" stroke-linejoin="round"/>
<path d="M106.399 466.246L122.726 495.916L72.862 507.927C72.862 507.927 64.567 523.052 54.3952 526.524L42.6093 524.854C42.6093 524.854 32.3812 490.324 52.4245 469.643C72.4679 448.962 76.4466 454.029 84.0097 441.493C88.4875 433.921 95.2196 427.937 103.265 424.378C103.265 424.378 127.362 444.046 129.239 449.657C131.115 455.268 124.81 463.563 122.745 462.587C120.681 461.611 106.399 466.246 106.399 466.246Z" fill="black" stroke="black" stroke-linecap="round" stroke-linejoin="round"/>
<path d="M144.007 484.204L118.765 488.708L106.416 466.226L124.114 455.491L145.377 454.834L144.007 484.204Z" fill="white" stroke="black" stroke-linecap="round" stroke-linejoin="round"/>
<path d="M127.661 478.989C148.943 445.585 178.107 422.37 197.231 366.39C197.231 366.39 194.622 328.67 218.513 309.34C224.458 304.718 231.121 301.104 238.237 298.643L240.508 299.882L263.686 287.346C275.115 290.536 288.083 286.088 288.083 286.088C288.083 286.088 301.22 293.595 305.499 294.702C311.774 296.164 318.199 296.882 324.641 296.842L314.92 341.506C314.92 341.506 342.958 517.197 313.231 536.133C296.491 546.792 272.281 535.832 238.275 524.648C214.703 516.897 178.314 511.999 178.314 511.999C178.314 511.999 158.27 549.157 140.254 617.579C129.427 615.941 119.005 612.28 109.532 606.788C101.537 601.947 88.4753 587.534 88.4753 587.534C88.4753 587.534 112.141 503.31 127.661 478.989ZM273.201 480.865L250.68 425.148L227.503 455.174C240.527 457.07 273.163 480.959 273.163 480.959L273.201 480.865Z" fill="#3C3C3B"/>
<path d="M277.968 326.005C277.968 326.005 284.18 380.428 246.889 430.591C209.599 480.754 184.413 497.381 173.979 519.638C163.544 541.895 140.742 606.113 140.198 617.505C140.198 617.505 111.709 616.979 88.4193 587.478C88.4193 587.478 101.875 526.131 125.691 482.386C149.506 438.642 173.979 433.762 197.1 366.391C197.1 366.391 196.518 322.533 218.382 309.341C232.846 300.804 247.964 293.424 263.592 287.271C263.592 287.271 276.879 290.687 287.989 286.014C287.989 286.014 301.126 297.724 324.548 296.767L314.827 341.431C314.827 341.431 340.012 505.15 317.266 532.155C299.268 553.492 261.715 530.372 229.811 522.134C195.749 513.351 178.22 511.925 178.22 511.925" stroke="#1A1A1A" stroke-linecap="round" stroke-linejoin="round"/>
<path d="M306.795 347.04L274.309 370.498" stroke="#1A1A1A" stroke-linecap="round" stroke-linejoin="round"/>
<path d="M227.502 455.212C240.526 457.089 273.163 480.96 273.163 480.96L250.642 425.242L227.502 455.212Z" stroke="#1A1A1A" stroke-linecap="round" stroke-linejoin="round"/>
<path d="M324.624 296.764L330.986 270.266L307.133 263.923L290.092 277.059L288.066 285.954C288.066 285.954 303.961 298.453 324.624 296.764Z" fill="white" stroke="black" stroke-linecap="round" stroke-linejoin="round"/>
<path d="M219.621 39.552C219.621 39.552 186.009 49.1417 175.781 73.6694C165.553 98.1972 202.862 125.99 228.855 119.535C254.847 113.079 272.977 104.334 267.421 94.9881C261.866 85.6424 258.038 80.4066 258.038 80.4066L252.258 72.0555L253.008 63.8546L243.756 66.2191L219.621 39.552Z" fill="white" stroke="black" stroke-linecap="round" stroke-linejoin="round"/>
<path d="M181.636 72.0543C181.636 72.0543 203.556 49.1405 223.261 41.1835C223.261 41.1835 222.098 34.6152 212.771 30.2989C195.749 22.417 192.596 47.6391 177.113 61.9392C161.63 76.2392 148.305 96.4695 151.214 105.346C156.844 122.442 169.005 131.075 182.574 142.504C196.143 153.932 180.209 177.541 154.217 181.35C128.224 185.16 106.961 214.435 115.369 277.284C123.777 340.133 188.992 331.257 188.992 331.257C188.992 331.257 165.646 304.552 188.11 293.724C277.498 250.674 265.244 147.42 181.636 72.0543Z" fill="#21F225" stroke="black" stroke-linecap="round" stroke-linejoin="round"/>
<path d="M250.435 35.1234L259.819 45.0508C260.649 45.9261 261.162 47.0549 261.274 48.2561C261.386 49.4573 261.092 50.6614 260.438 51.6754C257.905 55.5976 253.739 61.9406 250.435 66.4258C250.435 66.4258 246.025 65.4875 240.939 71.7555C235.853 78.0235 221.459 100.262 214.515 99.9052C207.571 99.5487 189.498 84.8921 193.59 73.6322C197.681 62.3723 203.18 51.1124 207.008 48.6915C210.837 46.2707 233.395 28.7803 238.181 28.0484C242.966 27.3165 250.435 35.1234 250.435 35.1234Z" fill="#3C3C3B" stroke="black" stroke-linecap="round" stroke-linejoin="round"/>
<path d="M253.402 42.7242L242.986 33.341C241.965 32.4065 240.656 31.8473 239.275 31.7552C237.893 31.6631 236.522 32.0437 235.385 32.8343L215.398 46.7777C214.662 47.2951 214.049 47.9696 213.605 48.7525C213.16 49.5354 212.895 50.4072 212.829 51.3049C212.763 52.2027 212.896 53.104 213.221 53.9437C213.545 54.7835 214.051 55.5408 214.704 56.161C220.165 61.2654 227.841 68.3779 229.211 68.9222C230.581 69.4664 244.957 58.488 253.083 52.0323C253.779 51.4833 254.347 50.7892 254.748 49.9981C255.148 49.2071 255.371 48.3383 255.402 47.4523C255.432 46.5662 255.269 45.6842 254.924 44.8676C254.578 44.051 254.059 43.3196 253.402 42.7242Z" fill="#21F225" stroke="black" stroke-linecap="round" stroke-linejoin="round"/>
<path d="M176.362 138.789L212.245 83.2965C213.254 81.7266 213.622 79.8291 213.273 77.9957C212.924 76.1622 211.884 74.5329 210.368 73.4441C209.564 72.8632 208.649 72.4524 207.681 72.2366C206.713 72.0208 205.711 72.0046 204.736 72.189C203.761 72.3734 202.834 72.7545 202.012 73.3091C201.189 73.8637 200.488 74.5801 199.952 75.4146L164.538 130.907L176.362 138.789Z" fill="white" stroke="black" stroke-linecap="round" stroke-linejoin="round"/>
<path d="M204.981 83.429C203.312 83.429 201.96 82.0763 201.96 80.4076C201.96 78.739 203.312 77.3862 204.981 77.3862C206.65 77.3862 208.003 78.739 208.003 80.4076C208.003 82.0763 206.65 83.429 204.981 83.429Z" fill="#1D1D1B" stroke="black" stroke-linecap="round" stroke-linejoin="round"/>
<path d="M230.768 132.935L259.144 132.353C259.144 132.353 273.088 164.406 282.002 165.889C290.917 167.371 330.103 180.283 330.103 180.283C330.103 180.283 344.028 213.387 354.125 240.242C364.222 267.096 374.675 276.179 369.139 284.38C363.602 292.581 324.548 296.766 324.548 296.766L330.91 270.268C323.448 270.766 316.155 272.717 309.44 276.011C297.955 281.547 283.504 291.906 263.611 287.27L240.433 299.806C240.433 299.806 229.717 295.171 233.996 288.547C238.275 281.922 265.525 271.919 261.978 249.306C258.431 226.692 232.983 213.312 232.983 213.312L226.545 219.599C226.545 219.599 207.647 184.205 173.904 188.221C173.904 188.221 212.77 141.455 224.35 142.337L235.929 143.238L230.768 132.935Z" fill="#1D1D1B" stroke="black" stroke-linecap="round" stroke-linejoin="round"/>
<path d="M226.622 219.673C226.622 219.673 193.498 229.056 173.98 188.296C173.98 188.296 205.115 181.99 226.622 219.673Z" fill="black" stroke="black" stroke-linecap="round" stroke-linejoin="round"/>
<path d="M345.549 83.4475C348.667 85.919 351.097 89.1501 352.606 92.8307C355.571 121.45 345.549 125.991 345.549 125.991C345.549 125.991 385.448 219.392 383.741 236.713C382.033 254.035 350.729 231.177 350.729 231.177L337.217 197.397L343.748 196.478C343.748 196.478 337.367 145.808 330.273 133.779C323.179 121.75 319.688 110.227 322.316 94.3696C324.943 78.5119 352.343 53.5901 359.193 52.0137C359.514 54.4523 359.218 56.9325 358.333 59.2274C357.448 61.5223 356.001 63.5586 354.126 65.1502C347.708 70.3297 341.721 79.9945 341.721 79.9945L345.549 83.4475Z" fill="white" stroke="black" stroke-linecap="round" stroke-linejoin="round"/>
<path d="M341.796 116.194C341.796 116.194 343.503 101.349 339.15 97.5774C339.15 97.5774 342.321 86.3175 341.721 80.012C341.12 73.7065 336.334 74.2132 333.407 87.8751C331.812 95.3817 325.281 103.132 325.093 109.269" fill="white"/>
<path d="M341.796 116.194C341.796 116.194 343.503 101.349 339.15 97.5774C339.15 97.5774 342.321 86.3175 341.721 80.012C341.12 73.7065 336.334 74.2132 333.407 87.8751C331.812 95.3817 325.281 103.132 325.093 109.269" stroke="black" stroke-linecap="round" stroke-linejoin="round"/>
<path d="M341.721 80.0127L353.244 68.3399L375.07 67.1013C375.07 67.1013 373.193 75.5275 357.917 74.6079L347.764 85.3799L341.721 80.0127Z" fill="white" stroke="black" stroke-linecap="round" stroke-linejoin="round"/>
<path d="M350.371 88.6828L359.98 79.0744C367.731 78.868 376.533 72.5437 375.801 72.2434C374.568 71.8806 373.315 71.5923 372.047 71.3801C372.047 71.3801 368.087 75.1334 357.916 74.5892L347.763 85.3612L350.371 88.6828Z" fill="white" stroke="black" stroke-linecap="round" stroke-linejoin="round"/>
<path d="M370.19 76.0908L375.07 77.4608C375.07 77.4608 369.177 84.1792 361.22 83.5599L352.606 92.9431L350.372 88.7019L359.981 79.0747C363.531 78.676 366.985 77.6665 370.19 76.0908Z" fill="white" stroke="black" stroke-linecap="round" stroke-linejoin="round"/>
<path d="M245.5 114.694L252.069 132.335L230.768 132.917L223.299 120.381L245.5 114.694Z" fill="white" stroke="black" stroke-linecap="round" stroke-linejoin="round"/>
<path d="M303.622 219.017L319.161 213.387C326.668 213.181 337.253 206.5 336.258 206.5H315.821C315.821 206.5 295.365 214.551 293.188 216.127C291.011 217.703 265.037 247.786 265.037 247.786C224.124 257.62 186.365 235.006 186.365 235.006C190.7 221.438 212.151 201.358 212.151 201.358C203.342 194.313 192.851 189.683 181.71 187.921C166.077 199.913 145.377 250.882 145.377 250.882C145.377 250.882 159.321 265.67 193.29 273.214C227.258 280.759 273.613 259.59 284.817 256.888C296.021 254.185 303.585 239.998 303.585 239.998L318.598 233.88C325.11 240.054 334.325 236.564 334.325 236.564L318.598 226.824L304.504 231.309L317.21 227.33V214.025L303.622 219.017Z" fill="white" stroke="black" stroke-linecap="round" stroke-linejoin="round"/>
<path d="M306.195 218.076L318.055 214.773L339.206 226.69C339.206 226.69 336.128 229.58 333.782 229.411" fill="white"/>
<path d="M306.195 218.076L318.055 214.773L339.206 226.69C339.206 226.69 336.128 229.58 333.782 229.411" stroke="black" stroke-linecap="round" stroke-linejoin="round"/>
<path d="M303.603 223.802L319.086 219.824L338.229 232.66C335.581 234.001 332.553 234.392 329.652 233.767" fill="white"/>
<path d="M303.603 223.802L319.086 219.824L338.229 232.66C335.581 234.001 332.553 234.392 329.652 233.767" stroke="black" stroke-linecap="round" stroke-linejoin="round"/>
<path d="M304.506 231.385L318.6 226.899L334.327 236.714C334.327 236.714 325.412 239.98 318.6 234.031L303.586 240.149" fill="white"/>
<path d="M304.506 231.385L318.6 226.899L334.327 236.714C334.327 236.714 325.412 239.98 318.6 234.031L303.586 240.149" stroke="black" stroke-linecap="round" stroke-linejoin="round"/>
<path d="M330.985 270.267C330.985 270.267 371.128 269.592 370.715 279.388C370.302 289.184 355.026 293.669 324.623 296.766L330.985 270.267Z" fill="black" stroke="black" stroke-linecap="round" stroke-linejoin="round"/>
<path d="M507.5 0C507.5 20.1537 491.154 36.5 471 36.5C491.154 36.5 507.5 52.8463 507.5 73C507.5 52.8463 523.846 36.5 544 36.5C523.846 36.5 507.5 20.1537 507.5 0Z" fill="#21F225"/>
<path d="M36.5 346C36.5 366.154 20.1537 382.5 1.49182e-05 382.5C20.1537 382.5 36.5 398.846 36.5 419C36.5 398.846 52.8463 382.5 73 382.5C52.8463 382.5 36.5 366.154 36.5 346Z" fill="#21F225"/>
</svg>
