<svg width="1920" height="296" viewBox="0 0 1920 296" fill="none" xmlns="http://www.w3.org/2000/svg">
<mask id="mask0_166_7" style="mask-type:alpha" maskUnits="userSpaceOnUse" x="0" y="0" width="1920" height="296">
<rect width="1920" height="296" fill="#D9D9D9"/>
</mask>
<g mask="url(#mask0_166_7)">
<path d="M-148 133.701C-70.6506 154.12 191.969 248.613 342 172.354C529.539 77.0316 606.657 172.354 842.206 172.354C1121.76 172.354 1198.78 22 1435.83 22C1827.91 22 1761.4 363 2259 363" stroke="#00FF00" stroke-width="5"/>
<path d="M1764 111C1764 131.43 1747.43 148 1727 148C1747.43 148 1764 164.57 1764 185C1764 164.57 1780.57 148 1801 148C1780.57 148 1764 131.43 1764 111Z" fill="#21F225"/>
</g>
</svg>
