<svg width="1920" height="763" viewBox="0 0 1920 763" fill="none" xmlns="http://www.w3.org/2000/svg">
<mask id="mask0_59_34" style="mask-type:alpha" maskUnits="userSpaceOnUse" x="0" y="-8" width="1920" height="771">
<rect y="-8" width="1920" height="771" fill="#D9D9D9"/>
</mask>
<g mask="url(#mask0_59_34)">
<path d="M2577.73 -1039.38C2466.95 -1114.52 2309.68 -1126.27 2160.22 -1095.2C2010.75 -1064.13 1713.39 -1047.29 1732.27 -914.881C1781.41 -570.232 1091.89 -670.122 1121.53 -452.749C1152.65 -224.466 847.437 -30.6338 668.237 -131.942C609.342 -165.248 472.262 -13.5941 399.974 -20.617C276.645 -32.5974 202.181 -157.665 83.7866 -183.725" stroke="#21F225" stroke-miterlimit="10"/>
<path d="M2577.86 -981.149C2466.71 -1054.09 2315.65 -1074.34 2171.17 -1053.44C2038.14 -1034.2 1783.38 -1025.71 1748.29 -915.454C1745.31 -906.138 1744.39 -896.11 1745.37 -885.427C1768.5 -632.991 1389.75 -622.783 1220.13 -538.825C1162.3 -510.147 1122.31 -475.182 1126.35 -421.483C1140.28 -237.001 928.068 -82.2904 757.991 -80.1362C723.693 -79.7189 690.297 -87.2288 660.166 -104.04C600.007 -137.579 464.546 1.2733 391.872 -0.854871C270.095 -4.43144 193.376 -137.679 76.4993 -166.648" stroke="#21F225" stroke-miterlimit="10"/>
<path d="M2577.58 -923.511C2466.09 -994.146 2321.16 -1022.89 2181.86 -1012.06C2052.97 -1002.05 1805.85 -1001.69 1762.67 -886.043C1759.22 -876.792 1757.88 -866.835 1758.3 -856.284C1767.87 -608.662 1384.53 -597.821 1225.68 -508.401C1171.52 -477.833 1130.54 -442.723 1131.09 -390.596C1133 -212.326 916.118 -68.9023 750.151 -56.0353C716.027 -53.3798 682.558 -59.7516 652.089 -76.5684C590.715 -110.331 457.097 15.6926 383.836 18.5423C263.965 23.1978 184.762 -117.898 69.4822 -149.724" stroke="#21F225" stroke-miterlimit="10"/>
<path d="M2576.6 -866.902C2464.9 -935.124 2326.06 -972.245 2192.15 -971.393C2067.36 -970.607 1828.39 -978.267 1776.85 -857.223C1772.93 -848.044 1771.16 -838.132 1771 -827.741C1766.99 -585.272 1379.15 -573.449 1231.14 -478.642C1180.68 -446.183 1138.72 -411.051 1135.71 -360.434C1125.58 -188.748 903.662 -56.0275 742.254 -32.729C708.231 -27.8083 674.797 -33.037 643.99 -49.813C581.467 -83.7088 449.933 29.3319 375.914 37.2884C258.307 49.9249 176.446 -98.5281 62.848 -133.114" stroke="#21F225" stroke-miterlimit="10"/>
<path d="M2575.63 -810.275C2463.67 -876.099 2330.86 -921.736 2202.43 -930.727C2081.62 -939.203 1851.23 -954.904 1790.99 -828.384C1786.66 -819.279 1784.43 -809.418 1783.69 -799.186C1766.26 -561.866 1373.83 -549.032 1236.57 -448.829C1189.77 -414.502 1146.88 -379.371 1140.33 -330.189C1118.39 -165.268 890.903 -42.5559 734.398 -9.28699C700.367 -2.05994 667.091 -6.21773 635.953 -22.9359C572.24 -56.9818 443.034 42.9809 368.022 56.1601C252.932 76.3833 168.136 -79.0717 56.1842 -116.413" stroke="#21F225" stroke-miterlimit="10"/>
<path d="M2574.67 -753.65C2462.45 -817.134 2335.53 -871.356 2212.69 -890.078C2095.79 -907.9 1874.27 -931.595 1805.13 -799.568C1800.39 -790.535 1797.69 -780.745 1796.36 -770.633C1765.72 -538.531 1368.52 -524.599 1241.99 -419.037C1198.88 -382.846 1155.09 -347.86 1144.93 -299.981C1111.43 -142.001 877.948 -28.5289 726.569 14.1872C692.443 23.8064 659.377 20.6308 627.896 3.94467C563.024 -30.249 436.331 56.4828 360.126 75.0681C247.739 102.472 159.798 -59.6119 49.5009 -99.7512" stroke="#21F225" stroke-miterlimit="10"/>
<path d="M2573.7 -697.047C2461.2 -758.178 2340.17 -821.175 2222.93 -849.463C2109.86 -876.752 1897.5 -908.282 1819.24 -770.779C1814.13 -761.808 1810.96 -752.087 1809.03 -742.116C1765.34 -515.259 1363.05 -500.331 1247.43 -389.255C1207.9 -351.271 1163.37 -316.428 1149.55 -269.778C1104.88 -118.945 864.89 -13.932 718.785 37.6758C684.536 49.7695 651.724 47.4667 619.897 30.809C553.829 -3.54726 429.795 69.7892 352.284 93.9488C242.717 128.115 151.493 -40.2089 42.8533 -83.1317" stroke="#21F225" stroke-miterlimit="10"/>
<path d="M2572.74 -640.429C2459.97 -699.238 2344.77 -771.139 2233.15 -808.845C2123.9 -845.733 1920.96 -884.904 1833.32 -741.967C1827.85 -733.035 1824.17 -723.413 1821.65 -713.558C1765.13 -491.985 1357.7 -475.802 1252.81 -359.45C1216.91 -319.631 1171.72 -285.045 1154.13 -239.526C1098.7 -95.9524 851.749 1.3379 710.988 61.2494C676.566 75.9134 644.026 74.3879 611.861 57.777C544.627 23.2614 423.282 82.987 344.415 112.964C237.69 153.529 143.144 -20.6985 36.1299 -66.3982" stroke="#21F225" stroke-miterlimit="10"/>
<path d="M2571.78 -583.832C2458.7 -640.324 2349.4 -721.299 2243.32 -768.244C2137.95 -814.881 1944.56 -861.491 1847.37 -713.179C1841.56 -704.32 1837.37 -694.772 1834.24 -685.02C1765.09 -468.741 1352.35 -451.266 1258.18 -329.642C1225.91 -287.973 1180.16 -253.716 1158.7 -209.287C1092.96 -73.0954 838.653 17.1009 703.178 84.854C668.556 102.172 636.307 101.329 603.818 84.7274C535.382 50.039 416.782 96.0008 336.57 131.957C232.661 178.533 134.802 -1.23336 29.4333 -49.7279" stroke="#21F225" stroke-miterlimit="10"/>
<path d="M2570.83 -527.216C2457.46 -581.419 2354.13 -671.604 2253.52 -727.644C2152.11 -784.151 1968.38 -837.969 1861.44 -684.387C1855.3 -675.556 1850.6 -666.103 1846.89 -656.486C1765.35 -445.488 1347.12 -426.703 1263.59 -299.857C1234.95 -256.369 1188.77 -222.46 1163.32 -179.048C1087.78 -50.2003 825.809 33.3204 695.478 108.475C660.692 128.526 628.729 128.285 595.853 111.694C526.237 76.816 410.296 108.824 328.769 150.965C227.573 203.261 126.49 18.2267 22.7615 -33.0673" stroke="#21F225" stroke-miterlimit="10"/>
<path d="M2569.88 -470.604C2456.18 -522.539 2358.91 -622.039 2263.7 -687.054C2166.33 -753.538 1992.33 -814.358 1875.47 -655.585C1869 -646.804 1863.79 -637.424 1859.46 -627.927C1765.76 -422.165 1341.82 -402.06 1268.96 -270.025C1243.94 -224.701 1197.44 -191.113 1167.88 -148.778C1082.98 -27.2172 813.093 49.9405 687.743 132.151C652.838 155.037 621.075 155.277 587.873 138.692C517.084 103.641 403.699 121.539 320.963 170.033C222.373 227.817 118.162 37.7269 16.0324 -16.3795" stroke="#21F225" stroke-miterlimit="10"/>
<path d="M2568.93 -414.016C2454.92 -463.687 2363.79 -572.593 2273.86 -646.492C2180.66 -723.065 2016.43 -790.653 1889.48 -626.841C1882.69 -618.087 1877 -608.813 1872.06 -599.435C1766.38 -398.856 1336.59 -377.48 1274.34 -240.28C1252.93 -193.128 1206.27 -159.825 1172.47 -118.594C1078.62 -4.11887 800.702 66.7757 680.048 155.764C645.086 181.552 613.482 182.186 579.91 165.65C507.912 130.415 397.014 134.054 313.177 189.068C216.995 252.183 109.841 57.1778 9.34212 0.264287" stroke="#21F225" stroke-miterlimit="10"/>
<path d="M2567.99 -357.41C2453.64 -404.816 2368.8 -523.203 2284.01 -605.917C2195.09 -692.622 2040.63 -766.808 1903.48 -598.043C1896.39 -589.329 1890.19 -580.147 1884.6 -570.874C1767.14 -375.372 1331.36 -352.827 1279.69 -210.445C1261.92 -161.48 1215.2 -128.36 1177.03 -88.2944C1074.52 19.3559 788.574 83.9014 672.364 179.534C637.432 208.28 605.871 209.257 571.969 192.722C498.795 157.308 390.152 146.592 305.404 208.201C211.467 276.502 101.523 76.7107 2.64994 16.9868" stroke="#21F225" stroke-miterlimit="10"/>
<path d="M2567.05 -300.826C2452.37 -345.99 2373.91 -473.906 2294.12 -565.353C2209.63 -662.24 2064.89 -742.849 1917.45 -569.266C1910.04 -560.556 1903.36 -551.499 1897.16 -542.344C1768.08 -351.839 1326.13 -328.179 1285.04 -180.661C1270.88 -129.877 1224.16 -96.8435 1181.59 -58.0659C1070.62 43.0552 776.748 101.057 664.68 203.229C629.881 234.952 598.281 236.234 563.999 219.723C489.612 184.118 383.096 158.978 297.637 227.277C205.727 300.701 93.2016 96.1733 -4.07472 33.6492" stroke="#21F225" stroke-miterlimit="10"/>
<path d="M2566.12 -244.225C2451.09 -287.144 2379.12 -424.56 2304.26 -524.787C2224.29 -631.844 2089.29 -718.74 1931.44 -540.48C1923.75 -531.788 1916.56 -522.822 1909.71 -513.791C1769.12 -328.145 1321.28 -303.522 1290.41 -150.833C1280.01 -98.2339 1233.17 -65.1459 1186.17 -27.7912C1066.78 67.1154 765.234 118.337 657.029 226.987C622.44 261.721 590.696 263.279 556.091 246.787C480.526 210.997 375.948 171.366 289.899 246.413C199.88 324.937 84.9102 115.704 -10.7673 50.3221" stroke="#21F225" stroke-miterlimit="10"/>
<path d="M2565.18 -187.647C2449.82 -228.342 2384.39 -375.26 2314.37 -484.246C2239.02 -601.483 2113.76 -694.551 1945.38 -511.702C1937.38 -503.014 1929.71 -494.15 1922.21 -485.244C1770.23 -304.299 1316.05 -278.868 1295.72 -121.031C1288.91 -66.6424 1242.15 -33.359 1190.7 2.48009C1062.89 91.5228 753.979 135.553 649.353 250.756C615.068 288.5 583.084 290.329 548.147 273.833C471.393 237.834 368.577 183.743 282.134 265.558C193.783 349.177 76.5744 135.211 -17.4885 67.0107" stroke="#21F225" stroke-miterlimit="10"/>
<path d="M2564.26 -131.053C2448.53 -169.54 2389.77 -325.923 2324.48 -443.688C2253.84 -571.096 2138.27 -670.215 1959.34 -482.916C1951.06 -474.244 1942.89 -465.448 1934.77 -456.678C1771.45 -280.311 1310.89 -254.187 1301.1 -91.1909C1297.91 -35.007 1251.16 -1.4129 1195.3 32.7705C1058.97 116.225 743.041 152.774 641.73 274.57C607.843 315.324 575.547 317.406 540.227 300.931C462.266 264.755 361.066 196.164 274.392 284.758C187.568 373.507 68.255 154.762 -24.2224 83.7553" stroke="#21F225" stroke-miterlimit="10"/>
<path d="M2563.34 -74.4582C2447.27 -110.736 2395.17 -276.581 2334.59 -403.13C2268.72 -540.664 2162.86 -645.74 1973.27 -454.112C1964.68 -445.422 1956.03 -436.749 1947.26 -428.102C1772.64 -256.142 1305.68 -229.487 1306.42 -61.3404C1306.83 -3.35146 1260.08 30.6297 1199.84 63.0726C1054.86 141.183 732.264 169.926 634.084 298.394C600.668 342.115 567.959 344.502 532.315 328.04C453.163 291.651 353.412 208.611 266.65 303.954C181.212 397.868 59.9289 174.299 -30.9407 100.471" stroke="#21F225" stroke-miterlimit="10"/>
<path d="M2562.41 -17.8894C2445.98 -51.9527 2400.62 -227.218 2344.64 -362.585C2283.6 -510.209 2187.43 -621.167 1987.17 -425.329C1978.3 -416.655 1969.15 -408.049 1959.76 -399.557C1773.83 -231.858 1300.46 -204.798 1311.74 -31.5442C1315.75 28.2127 1268.91 62.73 1204.38 93.343C1050.57 166.323 721.707 186.942 626.459 322.197C593.574 368.878 560.416 371.559 524.387 355.115C444.027 318.545 345.598 221.057 258.925 323.127C174.743 422.264 51.6146 193.804 -37.6503 117.154" stroke="#21F225" stroke-miterlimit="10"/>
<path d="M2561.5 38.6993C2444.72 6.83175 2406.12 -177.808 2354.73 -322.031C2298.58 -479.723 2212.07 -596.456 2001.09 -396.534C1991.92 -387.841 1982.29 -379.335 1972.25 -370.986C1775 -207.412 1295.27 -180.111 1317.07 -1.70084C1324.66 59.8558 1277.72 94.9216 1208.93 123.641C1046.12 191.645 711.342 203.892 618.861 346.059C586.59 395.678 552.873 398.682 516.509 382.229C434.957 345.442 337.699 233.598 251.226 342.357C168.204 446.782 43.3196 213.358 -44.3786 133.876" stroke="#21F225" stroke-miterlimit="10"/>
<path d="M2560.58 95.2626C2443.43 65.5978 2411.61 -128.384 2364.79 -281.502C2313.52 -449.201 2236.73 -571.659 2014.97 -367.745C2005.5 -359.033 1995.4 -350.606 1984.69 -342.421C1776.09 -182.856 1290.06 -155.403 1322.38 28.1018C1333.57 91.4218 1286.42 127.108 1213.46 153.898C1041.45 217.061 701.091 220.678 611.24 369.868C579.599 422.387 545.331 425.736 508.591 409.32C425.83 372.348 329.677 246.144 243.475 361.547C161.484 471.318 34.9695 232.863 -51.1299 150.556" stroke="#21F225" stroke-miterlimit="10"/>
<path d="M2559.73 151.866C2313.32 94.2286 2473.5 -736.197 2028.9 -338.939C1829.28 -160.584 1282.73 -140.388 1327.74 57.9243C1377.29 276.223 728.128 170.973 603.689 393.729C502.657 574.553 359.559 204.858 235.81 380.77C154.78 495.944 26.695 252.39 -57.8107 167.255" stroke="#21F225" stroke-miterlimit="10"/>
</g>
</svg>
