<svg width="1920" height="688" viewBox="0 0 1920 688" fill="none" xmlns="http://www.w3.org/2000/svg">
<mask id="mask0_2_3449" style="mask-type:alpha" maskUnits="userSpaceOnUse" x="0" y="0" width="1920" height="688">
<rect width="1920" height="688" fill="#D9D9D9"/>
</mask>
<g mask="url(#mask0_2_3449)">
<mask id="mask1_2_3449" style="mask-type:alpha" maskUnits="userSpaceOnUse" x="-62" y="-408" width="2440" height="915">
<rect width="2398.23" height="895.532" transform="matrix(1.00011 0.00814134 0.0448366 -0.999166 -61.4199 487.062)" fill="#C4C4C4"/>
</mask>
<g mask="url(#mask1_2_3449)">
<path d="M-285.511 144.561C-221.015 261.857 -86.2834 343.832 60.9611 384.124C208.206 424.416 480.703 544.629 524.1 418.113C637.052 88.8122 1205.74 491.304 1278.19 284.229C1354.27 66.7602 1714.24 32.9072 1827.78 204.62C1865.09 261.064 2056.14 188.326 2117.33 227.451C2221.72 294.2 2231.17 439.45 2324.77 516.495" stroke="#21F225" stroke-miterlimit="10"/>
<path d="M-259.152 92.636C-193.318 208.14 -67.9869 294.864 70.193 341.953C197.425 385.302 428.184 493.581 509.571 411.339C516.458 404.394 521.841 395.883 525.829 385.926C620.007 150.575 961.985 313.706 1151.23 316.058C1215.78 316.811 1267.29 303.851 1288.11 254.19C1359.59 83.549 1618.94 42.2511 1771.4 117.668C1802.13 132.892 1828.46 154.766 1847.65 183.439C1885.99 240.666 2069.77 178.593 2133.53 213.534C2240.36 272.092 2248.1 425.653 2339.02 504.598" stroke="#21F225" stroke-miterlimit="10"/>
<path d="M-232.693 41.4296C-165.513 155.036 -49.4973 246.534 79.488 300.234C198.83 349.923 419.097 461.973 510.141 378.608C517.416 371.936 523.133 363.675 527.564 354.089C631.631 129.194 977.982 293.848 1160.12 286.435C1222.26 283.838 1274.72 271.203 1297.94 224.527C1377.29 64.8818 1635.67 35.7609 1789.34 99.7675C1820.94 112.919 1847.85 133.812 1867.34 162.645C1906.65 220.622 2082.96 169.138 2149.5 199.912C2258.38 250.272 2264.77 411.952 2352.97 492.716" stroke="#21F225" stroke-miterlimit="10"/>
<path d="M-206.078 -8.54292C-137.612 103.011 -30.8355 199.204 88.812 259.332C200.315 315.376 409.666 430.86 510.616 346.491C518.28 340.098 524.359 332.072 529.232 322.893C643.05 108.761 993.853 274.586 1168.79 257.451C1228.49 251.485 1281.84 239.276 1307.53 195.561C1394.62 47.2547 1652.62 29.9579 1806.97 82.6009C1839.51 93.6889 1866.91 113.548 1886.72 142.498C1926.99 201.117 2095.54 160.248 2165.08 186.818C2275.58 229.041 2280.98 398.481 2366.43 480.939" stroke="#21F225" stroke-miterlimit="10"/>
<path d="M-179.467 -58.5362C-109.683 50.9976 -12.1455 152.035 98.1471 218.439C201.895 280.923 399.95 399.667 511.136 314.377C519.131 308.236 525.6 300.467 530.914 291.691C654.348 88.2495 1009.69 255.258 1177.51 228.427C1234.8 219.134 1288.97 207.347 1317.17 166.523C1411.7 29.613 1670.11 23.7613 1824.63 65.2949C1858.22 74.3323 1885.97 93.1663 1906.1 122.215C1947.36 181.508 2107.89 151.228 2180.69 173.599C2292.39 207.92 2297.23 384.932 2379.96 469.095" stroke="#21F225" stroke-miterlimit="10"/>
<path d="M-152.86 -108.53C-81.7848 -0.964365 6.60052 105.04 107.493 177.57C203.513 246.602 390.03 368.432 511.642 282.28C519.968 276.389 526.825 268.898 532.609 260.497C665.44 67.7117 1025.53 235.91 1186.23 199.428C1241.08 186.8 1295.99 175.55 1326.81 137.526C1428.48 12.0565 1688.02 17.159 1842.27 47.9476C1877.04 54.898 1905.05 72.7616 1925.5 101.938C1967.73 161.89 2120 142.251 2196.32 160.349C2308.88 187.045 2313.51 371.391 2393.49 457.294" stroke="#21F225" stroke-miterlimit="10"/>
<path d="M-126.258 -158.501C-53.8584 -52.9015 25.2868 58.2376 116.847 136.745C205.136 212.459 379.94 337.105 512.162 250.223C520.792 244.556 528.036 237.341 534.288 229.337C676.357 47.1566 1041.44 216.786 1194.93 170.431C1247.41 154.576 1302.9 143.789 1336.42 108.524C1444.79 -5.50142 1706.29 10.0961 1859.89 30.5673C1895.89 35.3694 1924.06 52.3402 1944.84 81.6482C1988.06 142.289 2131.87 133.372 2211.89 147.099C2325.01 166.49 2329.72 357.887 2406.97 445.515" stroke="#21F225" stroke-miterlimit="10"/>
<path d="M-99.6614 -208.493C-25.9643 -104.838 43.94 11.5808 126.21 95.9187C206.736 178.448 369.678 305.617 512.724 218.16C521.657 212.693 529.315 205.798 536.036 198.164C687.128 26.5238 1057.36 197.372 1203.69 141.44C1253.77 122.299 1309.74 112.042 1346.1 79.4987C1460.76 -23.1669 1724.94 2.47187 1877.55 13.1173C1914.88 15.7091 1943.16 31.864 1964.26 61.284C2008.44 122.597 2143.68 124.579 2227.55 133.742C2341.05 146.142 2346.03 344.307 2420.56 433.669" stroke="#21F225" stroke-miterlimit="10"/>
<path d="M-73.0684 -258.463C1.95675 -156.731 62.4776 -34.9147 135.611 55.132C208.258 144.585 359.303 274.032 513.301 186.132C522.508 180.886 530.579 174.286 537.797 167.021C697.73 5.83878 1073.28 177.951 1212.46 112.45C1260.14 90.0084 1316.47 80.3033 1355.79 50.4919C1476.26 -40.9144 1743.77 -5.61267 1895.24 -4.3547C1933.95 -4.03583 1962.29 11.3787 1983.67 40.9376C2028.85 102.951 2155.38 115.944 2243.17 120.393C2356.9 126.159 2362.31 330.763 2434.11 421.866" stroke="#21F225" stroke-miterlimit="10"/>
<path d="M-46.4796 -308.456C29.8466 -208.631 80.871 -81.3219 144.992 14.3361C209.618 110.775 348.787 242.253 513.862 154.09C523.345 149.017 531.829 142.735 539.513 135.859C708.078 -14.9874 1089.11 158.455 1221.18 83.4598C1266.47 57.7519 1323.01 48.5483 1365.42 21.4572C1491.29 -58.9496 1762.59 -14.2185 1912.84 -21.8913C1952.94 -23.9325 1981.29 -9.18325 2003.03 20.5414C2049.17 83.2606 2166.99 107.472 2258.76 107.011C2372.67 106.448 2378.56 317.21 2447.63 410.061" stroke="#21F225" stroke-miterlimit="10"/>
<path d="M-19.895 -358.446C57.7609 -260.488 99.15 -127.64 154.382 -26.4441C210.873 77.0439 338.187 210.331 514.467 122.061C524.224 117.183 533.121 111.193 541.299 104.705C718.318 -35.9462 1105.04 138.915 1229.97 54.4501C1272.86 25.4605 1329.54 16.6858 1375.12 -7.57777C1506.01 -77.239 1781.47 -23.2386 1930.49 -39.4609C1971.99 -43.9732 2000.38 -29.7439 2022.41 0.125301C2069.52 63.531 2178.65 99.1472 2274.39 93.5777C2388.47 86.9423 2394.85 303.63 2461.21 398.258" stroke="#21F225" stroke-miterlimit="10"/>
<path d="M6.68379 -408.413C85.6431 -312.331 117.286 -173.897 163.778 -67.1885C211.965 43.3877 327.502 178.26 515.053 90.087C525.085 85.3802 534.365 79.7049 543.037 73.6032C728.362 -56.9887 1120.87 119.401 1238.7 25.5119C1279.2 -6.75154 1335.91 -15.1934 1384.76 -36.5451C1520.4 -95.8268 1800.16 -32.5983 1948.08 -56.9923C1990.95 -64.0634 2019.38 -50.257 2041.76 -20.2641C2089.87 43.8558 2190.29 91.0412 2289.98 80.1649C2404.34 67.6865 2411.1 290.09 2474.73 386.477" stroke="#21F225" stroke-miterlimit="10"/>
<path d="M33.2577 -458.403C113.55 -364.184 135.282 -220.165 173.182 -107.945C212.956 9.7123 316.79 146.018 515.682 58.0746C525.961 53.5379 535.652 48.1758 544.846 42.459C738.36 -78.2515 1136.73 99.8219 1247.5 -3.49518C1285.59 -39.0258 1342.26 -47.2768 1394.47 -65.6083C1534.72 -114.871 1818.75 -42.3371 1965.73 -74.6696C2009.92 -84.3877 2038.47 -70.9072 2061.15 -40.765C2110.21 24.0492 2202.1 82.9938 2305.6 66.6584C2420.32 48.5407 2427.39 276.475 2488.3 374.626" stroke="#21F225" stroke-miterlimit="10"/>
<path d="M59.8292 -508.369C141.426 -416 153.14 -266.397 182.625 -148.669C213.819 -23.9597 306.08 113.65 516.327 26.0924C526.881 21.7018 536.953 16.6751 546.64 11.3416C748.226 -99.6377 1152.6 80.2484 1256.28 -32.4547C1291.98 -71.246 1348.61 -79.4242 1404.16 -94.6034C1548.98 -134.204 1837.08 -52.2393 1983.35 -92.2795C2028.77 -104.71 2057.5 -91.4824 2080.52 -61.1887C2130.58 4.34664 2214.02 75.171 2321.19 53.2C2436.43 29.5978 2443.65 262.925 2501.86 362.844" stroke="#21F225" stroke-miterlimit="10"/>
<path d="M86.3944 -558.357C169.326 -467.828 170.945 -312.712 192.045 -189.406C214.582 -57.6984 295.313 81.084 516.954 -5.90683C527.755 -10.152 538.238 -14.8676 548.445 -19.7955C758.072 -121.214 1168.14 60.494 1265.06 -61.4601C1298.24 -103.577 1355 -111.752 1413.85 -123.647C1563.33 -153.891 1855.19 -62.3935 2000.97 -109.96C2047.57 -125.167 2076.55 -112.121 2099.87 -81.6975C2150.9 -15.4617 2226.02 67.3878 2336.78 39.6751C2452.66 10.6712 2459.92 249.3 2515.4 351.037" stroke="#21F225" stroke-miterlimit="10"/>
<path d="M112.955 -608.322C197.192 -519.624 188.668 -359.018 201.472 -230.113C215.272 -91.4352 284.517 48.4123 517.623 -37.8779C528.699 -41.9781 539.563 -46.3838 550.29 -50.9072C767.931 -142.955 1184 40.9135 1273.88 -90.4189C1304.68 -135.762 1361.45 -144.146 1423.57 -152.671C1577.9 -173.858 1873.05 -72.6095 2018.61 -127.64C2066.31 -145.666 2095.63 -132.752 2119.25 -102.174C2171.24 -35.2113 2238.21 59.7163 2352.4 26.1549C2469.12 -8.14573 2476.21 235.717 2528.98 339.23" stroke="#21F225" stroke-miterlimit="10"/>
<path d="M139.512 -658.308C225.083 -571.407 206.312 -405.405 210.908 -270.834C215.894 -125.237 273.75 15.5913 518.277 -69.8648C529.6 -73.8207 540.875 -77.9405 552.092 -82.0606C777.745 -164.879 1199.82 21.2759 1282.65 -119.445C1311.04 -168.033 1367.96 -176.694 1433.25 -181.74C1592.62 -194.078 1890.62 -82.9739 2036.23 -145.383C2084.94 -166.271 2114.66 -153.441 2138.62 -122.707C2191.61 -55.0379 2250.55 52.0686 2368.03 12.5742C2485.71 -26.9896 2492.51 222.086 2542.59 327.378" stroke="#21F225" stroke-miterlimit="10"/>
<path d="M166.063 -708.295C252.941 -623.208 223.931 -451.81 220.351 -311.55C216.474 -159.109 262.983 -17.3862 518.972 -101.85C530.571 -105.686 542.225 -109.474 553.961 -113.192C787.682 -186.942 1215.69 1.64615 1291.49 -148.45C1317.5 -200.279 1374.59 -209.287 1442.99 -210.791C1607.63 -214.435 1908.02 -93.3492 2053.87 -163.125C2103.52 -186.871 2133.73 -174.123 2158 -143.254C2211.94 -74.8538 2263.03 44.4632 2383.66 -1.00186C2502.45 -45.7962 2508.81 208.472 2556.18 315.545" stroke="#21F225" stroke-miterlimit="10"/>
<path d="M192.611 -758.256C280.823 -674.974 241.527 -498.251 229.829 -352.235C217.069 -192.999 252.271 -50.4441 519.68 -133.806C531.525 -137.498 543.589 -141.001 555.814 -144.294C797.659 -209.113 1231.57 -17.9684 1300.3 -177.405C1323.9 -232.448 1381.31 -241.895 1452.71 -239.817C1622.88 -234.876 1925.16 -103.704 2071.49 -180.858C2122 -207.48 2152.75 -194.791 2177.37 -163.763C2232.31 -94.6516 2275.65 36.9318 2399.25 -14.5658C2519.31 -64.5822 2525.09 194.88 2569.74 303.737" stroke="#21F225" stroke-miterlimit="10"/>
<path d="M219.153 -808.242C308.672 -726.758 259.098 -544.756 239.287 -392.939C217.594 -226.96 241.559 -83.6583 520.372 -165.783C532.493 -169.355 544.937 -172.552 557.678 -175.421C807.731 -231.419 1247.41 -37.5953 1309.12 -206.409C1330.35 -264.685 1388.1 -274.571 1462.43 -268.87C1638.36 -255.403 1942.09 -114.087 2089.11 -198.655C2140.41 -228.174 2171.81 -215.518 2196.71 -184.329C2252.62 -114.483 2288.38 29.3542 2414.85 -28.1914C2536.28 -83.4454 2541.37 181.237 2583.33 291.904" stroke="#21F225" stroke-miterlimit="10"/>
<path d="M245.691 -858.202C336.545 -778.51 276.674 -591.276 248.751 -433.614C218.162 -260.94 230.872 -116.957 521.105 -197.733C533.502 -201.185 546.327 -204.099 559.583 -206.522C817.926 -253.784 1263.29 -57.2312 1317.95 -235.365C1336.77 -296.848 1394.99 -307.195 1472.16 -297.877C1654.07 -275.921 1958.86 -124.377 2106.72 -216.395C2158.78 -248.784 2190.82 -236.184 2216.08 -204.858C2272.98 -134.297 2301.23 21.8278 2430.48 -41.7582C2553.42 -102.243 2557.67 167.662 2596.93 280.118" stroke="#21F225" stroke-miterlimit="10"/>
<path d="M272.188 -908.229C465.444 -744.849 -54.8227 -78.0752 521.792 -229.726C780.685 -297.805 1276.64 -67.2739 1326.73 -264.365C1381.87 -481.319 1912.18 -92.4017 2124.3 -234.213C2296.5 -349.322 2255.85 45.0108 2446.05 -55.3943C2570.59 -121.127 2573.92 154.033 2610.47 268.283" stroke="#21F225" stroke-miterlimit="10"/>
</g>
</g>
</svg>
