<svg width="1920" height="688" viewBox="0 0 1920 688" fill="none" xmlns="http://www.w3.org/2000/svg">
<mask id="mask0_2_2102" style="mask-type:alpha" maskUnits="userSpaceOnUse" x="0" y="0" width="1920" height="688">
<rect width="1920" height="688" transform="matrix(-1 0 0 1 1920 0)" fill="#D9D9D9"/>
</mask>
<g mask="url(#mask0_2_2102)">
<mask id="mask1_2_2102" style="mask-type:alpha" maskUnits="userSpaceOnUse" x="-98" y="-433" width="2176" height="1065">
<rect width="2055.53" height="767.564" transform="matrix(0.988744 0.150585 0.186771 -0.982578 -97.75 322.132)" fill="#C4C4C4"/>
</mask>
<g mask="url(#mask1_2_2102)">
<path d="M-246.024 4.19825C-205.636 111.585 -101.348 197.586 18.6457 249.753C138.64 301.92 355.131 437.189 407.4 335.159C543.447 69.5913 976.732 480.511 1063.49 313.686C1154.6 138.489 1464.12 153.739 1539.46 313.281C1564.22 365.722 1735.18 327.35 1782.31 368.016C1862.72 437.394 1853 561.772 1922.99 638.566" stroke="#21F225" stroke-miterlimit="10"/>
<path d="M-217.32 -36.6331C-175.578 69.397 -79.8462 158.278 31.6278 215.104C134.271 267.421 316.811 387.466 395.901 327.637C402.592 322.587 408.199 316.024 412.798 308.063C521.442 119.906 791.635 300.07 951.896 325.181C1006.56 333.704 1051.84 329.001 1075.58 289.414C1157.06 153.381 1382.12 150.025 1502.25 232.627C1526.47 249.296 1546.13 271.069 1558.91 297.739C1584.44 350.969 1747.93 320.758 1797.76 358.188C1881.24 420.915 1869.04 552.135 1936.54 630.215" stroke="#21F225" stroke-miterlimit="10"/>
<path d="M-188.618 -76.8415C-145.502 27.7426 -58.256 119.537 44.6102 180.848C139.786 237.579 312.964 359.542 400.384 299.94C407.371 295.168 413.23 288.858 418.16 281.267C533.916 103.188 807.633 285.178 963.053 301.137C1016.09 306.524 1062.14 302.213 1087.53 265.451C1174.36 139.708 1397.11 146.563 1519.66 219.633C1544.86 234.65 1565.14 255.662 1578.15 282.503C1604.42 336.49 1760.28 314.348 1812.97 348.584C1899.19 404.606 1884.86 542.548 1949.82 621.839" stroke="#21F225" stroke-miterlimit="10"/>
<path d="M-159.935 -115.986C-115.478 -12.9859 -36.6429 81.663 57.5163 147.287C145.265 208.452 308.763 331.995 404.71 272.751C411.992 268.263 418.13 262.197 423.385 255.005C546.098 87.2472 823.45 270.775 973.953 277.607C1025.33 279.838 1072.08 275.996 1099.21 242.049C1191.21 126.869 1412.2 143.71 1536.71 207.223C1562.96 220.604 1583.78 240.799 1597.05 267.778C1624.06 322.427 1772.04 308.343 1827.79 339.379C1916.37 388.694 1900.26 533.101 1962.68 613.491" stroke="#21F225" stroke-miterlimit="10"/>
<path d="M-131.253 -155.148C-85.431 -53.7004 -15.0255 43.929 70.4309 113.735C150.814 179.416 304.33 304.345 409.074 245.57C416.607 241.337 423.044 235.536 428.623 228.739C558.189 71.226 839.249 256.312 984.891 254.048C1034.63 253.162 1082.03 249.779 1110.94 218.591C1207.86 113.989 1427.79 140.588 1553.8 194.697C1581.2 206.468 1602.44 225.835 1615.97 252.937C1643.73 308.279 1783.62 302.2 1842.65 330.07C1933.22 372.83 1915.7 523.59 1975.6 605.095" stroke="#21F225" stroke-miterlimit="10"/>
<path d="M-102.575 -194.31C-55.4169 -94.3743 6.61732 6.3507 83.3504 80.2054C156.378 150.498 299.73 276.635 413.423 218.403C421.206 214.422 427.938 208.904 433.871 202.484C570.107 55.1581 855.047 241.834 995.83 230.512C1043.91 226.5 1091.86 223.662 1122.65 195.169C1224.23 101.145 1443.8 137.176 1570.89 182.137C1599.54 192.28 1621.12 210.856 1634.9 238.105C1663.41 294.124 1794.99 296.063 1857.53 320.739C1949.75 357.136 1931.16 514.091 1988.52 596.737" stroke="#21F225" stroke-miterlimit="10"/>
<path d="M-73.9023 -233.454C-25.3804 -135.024 28.1876 -31.0718 96.2742 46.714C161.926 121.731 294.997 248.827 417.781 191.27C425.794 187.517 432.821 182.28 439.102 176.254C581.88 39.0534 870.881 227.553 1006.75 206.975C1053.21 199.934 1101.61 197.562 1134.36 171.74C1240.22 88.2423 1460.16 133.415 1587.96 169.543C1617.92 178.015 1639.75 195.854 1653.79 223.254C1683.05 279.979 1806.14 289.98 1872.35 311.4C1965.95 341.668 1946.57 504.616 2001.39 588.39" stroke="#21F225" stroke-miterlimit="10"/>
<path d="M-45.2329 -272.617C4.62724 -175.678 49.7109 -68.375 109.204 13.2224C167.438 93.0726 290.137 220.86 422.174 164.138C430.42 160.591 437.759 155.677 444.393 150.022C593.538 22.865 886.757 213.027 1017.73 183.451C1062.55 173.329 1111.29 171.464 1146.11 148.298C1255.92 75.2055 1476.91 129.225 1605.08 156.897C1636.42 163.655 1658.45 180.815 1672.75 208.35C1702.75 265.763 1817.23 283.963 1887.27 301.981C1982.04 326.364 1962.06 495.087 2014.38 580.001" stroke="#21F225" stroke-miterlimit="10"/>
<path d="M-16.5695 -311.76C34.6523 -216.291 71.1161 -105.555 122.16 -20.2308C172.865 64.531 285.193 192.797 426.574 137.037C435.026 133.711 442.68 129.098 449.69 123.816C605.058 6.61175 902.634 198.496 1028.71 159.928C1071.9 146.714 1120.88 145.361 1157.87 124.873C1271.24 62.0435 1493.87 124.667 1622.22 144.235C1655.02 149.234 1677.18 165.772 1691.71 193.461C1722.46 251.589 1828.22 278.067 1902.15 292.565C1997.92 311.347 1977.53 485.586 2027.31 571.643" stroke="#21F225" stroke-miterlimit="10"/>
<path d="M12.0929 -350.924C64.6513 -256.914 92.388 -142.678 135.101 -53.6944C178.147 36.0142 280.152 164.553 430.964 109.923C439.628 106.777 447.593 102.484 454.951 97.5896C616.38 -9.79233 918.448 183.891 1039.65 136.399C1081.21 120.121 1130.3 119.22 1169.59 101.418C1286.19 48.5786 1510.88 119.664 1639.29 131.508C1673.56 134.674 1695.81 150.65 1710.62 178.522C1742.11 237.367 1839.1 272.298 1917.01 283.116C2013.71 296.552 1992.97 476.073 2040.22 563.279" stroke="#21F225" stroke-miterlimit="10"/>
<path d="M40.7523 -390.086C94.6669 -297.497 113.553 -179.739 148.048 -87.1428C183.332 7.55205 275.059 136.178 435.389 82.8252C444.262 79.8788 452.541 75.8842 460.272 71.3791C627.627 -26.3212 934.342 169.26 1050.65 112.863C1090.58 93.5088 1139.73 92.9879 1181.36 77.971C1300.92 34.8616 1528 114.319 1656.41 118.759C1692.16 120 1714.52 135.54 1729.56 163.571C1761.78 223.116 1850.01 266.66 1931.91 273.629C2029.5 281.934 2008.44 466.542 2053.18 554.926" stroke="#21F225" stroke-miterlimit="10"/>
<path d="M69.4039 -429.23C124.653 -338.073 134.589 -216.767 160.996 -120.562C188.37 -20.8678 269.912 107.665 439.792 55.7709C448.878 53.0032 457.444 49.3221 465.546 45.205C638.719 -42.9467 950.159 154.638 1061.59 89.3788C1099.89 66.9554 1149.03 66.7199 1193.08 54.5734C1315.39 20.8494 1545 108.661 1673.48 106.035C1710.7 105.271 1733.14 120.458 1748.47 148.636C1781.44 208.908 1860.87 261.205 1946.77 264.154C2045.31 267.536 2023.89 457.04 2066.09 546.583" stroke="#21F225" stroke-miterlimit="10"/>
<path d="M98.0546 -468.392C154.662 -378.653 155.508 -253.82 173.953 -153.988C193.324 -49.3147 264.763 79.0043 444.237 28.6907C453.511 26.0974 462.387 22.7322 470.885 19.0053C649.798 -59.7631 966.011 139.966 1072.6 65.846C1109.25 40.3559 1158.34 40.2791 1204.87 31.1043C1329.87 6.44321 1561.96 102.67 1690.61 93.1947C1729.28 90.347 1751.86 105.271 1767.41 133.612C1801.12 194.591 1871.88 255.821 1961.67 254.604C2061.21 253.247 2039.37 447.48 2079.05 538.186" stroke="#21F225" stroke-miterlimit="10"/>
<path d="M126.7 -507.536C184.641 -419.208 176.305 -290.861 186.939 -187.384C198.17 -77.7762 259.631 50.235 448.69 1.63595C458.18 -0.799667 467.339 -3.8338 476.209 -7.17525C660.781 -76.7022 981.864 125.298 1083.58 42.3491C1118.61 13.8013 1167.65 13.7803 1216.63 7.68795C1344.32 -8.218 1578.73 96.508 1707.71 80.4061C1747.76 75.4086 1770.51 90.1389 1786.35 118.651C1820.81 180.363 1882.94 250.639 1976.54 245.09C2077.2 239.144 2054.82 437.97 2092 529.846" stroke="#21F225" stroke-miterlimit="10"/>
<path d="M155.343 -546.698C214.641 -459.768 197.068 -327.977 199.906 -220.792C202.938 -106.305 254.475 21.2932 453.131 -25.4333C462.813 -27.7154 472.282 -30.4355 481.543 -33.3693C671.769 -93.8029 997.454 110.438 1094.58 18.8162C1127.87 -12.8614 1177.02 -12.8644 1228.4 -15.7669C1358.91 -23.1651 1595.33 90.1067 1724.81 67.5596C1766.2 60.3503 1789.2 74.9583 1805.27 103.617C1840.46 166.041 1894.07 245.503 1991.43 235.522C2093.28 225.07 2070.28 428.399 2104.93 521.485" stroke="#21F225" stroke-miterlimit="10"/>
<path d="M183.979 -585.842C244.608 -500.306 217.759 -365.096 212.876 -254.175C207.645 -134.841 249.307 -7.74255 457.603 -52.4744C467.501 -54.5998 477.256 -57.0105 486.908 -59.5377C682.789 -111.043 1013.31 95.7647 1105.6 -4.67388C1137.26 -39.3795 1186.45 -39.5565 1240.19 -39.201C1373.7 -38.3255 1611.73 83.6208 1741.94 54.7162C1784.61 45.2494 1807.9 59.7864 1824.2 88.6119C1860.13 151.771 1905.36 240.484 2006.33 225.96C2109.53 211.117 2085.77 418.866 2117.89 513.126" stroke="#21F225" stroke-miterlimit="10"/>
<path d="M212.613 -625.004C274.593 -540.83 238.392 -402.294 225.854 -287.568C212.299 -163.441 244.18 -36.9019 462.064 -79.531C472.154 -81.5039 482.222 -83.6219 492.241 -85.7471C693.791 -128.444 1029.12 81.0364 1116.58 -28.2269C1146.6 -65.9798 1195.94 -66.3752 1251.95 -62.6804C1388.66 -53.6806 1627.9 76.9742 1759.05 41.8149C1802.93 30.0443 1826.57 44.558 1843.15 73.5593C1879.83 137.438 1916.75 235.502 2021.24 216.347C2125.91 197.157 2101.26 409.293 2130.88 504.734" stroke="#21F225" stroke-miterlimit="10"/>
<path d="M241.244 -664.168C304.554 -581.372 259.008 -439.51 238.838 -320.957C216.929 -192.106 239.075 -66.1933 466.561 -106.581C476.87 -108.418 487.22 -110.208 497.63 -111.929C704.917 -145.947 1044.99 66.3226 1127.62 -51.7541C1156.02 -92.5468 1205.55 -93.2157 1263.76 -86.136C1403.89 -69.1167 1643.93 70.2976 1776.19 28.9188C1821.2 14.8377 1845.28 29.3431 1862.09 58.4944C1899.51 123.112 1928.27 230.575 2036.16 206.738C2142.41 183.248 2116.75 399.734 2143.85 496.355" stroke="#21F225" stroke-miterlimit="10"/>
<path d="M269.868 -703.311C334.531 -621.883 279.608 -476.759 251.849 -354.314C221.574 -220.784 234.025 -95.5469 471.065 -133.604C481.565 -135.289 492.228 -136.788 503.001 -138.089C716.089 -163.537 1060.85 51.6212 1138.63 -75.2423C1165.38 -119.055 1215.24 -120.058 1275.55 -109.574C1419.32 -84.5954 1659.73 63.6065 1793.3 16.0265C1839.4 -0.388533 1863.94 14.1327 1881.03 43.4619C1919.2 108.804 1939.89 225.726 2051.05 197.136C2159 169.369 2132.22 390.191 2156.8 487.995" stroke="#21F225" stroke-miterlimit="10"/>
<path d="M298.492 -742.474C364.483 -662.413 300.196 -514.065 264.845 -387.691C226.168 -249.531 228.995 -125.033 475.559 -160.648C486.278 -162.198 497.226 -163.39 508.385 -164.268C727.359 -181.231 1076.69 36.9059 1149.66 -98.7707C1174.79 -145.616 1224.99 -146.949 1287.35 -133.034C1434.96 -100.12 1675.37 56.8668 1810.42 3.07993C1857.55 -15.6961 1882.64 -1.12456 1899.96 28.3765C1938.85 94.46 1951.63 220.853 2065.95 187.482C2175.71 155.439 2147.69 380.605 2169.78 479.616" stroke="#21F225" stroke-miterlimit="10"/>
<path d="M327.107 -781.617C394.45 -702.912 320.788 -551.384 277.842 -421.041C230.8 -278.289 223.996 -154.587 480.083 -187.664C491.021 -189.078 502.258 -189.984 513.8 -190.42C738.739 -198.96 1092.56 22.1871 1160.68 -122.258C1184.17 -172.117 1234.82 -173.784 1299.14 -156.455C1450.79 -115.607 1690.85 50.1845 1827.53 -9.81907C1875.65 -30.9368 1901.3 -16.3343 1918.9 13.3271C1958.55 80.1379 1963.45 216.038 2080.86 177.881C2192.55 141.586 2163.18 371.08 2182.75 471.278" stroke="#21F225" stroke-miterlimit="10"/>
<path d="M355.697 -820.82C499.691 -658.611 -23.1241 -156.498 484.574 -214.72C712.523 -240.853 1105.11 15.2986 1171.68 -145.787C1244.95 -323.107 1647.34 71.6091 1844.61 -22.788C2004.77 -99.407 1922.11 230.162 2095.74 168.215C2209.42 127.662 2178.63 361.503 2195.69 462.892" stroke="#21F225" stroke-miterlimit="10"/>
</g>
</g>
</svg>
