<svg width="1920" height="463" viewBox="0 0 1920 463" fill="none" xmlns="http://www.w3.org/2000/svg">
<mask id="mask0_2_3027" style="mask-type:alpha" maskUnits="userSpaceOnUse" x="0" y="0" width="1920" height="463">
<rect width="1920" height="463" fill="#D9D9D9"/>
</mask>
<g mask="url(#mask0_2_3027)">
<mask id="mask1_2_3027" style="mask-type:alpha" maskUnits="userSpaceOnUse" x="-139" y="-467" width="2198" height="948">
<rect width="2114.48" height="789.576" transform="matrix(0.997214 0.0765084 0.113053 -0.993762 -139 318.458)" fill="#C4C4C4"/>
</mask>
<g mask="url(#mask1_2_3027)">
<path d="M-315.466 3.67716C-265.806 110.742 -152.235 190.971 -25.1449 235.29C101.945 279.608 334.392 401.779 380.192 293.109C499.4 10.2594 975.362 398.585 1051.57 220.805C1131.61 34.1018 1450.29 26.0261 1539.81 183.913C1569.22 235.811 1741.66 183.348 1793.12 221.452C1880.92 286.459 1880.48 414.794 1958.16 488.207" stroke="#21F225" stroke-miterlimit="10"/>
<path d="M-289.15 -40.4081C-238.205 65.1608 -133.189 149.001 -14.4824 198.751C94.8198 244.553 291.272 353.709 367.82 286.274C374.297 280.581 379.545 273.419 383.654 264.9C480.683 63.5592 771.659 227.67 937.982 241.147C994.711 245.702 1040.8 237.407 1062.11 194.98C1135.28 49.1898 1365.9 28.4992 1495.45 104.029C1521.57 119.273 1543.41 140.101 1558.57 166.48C1588.83 219.128 1754.23 175.608 1808.21 210.186C1898.65 268.136 1896.2 403.678 1971.42 478.602" stroke="#21F225" stroke-miterlimit="10"/>
<path d="M-262.788 -83.8542C-210.545 20.1261 -114.011 107.605 -3.7908 162.616C98.1894 213.518 285.185 325.359 370.295 257.519C377.097 252.088 382.623 245.166 387.099 237.002C492.197 45.4536 786.928 211.167 947.584 215.628C1002.4 217.09 1049.31 209.138 1072.54 169.481C1151.97 33.8379 1381 23.7998 1512.31 89.3656C1539.32 102.839 1561.73 122.84 1577.13 149.376C1608.22 202.744 1766.41 168.087 1823.09 199.168C1915.82 250.03 1911.69 392.632 1984.4 468.991" stroke="#21F225" stroke-miterlimit="10"/>
<path d="M-236.365 -126.207C-182.866 -23.9547 -94.7425 67.0966 6.87685 127.2C101.578 183.219 278.766 297.422 372.649 229.296C379.776 224.135 385.607 217.441 390.447 209.661C503.473 28.168 802.05 195.181 956.963 190.655C1009.84 189.007 1057.5 181.483 1082.73 144.58C1168.27 19.3767 1396.26 19.7166 1528.86 75.3279C1556.81 87.0429 1579.72 106.164 1595.4 132.822C1627.29 186.813 1778.01 161.025 1837.58 188.59C1932.23 232.391 1926.76 381.76 1996.96 459.443" stroke="#21F225" stroke-miterlimit="10"/>
<path d="M-209.943 -168.578C-155.163 -68.0225 -75.4583 26.7323 17.554 91.7922C105.046 153.009 272.1 269.399 375.043 201.08C382.446 196.16 388.605 189.716 393.808 182.316C514.648 10.8071 817.149 179.134 966.378 165.65C1017.33 160.93 1065.69 153.828 1092.96 119.618C1184.37 4.88872 1412.02 15.3203 1545.43 61.1698C1574.44 71.1446 1597.71 89.3842 1613.67 116.149C1646.39 170.793 1789.42 153.836 1852.11 177.903C1948.29 214.826 1941.87 370.821 2009.57 449.84" stroke="#21F225" stroke-miterlimit="10"/>
<path d="M-183.526 -210.949C-127.491 -112.047 -56.1367 -13.4753 28.2373 56.406C108.537 122.917 265.256 241.326 377.422 172.877C385.102 168.197 391.585 162.021 397.178 154.981C525.642 -6.58938 832.245 163.07 975.795 140.668C1024.81 132.867 1073.78 126.282 1103.18 94.6932C1200.18 -9.54252 1428.18 10.5932 1562 46.9749C1592.16 55.1847 1615.72 72.5863 1631.95 99.4832C1665.48 154.764 1800.61 146.67 1866.65 167.191C1964.05 197.459 1957.01 359.892 2022.18 440.276" stroke="#21F225" stroke-miterlimit="10"/>
<path d="M-157.112 -253.301C-99.7948 -156.049 -36.8775 -53.517 38.928 21.0595C112.024 92.9822 258.27 213.162 379.814 144.71C387.746 140.246 394.553 134.335 400.535 127.672C536.485 -24.0122 847.393 147.207 985.197 115.686C1032.31 104.903 1081.78 98.7606 1113.39 69.7622C1215.59 -24.0036 1444.67 5.48154 1578.54 32.7484C1609.92 39.1429 1633.68 55.7695 1650.19 82.8016C1684.55 138.748 1811.59 139.575 1881.15 156.474C1979.48 180.351 1972.09 348.991 2034.75 430.727" stroke="#21F225" stroke-miterlimit="10"/>
<path d="M-130.704 -295.672C-72.1275 -200.052 -17.6568 -93.4333 49.6249 -14.2881C115.482 63.1611 251.142 184.845 382.241 116.54C390.428 112.269 397.58 106.666 403.952 100.357C547.204 -41.5125 862.566 131.09 994.652 90.7129C1039.86 76.8945 1089.71 71.247 1123.66 44.8137C1230.7 -38.5807 1461.53 -0.101265 1595.13 18.4632C1627.81 22.9934 1651.72 38.9089 1668.5 66.0591C1703.67 122.655 1822.5 132.552 1895.72 145.668C1994.81 163.418 1987.25 338.028 2047.42 421.126" stroke="#21F225" stroke-miterlimit="10"/>
<path d="M-104.3 -338.023C-44.4394 -244.014 1.45181 -133.214 60.3526 -49.5978C118.862 33.4669 243.919 156.437 384.678 88.4026C393.093 84.343 400.591 79.0247 407.378 73.0689C557.775 -59.068 877.74 114.966 1004.12 65.7414C1047.41 48.8761 1097.54 43.7353 1133.92 19.8829C1245.41 -53.2566 1478.58 -6.07696 1611.74 4.16128C1645.77 6.77554 1669.77 22.0429 1686.8 49.3329C1722.8 106.605 1833.32 125.662 1910.27 134.869C2009.96 146.796 2002.39 327.097 2060.05 411.561" stroke="#21F225" stroke-miterlimit="10"/>
<path d="M-77.8983 -380.395C-16.7785 -287.985 20.4284 -172.925 71.0634 -84.917C122.095 3.80911 236.585 127.85 387.104 60.2521C395.751 56.3611 403.592 51.347 410.766 45.762C568.133 -76.7631 892.843 98.7725 1013.53 40.7671C1054.92 20.8841 1105.21 16.1975 1144.15 -5.07558C1259.71 -68.2146 1495.65 -12.5123 1628.28 -10.203C1663.68 -9.58098 1687.73 5.10235 1705.06 32.5592C1741.87 90.5102 1844.04 118.91 1924.79 124.037C2025.02 130.409 2017.5 316.156 2072.65 401.993" stroke="#21F225" stroke-miterlimit="10"/>
<path d="M-51.4998 -422.764C10.9021 -331.916 39.2996 -212.565 81.7815 -120.221C125.233 -25.7851 229.186 99.1323 389.566 32.1157C398.443 28.4133 406.63 23.6811 414.215 18.4672C578.404 -94.5806 908.026 82.5457 1023.01 15.7802C1062.49 -7.13356 1112.87 -11.4349 1154.43 -30.0298C1273.76 -83.4139 1512.81 -19.3072 1644.87 -24.5924C1681.64 -26.0598 1705.76 -11.8313 1723.34 15.7703C1760.96 74.3834 1854.8 112.291 1939.34 113.164C2040.09 114.205 2032.64 305.193 2085.31 392.43" stroke="#21F225" stroke-miterlimit="10"/>
<path d="M-25.1078 -465.114C38.5538 -375.838 58.042 -252.161 92.5037 -155.495C128.223 -55.3248 221.721 70.2776 392.01 4.02553C401.119 0.490128 409.624 -3.94246 417.62 -8.78682C588.508 -112.485 923.132 66.3346 1032.44 -9.14875C1070.01 -35.0864 1120.4 -39.0934 1164.66 -54.9294C1287.54 -98.8973 1529.81 -26.4141 1661.4 -38.9536C1699.53 -42.5892 1723.71 -28.7305 1741.59 -0.99876C1780.04 58.3024 1865.53 105.862 1953.87 102.305C2055.21 98.2233 2047.76 294.262 2097.92 382.882" stroke="#21F225" stroke-miterlimit="10"/>
<path d="M1.28162 -507.484C66.228 -419.766 76.6616 -291.774 103.234 -190.778C131.126 -84.8864 214.243 41.2712 394.495 -24.0951C403.809 -27.466 412.657 -31.5983 421.089 -36.0727C598.585 -130.585 938.268 50.0688 1041.93 -34.1333C1077.57 -63.0904 1127.92 -66.9312 1174.95 -79.9084C1301.29 -114.786 1546.75 -33.8598 1677.99 -53.4385C1717.44 -59.3231 1741.75 -45.7439 1759.87 -17.8631C1799.13 42.107 1876.4 99.4958 1968.42 91.3663C2070.43 82.3459 2062.91 283.268 2110.56 373.275" stroke="#21F225" stroke-miterlimit="10"/>
<path d="M27.6661 -549.833C93.872 -463.664 95.1564 -331.364 113.994 -226.03C133.915 -114.453 206.773 12.1531 396.989 -52.1888C406.537 -55.4146 415.7 -59.2289 424.543 -63.3364C608.552 -148.803 953.405 33.8079 1051.39 -59.0778C1085.14 -91.047 1135.44 -94.8266 1185.22 -104.83C1314.99 -130.932 1563.47 -41.465 1694.55 -67.8668C1735.25 -76.0624 1759.72 -62.6956 1778.15 -34.6604C1818.23 26.0039 1887.36 93.3326 1982.95 80.4676C2085.74 66.6545 2078.03 272.329 2123.2 363.729" stroke="#21F225" stroke-miterlimit="10"/>
<path d="M54.0475 -592.202C121.538 -507.571 113.611 -371.03 124.736 -261.296C136.62 -144.084 199.266 -17.1416 399.47 -80.2981C409.227 -83.381 418.732 -86.897 428.008 -90.6163C618.514 -167.188 968.259 17.368 1060.87 -84.0618C1092.59 -119.109 1143.01 -122.878 1195.49 -129.793C1328.81 -147.383 1580.02 -49.3048 1711.11 -82.3566C1753.02 -92.9239 1777.73 -79.7007 1796.41 -51.5338C1837.3 9.80496 1898.38 87.2099 1997.48 69.511C2101.16 50.9848 2093.16 261.325 2135.83 354.16" stroke="#21F225" stroke-miterlimit="10"/>
<path d="M80.4231 -634.55C149.173 -551.451 131.992 -410.692 135.483 -296.533C139.262 -173.718 191.739 -46.5302 401.986 -108.379C411.977 -111.318 421.798 -114.539 431.506 -117.871C628.497 -185.717 983.398 1.10213 1070.37 -109.002C1100.2 -147.03 1150.64 -150.982 1205.8 -154.735C1342.82 -164.068 1596.34 -57.2138 1727.7 -96.8434C1770.74 -109.824 1795.75 -96.6972 1814.68 -68.3764C1856.38 -6.34021 1909.57 81.1979 2012.04 58.5609C2116.77 35.4257 2108.31 250.36 2148.48 344.593" stroke="#21F225" stroke-miterlimit="10"/>
<path d="M106.796 -676.918C176.827 -595.32 150.308 -450.433 146.237 -331.784C141.845 -203.413 184.247 -76.0501 404.489 -136.477C414.688 -139.274 424.853 -142.218 434.969 -145.166C638.451 -204.41 998.493 -15.2188 1079.84 -134.005C1107.74 -175.034 1158.33 -179.221 1216.06 -179.722C1356.99 -180.967 1612.42 -65.2718 1744.27 -111.39C1788.37 -126.827 1813.73 -113.75 1832.96 -85.2699C1875.49 -22.5527 1920.88 75.2139 2026.6 47.5565C2132.5 19.8503 2123.47 239.353 2161.17 334.988" stroke="#21F225" stroke-miterlimit="10"/>
<path d="M133.165 -719.287C204.455 -639.205 168.604 -490.189 156.998 -367.03C144.398 -233.173 176.764 -105.707 407.029 -164.57C417.463 -167.244 427.943 -169.874 438.49 -172.436C648.522 -223.218 1013.64 -31.5283 1089.36 -158.986C1115.36 -203.008 1166.12 -207.49 1226.38 -204.689C1371.43 -197.968 1628.35 -73.3491 1760.85 -125.932C1805.95 -143.826 1831.76 -130.791 1851.24 -102.176C1894.57 -38.7569 1932.31 69.2765 2041.16 36.5569C2148.36 4.31703 2138.63 228.36 2173.83 325.399" stroke="#21F225" stroke-miterlimit="10"/>
<path d="M159.528 -761.633C232.101 -683.059 186.88 -529.978 167.788 -402.245C146.964 -262.948 169.334 -135.431 409.578 -192.636C420.22 -195.169 431.043 -197.524 441.994 -199.683C658.634 -242.119 1028.78 -47.8246 1098.85 -183.924C1122.94 -230.918 1174 -235.767 1236.68 -229.635C1386.07 -215.029 1644.05 -81.4238 1777.42 -140.468C1823.46 -160.84 1849.74 -147.824 1869.52 -119.047C1913.68 -54.9437 1943.87 63.4124 2055.7 25.5661C2164.32 -11.1914 2153.76 217.386 2186.47 315.83" stroke="#21F225" stroke-miterlimit="10"/>
<path d="M185.89 -804.002C259.721 -726.93 205.142 -569.826 178.562 -437.479C149.474 -292.789 161.915 -165.293 412.116 -220.723C422.993 -223.134 434.132 -225.195 445.512 -226.951C668.84 -261.132 1043.91 -64.134 1108.36 -208.906C1130.55 -258.886 1181.95 -264.101 1246.98 -254.605C1400.93 -232.153 1659.57 -89.5362 1793.99 -155.061C1840.89 -177.933 1867.75 -164.908 1887.78 -135.973C1932.74 -71.1636 1955.53 57.5143 2070.24 14.5208C2180.38 -26.7612 2168.9 206.366 2199.14 306.241" stroke="#21F225" stroke-miterlimit="10"/>
<path d="M212.245 -846.348C287.358 -770.772 223.406 -609.687 189.339 -472.687C152.022 -322.644 154.522 -195.227 414.686 -248.782C425.799 -251.071 437.256 -252.861 449.062 -254.193C679.155 -280.191 1059.06 -80.4487 1117.87 -233.844C1138.14 -286.79 1189.97 -292.382 1257.29 -279.534C1415.98 -249.253 1674.94 -97.5768 1810.55 -169.604C1858.3 -194.955 1885.72 -181.94 1906.05 -152.862C1951.85 -87.3646 1967.29 51.6688 2084.81 3.5294C2196.6 -42.262 2184.06 195.408 2211.82 296.693" stroke="#21F225" stroke-miterlimit="10"/>
<path d="M238.568 -888.755C398.71 -733.392 -99.1257 -178.25 417.219 -276.882C649.051 -321.158 1071.41 -88.4776 1127.35 -258.823C1188.93 -446.337 1631.95 -72.2654 1827.08 -184.218C1985.5 -275.088 1925.96 69.3246 2099.33 -7.5266C2212.84 -57.8385 2199.18 184.399 2224.44 287.099" stroke="#21F225" stroke-miterlimit="10"/>
</g>
</g>
</svg>
