<svg width="1920" height="688" viewBox="0 0 1920 688" fill="none" xmlns="http://www.w3.org/2000/svg">
<mask id="mask0_166_3" style="mask-type:alpha" maskUnits="userSpaceOnUse" x="0" y="0" width="1920" height="688">
<rect width="1920" height="688" fill="#D9D9D9"/>
</mask>
<g mask="url(#mask0_166_3)">
<mask id="mask1_166_3" style="mask-type:alpha" maskUnits="userSpaceOnUse" x="-158" y="-463" width="2176" height="1140">
<rect width="2070.21" height="804.011" transform="matrix(-0.985834 0.167725 -0.167745 -0.98583 2017.75 329.641)" fill="#C4C4C4"/>
</mask>
<g mask="url(#mask1_166_3)">
<path d="M2171.65 1.57214C2129.23 111.658 2023.3 201.026 1902.31 256.188C1781.32 311.35 1562.24 452.796 1511.9 349.722C1380.85 81.4381 939.751 507.36 856.137 338.85C768.327 161.884 458.485 182.612 380.115 346.421C354.364 400.265 184.108 364.038 136.203 406.26C54.4718 478.293 61.8462 604.849 -9.60586 684.262" stroke="#21F225" stroke-miterlimit="10"/>
<path d="M2143.59 -40.3756C2099.83 68.376 2002.41 160.558 1889.84 220.337C1786.2 275.372 1601.36 400.768 1523.39 341.125C1516.8 336.09 1511.31 329.496 1506.86 321.461C1401.76 131.539 1128.12 319.671 967.364 347.948C912.53 357.551 867.33 353.518 844.342 313.574C765.42 176.314 540.384 176.669 418.68 262.861C394.145 280.254 374.066 302.772 360.782 330.164C334.244 384.838 171.296 356.793 120.759 395.772C36.0816 461.096 45.7934 594.613 -23.184 675.313" stroke="#21F225" stroke-miterlimit="10"/>
<path d="M2115.52 -82.3403C2070.41 25.0813 1981.4 120.195 1877.35 184.472C1781.07 243.946 1605.54 371.279 1519.23 311.939C1512.33 307.188 1506.59 300.848 1501.8 293.187C1389.38 113.449 1112.15 303.711 956.382 322.599C903.231 328.985 857.249 325.359 832.543 288.28C748.077 161.452 525.133 172.182 401.17 248.785C375.678 264.529 354.997 286.306 341.472 313.907C314.176 369.426 158.692 349.452 105.335 385.264C18.0349 443.865 29.7604 584.355 -36.718 666.338" stroke="#21F225" stroke-miterlimit="10"/>
<path d="M2087.45 -124.286C2041.01 -18.1984 1960.34 79.925 1864.88 148.621C1775.92 212.649 1609.99 341.744 1515.11 282.763C1507.91 278.296 1501.89 272.194 1496.76 264.927C1377.16 95.415 1096.18 287.769 945.458 297.281C894.011 300.426 847.309 297.281 820.801 263.017C730.941 146.763 509.507 167.695 383.718 234.741C357.198 248.867 335.985 269.87 322.196 297.685C294.138 354.03 146.34 342.109 89.9684 374.786C0.404324 426.709 13.7851 574.127 -50.1943 657.393" stroke="#21F225" stroke-miterlimit="10"/>
<path d="M2059.38 -166.25C2011.59 -61.4933 1939.27 39.7628 1852.41 112.752C1770.71 181.427 1614.69 312.061 1510.97 253.572C1503.51 249.359 1497.18 243.521 1491.73 236.648C1365.05 77.3652 1080.23 271.804 934.502 271.928C884.738 271.855 837.364 269.183 809.024 237.698C714.01 132.104 493.379 163.061 366.23 220.641C338.586 233.166 316.961 253.374 302.904 281.382C274.064 338.577 134.175 334.693 74.5658 364.252C-16.8936 409.603 -2.22637 563.844 -63.7311 648.396" stroke="#21F225" stroke-miterlimit="10"/>
<path d="M2031.31 -208.214C1982.2 -104.771 1918.17 -0.26709 1839.94 76.883C1765.49 150.312 1619.57 282.284 1506.86 224.378C1499.14 220.42 1492.51 214.865 1486.69 208.37C1353.1 59.328 1064.28 255.861 923.55 246.596C875.491 243.281 827.536 241.172 797.254 212.421C697.348 117.548 476.846 158.245 348.747 206.561C319.874 217.461 297.918 236.904 283.597 265.125C253.995 323.145 122.224 327.346 59.1444 353.743C-33.8831 392.677 -18.2568 553.586 -77.2589 639.441" stroke="#21F225" stroke-miterlimit="10"/>
<path d="M2003.25 -250.16C1952.78 -148.046 1897.15 -40.1637 1827.48 41.0331C1760.3 119.339 1624.61 252.375 1502.74 195.203C1494.79 191.475 1487.85 186.203 1481.68 180.107C1341.31 41.3051 1048.3 240.153 912.621 221.258C866.231 214.792 817.806 213.163 785.507 187.138C681.084 102.985 459.966 153.169 331.29 192.496C301.128 201.718 278.925 220.443 264.34 248.879C233.955 307.748 110.49 320.108 43.776 343.265C-50.5342 375.987 -34.2341 543.359 -90.7372 630.496" stroke="#21F225" stroke-miterlimit="10"/>
<path d="M1975.18 -292.125C1923.38 -191.346 1876.16 -79.962 1815.01 5.16261C1755.14 88.4647 1629.79 222.272 1498.61 166.011C1490.41 162.492 1483.16 157.55 1476.62 151.831C1329.64 23.2409 1032.28 224.22 901.645 195.928C856.938 186.245 808.152 185.142 773.71 161.843C665.107 88.3312 442.701 147.737 313.782 178.419C282.249 185.913 259.858 203.975 245.005 232.603C213.858 292.298 98.8275 312.985 28.3264 332.738C-67.0784 359.468 -50.2925 533.082 -104.321 621.506" stroke="#21F225" stroke-miterlimit="10"/>
<path d="M1947.11 -334.07C1893.96 -234.62 1855.3 -119.653 1802.52 -30.6822C1750.08 57.7016 1635.07 192.047 1494.47 136.841C1486.06 133.548 1478.48 128.913 1471.56 123.576C1318.12 5.15281 1016.26 208.308 890.668 170.599C847.64 157.679 798.594 157.105 761.915 136.569C649.515 73.5915 425.234 142.003 296.253 164.367C263.289 170.081 240.769 187.532 225.675 216.37C193.746 276.914 87.2683 306.035 12.9068 322.249C-83.4221 343.254 -66.321 522.844 -117.85 612.55" stroke="#21F225" stroke-miterlimit="10"/>
<path d="M1919.04 -376.036C1864.56 -277.921 1834.57 -159.305 1790.05 -66.5535C1745.18 26.9528 1640.47 161.611 1490.35 107.644C1481.73 104.536 1473.83 100.23 1466.55 95.2913C1306.8 -13.0565 1000.31 192.341 879.74 145.26C838.396 129.123 789.203 129.016 750.166 111.264C634.304 58.5744 407.725 135.873 278.793 150.281C244.385 154.132 221.771 171.03 206.392 200.106C173.704 261.496 75.8148 299.254 -2.48725 311.753C-99.674 327.275 -82.3241 512.599 -131.354 603.588" stroke="#21F225" stroke-miterlimit="10"/>
<path d="M1890.97 -418.001C1835.14 -321.195 1813.94 -198.91 1777.58 -102.423C1740.38 -3.74918 1645.94 131.017 1486.21 78.4535C1477.37 75.551 1469.15 71.5528 1461.48 67.0166C1295.57 -31.3625 984.285 176.368 868.76 119.911C829.096 100.536 779.819 100.823 738.368 85.9697C619.329 43.3294 390.115 129.446 261.285 136.205C225.414 138.09 202.703 154.562 187.084 183.848C153.634 246.063 64.3397 292.648 -17.9099 301.243C-115.92 311.487 -98.3556 502.34 -144.908 594.636" stroke="#21F225" stroke-miterlimit="10"/>
<path d="M1862.91 -459.946C1805.74 -364.474 1793.45 -238.496 1765.11 -138.273C1735.74 -34.4155 1651.48 100.263 1482.1 49.2988C1473.05 46.5812 1464.53 42.9074 1456.48 38.7736C1284.49 -49.7394 968.339 160.423 857.839 94.6139C819.854 72.0019 770.578 72.5842 726.629 60.7275C604.607 27.8082 372.633 122.744 243.836 122.18C206.514 122.015 183.718 138.143 167.807 167.626C133.575 230.691 52.9031 286.266 -33.301 290.769C-132.2 295.936 -114.356 492.117 -158.409 585.696" stroke="#21F225" stroke-miterlimit="10"/>
<path d="M1834.84 -501.911C1776.32 -407.769 1773.07 -278.122 1752.64 -174.142C1731.19 -65.1179 1657.05 69.3366 1477.96 20.1083C1468.71 17.5714 1459.87 14.2261 1451.42 10.4989C1273.44 -68.2876 952.361 144.441 846.858 69.2646C810.578 43.4111 761.33 44.1574 714.828 35.4127C589.896 11.9067 355.2 115.739 226.321 108.063C187.581 105.757 164.643 121.634 148.492 151.327C113.497 215.217 41.334 279.992 -48.7274 280.239C-148.56 280.504 -130.391 481.838 -171.945 576.699" stroke="#21F225" stroke-miterlimit="10"/>
<path d="M1806.77 -543.856C1746.92 -451.048 1752.81 -317.749 1740.15 -209.988C1726.76 -95.842 1662.62 38.2825 1473.83 -9.0628C1464.35 -11.4353 1455.22 -14.4357 1446.38 -17.7604C1262.5 -86.9395 936.385 128.479 835.908 43.9512C801.308 14.8603 752.094 15.6638 703.06 10.1541C575.219 -4.23373 337.968 108.592 208.843 94.0225C168.748 89.5007 145.629 105.198 129.189 135.109C93.4125 199.849 29.705 273.959 -64.1197 269.765C-165.012 265.277 -146.392 471.615 -185.472 567.762" stroke="#21F225" stroke-miterlimit="10"/>
<path d="M1778.7 -585.821C1717.5 -494.343 1732.6 -357.466 1727.68 -245.857C1722.42 -126.643 1668.23 7.03252 1469.71 -38.2575C1460.04 -40.4698 1450.58 -43.1416 1441.34 -46.0392C1251.55 -105.738 920.679 112.325 824.952 18.5979C792.143 -13.8126 742.808 -12.9884 691.286 -15.1444C560.421 -20.6475 320.9 101.23 191.359 79.9421C149.948 73.1353 126.586 88.7268 109.902 118.826C73.3633 184.392 18.0144 268.001 -79.5179 259.251C-181.557 250.088 -162.403 461.331 -198.976 558.802" stroke="#21F225" stroke-miterlimit="10"/>
<path d="M1750.64 -627.766C1688.11 -537.622 1712.45 -397.196 1715.21 -281.707C1718.16 -157.458 1673.87 -24.3291 1465.57 -67.4284C1455.68 -69.4763 1445.93 -71.8237 1436.29 -74.2943C1240.59 -124.66 904.708 96.384 813.979 -6.7113C782.853 -42.3387 733.462 -41.6947 679.492 -40.4192C545.414 -37.2587 304.049 93.8087 173.854 65.8852C131.194 56.74 107.521 72.2788 90.5977 102.587C53.3005 168.999 6.17438 262.193 -94.9369 248.761C-198.279 235.033 -178.431 451.092 -212.505 549.846" stroke="#21F225" stroke-miterlimit="10"/>
<path d="M1722.57 -669.73C1658.69 -580.895 1692.37 -437.018 1702.74 -317.575C1713.96 -188.344 1679.49 -55.8321 1461.46 -96.6221C1451.36 -98.5097 1441.29 -100.549 1431.27 -102.597C1229.65 -143.732 888.779 80.3954 803.044 -32.0882C773.622 -70.9572 724.068 -70.5383 667.739 -65.7413C530.25 -54.052 287.423 86.2455 156.367 51.7852C112.522 40.2482 88.4985 55.7835 71.2862 86.3098C33.2029 153.551 -5.7805 256.45 -110.363 238.231C-215.126 219.981 -194.466 440.814 -226.065 540.854" stroke="#21F225" stroke-miterlimit="10"/>
<path d="M1694.5 -711.697C1629.29 -624.196 1672.3 -476.869 1690.27 -353.447C1709.79 -219.304 1685.1 -87.4867 1457.32 -125.815C1447 -127.559 1436.63 -129.254 1426.21 -130.874C1218.6 -162.894 872.805 64.4315 792.064 -57.4403C764.322 -99.5467 714.569 -99.4104 655.941 -91.0387C514.825 -70.9105 270.947 78.6738 138.858 37.7058C93.9031 23.7645 69.4303 39.313 51.9745 70.0283C13.1328 138.115 -17.8468 250.784 -125.785 227.719C-232.088 204.986 -210.497 430.552 -239.598 531.874" stroke="#21F225" stroke-miterlimit="10"/>
<path d="M1666.43 -753.64C1599.87 -667.469 1652.26 -516.76 1677.78 -389.29C1705.62 -250.281 1690.68 -119.215 1453.18 -154.984C1442.66 -156.568 1431.97 -157.954 1421.17 -159.132C1207.5 -182.13 856.833 48.4922 781.115 -82.7516C755.08 -128.079 704.993 -128.286 644.171 -116.316C499.195 -87.7931 254.697 71.1098 121.378 23.6467C75.3569 7.27243 50.4143 22.8587 32.6698 53.7918C-6.9581 122.708 -30.0211 245.225 -141.18 217.226C-249.144 190.033 -226.501 420.31 -253.102 522.915" stroke="#21F225" stroke-miterlimit="10"/>
<path d="M1638.37 -795.606C1570.47 -710.769 1632.22 -556.72 1665.31 -425.16C1701.52 -281.333 1696.26 -151.093 1449.07 -184.18C1438.32 -185.62 1427.34 -186.682 1416.13 -187.411C1196.32 -201.458 840.886 32.5466 770.158 -108.106C745.803 -156.671 695.358 -157.218 632.396 -141.615C483.359 -104.706 238.616 63.5149 103.889 9.54475C56.8724 -9.29545 31.366 6.36562 13.3814 37.5082C-27.0048 107.27 -42.2971 239.661 -156.583 206.691C-266.309 175.032 -242.512 410.026 -266.636 513.938" stroke="#21F225" stroke-miterlimit="10"/>
<path d="M1610.3 -837.55C1541.05 -754.043 1612.19 -596.699 1652.85 -461.009C1697.38 -312.401 1701.82 -183.052 1444.93 -213.35C1433.96 -214.646 1422.67 -215.404 1411.08 -215.665C1185.03 -220.809 824.915 16.6063 759.209 -133.418C736.562 -185.204 685.657 -186.094 620.63 -166.872C467.332 -121.564 222.7 55.9987 86.4123 -4.49465C38.427 -25.7844 12.3535 -10.0691 -5.92333 21.2707C-47.0958 91.8624 -54.6595 234.175 -171.999 196.222C-283.61 160.119 -258.537 399.808 -280.162 505.003" stroke="#21F225" stroke-miterlimit="10"/>
<path d="M1582.23 -879.516C1434.23 -707.197 1950.4 -190.132 1440.81 -242.546C1212.02 -266.07 812.113 8.83296 748.281 -158.756C678.015 -343.235 265.567 76.9575 68.9527 -18.5807C-90.6638 -96.1253 -13.918 247.652 -187.372 185.702C-300.944 145.147 -274.52 389.54 -293.645 496.017" stroke="#21F225" stroke-miterlimit="10"/>
</g>
</g>
</svg>
