<svg width="1920" height="763" viewBox="0 0 1920 763" fill="none" xmlns="http://www.w3.org/2000/svg">
<mask id="mask0_59_84" style="mask-type:alpha" maskUnits="userSpaceOnUse" x="0" y="0" width="1920" height="763">
<rect width="1920" height="763" fill="#D9D9D9"/>
</mask>
<g mask="url(#mask0_59_84)">
<path d="M-515.502 -892.382C-404.723 -967.523 -247.451 -979.27 -97.9884 -948.202C51.4746 -917.135 348.834 -900.295 329.957 -767.882C280.821 -423.233 970.332 -523.123 940.699 -305.75C909.579 -77.4671 1214.79 116.365 1393.99 15.0572C1452.89 -18.2489 1589.97 133.405 1662.25 126.382C1785.58 114.402 1860.05 -10.6662 1978.44 -36.7264" stroke="#21F225" stroke-miterlimit="10"/>
<path d="M-515.636 -834.15C-404.481 -907.088 -253.422 -927.339 -108.942 -906.446C24.0876 -887.201 278.846 -878.711 313.937 -768.455C316.913 -759.139 317.837 -749.111 316.861 -738.428C293.724 -485.992 672.481 -475.784 842.1 -391.826C899.929 -363.148 939.913 -328.183 935.879 -274.484C921.949 -90.0021 1134.16 64.7087 1304.24 66.8628C1338.53 67.2802 1371.93 59.7702 1402.06 42.9589C1462.22 9.41962 1597.68 148.272 1670.36 146.144C1792.13 142.568 1868.85 9.31972 1985.73 -19.6491" stroke="#21F225" stroke-miterlimit="10"/>
<path d="M-515.354 -776.512C-403.863 -847.147 -258.93 -875.886 -119.632 -865.063C9.25244 -855.052 256.381 -854.691 299.562 -739.044C303.008 -729.793 304.342 -719.836 303.93 -709.285C294.355 -461.663 677.699 -450.822 836.545 -361.402C890.709 -330.834 931.69 -295.724 931.142 -243.597C929.228 -65.3266 1146.11 78.0967 1312.08 90.9638C1346.2 93.6192 1379.67 87.2474 1410.14 70.4307C1471.51 36.6681 1605.13 162.692 1678.39 165.541C1798.26 170.197 1877.47 29.1014 1992.74 -2.72503" stroke="#21F225" stroke-miterlimit="10"/>
<path d="M-514.373 -719.903C-402.67 -788.125 -263.831 -825.246 -129.927 -824.394C-5.13459 -823.608 233.834 -831.268 285.381 -710.224C289.299 -701.045 291.064 -691.133 291.23 -680.742C295.233 -438.273 683.076 -426.45 831.092 -331.643C881.551 -299.183 923.512 -264.052 926.518 -213.435C936.643 -41.7494 1158.56 90.9715 1319.97 114.27C1354 119.191 1387.43 113.962 1418.24 97.1861C1480.76 63.2902 1612.29 176.331 1686.31 184.287C1803.92 196.924 1885.78 48.471 1999.38 13.8855" stroke="#21F225" stroke-miterlimit="10"/>
<path d="M-513.405 -663.276C-401.446 -729.1 -268.633 -774.737 -140.207 -783.728C-19.3926 -792.204 210.996 -807.905 271.242 -681.385C275.57 -672.28 277.799 -662.419 278.541 -652.187C295.97 -414.867 688.395 -402.033 825.656 -301.83C872.456 -267.503 915.344 -232.372 921.896 -183.19C943.836 -18.2686 1171.32 104.443 1327.83 137.712C1361.86 144.939 1395.14 140.781 1426.27 124.063C1489.99 90.0173 1619.19 189.98 1694.2 203.159C1809.29 223.382 1894.09 67.9274 2006.04 30.5862" stroke="#21F225" stroke-miterlimit="10"/>
<path d="M-512.44 -606.651C-400.227 -670.135 -273.306 -724.357 -150.468 -743.079C-33.5585 -760.901 187.958 -784.596 257.097 -652.569C261.834 -643.536 264.535 -633.746 265.866 -623.634C296.51 -391.532 693.702 -377.6 820.236 -272.038C863.351 -235.847 907.137 -200.861 917.295 -152.982C950.798 4.99784 1184.28 118.47 1335.66 161.186C1369.78 170.805 1402.85 167.63 1434.33 150.944C1499.2 116.75 1625.9 203.482 1702.1 222.067C1814.49 249.471 1902.43 87.3871 2012.73 47.2478" stroke="#21F225" stroke-miterlimit="10"/>
<path d="M-511.469 -550.048C-398.97 -611.179 -277.944 -674.176 -160.699 -702.464C-47.6368 -729.753 164.727 -761.283 242.984 -623.78C248.094 -614.809 251.264 -605.088 253.193 -595.117C296.887 -368.26 699.177 -353.332 814.8 -242.256C854.33 -204.272 898.854 -169.429 912.673 -122.779C957.344 28.0538 1197.34 133.067 1343.44 184.675C1377.69 196.769 1410.5 194.466 1442.33 177.808C1508.4 143.452 1632.43 216.788 1709.94 240.948C1819.51 275.114 1910.73 106.79 2019.37 63.8673" stroke="#21F225" stroke-miterlimit="10"/>
<path d="M-510.513 -493.43C-397.743 -552.239 -282.547 -624.14 -170.924 -661.846C-61.6777 -698.734 141.269 -737.905 228.905 -594.968C234.375 -586.036 238.06 -576.414 240.575 -566.559C297.098 -344.986 704.527 -328.803 809.421 -212.451C845.319 -172.632 890.506 -138.046 908.095 -92.5266C963.53 51.0466 1210.48 148.337 1351.24 208.248C1385.66 222.912 1418.2 221.387 1450.37 204.776C1517.6 170.26 1638.94 229.986 1717.81 259.963C1824.54 300.528 1919.08 126.3 2026.1 80.6008" stroke="#21F225" stroke-miterlimit="10"/>
<path d="M-509.55 -436.833C-396.471 -493.325 -287.178 -574.3 -181.097 -621.245C-75.7196 -667.882 117.667 -714.492 214.855 -566.18C220.67 -557.321 224.858 -547.773 227.982 -538.021C297.134 -321.742 709.874 -304.267 804.051 -182.643C836.314 -140.974 882.07 -106.717 903.532 -62.2881C969.27 73.9037 1223.57 164.1 1359.05 231.853C1393.67 249.171 1425.92 248.328 1458.41 231.726C1526.85 197.038 1645.45 243 1725.66 278.956C1829.57 325.532 1927.42 145.766 2032.79 97.2711" stroke="#21F225" stroke-miterlimit="10"/>
<path d="M-508.601 -380.217C-395.231 -434.419 -291.898 -524.604 -191.293 -580.645C-89.8829 -637.152 93.8509 -690.97 200.785 -537.388C206.924 -528.557 211.624 -519.104 215.341 -509.487C296.88 -298.489 715.112 -279.704 798.635 -152.858C827.279 -109.37 873.456 -75.4606 898.909 -32.0486C974.452 96.7988 1236.42 180.319 1366.75 255.474C1401.54 275.525 1433.5 275.284 1466.37 258.693C1535.99 223.815 1651.93 255.823 1733.46 297.964C1834.65 350.26 1935.74 165.226 2039.47 113.932" stroke="#21F225" stroke-miterlimit="10"/>
<path d="M-507.655 -323.605C-393.949 -375.54 -296.679 -475.04 -201.473 -540.055C-104.103 -606.539 69.8951 -667.359 186.76 -508.586C193.232 -499.805 198.432 -490.425 202.766 -480.928C296.471 -275.166 720.408 -255.061 793.269 -123.026C818.291 -77.7022 864.783 -44.1142 894.344 -1.77935C979.247 119.782 1249.13 196.939 1374.48 279.15C1409.39 302.036 1441.15 302.276 1474.35 285.691C1545.14 250.64 1658.53 268.538 1741.26 317.032C1839.85 374.816 1944.07 184.726 2046.19 130.62" stroke="#21F225" stroke-miterlimit="10"/>
<path d="M-506.703 -267.017C-392.689 -316.688 -301.56 -425.594 -211.631 -499.493C-118.434 -576.066 45.7959 -643.654 172.743 -479.842C179.538 -471.088 185.222 -461.814 190.172 -452.436C295.848 -251.857 725.637 -230.481 787.888 -93.2815C809.293 -46.1285 855.957 -12.826 889.76 28.4049C983.61 142.88 1261.53 213.775 1382.18 302.763C1417.14 328.551 1448.74 329.185 1482.32 312.649C1554.32 277.414 1665.21 281.053 1749.05 336.067C1845.23 399.182 1952.39 204.177 2052.88 147.263" stroke="#21F225" stroke-miterlimit="10"/>
<path d="M-505.765 -210.41C-391.411 -257.817 -306.569 -376.204 -221.787 -458.918C-132.863 -545.623 21.5952 -619.809 158.748 -451.044C165.84 -442.33 172.033 -433.148 177.622 -423.875C295.086 -228.373 730.866 -205.828 782.536 -63.4455C800.303 -14.4813 847.031 18.6394 885.193 58.7047C987.708 166.355 1273.65 230.9 1389.86 326.533C1424.79 355.279 1456.36 356.256 1490.26 339.721C1563.43 304.307 1672.08 293.591 1756.82 355.2C1850.76 423.501 1960.7 223.71 2059.58 163.986" stroke="#21F225" stroke-miterlimit="10"/>
<path d="M-504.82 -153.827C-390.145 -198.991 -311.687 -326.907 -231.895 -418.354C-147.405 -515.241 -2.66216 -595.85 144.779 -422.267C152.183 -413.557 158.868 -404.5 165.071 -395.345C294.148 -204.84 736.098 -181.18 777.186 -33.6616C791.346 17.122 838.063 50.1555 880.635 88.9331C991.611 190.054 1285.48 248.057 1397.55 350.228C1432.35 381.951 1463.95 383.233 1498.23 366.722C1572.61 331.117 1679.13 305.977 1764.59 374.276C1856.5 447.7 1969.03 243.172 2066.3 180.648" stroke="#21F225" stroke-miterlimit="10"/>
<path d="M-503.889 -97.2261C-388.863 -140.145 -316.888 -277.561 -242.028 -377.788C-162.067 -484.845 -27.0592 -571.741 130.788 -393.481C138.478 -384.789 145.669 -375.823 152.52 -366.792C293.107 -181.146 740.949 -156.523 771.821 -3.83362C782.222 48.7651 829.053 81.8531 876.06 119.208C995.444 214.114 1296.99 265.336 1405.2 373.986C1439.79 408.72 1471.53 410.278 1506.14 393.786C1581.7 357.996 1686.28 318.365 1772.33 393.412C1862.35 471.936 1977.32 262.703 2072.99 197.321" stroke="#21F225" stroke-miterlimit="10"/>
<path d="M-502.954 -40.6482C-387.597 -81.3428 -322.16 -228.261 -252.142 -337.247C-176.793 -454.484 -51.5309 -547.552 116.846 -364.703C124.846 -356.015 132.519 -347.151 140.016 -338.245C292.001 -157.3 746.179 -131.869 766.508 25.9679C773.319 80.3566 820.075 113.64 871.525 149.479C999.338 238.522 1308.25 282.552 1412.87 397.755C1447.16 435.499 1479.14 437.328 1514.08 420.832C1590.83 384.833 1693.65 330.742 1780.09 412.557C1868.44 496.176 1985.65 282.21 2079.72 214.01" stroke="#21F225" stroke-miterlimit="10"/>
<path d="M-502.03 15.9463C-386.303 -22.5407 -327.538 -178.924 -262.254 -296.689C-191.609 -424.097 -76.0446 -523.216 102.883 -335.917C111.17 -327.245 119.338 -318.449 127.455 -309.679C290.772 -133.312 751.335 -107.188 761.123 55.8081C764.313 111.992 811.067 145.586 866.926 179.77C1003.26 263.224 1319.19 299.773 1420.5 421.569C1454.38 462.323 1486.68 464.405 1522 447.93C1599.96 411.754 1701.16 343.163 1787.84 431.757C1874.66 520.506 1993.97 301.761 2086.45 230.754" stroke="#21F225" stroke-miterlimit="10"/>
<path d="M-501.112 72.5409C-385.045 36.2627 -332.947 -129.582 -272.358 -256.131C-206.495 -393.665 -100.629 -498.741 88.9579 -307.113C97.5449 -298.423 106.202 -289.75 114.964 -281.103C289.591 -109.143 756.546 -82.4876 755.802 85.6587C755.401 143.648 802.15 177.629 862.39 210.072C1007.37 288.182 1329.96 316.925 1428.14 445.393C1461.56 489.114 1494.27 491.501 1529.91 475.04C1609.06 438.65 1708.81 355.61 1795.58 450.953C1881.01 544.867 2002.3 321.298 2093.17 247.47" stroke="#21F225" stroke-miterlimit="10"/>
<path d="M-500.185 129.11C-383.75 95.0463 -338.392 -80.2192 -282.415 -215.586C-221.375 -363.21 -125.201 -474.168 75.0583 -278.33C83.9298 -269.656 93.0813 -261.05 102.472 -252.558C288.395 -84.8592 761.766 -57.7995 750.485 115.455C746.48 175.212 793.313 209.729 857.845 240.342C1011.66 313.322 1340.52 333.941 1435.77 469.196C1468.65 515.877 1501.81 518.558 1537.84 502.114C1618.2 465.544 1716.63 368.056 1803.3 470.127C1887.48 569.263 2010.61 340.803 2099.88 264.153" stroke="#21F225" stroke-miterlimit="10"/>
<path d="M-499.274 185.698C-382.493 153.831 -343.888 -30.8094 -292.501 -175.032C-236.349 -332.724 -149.845 -449.457 61.1347 -249.535C70.3063 -240.842 79.9359 -232.336 89.9792 -223.987C287.224 -60.4125 766.956 -33.1125 745.153 145.298C737.563 206.855 784.505 241.921 853.294 270.64C1016.11 338.644 1350.89 350.891 1443.37 493.058C1475.64 542.677 1509.35 545.681 1545.72 529.228C1627.27 492.441 1724.53 380.597 1811 489.356C1894.02 593.781 2018.91 360.357 2106.61 280.875" stroke="#21F225" stroke-miterlimit="10"/>
<path d="M-498.356 242.262C-381.201 212.597 -349.387 18.6146 -302.567 -134.503C-251.295 -302.202 -174.504 -424.66 47.2598 -220.746C56.731 -212.034 66.8287 -203.607 77.5338 -195.422C286.134 -35.8574 772.169 -8.40414 739.848 175.101C728.659 238.421 775.803 274.107 848.768 300.897C1020.77 364.06 1361.14 367.677 1450.99 516.867C1482.63 569.386 1516.9 572.735 1553.64 556.319C1636.4 519.347 1732.55 393.143 1818.75 508.546C1900.74 618.317 2027.26 379.862 2113.36 297.555" stroke="#21F225" stroke-miterlimit="10"/>
<path d="M-497.504 298.865C-251.092 241.228 -411.276 -589.198 33.3239 -191.94C232.948 -13.5852 779.494 6.61076 734.484 204.923C684.939 423.222 1334.1 317.972 1458.54 540.728C1559.57 721.552 1702.67 351.857 1826.42 527.769C1907.45 642.943 2035.53 399.389 2120.04 314.254" stroke="#21F225" stroke-miterlimit="10"/>
</g>
</svg>
