<svg width="1919" height="822" viewBox="0 0 1919 822" fill="none" xmlns="http://www.w3.org/2000/svg">
<mask id="mask0_2_3408" style="mask-type:alpha" maskUnits="userSpaceOnUse" x="0" y="0" width="1914" height="822">
<rect width="1913.98" height="822" fill="white"/>
</mask>
<g mask="url(#mask0_2_3408)">
<mask id="mask1_2_3408" style="mask-type:alpha" maskUnits="userSpaceOnUse" x="-143" y="-81" width="2184" height="1140">
<rect width="2076.52" height="804.082" transform="matrix(-0.98592 0.167215 -0.168257 -0.985743 2040.13 711.641)" fill="#C4C4C4"/>
</mask>
<g mask="url(#mask1_2_3408)">
<path d="M2194.51 383.573C2151.96 493.658 2045.7 583.027 1924.33 638.189C1802.95 693.351 1583.19 834.797 1532.69 731.723C1401.23 463.439 958.749 889.36 874.873 720.851C786.787 543.884 475.973 564.612 397.357 728.421C371.525 782.265 200.735 746.039 152.68 788.26C70.6928 860.293 78.0904 986.849 6.41417 1066.26" stroke="#21F225" stroke-miterlimit="10"/>
<path d="M2166.36 341.625C2122.47 450.377 2024.74 542.558 1911.82 602.337C1807.85 657.373 1622.44 782.769 1544.22 723.125C1537.6 718.091 1532.1 711.497 1527.64 703.462C1422.21 513.54 1147.71 701.671 986.448 729.949C931.442 739.551 886.101 735.518 863.041 695.575C783.871 558.315 558.129 558.67 436.043 644.861C411.432 662.255 391.29 684.773 377.964 712.165C351.343 766.839 187.883 738.794 137.188 777.773C52.2451 843.097 61.9873 976.613 -7.20641 1057.31" stroke="#21F225" stroke-miterlimit="10"/>
<path d="M2138.2 299.66C2092.95 407.082 2003.67 502.195 1899.29 566.472C1802.71 625.946 1626.63 753.28 1540.04 693.939C1533.12 689.188 1527.36 682.849 1522.56 675.187C1409.79 495.45 1131.68 685.711 975.432 704.599C922.114 710.985 875.988 707.359 851.204 670.28C766.473 543.452 542.83 554.182 418.479 630.786C392.906 646.529 372.16 668.306 358.593 695.907C331.212 751.427 175.239 731.452 121.715 767.264C34.1414 825.865 45.9038 966.355 -20.7831 1048.34" stroke="#21F225" stroke-miterlimit="10"/>
<path d="M2110.05 257.715C2063.47 363.802 1982.54 461.925 1886.78 530.622C1797.54 594.649 1631.09 723.744 1535.92 664.764C1528.69 660.296 1522.65 654.195 1517.51 646.928C1397.53 477.416 1115.66 669.77 964.474 679.282C912.866 682.426 866.017 679.281 839.426 645.018C749.284 528.764 527.155 549.695 400.972 616.742C374.369 630.868 353.089 651.871 339.256 679.686C311.111 736.03 162.849 724.109 106.301 756.786C16.4557 808.709 29.8784 956.128 -34.3016 1039.39" stroke="#21F225" stroke-miterlimit="10"/>
<path d="M2081.89 215.75C2033.95 320.507 1961.4 421.764 1874.27 494.752C1792.32 563.427 1635.8 694.061 1531.76 635.573C1524.28 631.36 1517.93 625.522 1512.46 618.649C1385.38 459.366 1099.66 653.805 953.483 653.929C903.564 653.856 856.041 651.184 827.612 619.699C732.3 514.105 510.978 545.062 383.429 602.641C355.698 615.166 334.006 635.375 319.905 663.383C290.974 720.577 150.646 716.693 90.8502 746.252C-0.896026 791.603 13.8172 945.845 -47.8804 1030.4" stroke="#21F225" stroke-miterlimit="10"/>
<path d="M2053.73 173.786C2004.46 277.229 1940.24 381.733 1861.76 458.883C1787.08 532.312 1640.7 664.284 1527.63 606.378C1519.89 602.42 1513.24 596.865 1507.4 590.37C1373.4 441.328 1083.67 637.861 942.497 628.596C894.287 625.281 846.182 623.172 815.805 594.421C715.585 499.548 494.392 540.245 365.891 588.561C336.927 599.461 314.903 618.904 300.537 647.125C270.842 705.145 138.657 709.346 75.38 735.743C-17.9392 774.677 -2.2639 935.586 -61.4511 1021.44" stroke="#21F225" stroke-miterlimit="10"/>
<path d="M2025.58 131.841C1974.95 233.954 1919.15 341.837 1849.26 423.033C1781.87 501.34 1645.75 634.375 1523.51 577.203C1515.53 573.475 1508.57 568.203 1502.38 562.107C1361.57 423.305 1067.64 622.153 931.534 603.258C884.998 596.792 836.422 595.163 804.021 569.138C699.27 484.985 477.459 535.169 348.379 574.497C318.123 583.718 295.851 602.444 281.22 630.879C250.739 689.748 126.887 702.109 59.9639 725.265C-34.6421 757.987 -18.2909 925.359 -74.9712 1012.5" stroke="#21F225" stroke-miterlimit="10"/>
<path d="M1997.42 89.8754C1945.46 190.655 1898.1 302.039 1836.75 387.163C1776.7 470.465 1650.95 604.273 1519.36 548.012C1511.14 544.493 1503.86 539.55 1497.3 533.831C1349.87 405.242 1051.57 606.221 920.523 577.929C875.676 568.246 826.737 567.142 792.187 543.843C683.243 470.332 460.14 529.738 330.817 560.42C299.185 567.914 276.724 585.976 261.824 614.604C230.579 674.299 115.188 694.986 44.4657 714.739C-51.2384 741.469 -34.3999 915.083 -88.5978 1003.51" stroke="#21F225" stroke-miterlimit="10"/>
<path d="M1969.27 47.9308C1915.95 147.38 1877.17 262.347 1824.22 351.318C1771.62 439.702 1656.25 574.048 1515.21 518.841C1506.77 515.548 1499.17 510.914 1492.22 505.577C1338.3 387.153 1035.5 590.309 909.511 552.599C866.349 539.679 817.148 539.105 780.355 518.569C667.603 455.592 442.617 524.003 313.232 546.368C280.165 552.081 257.574 569.532 242.433 598.37C210.404 658.915 103.592 688.035 28.9975 704.249C-67.6335 725.254 -50.4788 904.844 -102.17 994.55" stroke="#21F225" stroke-miterlimit="10"/>
<path d="M1941.11 5.9643C1886.46 104.079 1856.37 222.696 1811.71 315.447C1766.7 408.953 1661.66 543.612 1511.08 489.645C1502.43 486.537 1494.5 482.231 1487.2 477.292C1326.95 368.944 1019.5 574.342 898.55 527.261C857.076 511.123 807.729 511.017 768.569 493.265C652.344 440.575 425.054 517.874 295.718 532.281C261.202 536.132 238.517 553.03 223.09 582.106C190.299 643.497 92.1028 681.255 13.5552 693.754C-83.9364 709.276 -66.532 894.6 -115.716 985.589" stroke="#21F225" stroke-miterlimit="10"/>
<path d="M1912.95 -36.0001C1856.94 60.8056 1835.68 183.091 1799.2 279.578C1761.89 378.252 1667.15 513.018 1506.92 460.454C1498.06 457.552 1489.81 453.554 1482.12 449.017C1315.68 350.638 1003.42 558.369 887.534 501.912C847.746 482.537 798.315 482.824 756.734 467.97C637.321 425.33 407.388 511.447 278.155 518.205C242.171 520.091 219.388 536.563 203.721 565.849C170.166 628.064 80.5915 674.649 -1.91602 683.244C-100.233 693.488 -82.6141 884.341 -129.312 976.637" stroke="#21F225" stroke-miterlimit="10"/>
<path d="M1884.8 -77.9452C1827.46 17.5265 1815.12 143.505 1786.7 243.728C1757.23 347.585 1672.71 482.264 1502.8 431.3C1493.72 428.582 1485.17 424.908 1477.1 420.775C1304.57 332.262 987.426 542.424 876.579 476.615C838.476 454.003 789.045 454.585 744.958 442.728C622.554 409.809 389.852 504.745 260.651 504.181C223.211 504.016 200.344 520.144 184.383 549.627C150.044 612.692 69.1191 668.267 -17.3554 672.77C-116.564 677.937 -98.6643 874.118 -142.856 967.697" stroke="#21F225" stroke-miterlimit="10"/>
<path d="M1856.64 -119.91C1797.94 -25.7686 1794.68 103.879 1774.19 207.859C1752.67 316.883 1678.3 451.337 1498.65 402.109C1489.37 399.572 1480.5 396.227 1472.02 392.499C1293.49 313.713 971.398 526.442 865.564 451.265C829.17 425.412 779.768 426.158 733.12 417.413C607.796 393.907 372.364 497.739 243.08 490.064C204.219 487.757 181.209 503.635 165.007 533.327C129.903 597.218 57.5137 661.992 -32.8302 662.24C-132.976 662.505 -114.75 863.838 -156.434 958.699" stroke="#21F225" stroke-miterlimit="10"/>
<path d="M1828.49 -161.855C1768.45 -69.0475 1774.36 64.2516 1761.66 172.013C1748.23 286.159 1683.88 420.283 1494.5 372.938C1484.99 370.565 1475.83 367.565 1466.97 364.24C1282.51 295.061 955.372 510.48 854.58 425.952C819.871 396.861 770.503 397.665 721.315 392.155C593.073 377.767 355.078 490.593 225.548 476.023C185.328 471.501 162.136 487.199 145.645 517.109C109.756 581.85 45.8483 655.959 -48.2706 651.766C-149.48 647.278 -130.801 853.616 -170.003 949.763" stroke="#21F225" stroke-miterlimit="10"/>
<path d="M1800.33 -203.82C1738.94 -112.342 1754.08 24.5353 1749.15 136.144C1743.88 255.358 1689.51 389.034 1490.37 343.744C1480.67 341.531 1471.18 338.859 1461.91 335.962C1271.53 276.263 939.617 494.326 843.591 400.599C810.678 368.188 761.188 369.013 709.505 366.857C578.229 361.353 337.957 483.231 208.009 461.943C166.469 455.136 143.033 470.728 126.297 500.827C89.644 566.393 34.1215 650.002 -63.7167 641.252C-166.076 632.089 -146.862 843.332 -183.55 940.803" stroke="#21F225" stroke-miterlimit="10"/>
<path d="M1772.18 -245.765C1709.45 -155.621 1733.87 -15.1949 1736.64 100.294C1739.6 224.543 1695.17 357.672 1486.22 314.572C1476.29 312.524 1466.51 310.177 1456.84 307.706C1260.53 257.34 923.596 478.385 832.583 375.289C801.359 339.662 751.813 340.306 697.674 341.581C563.175 344.742 321.053 475.809 190.45 447.886C147.656 438.741 123.909 454.28 106.932 484.588C69.5181 551 22.2442 644.194 -79.1842 630.762C-182.85 617.034 -162.94 833.093 -197.121 931.846" stroke="#21F225" stroke-miterlimit="10"/>
<path d="M1744.02 -287.73C1679.94 -198.895 1713.73 -55.0178 1724.13 64.4253C1735.38 193.656 1700.8 326.168 1482.09 285.378C1471.97 283.49 1461.86 281.451 1451.81 279.403C1249.56 238.268 907.617 462.395 821.613 349.912C792.099 311.043 742.389 311.462 685.884 316.259C547.963 327.948 304.375 468.245 172.907 433.785C128.925 422.248 104.826 437.783 87.56 468.31C49.3572 535.551 10.2515 638.45 -94.6588 620.231C-199.751 601.981 -179.025 822.814 -210.724 922.854" stroke="#21F225" stroke-miterlimit="10"/>
<path d="M1715.87 -329.696C1650.45 -242.196 1693.6 -94.8676 1711.62 28.5541C1731.2 162.697 1706.44 294.514 1477.94 256.185C1467.59 254.442 1457.19 252.747 1446.73 251.127C1238.47 219.107 891.593 446.432 810.599 324.561C782.77 282.454 732.861 282.591 674.049 290.962C532.491 311.09 287.847 460.675 155.345 419.707C110.248 405.765 85.6988 421.314 68.1883 452.029C29.2248 520.116 -1.85202 632.785 -110.129 609.719C-216.765 586.987 -195.106 812.553 -224.298 913.875" stroke="#21F225" stroke-miterlimit="10"/>
<path d="M1687.71 -371.639C1620.93 -285.469 1673.49 -134.76 1699.09 -7.28949C1727.02 131.72 1712.03 262.786 1473.79 227.016C1463.24 225.433 1452.52 224.046 1441.68 222.869C1227.34 199.871 875.571 430.493 799.615 299.249C773.498 253.922 723.254 253.714 662.241 265.685C516.81 294.208 271.546 453.111 137.808 405.647C91.6432 389.273 66.6223 404.859 48.8222 435.793C9.07 504.709 -14.0653 627.226 -125.573 599.227C-233.876 572.033 -211.161 802.311 -237.846 904.916" stroke="#21F225" stroke-miterlimit="10"/>
<path d="M1659.55 -413.605C1591.44 -328.769 1653.39 -174.72 1686.58 -43.1603C1722.9 100.667 1717.63 230.907 1469.66 197.82C1458.88 196.381 1447.86 195.319 1436.63 194.589C1216.12 180.542 859.574 414.547 788.624 273.894C764.193 225.33 713.589 224.783 650.43 240.385C500.925 277.294 255.415 445.515 120.266 391.545C73.1013 372.705 47.5149 388.366 29.4739 419.508C-11.039 489.271 -26.3792 621.661 -141.023 588.691C-251.094 557.032 -227.223 792.026 -251.422 895.938" stroke="#21F225" stroke-miterlimit="10"/>
<path d="M1631.4 -455.549C1561.93 -372.043 1633.29 -214.699 1674.08 -79.0087C1718.76 69.5992 1723.21 198.948 1465.51 168.65C1454.5 167.355 1443.19 166.597 1431.55 166.335C1204.8 161.191 843.553 398.607 777.641 248.582C754.922 196.796 703.858 195.906 638.627 215.128C484.848 260.436 239.449 437.999 102.733 377.506C54.5977 356.216 28.4423 371.931 10.1082 403.271C-31.1934 473.863 -38.7808 616.175 -156.488 578.222C-268.449 542.119 -243.298 781.808 -264.99 887.003" stroke="#21F225" stroke-miterlimit="10"/>
<path d="M1603.24 -497.515C1454.78 -325.196 1972.57 191.868 1461.38 139.455C1231.87 115.931 830.711 390.833 766.678 223.244C696.192 38.7654 282.45 458.958 85.2192 363.42C-74.8978 285.875 2.08867 629.653 -171.91 567.703C-285.837 527.148 -259.331 771.54 -278.516 878.017" stroke="#21F225" stroke-miterlimit="10"/>
</g>
</g>
<rect width="1919" height="822" fill="url(#paint0_linear_2_3408)"/>
<defs>
<linearGradient id="paint0_linear_2_3408" x1="1872.95" y1="63.0028" x2="243.254" y2="1098.21" gradientUnits="userSpaceOnUse">
<stop stop-color="#1A1A1A" stop-opacity="0.44"/>
<stop offset="0.315625" stop-color="#1A1A1A" stop-opacity="0.9"/>
<stop offset="1" stop-color="#1A1A1A" stop-opacity="0"/>
</linearGradient>
</defs>
</svg>
