<svg width="237" height="664" viewBox="0 0 237 664" fill="none" xmlns="http://www.w3.org/2000/svg">
<mask id="mask0_2_2931" style="mask-type:alpha" maskUnits="userSpaceOnUse" x="0" y="0" width="237" height="664">
<rect width="237" height="664" fill="#D9D9D9"/>
</mask>
<g mask="url(#mask0_2_2931)">
<path d="M363.622 317.943C353.849 346.682 319.345 534.133 166.871 527.064C137.91 525.722 110.291 512.849 90.3302 495.679C70.3693 478.509 57.3904 457.206 48.3708 435.487C22.3646 372.891 28.6899 302.762 72.4649 249.823C83.0296 237.047 95.9988 225.091 113.198 217.781C127.722 211.61 144.477 209.061 160.961 206.589C224.388 197.067 287.815 187.555 351.251 178.033C408.44 169.448 467.241 160.371 514.666 135.417C568.562 107.064 602.487 60.5274 620.854 11.4701C631.428 -16.7765 635.977 -50.6628 610.975 -74.6217C588.909 -95.7607 549.325 -101.903 516.907 -95.2972C484.479 -88.7015 458.048 -71.6666 434.909 -53.3957C391.917 -19.4418 355.259 23.8986 357.229 72.9655C358.591 106.813 378.571 139.908 406.296 167.333C434.021 194.759 469.211 217.134 505.144 238.041C529.364 252.131 554.434 265.921 573.612 284.105C608.541 317.219 619.888 361.042 621.974 402.596C624.62 455.139 613.254 509.614 573.062 549.98C532.86 590.337 458.81 612.509 394.746 592.287C371.425 584.919 349.948 571.863 338.736 554.307C329.842 540.391 327.901 524.679 328.374 509.556C329.774 464.796 350.768 422.76 374.679 383.05C381.951 370.969 389.647 358.647 390.739 345.079C391.83 331.521 384.684 316.205 368.972 309.29" stroke="#21F225" stroke-width="0.8162" stroke-miterlimit="10" stroke-linecap="round" stroke-linejoin="round"/>
<path d="M362.22 317.129C348.768 344.265 313.656 527.245 165.653 524.985C137.281 524.55 110.164 513.59 90.667 497.337C71.2083 481.113 58.7122 460.612 49.905 439.868C24.5073 380.063 29.442 312.358 72.2029 262.615C81.8599 251.374 95.8721 241.264 113.989 234.571C116.625 233.586 119.319 232.698 122.071 231.867C135.34 227.927 149.7 225.552 163.683 223.012C170.926 221.679 178.101 220.279 185.189 218.85C223.16 211.057 258.659 201.95 292.13 194.495C309.252 190.68 326.084 187.32 343.061 183.689C355.277 181.072 367.706 178.368 380.376 175.142C394.001 171.685 408.13 167.716 422.065 163.332C439.843 157.779 457.254 151.299 474.318 143.738C483.077 139.856 491.759 135.694 500.238 131.223C507.828 127.225 515.138 123.014 522.168 118.707C525.925 116.38 529.595 114.014 533.1 111.725C535.64 110.064 538.054 108.442 540.391 106.781C559.116 93.4833 573.833 78.0804 584.736 61.0939C588.715 53.5132 592.606 45.691 596.16 37.782C599.694 29.9019 602.891 21.8963 605.769 13.8521C616.333 -15.6789 622.012 -50.7722 599.743 -75.3009C580.081 -96.9518 543.617 -103.48 514.395 -97.4926C484.941 -91.457 461.339 -75.0305 440.78 -56.9334C439.399 -55.7166 438.018 -54.4998 436.647 -53.2541C400.211 -20.1211 369.54 22.6109 372.022 70.519C373.712 104.502 392.891 137.78 419.235 165.572C435.864 183.206 455.217 198.899 475.728 213.471C487.693 221.969 500.025 230.119 512.299 237.951C520.981 243.456 529.72 248.873 538.122 254.397C551.526 263.185 564.157 272.243 574.847 282.644C587.585 295.043 597.048 308.582 604.61 323.425C615.918 345.588 621.51 370.783 623.615 395.166C626.956 433.871 622.63 473.619 604.378 508.298C598.314 519.818 590.685 530.769 581.308 540.948C555.697 568.731 514.539 588.856 471.296 593.491C450.717 595.741 429.674 594.563 409.433 589.059C395.131 585.138 381.399 579.064 370.284 570.971C363.659 566.152 357.981 560.619 353.674 554.439C344.548 541.353 342.124 526.395 341.941 511.948C341.709 485.836 348.411 460.457 358.589 435.745C365.04 419.965 372.911 404.447 381.283 389.198C387.802 377.272 394.803 365.056 395.469 351.623C396.145 338.123 388.922 322.884 373.616 315.709" stroke="#21F225" stroke-width="0.8162" stroke-miterlimit="10" stroke-linecap="round" stroke-linejoin="round"/>
<path d="M360.834 316.305C343.712 341.838 307.895 520.415 164.441 522.906C136.638 523.389 110.043 514.331 91.0091 498.996C72.0525 483.728 60.0393 464.008 51.4446 444.241C26.6649 387.216 30.0931 321.8 71.9559 275.379C80.7148 265.664 95.7796 257.456 114.785 251.324C117.537 250.435 120.357 249.595 123.225 248.823C137.16 245.056 152.089 242.468 166.411 239.417C173.885 237.823 181.224 236.075 188.38 234.25C226.921 224.4 260.421 211.672 289.971 202.382C305.21 197.593 319.927 193.739 334.886 189.317C345.595 186.149 356.614 182.817 368.221 178.713C380.679 174.3 394.228 169.162 407.718 163.735C424.937 156.879 441.933 149.095 459.248 140.559C468.055 136.223 476.988 131.684 485.843 127.01C493.694 122.867 501.391 118.657 508.846 114.485C512.815 112.264 516.716 110.014 520.367 108.015C523.032 106.556 525.485 105.224 527.851 103.853C546.769 92.8532 561.042 80.1833 570.728 65.6786C574.175 57.7502 577.893 49.5322 581.321 41.2369C584.73 32.9802 587.869 24.6076 590.747 16.1964C601.302 -14.6189 608.139 -50.8808 588.564 -76.0178C571.326 -98.1612 537.971 -105.105 511.946 -99.7256C485.457 -94.2501 464.752 -78.3644 446.713 -60.4991C445.496 -59.292 444.28 -58.0849 443.082 -56.8584C411.089 -24.0441 383.827 19.5087 386.879 68.0349C388.907 102.153 407.351 135.547 432.247 163.774C448.036 181.678 466.211 197.786 485.467 212.754C496.707 221.464 508.189 229.905 519.527 237.833C527.532 243.434 535.557 248.842 543.157 254.279C555.306 262.912 566.566 271.516 576.165 281.164C587.627 292.665 596.319 304.717 604.102 318.498C615.758 339.105 622.392 363.808 625.338 387.719C630.041 425.67 627.298 464.607 610.881 499.111C605.406 510.613 598.385 521.593 589.636 531.887C565.658 560.114 526.113 581.263 484.337 587.521C464.434 590.505 444.038 590.341 424.212 585.812C410.2 582.605 396.642 577.284 385.488 569.887C378.863 565.493 373.118 560.346 368.704 554.562C359.356 542.307 356.392 528.111 355.61 514.331C354.2 489.435 359.598 465.013 368.221 440.948C373.726 425.603 380.582 410.383 387.989 395.328C393.774 383.566 400.06 371.447 400.312 358.139C400.563 344.697 393.272 329.545 378.381 322.09" stroke="#21F225" stroke-width="0.8162" stroke-miterlimit="10" stroke-linecap="round" stroke-linejoin="round"/>
<path d="M359.435 315.481C338.644 339.411 302.044 513.652 163.235 520.817C135.973 522.227 109.938 515.071 91.3581 500.644C72.9133 486.322 61.3829 467.404 52.9814 448.602C28.8197 394.378 30.5676 331.029 71.6966 288.142C79.5766 279.924 95.6554 273.618 115.578 268.085C118.456 267.283 121.391 266.511 124.385 265.777C138.996 262.204 154.476 259.374 169.154 255.811C176.851 253.947 184.355 251.852 191.597 249.63C230.698 237.656 262.151 221.374 287.838 210.259C301.175 204.494 313.806 200.148 326.727 194.934C335.94 191.216 345.558 187.256 356.074 182.264C367.383 176.904 380.313 170.559 393.379 164.128C410.008 155.939 426.618 146.881 444.184 137.368C453.05 132.569 462.224 127.654 471.446 122.786C479.568 118.499 487.621 114.269 495.511 110.261C499.693 108.137 503.826 106.012 507.621 104.303C510.412 103.048 512.903 102.005 515.289 100.923C534.409 92.2222 548.219 82.2852 556.698 70.2623C559.624 61.9863 563.148 53.3627 566.451 44.7004C569.744 36.0767 572.805 27.3275 575.683 18.5494C586.229 -13.56 594.253 -50.9227 577.354 -76.7164C562.559 -99.304 532.285 -106.711 509.465 -101.94C485.941 -97.0347 468.114 -81.7187 452.615 -64.0465C451.572 -62.8587 450.51 -61.6613 449.476 -60.4445C421.954 -27.9006 398.188 16.4248 401.694 65.569C404.137 99.8126 421.742 133.37 445.218 161.994C460.147 180.197 477.163 196.701 495.154 212.046C505.661 220.978 516.322 229.679 526.703 237.723C534.042 243.411 541.333 248.839 548.132 254.169C558.996 262.687 568.923 270.799 577.421 279.683C587.6 290.286 595.519 300.851 603.534 313.569C615.528 332.613 623.205 356.842 627 380.27C633.065 417.459 631.916 455.613 617.334 489.934C612.457 501.416 606.025 512.425 597.904 522.835C575.548 551.526 537.625 573.737 497.307 581.559C478.08 585.287 458.332 586.108 438.921 582.573C425.209 580.072 411.814 575.514 400.622 568.812C393.997 564.843 388.193 560.092 383.655 554.684C374.075 543.26 370.598 529.817 369.189 516.722C366.639 493.044 370.666 469.568 377.764 446.159C382.293 431.229 388.155 416.319 394.606 401.467C399.647 389.859 405.228 377.846 405.054 364.664C404.871 351.28 397.522 336.205 383.037 328.489" stroke="#21F225" stroke-width="0.8162" stroke-miterlimit="10" stroke-linecap="round" stroke-linejoin="round"/>
<path d="M358.033 314.658C333.572 336.975 296.103 506.995 162.017 518.738C135.277 521.085 109.831 515.832 91.6852 502.302C73.7522 488.937 62.695 470.811 54.5059 452.984C30.9623 401.532 30.8174 339.94 71.4442 300.916C78.4648 294.176 95.548 289.782 116.378 284.857C119.372 284.152 122.433 283.427 125.542 282.742C140.839 279.372 156.87 276.281 171.886 272.216C179.814 270.072 187.482 267.638 194.792 265.031C234.454 250.922 263.782 231.116 285.684 218.146C297.069 211.406 307.682 206.577 318.556 200.561C326.281 196.283 334.5 191.696 343.925 185.834C354.093 179.509 366.406 171.996 379.037 164.531C395.087 155.038 411.301 144.686 429.109 134.189C438.022 128.936 447.447 123.644 457.046 118.574C465.438 114.141 473.859 109.892 482.183 106.039C486.577 104.001 490.942 102.002 494.882 100.592C497.799 99.5495 500.329 98.7866 502.733 97.9947C522.076 91.5922 535.403 84.3881 542.674 74.8374C545.079 66.2234 548.411 57.1845 551.597 48.1456C554.765 39.1453 557.759 30.0291 560.636 20.884C571.172 -12.5098 580.404 -50.9154 566.16 -77.4431C553.828 -100.417 526.615 -108.345 507.002 -104.174C486.442 -99.8279 471.503 -85.101 458.524 -67.622C457.645 -66.4438 456.757 -65.2657 455.887 -64.0489C432.827 -31.7657 412.479 13.3226 416.535 63.0849C419.336 97.4636 436.149 131.176 458.205 160.195C472.275 178.698 488.132 195.597 504.867 211.329C514.64 220.474 524.471 229.445 533.906 237.605C540.569 243.37 547.136 248.817 553.133 254.051C562.732 262.424 571.298 270.082 578.704 278.193C587.599 287.889 594.745 296.957 602.992 308.632C615.324 326.092 624.054 349.867 628.689 372.803C636.115 409.238 636.55 446.611 623.812 480.738C619.534 492.201 613.692 503.239 606.207 513.775C585.474 542.939 549.174 566.202 510.314 575.589C491.753 580.07 472.671 581.866 453.666 579.326C440.262 577.53 427.032 573.735 415.792 567.728C409.167 564.184 403.305 559.829 398.651 554.807C388.858 544.223 384.861 531.534 382.823 519.105C379.144 496.653 381.79 474.104 387.371 451.362C390.935 436.847 395.792 422.236 401.277 407.606C405.575 396.153 410.451 384.246 409.853 371.19C409.244 357.863 401.818 342.866 387.748 334.88" stroke="#21F225" stroke-width="0.8162" stroke-miterlimit="10" stroke-linecap="round" stroke-linejoin="round"/>
<path d="M356.632 313.841C328.492 334.555 290.086 500.452 160.799 516.657C134.561 519.95 109.733 516.589 92.0219 503.958C74.62 491.549 64.0167 474.214 56.0401 457.353C33.1145 408.702 30.7678 348.355 71.1918 313.687C77.3916 308.375 95.4308 305.952 117.169 301.616C120.278 300.998 123.465 300.341 126.69 299.694C142.663 296.526 159.244 293.175 174.608 288.617C182.768 286.203 190.6 283.412 197.978 280.428C238.199 264.176 265.306 240.922 283.519 226.04C292.915 218.363 301.568 212.994 310.375 206.186C316.633 201.347 323.441 196.113 331.756 189.392C340.795 182.092 352.479 173.429 364.676 164.921C380.156 154.125 395.965 142.479 414.023 130.997C422.994 125.289 432.661 119.621 442.637 114.348C451.299 109.771 460.087 105.512 468.846 101.813C473.442 99.8722 478.049 97.9988 482.124 96.8786C485.176 96.0384 487.735 95.5652 490.159 95.0631C509.733 90.9492 522.577 86.4877 528.632 79.4188C530.515 70.4571 533.663 61.0223 536.715 51.6068C539.757 42.2299 542.692 32.7468 545.56 23.2443C556.087 -11.4434 566.526 -50.8148 554.937 -78.144C545.049 -101.456 520.926 -109.954 504.509 -106.391C486.914 -102.615 474.862 -88.4673 464.413 -71.1717C463.708 -70.0032 462.974 -68.8444 462.269 -67.6372C443.66 -35.6148 426.732 10.2364 431.338 60.6167C434.486 95.1307 450.517 129.017 471.163 158.413C484.374 177.224 499.072 194.51 514.542 210.618C523.581 219.976 532.582 229.217 541.07 237.493C547.067 243.346 552.9 248.802 558.095 253.939C566.429 262.167 573.633 269.361 579.949 276.71C587.559 285.508 593.932 293.069 602.411 303.701C615.081 319.578 624.854 342.889 630.339 365.351C639.117 401.034 641.155 437.634 630.242 471.559C626.553 483.012 621.31 494.079 614.453 504.721C595.342 534.367 560.664 558.674 523.272 569.625C505.388 574.859 486.962 577.631 468.363 576.085C455.258 574.994 442.212 571.962 430.923 566.651C424.308 563.531 418.378 559.572 413.598 554.927C403.584 545.183 399.065 533.247 396.399 521.485C391.59 500.259 392.845 478.627 396.911 456.561C399.509 442.462 403.352 428.16 407.891 413.733C411.445 402.434 415.607 390.633 414.603 377.703C413.56 364.424 406.075 349.524 392.411 341.267" stroke="#21F225" stroke-width="0.8162" stroke-miterlimit="10" stroke-linecap="round" stroke-linejoin="round"/>
<path d="M355.238 313.022C323.428 332.133 283.989 494.041 159.598 514.582C133.834 518.84 109.662 517.363 92.3763 505.62C75.5056 494.157 65.3561 477.624 57.5919 461.739C35.2651 415.859 38.027 364.319 70.9378 326.464C77.1376 323.838 95.312 322.119 117.967 318.391C121.202 317.86 124.505 317.261 127.856 316.672C144.504 313.707 161.636 310.086 177.348 305.035C185.74 302.341 193.736 299.203 201.181 295.842C241.962 277.436 266.79 250.85 281.372 233.951C288.76 225.385 295.491 219.398 302.202 211.836C307.012 206.419 312.4 200.547 319.604 192.986C327.523 184.681 338.57 174.898 350.333 165.357C365.233 153.267 380.646 140.336 398.955 127.85C407.975 121.698 417.893 115.643 428.235 110.158C437.168 105.426 446.313 101.148 455.506 97.6138C460.316 95.7694 465.154 94.0311 469.374 93.1909C472.551 92.5632 475.149 92.3798 477.592 92.1577C497.418 90.3518 509.75 88.6136 514.597 84.0265C515.949 74.7172 518.914 64.8768 521.85 55.0846C524.766 45.3311 527.634 35.4714 530.512 25.6116C541.028 -10.3605 552.665 -50.6397 543.742 -78.838C536.277 -102.42 515.264 -111.536 502.043 -108.601C487.423 -105.356 478.268 -91.8459 470.33 -74.7241C469.799 -73.5749 469.219 -72.4161 468.688 -71.2283C454.531 -39.4376 441.021 7.14752 446.178 58.1459C449.683 92.795 464.922 126.845 484.159 156.627C496.51 175.748 510.049 193.411 524.264 209.905C532.579 219.485 540.739 228.977 548.281 237.379C553.602 243.308 558.71 248.784 563.104 253.825C570.163 261.907 575.996 268.648 581.24 275.224C587.546 283.143 593.147 289.169 601.867 298.768C614.856 313.051 625.701 335.918 632.026 357.888C642.166 392.807 645.806 428.654 636.719 462.357C633.629 473.8 628.984 484.906 622.755 495.644C605.266 525.793 572.201 551.133 536.277 563.629C519.059 569.626 501.3 573.363 483.096 572.813C470.301 572.427 457.428 570.157 446.081 565.532C439.476 562.837 433.479 559.284 428.583 555.006C418.366 546.102 413.315 534.929 410.022 523.823C404.093 503.843 403.958 483.11 406.497 461.729C408.12 448.045 410.969 434.043 414.551 419.828C417.362 408.674 420.809 396.979 419.39 384.184C417.922 370.963 410.37 356.14 397.121 347.613" stroke="#21F225" stroke-width="0.8162" stroke-miterlimit="10" stroke-linecap="round" stroke-linejoin="round"/>
<path d="M353.837 312.191C318.358 329.699 277.827 487.764 158.381 512.486C133.07 517.729 109.584 518.116 92.7133 507.261C76.3834 496.754 66.6781 481.014 59.1168 466.094C37.4176 423.024 39.5807 374.584 70.6761 339.23C76.1516 338.294 95.1855 338.274 118.758 335.155C122.109 334.711 125.537 334.18 129.004 333.629C146.338 330.867 164.011 326.985 180.08 321.442C188.694 318.468 196.854 314.982 204.386 311.244C245.728 290.675 268.267 260.922 279.228 241.84C284.607 232.473 289.425 225.742 294.041 217.466C297.402 211.44 301.361 204.931 307.455 196.558C314.244 187.23 324.664 176.346 335.991 165.762C350.322 152.378 365.329 138.153 383.89 124.672C392.967 118.076 403.126 111.635 413.845 105.947C423.049 101.071 432.561 96.7732 442.189 93.4029C447.201 91.6454 452.29 90.0423 456.645 89.4919C459.957 89.0766 462.594 89.1732 465.047 89.2408C485.133 89.7526 496.944 90.728 500.584 88.6227C501.415 78.9658 504.196 68.7198 506.996 58.5607C509.787 48.4402 512.588 38.2038 515.466 27.9771C525.972 -9.28907 538.768 -50.3987 532.549 -79.5337C527.469 -103.328 509.594 -113.13 499.58 -110.813C487.924 -108.118 481.666 -95.2359 476.249 -78.2687C475.882 -77.1291 475.466 -75.9896 475.1 -74.8115C465.385 -43.2332 455.303 4.07615 461.01 55.6925C464.853 90.4769 479.32 124.711 497.137 154.86C508.628 174.29 521.009 192.338 533.968 209.219C541.549 219.011 548.879 228.764 555.474 237.301C560.119 243.308 564.504 248.803 568.106 253.747C573.89 261.685 578.371 267.972 582.523 273.775C587.545 280.796 592.345 285.306 601.326 293.872C614.613 306.541 626.54 328.975 633.725 350.471C645.226 384.637 650.47 419.74 643.208 453.211C640.726 464.655 636.67 475.789 631.059 486.624C615.203 517.295 583.74 543.649 549.294 557.699C532.742 564.45 515.649 569.153 497.851 569.606C485.365 569.915 472.676 568.419 461.261 564.488C454.665 562.219 448.61 559.061 443.579 555.169C433.159 547.106 427.578 536.696 423.647 526.247C416.588 507.503 415.072 487.677 416.086 466.972C416.743 453.694 418.577 440.001 421.214 426.008C423.28 415.008 426.013 403.42 424.178 390.75C422.266 377.578 414.666 362.842 401.823 354.054" stroke="#21F225" stroke-width="0.8162" stroke-miterlimit="10" stroke-linecap="round" stroke-linejoin="round"/>
<path d="M352.442 311.367C313.292 327.272 271.613 481.658 157.168 510.397C132.292 516.645 109.54 518.885 93.0559 508.909C77.2861 499.359 68.0058 484.41 60.6569 470.465C39.5661 430.176 41.1402 384.837 70.4297 352.003C75.1809 352.757 95.0742 354.427 119.564 351.916C123.041 351.559 126.585 351.096 130.168 350.584C148.178 348.025 166.41 343.872 182.817 337.837C191.663 334.582 199.987 330.758 207.587 326.625C249.489 303.892 269.826 271.117 277.069 249.717C280.488 239.616 283.317 232.016 285.867 223.083C287.769 216.41 290.289 209.293 295.301 200.109C300.951 189.747 310.753 177.773 321.646 166.146C335.407 151.467 350.018 135.958 368.81 121.473C377.946 114.433 388.346 107.605 399.432 101.715C408.896 96.6929 418.775 92.3763 428.847 89.1605C434.072 87.4899 439.402 86.0317 443.893 85.7613C447.34 85.5585 450.015 85.9448 452.488 86.2924C472.844 89.1412 484.133 92.8108 486.557 93.1875C486.866 83.1829 489.454 72.5409 492.139 61.9955C494.804 51.4984 497.547 40.8951 500.415 30.3111C510.912 -8.23946 524.808 -50.1313 521.342 -80.261C518.589 -104.239 503.92 -114.746 497.103 -113.056C488.421 -110.902 485.051 -98.6864 482.154 -81.8544C481.961 -80.7342 481.7 -79.5946 481.507 -78.4262C476.244 -47.0411 469.571 0.963611 475.848 53.198C480.039 88.1079 493.713 122.525 510.13 153.051C520.753 172.799 531.955 191.254 543.678 208.482C550.506 218.506 557.024 228.501 562.673 237.163C566.642 243.237 570.293 248.751 573.103 253.609C577.603 261.392 580.732 267.225 583.803 272.276C587.53 278.398 591.528 281.382 600.78 288.924C614.348 299.991 627.375 321.99 635.409 343.003C648.273 376.406 655.139 410.785 649.673 444.015C647.79 455.458 644.333 466.622 639.35 477.563C625.135 508.755 595.256 536.132 562.287 551.728C546.401 559.241 529.985 564.91 512.583 566.359C500.405 567.373 487.9 566.629 476.417 563.404C469.841 561.559 463.719 558.797 458.562 555.282C447.958 548.059 441.826 538.411 437.259 528.629C429.089 511.131 426.163 492.193 425.67 472.174C425.352 459.302 426.192 445.908 427.872 432.137C429.195 421.282 431.213 409.8 428.963 397.266C426.617 384.142 418.959 369.492 406.52 360.434" stroke="#21F225" stroke-width="0.8162" stroke-miterlimit="10" stroke-linecap="round" stroke-linejoin="round"/>
<path d="M351.046 310.55C308.217 324.842 265.35 475.742 155.956 508.324C131.495 515.606 109.506 519.681 93.3984 510.574C78.1983 501.98 69.3333 487.813 62.1968 474.844C41.724 437.336 42.6994 395.097 70.1734 364.774C74.2004 367.227 94.9532 370.587 120.351 368.685C123.943 368.414 127.603 368.019 131.312 367.545C150.007 365.189 168.781 360.766 185.535 354.238C194.613 350.704 203.092 346.522 210.769 342.022C253.221 317.117 271.521 281.386 274.901 257.601C276.436 246.804 277.151 238.287 277.672 228.707C278.078 221.368 279.198 213.642 283.119 203.677C287.609 192.262 296.812 179.215 307.271 166.546C320.453 150.573 334.677 133.78 353.711 118.29C362.905 110.806 373.537 103.582 385.009 97.4984C394.743 92.3319 404.98 87.9959 415.496 84.9443C420.923 83.3702 426.505 81.8541 431.131 82.0569C434.704 82.2114 437.418 82.7425 439.909 83.3606C460.527 88.556 471.294 94.9103 472.511 97.7591C472.289 87.4068 474.703 76.3593 477.252 65.4469C479.792 54.5732 482.467 43.6029 485.345 32.6519C495.832 -7.18298 510.752 -49.8281 510.125 -80.9814C509.632 -105.104 498.247 -116.345 494.616 -115.283C488.918 -113.622 488.406 -102.13 488.049 -85.4139C488.03 -84.313 487.933 -83.1832 487.894 -82.0243C487.112 -50.8131 483.819 -2.1324 490.656 50.7201C495.185 85.7652 508.077 120.376 523.094 151.259C532.848 171.326 542.891 190.147 553.369 207.771C559.462 218.017 565.15 228.253 569.853 237.051C573.146 243.202 576.072 248.726 578.081 253.497C581.296 261.126 583.073 266.505 585.063 270.792C587.487 276.017 590.673 277.465 600.214 283.993C614.033 293.448 628.2 315.012 637.075 335.542C651.29 368.192 659.798 401.837 656.128 434.816C654.853 446.259 651.985 457.471 647.62 468.489C635.047 500.232 606.762 528.614 575.261 545.745C560.041 554.021 544.301 560.646 527.295 563.089C515.426 564.798 503.114 564.818 491.554 562.297C484.997 560.868 478.817 558.512 473.515 555.383C462.728 548.999 456.055 540.115 450.85 530.989C441.58 514.746 437.234 496.678 435.225 477.355C433.931 464.887 433.767 451.802 434.491 438.244C435.071 427.534 436.365 416.168 433.719 403.759C430.928 390.683 423.212 376.13 411.189 366.792" stroke="#21F225" stroke-width="0.8162" stroke-miterlimit="10" stroke-linecap="round" stroke-linejoin="round"/>
<path d="M349.65 309.721C303.152 322.411 259.078 469.998 154.744 506.231C130.689 514.584 109.492 520.465 93.741 512.218C79.1301 504.57 70.6609 491.204 63.7369 479.201C43.8726 444.484 44.2588 405.344 69.927 377.532C73.2297 381.675 94.8419 386.726 121.157 385.432C124.865 385.248 128.651 384.91 132.485 384.485C151.857 382.342 171.18 377.639 188.283 370.628C197.582 366.813 206.235 362.284 213.989 357.407C256.992 330.329 273.418 291.634 272.771 265.483C272.491 253.981 270.975 244.556 269.526 234.33C268.397 226.343 268.126 218 270.994 207.232C274.316 194.765 282.94 180.647 292.954 166.943C305.566 149.677 319.395 131.609 338.67 115.105C347.922 107.176 358.795 99.5668 370.635 93.2801C380.639 87.9688 391.243 83.6039 402.184 80.7164C407.824 79.2293 413.637 78.0511 418.408 78.3408C422.116 78.5629 424.868 79.5286 427.369 80.4267C448.248 87.9881 458.494 97.0077 458.503 102.338C457.76 91.6384 459.981 80.1853 462.414 68.8963C464.829 57.6556 467.436 46.3087 470.314 34.9908C480.792 -6.13817 496.668 -49.5172 498.947 -81.7038C500.666 -105.972 492.563 -118.053 492.167 -117.521C489.406 -116.565 491.781 -105.595 493.983 -88.9948C494.128 -87.9036 494.195 -86.7834 494.331 -85.6438C498.048 -54.5871 498.116 -5.24972 505.513 48.2208C510.38 83.4011 522.49 118.205 536.107 149.445C544.991 169.831 553.885 189.029 563.098 207.029C568.457 217.488 573.315 227.966 577.071 236.908C579.688 243.127 581.88 248.67 583.097 253.354C585.038 260.819 585.444 265.753 586.361 269.278C587.482 273.604 589.847 273.527 599.688 279.032C613.739 286.883 629.055 308.012 638.779 328.06C654.356 359.947 664.505 392.887 662.613 425.605C661.956 437.058 659.677 448.299 655.93 459.404C645.018 491.697 618.306 521.083 588.283 539.75C573.73 548.798 558.665 556.36 542.046 559.817C530.486 562.222 518.367 562.994 506.74 561.188C500.202 560.174 493.964 558.224 488.527 555.471C477.556 549.919 470.352 541.816 464.491 533.338C454.129 518.35 448.344 501.151 444.829 482.523C442.55 470.452 441.391 457.675 441.169 444.349C440.995 433.784 441.575 422.524 438.523 410.25C435.288 397.233 427.524 382.757 415.916 373.158" stroke="#21F225" stroke-width="0.8162" stroke-miterlimit="10" stroke-linecap="round" stroke-linejoin="round"/>
<path d="M348.251 308.906C298.083 319.992 252.792 464.47 153.528 504.16C129.868 513.614 109.492 521.272 94.0798 513.884C80.0772 507.173 71.9654 494.638 65.2635 483.59C45.9399 451.713 45.8144 415.615 69.6671 390.324C72.2358 396.156 94.7172 402.897 121.95 402.221C125.784 402.124 129.685 401.854 133.635 401.477C153.692 399.546 173.557 394.563 191.016 387.06C200.548 382.965 209.355 378.088 217.187 372.835C260.739 343.584 275.389 301.847 270.619 273.407C268.562 261.162 264.757 250.906 261.348 239.994C258.654 231.37 257.012 222.389 258.827 210.839C260.952 197.31 269.015 182.139 278.595 167.383C290.637 148.823 304.08 129.48 323.577 111.962C332.887 103.599 344.002 95.5934 356.218 89.104C366.493 83.6478 377.453 79.2539 388.839 76.5403C394.681 75.14 400.746 74.1164 405.652 74.6765C409.495 75.1207 412.276 76.3665 414.797 77.5446C435.926 87.4913 445.66 99.1569 444.463 106.969C443.198 95.9218 445.236 84.0727 447.534 72.3974C449.832 60.7801 452.372 49.0566 455.24 37.3813C465.708 -5.03199 482.463 -49.1739 487.726 -82.3745C491.599 -106.797 486.876 -119.631 489.667 -119.708C489.87 -119.312 495.075 -109.018 499.865 -92.5143C500.174 -91.4424 500.406 -90.3222 500.715 -89.1923C508.962 -58.2997 512.351 -8.29603 520.318 45.7925C525.523 81.108 536.832 116.105 549.057 147.702C557.073 168.407 564.808 187.981 572.775 206.368C577.4 217.039 581.427 227.758 584.238 236.846C586.179 243.123 587.647 248.675 588.071 253.291C588.738 260.573 587.772 265.063 587.618 267.844C587.424 271.244 588.95 269.679 599.109 274.15C613.363 280.418 629.867 301.093 640.431 320.658C657.37 351.792 669.18 384.008 669.055 416.475C669.006 427.937 667.336 439.217 664.188 450.409C654.946 483.272 629.789 513.653 601.244 533.845C587.357 543.666 572.968 552.174 556.744 556.636C545.494 559.735 533.577 561.261 521.863 560.17C515.345 559.562 509.049 558.026 503.467 555.651C492.332 550.928 484.578 543.599 478.069 535.777C466.626 522.035 459.383 505.714 454.371 487.791C451.107 476.116 448.944 463.649 447.785 450.544C446.868 440.124 446.713 428.971 443.265 416.832C439.577 403.863 431.774 389.474 420.572 379.604" stroke="#21F225" stroke-width="0.8162" stroke-miterlimit="10" stroke-linecap="round" stroke-linejoin="round"/>
<path d="M346.85 308.083C293.012 317.567 246.524 459.137 152.32 502.072C129.066 512.676 109.53 522.062 94.4268 515.534C81.052 509.75 73.2974 498.036 66.808 487.954C48.0928 458.867 47.3782 425.869 69.4153 403.079C71.2598 410.602 94.6007 419.274 122.751 418.974C126.7 418.936 130.727 418.762 134.793 418.424C155.526 416.695 175.941 411.442 193.749 403.455C203.512 399.081 212.483 393.856 220.382 388.226C264.486 356.793 277.426 311.946 268.464 281.285C264.66 268.258 258.527 257.23 253.177 245.613C248.928 236.381 245.896 226.743 246.678 214.392C247.596 199.819 255.118 183.567 264.254 167.768C275.736 147.913 288.783 127.296 308.512 108.754C317.889 99.9472 329.236 91.5553 341.828 84.8631C352.374 79.2524 363.692 74.8488 375.521 72.2897C381.576 70.986 387.873 70.0976 392.923 70.9377C396.902 71.5944 399.722 73.1299 402.252 74.5881C423.623 86.9103 432.864 101.232 430.45 111.526C428.654 100.131 430.508 87.876 432.69 75.8338C434.863 63.8399 437.335 51.7494 440.204 39.7168C450.662 -3.99054 468.228 -48.905 476.543 -83.1003C482.52 -107.697 481.197 -121.448 487.214 -121.95C490.371 -122.211 498.396 -112.477 505.794 -96.0889C506.267 -95.0363 506.672 -93.9257 507.136 -92.8055C519.941 -62.0771 526.624 -11.3974 535.16 43.2995C540.694 78.7502 551.22 113.94 562.055 145.895C569.191 166.928 575.787 186.86 582.499 205.633C586.39 216.516 589.597 227.477 591.451 236.709C592.725 243.044 593.459 248.616 593.083 253.155C592.484 260.253 590.157 264.27 588.911 266.336C587.433 268.78 588.071 265.776 598.578 269.195C613.005 273.898 630.716 294.091 642.13 313.173C660.43 343.553 673.911 375.064 675.543 407.251C676.123 418.713 675.041 430.041 672.501 441.311C664.959 474.743 641.339 506.128 614.27 527.837C601.05 538.431 587.337 547.875 571.509 553.351C560.577 557.136 548.854 559.415 537.053 559.039C530.564 558.836 524.209 557.706 518.473 555.726C507.175 551.815 498.879 545.277 491.704 538.112C479.189 525.616 470.468 510.174 463.969 492.946C459.72 481.667 456.553 469.509 454.457 456.627C452.777 446.342 451.917 435.314 448.064 423.3C443.931 410.379 436.08 396.078 425.284 385.947" stroke="#21F225" stroke-width="0.8162" stroke-miterlimit="10" stroke-linecap="round" stroke-linejoin="round"/>
<path d="M345.459 307.262C287.942 315.132 240.314 453.999 151.113 499.995C128.264 511.777 109.597 522.863 94.7643 517.194C82.0365 512.327 74.6199 501.444 68.3429 492.337C50.2361 466.041 48.9324 436.143 69.1637 415.864C70.284 425.076 94.4843 435.197 123.542 435.747C127.608 435.825 131.76 435.69 135.951 435.39C157.37 433.874 178.316 428.331 196.481 419.862C206.466 415.207 215.602 409.635 223.578 403.619C268.222 370.003 279.473 321.96 266.31 289.174C260.748 275.326 252.308 263.593 245.007 251.232C239.194 241.401 234.771 231.097 234.52 217.954C234.22 202.339 241.212 185.005 249.903 168.173C260.816 147.034 273.476 125.132 293.437 105.576C302.872 96.3347 314.46 87.5468 327.42 80.6421C338.235 74.8866 349.92 70.454 362.185 68.0688C368.442 66.852 374.99 66.1181 380.175 67.2286C384.28 68.1074 387.138 69.9229 389.688 71.6611C411.3 86.3783 420.039 103.336 416.418 116.112C414.1 104.379 415.771 91.709 417.818 79.2901C419.865 66.9292 422.27 54.4621 425.148 42.0626C435.597 -2.92912 453.926 -48.6644 465.33 -83.8157C473.375 -108.615 475.518 -122.984 484.731 -124.182C490.854 -124.974 501.679 -115.906 511.693 -99.6628C512.331 -98.6295 512.91 -97.5189 513.538 -96.418C530.911 -65.8828 540.867 -14.5078 549.993 40.8168C555.864 76.4027 565.589 111.795 575.043 144.098C581.301 165.459 586.757 185.758 592.203 204.917C595.361 216.023 597.746 227.206 598.645 236.592C599.263 242.985 599.272 248.567 598.075 253.038C596.23 259.952 592.57 263.516 590.185 264.848C587.471 266.365 587.172 261.903 598.027 264.259C612.618 267.427 631.555 287.117 643.82 305.717C663.481 335.334 678.662 366.14 682.013 398.066C683.22 409.538 682.737 420.914 680.787 432.252C674.954 466.263 652.868 498.653 627.258 521.868C614.704 533.244 601.667 543.606 586.235 550.105C575.613 554.576 564.092 557.599 552.204 557.956C545.744 558.159 539.322 557.435 533.451 555.841C521.988 552.741 513.161 546.996 505.32 540.487C491.742 529.236 481.535 514.674 473.558 498.141C468.305 487.258 464.152 475.409 461.12 462.758C458.686 452.618 457.103 441.696 452.863 429.818C448.276 416.945 440.386 402.74 430.005 392.33" stroke="#21F225" stroke-width="0.8162" stroke-miterlimit="10" stroke-linecap="round" stroke-linejoin="round"/>
<path d="M344.055 306.436C282.869 312.703 234.15 449.04 149.893 497.904C127.46 510.912 110.319 520.984 95.0993 518.841C83.9456 512.786 75.9399 504.838 69.8754 496.697C52.377 473.202 50.4842 446.385 68.9 428.625C69.296 439.538 94.3654 451.339 124.341 452.507C128.532 452.671 132.8 452.604 137.107 452.343C159.202 451.039 180.699 445.216 199.211 436.264C209.428 431.32 218.718 425.4 226.781 419.017C271.966 383.209 281.527 331.93 264.164 297.069C256.853 282.381 246.095 269.962 236.834 256.867C229.466 246.447 223.633 235.477 222.368 221.522C220.852 204.874 227.303 186.458 235.56 168.573C245.902 146.14 258.176 122.973 278.359 102.394C287.862 92.7084 299.682 83.5246 313.018 76.4268C324.104 70.5264 336.146 66.0649 348.845 63.8438C355.316 62.7139 362.095 62.1345 367.425 63.5154C371.665 64.6163 374.552 66.7119 377.131 68.7302C398.965 85.8326 407.222 105.436 402.393 120.694C399.554 108.613 401.031 95.5475 402.963 82.7521C404.885 70.0146 407.231 57.1805 410.099 44.414C420.539 -1.87179 439.592 -48.4666 454.135 -84.5256C464.236 -109.547 469.857 -124.573 482.266 -126.398C491.353 -127.74 504.969 -119.31 517.61 -103.212C518.412 -102.188 519.155 -101.097 519.947 -100.006C541.907 -69.6829 555.118 -17.5933 564.823 38.3494C571.023 74.0705 579.946 109.666 588.019 142.316C593.388 164.006 597.715 184.662 601.906 204.208C604.33 215.525 605.904 226.95 605.836 236.481C605.788 242.932 605.083 248.533 603.065 252.927C599.984 259.667 594.972 262.816 591.457 263.366C587.507 263.994 586.262 258.064 597.473 259.329C612.21 260.99 632.383 280.14 645.497 298.257C666.511 327.121 683.401 357.212 688.48 388.877C690.325 400.36 690.431 411.774 689.079 423.189C684.975 457.789 664.406 491.173 640.263 515.886C628.385 528.044 616.005 539.323 600.979 546.846C590.665 552.003 579.347 555.759 567.373 556.86C560.931 557.459 554.461 557.14 548.435 555.952C536.818 553.654 527.451 548.7 518.933 542.867C504.303 532.843 492.579 519.179 483.135 503.341C476.887 492.863 471.73 481.323 467.761 468.885C464.565 458.89 462.257 448.084 457.631 436.332C452.58 423.517 444.652 409.389 434.686 398.718" stroke="#21F225" stroke-width="0.8162" stroke-miterlimit="10" stroke-linecap="round" stroke-linejoin="round"/>
<path d="M342.659 305.609C277.803 310.273 228.089 444.254 148.679 495.812C126.691 510.095 110.322 521.558 95.4407 520.486C84.9243 515.223 77.2664 508.231 71.4142 501.066C54.5339 480.371 52.0424 456.644 68.6524 441.396C68.3144 453.998 94.2529 467.479 125.136 469.275C129.443 469.526 133.837 469.517 138.26 469.314C161.04 468.223 183.078 462.11 201.947 452.675C212.386 447.45 221.85 441.183 229.981 434.423C275.697 396.433 283.568 341.871 262.013 304.962C252.936 289.424 239.889 276.349 228.668 262.501C219.755 251.501 212.512 239.865 210.214 225.099C207.471 207.427 213.4 187.91 221.203 168.983C230.986 145.256 242.864 120.814 263.279 99.2208C272.849 89.1004 284.9 79.5207 298.604 72.22C309.951 66.1748 322.36 61.6843 335.503 59.637C342.176 58.5941 349.206 58.1692 354.672 59.8205C359.037 61.1435 361.963 63.5288 364.561 65.8175C386.607 85.3052 394.401 107.555 388.355 125.285C384.985 112.856 386.289 99.385 388.085 86.2129C389.881 73.0988 392.16 59.8978 395.028 46.774C405.458 -0.796173 425.197 -48.2987 442.917 -85.2269C455.046 -110.518 464.162 -126.163 479.778 -128.616C491.839 -130.508 508.237 -122.696 523.504 -106.772C524.47 -105.767 525.387 -104.676 526.344 -103.594C552.89 -73.4937 569.356 -20.6702 579.64 35.8809C586.168 71.7372 594.28 107.535 600.992 140.533C605.473 162.551 608.669 183.565 611.595 203.506C613.285 215.037 614.058 226.693 613.015 236.378C612.319 242.887 610.88 248.508 608.051 252.824C603.734 259.391 597.341 262.124 592.725 261.902C587.511 261.651 585.463 252.766 596.916 254.418C611.663 256.542 633.217 273.191 647.171 290.824C669.546 318.926 688.165 348.312 694.944 379.717C697.426 391.208 698.131 402.671 697.358 414.163C694.992 449.343 675.939 483.741 653.245 509.95C642.043 522.891 630.33 535.087 615.69 543.634C605.685 549.476 594.57 553.957 582.518 555.811C576.106 556.796 569.578 556.893 563.407 556.101C551.635 554.594 541.727 550.442 532.534 545.275C516.86 536.468 503.611 523.721 492.699 508.579C485.437 498.507 479.304 487.266 474.399 475.06C470.449 465.21 467.417 454.519 462.395 442.892C456.891 430.126 448.924 416.085 439.363 405.143" stroke="#21F225" stroke-width="0.8162" stroke-miterlimit="10" stroke-linecap="round" stroke-linejoin="round"/>
<path d="M341.258 304.79C272.732 307.851 222.129 439.62 147.462 493.738C125.946 509.334 110.312 522.139 95.7778 522.148C85.8891 517.677 78.5885 511.651 72.9392 505.442C56.6672 487.547 53.5866 466.901 68.3907 454.173C67.3285 468.465 94.1265 483.636 125.927 486.041C130.35 486.379 134.869 486.437 139.418 486.273C162.874 485.404 185.462 479.001 204.679 469.074C215.35 463.569 224.969 456.954 233.177 449.818C279.434 409.635 285.576 351.78 259.859 312.853C249.014 296.446 233.679 282.733 220.497 268.132C210.029 256.553 201.377 244.26 198.064 228.664C194.095 209.968 199.503 189.36 206.862 169.38C216.084 144.359 227.576 118.652 248.213 96.0354C257.841 85.4804 270.134 75.5047 284.214 68.0013C295.831 61.8112 308.607 57.2917 322.185 55.4086C329.07 54.4526 336.332 54.1725 341.943 56.1039C346.443 57.649 349.398 60.3144 352.015 62.8831C374.275 84.7658 381.595 109.652 374.342 129.864C370.45 117.088 371.561 103.211 373.241 89.6715C374.912 76.1904 377.123 62.6031 379.992 49.122C390.411 0.257787 410.826 -48.1911 431.733 -85.9401C445.9 -111.521 458.522 -127.735 477.324 -130.845C492.35 -133.269 511.548 -126.084 529.433 -110.334C530.563 -109.339 531.654 -108.267 532.765 -107.195C563.889 -77.3455 583.608 -23.759 594.482 33.4004C601.329 69.3919 608.639 105.403 613.989 138.738C617.572 161.085 619.658 182.465 621.319 202.783C622.284 214.526 622.246 226.424 620.227 236.254C618.876 242.831 616.722 248.47 613.062 252.7C607.509 259.112 599.735 261.401 594.019 260.406C587.519 259.267 584.468 250.469 596.375 249.475C611.44 248.229 634.056 266.201 648.86 283.361C672.597 310.709 692.944 339.371 701.413 370.515C704.542 382.007 705.846 393.518 705.653 405.087C705.054 440.846 687.488 476.259 666.243 503.964C655.717 517.696 644.66 530.801 630.425 540.371C620.73 546.899 609.817 552.104 597.679 554.712C591.286 556.083 584.709 556.585 578.384 556.199C566.458 555.474 556.009 552.114 546.149 547.633C529.423 540.033 514.658 528.223 502.278 513.756C494.011 504.09 486.875 493.149 481.052 481.164C476.329 471.459 472.582 460.885 467.175 449.383C461.207 436.675 453.211 422.711 444.056 411.509" stroke="#21F225" stroke-width="0.8162" stroke-miterlimit="10" stroke-linecap="round" stroke-linejoin="round"/>
<path d="M339.866 303.966C267.661 305.424 216.315 435.117 146.254 491.649C125.25 508.597 110.32 522.715 96.1244 523.797C86.8634 520.118 79.9201 515.048 74.4832 509.804C58.8293 494.71 55.15 477.154 68.1386 466.927C66.352 482.909 94.0095 499.761 126.718 502.793C131.266 503.218 135.901 503.344 140.566 503.218C164.708 502.561 187.827 495.869 207.401 485.469C218.294 479.674 228.077 472.712 236.372 465.208C283.16 422.834 287.573 361.657 257.705 320.731C245.083 303.445 227.478 289.104 212.317 273.75C200.313 261.592 190.231 248.642 185.895 232.225C180.69 212.525 185.586 190.796 192.501 169.783C201.153 143.477 212.269 116.496 233.128 92.8556C242.823 81.866 255.348 71.4945 269.795 63.7882C281.683 57.4533 294.816 52.9048 308.838 51.1955C315.926 50.3264 323.43 50.2009 329.185 52.393C333.811 54.1506 336.805 57.1056 339.441 59.9544C361.913 84.2223 368.759 111.754 360.3 134.448C355.887 121.324 356.804 107.051 358.359 93.126C359.904 79.2683 362.058 65.314 364.926 51.466C375.336 1.31741 396.427 -48.1165 420.521 -86.6574C436.715 -112.548 452.833 -129.36 474.841 -133.078C492.832 -136.062 514.83 -129.467 535.332 -113.909C536.626 -112.924 537.882 -111.872 539.166 -110.809C574.868 -81.2109 597.842 -26.8712 609.314 30.9063C616.489 67.0329 622.979 103.247 626.967 136.93C629.652 159.604 630.617 181.342 631.013 202.056C631.245 214.012 630.414 226.151 627.411 236.126C625.412 242.76 622.534 248.429 618.044 252.572C611.265 258.83 602.091 260.674 595.282 258.907C587.509 256.879 583.569 246.672 595.814 244.528C611.062 241.853 634.876 259.216 650.53 275.884C675.628 302.479 697.723 330.407 707.873 361.309C711.649 372.801 713.551 384.37 713.928 396.007C715.116 432.336 699.027 468.781 679.23 497.974C669.39 512.489 658.98 526.501 645.151 537.104C635.755 544.308 625.045 550.228 612.829 553.608C606.456 555.366 599.831 556.273 593.361 556.302C581.27 556.351 570.3 553.792 559.755 549.996C541.976 543.594 525.685 532.73 511.856 518.94C502.576 509.688 494.454 499.046 487.704 487.274C482.219 477.714 477.748 467.256 471.963 455.88C465.532 443.229 457.507 429.352 448.767 417.87" stroke="#21F225" stroke-width="0.8162" stroke-miterlimit="10" stroke-linecap="round" stroke-linejoin="round"/>
<path d="M338.462 303.15C262.587 302.996 210.623 430.709 145.043 489.577C124.609 507.916 110.326 523.309 96.4684 525.463C87.8351 522.575 81.249 518.461 76.0246 514.193C60.9887 501.9 56.7107 487.424 67.8935 479.718C65.3826 497.39 93.8996 515.922 127.525 519.582C132.189 520.093 136.95 520.287 141.73 520.2C166.549 519.755 190.218 512.773 210.14 501.89C221.255 495.816 231.202 488.506 239.575 480.616C286.894 436.049 289.559 371.55 255.547 328.635C241.149 310.46 221.275 295.502 204.143 279.394C190.595 266.656 179.093 253.059 173.734 235.812C167.302 215.098 171.725 192.279 178.147 170.203C186.297 142.613 196.968 114.347 218.04 89.6928C227.803 78.2687 240.56 67.5012 255.383 59.5921C267.541 53.1123 281.032 48.5349 295.488 46.9898C302.779 46.2076 310.524 46.2366 316.425 48.6991C321.176 50.6788 324.208 53.9235 326.864 57.0427C349.538 83.6959 355.931 113.874 346.255 139.05C341.32 125.578 342.054 110.9 343.483 96.6072C344.903 82.3729 346.989 68.0516 349.857 53.8366C360.258 2.4037 382.015 -48.0539 409.305 -87.348C427.528 -113.586 447.141 -130.959 472.356 -135.275C493.321 -138.829 518.12 -132.813 541.229 -117.439C542.687 -116.473 544.116 -115.421 545.555 -114.378C585.825 -85.04 612.063 -29.9278 624.124 28.4581C631.618 64.72 637.296 101.136 639.933 135.167C641.719 158.17 641.565 180.275 640.705 201.366C640.203 213.543 638.59 225.923 634.592 236.034C631.946 242.736 628.335 248.434 623.023 252.48C615.008 258.593 604.443 259.983 596.544 257.444C587.486 254.527 582.686 242.939 595.25 239.617C610.711 235.542 635.703 252.268 652.197 268.453C678.647 294.285 702.51 321.479 714.33 352.149C718.753 363.641 721.254 375.249 722.21 386.982C725.194 423.881 710.583 461.35 692.215 492.04C683.06 507.346 673.288 522.257 659.874 533.893C650.777 541.773 640.261 548.417 627.977 552.55C621.623 554.694 614.94 555.998 608.325 556.442C596.071 557.263 584.569 555.505 573.357 552.396C554.526 547.181 536.709 537.292 521.422 524.159C511.138 515.323 502.022 504.98 494.335 493.431C488.087 484.025 482.891 473.672 476.72 462.422C469.816 449.829 461.762 436.03 453.438 424.287" stroke="#21F225" stroke-width="0.8162" stroke-miterlimit="10" stroke-linecap="round" stroke-linejoin="round"/>
<path d="M337.066 302.333C257.522 300.575 205.104 426.367 143.831 487.495C124.015 507.263 110.321 523.892 96.8111 527.118C88.8055 525.032 82.5768 521.874 77.5648 518.562C63.147 509.069 58.2799 497.683 67.6471 492.488C64.4024 511.86 93.7885 532.062 128.331 536.34C133.121 536.929 137.998 537.2 142.894 537.161C168.398 536.929 192.608 529.667 212.888 518.301C224.235 511.947 234.336 504.279 242.786 496.022C290.626 449.264 291.543 381.423 253.408 336.538C237.213 317.475 215.099 301.908 195.978 285.037C180.894 271.73 167.964 257.467 161.59 239.389C153.932 217.671 157.824 193.731 163.811 170.612C171.392 141.728 181.686 112.197 202.98 86.5195C212.81 74.6608 225.799 63.4974 240.999 55.3855C253.428 48.7512 267.285 44.1545 282.176 42.7832C289.68 42.0879 297.656 42.2714 303.702 45.0043C308.578 47.2061 311.649 50.7309 314.334 54.1301C337.211 83.1589 343.141 115.993 332.257 143.65C326.791 129.831 327.342 114.747 328.646 100.078C329.949 85.4669 331.958 70.7787 334.826 56.2064C345.226 3.47942 367.64 -48.0211 398.118 -88.0395C418.378 -114.635 441.487 -132.558 469.898 -137.483C493.828 -141.597 521.437 -136.16 547.153 -120.979C548.776 -120.023 550.379 -118.99 551.982 -117.947C596.819 -88.8796 626.311 -32.9852 638.972 26.0091C646.784 62.4061 651.641 99.0156 652.936 133.404C653.814 156.735 652.598 179.207 650.434 200.684C649.227 213.074 646.794 225.705 641.811 235.951C638.518 242.721 634.172 248.447 628.04 252.397C618.779 258.365 606.833 259.302 597.843 255.989C587.5 252.185 581.86 239.215 594.723 234.715C610.406 229.23 636.557 245.318 653.911 261.03C681.723 286.109 707.352 312.55 720.824 342.989C725.903 354.481 729.013 366.137 730.519 377.947C735.319 415.397 722.166 453.918 705.238 486.095C696.768 502.184 687.643 518.002 674.625 530.672C665.837 539.228 655.504 546.586 643.153 551.492C636.808 554.012 630.078 555.722 623.327 556.591C610.899 558.175 598.866 557.219 586.988 554.814C567.105 550.777 547.771 541.864 531.017 529.397C519.718 520.986 509.607 510.942 501.003 499.596C493.982 490.344 488.062 480.108 481.515 468.973C474.147 456.448 466.064 442.716 458.145 430.703" stroke="#21F225" stroke-width="0.8162" stroke-miterlimit="10" stroke-linecap="round" stroke-linejoin="round"/>
<path d="M335.677 301.506C252.463 298.145 199.746 422.053 142.625 485.403C123.485 506.629 110.332 524.465 97.16 528.763C89.7917 527.469 83.9203 525.267 79.1015 522.93C65.3113 516.238 59.8359 507.942 67.3876 505.258C63.4186 526.319 93.6835 548.144 129.124 553.108C134.03 553.774 139.032 554.131 144.054 554.122C170.234 554.16 194.985 546.551 215.622 534.702C227.191 528.058 237.456 520.052 245.983 511.419C294.345 462.468 293.505 391.286 251.256 344.421C233.275 324.47 208.91 308.285 187.81 290.661C171.19 276.774 156.83 261.874 149.433 242.956C140.549 220.233 143.919 195.173 149.462 171.021C156.473 140.843 166.4 110.047 187.906 83.3456C197.805 71.0523 211.025 59.4832 226.592 51.1686C239.291 44.3894 253.506 39.7637 268.841 38.5566C276.547 37.9482 284.766 38.2862 290.956 41.2895C295.968 43.7134 299.067 47.5183 301.771 51.1976C324.842 82.6116 330.317 118.091 318.227 148.221C312.24 134.054 312.606 118.574 313.785 103.529C314.963 88.5507 316.913 73.4858 319.772 58.5465C330.163 4.53518 353.253 -48.0469 386.917 -88.7606C409.215 -115.732 435.81 -134.187 467.427 -139.72C494.321 -144.394 524.75 -139.537 553.065 -124.559C554.851 -123.613 556.618 -122.599 558.386 -121.565C607.781 -92.7682 640.537 -36.0916 653.796 23.5208C661.927 60.0626 665.954 96.8653 665.906 131.601C665.877 155.261 663.55 178.1 660.121 199.953C658.19 212.565 654.955 225.448 648.987 235.819C645.047 242.666 639.967 248.412 633.024 252.265C622.517 258.098 609.191 258.581 599.109 254.486C587.472 249.802 581.012 235.443 594.165 229.764C610.098 222.888 637.389 238.33 655.583 253.549C684.756 277.865 712.153 303.553 727.286 333.779C733.031 345.252 736.73 356.966 738.806 368.863C745.431 406.863 733.746 446.427 718.227 480.101C710.453 496.982 701.946 513.698 689.353 527.391C680.855 536.633 670.715 544.687 658.316 550.375C651.981 553.282 645.201 555.387 638.306 556.671C625.704 559.008 613.15 558.863 600.606 557.154C579.65 554.296 558.81 546.377 540.597 534.566C528.294 526.59 517.179 516.827 507.658 505.692C499.874 496.595 493.23 486.475 486.296 475.456C478.455 462.989 470.353 449.334 462.849 437.06" stroke="#21F225" stroke-width="0.8162" stroke-miterlimit="10" stroke-linecap="round" stroke-linejoin="round"/>
<path d="M334.273 300.682C247.38 295.718 194.537 417.734 141.404 483.324C123.017 506.027 110.328 525.042 97.4941 530.411C90.7535 529.909 85.2491 528.663 80.6331 527.292C67.49 523.39 61.3868 518.185 67.1327 518.012C62.4394 540.763 93.5637 564.278 129.912 569.86C134.944 570.613 140.062 571.038 145.199 571.067C172.055 571.318 197.328 563.38 218.341 551.087C230.123 544.134 240.562 535.8 249.176 526.799C298.069 475.656 295.442 401.134 249.099 352.298C229.311 331.449 202.716 314.665 179.636 296.269C161.481 281.812 145.702 266.255 137.281 246.497C127.17 222.779 130.019 196.59 135.118 171.395C141.568 139.923 151.119 107.862 172.828 80.1365C182.804 67.399 196.236 55.4437 212.19 46.9263C225.149 40.0023 239.731 35.3186 255.511 34.3143C263.429 33.7832 271.879 34.295 278.214 37.559C283.352 40.2147 286.49 44.2899 289.214 48.2493C312.487 82.039 317.508 120.174 304.201 152.786C297.692 138.281 297.866 122.386 298.919 106.964C299.971 91.609 301.854 76.1675 304.723 60.8709C315.104 5.56558 338.879 -48.0981 375.72 -89.4974C400.075 -116.856 430.137 -135.831 464.951 -141.973C494.81 -147.217 528.059 -142.929 558.971 -128.145C560.921 -127.208 562.862 -126.213 564.794 -125.19C618.738 -96.6629 654.768 -39.204 668.625 21.0167C677.066 57.6938 680.272 94.6896 678.891 129.783C677.944 153.761 674.516 176.967 669.832 199.207C667.167 212.031 663.14 225.174 656.187 235.671C651.6 242.595 645.787 248.361 638.023 252.117C626.27 257.805 611.562 257.824 600.389 252.967C587.468 247.385 580.197 231.664 593.62 224.798C609.824 216.512 638.225 231.316 657.269 246.062C687.804 269.625 716.978 294.53 733.762 324.564C740.164 336.026 744.471 347.789 747.098 359.773C755.557 398.304 745.321 438.931 731.222 474.092C724.143 491.754 716.263 509.378 704.086 524.105C695.887 534.023 685.931 542.782 673.473 549.252C667.148 552.535 660.32 555.046 653.28 556.746C640.495 559.845 627.419 560.502 614.208 559.488C592.181 557.808 569.844 550.884 550.173 539.72C536.856 532.169 524.756 522.705 514.307 511.783C505.751 502.84 498.383 492.836 491.082 481.933C482.768 469.534 474.646 455.956 467.548 443.402" stroke="#21F225" stroke-width="0.8162" stroke-miterlimit="10" stroke-linecap="round" stroke-linejoin="round"/>
<path d="M332.874 299.859C242.311 293.292 189.497 413.386 140.189 481.236C122.613 505.417 110.329 525.619 97.8235 532.06C91.7107 532.35 86.5732 532.06 82.16 531.664C69.6542 530.544 62.933 528.448 66.873 530.785C61.4555 555.227 93.4393 580.432 130.705 586.622C135.853 587.462 141.096 587.955 146.35 588.022C173.891 588.476 199.704 580.268 221.066 567.492C233.069 560.258 243.663 551.558 252.364 542.2C301.682 488.768 297.375 410.991 246.937 360.186C225.353 338.448 196.518 321.046 171.448 301.896C151.767 286.861 134.549 270.656 125.104 250.068C113.777 225.355 116.085 198.036 120.749 171.798C126.63 139.032 135.804 105.706 157.735 76.9571C167.778 63.785 181.443 51.4338 197.763 42.7135C210.993 35.6447 225.942 30.9321 242.147 30.0919C250.268 29.6477 258.959 30.314 265.439 33.8485C270.702 36.7262 273.87 41.0815 276.622 45.3209C300.088 81.4862 304.656 122.277 290.142 157.371C283.102 142.518 283.102 126.217 284.029 110.428C284.956 94.6969 286.771 78.8885 289.64 63.2346C300.011 6.64484 324.472 -48.1294 364.491 -90.195C390.902 -117.959 424.441 -137.437 462.451 -144.187C495.275 -149.991 531.343 -146.273 564.853 -131.701C566.977 -130.774 569.073 -129.789 571.178 -128.784C629.67 -100.538 668.965 -42.2869 683.44 18.5422C692.199 55.3545 694.575 92.5434 691.861 127.994C690.007 152.291 685.468 175.873 679.52 198.499C676.12 211.536 671.301 224.94 663.363 235.563C658.129 242.564 651.572 248.358 642.997 252.009C629.999 257.552 613.91 257.117 601.646 251.497C587.441 245.017 579.367 227.924 593.042 219.89C609.526 210.204 639.038 224.37 658.921 238.624C690.809 261.424 721.769 285.557 740.194 315.387C747.263 326.831 752.169 338.651 755.356 350.732C765.66 389.784 756.881 431.473 744.192 468.141C737.809 486.595 730.547 505.117 718.794 520.877C710.885 531.471 701.112 540.945 688.607 548.187C682.291 551.847 675.406 554.754 668.24 556.888C655.271 560.741 641.664 562.2 627.797 561.89C604.698 561.379 580.864 555.459 559.725 544.943C545.404 537.825 532.299 528.651 520.933 517.932C511.614 509.144 503.522 499.256 495.835 488.469C487.047 476.137 478.906 462.627 472.214 449.812" stroke="#21F225" stroke-width="0.8162" stroke-miterlimit="10" stroke-linecap="round" stroke-linejoin="round"/>
<path d="M331.475 299.035C237.243 290.856 184.603 408.98 138.974 479.157C122.286 504.825 110.321 526.205 98.1633 533.718C92.6781 534.8 87.9172 535.457 83.6971 536.036C71.8384 537.678 64.4895 538.701 66.614 543.559C60.4625 569.691 93.3251 596.585 131.499 603.393C136.762 604.32 142.131 604.871 147.51 604.987C175.728 605.653 202.091 597.165 223.81 583.896C236.045 576.383 246.793 567.334 255.572 557.59C305.43 501.986 299.327 420.848 244.794 368.073C221.405 345.437 190.31 327.475 163.29 307.524C142.044 291.947 123.435 275.067 112.967 253.628C100.413 227.921 102.2 199.472 106.42 172.191C111.731 138.121 120.538 103.55 142.682 73.7676C152.793 60.1609 166.689 47.4138 183.386 38.4907C196.886 31.277 212.193 26.5354 228.841 25.8691C237.175 25.5118 246.088 26.3326 252.723 30.1375C258.111 33.2373 261.317 37.8727 264.089 42.3921C287.748 80.933 291.862 124.38 276.131 161.955C268.57 146.755 268.377 130.058 269.188 113.883C269.989 97.7844 271.747 81.5994 274.605 65.5785C284.967 7.69471 310.133 -48.1901 353.31 -90.9027C381.788 -119.072 418.784 -139.052 459.999 -146.401C495.788 -152.775 534.686 -149.627 570.784 -135.247C573.073 -134.34 575.342 -133.374 577.602 -132.36C640.681 -104.49 683.094 -45.322 698.285 16.0866C707.295 53.0631 708.898 90.4065 704.851 126.224C702.07 150.84 696.45 174.799 689.236 197.801C685.103 211.06 679.492 224.725 670.579 235.464C664.698 242.542 657.397 248.356 648.011 251.909C633.767 257.317 616.297 256.409 602.942 250.026C587.462 242.648 578.587 224.184 592.512 214.972C609.296 203.876 639.889 217.405 660.623 231.186C693.871 253.232 726.609 276.564 746.685 306.22C754.411 317.635 759.925 329.513 763.662 341.69C775.811 381.255 768.481 424.025 757.202 462.189C751.514 481.426 744.87 500.866 733.533 517.649C725.923 528.919 716.324 539.097 703.77 547.122C697.454 551.159 690.52 554.471 683.22 557.021C670.057 561.627 655.939 563.887 641.415 564.283C617.234 564.939 591.923 560.024 569.307 550.155C553.991 543.472 539.882 534.597 527.579 524.071C517.497 515.448 508.671 505.665 500.607 494.994C491.346 482.739 483.176 469.287 476.899 456.202" stroke="#21F225" stroke-width="0.8162" stroke-miterlimit="10" stroke-linecap="round" stroke-linejoin="round"/>
<path d="M330.079 298.219C232.167 288.436 179.855 404.503 137.761 477.075C122.01 504.221 111.339 528.392 98.5053 535.374C93.9375 537.866 89.2443 538.841 85.2366 540.405C74.0056 544.799 67.1009 548.99 66.367 556.33C63.5085 584.856 93.2133 612.736 132.295 620.152C137.684 621.166 143.169 621.784 148.663 621.949C177.557 622.827 204.471 614.059 226.537 600.307C238.995 592.514 249.907 583.118 258.772 572.998C309.172 515.22 301.253 430.712 242.645 375.976C217.45 352.442 184.143 333.862 155.124 313.168C132.363 297.012 112.305 279.494 100.813 257.215C87.0425 230.514 88.2979 200.935 92.0738 172.62C96.825 137.257 105.304 101.449 127.611 70.614C137.819 56.5921 151.918 43.4297 168.982 34.3039C182.753 26.9453 198.426 22.1844 215.509 21.6823C224.046 21.4215 233.2 22.3872 239.98 26.4624C245.494 29.7844 248.729 34.7095 251.529 39.4993C275.334 80.4448 279.052 126.518 262.104 166.575C254.021 151.027 253.644 133.925 254.32 117.383C254.996 100.908 256.686 84.3559 259.554 67.968C269.906 8.79988 295.787 -48.2244 342.112 -91.5744C372.656 -120.169 413.109 -140.632 457.531 -148.589C496.285 -155.523 537.993 -152.906 576.698 -138.778C579.151 -137.88 581.585 -136.923 584.018 -135.929C651.607 -108.32 697.342 -48.3982 713.102 13.6187C722.441 50.7304 723.194 88.2573 717.825 124.442C714.126 149.376 707.405 173.712 698.926 197.101C694.059 210.572 687.656 224.498 677.758 235.362C671.23 242.517 663.195 248.36 652.998 251.817C637.508 257.099 618.667 255.709 604.211 248.563C587.446 240.287 577.78 220.442 591.956 210.06C609.039 197.545 640.724 210.456 662.297 223.754C696.908 245.048 731.422 267.568 753.14 297.06C761.532 308.455 767.645 320.372 771.942 332.655C785.955 372.712 780.064 416.574 770.194 456.245C765.211 476.264 759.176 496.611 748.263 514.428C740.944 526.383 731.518 537.257 718.935 546.055C712.62 550.468 705.638 554.176 698.211 557.151C684.846 562.51 670.216 565.581 655.035 566.672C629.763 568.497 602.984 564.596 578.89 555.364C562.57 549.116 547.467 540.531 534.237 530.217C523.382 521.748 513.831 512.081 505.391 501.526C495.657 489.339 487.468 475.955 481.606 462.599" stroke="#21F225" stroke-width="0.8162" stroke-miterlimit="10" stroke-linecap="round" stroke-linejoin="round"/>
<path d="M328.685 297.39C227.104 286.005 175.246 399.899 136.56 474.991C121.814 503.605 110.969 528.172 98.8594 537.028C94.8228 539.983 90.5834 542.223 86.7786 544.782C76.1559 551.919 68.1117 559.316 66.1127 569.108C60.0192 598.977 93.0942 628.894 133.093 636.929C138.598 638.03 144.208 638.715 149.819 638.918C179.398 640 206.853 630.961 229.267 616.717C241.956 608.644 253.033 598.9 261.965 588.403C312.906 528.452 303.239 440.506 240.488 383.868C213.516 359.407 177.959 340.238 146.941 318.8C122.664 302.055 101.148 283.919 88.652 260.781C73.6258 233.094 74.379 202.376 77.7203 173.019C81.9018 136.361 89.9943 99.2684 112.524 67.4295C122.789 52.9633 137.13 39.4146 154.57 30.086C168.612 22.5729 184.642 17.7927 202.169 17.4547C210.919 17.2809 220.296 18.4011 227.229 22.7467C232.859 26.2908 236.143 31.4959 238.972 36.5658C262.989 79.8676 266.234 128.616 248.079 171.145C239.465 155.25 238.904 137.742 239.465 120.823C240.015 103.971 241.637 87.0524 244.506 70.2976C254.848 9.84506 281.443 -48.3188 330.906 -92.3062C363.537 -121.325 407.438 -142.271 455.056 -150.837C496.774 -158.331 541.322 -156.312 582.605 -142.358C585.222 -141.47 587.829 -140.533 590.417 -139.548C662.545 -112.161 711.603 -51.4959 727.942 11.1391C737.609 48.3859 737.454 86.0867 730.82 122.648C726.165 147.891 718.382 172.603 708.648 196.379C703.056 210.072 695.862 224.278 684.969 235.238C677.803 242.491 669.015 248.333 658.006 251.694C641.261 256.822 621.049 254.977 605.502 247.068C587.453 237.884 577.014 216.668 591.422 205.118C608.814 191.174 641.57 203.477 664.003 216.282C699.976 236.812 736.266 258.531 759.636 287.859C768.694 299.216 775.406 311.2 780.254 323.58C796.12 364.13 791.736 409.083 783.209 450.26C778.95 471.061 773.484 492.306 763.016 511.166C755.976 523.798 746.725 535.376 734.113 544.956C727.797 549.755 720.757 553.86 713.206 557.259C699.638 563.372 684.486 567.225 668.668 569.05C642.304 572.005 614.048 569.185 588.496 560.571C571.171 554.777 555.054 546.482 540.916 536.352C529.289 528.056 518.995 518.515 510.207 508.047C499.97 495.957 491.791 482.62 486.335 468.994" stroke="#21F225" stroke-width="0.8162" stroke-miterlimit="10" stroke-linecap="round" stroke-linejoin="round"/>
<path d="M491.007 475.373C505.676 515.758 547.21 550.832 598.054 565.762C650.366 581.126 712.682 573.835 749.253 543.87C780.763 518.057 790.218 480.317 796.186 444.287C805.418 388.586 807.687 327.168 766.085 278.67C741.054 249.497 702.996 228.599 665.662 208.831C642.389 196.499 608.561 184.814 590.85 200.188C576.21 212.897 587.422 235.513 606.755 245.586C623.394 254.258 644.977 256.566 662.978 251.583C692.711 243.355 707.834 218.759 718.331 195.669C745.207 136.607 759.673 71.915 742.754 8.67167C725.835 -54.5717 673.475 -115.99 596.818 -143.145C501.33 -176.964 386.876 -149.992 319.702 -93.016C252.528 -36.04 226.57 44.9046 224.6 124.285C224.166 141.58 224.919 159.494 234.055 175.737C253.417 130.726 250.655 79.3026 226.416 33.6445C223.577 28.2946 220.255 22.8095 214.49 19.0432C207.421 14.4272 197.802 13.1525 188.841 13.2394C148.523 13.6257 116.085 37.3721 97.457 64.2571C74.6956 97.11 66.9893 135.477 63.3776 173.429C60.4805 203.829 60.2874 235.668 76.5014 264.359C107.384 318.998 187.016 346.655 238.342 391.763C305.101 450.439 316.65 541.677 265.169 603.801C240.264 633.853 198.401 657.908 150.976 655.881C103.551 653.853 56.3763 617.388 65.8498 581.879C70.3403 565.057 85.5307 551.846 99.1856 538.684C139.127 500.191 181.318 278.554 327.273 296.574" stroke="#21F225" stroke-width="0.8162" stroke-miterlimit="10" stroke-linecap="round" stroke-linejoin="round"/>
</g>
</svg>
