<svg width="950" height="354" viewBox="0 0 950 354" fill="none" xmlns="http://www.w3.org/2000/svg">
<mask id="mask0_2_2995" style="mask-type:alpha" maskUnits="userSpaceOnUse" x="0" y="0" width="991" height="354">
<rect x="990.68" width="353.358" height="990" transform="rotate(90 990.68 0)" fill="#D9D9D9"/>
</mask>
<g mask="url(#mask0_2_2995)">
<path d="M516.638 542.147C473.789 527.576 194.306 476.131 204.846 248.799C206.847 205.619 226.04 164.44 251.64 134.679C277.24 104.918 309.002 85.5668 341.384 72.1189C434.712 33.3446 539.272 42.7754 618.203 108.042C637.251 123.794 655.076 143.131 665.976 168.774C675.176 190.429 678.977 215.409 682.663 239.987C696.86 334.554 711.042 429.121 725.238 523.703C738.038 608.969 751.573 696.639 788.778 767.349C831.051 847.705 900.435 898.285 973.578 925.671C1015.69 941.437 1066.22 948.218 1101.94 910.941C1133.46 878.042 1142.61 819.024 1132.76 770.689C1122.93 722.34 1097.53 682.932 1070.29 648.434C1019.67 584.334 955.048 529.678 881.891 532.615C831.425 534.645 782.082 564.435 741.192 605.772C700.301 647.11 666.94 699.576 635.768 753.152C614.761 789.263 594.201 826.64 567.089 855.235C517.718 907.313 452.379 924.231 390.424 927.341C312.083 931.286 230.863 914.339 170.679 854.414C110.509 794.475 77.4507 684.07 107.6 588.552C118.586 553.781 138.053 521.759 164.228 505.043C184.976 491.782 208.402 488.888 230.95 489.594C297.685 491.681 360.36 522.983 419.565 558.633C437.578 569.475 455.95 580.95 476.179 582.577C496.394 584.204 519.23 573.549 529.539 550.123" stroke="#21F225" stroke-width="0.8162" stroke-miterlimit="10" stroke-linecap="round" stroke-linejoin="round"/>
<path d="M517.853 540.057C477.394 520.001 204.577 467.649 207.947 246.983C208.594 204.681 224.936 164.251 249.169 135.181C273.357 106.169 303.925 87.5376 334.852 74.4065C424.02 36.5393 524.965 43.8968 599.13 107.652C615.89 122.05 630.965 142.942 640.943 169.953C642.411 173.883 643.736 177.901 644.974 182.004C650.849 201.787 654.39 223.197 658.177 244.046C660.164 254.844 662.252 265.542 664.383 276.11C676.002 332.724 689.58 385.652 700.695 435.556C706.382 461.084 711.393 486.18 716.806 511.492C720.708 529.705 724.74 548.236 729.549 567.126C734.703 587.442 740.621 608.506 747.158 629.283C755.437 655.79 765.098 681.75 776.372 707.191C782.16 720.251 788.365 733.194 795.032 745.836C800.993 757.153 807.27 768.052 813.692 778.534C817.162 784.135 820.689 789.607 824.102 794.833C826.578 798.62 828.997 802.219 831.473 805.704C851.3 833.622 874.265 855.564 899.591 871.82C910.894 877.752 922.556 883.555 934.348 888.853C946.097 894.123 958.033 898.889 970.027 903.179C1014.06 918.931 1066.38 927.397 1102.95 894.195C1135.23 864.88 1144.96 810.513 1136.04 766.944C1127.04 723.029 1102.55 687.84 1075.57 657.187C1073.75 655.128 1071.94 653.069 1070.08 651.024C1020.68 596.7 956.968 550.971 885.539 554.672C834.871 557.191 785.255 585.786 743.817 625.064C717.526 649.858 694.129 678.712 672.403 709.294C659.732 727.133 647.58 745.519 635.903 763.819C627.696 776.763 619.619 789.794 611.383 802.32C598.281 822.305 584.775 841.138 569.268 857.076C550.781 876.067 530.595 890.178 508.465 901.451C475.421 918.312 437.856 926.648 401.501 929.787C343.793 934.769 284.53 928.318 232.827 901.106C215.65 892.064 199.322 880.689 184.146 866.709C142.723 828.525 112.717 767.16 105.806 702.685C102.451 672.002 104.208 640.629 112.415 610.45C118.26 589.126 127.317 568.652 139.383 552.08C146.567 542.203 154.817 533.737 164.032 527.315C183.542 513.709 205.844 510.095 227.384 509.821C266.317 509.476 304.155 519.468 341 534.644C364.527 544.262 387.664 555.996 410.399 568.479C428.181 578.198 446.395 588.637 466.422 589.63C486.551 590.638 509.271 579.868 519.969 557.047" stroke="#21F225" stroke-width="0.8162" stroke-miterlimit="10" stroke-linecap="round" stroke-linejoin="round"/>
<path d="M519.08 537.989C481.012 512.462 214.761 459.059 211.046 245.174C210.326 203.722 223.832 164.069 246.696 135.69C269.459 107.427 298.861 89.5155 328.334 76.7011C413.355 39.7555 510.888 44.8668 580.1 107.283C594.584 120.342 606.823 142.803 615.966 171.139C617.29 175.242 618.543 179.446 619.695 183.723C625.31 204.499 629.169 226.759 633.719 248.111C636.094 259.255 638.7 270.198 641.422 280.867C656.108 338.33 675.084 388.277 688.935 432.336C696.077 455.056 701.822 476.999 708.416 499.302C713.139 515.269 718.106 531.697 724.225 549.004C730.805 567.578 738.465 587.778 746.557 607.893C756.78 633.564 768.385 658.905 781.112 684.721C787.577 697.852 794.344 711.171 801.313 724.374C807.49 736.079 813.768 747.555 819.988 758.67C823.299 764.588 826.654 770.405 829.634 775.847C831.808 779.821 833.795 783.478 835.84 787.006C852.239 815.212 871.13 836.492 892.756 850.934C904.577 856.074 916.83 861.617 929.198 866.728C941.508 871.811 953.991 876.49 966.532 880.781C1012.48 896.518 1066.54 906.712 1104.02 877.527C1137.04 851.826 1147.39 802.095 1139.37 763.292C1131.2 723.798 1107.52 692.928 1080.88 666.032C1079.08 664.218 1077.28 662.404 1075.45 660.619C1026.53 612.918 961.593 572.271 889.243 576.821C838.374 579.845 788.585 607.345 746.499 644.464C719.805 668.005 695.789 695.102 673.472 723.812C660.485 740.572 647.901 757.691 636.08 774.594C627.729 786.531 619.666 798.495 611.56 809.827C598.688 827.94 585.859 844.728 571.475 859.04C554.327 876.13 536.358 889.089 515.812 900.694C485.086 918.072 448.256 927.964 412.606 932.355C356.021 939.367 297.968 935.278 246.523 910.801C229.375 902.637 213.004 892.17 197.656 879.125C155.57 843.374 124.038 784.414 114.708 722.128C110.259 692.453 110.504 662.044 117.256 632.485C122.037 611.593 129.97 591.378 140.999 574.748C147.55 564.871 155.224 556.304 163.849 549.724C182.12 535.787 203.285 531.366 223.832 530.2C260.95 528.098 297.363 536.147 333.243 549.004C356.122 557.211 378.813 567.434 401.26 578.477C418.797 587.102 436.867 596.475 456.707 596.849C476.75 597.223 499.34 586.353 510.456 564.151" stroke="#21F225" stroke-width="0.8162" stroke-miterlimit="10" stroke-linecap="round" stroke-linejoin="round"/>
<path d="M520.309 535.904C484.63 504.905 224.844 450.336 214.161 243.376C212.058 202.73 222.727 163.913 244.238 136.211C265.591 108.71 293.797 91.5189 321.83 78.9925C402.676 42.9682 497.128 45.5743 561.07 106.896C573.323 118.645 582.725 142.618 590.975 172.321C592.17 176.612 593.322 180.989 594.416 185.452C599.743 207.237 603.962 230.317 609.275 252.202C612.054 263.678 615.178 274.865 618.49 285.664C636.343 343.962 660.619 390.857 677.191 429.156C685.787 449.04 692.266 467.872 700.041 487.137C705.584 500.873 711.487 515.214 718.931 530.893C726.922 547.753 736.382 567.033 745.971 586.513C758.181 611.307 771.686 636.072 785.868 662.262C793.024 675.48 800.353 689.158 807.61 702.908C814.002 715.017 820.309 727.025 826.284 738.788C829.452 745.023 832.619 751.185 835.168 756.844C837.039 761.005 838.594 764.719 840.207 768.276C853.18 796.784 867.995 817.374 885.921 830.015C898.26 834.378 911.118 839.633 924.033 844.557C936.891 849.467 949.935 854.031 963.023 858.322C1010.9 874.045 1066.6 886.01 1105.06 860.813C1138.74 838.755 1149.78 793.617 1142.67 759.594C1135.35 724.52 1112.52 697.941 1086.17 674.832C1084.4 673.277 1082.61 671.693 1080.8 670.152C1032.28 629.118 966.191 593.684 892.919 598.91C841.863 602.553 791.829 628.801 749.153 663.803C722.013 686.062 697.406 711.432 674.527 738.256C661.209 753.921 648.236 769.816 636.243 785.294C627.762 796.237 619.67 807.108 611.723 817.244C599.023 833.442 586.929 848.243 573.683 860.914C557.873 876.089 542.122 887.896 523.159 899.846C494.766 917.729 458.641 929.175 423.711 934.834C368.264 943.876 311.377 942.162 260.206 920.421C243.086 913.15 226.673 903.561 211.151 891.452C168.374 858.12 135.259 801.579 123.596 741.466C118.038 712.8 116.815 683.355 122.084 654.415C125.813 633.97 132.609 613.999 142.602 597.312C148.519 587.435 155.603 578.782 163.666 572.014C180.699 557.731 200.741 552.548 220.265 550.446C255.57 546.645 290.572 552.649 325.473 563.232C347.732 569.984 369.963 578.724 392.107 588.342C409.414 595.858 427.325 604.18 446.979 603.921C466.935 603.647 489.41 592.69 500.914 571.093" stroke="#21F225" stroke-width="0.8162" stroke-miterlimit="10" stroke-linecap="round" stroke-linejoin="round"/>
<path d="M521.536 533.814C488.262 497.344 234.768 441.479 217.259 241.56C213.761 201.692 221.593 163.753 241.765 136.698C261.692 109.961 288.717 93.4752 315.296 81.2655C392.01 46.1628 483.841 45.9468 542.024 106.52C552.074 116.987 558.625 142.458 565.968 173.515C567.02 177.978 568.099 182.542 569.122 187.178C574.147 209.985 578.754 233.886 584.816 256.275C588.012 268.096 591.64 279.528 595.528 290.428C616.564 349.561 646.094 393.288 665.431 425.943C675.481 442.919 682.68 458.742 691.65 474.955C698.028 486.473 704.868 498.726 713.607 512.779C723.038 527.94 734.24 546.297 745.37 565.13C759.523 589.06 774.958 613.234 790.609 639.785C798.441 653.074 806.331 667.127 813.89 681.439C820.499 693.951 826.834 706.506 832.579 718.917C835.617 725.468 838.598 731.976 840.7 737.851C842.255 742.199 843.392 745.971 844.573 749.556C854.119 778.396 864.86 798.265 879.1 809.107C891.943 812.692 905.419 817.66 918.896 822.411C932.315 827.134 945.907 831.597 959.542 835.888C1009.33 851.596 1066.59 865.361 1106.14 844.123C1140.4 825.737 1152.22 785.163 1146 755.92C1139.52 725.267 1117.56 702.993 1091.5 683.642C1089.74 682.331 1087.99 681.007 1086.17 679.711C1038.04 645.328 970.816 614.991 896.622 621.038C845.365 625.214 795.101 650.281 751.834 683.166C724.247 704.144 699.051 727.786 675.596 752.738C661.961 767.309 648.585 781.967 636.419 796.034C627.823 805.968 619.702 815.759 611.899 824.7C599.415 839.012 587.998 851.783 575.903 862.827C561.447 876.087 547.928 886.742 530.52 899.038C504.488 917.425 469.04 930.44 434.844 937.352C380.52 948.424 324.799 949.072 273.916 930.08C256.825 923.702 240.368 914.991 224.66 903.833C181.178 872.92 146.492 818.797 132.497 760.859C125.817 733.186 123.139 704.735 126.925 676.399C129.603 656.415 135.262 636.689 144.217 619.93C149.502 610.052 155.995 601.313 163.482 594.373C179.263 579.773 198.182 573.812 216.712 570.774C250.188 565.289 283.808 569.234 317.715 577.556C339.356 582.869 361.14 590.111 382.953 598.289C400.03 604.696 417.783 611.967 437.249 611.075C457.118 610.168 479.479 599.095 491.386 578.117" stroke="#21F225" stroke-width="0.8162" stroke-miterlimit="10" stroke-linecap="round" stroke-linejoin="round"/>
<path d="M522.754 531.725C491.87 489.769 244.524 432.508 220.364 239.745C215.454 200.625 220.464 163.608 239.297 137.201C257.799 111.256 283.644 95.4466 308.783 83.5537C381.321 49.3725 471.295 45.8738 522.984 106.144C530.903 115.388 534.517 142.284 540.982 174.694C541.903 179.33 542.883 184.082 543.847 188.891C548.57 212.705 553.566 237.427 560.362 260.334C563.961 272.501 568.123 284.178 572.572 295.178C596.804 355.146 631.474 395.562 653.662 422.717C665.109 436.726 673.114 449.627 683.265 462.758C690.478 472.088 698.282 482.239 708.303 494.636C719.188 508.112 732.103 525.534 744.788 543.719C760.885 566.799 778.249 590.369 795.369 617.294C803.878 630.67 812.33 645.082 820.191 659.955C827.016 672.871 833.365 685.973 838.88 699.032C841.774 705.886 844.567 712.753 846.237 718.829C847.49 723.379 848.196 727.195 848.944 730.809C855.078 759.994 861.73 779.143 872.269 788.171C885.631 790.979 899.698 795.672 913.736 800.222C927.717 804.758 941.856 809.135 956.023 813.411C1007.74 829.105 1066.44 844.669 1107.19 827.392C1141.95 812.648 1154.62 776.681 1149.3 752.204C1143.67 725.971 1122.58 708.002 1096.79 692.423C1095.05 691.372 1093.32 690.278 1091.52 689.227C1043.78 661.482 975.418 636.242 900.303 643.11C848.844 647.803 798.32 671.704 754.492 702.488C726.445 722.184 700.672 744.098 676.656 767.164C662.704 780.641 648.925 794.06 636.586 806.716C627.86 815.657 619.725 824.354 612.066 832.1C599.798 844.525 589.072 855.266 578.115 864.683C564.998 876.029 553.724 885.531 537.872 898.173C514.201 917.063 479.444 931.634 445.954 939.812C392.753 952.9 338.184 955.938 287.603 939.668C270.527 934.168 254.027 926.35 238.16 916.127C193.957 887.634 157.717 835.93 141.39 780.18C133.586 753.515 129.454 726.043 131.757 698.312C133.384 678.774 137.905 659.322 145.824 642.49C150.475 632.628 156.378 623.787 163.304 616.66C177.831 601.729 195.627 594.991 213.164 591.017C244.812 583.847 277.064 585.718 309.963 591.78C330.985 595.653 352.308 601.384 373.819 608.151C390.665 613.449 408.26 619.655 427.539 618.158C447.336 616.603 469.553 605.444 481.863 585.071" stroke="#21F225" stroke-width="0.8162" stroke-miterlimit="10" stroke-linecap="round" stroke-linejoin="round"/>
<path d="M523.976 529.648C495.482 482.22 254.082 423.418 223.457 237.956C217.107 199.541 219.31 163.503 236.819 137.73C253.909 112.576 278.559 97.444 302.244 85.8678C370.65 52.5793 447.493 56.6972 503.933 105.766C507.85 115.01 510.412 142.107 515.97 175.885C516.762 180.709 517.655 185.633 518.533 190.629C522.953 215.451 528.353 240.994 535.883 264.419C539.9 276.931 544.579 288.853 549.59 299.954C577.033 360.758 616.671 397.775 641.868 419.516C654.639 430.531 663.566 440.567 674.839 450.573C682.917 457.744 691.671 465.778 702.945 476.519C715.327 488.325 729.912 504.797 744.138 522.334C762.164 544.55 781.443 567.53 800.06 594.828C809.232 608.276 818.26 623.063 826.438 638.484C833.493 651.802 839.871 665.437 845.141 679.144C847.891 686.314 850.483 693.528 851.735 699.82C852.671 704.557 852.945 708.43 853.276 712.073C855.968 741.632 858.56 760.019 865.399 767.246C879.279 769.262 893.951 773.682 908.55 778.059C923.093 782.408 937.793 786.684 952.494 790.975C1006.13 806.654 1066.18 824.004 1108.22 810.7C1143.38 799.57 1156.98 768.24 1152.6 748.529C1147.76 726.73 1127.62 713.081 1102.09 701.245C1100.38 700.453 1098.65 699.589 1096.88 698.798C1049.48 677.69 980.023 657.547 903.986 665.235C852.326 670.462 801.558 693.182 757.154 721.863C728.645 740.279 702.311 760.465 677.719 781.659C663.436 794.056 649.283 806.222 636.756 817.467C627.916 825.401 619.752 833.017 612.236 839.568C600.185 850.093 590.135 858.79 580.33 866.608C568.523 876.01 559.539 884.361 545.227 897.363C523.932 916.728 489.837 932.897 457.082 942.328C405.018 957.446 351.572 962.874 301.322 949.326C284.26 944.718 267.703 937.793 251.692 928.506C206.741 902.431 168.96 853.131 150.329 799.57C141.388 773.898 135.815 747.42 136.636 720.28C137.212 701.202 140.596 682.009 147.492 665.091C151.509 655.243 156.808 646.302 163.186 639.002C176.461 623.769 193.12 616.238 209.678 611.329C239.468 602.488 270.381 602.287 302.258 606.073C322.66 608.492 343.538 612.74 364.732 618.081C381.362 622.271 398.798 627.411 417.876 625.295C437.587 623.106 459.688 611.847 472.401 592.093" stroke="#21F225" stroke-width="0.8162" stroke-miterlimit="10" stroke-linecap="round" stroke-linejoin="round"/>
<path d="M525.215 527.558C499.111 474.659 263.442 414.23 226.582 236.139C218.764 198.401 218.188 163.385 234.372 138.231C250.037 113.884 273.506 99.4139 295.751 88.1401C359.967 55.7874 432.188 59.0126 484.9 105.375C486.296 113.538 486.325 141.917 490.976 177.063C491.638 182.059 492.43 187.171 493.251 192.34C497.369 218.184 503.157 244.533 511.421 268.492C515.856 281.335 521.054 293.501 526.626 304.732C557.294 366.37 601.654 399.976 630.105 416.317C644.071 424.337 654.107 431.522 666.446 438.404C675.431 443.415 685.135 449.318 697.618 458.403C711.527 468.525 727.754 484.061 743.534 500.95C763.49 522.317 784.698 544.691 804.798 572.365C814.632 585.899 824.236 601.046 832.716 617.028C839.987 630.749 846.394 644.932 851.419 659.287C854.04 666.759 856.43 674.347 857.251 680.841C857.87 685.779 857.726 689.71 857.625 693.367C856.862 723.315 855.408 740.924 858.547 746.352C872.945 747.59 888.221 751.737 903.368 755.913C918.457 760.074 933.719 764.249 948.967 768.54C1004.53 784.205 1065.82 803.283 1109.26 794.01C1144.74 786.437 1159.35 759.786 1155.9 744.855C1151.88 727.476 1132.67 718.146 1107.38 710.069C1105.68 709.522 1103.98 708.903 1102.22 708.355C1055.14 693.871 984.602 678.839 907.644 687.349C855.782 693.079 804.741 714.647 759.79 741.212C730.82 758.346 703.91 776.804 678.742 796.127C664.142 807.429 649.6 818.357 636.872 828.191C627.917 835.117 619.724 841.654 612.352 847.024C600.517 855.649 591.144 862.329 582.491 868.521C572.023 876.008 565.299 883.164 552.528 896.554C533.638 916.366 500.191 934.147 468.14 944.86C417.2 962.008 364.862 969.826 314.958 958.999C297.896 955.298 281.295 949.251 265.141 940.886C219.412 917.244 180.119 870.335 159.17 818.977C149.106 794.298 142.094 768.813 141.417 742.277C140.956 723.661 143.188 704.741 149.048 687.723C152.432 677.889 157.14 668.861 162.942 661.36C174.965 645.824 190.486 637.502 206.065 631.642C234.012 621.117 263.571 618.856 294.441 620.368C314.238 621.347 334.655 624.083 355.518 628.014C371.917 631.095 389.195 635.17 408.086 632.434C427.725 629.583 449.696 618.252 462.799 599.102" stroke="#21F225" stroke-width="0.8162" stroke-miterlimit="10" stroke-linecap="round" stroke-linejoin="round"/>
<path d="M526.443 525.478C502.73 467.107 272.546 404.965 229.697 234.332C220.382 197.243 217.041 163.321 231.915 138.743C246.154 115.231 268.443 101.394 289.234 90.4371C349.303 58.9915 416.902 61.3384 465.856 105.008C464.733 112.092 462.242 141.752 465.986 178.266C466.518 183.449 467.209 188.733 467.973 194.075C471.788 220.928 477.979 248.111 486.978 272.574C491.83 285.763 497.532 298.174 503.694 309.505C537.588 371.979 586.455 402.301 618.361 413.1C633.422 418.197 644.753 422.416 658.071 426.217C668.021 429.053 678.632 432.811 692.325 440.284C707.774 448.707 725.628 463.321 742.963 479.562C764.848 500.079 787.972 521.864 809.569 549.882C820.065 563.503 830.245 579.01 839.028 595.539C846.515 609.649 852.951 624.379 857.745 639.396C860.236 647.185 862.41 655.133 862.813 661.828C863.116 666.968 862.54 670.957 862.021 674.643C857.774 704.994 852.303 721.825 851.741 725.439C866.658 725.9 882.524 729.759 898.247 733.761C913.898 737.735 929.707 741.824 945.488 746.101C1002.97 761.751 1065.42 782.47 1110.35 777.301C1146.1 773.198 1161.76 751.327 1159.24 741.162C1156.03 728.218 1137.82 723.193 1112.72 718.874C1111.05 718.586 1109.35 718.197 1107.61 717.909C1060.82 710.062 989.244 700.113 911.364 709.472C859.315 715.72 807.999 736.108 762.487 760.585C733.043 776.423 705.528 793.125 679.841 810.604C664.896 820.784 649.994 830.503 637.079 838.926C628.022 844.843 619.801 850.286 612.559 854.476C600.954 861.185 592.257 865.85 584.727 870.429C575.599 875.987 571.15 881.947 559.905 895.741C543.404 915.97 510.605 935.393 479.275 947.373C429.472 966.551 378.214 976.788 328.67 968.639C311.608 965.831 294.964 960.676 278.651 953.247C232.145 932.053 191.326 887.505 168.073 838.35C156.871 814.665 148.42 790.188 146.26 764.242C144.748 746.086 145.857 727.441 150.666 710.321C153.416 700.516 157.534 691.388 162.775 683.699C173.544 667.89 187.928 658.747 202.514 651.937C228.603 639.756 256.838 635.393 286.685 634.659C305.878 634.184 325.848 635.436 346.38 637.942C362.563 639.914 379.683 642.923 398.372 639.569C417.939 636.07 439.781 624.652 453.286 606.107" stroke="#21F225" stroke-width="0.8162" stroke-miterlimit="10" stroke-linecap="round" stroke-linejoin="round"/>
<path d="M527.661 523.396C506.352 459.54 281.366 395.627 232.787 232.524C221.93 196.054 215.854 163.269 229.432 139.253C242.246 116.59 263.368 103.373 282.705 92.7327C338.628 62.2086 401.605 63.6628 446.815 104.626C443.158 110.63 438.148 141.571 440.984 179.438C441.387 184.795 441.978 190.251 442.683 195.78C446.196 223.655 452.791 251.645 462.524 276.626C467.794 290.16 474.028 302.802 480.737 314.248C517.87 377.543 571.144 404.827 606.606 409.867C622.703 412.156 635.403 413.221 649.686 413.999C660.628 414.604 672.147 416.274 687.006 422.119C704.024 428.815 723.476 442.536 742.367 458.129C766.181 477.783 791.219 498.991 814.314 527.37C825.473 541.077 836.243 556.929 845.313 574.035C853.016 588.548 859.481 603.81 864.031 619.49C866.378 627.581 868.638 635.903 868.336 642.8C868.106 648.127 867.314 652.173 866.392 655.888C858.646 686.628 849.172 702.682 844.925 704.496C860.359 704.165 876.831 707.765 893.101 711.566C909.313 715.352 925.67 719.341 941.997 723.631C1001.39 739.268 1064.97 761.513 1111.42 760.577C1147.39 759.843 1164.15 742.867 1162.56 737.454C1160.09 728.959 1142.95 728.196 1118.03 727.663C1116.39 727.634 1114.7 727.49 1112.98 727.433C1066.44 726.266 993.859 721.356 915.058 731.55C862.807 738.303 811.204 757.525 765.159 779.914C735.239 794.456 707.177 809.43 680.901 825.052C665.624 834.137 650.362 842.618 637.246 849.63C628.074 854.539 619.838 858.902 612.725 861.897C601.351 866.691 593.331 869.341 586.938 872.307C579.149 875.921 576.989 880.672 567.256 894.898C553.16 915.501 521.009 936.623 490.399 949.855C441.718 971.049 391.555 983.734 342.385 978.263C325.324 976.362 308.607 972.086 292.179 965.578C244.852 946.832 202.536 904.659 176.994 857.693C164.655 835.001 154.777 811.532 151.135 786.177C148.586 768.482 148.557 750.124 152.315 732.889C154.446 723.113 157.959 713.898 162.624 705.994C172.142 689.911 185.388 679.962 198.994 672.201C223.212 658.379 250.151 651.9 278.962 648.905C297.55 646.976 317.059 646.731 337.274 647.811C353.242 648.675 370.188 650.604 388.69 646.659C408.185 642.498 429.883 630.994 443.806 613.068" stroke="#21F225" stroke-width="0.8162" stroke-miterlimit="10" stroke-linecap="round" stroke-linejoin="round"/>
<path d="M528.896 521.316C509.977 451.989 289.93 386.275 235.908 230.718C223.454 194.852 214.685 163.248 226.981 139.765C238.385 117.98 258.312 105.353 276.209 95.0294C327.97 65.4124 386.326 65.9884 427.792 104.259C421.616 109.183 414.085 141.406 416.015 180.641C416.288 186.17 416.792 191.814 417.426 197.53C420.622 226.413 427.634 255.223 438.087 280.723C443.774 294.588 450.527 307.489 457.798 319.05C498.171 383.165 555.864 407.657 594.854 406.692C612.002 406.275 626.055 404.014 641.303 401.854C653.21 400.17 665.65 399.767 681.704 404.043C700.292 408.996 721.342 421.853 741.773 436.784C767.517 455.588 794.456 476.206 819.062 504.945C830.883 518.739 842.229 534.951 851.602 552.603C859.521 567.52 866.029 583.329 870.334 599.642C872.552 608.05 874.308 616.718 873.876 623.831C873.545 629.36 872.105 633.463 870.766 637.192C859.492 668.321 846.045 683.597 838.097 683.612C854.05 682.503 871.126 685.815 887.958 689.443C904.717 693.043 921.635 696.93 938.51 701.221C999.831 716.843 1064.51 740.513 1112.5 743.911C1148.68 746.474 1166.69 734.394 1165.9 733.804C1164.47 729.686 1148.12 733.228 1123.37 736.511C1121.74 736.727 1120.07 736.828 1118.37 737.029C1072.07 742.572 998.507 742.673 918.784 753.702C866.332 760.959 814.441 779.014 767.863 799.316C737.468 812.562 708.844 825.823 682.006 839.558C666.413 847.549 650.791 854.792 637.458 860.393C628.186 864.294 619.921 867.563 612.938 869.377C601.809 872.271 594.451 872.876 589.196 874.244C582.745 875.914 582.861 879.441 574.654 894.113C562.948 915.062 531.445 937.898 501.554 952.397C454.011 975.621 404.899 990.754 356.118 987.931C339.042 986.952 322.283 983.554 305.725 977.968C257.577 961.698 213.764 921.873 185.932 877.109C172.441 855.411 161.167 832.95 156.013 808.17C152.428 790.936 151.276 772.866 153.968 755.531C155.48 745.783 158.388 736.482 162.492 728.376C170.771 712.019 182.851 701.278 195.492 692.539C217.838 677.09 243.481 668.465 271.256 663.224C289.253 659.826 308.302 658.098 328.172 657.767C343.923 657.508 360.711 658.372 379.011 653.822C398.42 648.999 420.003 637.423 434.315 620.116" stroke="#21F225" stroke-width="0.8162" stroke-miterlimit="10" stroke-linecap="round" stroke-linejoin="round"/>
<path d="M530.112 519.228C513.583 444.43 298.172 376.902 238.995 228.904C224.9 193.628 213.482 163.248 224.497 140.269C234.503 119.391 253.192 107.297 269.664 97.3046C317.192 68.4938 371.012 68.3067 408.721 103.87C400.025 107.7 389.975 141.219 390.982 181.822C391.126 187.538 391.53 193.355 392.091 199.244C394.971 229.149 402.4 258.766 413.588 284.797C419.692 299.008 426.964 312.14 434.796 323.816C478.408 388.752 540.637 410.594 583.04 403.482C601.297 400.415 616.587 394.742 632.857 389.659C645.715 385.642 659.105 383.194 676.325 385.901C696.497 389.069 719.117 401.091 741.117 415.374C768.79 433.329 797.63 453.371 823.748 482.441C836.217 496.321 848.153 512.893 857.829 531.107C865.964 546.426 872.515 562.768 876.561 579.744C878.648 588.455 880.175 597.497 879.339 604.811C878.677 610.542 876.82 614.688 875.063 618.446C860.233 649.949 842.84 664.463 831.192 662.677C847.663 660.791 865.33 663.829 882.737 667.256C900.058 670.683 917.538 674.469 934.945 678.746C998.182 694.353 1064 719.334 1113.5 727.181C1149.91 732.955 1169.04 725.914 1169.16 730.075C1168.57 730.377 1153.22 738.138 1128.61 745.28C1127.02 745.74 1125.35 746.086 1123.66 746.547C1077.6 758.843 1003.05 763.896 922.404 775.775C869.75 783.535 817.571 800.396 770.461 818.624C739.591 830.574 710.406 842.107 682.992 853.986C667.082 860.882 651.1 866.886 637.551 871.076C628.192 873.97 619.913 876.159 613.031 876.792C602.175 877.786 595.48 876.346 591.333 876.116C586.265 875.828 588.597 878.103 581.931 893.249C572.587 914.501 541.76 939.108 512.589 954.859C466.17 980.114 418.137 997.722 369.731 997.535C352.64 997.463 335.823 994.972 319.136 990.279C270.139 976.5 224.842 938.992 194.735 896.431C180.093 875.727 167.408 854.274 160.756 830.085C156.134 813.311 153.859 795.544 155.486 778.079C156.393 768.36 158.683 758.972 162.225 750.65C169.265 734.049 180.193 722.487 191.856 712.783C212.344 695.721 236.677 684.922 263.4 677.45C280.808 672.583 299.396 669.358 318.934 667.63C334.47 666.262 351.1 666.032 369.198 660.892C388.535 655.392 409.988 643.758 424.703 627.056" stroke="#21F225" stroke-width="0.8162" stroke-miterlimit="10" stroke-linecap="round" stroke-linejoin="round"/>
<path d="M531.339 517.141C517.2 436.871 306.122 367.558 242.108 227.104C226.299 192.433 212.304 163.306 222.037 140.787C230.662 120.846 248.127 109.284 263.158 99.6085C306.526 71.7048 355.724 70.6394 389.704 103.496C378.488 106.246 365.558 141.046 366.004 183.017C366.062 188.906 366.321 194.91 366.825 200.972C369.402 231.884 377.235 262.322 389.142 288.872C395.665 303.429 403.454 316.805 411.848 328.582C458.714 394.339 525.579 413.632 571.293 400.271C590.717 394.598 607.159 385.455 624.48 377.479C638.245 371.143 652.614 366.622 671.029 367.789C692.756 369.156 716.988 380.373 740.544 393.993C770.146 411.113 800.886 430.565 828.531 459.98C841.662 473.961 854.174 490.879 864.152 509.654C872.517 525.377 879.083 542.251 882.898 559.889C884.842 568.917 886.167 578.304 884.914 585.834C883.935 591.766 881.646 595.971 879.472 599.743C861.1 631.606 839.747 645.385 824.399 641.786C841.389 639.108 859.66 641.872 877.614 645.126C895.497 648.366 913.523 652.052 931.463 656.328C996.63 671.921 1063.6 698.111 1114.58 710.508C1151.25 719.421 1171.75 717.448 1172.5 726.418C1172.89 731.126 1158.38 743.091 1133.94 754.12C1132.38 754.826 1130.72 755.43 1129.05 756.122C1083.23 775.214 1007.67 785.177 926.122 797.905C873.266 806.155 820.799 821.849 773.156 838.004C741.796 848.644 712.079 858.478 684.089 868.485C667.862 874.287 651.52 879.067 637.755 881.832C628.31 883.732 620.002 884.827 613.235 884.265C602.653 883.372 596.663 879.903 593.582 878.045C589.939 875.842 594.417 876.793 589.32 892.458C582.308 913.969 552.201 940.375 523.751 957.393C478.454 984.678 431.473 1004.78 383.484 1007.21C366.393 1008.07 349.504 1006.46 332.701 1002.68C282.855 991.431 236.061 956.213 203.694 915.855C187.899 896.144 173.818 875.698 165.654 852.1C160.01 835.801 156.612 818.322 157.173 800.727C157.476 791.051 159.16 781.577 162.112 773.025C167.943 756.179 177.691 743.811 188.374 733.113C207.005 714.453 230.028 701.452 255.715 691.762C272.532 685.427 290.659 680.704 309.866 677.58C325.2 675.074 341.643 673.793 359.554 668.048C378.819 661.886 400.142 650.18 415.246 634.083" stroke="#21F225" stroke-width="0.8162" stroke-miterlimit="10" stroke-linecap="round" stroke-linejoin="round"/>
<path d="M532.563 515.067C520.829 429.312 313.783 358.3 245.205 225.304C227.639 191.238 211.11 163.406 219.562 141.291C226.818 122.314 243.045 111.256 256.623 101.897C295.829 74.9008 340.405 72.9571 370.642 103.121C356.906 104.791 341.816 140.873 340.996 184.197C340.881 190.259 341.082 196.45 341.528 202.699C343.789 234.634 352.054 265.864 364.681 292.947C371.621 307.834 379.928 321.455 388.898 333.348C439.018 399.911 510.649 416.684 559.531 397.06C580.178 388.766 597.672 376.182 616.101 365.297C630.759 356.63 646.122 350.035 665.717 349.661C688.999 349.215 714.844 359.639 739.94 372.597C771.458 388.867 804.113 407.743 833.269 437.504C847.048 451.571 860.15 468.849 870.445 488.171C879.026 504.297 885.635 521.719 889.191 540.005C891.006 549.335 892.1 559.097 890.444 566.828C889.134 572.948 886.427 577.21 883.835 581.011C861.892 613.234 836.609 626.264 817.56 620.865C835.054 617.409 853.945 619.9 872.461 622.952C890.89 626.005 909.478 629.59 927.966 633.881C995.047 649.459 1063.24 676.787 1115.65 693.791C1152.62 705.785 1174.04 708.982 1175.83 722.717C1177.01 731.846 1163.49 747.986 1139.27 762.917C1137.73 763.867 1136.08 764.731 1134.44 765.667C1088.91 791.569 1012.31 806.414 929.823 820.02C876.766 828.774 823.996 843.273 775.835 857.369C743.986 866.699 713.721 874.834 685.155 882.954C668.597 887.663 651.924 891.219 637.929 892.558C628.397 893.48 620.075 893.494 613.409 891.708C603.1 888.958 597.787 883.502 595.8 879.945C593.539 875.899 600.191 875.453 596.678 891.637C591.956 913.392 562.598 941.627 534.867 959.913C490.708 989.227 444.778 1011.86 397.177 1016.86C380.072 1018.66 363.111 1017.94 346.208 1015.03C295.498 1006.33 247.206 973.404 212.593 935.22C195.632 916.502 180.183 897.065 170.493 874.056C163.826 858.218 159.32 841.041 158.787 823.317C158.485 813.685 159.564 804.11 161.94 795.356C166.562 778.265 175.129 765.106 184.833 753.414C201.607 733.17 223.32 717.952 247.969 706.059C264.196 698.226 281.863 692.035 300.724 687.514C315.842 683.885 332.126 681.524 349.836 675.203C369.029 668.364 390.209 656.601 405.73 641.123" stroke="#21F225" stroke-width="0.8162" stroke-miterlimit="10" stroke-linecap="round" stroke-linejoin="round"/>
<path d="M533.794 512.974C524.45 421.747 321.177 349.108 248.322 223.484C228.928 190.037 213.911 164.48 217.107 141.789C226.135 125.159 237.984 113.223 250.122 104.181C285.153 78.0914 325.136 75.2694 351.615 102.727C335.345 103.317 317.75 140.695 316.008 185.387C315.763 191.635 315.864 197.999 316.253 204.421C318.196 237.364 326.878 269.414 340.226 297.015C347.597 312.249 356.424 326.1 365.941 338.122C419.329 405.491 495.783 419.745 547.761 393.858C569.66 382.958 588.176 366.919 607.7 353.111C623.236 342.125 639.592 333.428 660.398 331.542C685.22 329.282 712.677 338.9 739.343 351.21C772.79 366.631 807.331 384.931 838.013 415.023C852.455 429.191 866.147 446.814 876.73 466.698C885.527 483.227 892.179 501.181 895.491 520.115C897.175 529.762 898.039 539.869 895.98 547.817C894.339 554.138 891.215 558.443 888.205 562.287C862.706 594.842 833.478 607.152 810.729 599.953C828.741 595.72 848.222 597.923 867.299 600.802C886.29 603.668 905.426 607.166 924.46 611.443C993.47 627.007 1062.94 655.415 1116.7 677.098C1154.01 692.159 1176.41 700.539 1179.13 719.04C1181.14 732.589 1168.57 752.89 1144.56 771.737C1143.04 772.932 1141.41 774.041 1139.78 775.222C1094.57 807.963 1016.91 827.66 933.502 842.13C880.243 851.374 827.171 864.678 778.491 876.714C746.153 884.72 715.355 891.17 686.213 897.419C669.339 901.033 652.306 903.38 638.095 903.279C628.477 903.207 620.126 902.156 613.575 899.147C603.525 894.554 598.831 887.081 598.01 881.84C597.074 875.951 605.915 874.094 604.029 890.81C601.552 912.782 573.001 942.86 545.99 962.412C502.954 993.743 458.089 1018.93 410.877 1026.5C393.758 1029.25 376.739 1029.41 359.721 1027.39C308.132 1021.27 258.358 990.604 221.513 954.609C203.385 936.899 186.568 918.44 175.352 896.037C167.664 880.66 162.063 863.785 160.421 845.931C159.529 836.328 160.004 826.681 161.775 817.696C165.202 800.375 172.588 786.409 181.284 773.71C196.23 751.897 216.603 734.417 240.216 720.336C255.838 711.02 273.044 703.332 291.589 697.414C306.491 692.648 322.602 689.207 340.125 682.31C359.231 674.78 380.296 662.959 396.206 648.1" stroke="#21F225" stroke-width="0.8162" stroke-miterlimit="10" stroke-linecap="round" stroke-linejoin="round"/>
<path d="M535.027 510.892C528.073 414.194 328.313 340.072 251.441 221.676C230.146 188.892 213.055 164.487 214.654 142.299C222.501 126.62 232.925 115.202 243.608 106.477C274.464 81.3086 309.84 77.5939 332.575 102.359C313.785 101.855 293.685 140.528 291.007 186.574C290.633 192.995 290.647 199.546 290.949 206.141C292.576 240.106 301.69 272.963 315.757 301.097C323.547 316.661 332.891 330.771 342.97 342.894C399.612 411.055 480.962 422.79 535.992 390.653C559.158 377.119 578.653 357.667 599.3 340.936C615.7 327.647 633.05 316.848 655.065 313.421C681.413 309.332 710.512 318.173 738.732 329.807C774.109 344.392 810.55 362.102 842.745 392.539C857.834 406.808 872.117 424.777 883.002 445.208C892.015 462.126 898.71 480.627 901.763 500.223C903.318 510.172 903.951 520.654 901.489 528.804C899.517 535.312 895.96 539.674 892.548 543.547C863.492 576.418 830.319 588.038 803.884 579.024C822.414 573.999 842.5 575.943 862.139 578.621C881.692 581.299 901.374 584.697 920.941 588.973C991.866 604.523 1062.69 633.953 1117.75 660.374C1155.46 678.458 1178.78 692.05 1182.44 715.332C1185.26 733.315 1173.61 757.763 1149.87 780.527C1148.37 781.966 1146.75 783.334 1145.13 784.76C1100.26 824.34 1021.5 848.889 937.182 864.223C883.722 873.956 830.348 886.051 781.149 896.058C748.321 902.738 716.991 907.504 687.259 911.867C670.067 914.386 652.689 915.538 638.247 913.983C628.543 912.947 620.163 910.801 613.727 906.583C603.937 900.147 599.862 890.615 600.193 883.733C600.567 875.958 613.814 872.905 611.352 889.981C608.184 911.967 583.362 944.104 557.071 964.91C515.172 998.27 471.358 1026.03 424.536 1036.14C407.402 1039.84 390.311 1040.89 373.177 1039.74C320.725 1036.21 269.438 1007.8 230.362 973.966C211.068 957.264 192.884 939.799 180.141 917.971C171.43 903.055 164.749 886.483 161.985 868.514C160.516 858.953 160.372 849.22 161.553 840.02C163.799 822.468 169.99 807.696 177.693 793.989C190.825 770.621 209.83 750.866 232.407 734.596C247.424 723.769 264.183 714.626 282.382 707.312C297.069 701.423 313.007 696.902 330.343 689.415C349.377 681.208 370.312 669.33 386.625 655.075" stroke="#21F225" stroke-width="0.8162" stroke-miterlimit="10" stroke-linecap="round" stroke-linejoin="round"/>
<path d="M536.25 508.803C531.685 406.634 335.223 331.187 254.535 219.861C231.282 187.782 212.19 164.471 212.176 142.802C218.842 128.058 227.827 117.173 237.085 108.75C263.765 84.4891 294.548 79.8961 313.525 101.968C292.215 100.385 269.596 140.34 266.011 187.753C265.507 194.347 265.42 201.085 265.665 207.867C266.961 242.84 276.507 276.517 291.308 305.17C299.515 321.08 309.378 335.42 320.018 347.659C379.929 416.626 466.188 425.783 524.227 387.441C548.69 371.272 569.135 348.407 590.905 328.754C608.169 313.146 626.497 300.246 649.75 295.307C677.625 289.389 708.351 297.452 738.141 308.424C775.446 322.174 813.774 339.308 847.495 370.077C863.232 384.432 878.105 402.761 889.293 423.753C898.522 441.074 905.26 460.123 908.068 480.367C909.493 490.633 909.911 501.46 907.031 509.825C904.728 516.535 900.754 520.941 896.924 524.843C864.297 558.03 827.193 568.944 797.058 558.131C816.107 552.329 836.797 553.984 856.983 556.49C877.083 558.981 897.341 562.278 917.441 566.554C990.296 582.09 1062.53 612.527 1118.81 643.699C1156.95 664.822 1181.13 683.64 1185.77 711.673C1189.38 734.077 1178.67 762.7 1155.18 789.366C1153.7 791.05 1152.1 792.677 1150.5 794.333C1106 840.738 1026.1 870.139 940.881 886.352C887.219 896.56 833.529 907.459 783.826 915.436C750.509 920.778 718.631 923.888 688.337 926.364C670.829 927.804 653.091 927.746 638.433 924.737C628.628 922.721 620.22 919.511 613.913 914.054C604.353 905.775 600.941 894.184 602.424 885.66C604.123 875.971 617.239 871.421 618.722 889.174C620.58 911.635 593.785 945.355 568.199 967.428C527.424 1002.82 484.69 1033.16 438.256 1045.78C421.122 1050.45 403.959 1052.39 386.71 1052.1C333.394 1051.21 280.596 1025.02 239.288 993.344C218.813 977.65 199.275 961.164 185.006 939.942C175.273 925.486 167.513 909.216 163.625 891.117C161.581 881.586 160.832 871.781 161.408 862.35C162.488 844.568 167.498 828.989 174.179 814.289C185.51 789.351 203.119 767.336 224.688 748.878C239.1 736.553 255.414 725.913 273.282 717.231C287.752 710.19 303.518 704.604 320.666 696.541C339.614 687.643 360.434 675.721 377.136 662.071" stroke="#21F225" stroke-width="0.8162" stroke-miterlimit="10" stroke-linecap="round" stroke-linejoin="round"/>
<path d="M537.478 506.727C535.304 399.072 341.937 322.517 257.65 218.058C232.381 186.742 211.331 164.483 209.718 143.317C215.204 129.51 222.763 119.157 230.581 111.051C253.086 87.7117 279.262 82.226 294.509 101.592C270.68 98.9279 245.555 140.164 241.034 188.931C240.401 195.712 240.214 202.623 240.401 209.578C241.38 245.573 251.358 280.042 266.865 309.227C275.504 325.469 285.885 340.054 297.072 352.422C360.251 422.181 451.464 428.761 512.483 384.228C538.256 365.409 559.637 339.161 582.53 316.556C600.657 298.659 619.965 283.628 644.442 277.163C673.814 269.402 706.21 276.702 737.541 287.011C776.761 299.912 816.99 316.484 852.236 347.584C868.621 362.04 884.085 380.714 895.575 402.254C905.02 419.978 911.802 439.56 914.35 460.466C915.646 471.034 915.833 482.221 912.565 490.803C909.944 497.699 905.538 502.163 901.291 506.094C865.108 539.598 824.059 549.806 790.223 537.194C809.791 530.614 831.071 531.981 851.833 534.3C872.495 536.603 893.3 539.814 913.947 544.09C988.717 559.612 1062.42 591.057 1119.88 626.981C1158.49 651.126 1183.55 675.157 1189.1 707.97C1193.54 734.794 1183.71 767.593 1160.52 798.16C1159.05 800.09 1157.48 801.961 1155.89 803.876C1111.76 857.106 1030.74 891.36 944.601 908.465C890.737 919.162 836.744 928.838 786.523 934.784C752.716 938.787 720.306 940.227 689.422 940.817C671.597 941.163 653.498 939.925 638.625 935.447C628.734 932.466 620.282 928.176 614.105 921.481C604.775 911.373 602.025 897.695 604.66 887.544C607.684 875.954 622.902 870.079 626.099 888.336C630.087 911.071 604.199 946.577 579.348 969.916C539.695 1007.34 498.056 1040.28 451.982 1055.41C434.848 1061.04 417.599 1063.88 400.249 1064.44C346.083 1066.21 291.745 1042.22 248.219 1012.71C226.579 998.036 205.687 982.514 189.878 961.896C179.137 947.887 170.311 931.919 165.271 913.706C162.651 904.203 161.297 894.326 161.254 884.679C161.182 866.652 164.998 850.296 170.656 834.573C180.202 808.066 196.4 783.776 216.961 763.158C230.754 749.322 246.621 737.213 264.172 727.149C278.426 718.97 294.02 712.304 310.981 703.68C329.842 694.09 350.532 682.125 367.652 669.095" stroke="#21F225" stroke-width="0.8162" stroke-miterlimit="10" stroke-linecap="round" stroke-linejoin="round"/>
<path d="M538.694 504.635C538.925 391.508 348.509 314.032 260.738 216.254C233.396 185.787 210.445 164.493 207.234 143.831C211.539 130.959 217.673 121.14 224.037 113.35C242.366 90.9323 263.949 84.5539 275.438 101.227C249.09 97.4834 221.46 140.001 216.003 190.136C215.24 197.09 214.952 204.188 215.081 211.315C215.744 248.319 226.153 283.609 242.38 313.312C251.437 329.884 262.336 344.714 274.099 357.198C340.547 427.749 436.712 431.722 500.698 381.012C527.795 359.544 550.098 329.913 574.114 304.371C593.105 284.17 613.378 267.022 639.093 259.031C669.977 249.442 704 256.036 736.914 265.611C778.049 277.763 820.193 293.673 856.951 325.09C873.984 339.646 890.038 358.666 901.83 380.767C911.492 398.895 918.316 419.009 920.62 440.563C921.786 451.434 921.743 462.981 918.072 471.778C915.12 478.862 910.282 483.383 905.632 487.343C865.893 521.149 820.898 530.681 783.362 516.254C803.448 508.897 825.333 509.991 846.642 512.122C867.865 514.238 889.218 517.348 910.412 521.625C987.096 537.131 1062.33 569.57 1120.91 610.26C1160.03 637.429 1185.93 666.672 1192.37 704.265C1197.67 735.524 1188.7 772.498 1165.78 806.953C1164.34 809.127 1162.77 811.258 1161.21 813.403C1117.47 873.444 1035.3 912.563 948.25 930.547C894.185 941.72 839.89 950.186 789.15 954.117C754.854 956.78 721.897 956.55 690.451 955.268C672.295 954.52 653.836 952.115 638.762 946.154C628.769 942.209 620.274 936.824 614.241 928.905C605.127 916.955 603.054 901.203 606.841 889.426C611.189 875.92 628.467 868.764 633.42 887.496C639.496 910.548 614.558 947.81 590.427 972.402C551.912 1011.84 511.367 1047.42 465.638 1065.04C448.504 1071.63 431.198 1075.36 413.704 1076.79C358.689 1081.24 302.824 1059.45 257.066 1032.07C234.245 1018.42 212.014 1003.85 194.665 983.849C182.916 970.286 173.01 954.606 166.847 936.292C163.651 926.818 161.707 916.854 161.045 906.991C159.821 888.72 162.442 871.572 167.078 854.856C174.853 826.779 189.597 800.215 209.178 777.422C222.352 762.088 237.773 748.496 254.993 737.036C269.017 727.72 284.452 719.974 301.225 710.773C320.001 700.479 340.576 688.47 358.084 676.059" stroke="#21F225" stroke-width="0.8162" stroke-miterlimit="10" stroke-linecap="round" stroke-linejoin="round"/>
<path d="M539.913 502.554C542.533 383.957 354.983 305.803 263.843 214.447C234.37 184.902 209.576 164.485 204.767 144.342C207.877 132.406 212.585 123.119 217.524 115.647C231.677 94.1503 248.653 86.8936 256.399 100.86C227.516 96.0221 197.395 139.836 191.017 191.338C190.138 198.479 189.735 205.75 189.793 213.05C190.138 251.076 200.966 287.172 217.912 317.408C227.386 334.326 238.819 349.387 251.129 361.985C320.845 433.313 421.992 434.681 488.915 377.823C517.337 353.677 540.547 320.705 565.7 292.197C585.541 269.707 606.807 250.428 633.76 240.925C666.142 229.507 701.835 235.31 736.304 244.237C779.369 255.539 823.398 270.888 861.683 302.636C879.364 317.293 896.008 336.659 908.103 359.321C917.994 377.852 924.848 398.513 926.892 420.715C927.929 431.902 927.656 443.795 923.581 452.809C920.298 460.08 915.043 464.658 909.975 468.661C866.694 502.77 817.74 511.611 776.504 495.384C797.107 487.235 819.597 488.055 841.468 489.999C863.253 491.943 885.152 494.938 906.879 499.214C985.493 514.721 1062.28 548.139 1121.94 593.579C1161.6 623.787 1188.32 658.242 1195.66 700.601C1201.8 736.28 1193.69 777.444 1171.06 815.786C1169.63 818.205 1168.09 820.595 1166.54 822.985C1123.2 889.836 1039.86 933.808 951.902 952.684C897.635 964.332 843.052 971.574 791.78 973.504C756.994 974.814 723.49 973 691.468 969.775C672.995 967.975 654.162 964.346 638.886 956.917C628.793 952.007 620.255 945.528 614.366 936.385C605.468 922.577 604.071 904.767 609.01 891.362C614.683 875.942 634.019 867.533 640.729 886.712C648.907 910.094 624.92 949.084 601.494 974.958C564.102 1016.42 524.68 1054.64 479.297 1074.72C462.163 1082.3 444.784 1086.93 427.175 1089.18C371.339 1096.33 313.905 1076.72 265.93 1051.48C241.943 1038.86 218.359 1025.25 199.468 1005.84C186.712 992.74 175.74 977.334 168.426 958.918C164.668 949.459 162.12 939.423 160.824 929.359C158.462 910.829 159.888 892.888 163.473 875.179C169.491 845.533 182.781 816.708 201.369 791.727C213.91 774.881 228.884 759.806 245.802 746.977C259.595 736.51 274.857 727.684 291.458 717.922C310.133 706.936 330.607 694.885 348.518 683.078" stroke="#21F225" stroke-width="0.8162" stroke-miterlimit="10" stroke-linecap="round" stroke-linejoin="round"/>
<path d="M541.146 500.482C546.156 376.413 361.413 297.814 266.961 212.648C235.314 184.111 208.721 164.501 202.314 144.862C204.243 133.876 207.526 125.122 211.01 117.937C220.988 97.3768 233.356 89.2131 237.359 100.472C205.956 94.5548 173.417 139.679 166.016 192.52C165.022 199.834 164.49 207.292 164.504 214.779C164.447 253.813 175.792 290.715 193.459 321.484C203.365 338.733 215.301 354.038 228.173 366.752C301.157 438.858 407.286 437.605 477.16 374.613C506.907 347.804 531.038 311.477 557.315 280.018C578.019 255.238 600.236 233.828 628.442 222.799C662.321 209.553 699.684 214.578 735.694 222.842C780.688 233.295 826.604 248.097 866.415 280.162C884.743 294.92 901.992 314.631 914.389 337.841C924.497 356.774 931.393 377.968 933.193 400.833C934.1 412.322 933.596 424.575 929.119 433.804C925.505 441.277 919.832 445.899 914.346 449.93C867.509 484.327 814.61 492.491 769.688 474.465C790.81 465.538 813.89 466.085 836.322 467.842C858.654 469.598 881.115 472.507 903.389 476.768C983.918 492.261 1062.32 526.687 1123.02 576.879C1163.23 610.124 1190.75 649.777 1199 696.916C1205.97 737.015 1198.72 782.384 1176.39 824.599C1174.98 827.263 1173.47 829.898 1171.93 832.533C1128.99 906.179 1044.49 955.018 955.611 974.786C901.128 986.91 846.257 992.914 794.467 992.842C759.191 992.798 725.14 989.329 692.557 984.217C673.753 981.338 654.546 976.514 639.082 967.616C628.874 961.742 620.307 954.168 614.562 943.816C605.865 928.151 605.145 908.281 611.25 893.25C618.233 875.9 639.643 866.267 648.11 885.878C658.361 909.635 635.338 950.324 612.647 977.45C576.392 1020.95 538.093 1061.79 493.027 1084.36C475.922 1092.92 458.457 1098.44 440.718 1101.53C384.062 1111.41 325.072 1093.99 274.866 1070.85C249.698 1059.26 224.775 1046.58 204.358 1027.8C190.579 1015.13 178.571 1000.01 170.091 981.525C165.757 972.079 162.618 961.972 160.703 951.692C157.219 932.902 157.435 914.184 159.983 895.481C164.245 864.237 176.051 833.166 193.66 806.011C205.553 787.668 220.11 771.096 236.711 756.899C250.274 745.294 265.363 735.388 281.792 725.05C300.38 713.359 320.739 701.279 339.039 690.092" stroke="#21F225" stroke-width="0.8162" stroke-miterlimit="10" stroke-linecap="round" stroke-linejoin="round"/>
<path d="M542.373 498.388C549.774 368.833 367.853 290.046 270.061 210.828C236.211 183.414 207.861 164.494 199.855 145.359C200.604 135.309 202.462 127.102 204.506 120.22C210.323 100.624 218.084 91.5246 218.343 100.091C184.421 93.094 149.361 139.499 141.039 193.694C139.916 201.195 139.282 208.826 139.239 216.486C138.865 256.528 150.7 294.208 169.029 325.538C179.396 343.104 191.821 358.668 205.24 371.511C281.493 444.409 392.604 440.493 465.415 371.396C496.501 341.894 521.525 302.242 548.953 267.83C570.507 240.762 593.703 217.235 623.161 204.68C658.523 189.605 697.571 193.852 735.136 201.455C782.059 211.073 829.861 225.312 871.198 257.679C890.19 272.553 908.015 292.581 920.714 316.366C931.037 335.689 938.02 357.43 939.518 380.956C940.31 392.763 939.547 405.361 934.68 414.807C930.72 422.466 924.644 427.146 918.741 431.206C868.362 465.906 811.504 473.393 762.881 453.552C784.507 443.848 808.206 444.107 831.2 445.676C854.093 447.246 877.116 450.053 899.923 454.33C982.381 469.808 1062.39 505.256 1124.12 560.185C1164.91 596.497 1193.2 641.318 1202.36 693.224C1210.17 737.743 1203.78 787.316 1181.74 833.404C1180.34 836.313 1178.86 839.207 1177.33 842.086C1134.8 922.515 1049.13 976.234 959.344 996.895C904.66 1009.48 849.5 1014.26 797.177 1012.2C761.427 1010.79 726.828 1005.68 693.669 998.695C674.548 994.721 654.952 988.717 639.302 978.351C628.978 971.511 620.382 962.844 614.782 951.268C606.301 933.745 606.272 911.817 613.515 895.158C621.837 875.893 645.277 865.051 655.514 885.065C667.868 909.225 645.795 951.57 623.809 979.963C588.678 1025.49 551.545 1068.99 506.767 1094.01C489.676 1103.56 472.139 1109.98 454.271 1113.89C396.822 1126.51 336.249 1111.25 283.825 1090.22C257.491 1079.67 231.215 1067.92 209.257 1049.77C194.471 1037.54 181.411 1022.7 171.765 1004.12C166.869 994.693 163.126 984.513 160.592 974.017C155.97 954.954 154.991 935.459 156.503 915.762C159.008 882.92 169.331 849.617 185.976 820.288C197.235 800.433 211.345 782.392 227.629 766.813C240.962 754.056 255.879 743.07 272.134 732.185C290.621 719.788 310.865 707.68 329.583 697.097" stroke="#21F225" stroke-width="0.8162" stroke-miterlimit="10" stroke-linecap="round" stroke-linejoin="round"/>
<path d="M543.601 496.303C553.392 361.277 374.336 282.533 273.175 209.016C237.122 182.812 207.001 164.497 197.397 145.852C196.965 136.738 197.397 129.078 197.987 122.498C199.658 103.852 202.782 93.8311 199.298 99.7056C162.856 91.6282 125.277 139.315 116.048 194.877C114.795 202.552 114.061 210.37 113.96 218.202C113.283 259.266 125.521 297.752 144.57 329.601C155.354 347.498 168.327 363.293 182.279 376.265C261.944 449.797 377.907 443.375 453.656 368.174C486.066 335.994 512.011 293.001 540.563 255.623C562.981 226.28 587.141 200.608 617.838 186.527C654.683 169.637 695.415 173.079 734.535 180.033C783.388 188.801 833.076 202.48 875.939 235.178C895.578 250.152 913.994 270.525 926.995 294.858C937.535 314.584 944.561 336.872 945.814 361.032C946.476 373.141 945.482 386.099 940.213 395.761C935.922 403.608 929.429 408.33 923.108 412.434C869.187 447.421 808.369 454.232 756.046 432.591C778.19 422.095 802.494 422.095 826.035 423.477C849.49 424.859 873.06 427.566 896.399 431.842C980.772 447.306 1062.44 483.777 1125.16 543.443C1166.55 582.822 1195.59 632.826 1205.66 689.498C1214.31 738.437 1208.77 792.214 1187.04 842.176C1185.66 845.343 1184.19 848.468 1182.69 851.606C1140.58 938.816 1053.73 997.402 963.034 1018.99C908.148 1032.04 852.701 1035.59 799.845 1031.54C763.619 1028.78 728.459 1022.01 694.724 1013.14C675.287 1008.07 655.302 1000.89 639.464 989.051C629.025 981.247 620.386 971.471 614.944 958.686C606.679 939.306 607.327 915.318 615.707 897.033C625.368 875.853 650.853 863.816 662.832 884.204C677.273 908.781 656.151 952.782 634.9 982.428C600.906 1029.97 564.925 1076.13 520.449 1103.6C503.387 1114.14 485.763 1121.46 467.751 1126.21C409.525 1141.57 347.368 1128.48 292.699 1109.56C265.184 1100.05 237.568 1089.22 214.07 1071.7C198.275 1059.9 184.151 1045.33 173.352 1026.69C167.895 1017.27 163.561 1007.01 160.379 996.322C154.635 976.986 152.46 956.699 152.921 936.023C153.684 901.582 162.51 866.048 178.19 834.53C188.801 813.178 202.48 793.639 218.462 776.693C231.564 762.799 246.308 750.733 262.39 739.272C280.777 726.17 300.92 714.032 320.026 704.054" stroke="#21F225" stroke-width="0.8162" stroke-miterlimit="10" stroke-linecap="round" stroke-linejoin="round"/>
<path d="M544.83 494.217C557.025 353.72 380.907 275.236 276.275 207.204C238.005 182.324 206.127 164.485 194.926 146.358C193.313 138.18 192.334 131.081 191.47 124.789C189.022 107.108 187.496 96.1514 180.254 99.319C141.292 90.1474 101.194 139.144 91.0428 196.06C89.6606 203.907 88.8399 211.913 88.6671 219.932C87.6736 262.004 100.33 301.311 120.113 333.692C131.314 351.935 144.806 367.96 159.333 381.048C242.238 455.386 363.211 446.286 441.897 364.979C475.647 330.107 502.427 283.745 532.174 243.459C555.398 211.783 580.566 184.038 612.53 168.43C650.858 149.713 693.275 152.376 733.95 158.668C784.746 166.587 836.292 179.718 880.696 212.733C900.983 227.808 919.988 248.527 933.292 273.422C944.048 293.55 951.117 316.371 952.111 341.194C952.643 353.619 951.42 366.909 945.747 376.8C941.125 384.835 934.214 389.615 927.475 393.747C870.012 429.023 805.235 435.156 749.212 411.702C771.874 400.428 796.769 400.14 820.886 401.349C844.887 402.544 869.019 405.165 892.905 409.427C979.208 424.876 1062.53 462.398 1126.21 526.772C1168.21 569.232 1198 624.391 1208.96 685.843C1218.46 739.202 1213.77 797.198 1192.33 851.018C1190.98 854.431 1189.54 857.814 1188.02 861.183C1146.47 955.232 1058.25 1018.47 966.696 1041.12C911.565 1054.55 855.888 1056.94 802.485 1050.91C765.784 1046.76 730.062 1038.38 695.766 1027.63C675.997 1021.46 655.624 1013.1 639.613 999.809C629.059 991.04 620.391 980.155 615.093 966.16C607.03 944.923 608.383 918.877 617.9 898.964C628.901 875.884 656.43 862.652 670.166 883.414C686.709 908.438 666.537 954.052 645.991 984.964C613.12 1034.54 578.334 1083.35 534.117 1113.28C517.099 1124.8 499.389 1133.02 481.233 1138.59C422.244 1156.71 358.474 1145.78 301.573 1128.96C272.892 1120.48 243.908 1110.57 218.884 1093.67C202.081 1082.32 186.906 1068.01 174.941 1049.3C168.922 1039.88 163.984 1029.54 160.183 1018.66C153.315 999.031 149.946 977.981 149.355 956.326C148.376 920.273 155.705 882.536 170.42 848.815C180.383 825.98 193.615 804.944 209.309 786.601C222.167 771.569 236.752 758.409 252.662 746.387C270.933 732.579 290.99 720.398 310.5 711.039" stroke="#21F225" stroke-width="0.8162" stroke-miterlimit="10" stroke-linecap="round" stroke-linejoin="round"/>
<path d="M546.046 492.136C560.632 346.153 387.58 268.158 279.378 205.397C238.905 181.913 202.866 166.003 192.456 146.868C188.741 140.058 187.287 133.06 184.955 127.085C178.403 110.34 172.155 100.045 161.212 98.951C118.68 94.6892 77.1124 138.978 66.0546 197.247C64.5428 205.281 63.6213 213.46 63.3765 221.652C62.0663 264.731 75.1398 304.859 95.6428 337.759C107.262 356.333 121.272 372.603 136.361 385.82C222.505 460.964 348.503 449.158 430.112 361.775C465.201 324.21 492.903 274.551 523.758 231.285C547.846 197.348 573.964 167.443 607.181 150.309C646.992 129.777 691.093 131.649 733.309 137.279C786.035 144.363 839.423 157.004 885.397 190.264C906.303 205.483 925.927 226.504 939.534 251.946C950.505 272.478 957.603 295.846 958.352 321.316C958.741 334.044 957.301 347.694 951.225 357.801C946.272 366.023 938.929 370.846 931.787 375.021C870.739 410.513 802.046 416.056 742.322 390.787C765.503 378.736 791.002 378.175 815.666 379.182C840.229 380.19 864.908 382.71 889.342 386.986C977.559 402.421 1062.58 441.008 1127.21 510.076C1169.85 555.618 1200.36 615.931 1212.22 682.163C1222.56 739.943 1218.66 802.128 1197.59 859.836C1196.25 863.493 1194.83 867.122 1193.34 870.75C1152.18 971.523 1062.84 1039.71 970.374 1063.21C915.042 1077.13 859.091 1078.26 805.141 1070.25C767.965 1064.74 731.682 1054.72 696.809 1042.07C676.724 1034.82 655.962 1025.27 639.764 1010.51C629.095 1000.78 620.384 988.801 615.229 973.596C607.354 950.502 609.427 922.411 620.082 900.857C632.421 875.861 662.009 861.449 677.487 882.585C696.147 908.056 676.897 955.296 657.07 987.462C625.322 1039.06 591.746 1090.52 547.774 1122.91C530.784 1135.42 513.017 1144.53 494.702 1150.94C434.979 1171.83 369.582 1163.05 310.435 1148.33C280.587 1140.9 250.25 1131.9 223.686 1115.63C205.861 1104.72 189.648 1090.67 176.532 1071.91C169.952 1062.49 164.423 1052.08 159.988 1041.01C151.997 1021.08 147.419 999.268 145.792 976.634C143.07 938.954 148.887 899.028 162.652 863.105C171.967 838.772 184.767 816.253 200.145 796.528C212.772 780.344 227.184 766.104 242.922 753.52C261.092 739.007 281.048 726.797 300.961 718.058" stroke="#21F225" stroke-width="0.8162" stroke-miterlimit="10" stroke-linecap="round" stroke-linejoin="round"/>
<path d="M547.282 490.058C564.258 338.603 394.446 261.285 282.485 203.606C239.824 181.62 203.195 165.451 189.992 147.396C185.586 141.377 182.246 135.057 178.43 129.384C167.79 113.546 156.761 101.552 142.161 98.5716C97.6275 89.4863 53.022 138.8 41.0427 198.437C39.4013 206.644 38.379 215.01 38.0767 223.375C36.4641 267.476 49.9407 308.41 71.178 341.829C83.2149 360.748 97.7427 377.262 113.393 390.581C202.777 466.531 333.901 452.119 418.347 358.559C454.817 318.345 483.397 265.331 515.361 219.084C540.328 182.887 567.368 150.808 601.866 132.177C643.145 109.773 688.946 110.896 732.716 115.878C787.371 122.113 842.675 134.178 890.146 167.769C911.714 183.074 931.915 204.456 945.823 230.459C957.025 251.394 964.152 275.295 964.656 301.427C964.915 314.472 963.245 328.453 956.766 338.791C951.482 347.185 943.721 352.08 936.162 356.299C871.601 392.107 798.919 396.945 735.509 369.876C759.209 357.033 785.313 356.198 810.538 357.033C835.663 357.854 860.888 360.273 885.869 364.549C976.002 379.969 1062.72 419.622 1128.31 493.369C1171.57 542.021 1202.8 607.475 1215.57 678.472C1226.75 740.672 1223.74 807.091 1202.93 868.643C1201.61 872.545 1200.21 876.432 1198.74 880.291C1157.91 987.831 1067.46 1060.97 974.072 1085.34C918.539 1099.75 862.328 1099.52 807.817 1089.63C770.18 1082.69 733.335 1071.08 697.887 1056.57C677.47 1048.23 656.291 1037.5 639.949 1021.26C629.136 1010.58 620.425 997.478 615.414 981.064C607.769 956.097 610.519 925.962 622.311 902.781C636.004 875.871 667.636 860.306 684.857 881.789C705.647 907.72 687.304 956.558 668.212 990.005C637.602 1043.64 605.22 1097.75 561.493 1132.59C544.561 1146.1 526.693 1156.1 508.234 1163.33C447.776 1186.99 380.753 1180.45 319.359 1167.74C288.345 1161.39 256.67 1153.24 228.55 1137.63C209.717 1127.13 192.454 1113.34 178.171 1094.54C171.015 1085.12 164.896 1074.62 159.828 1063.36C150.713 1043.13 144.969 1020.54 142.247 996.959C137.842 957.652 142.046 915.523 154.889 877.426C163.528 851.596 175.896 827.565 191 806.486C203.368 789.151 217.593 773.802 233.201 760.7C251.227 745.438 271.111 733.243 291.427 725.108" stroke="#21F225" stroke-width="0.8162" stroke-miterlimit="10" stroke-linecap="round" stroke-linejoin="round"/>
<path d="M281.916 732.073C221.703 753.943 169.409 815.87 147.149 891.676C124.242 969.671 135.112 1062.58 179.79 1117.11C218.276 1164.09 274.544 1178.19 328.264 1187.08C411.312 1200.85 502.885 1204.23 575.192 1142.2C618.689 1104.88 649.847 1048.14 679.32 992.478C697.706 957.778 715.128 907.341 692.206 880.935C673.258 859.108 639.538 875.824 624.52 904.649C611.591 929.457 608.15 961.637 615.579 988.475C627.846 1032.81 664.518 1055.35 698.944 1071.01C787.004 1111.08 883.457 1132.64 977.75 1107.42C1072.04 1082.19 1163.62 1004.13 1204.1 889.833C1254.53 747.464 1214.31 576.817 1129.36 476.664C1044.41 376.51 923.729 337.808 805.376 334.871C779.589 334.223 752.88 335.346 728.662 348.966C795.772 377.835 872.442 373.717 940.517 337.577C948.493 333.344 956.672 328.391 962.287 319.796C969.169 309.256 971.07 294.916 970.94 281.554C970.364 221.442 934.959 173.078 894.875 145.304C845.892 111.368 788.688 99.8781 732.103 94.4932C686.778 90.1738 639.307 89.8858 596.53 114.06C515.066 160.106 473.829 278.833 406.575 355.359C319.092 454.894 183.058 472.114 90.4348 395.357C45.6277 358.224 9.76193 295.808 12.7855 225.099C15.8092 154.39 70.1766 84.0545 123.119 98.1791C148.2 104.874 167.897 127.523 187.522 147.882C244.913 207.432 575.365 270.338 548.498 487.952" stroke="#21F225" stroke-width="0.8162" stroke-miterlimit="10" stroke-linecap="round" stroke-linejoin="round"/>
</g>
</svg>
