<svg width="353" height="990" viewBox="0 0 353 990" fill="none" xmlns="http://www.w3.org/2000/svg">
<mask id="mask0_2_2963" style="mask-type:alpha" maskUnits="userSpaceOnUse" x="-1" y="0" width="354" height="990">
<rect x="353" y="990" width="353.358" height="990" transform="rotate(180 353 990)" fill="#D9D9D9"/>
</mask>
<g mask="url(#mask0_2_2963)">
<path d="M-189.147 515.958C-174.577 473.109 -123.132 193.626 104.201 204.166C147.381 206.167 188.56 225.36 218.321 250.96C248.082 276.56 267.433 308.322 280.881 340.704C319.655 434.032 310.224 538.592 244.957 617.523C229.206 636.571 209.869 654.396 184.226 665.296C162.571 674.496 137.59 678.297 113.012 681.983C18.4453 696.18 -76.1219 710.362 -170.703 724.559C-255.969 737.359 -343.64 750.893 -414.349 788.098C-494.705 830.371 -545.286 899.756 -572.671 972.898C-588.437 1015.01 -595.219 1065.54 -557.942 1101.26C-525.042 1132.78 -466.024 1141.93 -417.689 1132.08C-369.34 1122.25 -329.933 1096.85 -295.435 1069.61C-231.334 1018.99 -176.679 954.368 -179.616 881.211C-181.646 830.745 -211.436 781.403 -252.773 740.512C-294.11 699.621 -346.577 666.26 -400.153 635.088C-436.263 614.082 -473.641 593.521 -502.235 566.409C-554.314 517.038 -571.232 451.699 -574.342 389.744C-578.287 311.403 -561.34 230.183 -501.415 169.999C-441.475 109.829 -331.07 76.7709 -235.553 106.921C-200.781 117.906 -168.76 137.373 -152.043 163.549C-138.783 184.296 -135.889 207.722 -136.594 230.27C-138.682 297.005 -169.984 359.68 -205.633 418.886C-216.475 436.898 -227.951 455.27 -229.577 475.499C-231.204 495.714 -220.55 518.55 -197.124 528.859" stroke="#21F225" stroke-width="0.8162" stroke-miterlimit="10" stroke-linecap="round" stroke-linejoin="round"/>
<path d="M-187.059 517.173C-167.002 476.714 -114.65 203.898 106.016 207.267C148.318 207.915 188.748 224.256 217.818 248.489C246.83 272.678 265.461 303.245 278.592 334.172C316.46 423.34 309.102 524.285 245.347 598.45C230.949 615.21 210.057 630.285 183.046 640.263C179.116 641.731 175.098 643.056 170.995 644.294C151.212 650.169 129.802 653.711 108.953 657.497C98.1547 659.484 87.4568 661.572 76.8886 663.703C20.275 675.322 -32.6526 688.9 -82.5567 700.015C-108.085 705.702 -133.181 710.713 -158.493 716.127C-176.706 720.028 -195.237 724.06 -214.127 728.869C-234.443 734.024 -255.507 739.941 -276.284 746.478C-302.791 754.757 -328.751 764.418 -354.192 775.692C-367.252 781.48 -380.195 787.686 -392.837 794.352C-404.154 800.313 -415.053 806.59 -425.535 813.012C-431.136 816.482 -436.608 820.009 -441.834 823.422C-445.621 825.898 -449.22 828.317 -452.705 830.794C-480.623 850.62 -502.565 873.585 -518.821 898.911C-524.753 910.214 -530.556 921.876 -535.854 933.668C-541.124 945.417 -545.89 957.353 -550.18 969.347C-565.932 1013.38 -574.398 1065.7 -541.196 1102.27C-511.881 1134.55 -457.514 1144.28 -413.945 1135.36C-370.03 1126.36 -334.841 1101.87 -304.188 1074.89C-302.129 1073.07 -300.07 1071.26 -298.025 1069.4C-243.701 1020 -197.972 956.288 -201.673 884.859C-204.192 834.192 -232.787 784.575 -272.065 743.138C-296.859 716.847 -325.713 693.45 -356.295 671.723C-374.134 659.052 -392.52 646.9 -410.82 635.223C-423.764 627.016 -436.795 618.939 -449.321 610.703C-469.306 597.601 -488.139 584.095 -504.077 568.589C-523.069 550.101 -537.179 529.915 -548.452 507.785C-565.313 474.741 -573.649 437.177 -576.788 400.821C-581.77 343.113 -575.319 283.851 -548.107 232.147C-539.065 214.97 -527.69 198.642 -513.71 183.467C-475.526 142.043 -414.161 112.037 -349.686 105.126C-319.003 101.771 -287.63 103.528 -257.451 111.735C-236.128 117.581 -215.653 126.637 -199.081 138.703C-189.204 145.887 -180.738 154.137 -174.316 163.352C-160.71 182.862 -157.096 205.165 -156.822 226.704C-156.477 265.637 -166.469 303.475 -181.645 340.32C-191.263 363.847 -202.997 386.985 -215.481 409.719C-225.199 427.501 -235.638 445.715 -236.631 465.743C-237.639 485.871 -226.869 508.591 -204.048 519.289" stroke="#21F225" stroke-width="0.8162" stroke-miterlimit="10" stroke-linecap="round" stroke-linejoin="round"/>
<path d="M-184.99 518.4C-159.462 480.332 -106.059 214.081 107.825 210.366C149.278 209.646 188.93 223.152 217.309 246.016C245.573 268.78 263.484 298.181 276.298 327.654C313.244 412.675 308.133 510.208 245.717 579.42C232.657 593.904 210.196 606.143 181.861 615.286C177.757 616.61 173.553 617.863 169.277 619.015C148.5 624.63 126.241 628.489 104.888 633.039C93.744 635.414 82.8014 638.02 72.1323 640.742C14.6693 655.428 -35.2779 674.405 -79.3363 688.256C-102.057 695.397 -123.999 701.142 -146.302 707.736C-162.27 712.459 -178.698 717.426 -196.005 723.546C-214.578 730.125 -234.779 737.785 -254.893 745.877C-280.565 756.1 -305.906 767.705 -331.722 780.433C-344.853 786.897 -358.171 793.665 -371.374 800.633C-383.08 806.81 -394.555 813.088 -405.671 819.308C-411.588 822.619 -417.405 825.974 -422.848 828.954C-426.822 831.129 -430.479 833.116 -434.006 835.16C-462.212 851.56 -483.493 870.45 -497.934 892.076C-503.074 903.897 -508.618 916.15 -513.729 928.518C-518.811 940.828 -523.491 953.311 -527.781 965.852C-543.519 1011.8 -553.713 1065.86 -524.527 1103.34C-498.827 1136.36 -449.095 1146.71 -410.292 1138.69C-370.798 1130.52 -339.929 1106.84 -313.033 1080.2C-311.219 1078.4 -309.405 1076.6 -307.619 1074.77C-259.918 1025.85 -219.272 960.914 -223.822 888.563C-226.845 837.694 -254.346 787.905 -291.464 745.819C-315.005 719.125 -342.103 695.109 -370.813 672.792C-387.572 659.805 -404.692 647.221 -421.595 635.4C-433.531 627.049 -445.496 618.986 -456.827 610.88C-474.94 598.008 -491.728 585.179 -506.04 570.795C-523.131 553.647 -536.089 535.678 -547.694 515.132C-565.073 484.406 -574.964 447.576 -579.356 411.926C-586.368 355.341 -582.279 297.288 -557.802 245.843C-549.638 228.695 -539.17 212.324 -526.126 196.976C-490.375 154.89 -431.415 123.358 -369.128 114.028C-339.454 109.579 -309.045 109.824 -279.485 116.577C-258.593 121.357 -238.378 129.29 -221.749 140.319C-211.871 146.87 -203.305 154.544 -196.725 163.169C-182.787 181.44 -178.367 202.606 -177.201 223.152C-175.099 260.27 -183.147 296.683 -196.005 332.563C-204.212 355.442 -214.434 378.134 -225.478 400.58C-234.102 418.117 -243.475 436.187 -243.85 456.028C-244.224 476.07 -233.353 498.661 -211.151 509.776" stroke="#21F225" stroke-width="0.8162" stroke-miterlimit="10" stroke-linecap="round" stroke-linejoin="round"/>
<path d="M-182.905 519.629C-151.906 483.95 -97.3366 224.164 109.623 213.481C150.269 211.379 189.086 222.048 216.788 243.559C244.289 264.911 261.48 293.117 274.006 321.15C310.031 401.996 307.425 496.448 246.103 560.39C234.354 572.643 210.381 582.045 180.678 590.295C176.387 591.49 172.01 592.642 167.546 593.736C145.762 599.064 122.682 603.282 100.797 608.595C89.3212 611.374 78.1338 614.499 67.3352 617.81C9.03705 635.664 -37.8577 659.939 -76.1568 676.511C-96.0407 685.107 -114.874 691.586 -134.138 699.361C-147.874 704.905 -162.215 710.808 -177.894 718.252C-194.755 726.243 -214.034 735.702 -233.514 745.291C-258.308 757.501 -283.073 771.007 -309.263 785.189C-322.481 792.345 -336.159 799.673 -349.909 806.93C-362.018 813.323 -374.026 819.629 -385.789 825.604C-392.024 828.772 -398.186 831.94 -403.845 834.488C-408.006 836.36 -411.72 837.915 -415.277 839.527C-443.785 852.5 -464.375 867.316 -477.016 885.242C-481.379 897.581 -486.634 910.438 -491.558 923.354C-496.468 936.211 -501.032 949.256 -505.323 962.344C-521.046 1010.22 -533.011 1065.92 -507.814 1104.38C-485.756 1138.06 -440.618 1149.1 -406.595 1141.99C-371.521 1134.68 -344.942 1111.84 -321.833 1085.49C-320.278 1083.72 -318.694 1081.93 -317.153 1080.12C-276.119 1031.6 -240.685 965.511 -245.911 892.239C-249.554 841.183 -275.802 791.15 -310.804 748.473C-333.063 721.333 -358.433 696.726 -385.257 673.848C-400.922 660.529 -416.817 647.557 -432.295 635.563C-443.238 627.083 -454.109 618.991 -464.245 611.043C-480.443 598.344 -495.244 586.249 -507.915 573.003C-523.09 557.194 -534.897 541.442 -546.847 522.48C-564.73 494.087 -576.176 457.962 -581.835 423.032C-590.877 367.584 -589.164 310.697 -567.422 259.526C-560.151 242.407 -550.562 225.993 -538.453 210.472C-505.121 167.695 -448.58 134.579 -388.467 122.916C-359.801 117.359 -330.357 116.135 -301.416 121.405C-280.971 125.134 -261.001 131.93 -244.313 141.922C-234.436 147.84 -225.783 154.924 -219.015 162.987C-204.732 180.02 -199.549 200.062 -197.447 219.586C-193.646 254.89 -199.65 289.892 -210.233 324.793C-216.985 347.053 -225.725 369.283 -235.343 391.428C-242.859 408.734 -251.181 426.646 -250.922 446.299C-250.648 466.255 -239.691 488.731 -218.094 500.235" stroke="#21F225" stroke-width="0.8162" stroke-miterlimit="10" stroke-linecap="round" stroke-linejoin="round"/>
<path d="M-180.815 520.856C-144.345 487.582 -88.4799 234.088 111.439 216.579C151.307 213.081 189.246 220.913 216.3 241.085C243.038 261.012 259.524 288.038 271.733 314.617C306.836 391.33 307.052 483.161 246.479 541.344C236.012 551.394 210.541 557.945 179.484 565.289C175.021 566.34 170.457 567.419 165.821 568.442C143.014 573.467 119.113 578.074 96.7237 584.136C84.9029 587.332 73.4707 590.96 62.5713 594.848C3.43804 615.884 -40.2892 645.414 -72.9442 664.751C-89.9197 674.801 -105.743 682 -121.956 690.97C-133.474 697.349 -145.727 704.188 -159.78 712.927C-174.941 722.358 -193.298 733.56 -212.131 744.69C-236.061 758.843 -260.236 774.278 -286.786 789.929C-300.075 797.761 -314.128 805.651 -328.44 813.211C-340.952 819.819 -353.507 826.155 -365.918 831.899C-372.469 834.937 -378.977 837.918 -384.852 840.02C-389.2 841.575 -392.972 842.712 -396.557 843.893C-425.397 853.439 -445.266 864.18 -456.108 878.42C-459.693 891.263 -464.661 904.74 -469.412 918.216C-474.135 931.635 -478.598 945.227 -482.889 958.862C-498.597 1008.65 -512.362 1065.91 -491.124 1105.46C-472.738 1139.72 -432.164 1151.54 -402.921 1145.32C-372.268 1138.84 -349.994 1116.88 -330.642 1090.82C-329.332 1089.06 -328.008 1087.31 -326.712 1085.49C-292.329 1037.36 -261.992 970.136 -268.039 895.942C-272.215 844.685 -297.282 794.421 -330.167 751.154C-351.146 723.568 -374.787 698.371 -399.739 674.916C-414.31 661.281 -428.968 647.905 -443.035 635.739C-452.969 627.143 -462.76 619.023 -471.701 611.219C-486.013 598.736 -498.784 587.318 -509.828 575.223C-523.088 560.768 -533.743 547.248 -546.039 529.84C-564.426 503.808 -577.441 468.36 -584.353 434.165C-595.425 379.84 -596.073 324.119 -577.082 273.236C-570.703 256.146 -561.992 239.689 -550.834 223.98C-519.921 180.498 -465.798 145.813 -407.86 131.818C-380.187 125.137 -351.736 122.459 -323.4 126.245C-303.416 128.923 -283.69 134.582 -266.931 143.538C-257.054 148.822 -248.314 155.315 -241.374 162.802C-226.774 178.583 -220.813 197.502 -217.775 216.032C-212.29 249.508 -216.235 283.128 -224.557 317.035C-229.87 338.676 -237.112 360.46 -245.29 382.274C-251.697 399.35 -258.969 417.103 -258.076 436.569C-257.169 456.438 -246.097 478.799 -225.118 490.706" stroke="#21F225" stroke-width="0.8162" stroke-miterlimit="10" stroke-linecap="round" stroke-linejoin="round"/>
<path d="M-178.726 522.074C-136.77 491.19 -79.5087 243.844 113.254 219.684C152.374 214.774 189.391 219.785 215.798 238.618C241.743 257.119 257.552 282.964 269.445 308.103C303.626 380.641 307.125 470.615 246.854 522.305C237.611 530.224 210.715 533.838 178.305 540.303C173.669 541.224 168.917 542.203 164.108 543.168C140.294 547.89 115.572 552.887 92.6646 559.682C80.4981 563.282 68.8212 567.443 57.821 571.892C-2.14733 596.124 -42.563 630.795 -69.7179 652.983C-83.7273 664.429 -96.6281 672.435 -109.759 682.585C-119.089 689.799 -129.24 697.603 -141.637 707.624C-155.113 718.509 -172.535 731.424 -190.72 744.109C-213.8 760.206 -237.37 777.57 -264.295 794.689C-277.671 803.199 -292.083 811.65 -306.956 819.512C-319.872 826.337 -332.974 832.686 -346.033 838.201C-352.887 841.095 -359.754 843.888 -365.83 845.558C-370.38 846.811 -374.196 847.516 -377.81 848.265C-406.995 854.399 -426.144 861.051 -435.172 871.59C-437.98 884.951 -442.674 899.018 -447.223 913.057C-451.759 927.037 -456.136 941.176 -460.412 955.344C-476.106 1007.06 -491.67 1065.76 -474.393 1106.51C-459.649 1141.27 -423.682 1153.94 -399.205 1148.63C-372.972 1143 -355.003 1121.9 -339.424 1096.11C-338.373 1094.37 -337.279 1092.64 -336.228 1090.85C-308.483 1043.1 -283.243 974.738 -290.111 899.623C-294.804 848.164 -318.705 797.641 -349.489 753.813C-369.185 725.765 -391.099 699.993 -414.165 675.977C-427.642 662.025 -441.061 648.246 -453.717 635.906C-462.658 627.181 -471.355 619.046 -479.101 611.386C-491.526 599.119 -502.267 588.392 -511.684 577.435C-523.03 564.319 -532.532 553.045 -545.174 537.193C-564.064 513.522 -578.635 478.765 -586.813 445.275C-599.901 392.074 -602.939 337.504 -586.67 286.924C-581.169 269.847 -573.351 253.347 -563.129 237.48C-534.635 193.278 -482.931 157.038 -427.181 140.71C-400.516 132.906 -373.044 128.774 -345.313 131.078C-325.775 132.705 -306.323 137.226 -289.491 145.145C-279.629 149.796 -270.788 155.699 -263.661 162.624C-248.73 177.152 -241.992 194.948 -238.018 212.485C-230.848 244.132 -232.72 276.384 -238.781 309.284C-242.654 330.305 -248.385 351.629 -255.152 373.14C-260.45 389.986 -266.656 407.58 -265.159 426.859C-263.604 446.657 -252.445 468.873 -232.072 481.184" stroke="#21F225" stroke-width="0.8162" stroke-miterlimit="10" stroke-linecap="round" stroke-linejoin="round"/>
<path d="M-176.648 523.296C-129.221 494.802 -70.4184 253.403 115.044 222.778C153.459 216.428 189.497 218.631 215.27 236.139C240.423 253.23 255.556 277.879 267.132 301.564C300.421 369.97 296.303 446.813 247.234 503.254C237.99 507.17 210.893 509.733 177.115 515.291C172.291 516.083 167.367 516.975 162.371 517.854C137.549 522.274 112.006 527.673 88.5805 535.203C76.0685 539.22 64.1468 543.9 53.0458 548.91C-7.75764 576.353 -44.7753 615.992 -66.5165 641.188C-77.5311 653.959 -87.5666 662.886 -97.5733 674.16C-104.744 682.237 -112.778 690.992 -123.519 702.265C-135.325 714.648 -151.797 729.233 -169.334 743.458C-191.55 761.485 -214.53 780.764 -241.828 799.381C-255.276 808.553 -270.063 817.58 -285.484 825.758C-298.802 832.813 -312.437 839.192 -326.144 844.462C-333.314 847.212 -340.528 849.803 -346.82 851.056C-351.557 851.992 -355.43 852.265 -359.073 852.597C-388.632 855.289 -407.019 857.881 -414.246 864.72C-416.262 878.6 -420.682 893.271 -425.059 907.871C-429.408 922.413 -433.684 937.114 -437.975 951.814C-453.654 1005.45 -471.004 1065.5 -457.7 1107.54C-446.57 1142.71 -415.24 1156.3 -395.529 1151.92C-373.73 1147.08 -360.081 1126.94 -348.245 1101.41C-347.453 1099.7 -346.589 1097.97 -345.798 1096.2C-324.69 1048.8 -304.547 979.344 -312.235 903.307C-317.462 851.646 -340.182 800.878 -368.863 756.474C-387.279 727.966 -407.465 701.632 -428.659 677.04C-441.056 662.757 -453.222 648.603 -464.467 636.077C-472.401 627.237 -480.017 619.073 -486.568 611.557C-497.093 599.506 -505.79 589.456 -513.608 579.651C-523.01 567.844 -531.361 558.86 -544.363 544.548C-563.728 523.253 -579.897 489.158 -589.328 456.402C-604.446 404.339 -609.874 350.893 -596.326 300.643C-591.718 283.581 -584.793 267.023 -575.506 251.012C-549.431 206.061 -500.132 168.281 -446.57 149.649C-420.898 140.708 -394.42 135.136 -367.28 135.957C-348.202 136.533 -329.009 139.916 -312.092 146.813C-302.243 150.83 -293.302 156.129 -286.002 162.507C-270.769 175.782 -263.239 192.441 -258.329 208.999C-249.488 238.788 -249.287 269.701 -253.073 301.579C-255.492 321.981 -259.74 342.858 -265.082 364.052C-269.271 380.682 -274.412 398.119 -272.295 417.196C-270.107 436.907 -258.847 459.008 -239.093 471.722" stroke="#21F225" stroke-width="0.8162" stroke-miterlimit="10" stroke-linecap="round" stroke-linejoin="round"/>
<path d="M-174.558 524.535C-121.659 498.431 -61.2303 262.762 116.861 225.903C154.598 218.084 189.614 217.509 214.768 233.692C239.115 249.357 253.586 272.826 264.859 295.071C297.212 359.287 293.987 431.508 247.625 484.22C239.461 485.617 211.082 485.646 175.936 490.296C170.94 490.958 165.829 491.75 160.66 492.571C134.815 496.689 108.466 502.477 84.5079 510.742C71.6647 515.176 59.4983 520.374 48.2677 525.946C-13.3708 556.614 -46.9761 600.975 -63.318 629.426C-71.3378 643.392 -78.5225 653.427 -85.4048 665.767C-90.4154 674.751 -96.3186 684.455 -105.404 696.939C-115.526 710.847 -131.061 727.074 -147.95 742.854C-169.317 762.81 -191.692 784.019 -219.365 804.119C-232.9 813.953 -248.046 823.556 -264.028 832.037C-277.75 839.308 -291.932 845.715 -306.287 850.74C-313.76 853.36 -321.347 855.75 -327.841 856.571C-332.78 857.19 -336.71 857.046 -340.367 856.945C-370.316 856.182 -387.925 854.728 -393.353 857.867C-394.591 872.265 -398.738 887.542 -402.913 902.688C-407.074 917.778 -411.25 933.04 -415.54 948.287C-431.205 1003.85 -450.283 1065.14 -441.011 1108.58C-433.437 1144.06 -406.786 1158.67 -391.855 1155.22C-374.477 1151.2 -365.147 1131.99 -357.069 1106.7C-356.522 1105 -355.903 1103.3 -355.356 1101.54C-340.871 1054.46 -325.84 983.923 -334.349 906.965C-340.08 855.102 -361.648 804.061 -388.213 759.11C-405.346 730.141 -423.805 703.231 -443.127 678.063C-454.43 663.463 -465.358 648.921 -475.192 636.193C-482.117 627.237 -488.654 619.045 -494.025 611.673C-502.649 599.837 -509.33 590.464 -515.521 581.811C-523.008 571.344 -530.164 564.62 -543.554 551.848C-563.366 532.958 -581.148 499.511 -591.86 467.461C-609.008 416.52 -616.827 364.183 -605.999 314.279C-602.299 297.217 -596.252 280.616 -587.886 264.461C-564.245 218.732 -517.335 179.44 -465.977 158.49C-441.299 148.426 -415.814 141.414 -389.278 140.738C-370.661 140.277 -351.742 142.509 -334.723 148.369C-324.89 151.752 -315.862 156.46 -308.36 162.263C-292.825 174.285 -284.503 189.806 -278.643 205.385C-268.118 233.332 -265.857 262.892 -267.369 293.761C-268.348 313.559 -271.084 333.975 -275.014 354.838C-278.095 371.238 -282.17 388.516 -279.434 407.406C-276.584 427.045 -265.252 449.017 -246.103 462.119" stroke="#21F225" stroke-width="0.8162" stroke-miterlimit="10" stroke-linecap="round" stroke-linejoin="round"/>
<path d="M-172.478 525.764C-114.108 502.05 -51.9655 271.866 118.667 229.017C155.757 219.702 189.679 216.361 214.256 231.235C237.769 245.474 251.605 267.763 262.562 288.554C294.008 348.623 291.661 416.222 247.991 465.176C240.908 464.053 211.247 461.562 174.734 465.306C169.55 465.838 164.266 466.53 158.924 467.293C132.072 471.108 104.888 477.299 80.4256 486.298C67.2369 491.15 54.8257 496.852 43.4943 503.014C-18.9793 536.908 -49.3018 585.775 -60.1005 617.681C-65.1974 632.742 -69.4161 644.073 -73.2172 657.392C-76.0536 667.341 -79.8115 677.952 -87.2842 691.645C-95.7071 707.094 -110.321 724.948 -126.562 742.283C-147.08 764.168 -168.864 787.292 -196.883 808.889C-210.504 819.385 -226.01 829.565 -242.54 838.348C-256.65 845.835 -271.379 852.271 -286.396 857.065C-294.186 859.556 -302.134 861.73 -308.829 862.133C-313.969 862.436 -317.957 861.86 -321.643 861.342C-351.994 857.094 -368.826 851.623 -372.44 851.061C-372.9 865.978 -376.759 881.845 -380.762 897.567C-384.736 913.218 -388.825 929.027 -393.101 944.808C-408.752 1002.29 -429.471 1064.74 -424.302 1109.67C-420.198 1145.42 -398.328 1161.08 -388.163 1158.56C-375.219 1155.35 -370.194 1137.14 -365.874 1112.04C-365.586 1110.37 -365.197 1108.67 -364.91 1106.93C-357.063 1060.14 -347.113 988.564 -356.472 910.684C-362.721 858.635 -383.109 807.32 -407.586 761.807C-423.424 732.363 -440.126 704.848 -457.605 679.162C-467.784 664.216 -477.503 649.314 -485.926 636.399C-491.844 627.343 -497.286 619.121 -501.476 611.879C-508.186 600.274 -512.851 591.578 -517.429 584.047C-522.987 574.919 -528.948 570.47 -542.741 559.225C-562.971 542.725 -582.394 509.926 -594.373 478.595C-613.551 428.792 -623.789 377.534 -615.639 327.99C-612.832 310.929 -607.677 294.284 -600.248 277.971C-579.053 231.465 -534.506 190.646 -485.35 167.393C-461.665 156.192 -437.188 147.74 -411.243 145.58C-393.087 144.068 -374.441 145.177 -357.322 149.986C-347.517 152.736 -338.388 156.854 -330.7 162.095C-314.89 172.865 -305.748 187.248 -298.937 201.834C-286.756 227.923 -282.394 256.158 -281.659 286.005C-281.184 305.198 -282.437 325.168 -284.942 345.7C-286.915 361.884 -289.924 379.003 -286.569 397.692C-283.07 417.259 -271.653 439.101 -253.108 452.607" stroke="#21F225" stroke-width="0.8162" stroke-miterlimit="10" stroke-linecap="round" stroke-linejoin="round"/>
<path d="M-170.397 526.981C-106.541 505.672 -42.6274 280.686 120.475 232.107C156.945 221.251 189.73 215.175 213.746 228.752C236.409 241.566 249.626 262.688 260.267 282.025C290.791 337.948 289.337 400.925 248.374 446.136C242.37 442.478 211.428 437.468 173.561 440.304C168.205 440.707 162.748 441.298 157.219 442.003C129.344 445.516 101.354 452.111 76.3734 461.844C62.8391 467.114 50.1975 473.348 38.751 480.058C-24.5433 517.19 -51.8278 570.464 -56.8672 605.926C-59.1565 622.024 -60.222 634.723 -60.9995 649.006C-61.6042 659.948 -63.2744 671.467 -69.12 686.326C-75.8152 703.344 -89.5366 722.796 -105.13 741.687C-124.783 765.501 -145.992 790.54 -174.371 813.634C-188.078 824.793 -203.93 835.563 -221.035 844.634C-235.548 852.337 -250.81 858.801 -266.49 863.351C-274.582 865.698 -282.904 867.959 -289.801 867.656C-295.128 867.426 -299.174 866.634 -302.889 865.712C-333.629 857.966 -349.683 848.492 -351.497 844.245C-351.166 859.68 -354.765 876.151 -358.566 892.421C-362.353 908.633 -366.341 924.99 -370.632 941.317C-386.268 1000.71 -408.513 1064.29 -407.578 1110.74C-406.843 1146.71 -389.868 1163.47 -384.454 1161.88C-375.959 1159.41 -375.196 1142.27 -374.663 1117.35C-374.635 1115.71 -374.491 1114.02 -374.433 1112.3C-373.267 1065.76 -368.357 993.179 -378.551 914.378C-385.304 862.127 -404.525 810.524 -426.914 764.479C-441.457 734.56 -456.431 706.498 -472.053 680.221C-481.138 664.944 -489.618 649.682 -496.63 636.566C-501.54 627.394 -505.903 619.158 -508.897 612.046C-513.692 600.671 -516.341 592.651 -519.307 586.259C-522.921 578.469 -527.673 576.309 -541.898 566.576C-562.502 552.48 -583.624 520.329 -596.856 489.719C-618.05 441.039 -630.735 390.875 -625.263 341.706C-623.363 324.644 -619.087 307.928 -612.579 291.499C-593.832 244.172 -551.66 201.856 -504.693 176.314C-482.002 163.975 -458.533 154.098 -433.178 150.455C-415.482 147.906 -397.125 147.878 -379.89 151.636C-370.114 153.766 -360.899 157.28 -352.994 161.945C-336.911 171.462 -326.962 184.708 -319.202 198.314C-305.38 222.532 -298.9 249.471 -295.906 278.282C-293.976 296.87 -293.731 316.379 -294.811 336.594C-295.675 352.562 -297.605 369.508 -293.659 388.01C-289.498 407.505 -277.994 429.203 -260.069 443.126" stroke="#21F225" stroke-width="0.8162" stroke-miterlimit="10" stroke-linecap="round" stroke-linejoin="round"/>
<path d="M-168.316 528.217C-98.9892 509.297 -33.2761 289.25 122.282 235.228C158.147 222.774 189.751 214.006 213.235 226.302C235.019 237.705 247.646 257.632 257.97 275.529C287.587 327.29 287.011 385.646 248.741 427.113C243.817 420.936 211.593 413.406 172.359 415.335C166.83 415.609 161.186 416.113 155.469 416.746C126.587 419.942 97.776 426.954 72.2769 437.407C58.4114 443.095 45.5107 449.847 33.949 457.118C-30.166 497.491 -54.6573 555.184 -53.6926 594.175C-53.2751 611.323 -51.0145 625.375 -48.8548 640.623C-47.1702 652.53 -46.7671 664.97 -51.0433 681.024C-55.9963 699.612 -68.8539 720.662 -83.7848 741.093C-102.589 766.837 -123.207 793.776 -151.946 818.383C-165.739 830.204 -181.951 841.549 -199.604 850.923C-214.52 858.842 -230.329 865.35 -246.642 869.655C-255.051 871.872 -263.719 873.629 -270.831 873.197C-276.36 872.865 -280.464 871.426 -284.193 870.087C-315.322 858.813 -330.598 845.365 -330.612 837.417C-329.504 853.37 -332.815 870.447 -336.444 887.278C-340.043 904.037 -343.931 920.955 -348.221 937.83C-363.843 999.152 -387.514 1063.83 -390.912 1111.82C-393.475 1148 -381.395 1166.01 -380.804 1165.22C-376.687 1163.79 -380.228 1147.44 -383.511 1122.69C-383.727 1121.06 -383.828 1119.39 -384.03 1117.69C-389.573 1071.39 -389.674 997.827 -400.703 918.104C-407.959 865.652 -426.015 813.761 -446.316 767.183C-459.562 736.788 -472.823 708.165 -486.559 681.327C-494.55 665.734 -501.792 650.111 -507.393 636.779C-511.295 627.506 -514.563 619.242 -516.378 612.259C-519.272 601.129 -519.876 593.772 -521.244 588.516C-522.914 582.066 -526.442 582.181 -541.114 573.974C-562.063 562.268 -584.898 530.765 -599.397 500.875C-622.622 453.332 -637.754 404.22 -634.932 355.439C-633.953 338.363 -630.555 321.603 -624.968 305.045C-608.699 256.898 -568.873 213.084 -524.109 185.252C-502.411 171.761 -479.95 160.488 -455.171 155.333C-437.936 151.748 -419.867 150.596 -402.531 153.288C-392.784 154.8 -383.483 157.709 -375.376 161.812C-359.02 170.091 -348.279 182.171 -339.539 194.813C-324.09 217.159 -315.466 242.802 -310.225 270.576C-306.827 288.574 -305.099 307.622 -304.768 327.492C-304.509 343.243 -305.372 360.032 -300.823 378.332C-295.999 397.741 -284.423 419.323 -267.117 433.635" stroke="#21F225" stroke-width="0.8162" stroke-miterlimit="10" stroke-linecap="round" stroke-linejoin="round"/>
<path d="M-166.229 529.432C-91.4309 512.903 -23.9036 297.492 124.095 238.316C159.371 224.22 189.751 212.802 212.73 223.817C233.608 233.823 245.702 252.512 255.694 268.984C284.505 316.512 284.692 370.332 249.129 408.041C245.299 399.345 211.78 389.295 171.177 390.303C165.461 390.447 159.644 390.85 153.755 391.411C123.85 394.291 94.2334 401.72 68.2015 412.908C53.9905 419.013 40.8594 426.284 29.1825 434.116C-35.7533 477.728 -57.5953 539.957 -50.4826 582.36C-47.4158 600.617 -41.7429 615.907 -36.6603 632.177C-32.6432 645.035 -30.1955 658.425 -32.9024 675.645C-36.07 695.817 -48.0925 718.437 -62.3754 740.437C-80.3299 768.11 -100.372 796.95 -129.442 823.068C-143.322 835.537 -159.894 847.473 -178.108 857.149C-193.428 865.284 -209.769 871.835 -226.745 875.881C-235.456 877.968 -244.498 879.495 -251.812 878.66C-257.543 877.997 -261.689 876.14 -265.447 874.383C-296.95 859.553 -311.464 842.16 -309.678 830.512C-307.792 846.984 -310.83 864.65 -314.257 882.058C-317.684 899.379 -321.47 916.858 -325.747 934.265C-341.354 997.502 -366.335 1063.32 -374.182 1112.82C-379.956 1149.23 -372.915 1168.37 -377.076 1168.48C-377.378 1167.89 -385.139 1152.54 -392.281 1127.94C-392.741 1126.34 -393.087 1124.67 -393.548 1122.98C-405.844 1076.92 -410.897 1002.37 -422.776 921.725C-430.536 869.07 -447.397 816.891 -465.625 769.781C-477.575 738.911 -489.108 709.726 -500.987 682.312C-507.883 666.402 -513.887 650.42 -518.077 636.871C-520.971 627.512 -523.16 619.234 -523.793 612.351C-524.787 601.495 -523.347 594.8 -523.117 590.653C-522.829 585.585 -525.104 587.917 -540.25 581.251C-561.502 571.907 -586.109 541.08 -601.86 511.91C-627.115 465.49 -644.724 417.458 -644.536 369.051C-644.464 351.96 -641.974 335.143 -637.28 318.456C-623.501 269.459 -585.994 224.162 -543.433 194.056C-522.728 179.413 -501.275 166.728 -477.086 160.076C-460.312 155.454 -442.545 153.179 -425.08 154.806C-415.361 155.713 -405.973 158.003 -397.651 161.545C-381.05 168.585 -369.488 179.514 -359.784 191.176C-342.722 211.665 -331.924 235.998 -324.451 262.721C-319.584 280.128 -316.359 298.716 -314.631 318.254C-313.263 333.79 -313.033 350.42 -307.893 368.518C-302.393 387.855 -290.759 409.308 -274.057 424.023" stroke="#21F225" stroke-width="0.8162" stroke-miterlimit="10" stroke-linecap="round" stroke-linejoin="round"/>
<path d="M-164.142 530.658C-83.8721 516.519 -14.5594 305.442 125.895 241.428C160.565 225.619 189.693 211.624 212.212 221.357C232.153 229.982 243.715 247.447 253.39 262.478C281.294 305.845 282.36 355.044 249.503 389.024C246.753 377.807 211.953 364.878 169.982 365.324C164.093 365.382 158.089 365.641 152.027 366.145C121.115 368.722 90.6768 376.555 64.1266 388.462C49.5701 394.985 36.1942 402.774 24.4165 411.168C-41.3399 458.034 -60.6335 524.899 -47.272 570.613C-41.5991 590.036 -32.4563 606.479 -24.4797 623.8C-18.1445 637.565 -13.6234 651.934 -14.7897 670.349C-16.1575 692.076 -27.3737 716.308 -40.9944 739.864C-58.1138 769.466 -77.5657 800.206 -106.981 827.851C-120.962 840.982 -137.88 853.494 -156.655 863.472C-172.378 871.837 -189.252 878.403 -206.89 882.218C-215.918 884.162 -225.305 885.487 -232.835 884.234C-238.767 883.255 -242.972 880.966 -246.744 878.792C-278.607 860.42 -292.386 839.067 -288.787 823.719C-286.109 840.708 -288.873 858.98 -292.127 876.934C-295.367 894.817 -299.053 912.843 -303.329 930.783C-318.922 995.949 -345.112 1062.92 -357.509 1113.9C-366.422 1150.57 -364.449 1171.07 -373.419 1171.82C-378.127 1172.21 -390.092 1157.7 -401.121 1133.26C-401.827 1131.7 -402.431 1130.04 -403.123 1128.37C-422.214 1082.55 -432.178 1006.99 -444.906 925.442C-453.156 872.586 -468.85 820.119 -485.005 772.476C-495.645 741.116 -505.479 711.399 -515.486 683.409C-521.288 667.182 -526.068 650.84 -528.833 637.075C-530.733 627.63 -531.828 619.322 -531.266 612.555C-530.374 601.972 -526.904 595.983 -525.046 592.902C-522.843 589.259 -523.794 593.737 -539.459 588.64C-560.97 581.628 -587.376 551.521 -604.394 523.071C-631.679 477.774 -651.779 430.793 -654.212 382.804C-655.076 365.713 -653.463 348.824 -649.677 332.021C-638.432 282.175 -603.214 235.381 -562.856 203.014C-543.145 187.219 -522.699 173.138 -499.101 164.974C-482.802 159.33 -465.323 155.932 -447.728 156.493C-438.053 156.796 -428.579 158.48 -420.026 161.432C-403.18 167.263 -390.812 177.011 -380.114 187.694C-361.454 206.325 -348.453 229.348 -338.763 255.034C-332.428 271.851 -327.705 289.979 -324.581 309.186C-322.075 324.52 -320.794 340.963 -315.049 358.874C-308.887 378.139 -297.181 399.462 -281.084 414.566" stroke="#21F225" stroke-width="0.8162" stroke-miterlimit="10" stroke-linecap="round" stroke-linejoin="round"/>
<path d="M-162.067 531.884C-76.3117 520.149 -5.29997 313.104 127.696 244.525C161.762 226.959 189.594 210.43 211.709 218.882C230.686 226.139 241.744 242.365 251.102 255.943C278.099 295.149 280.043 339.726 249.879 369.962C248.208 356.226 212.127 341.137 168.803 340.316C162.741 340.201 156.55 340.402 150.301 340.849C118.366 343.109 87.1362 351.374 60.0533 364.001C45.1656 370.941 31.5449 379.249 19.6521 388.219C-46.9106 438.339 -63.6845 509.97 -44.0598 558.851C-35.7664 579.498 -23.1825 596.992 -12.2974 615.422C-3.62975 630.079 2.96461 645.442 3.33896 665.038C3.78531 688.32 -6.63897 714.164 -19.5973 739.26C-35.8672 770.778 -54.7432 803.433 -84.5042 832.589C-98.5712 846.368 -115.849 859.471 -135.171 869.765C-151.297 878.347 -168.719 884.955 -187.005 888.512C-196.335 890.326 -206.097 891.42 -213.829 889.764C-219.948 888.454 -224.21 885.747 -228.011 883.156C-260.234 861.213 -273.264 835.93 -267.865 816.881C-264.409 834.375 -266.9 853.265 -269.953 871.781C-273.005 890.211 -276.59 908.799 -280.881 927.286C-296.46 994.367 -323.787 1062.56 -340.791 1114.97C-352.785 1151.94 -355.982 1173.36 -369.717 1175.15C-378.846 1176.33 -394.986 1162.81 -409.917 1138.59C-410.867 1137.05 -411.731 1135.4 -412.667 1133.76C-438.569 1088.23 -453.414 1011.63 -467.02 929.143C-475.774 876.086 -490.273 823.317 -504.369 775.155C-513.699 743.306 -521.834 713.041 -529.954 684.475C-534.663 667.918 -538.219 651.244 -539.558 637.249C-540.48 627.718 -540.494 619.396 -538.709 612.729C-535.959 602.42 -530.502 597.107 -526.945 595.12C-522.899 592.86 -522.453 599.512 -538.637 595.999C-560.392 591.276 -588.627 561.918 -606.913 534.187C-636.227 490.028 -658.861 444.098 -663.857 396.498C-665.657 379.393 -664.937 362.432 -662.029 345.528C-653.332 294.818 -620.404 246.527 -582.22 211.913C-563.502 194.952 -544.065 179.503 -521.056 169.813C-505.218 163.147 -488.041 158.64 -470.317 158.107C-460.685 157.805 -451.11 158.885 -442.356 161.261C-425.266 165.882 -412.106 174.449 -400.414 184.154C-380.171 200.927 -364.952 222.64 -353.059 247.29C-345.226 263.516 -339.035 281.183 -334.514 300.044C-330.886 315.163 -328.524 331.447 -322.203 349.157C-315.364 368.349 -303.601 389.529 -288.123 405.05" stroke="#21F225" stroke-width="0.8162" stroke-miterlimit="10" stroke-linecap="round" stroke-linejoin="round"/>
<path d="M-159.975 533.115C-68.7478 523.771 3.89086 320.497 129.515 247.643C162.962 228.248 188.519 213.231 211.21 216.427C227.84 225.455 239.776 237.305 248.818 249.442C274.908 284.473 277.73 324.457 250.272 350.935C249.682 334.665 212.304 317.071 167.612 315.328C161.364 315.084 155 315.184 148.578 315.573C115.635 317.517 83.5847 326.199 55.9834 339.546C40.7502 346.918 26.8991 355.744 14.8767 365.261C-52.4923 418.65 -66.7465 495.104 -40.8586 547.081C-29.9592 568.981 -13.9196 587.497 -0.111804 607.021C10.874 622.556 19.5705 638.913 21.4567 659.718C23.7172 684.541 14.0992 711.998 1.78878 738.663C-13.6317 772.11 -31.9317 806.651 -62.0239 837.334C-76.1917 851.775 -93.815 865.468 -113.699 876.051C-130.228 884.848 -148.183 891.5 -167.116 894.811C-176.763 896.496 -186.87 897.36 -194.818 895.301C-201.139 893.66 -205.444 890.535 -209.288 887.526C-241.843 862.027 -254.153 832.798 -246.954 810.049C-242.721 828.061 -244.924 847.542 -247.803 866.62C-250.669 885.611 -254.167 904.746 -258.444 923.78C-274.008 992.791 -302.416 1062.26 -324.099 1116.02C-339.16 1153.33 -347.539 1175.73 -366.041 1178.46C-379.59 1180.46 -399.891 1167.89 -418.738 1143.89C-419.933 1142.36 -421.042 1140.73 -422.223 1139.11C-454.964 1093.89 -474.661 1016.23 -489.131 932.823C-498.375 879.564 -511.679 826.492 -523.716 777.812C-531.721 745.474 -538.171 714.676 -544.42 685.534C-548.034 668.659 -550.381 651.626 -550.28 637.415C-550.208 627.797 -549.157 619.447 -546.148 612.895C-541.555 602.845 -534.082 598.152 -528.841 597.331C-522.952 596.395 -521.095 605.236 -537.811 603.349C-559.783 600.873 -589.861 572.321 -609.413 545.31C-640.744 502.274 -665.926 457.41 -673.5 410.198C-676.25 393.079 -676.408 376.06 -674.392 359.041C-668.273 307.453 -637.605 257.678 -601.61 220.833C-583.9 202.706 -565.441 185.889 -543.038 174.673C-527.661 166.984 -510.786 161.383 -492.932 159.742C-483.329 158.849 -473.682 159.324 -464.697 161.095C-447.376 164.522 -433.41 171.908 -420.711 180.605C-398.898 195.55 -381.418 215.924 -367.337 239.537C-358.021 255.159 -350.333 272.364 -344.415 290.909C-339.649 305.811 -336.208 321.923 -329.311 339.445C-321.781 358.552 -309.96 379.616 -295.101 395.526" stroke="#21F225" stroke-width="0.8162" stroke-miterlimit="10" stroke-linecap="round" stroke-linejoin="round"/>
<path d="M-157.892 534.347C-61.1943 527.393 12.9275 327.633 131.324 250.761C164.108 229.466 188.513 212.375 210.701 213.974C226.38 221.821 237.798 232.245 246.523 242.928C271.691 273.784 275.406 309.16 250.641 331.895C251.145 313.105 212.472 293.005 166.426 290.327C160.005 289.953 153.454 289.967 146.859 290.269C112.894 291.896 80.0373 301.011 51.9033 315.078C36.3389 322.867 22.2287 332.211 10.1054 342.29C-58.0555 398.932 -69.79 480.282 -37.6532 535.312C-24.119 558.478 -4.66705 577.974 12.0636 598.621C25.3531 615.02 36.1517 632.37 39.5785 654.385C43.6676 680.733 34.8271 709.832 23.1934 738.052C8.60807 773.429 -9.10166 809.87 -39.5394 842.065C-53.808 857.154 -71.7769 871.437 -92.2079 882.322C-109.126 891.335 -127.627 898.03 -147.223 901.083C-157.172 902.638 -167.654 903.271 -175.804 900.809C-182.312 898.837 -186.674 895.28 -190.547 891.868C-223.418 862.812 -235.038 829.639 -226.024 803.204C-220.999 821.734 -222.943 841.82 -225.621 861.459C-228.299 881.012 -231.697 900.694 -235.974 920.261C-251.524 991.186 -280.953 1062.01 -307.374 1117.07C-325.458 1154.78 -339.05 1178.1 -362.332 1181.76C-380.315 1184.58 -404.763 1172.93 -427.527 1149.19C-428.966 1147.69 -430.334 1146.07 -431.76 1144.45C-471.34 1099.58 -495.889 1020.82 -511.223 936.502C-520.956 883.042 -533.051 829.668 -543.058 780.469C-549.738 747.642 -554.504 716.311 -558.867 686.579C-561.386 669.388 -562.538 652.009 -560.983 637.568C-559.947 627.863 -557.801 619.484 -553.583 613.048C-547.147 603.257 -537.615 599.182 -530.733 599.513C-522.958 599.888 -519.905 613.134 -536.982 610.672C-558.968 607.504 -591.104 582.682 -611.91 556.391C-645.27 514.492 -673.03 470.679 -683.137 423.856C-686.838 406.722 -687.889 389.631 -686.737 372.497C-683.209 320.045 -654.802 268.759 -620.966 229.682C-604.264 210.389 -586.799 192.204 -564.972 179.461C-550.055 170.75 -533.483 164.07 -515.514 161.305C-505.954 159.837 -496.22 159.693 -487.02 160.873C-469.469 163.119 -454.696 169.311 -440.989 177.014C-417.621 190.145 -397.867 209.15 -381.597 231.727C-370.769 246.744 -361.626 263.503 -354.312 281.703C-348.423 296.389 -343.902 312.328 -336.415 329.663C-328.208 348.697 -316.33 369.632 -302.076 385.945" stroke="#21F225" stroke-width="0.8162" stroke-miterlimit="10" stroke-linecap="round" stroke-linejoin="round"/>
<path d="M-155.804 535.57C-53.6342 531.005 21.8121 334.542 133.139 253.855C165.218 230.602 188.528 211.51 210.198 211.496C224.941 218.162 235.826 227.147 244.249 236.405C268.51 263.084 273.103 293.868 251.031 312.844C252.615 291.535 212.66 268.916 165.247 265.33C158.652 264.826 151.914 264.74 145.132 264.985C110.159 266.281 76.482 275.827 47.8296 290.628C31.9197 298.835 17.5791 308.698 5.34066 319.338C-63.6265 379.249 -72.7838 465.508 -34.4415 523.547C-18.2723 548.01 4.59196 568.455 24.2455 590.225C39.8531 607.488 52.7538 625.817 57.6924 649.07C63.6101 676.945 55.5471 707.671 44.5757 737.461C30.8254 774.766 13.6916 813.094 -17.0772 846.815C-31.4322 862.552 -49.7611 877.425 -70.7536 888.613C-88.0746 897.842 -107.123 904.58 -127.367 907.388C-137.633 908.813 -148.46 909.231 -156.826 906.351C-163.535 904.047 -167.941 900.073 -171.843 896.244C-205.031 863.617 -215.945 826.513 -205.132 796.378C-199.329 815.427 -200.985 836.117 -203.49 856.303C-205.981 876.403 -209.278 896.661 -213.555 916.761C-229.09 989.616 -259.528 1061.85 -290.7 1118.13C-311.822 1156.27 -330.64 1180.45 -358.674 1185.09C-381.077 1188.7 -409.701 1177.99 -436.366 1154.5C-438.051 1153.02 -439.678 1151.42 -441.334 1149.82C-487.739 1105.32 -517.14 1025.42 -533.352 940.201C-543.561 886.539 -554.46 832.848 -562.436 783.146C-567.778 749.829 -570.888 717.951 -573.365 687.657C-574.805 670.149 -574.747 652.411 -571.738 637.753C-569.722 627.948 -566.511 619.54 -561.054 613.233C-552.775 603.673 -541.185 600.261 -532.661 601.744C-522.971 603.443 -518.421 616.559 -536.174 618.042C-558.635 619.9 -592.356 593.105 -614.428 567.519C-649.819 526.744 -680.156 484.01 -692.783 437.576C-697.448 420.442 -699.392 403.279 -699.104 386.03C-698.211 332.714 -672.021 279.916 -640.345 238.608C-624.651 218.133 -608.165 198.595 -586.942 184.326C-572.486 174.593 -556.217 166.833 -538.118 162.945C-528.586 160.901 -518.781 160.152 -509.35 160.728C-491.569 161.808 -475.99 166.818 -461.289 173.499C-436.352 184.83 -414.337 202.439 -395.879 224.008C-383.554 238.42 -372.914 254.733 -364.231 272.602C-357.191 287.072 -351.604 302.838 -343.541 319.986C-334.643 338.934 -322.722 359.754 -309.072 376.455" stroke="#21F225" stroke-width="0.8162" stroke-miterlimit="10" stroke-linecap="round" stroke-linejoin="round"/>
<path d="M-153.727 536.798C-46.0721 534.624 30.4829 341.257 134.942 256.97C166.258 231.701 188.517 210.651 209.682 209.038C223.49 214.524 233.843 222.083 241.949 229.901C265.288 252.406 270.774 278.582 251.408 293.829C254.072 270 212.836 244.875 164.069 240.354C157.288 239.721 150.376 239.534 143.422 239.721C107.427 240.7 72.9575 250.678 43.7724 266.185C27.5313 274.824 12.946 285.205 0.577932 296.392C-69.1812 359.571 -75.7611 450.784 -31.2276 511.803C-12.4092 537.576 13.8386 558.957 36.4438 581.85C54.3407 599.977 69.3724 619.285 75.8371 643.762C83.5978 673.134 76.2979 705.53 65.9888 736.861C53.0881 776.081 36.5158 816.31 5.41576 851.556C-9.03999 867.942 -27.7144 883.405 -49.2541 894.895C-66.9782 904.34 -86.5597 911.122 -107.466 913.67C-118.034 914.966 -129.221 915.153 -137.803 911.885C-144.699 909.264 -149.163 904.858 -153.094 900.611C-186.598 864.428 -196.806 823.379 -184.194 789.544C-177.614 809.111 -178.981 830.391 -181.3 851.153C-183.603 871.815 -186.814 892.62 -191.09 913.267C-206.612 988.037 -238.057 1061.74 -273.981 1119.2C-298.126 1157.81 -322.157 1182.87 -354.97 1188.42C-381.794 1192.86 -414.593 1183.03 -445.16 1159.84C-447.09 1158.37 -448.961 1156.8 -450.876 1155.21C-504.106 1111.08 -538.36 1030.06 -555.465 943.921C-566.163 890.057 -575.838 836.064 -581.784 785.843C-585.787 752.036 -587.227 719.626 -587.817 688.742C-588.163 670.917 -586.925 652.819 -582.447 637.945C-579.466 628.054 -575.176 619.602 -568.481 613.425C-558.373 604.095 -544.695 601.345 -534.544 603.98C-522.954 607.004 -517.079 622.223 -535.336 625.419C-558.071 629.407 -593.577 603.519 -616.916 578.668C-654.337 539.016 -687.28 497.376 -702.412 451.302C-708.042 434.168 -710.879 416.919 -711.44 399.569C-713.211 345.404 -689.224 291.065 -659.707 247.539C-645.036 225.899 -629.514 205.007 -608.896 189.198C-594.887 178.457 -578.919 169.631 -560.706 164.591C-551.203 161.971 -541.326 160.617 -531.679 160.574C-513.652 160.502 -497.296 164.318 -481.573 169.976C-455.066 179.522 -430.777 195.72 -410.158 216.281C-396.322 230.074 -384.213 245.941 -374.149 263.492C-365.97 277.747 -359.304 293.34 -350.68 310.301C-341.09 329.162 -329.126 349.853 -316.095 366.972" stroke="#21F225" stroke-width="0.8162" stroke-miterlimit="10" stroke-linecap="round" stroke-linejoin="round"/>
<path d="M-151.635 538.014C-38.509 538.245 38.9676 347.829 136.745 260.058C167.212 232.716 188.507 209.765 209.168 206.554C222.04 210.859 231.86 216.993 239.649 223.357C262.067 241.686 268.445 263.268 251.772 274.758C255.516 248.41 212.998 220.779 162.864 215.323C155.909 214.559 148.811 214.272 141.684 214.401C104.681 215.063 69.3909 225.473 39.6875 241.7C23.1152 250.756 8.28508 261.656 -4.19813 273.419C-74.7491 339.867 -78.723 436.032 -28.0127 500.017C-6.545 527.115 23.0864 549.418 48.6288 573.434C68.8294 592.425 85.9776 612.697 93.9686 638.413C103.558 669.297 96.9634 703.32 87.3886 736.234C75.2366 777.369 59.3266 819.513 27.9098 856.271C13.3533 873.304 -5.66668 889.358 -27.7679 901.15C-45.8951 910.811 -66.0094 917.636 -87.5635 919.94C-98.4341 921.106 -109.981 921.063 -118.779 917.391C-125.863 914.44 -130.384 909.602 -134.343 904.951C-168.15 865.212 -177.682 820.218 -163.255 782.682C-155.897 802.768 -156.991 824.653 -159.122 845.962C-161.239 867.185 -164.349 888.537 -168.625 909.732C-184.132 986.416 -216.571 1061.65 -257.26 1120.23C-284.43 1159.35 -313.672 1185.25 -351.266 1191.69C-382.524 1196.99 -419.499 1188.02 -453.954 1165.1C-456.128 1163.66 -458.259 1162.09 -460.404 1160.53C-520.444 1116.79 -559.564 1034.62 -577.547 947.57C-588.72 893.505 -597.186 839.209 -601.117 788.47C-603.781 754.174 -603.55 721.216 -602.269 689.771C-601.52 671.615 -599.116 653.156 -593.155 638.081C-589.21 628.089 -583.825 619.594 -575.906 613.561C-563.956 604.447 -548.204 602.374 -536.426 606.161C-522.921 610.509 -515.765 627.787 -534.497 632.74C-557.548 638.816 -594.811 613.878 -619.403 589.747C-658.839 551.232 -694.417 510.687 -712.041 464.958C-718.635 447.824 -722.364 430.518 -723.789 413.024C-728.239 358.008 -706.454 302.144 -679.069 256.386C-665.419 233.565 -650.848 211.334 -630.849 193.985C-617.286 182.236 -601.607 172.33 -583.292 166.167C-573.818 162.971 -563.855 161.027 -553.992 160.365C-535.721 159.141 -518.572 161.762 -501.856 166.398C-473.78 174.173 -447.215 188.916 -424.423 208.498C-409.089 221.672 -395.497 237.093 -384.036 254.313C-374.721 268.337 -366.974 283.772 -357.774 300.545C-347.479 319.321 -335.471 339.896 -323.06 357.404" stroke="#21F225" stroke-width="0.8162" stroke-miterlimit="10" stroke-linecap="round" stroke-linejoin="round"/>
<path d="M-149.555 539.233C-30.9576 541.853 47.1956 354.303 138.552 263.162C168.097 233.689 188.514 208.896 208.657 204.087C220.593 207.197 229.879 211.905 237.352 216.844C258.849 230.997 266.105 247.972 252.139 255.719C256.977 226.836 213.163 196.715 161.661 190.337C154.52 189.458 147.248 189.055 139.949 189.113C101.923 189.458 65.8268 200.286 35.5907 217.232C18.6728 226.706 3.61238 238.138 -8.98601 250.449C-80.3145 320.165 -81.6823 421.312 -24.824 488.235C-0.678248 516.657 32.2936 539.866 60.8019 565.02C83.2918 584.861 102.571 606.127 112.074 633.08C123.491 665.462 117.689 701.155 108.762 735.624C97.4596 778.689 82.1112 822.718 50.3633 861.003C35.7059 878.684 16.3404 895.328 -6.32231 907.423C-24.8527 917.314 -45.5141 924.168 -67.7161 926.212C-78.9034 927.249 -90.7963 926.975 -99.8096 922.901C-107.081 919.618 -111.659 914.363 -115.662 909.294C-149.771 866.014 -158.612 817.06 -142.385 775.824C-134.236 796.427 -135.056 818.917 -137 840.788C-138.944 862.572 -141.939 884.472 -146.215 906.199C-161.722 984.813 -195.14 1061.6 -240.58 1121.26C-270.788 1160.92 -305.243 1187.64 -347.602 1194.98C-383.281 1201.12 -424.445 1193.01 -462.787 1170.38C-465.206 1168.95 -467.596 1167.41 -469.986 1165.86C-536.837 1122.52 -580.809 1039.18 -599.685 951.222C-611.333 896.955 -618.575 842.372 -620.505 791.1C-621.815 756.314 -620.001 722.81 -616.776 690.788C-614.976 672.315 -611.348 653.482 -603.918 638.206C-599.008 628.113 -592.529 619.575 -583.386 613.686C-569.579 604.788 -551.768 603.391 -538.363 608.33C-522.943 614.003 -514.534 633.339 -533.713 640.049C-557.095 648.227 -596.086 624.24 -621.959 600.814C-663.426 563.422 -701.638 524 -721.724 478.617C-729.297 461.483 -733.934 444.104 -736.18 426.495C-743.336 370.659 -723.725 313.225 -698.485 265.25C-685.858 241.263 -672.252 217.679 -652.843 198.788C-639.741 186.032 -624.335 175.06 -605.919 167.746C-596.46 163.988 -586.424 161.439 -576.36 160.144C-557.83 157.782 -539.89 159.208 -522.18 162.793C-492.534 168.811 -463.709 182.101 -438.728 200.689C-421.882 213.23 -406.807 228.204 -393.979 245.122C-383.511 258.915 -374.685 274.177 -364.923 290.778C-353.937 309.453 -341.886 329.927 -330.079 347.838" stroke="#21F225" stroke-width="0.8162" stroke-miterlimit="10" stroke-linecap="round" stroke-linejoin="round"/>
<path d="M-147.483 540.466C-23.4137 545.476 55.1858 360.734 140.351 266.282C168.888 234.634 188.498 208.041 208.137 201.634C219.123 203.563 227.877 206.846 235.062 210.33C255.623 220.308 263.786 232.676 252.527 236.679C258.445 205.277 213.321 172.737 160.48 165.336C153.165 164.343 145.707 163.81 138.22 163.824C99.1865 163.767 62.284 175.112 31.5152 192.779C14.2662 202.685 -1.03907 214.621 -13.7526 227.493C-85.8586 300.477 -84.606 406.606 -21.614 476.48C5.19537 506.227 41.5219 530.358 72.9819 556.635C97.7611 577.339 119.171 599.556 130.2 627.762C143.447 661.641 138.422 699.004 130.157 735.014C119.704 780.008 104.903 825.924 72.838 865.735C58.0798 884.063 38.3688 901.312 15.1589 913.709C-3.77466 923.817 -24.9687 930.714 -47.833 932.513C-59.3228 933.42 -71.5756 932.916 -80.8048 928.439C-88.2775 924.825 -92.8993 919.152 -96.9308 913.666C-131.328 866.829 -139.492 813.93 -121.465 769.008C-112.538 790.13 -113.085 813.21 -114.842 835.642C-116.599 857.974 -119.507 880.435 -123.769 902.709C-139.261 983.238 -173.687 1061.64 -223.879 1122.34C-257.125 1162.55 -296.777 1190.07 -343.917 1198.32C-384.016 1205.29 -429.384 1198.04 -471.6 1175.71C-474.263 1174.3 -476.898 1172.79 -479.533 1171.25C-553.18 1128.31 -602.018 1043.81 -621.787 954.931C-633.91 900.449 -639.914 845.577 -639.842 793.787C-639.799 758.512 -636.329 724.46 -631.218 691.877C-628.338 673.073 -623.515 653.866 -614.617 638.402C-608.742 628.194 -601.169 619.627 -590.816 613.882C-575.151 605.186 -555.282 604.466 -540.25 610.57C-522.9 617.554 -513.268 638.964 -532.878 647.43C-556.635 657.681 -597.324 634.659 -624.451 611.967C-667.947 575.713 -708.795 537.413 -731.357 492.347C-739.924 475.242 -745.438 457.777 -748.534 440.039C-758.411 383.382 -740.989 324.393 -717.851 274.186C-706.261 249.018 -693.576 224.095 -674.801 203.678C-662.131 189.899 -647.013 177.891 -628.525 169.411C-619.08 165.077 -608.973 161.938 -598.692 160.023C-579.903 156.539 -561.185 156.755 -542.482 159.303C-511.238 163.565 -480.167 175.372 -453.012 192.981C-434.668 204.873 -418.096 219.43 -403.9 236.031C-392.295 249.594 -382.389 264.683 -372.051 281.112C-360.36 299.7 -348.279 320.059 -337.092 338.359" stroke="#21F225" stroke-width="0.8162" stroke-miterlimit="10" stroke-linecap="round" stroke-linejoin="round"/>
<path d="M-145.389 541.694C-15.8343 549.095 62.9525 367.174 142.171 269.382C169.585 235.532 188.504 207.182 207.64 199.176C217.689 199.925 225.896 201.782 232.779 203.827C252.375 209.644 261.474 217.404 252.907 217.663C259.905 183.741 213.5 148.682 159.305 140.36C151.804 139.237 144.172 138.603 136.513 138.56C96.4714 138.186 58.7914 150.021 27.461 168.35C9.89522 178.716 -5.66921 191.142 -18.5124 204.561C-91.4103 280.814 -87.4939 391.924 -18.3972 464.736C11.1047 495.822 50.7572 520.846 85.1688 548.274C112.237 569.828 135.764 593.024 148.319 622.482C163.394 657.844 159.147 696.892 151.544 734.457C141.926 781.38 127.687 829.182 95.3196 870.519C80.4463 889.51 60.4184 907.335 36.6327 920.035C17.3103 930.358 -4.4309 937.341 -27.9575 938.839C-39.764 939.63 -52.3624 938.867 -61.8076 934.001C-69.4674 930.041 -74.1468 923.965 -78.2071 918.062C-112.907 867.683 -120.394 810.825 -100.553 762.202C-90.8487 783.828 -91.1078 807.527 -92.6772 830.521C-94.2466 853.414 -97.0543 876.437 -101.331 899.244C-116.809 981.702 -152.257 1061.71 -207.186 1123.44C-243.498 1164.23 -288.319 1192.52 -340.225 1201.68C-384.744 1209.5 -434.317 1203.1 -480.405 1181.06C-483.314 1179.66 -486.208 1178.18 -489.087 1176.65C-569.516 1134.12 -623.235 1048.45 -643.896 958.665C-656.48 903.981 -661.261 848.821 -659.202 796.498C-657.791 760.748 -652.679 726.149 -645.696 692.99C-641.722 673.869 -635.718 654.273 -625.352 638.623C-618.513 628.299 -609.845 619.703 -598.269 614.102C-580.746 605.622 -558.818 605.593 -542.159 612.835C-522.894 621.158 -512.053 644.598 -532.066 654.835C-556.226 667.189 -598.571 645.116 -626.964 623.13C-672.491 587.999 -715.988 550.866 -741.012 506.088C-750.558 488.997 -756.98 471.46 -760.896 453.592C-773.509 396.143 -758.247 335.57 -737.225 283.146C-726.672 256.812 -714.923 230.536 -696.767 208.578C-684.543 193.791 -669.698 180.732 -651.124 171.086C-641.694 166.19 -631.514 162.447 -621.018 159.913C-601.955 155.291 -582.46 154.312 -562.763 155.823C-529.921 158.329 -496.618 168.652 -467.289 185.297C-447.434 196.556 -429.393 210.666 -413.814 226.95C-401.057 240.283 -390.071 255.2 -379.186 271.455C-366.789 289.942 -354.681 310.186 -344.098 328.904" stroke="#21F225" stroke-width="0.8162" stroke-miterlimit="10" stroke-linecap="round" stroke-linejoin="round"/>
<path d="M-143.304 542.921C-8.27806 552.712 70.4655 373.656 143.982 272.495C170.187 236.442 188.502 206.321 207.147 196.717C216.261 196.286 223.921 196.717 230.501 197.308C249.147 198.978 259.168 202.102 253.293 198.618C261.371 162.176 213.684 124.597 158.121 115.368C150.447 114.115 142.629 113.381 134.796 113.28C93.7329 112.603 55.2466 124.842 23.3978 143.891C5.50093 154.675 -10.2939 167.648 -23.2666 181.599C-96.798 261.264 -90.3764 377.227 -15.1748 452.976C17.0051 485.386 59.998 511.332 97.3756 539.883C126.719 562.301 152.391 586.461 166.472 617.158C183.361 654.003 179.92 694.735 172.966 733.855C164.198 782.708 150.519 832.396 117.821 875.26C102.847 894.899 82.4736 913.314 58.1407 926.316C38.4152 936.855 16.1268 943.881 -8.03328 945.134C-20.1421 945.796 -33.1005 944.803 -42.7616 939.533C-50.6086 935.242 -55.3312 928.749 -59.4347 922.428C-94.4223 868.507 -101.233 807.689 -79.5922 755.366C-69.0959 777.511 -69.0959 801.815 -70.4781 825.356C-71.8603 848.81 -74.5672 872.38 -78.8435 895.719C-94.3071 980.093 -130.778 1061.76 -190.444 1124.48C-229.823 1165.87 -279.827 1194.91 -336.498 1204.98C-385.438 1213.63 -439.215 1208.09 -489.177 1186.36C-492.344 1184.98 -495.469 1183.51 -498.607 1182.01C-585.817 1139.9 -644.403 1053.05 -665.986 962.354C-679.045 907.468 -682.587 852.021 -678.541 799.165C-675.777 762.94 -669.01 727.779 -660.14 694.044C-655.072 674.607 -647.888 654.622 -636.052 638.784C-628.248 628.346 -618.472 619.707 -605.687 614.264C-586.307 606 -562.319 606.648 -544.034 615.027C-522.854 624.688 -510.817 650.173 -531.205 662.153C-555.783 676.594 -599.783 655.472 -629.429 634.22C-676.972 600.226 -723.132 564.245 -750.604 519.769C-761.144 502.707 -768.458 485.084 -773.209 467.072C-788.572 408.846 -775.484 346.689 -756.565 292.019C-747.048 264.504 -736.22 236.888 -718.698 213.391C-706.906 197.596 -692.335 183.471 -673.689 172.673C-664.273 167.216 -654.007 162.882 -643.323 159.7C-623.987 153.955 -603.7 151.781 -583.024 152.242C-548.584 153.005 -513.049 161.831 -481.531 177.51C-460.179 188.122 -440.64 201.8 -423.694 217.782C-409.8 230.884 -397.734 245.628 -386.273 261.711C-373.171 280.097 -361.033 300.24 -351.055 319.347" stroke="#21F225" stroke-width="0.8162" stroke-miterlimit="10" stroke-linecap="round" stroke-linejoin="round"/>
<path d="M-141.218 544.15C-0.720709 556.345 77.7636 380.227 145.795 275.595C170.675 237.325 188.514 205.447 206.642 194.246C214.82 192.633 221.918 191.654 228.21 190.79C245.891 188.342 256.848 186.816 253.68 179.574C262.852 140.612 213.855 100.514 156.939 90.3629C149.092 88.9807 141.087 88.16 133.067 87.9872C90.9955 86.9937 51.6886 99.6497 19.3071 119.433C1.06463 130.635 -14.9605 144.126 -28.0484 158.653C-102.386 241.558 -93.2865 362.531 -11.9801 441.217C22.8923 474.967 69.2543 501.747 109.54 531.494C141.216 554.718 168.962 579.886 184.569 611.85C203.287 650.178 200.623 692.595 194.331 733.27C186.412 784.066 173.281 835.612 140.266 880.016C125.191 900.303 104.472 919.308 79.5779 932.612C59.4492 943.368 36.6282 950.437 11.8057 951.431C-0.619892 951.963 -13.9094 950.74 -23.8009 945.067C-31.8351 940.445 -36.6153 933.534 -40.7476 926.795C-76.0231 869.332 -82.1567 804.555 -58.7021 748.532C-47.4283 771.194 -47.1404 796.089 -48.3498 820.206C-49.5449 844.208 -52.1653 868.339 -56.4272 892.225C-71.8764 978.528 -109.398 1061.85 -173.772 1125.53C-216.232 1167.53 -271.392 1197.32 -332.843 1208.28C-386.203 1217.78 -444.198 1213.09 -498.019 1191.65C-501.431 1190.3 -504.815 1188.86 -508.184 1187.34C-602.233 1145.79 -665.469 1057.57 -688.118 966.016C-701.551 910.886 -703.941 855.208 -697.908 801.805C-693.762 765.104 -685.382 729.382 -674.627 695.086C-668.464 675.317 -660.099 654.944 -646.809 638.933C-638.041 628.379 -627.156 619.711 -613.161 614.413C-591.924 606.35 -565.877 607.703 -545.965 617.221C-522.884 628.221 -509.653 655.75 -530.415 669.486C-555.439 686.029 -601.052 665.858 -631.965 645.311C-681.538 612.44 -730.348 577.654 -760.281 533.438C-771.8 516.419 -780.021 498.709 -785.593 480.553C-803.706 421.564 -792.778 357.794 -775.961 300.893C-767.48 272.212 -757.575 243.228 -740.671 218.204C-729.325 201.402 -715.014 186.226 -696.296 174.261C-686.88 168.243 -676.542 163.304 -665.657 159.503C-646.032 152.635 -624.982 149.266 -603.327 148.676C-567.274 147.696 -529.536 155.025 -495.816 169.74C-472.98 179.704 -451.945 192.935 -433.601 208.629C-418.57 221.487 -405.41 236.072 -393.387 251.982C-379.58 270.254 -367.399 290.31 -358.04 309.82" stroke="#21F225" stroke-width="0.8162" stroke-miterlimit="10" stroke-linecap="round" stroke-linejoin="round"/>
<path d="M-139.137 545.367C6.84636 559.952 84.8412 386.9 147.603 278.698C171.086 238.225 186.996 202.186 206.131 191.776C212.942 188.062 219.939 186.607 225.914 184.275C242.659 177.724 252.954 171.475 254.048 160.532C258.31 118 214.021 76.4327 155.752 65.3749C147.718 63.8631 139.54 62.9416 131.347 62.6969C88.2679 61.3866 48.1402 74.4601 15.2404 94.9631C-3.3332 106.582 -19.6031 120.592 -32.8206 135.681C-107.965 221.825 -96.1581 347.824 -8.77567 429.433C28.7891 464.521 78.4484 492.223 121.715 523.078C155.651 547.166 185.556 573.285 202.69 606.501C223.222 646.312 221.35 690.414 215.721 732.629C208.637 785.355 195.995 838.744 162.735 884.717C147.516 905.623 126.495 925.248 101.054 938.854C80.5218 949.825 57.1535 956.924 31.6832 957.672C18.9552 958.061 5.30577 956.621 -4.80174 950.545C-13.0231 945.592 -17.8465 938.249 -22.022 931.108C-57.5134 870.06 -63.0567 801.366 -37.788 741.642C-25.7367 764.823 -25.1752 790.323 -26.183 814.987C-27.1909 839.55 -29.7106 864.228 -33.9868 888.662C-49.4216 976.88 -88.0087 1061.9 -157.077 1126.53C-202.618 1169.17 -262.932 1199.68 -329.164 1211.54C-386.943 1221.88 -449.129 1217.98 -506.837 1196.91C-510.494 1195.57 -514.122 1194.15 -517.751 1192.66C-618.523 1151.5 -686.713 1062.16 -710.211 969.695C-724.134 914.363 -725.257 858.411 -717.252 804.462C-711.737 767.286 -701.716 731.002 -689.074 696.13C-681.818 676.044 -672.272 655.282 -657.514 639.084C-647.78 628.415 -635.801 619.704 -620.597 614.55C-597.502 606.674 -569.411 608.747 -547.857 619.402C-522.862 631.741 -508.449 661.329 -529.586 676.807C-555.056 695.467 -602.297 676.217 -634.462 656.391C-686.065 624.643 -737.524 591.066 -769.906 547.094C-782.418 530.105 -791.532 512.337 -797.939 494.023C-818.831 434.299 -810.048 368.903 -795.333 309.755C-787.903 279.908 -778.905 249.571 -762.635 223.006C-751.721 205.181 -737.668 188.969 -718.907 175.852C-709.491 169.272 -699.081 163.743 -688.009 159.309C-668.082 151.318 -646.269 146.739 -623.635 145.112C-585.955 142.391 -546.029 148.208 -510.105 161.972C-485.772 171.288 -463.254 184.088 -443.528 199.465C-427.345 212.092 -413.105 226.505 -400.521 242.242C-386.008 260.413 -373.798 280.368 -365.058 300.281" stroke="#21F225" stroke-width="0.8162" stroke-miterlimit="10" stroke-linecap="round" stroke-linejoin="round"/>
<path d="M-137.058 546.602C14.396 563.577 91.7142 393.765 149.393 281.805C171.379 239.144 187.548 202.515 205.604 189.312C211.622 184.906 217.943 181.565 223.616 177.75C239.454 167.11 251.447 156.081 254.428 141.481C263.513 96.9474 214.199 52.3418 154.562 40.3625C146.355 38.7211 137.99 37.6989 129.624 37.3965C85.5229 35.7839 44.5889 49.2606 11.1708 70.4979C-7.74838 82.5348 -24.2631 97.0625 -37.5814 112.713C-113.532 202.097 -99.1191 333.221 -5.55984 417.666C34.6542 454.137 87.6683 482.717 133.915 514.681C170.112 539.648 202.191 566.687 220.823 601.185C243.226 642.465 242.103 688.265 237.121 732.036C230.887 786.691 218.821 841.995 185.23 889.465C169.925 911.034 148.544 931.234 122.541 945.143C101.606 956.345 77.7048 963.472 51.5721 963.976C38.5274 964.235 24.5468 962.565 14.2089 956.086C5.81477 950.802 0.91939 943.041 -3.29927 935.482C-39.1075 870.921 -43.9453 798.239 -16.8768 734.829C-4.03361 758.529 -3.19851 784.632 -4.0336 809.858C-4.8543 834.983 -7.27317 860.208 -11.5494 885.189C-26.9698 975.322 -66.6224 1062.04 -140.37 1127.63C-189.021 1170.89 -254.475 1202.12 -325.473 1214.89C-387.673 1226.07 -454.091 1223.06 -515.644 1202.25C-519.545 1200.93 -523.433 1199.53 -527.292 1198.06C-634.832 1157.23 -707.974 1066.78 -732.336 973.392C-746.748 917.859 -746.518 861.648 -736.627 807.137C-729.687 769.5 -718.082 732.655 -703.568 697.207C-695.232 676.79 -684.505 655.611 -668.264 639.269C-657.581 628.456 -644.478 619.745 -628.064 614.734C-603.098 607.089 -572.963 609.839 -549.782 621.631C-522.871 635.323 -507.307 666.956 -528.789 684.176C-554.72 704.967 -603.559 686.624 -637.006 667.532C-690.639 636.922 -744.747 604.54 -779.591 560.813C-793.096 543.881 -803.103 526.013 -810.331 507.554C-833.987 447.096 -827.45 380.073 -814.737 318.679C-808.387 287.665 -800.238 255.99 -784.63 227.87C-774.134 209.037 -760.34 191.774 -741.536 177.491C-732.12 170.335 -721.624 164.216 -710.364 159.147C-690.135 150.033 -667.544 144.289 -643.96 141.567C-604.653 137.162 -562.524 141.366 -524.427 154.209C-498.596 162.848 -474.566 175.216 -453.487 190.319C-436.151 202.688 -420.803 216.913 -407.701 232.52C-392.439 250.547 -380.243 270.431 -372.108 290.747" stroke="#21F225" stroke-width="0.8162" stroke-miterlimit="10" stroke-linecap="round" stroke-linejoin="round"/>
<path d="M-379.073 281.236C-400.944 221.023 -462.87 168.729 -538.677 146.47C-616.672 123.562 -709.583 134.433 -764.109 179.11C-811.09 217.597 -825.186 273.865 -834.084 327.584C-847.849 410.633 -851.232 502.205 -789.205 574.513C-751.885 618.009 -695.142 649.167 -639.478 678.64C-604.779 697.027 -554.342 714.448 -527.936 691.526C-506.108 672.579 -522.824 638.858 -551.65 623.841C-576.458 610.911 -608.638 607.47 -635.476 614.899C-679.808 627.167 -702.355 663.839 -718.006 698.265C-758.076 786.324 -779.644 882.777 -754.419 977.071C-729.193 1071.36 -651.126 1162.94 -536.834 1203.42C-394.465 1253.85 -223.818 1213.63 -123.664 1128.68C-23.5106 1043.73 15.1917 923.049 18.1289 804.696C18.7768 778.909 17.6537 752.2 4.03309 727.983C-24.8352 795.092 -20.7173 871.763 15.4221 939.837C19.6551 947.814 24.6081 955.992 33.2038 961.607C43.7432 968.49 58.0838 970.39 71.4453 970.261C131.558 969.685 179.921 934.279 207.695 894.195C241.632 845.212 253.121 788.009 258.506 731.424C262.826 686.098 263.114 638.628 238.939 595.851C192.894 514.386 74.1665 473.149 -2.35973 405.896C-101.894 318.412 -119.114 182.379 -42.3579 89.7552C-5.22499 44.9481 57.191 9.08227 127.9 12.1059C198.61 15.1295 268.945 69.497 254.82 122.439C248.125 147.521 225.477 167.217 205.118 186.842C145.567 244.233 82.6614 574.685 -134.952 547.818" stroke="#21F225" stroke-width="0.8162" stroke-miterlimit="10" stroke-linecap="round" stroke-linejoin="round"/>
</g>
</svg>
