<svg width="941" height="148" viewBox="0 0 941 148" fill="none" xmlns="http://www.w3.org/2000/svg">
<mask id="mask0_2_2591" style="mask-type:alpha" maskUnits="userSpaceOnUse" x="0" y="0" width="941" height="148">
<rect x="941" width="148" height="941" transform="rotate(90 941 0)" fill="#D9D9D9"/>
</mask>
<g mask="url(#mask0_2_2591)">
<path d="M440.638 552.283C395.407 536.902 100.389 482.598 111.514 242.629C113.627 197.048 133.887 153.581 160.91 122.166C187.932 90.7502 221.46 70.3235 255.642 56.1281C354.158 15.1986 464.53 25.1536 547.848 94.0483C567.955 110.675 586.771 131.087 598.276 158.156C607.988 181.014 612.001 207.383 615.891 233.327C630.877 333.151 645.848 432.975 660.833 532.814C674.345 622.819 688.631 715.363 727.904 790.002C772.527 874.825 845.769 928.218 922.977 957.125C967.433 973.767 1020.76 980.926 1058.47 941.577C1091.74 906.848 1101.41 844.55 1091.01 793.529C1080.63 742.492 1053.82 700.894 1025.07 664.478C971.627 596.814 903.417 539.121 826.193 542.221C772.922 544.364 720.837 575.81 677.673 619.445C634.51 663.08 599.295 718.463 566.39 775.017C544.215 813.135 522.512 852.59 493.893 882.774C441.778 937.747 372.807 955.605 307.408 958.888C224.713 963.052 138.978 945.164 75.4484 881.908C11.9339 818.636 -22.9618 702.094 8.86382 601.268C20.4603 564.563 41.0086 530.762 68.6394 513.116C90.5405 499.119 115.268 496.064 139.069 496.808C209.514 499.012 275.673 532.054 338.169 569.685C357.183 581.13 376.576 593.243 397.93 594.96C419.269 596.678 443.373 585.431 454.256 560.703" stroke="#21F225" stroke-width="0.8162" stroke-miterlimit="10" stroke-linecap="round" stroke-linejoin="round"/>
<path d="M441.92 550.077C399.212 528.905 111.231 473.644 114.788 240.712C115.471 196.059 132.722 153.381 158.301 122.695C183.834 92.0705 216.101 72.4037 248.747 58.5426C342.871 18.5706 449.428 26.337 527.715 93.636C545.406 108.834 561.319 130.887 571.852 159.4C573.402 163.549 574.8 167.789 576.107 172.121C582.308 193.004 586.047 215.604 590.044 237.611C592.142 249.01 594.346 260.303 596.595 271.458C608.86 331.219 623.192 387.088 634.926 439.766C640.929 466.713 646.218 493.204 651.933 519.923C656.051 539.149 660.307 558.71 665.383 578.65C670.824 600.095 677.071 622.331 683.971 644.262C692.71 672.242 702.908 699.645 714.809 726.501C720.919 740.286 727.469 753.95 734.506 767.294C740.798 779.24 747.425 790.745 754.203 801.81C757.866 807.722 761.59 813.497 765.192 819.014C767.806 823.012 770.359 826.811 772.973 830.489C793.902 859.959 818.143 883.122 844.877 900.281C856.808 906.542 869.119 912.667 881.567 918.26C893.969 923.823 906.568 928.854 919.228 933.383C965.705 950.01 1020.94 958.947 1059.54 923.899C1093.62 892.955 1103.89 835.565 1094.47 789.575C1084.97 743.219 1059.12 706.074 1030.63 673.717C1028.72 671.543 1026.8 669.37 1024.84 667.212C972.697 609.868 905.443 561.598 830.044 565.504C776.56 568.163 724.186 598.347 680.445 639.809C652.693 665.981 627.995 696.438 605.06 728.72C591.686 747.551 578.858 766.959 566.532 786.277C557.869 799.94 549.343 813.695 540.649 826.917C526.819 848.013 512.562 867.893 496.194 884.717C476.679 904.764 455.371 919.659 432.01 931.559C397.13 949.357 357.477 958.156 319.101 961.47C258.185 966.728 195.628 959.92 141.051 931.194C122.919 921.65 105.684 909.643 89.6644 894.885C45.9384 854.579 14.2647 789.803 6.96938 721.744C3.42814 689.356 5.28239 656.238 13.9455 624.382C20.1161 601.873 29.6759 580.261 42.4123 562.768C49.9963 552.342 58.7051 543.405 68.4321 536.626C89.0261 522.264 112.569 518.449 135.305 518.16C176.402 517.795 216.344 528.343 255.237 544.362C280.071 554.515 304.495 566.902 328.494 580.079C347.264 590.338 366.49 601.357 387.631 602.405C408.878 603.469 432.862 592.101 444.154 568.011" stroke="#21F225" stroke-width="0.8162" stroke-miterlimit="10" stroke-linecap="round" stroke-linejoin="round"/>
<path d="M443.216 547.895C403.031 520.948 121.98 464.577 118.059 238.803C117.299 195.047 131.556 153.19 155.691 123.234C179.72 93.3994 210.755 74.4925 241.866 60.9659C331.613 21.9665 434.568 27.362 507.627 93.2475C522.917 107.032 535.835 130.742 545.486 160.653C546.885 164.984 548.207 169.422 549.423 173.936C555.35 195.868 559.423 219.365 564.226 241.904C566.734 253.668 569.485 265.218 572.357 276.48C587.86 337.138 607.891 389.861 622.512 436.369C630.051 460.352 636.115 483.514 643.076 507.057C648.061 523.912 653.304 541.253 659.764 559.522C666.71 579.128 674.795 600.451 683.337 621.684C694.128 648.783 706.378 675.532 719.813 702.783C726.637 716.644 733.78 730.703 741.136 744.64C747.657 756.996 754.283 769.109 760.849 780.842C764.345 787.089 767.886 793.229 771.032 798.974C773.327 803.169 775.424 807.029 777.582 810.753C794.894 840.527 814.834 862.99 837.662 878.234C850.14 883.66 863.074 889.512 876.129 894.907C889.124 900.272 902.301 905.212 915.539 909.741C964.038 926.353 1021.11 937.113 1060.67 906.306C1095.52 879.177 1106.45 826.681 1097.98 785.721C1089.36 744.032 1064.36 711.446 1036.25 683.055C1034.35 681.14 1032.45 679.225 1030.52 677.341C978.871 626.988 910.326 584.083 833.954 588.885C780.257 592.077 727.701 621.106 683.276 660.288C655.098 685.137 629.747 713.741 606.189 744.047C592.48 761.738 579.197 779.809 566.719 797.652C557.904 810.251 549.392 822.881 540.836 834.843C527.248 853.962 513.706 871.684 498.523 886.791C480.422 904.832 461.454 918.51 439.766 930.76C407.332 949.105 368.454 959.546 330.823 964.182C271.093 971.583 209.813 967.267 155.508 941.43C137.407 932.812 120.126 921.763 103.925 907.993C59.4995 870.255 26.2148 808.017 16.3662 742.269C11.6698 710.944 11.9281 678.845 19.0562 647.643C24.1021 625.59 32.4765 604.251 44.1185 586.697C51.0338 576.271 59.1346 567.228 68.2385 560.282C87.5254 545.57 109.867 540.904 131.555 539.673C170.737 537.454 209.174 545.95 247.049 559.522C271.199 568.185 295.152 578.976 318.846 590.633C337.358 599.737 356.432 609.631 377.376 610.027C398.532 610.422 422.379 598.947 434.112 575.511" stroke="#21F225" stroke-width="0.8162" stroke-miterlimit="10" stroke-linecap="round" stroke-linejoin="round"/>
<path d="M444.513 545.693C406.851 512.971 132.625 455.369 121.348 236.906C119.129 194 130.391 153.025 153.097 123.783C175.637 94.754 205.411 76.607 235.002 63.3843C320.342 25.3577 420.044 28.1086 487.54 92.839C500.474 105.241 510.399 130.546 519.107 161.901C520.369 166.43 521.585 171.05 522.74 175.762C528.363 198.757 532.816 223.121 538.425 246.222C541.358 258.335 544.656 270.145 548.152 281.544C566.998 343.082 592.623 392.584 610.116 433.012C619.189 454.001 626.029 473.88 634.236 494.216C640.087 508.715 646.319 523.853 654.176 540.404C662.612 558.202 672.597 578.552 682.719 599.116C695.607 625.288 709.864 651.429 724.834 679.075C732.388 693.028 740.124 707.466 747.784 721.981C754.532 734.763 761.189 747.438 767.496 759.855C770.84 766.436 774.184 772.941 776.874 778.914C778.85 783.307 780.491 787.228 782.193 790.982C795.887 821.075 811.526 842.809 830.448 856.153C843.474 860.758 857.046 866.306 870.679 871.503C884.251 876.686 898.021 881.504 911.836 886.033C962.371 902.63 1021.17 915.26 1061.77 888.662C1097.32 865.378 1108.98 817.731 1101.47 781.817C1093.75 744.794 1069.64 716.737 1041.83 692.344C1039.96 690.702 1038.08 689.03 1036.16 687.404C984.941 644.088 915.18 606.685 837.835 612.202C783.941 616.047 731.126 643.754 686.078 680.702C657.429 704.198 631.455 730.978 607.304 759.293C593.246 775.829 579.552 792.608 566.891 808.946C557.94 820.497 549.398 831.972 541.008 842.672C527.603 859.77 514.837 875.394 500.854 888.769C484.166 904.788 467.539 917.251 447.523 929.866C417.551 948.742 379.418 960.825 342.547 966.798C284.017 976.343 223.968 974.534 169.953 951.584C151.882 943.909 134.555 933.787 118.171 921.005C73.0166 885.82 38.0601 826.136 25.7493 762.682C19.8827 732.422 18.5908 701.341 24.1535 670.792C28.0899 649.21 35.2636 628.13 45.8113 610.515C52.0579 600.089 59.5356 590.954 68.0467 583.811C86.0265 568.734 107.183 563.263 127.792 561.044C165.059 557.031 202.006 563.369 238.847 574.54C262.344 581.668 285.811 590.894 309.186 601.046C327.454 608.98 346.361 617.765 367.107 617.491C388.172 617.202 411.897 605.636 424.041 582.838" stroke="#21F225" stroke-width="0.8162" stroke-miterlimit="10" stroke-linecap="round" stroke-linejoin="round"/>
<path d="M445.808 543.487C410.684 504.99 143.099 446.02 124.618 234.988C120.925 192.904 129.193 152.856 150.486 124.298C171.521 96.0743 200.048 78.672 228.105 65.7837C309.082 28.7298 406.018 28.5018 467.435 92.4418C478.044 103.491 484.959 130.377 492.71 163.16C493.82 167.872 494.96 172.69 496.039 177.584C501.343 201.658 506.207 226.888 512.605 250.521C515.979 262.999 519.809 275.067 523.913 286.572C546.118 348.992 577.29 395.15 597.701 429.62C608.31 447.539 615.909 464.242 625.378 481.356C632.111 493.515 639.33 506.449 648.556 521.282C658.511 537.286 670.335 556.665 682.084 576.544C697.024 601.804 713.316 627.322 729.837 655.348C738.105 669.377 746.434 684.21 754.413 699.318C761.389 712.525 768.077 725.778 774.141 738.879C777.348 745.795 780.494 752.664 782.713 758.865C784.354 763.455 785.555 767.437 786.801 771.222C796.878 801.664 808.216 822.638 823.247 834.083C836.804 837.867 851.03 843.11 865.256 848.126C879.421 853.111 893.768 857.823 908.161 862.352C960.717 878.933 1021.16 893.463 1062.91 871.045C1099.07 851.637 1111.55 808.808 1104.98 777.939C1098.14 745.582 1074.96 722.07 1047.46 701.643C1045.6 700.26 1043.75 698.862 1041.83 697.494C991.023 661.2 920.061 629.177 841.744 635.56C787.637 639.967 734.579 666.428 688.908 701.141C659.787 723.286 633.19 748.242 608.432 774.581C594.039 789.961 579.919 805.433 567.076 820.282C558.003 830.769 549.431 841.104 541.193 850.543C528.016 865.65 515.964 879.131 503.197 890.788C487.938 904.786 473.667 916.033 455.292 929.012C427.813 948.421 390.394 962.16 354.298 969.456C296.954 981.143 238.136 981.827 184.424 961.78C166.383 955.047 149.012 945.852 132.43 934.073C86.5306 901.442 49.9175 844.311 35.1445 783.152C28.0924 753.941 25.2655 723.909 29.2627 693.998C32.0897 672.903 38.0627 652.081 47.5161 634.39C53.094 623.963 59.9485 614.738 67.8517 607.412C84.5093 592.001 104.48 585.709 124.041 582.502C159.377 576.711 194.866 580.876 230.658 589.66C253.501 595.269 276.497 602.914 299.522 611.546C317.548 618.31 336.287 625.985 356.836 625.043C377.81 624.085 401.413 612.397 413.982 590.253" stroke="#21F225" stroke-width="0.8162" stroke-miterlimit="10" stroke-linecap="round" stroke-linejoin="round"/>
<path d="M447.094 541.282C414.493 496.993 153.398 436.549 127.895 233.071C122.712 191.777 128.001 152.702 147.881 124.828C167.411 97.4401 194.692 80.7522 221.229 68.1982C297.799 32.117 392.774 28.4238 447.337 92.0447C455.696 101.802 459.511 130.193 466.335 164.405C467.308 169.299 468.341 174.314 469.359 179.39C474.344 204.529 479.618 230.625 486.792 254.805C490.592 267.648 494.984 279.974 499.68 291.586C525.259 354.887 561.857 397.549 585.278 426.214C597.361 441.002 605.811 454.62 616.526 468.481C624.141 478.33 632.378 489.044 642.956 502.13C654.447 516.356 668.08 534.746 681.47 553.942C698.461 578.305 716.791 603.185 734.862 631.606C743.844 645.726 752.766 660.939 761.064 676.639C768.268 690.272 774.971 704.103 780.792 717.888C783.846 725.123 786.795 732.372 788.558 738.786C789.88 743.589 790.625 747.616 791.415 751.431C797.89 782.238 804.912 802.453 816.037 811.982C830.141 814.946 844.99 819.9 859.809 824.703C874.566 829.491 889.491 834.111 904.447 838.625C959.04 855.191 1021 871.621 1064.02 853.383C1100.7 837.819 1114.08 799.854 1108.47 774.016C1102.53 746.324 1080.26 727.357 1053.04 710.912C1051.2 709.802 1049.38 708.647 1047.48 707.538C997.081 678.25 924.919 651.607 845.628 658.857C791.309 663.812 737.977 689.041 691.713 721.536C662.107 742.327 634.901 765.459 609.55 789.807C594.823 804.033 580.278 818.198 567.253 831.558C558.042 840.996 549.455 850.176 541.37 858.352C528.421 871.469 517.098 882.807 505.532 892.747C491.686 904.723 479.785 914.754 463.052 928.098C438.066 948.039 401.376 963.42 366.025 972.052C309.866 985.868 252.264 989.075 198.872 971.9C180.846 966.095 163.429 957.842 146.68 947.051C100.021 916.973 61.7661 862.395 44.531 803.547C36.2934 775.399 31.9314 746.4 34.3632 717.128C36.0806 696.504 40.853 675.971 49.2121 658.204C54.1213 647.793 60.3527 638.461 67.6631 630.937C82.9984 615.177 101.784 608.064 120.295 603.869C153.702 596.3 187.746 598.276 222.475 604.675C244.665 608.763 267.174 614.812 289.88 621.955C307.662 627.548 326.235 634.099 346.586 632.518C367.484 630.877 390.935 619.098 403.93 597.592" stroke="#21F225" stroke-width="0.8162" stroke-miterlimit="10" stroke-linecap="round" stroke-linejoin="round"/>
<path d="M448.384 539.088C418.306 489.025 163.488 426.954 131.161 231.182C124.458 190.633 126.784 152.591 145.265 125.386C163.305 98.8339 189.325 82.8603 214.327 70.6407C286.535 35.5018 367.649 39.8486 427.227 91.645C431.361 101.402 434.067 130.006 439.933 165.662C440.769 170.753 441.711 175.951 442.639 181.225C447.305 207.427 453.004 234.389 460.953 259.117C465.193 272.325 470.133 284.909 475.422 296.627C504.39 360.81 546.231 399.886 572.829 422.835C586.31 434.462 595.733 445.055 607.633 455.618C616.16 463.187 625.4 471.668 637.301 483.006C650.372 495.469 665.768 512.856 680.784 531.368C699.812 554.819 720.163 579.076 739.815 607.892C749.496 622.087 759.026 637.696 767.658 653.974C775.106 668.032 781.838 682.425 787.401 696.894C790.304 704.463 793.04 712.078 794.362 718.719C795.35 723.72 795.639 727.808 795.988 731.653C798.83 762.856 801.566 782.264 808.785 789.894C823.437 792.022 838.924 796.688 854.335 801.308C869.686 805.898 885.203 810.412 900.721 814.941C957.335 831.492 1020.73 849.806 1065.11 835.763C1102.22 824.015 1116.57 790.943 1111.95 770.136C1106.84 747.125 1085.58 732.717 1058.63 720.224C1056.82 719.388 1055 718.476 1053.13 717.64C1003.1 695.359 929.781 674.097 849.517 682.213C794.985 687.73 741.395 711.713 694.523 741.988C664.43 761.427 636.632 782.735 610.673 805.108C595.596 818.194 580.656 831.036 567.433 842.906C558.102 851.281 549.484 859.321 541.55 866.236C528.829 877.346 518.221 886.526 507.87 894.779C495.408 904.703 485.924 913.518 470.817 927.243C448.338 947.685 412.348 964.752 377.771 974.708C322.814 990.666 266.397 996.396 213.354 982.094C195.344 977.231 177.866 969.92 160.965 960.117C113.515 932.593 73.6343 880.553 53.9675 824.015C44.5292 796.916 38.6474 768.966 39.5137 740.316C40.1217 720.178 43.6933 699.919 50.9734 682.061C55.2137 671.665 60.8068 662.227 67.5398 654.521C81.5528 638.441 99.1374 630.492 116.616 625.309C148.061 615.978 180.692 615.765 214.342 619.762C235.878 622.315 257.916 626.799 280.288 632.438C297.842 636.86 316.248 642.286 336.386 640.052C357.193 637.742 380.522 625.857 393.943 605.004" stroke="#21F225" stroke-width="0.8162" stroke-miterlimit="10" stroke-linecap="round" stroke-linejoin="round"/>
<path d="M449.691 536.883C422.136 481.044 173.367 417.256 134.459 229.266C126.206 189.43 125.598 152.468 142.682 125.916C159.217 100.215 183.991 84.9408 207.473 73.0404C275.258 38.8894 351.494 42.2939 407.135 91.233C408.61 99.8506 408.64 129.807 413.549 166.906C414.248 172.18 415.084 177.576 415.95 183.032C420.297 210.313 426.407 238.126 435.131 263.417C439.812 276.974 445.299 289.817 451.181 301.671C483.553 366.736 530.38 402.209 560.412 419.46C575.155 427.925 585.748 435.509 598.773 442.774C608.257 448.063 618.501 454.295 631.678 463.885C646.36 474.569 663.488 490.969 680.146 508.796C701.211 531.351 723.598 554.969 744.815 584.181C755.196 598.467 765.333 614.456 774.285 631.327C781.96 645.811 788.724 660.781 794.028 675.934C796.794 683.822 799.317 691.832 800.183 698.686C800.837 703.899 800.685 708.049 800.579 711.909C799.773 743.522 798.238 762.11 801.551 767.839C816.75 769.147 832.875 773.524 848.864 777.931C864.792 782.324 880.903 786.731 896.998 791.26C955.649 807.796 1020.35 827.934 1066.2 818.147C1103.65 810.152 1119.08 782.02 1115.43 766.259C1111.19 747.914 1090.92 738.066 1064.21 729.539C1062.42 728.962 1060.62 728.308 1058.77 727.731C1009.07 712.441 934.614 696.574 853.378 705.556C798.633 711.605 744.755 734.372 697.305 762.414C666.725 780.5 638.319 799.984 611.753 820.381C596.341 832.311 580.991 843.847 567.555 854.228C558.102 861.538 549.454 868.438 541.672 874.107C529.179 883.211 519.285 890.263 510.151 896.799C499.101 904.702 492.004 912.256 478.523 926.39C458.582 947.303 423.276 966.073 389.444 977.381C335.672 995.482 280.425 1003.74 227.747 992.306C209.737 988.4 192.213 982.017 175.161 973.186C126.89 948.23 85.4135 898.714 63.2997 844.501C52.676 818.45 45.2744 791.549 44.5601 763.538C44.0737 743.887 46.4295 723.916 52.6152 705.951C56.1869 695.571 61.1568 686.041 67.2818 678.123C79.9726 661.724 96.3565 652.939 112.801 646.753C142.301 635.643 173.504 633.257 206.09 634.853C226.987 635.886 248.539 638.774 270.562 642.923C287.873 646.176 306.111 650.477 326.051 647.589C346.782 644.58 369.975 632.618 383.806 612.404" stroke="#21F225" stroke-width="0.8162" stroke-miterlimit="10" stroke-linecap="round" stroke-linejoin="round"/>
<path d="M450.988 534.687C425.956 473.072 182.978 407.475 137.747 227.358C127.914 188.207 124.388 152.399 140.088 126.455C155.119 101.636 178.646 87.0305 200.593 75.4645C264.001 42.271 335.358 44.7483 387.033 90.8453C385.847 98.323 383.218 129.632 387.17 168.175C387.732 173.647 388.461 179.225 389.267 184.863C393.295 213.208 399.83 241.903 409.329 267.725C414.451 281.647 420.469 294.748 426.974 306.709C462.752 372.656 514.335 404.664 548.015 416.063C563.913 421.443 575.874 425.896 589.933 429.908C600.435 432.903 611.636 436.869 626.09 444.757C642.398 453.648 661.244 469.075 679.543 486.219C702.645 507.877 727.053 530.872 749.851 560.448C760.931 574.826 771.676 591.195 780.947 608.643C788.85 623.537 795.644 639.085 800.705 654.937C803.335 663.16 805.629 671.549 806.055 678.617C806.374 684.042 805.766 688.252 805.219 692.143C800.736 724.182 794.96 741.949 794.367 745.763C810.113 746.25 826.862 750.323 843.459 754.548C859.979 758.743 876.667 763.059 893.325 767.573C953.997 784.094 1019.93 805.965 1067.35 800.508C1105.09 796.177 1121.62 773.09 1118.96 762.36C1115.57 748.697 1096.35 743.392 1069.86 738.833C1068.09 738.529 1066.3 738.119 1064.46 737.815C1015.06 729.531 939.513 719.029 857.304 728.908C802.362 735.504 748.194 757.026 700.152 782.863C669.071 799.581 640.027 817.212 612.913 835.663C597.137 846.408 581.406 856.667 567.773 865.558C558.213 871.805 549.535 877.55 541.89 881.972C529.64 889.055 520.46 893.979 512.511 898.812C502.876 904.679 498.179 910.971 486.309 925.531C468.892 946.885 434.27 967.388 401.198 980.033C348.626 1000.28 294.519 1011.08 242.221 1002.48C224.211 999.517 206.642 994.076 189.422 986.234C140.331 963.862 97.2431 916.838 72.6975 864.95C60.8731 839.949 51.9516 814.111 49.6718 786.723C48.0759 767.558 49.2462 747.876 54.3225 729.805C57.2254 719.455 61.5722 709.819 67.1044 701.703C78.4729 685.015 93.6562 675.364 109.052 668.175C136.592 655.317 166.396 650.712 197.903 649.937C218.162 649.435 239.243 650.758 260.916 653.402C277.999 655.484 296.07 658.661 315.797 655.12C336.452 651.426 359.508 639.374 373.764 619.798" stroke="#21F225" stroke-width="0.8162" stroke-miterlimit="10" stroke-linecap="round" stroke-linejoin="round"/>
<path d="M452.273 532.49C429.78 465.085 192.288 397.619 141.008 225.45C129.549 186.952 123.135 152.345 137.467 126.994C150.994 103.072 173.29 89.1197 193.701 77.888C252.732 45.6672 319.211 47.2022 366.934 90.4419C363.073 96.7797 357.784 129.441 360.778 169.413C361.204 175.067 361.827 180.827 362.572 186.664C366.28 216.088 373.241 245.634 383.515 272.003C389.078 286.29 395.659 299.634 402.741 311.717C441.938 378.529 498.173 407.33 535.607 412.65C552.599 415.066 566.004 416.191 581.081 417.012C592.631 417.65 604.79 419.413 620.475 425.584C638.44 432.651 658.973 447.135 678.913 463.595C704.052 484.341 730.482 506.729 754.86 536.685C766.639 551.154 778.007 567.887 787.582 585.943C795.714 601.263 802.538 617.374 807.341 633.925C809.818 642.466 812.204 651.251 811.885 658.531C811.642 664.155 810.806 668.425 809.833 672.347C801.656 704.795 791.656 721.742 787.172 723.657C803.465 723.307 820.852 727.107 838.026 731.119C855.14 735.116 872.405 739.326 889.64 743.855C952.334 760.361 1019.45 783.843 1068.48 782.855C1106.45 782.08 1124.14 764.161 1122.47 758.446C1119.85 749.479 1101.77 748.673 1075.46 748.111C1073.72 748.081 1071.95 747.929 1070.12 747.868C1021 746.637 944.385 741.454 861.204 752.215C806.049 759.343 751.577 779.633 702.972 803.266C671.39 818.617 641.768 834.423 614.031 850.914C597.905 860.504 581.795 869.456 567.949 876.857C558.268 882.04 549.574 886.645 542.066 889.806C530.059 894.868 521.594 897.664 514.846 900.795C506.623 904.61 504.343 909.625 494.069 924.641C479.19 946.39 445.252 968.687 412.94 982.654C361.554 1005.03 308.602 1018.42 256.699 1012.64C238.689 1010.63 221.043 1006.12 203.702 999.251C153.745 979.462 109.076 934.946 82.114 885.368C69.0889 861.416 58.6628 836.642 54.8176 809.878C52.1275 791.199 52.0971 771.821 56.0639 753.628C58.3133 743.308 62.0217 733.581 66.946 725.237C76.9922 708.261 90.9748 697.758 105.337 689.566C130.901 674.976 159.338 668.137 189.75 664.975C209.371 662.939 229.965 662.68 251.304 663.82C268.159 664.732 286.047 666.769 305.577 662.604C326.156 658.212 349.06 646.068 363.757 627.146" stroke="#21F225" stroke-width="0.8162" stroke-miterlimit="10" stroke-linecap="round" stroke-linejoin="round"/>
<path d="M453.578 530.294C433.607 457.113 201.328 387.747 144.304 223.542C131.157 185.683 121.901 152.322 134.881 127.534C146.918 104.538 167.952 91.2092 186.844 80.3119C241.483 49.0486 303.082 49.6565 346.854 90.0541C340.334 95.252 332.385 129.266 334.421 170.682C334.71 176.518 335.242 182.476 335.911 188.51C339.285 218.998 346.687 249.41 357.721 276.327C363.724 290.963 370.852 304.581 378.527 316.785C421.144 384.464 482.044 410.317 523.202 409.298C541.303 408.858 556.137 406.471 572.232 404.192C584.801 402.413 597.933 401.988 614.879 406.502C634.5 411.73 656.721 425.302 678.287 441.063C705.462 460.912 733.899 482.677 759.873 513.013C772.351 527.573 784.327 544.687 794.221 563.32C802.581 579.066 809.45 595.753 813.995 612.973C816.335 621.849 818.189 630.999 817.733 638.507C817.384 644.343 815.864 648.675 814.451 652.611C802.55 685.47 788.355 701.596 779.965 701.611C796.805 700.441 814.831 703.936 832.598 707.766C850.289 711.566 868.147 715.67 885.959 720.199C950.69 736.689 1018.96 761.675 1069.62 765.262C1107.81 767.968 1126.83 755.216 1125.99 754.593C1124.48 750.246 1107.22 753.985 1081.09 757.45C1079.38 757.678 1077.61 757.785 1075.82 757.997C1026.94 763.849 949.292 763.955 865.137 775.597C809.769 783.257 754.994 802.316 705.827 823.746C673.743 837.729 643.528 851.727 615.198 866.226C598.738 874.661 582.248 882.306 568.174 888.218C558.386 892.337 549.662 895.787 542.291 897.702C530.543 900.757 522.776 901.395 517.229 902.839C510.42 904.602 510.542 908.326 501.878 923.813C489.522 945.927 456.268 970.032 424.716 985.336C374.53 1009.85 322.688 1025.83 271.196 1022.85C253.17 1021.81 235.479 1018.23 218.001 1012.33C167.177 995.155 120.928 953.116 91.5496 905.863C77.3086 882.959 65.4082 859.25 59.9672 833.093C56.1827 814.9 54.9668 795.826 57.8089 777.527C59.4048 767.238 62.4749 757.42 66.8065 748.863C75.5456 731.598 88.2971 720.259 101.641 711.034C125.229 694.726 152.298 685.622 181.616 680.09C200.614 676.503 220.722 674.679 241.696 674.33C258.323 674.056 276.044 674.968 295.361 670.165C315.849 665.074 338.631 652.854 353.739 634.586" stroke="#21F225" stroke-width="0.8162" stroke-miterlimit="10" stroke-linecap="round" stroke-linejoin="round"/>
<path d="M454.862 528.091C437.414 449.135 210.029 377.854 147.563 221.629C132.684 184.392 120.632 152.324 132.259 128.067C142.822 106.029 162.549 93.2623 179.936 82.7145C230.106 52.3024 286.918 52.1048 326.723 89.6451C317.543 93.6879 306.935 129.07 307.999 171.93C308.151 177.963 308.576 184.104 309.169 190.32C312.209 221.887 320.051 253.15 331.86 280.629C338.304 295.63 345.98 309.491 354.248 321.817C400.284 390.362 465.972 413.419 510.731 405.91C530.003 402.673 546.144 396.685 563.318 391.32C576.89 387.08 591.025 384.496 609.202 387.353C630.495 390.697 654.372 403.388 677.596 418.464C706.807 437.417 737.25 458.573 764.82 489.259C777.982 503.91 790.581 521.404 800.795 540.63C809.382 556.801 816.297 574.051 820.568 591.97C822.772 601.166 824.383 610.71 823.501 618.431C822.802 624.48 820.841 628.857 818.987 632.824C803.333 666.078 784.973 681.398 772.677 679.514C790.064 677.523 808.713 680.73 827.088 684.347C845.372 687.964 863.823 691.961 882.198 696.475C948.95 712.95 1018.42 739.32 1070.67 747.603C1109.11 753.698 1129.31 746.265 1129.43 750.658C1128.81 750.977 1112.61 759.169 1086.63 766.707C1084.95 767.194 1083.18 767.559 1081.4 768.045C1032.78 781.024 954.087 786.359 868.96 798.898C813.379 807.09 758.3 824.887 708.57 844.129C675.985 856.743 645.177 868.917 616.239 881.456C599.445 888.736 582.575 895.074 568.273 899.497C558.394 902.551 549.655 904.862 542.39 905.53C530.93 906.579 523.863 905.059 519.486 904.816C514.136 904.512 516.598 906.913 509.561 922.902C499.697 945.335 467.157 971.309 436.365 987.937C387.365 1014.59 336.663 1033.18 285.566 1032.98C267.525 1032.91 249.773 1030.28 232.158 1025.32C180.438 1010.78 132.623 971.188 100.843 926.261C85.3863 904.406 71.9965 881.76 64.9748 856.227C60.096 838.52 57.6946 819.765 59.4121 801.33C60.3696 791.071 62.7862 781.161 66.525 772.376C73.9571 754.853 85.4927 742.648 97.8035 732.404C119.431 714.394 145.116 702.995 173.325 695.107C191.7 689.97 211.321 686.566 231.945 684.742C248.345 683.298 265.899 683.055 285.003 677.629C305.415 671.823 328.061 659.543 343.594 641.913" stroke="#21F225" stroke-width="0.8162" stroke-miterlimit="10" stroke-linecap="round" stroke-linejoin="round"/>
<path d="M456.156 525.886C441.231 441.155 218.421 367.989 150.849 219.728C134.161 183.13 119.388 152.383 129.662 128.613C138.766 107.563 157.201 95.3587 173.069 85.1453C218.847 55.6907 270.78 54.566 306.648 89.2489C294.809 92.1518 281.16 128.887 281.632 173.19C281.692 179.406 281.966 185.744 282.498 192.143C285.218 224.774 293.486 256.903 306.055 284.929C312.94 300.295 321.163 314.415 330.024 326.847C379.495 396.258 450.076 416.624 498.332 402.52C518.834 396.532 536.191 386.881 554.475 378.461C569.005 371.774 584.173 367.001 603.611 368.232C626.546 369.676 652.125 381.516 676.99 395.894C708.238 413.965 740.687 434.498 769.868 465.548C783.729 480.306 796.936 498.164 807.469 517.983C816.299 534.58 823.23 552.393 827.257 571.011C829.309 580.54 830.707 590.45 829.385 598.398C828.352 604.66 825.935 609.098 823.64 613.08C804.247 646.714 781.707 661.259 765.506 657.46C783.44 654.633 802.727 657.551 821.679 660.986C840.556 664.405 859.584 668.296 878.522 672.81C947.31 689.27 1018 716.916 1071.82 730.002C1110.53 739.41 1132.17 737.328 1132.96 746.796C1133.37 751.766 1118.05 764.396 1092.26 776.038C1090.6 776.783 1088.85 777.421 1087.09 778.151C1038.73 798.304 958.967 808.821 872.883 822.257C817.089 830.966 761.706 847.532 711.414 864.585C678.312 875.816 646.942 886.197 617.397 896.76C600.268 902.885 583.017 907.931 568.488 910.849C558.518 912.855 549.748 914.01 542.605 913.417C531.434 912.475 525.111 908.812 521.859 906.852C518.014 904.526 522.74 905.529 517.36 922.065C509.958 944.772 478.178 972.646 448.146 990.611C400.332 1019.41 350.739 1040.63 300.082 1043.2C282.042 1044.11 264.214 1042.41 246.477 1038.41C193.86 1026.54 144.465 989.364 110.299 946.763C93.6262 925.956 78.762 904.374 70.1445 879.464C64.1866 862.259 60.5999 843.808 61.1926 825.236C61.5118 815.022 63.29 805.022 66.4057 795.994C72.5611 778.212 82.8504 765.156 94.1277 753.864C113.795 734.166 138.097 720.442 165.211 710.214C182.963 703.526 202.098 698.541 222.373 695.243C238.559 692.599 255.916 691.246 274.823 685.182C295.158 678.677 317.667 666.32 333.61 649.329" stroke="#21F225" stroke-width="0.8162" stroke-miterlimit="10" stroke-linecap="round" stroke-linejoin="round"/>
<path d="M457.449 523.697C445.062 433.175 226.508 358.216 154.117 217.827C135.575 181.868 118.127 152.489 127.049 129.144C134.709 109.112 151.837 97.44 166.17 87.561C207.555 59.0638 254.61 57.0121 286.526 88.8529C272.027 90.6159 256.099 128.703 255.233 174.436C255.111 180.834 255.324 187.37 255.795 193.966C258.181 227.676 266.905 260.641 280.234 289.23C287.56 304.945 296.329 319.323 305.798 331.877C358.704 402.139 434.317 419.846 485.915 399.13C507.71 390.376 526.176 377.092 545.63 365.602C561.102 356.453 577.319 349.492 598.004 349.097C622.58 348.625 649.861 359.629 676.352 373.308C709.622 390.482 744.092 410.407 774.869 441.823C789.414 456.672 803.245 474.91 814.112 495.306C823.17 512.328 830.146 530.719 833.9 550.021C835.815 559.869 836.97 570.174 835.222 578.335C833.839 584.795 830.982 589.294 828.246 593.306C805.084 627.32 778.395 641.075 758.287 635.375C776.754 631.728 796.694 634.357 816.239 637.579C835.693 640.801 855.315 644.586 874.83 649.115C945.639 665.56 1017.62 694.406 1072.94 712.356C1111.97 725.016 1134.59 728.39 1136.47 742.89C1137.72 752.525 1123.45 769.563 1097.88 785.324C1096.26 786.327 1094.51 787.239 1092.78 788.227C1044.72 815.569 963.862 831.238 876.79 845.601C820.784 854.842 765.081 870.146 714.242 885.026C680.623 894.874 648.676 903.461 618.522 912.033C601.044 917.003 583.444 920.757 568.671 922.171C558.61 923.144 549.825 923.159 542.788 921.274C531.906 918.371 526.298 912.611 524.2 908.857C521.814 904.586 528.836 904.115 525.127 921.198C520.142 944.163 489.153 973.967 459.88 993.269C413.267 1024.21 364.783 1048.11 314.537 1053.38C296.481 1055.28 278.578 1054.52 260.735 1051.45C207.205 1042.27 156.23 1007.51 119.693 967.204C101.789 947.446 85.4808 926.928 75.2522 902.641C68.2153 885.922 63.4582 867.791 62.8958 849.081C62.5767 838.913 63.7165 828.807 66.2243 819.566C71.103 801.525 80.1461 787.634 90.3898 775.293C108.096 753.924 131.015 737.859 157.035 725.305C174.164 717.037 192.813 710.501 212.723 705.729C228.681 701.899 245.87 699.407 264.565 692.734C284.824 685.515 307.181 673.098 323.565 656.76" stroke="#21F225" stroke-width="0.8162" stroke-miterlimit="10" stroke-linecap="round" stroke-linejoin="round"/>
<path d="M458.748 521.488C448.885 425.191 234.312 348.514 157.408 215.907C136.936 180.601 121.084 153.624 124.458 129.671C133.987 112.117 146.495 99.5174 159.308 89.9728C196.286 62.4331 238.492 59.4542 266.442 88.4377C249.268 89.0609 230.695 128.516 228.856 175.692C228.598 182.288 228.704 189.006 229.114 195.785C231.166 230.559 240.331 264.391 254.42 293.526C262.201 309.606 271.518 324.227 281.564 336.918C337.92 408.032 418.624 423.078 473.491 395.751C496.608 384.246 516.153 367.315 536.762 352.74C553.161 341.143 570.427 331.963 592.389 329.972C618.591 327.586 647.574 337.739 675.722 350.733C711.028 367.011 747.489 386.328 779.877 418.093C795.121 433.048 809.575 451.651 820.746 472.64C830.032 490.088 837.054 509.041 840.55 529.027C842.328 539.21 843.24 549.879 841.066 558.269C839.334 564.941 836.036 569.485 832.859 573.543C805.943 607.907 775.09 620.902 751.076 613.302C770.089 608.834 790.653 611.159 810.791 614.199C830.838 617.224 851.037 620.917 871.129 625.431C943.975 641.86 1017.31 671.847 1074.06 694.736C1113.44 710.634 1137.09 719.479 1139.96 739.009C1142.07 753.311 1128.8 774.741 1103.47 794.636C1101.86 795.897 1100.14 797.067 1098.42 798.314C1050.7 832.875 968.719 853.667 880.674 868.941C824.454 878.699 768.433 892.742 717.047 905.448C682.911 913.898 650.401 920.707 619.64 927.303C601.827 931.118 583.847 933.595 568.846 933.489C558.694 933.413 549.879 932.304 542.963 929.127C532.355 924.279 527.4 916.391 526.534 910.859C525.546 904.642 534.878 902.682 532.887 920.327C530.272 943.52 500.134 975.27 471.621 995.909C426.193 1028.98 378.835 1055.56 328.999 1063.56C310.928 1066.46 292.963 1066.63 274.999 1064.5C220.542 1058.04 168.001 1025.67 129.108 987.672C109.973 968.978 92.2215 949.493 80.3819 925.844C72.2659 909.612 66.3537 891.8 64.6211 872.954C63.6788 862.816 64.1803 852.633 66.0498 843.149C69.667 824.865 77.4638 810.123 86.6437 796.718C102.42 773.692 123.926 755.241 148.851 740.377C165.341 730.544 183.504 722.428 203.079 716.181C218.81 711.15 235.817 707.518 254.313 700.238C274.482 692.289 296.717 679.811 313.512 664.126" stroke="#21F225" stroke-width="0.8162" stroke-miterlimit="10" stroke-linecap="round" stroke-linejoin="round"/>
<path d="M460.049 519.29C452.709 417.217 241.845 338.975 160.7 213.998C138.221 179.391 120.181 153.63 121.868 130.209C130.151 113.658 141.155 101.605 152.432 92.3948C185.002 65.8279 222.345 61.9067 246.343 88.0481C226.509 87.5161 205.292 128.339 202.465 176.944C202.07 183.723 202.085 190.638 202.405 197.599C204.122 233.452 213.743 268.135 228.592 297.833C236.814 314.262 246.678 329.157 257.317 341.954C317.108 413.904 402.979 426.291 461.068 392.367C485.522 378.081 506.101 357.548 527.895 339.887C545.207 325.859 563.521 314.46 586.759 310.843C614.572 306.526 645.289 315.858 675.078 328.139C712.42 343.535 750.888 362.229 784.872 394.358C800.8 409.42 815.877 428.388 827.367 449.955C836.881 467.813 843.948 487.343 847.17 508.028C848.812 518.53 849.48 529.595 846.881 538.197C844.799 545.067 841.045 549.672 837.443 553.76C806.773 588.458 771.755 600.724 743.851 591.209C763.411 585.905 784.613 587.957 805.344 590.784C825.983 593.611 846.76 597.198 867.415 601.712C942.282 618.126 1017.04 649.192 1075.16 677.081C1114.97 696.17 1139.59 710.518 1143.45 735.094C1146.43 754.076 1134.13 779.883 1109.07 803.912C1107.49 805.432 1105.77 806.876 1104.07 808.381C1056.7 850.161 973.561 876.075 884.558 892.261C828.126 902.535 771.786 915.302 719.852 925.865C685.2 932.917 652.128 937.948 620.743 942.553C602.596 945.213 584.251 946.429 569.007 944.787C558.764 943.693 549.918 941.428 543.124 936.975C532.789 930.181 528.488 920.12 528.838 912.855C529.233 904.648 543.216 901.426 540.617 919.451C537.273 942.659 511.071 976.582 483.318 998.544C439.091 1033.76 392.842 1063.06 343.416 1073.73C325.33 1077.64 307.289 1078.75 289.203 1077.53C233.835 1073.81 179.698 1043.82 138.449 1008.1C118.083 990.474 98.8877 972.038 85.437 948.997C76.2419 933.251 69.1897 915.758 66.2716 896.79C64.7214 886.698 64.5694 876.424 65.8157 866.712C68.1867 848.185 74.7221 832.592 82.8532 818.123C96.7143 793.456 116.776 772.603 140.608 755.429C156.46 744 174.151 734.349 193.361 726.628C208.864 720.412 225.689 715.639 243.988 707.736C264.08 699.073 286.179 686.534 303.399 671.488" stroke="#21F225" stroke-width="0.8162" stroke-miterlimit="10" stroke-linecap="round" stroke-linejoin="round"/>
<path d="M461.339 517.085C456.521 409.236 249.138 329.596 163.966 212.081C139.42 178.219 119.267 153.613 119.252 130.739C126.289 115.176 135.773 103.686 145.545 94.7947C173.708 69.1853 206.202 64.337 226.234 87.6362C203.74 85.9644 179.863 128.14 176.079 178.189C175.547 185.15 175.456 192.263 175.714 199.421C177.082 236.338 187.159 271.888 202.783 302.133C211.446 318.927 221.857 334.065 233.088 346.983C296.329 419.784 387.384 429.45 448.649 388.977C474.471 371.909 496.053 347.774 519.033 327.028C537.256 310.553 556.604 296.935 581.149 291.722C610.573 285.475 643.007 293.986 674.453 305.567C713.832 320.082 754.29 338.168 789.885 370.647C806.497 385.8 822.197 405.148 834.006 427.307C843.749 445.591 850.862 465.699 853.825 487.068C855.33 497.904 855.771 509.334 852.731 518.164C850.299 525.246 846.104 529.897 842.062 534.016C807.622 569.049 768.455 580.569 736.645 569.155C756.752 563.03 778.593 564.778 799.901 567.422C821.118 570.052 842.502 573.532 863.719 578.046C940.624 594.445 1016.87 626.575 1076.29 659.48C1116.55 681.776 1142.06 701.64 1146.96 731.232C1150.77 754.88 1139.47 785.095 1114.68 813.243C1113.11 815.021 1111.42 816.738 1109.74 818.486C1062.76 867.471 978.422 898.506 888.463 915.62C831.818 926.395 775.143 937.901 722.677 946.321C687.508 951.959 653.859 955.242 621.881 957.856C603.4 959.376 584.675 959.315 569.203 956.139C558.853 954.011 549.977 950.622 543.32 944.862C533.228 936.122 529.626 923.888 531.192 914.89C532.985 904.662 546.831 899.859 548.396 918.599C550.357 942.308 522.073 977.903 495.065 1001.2C452.023 1038.56 406.914 1070.58 357.898 1083.91C339.812 1088.84 321.696 1090.89 303.488 1090.58C247.208 1089.64 191.475 1062 147.87 1028.56C126.258 1011.99 105.634 994.591 90.5721 972.188C80.298 956.929 72.106 939.755 68.0024 920.65C65.8442 910.589 65.0539 900.239 65.6619 890.284C66.8018 871.514 72.0908 855.069 79.1429 839.551C91.1041 813.227 109.692 789.989 132.459 770.504C147.673 757.495 164.893 746.263 183.754 737.098C199.029 729.666 215.671 723.769 233.772 715.258C253.774 705.865 275.751 693.281 293.381 678.873" stroke="#21F225" stroke-width="0.8162" stroke-miterlimit="10" stroke-linecap="round" stroke-linejoin="round"/>
<path d="M462.635 514.895C460.34 401.256 256.225 320.445 167.253 210.18C140.579 177.123 118.359 153.626 116.657 131.285C122.448 116.709 130.427 105.782 138.679 97.2249C162.435 72.5881 190.066 66.7975 206.161 87.2395C181.007 84.4278 154.486 127.956 149.714 179.434C149.045 186.592 148.847 193.887 149.045 201.228C150.078 239.224 160.611 275.61 176.98 306.417C186.099 323.561 197.057 338.957 208.866 352.012C275.557 425.649 371.84 432.595 436.251 385.586C463.456 365.721 486.026 338.015 510.191 314.153C529.326 295.261 549.707 279.394 575.545 272.57C606.55 264.378 640.746 272.084 673.818 282.966C715.219 296.584 757.684 314.077 794.89 346.906C812.185 362.165 828.509 381.877 840.637 404.614C850.607 423.324 857.766 443.994 860.456 466.062C861.824 477.218 862.021 489.027 858.571 498.085C855.805 505.365 851.154 510.077 846.671 514.226C808.477 549.593 765.146 560.369 729.43 547.055C750.084 540.109 772.548 541.553 794.464 544C816.274 546.431 838.236 549.821 860.03 554.335C938.956 570.719 1016.76 603.912 1077.41 641.832C1118.16 667.32 1144.62 692.687 1150.47 727.324C1155.17 755.639 1144.79 790.261 1120.3 822.527C1118.75 824.564 1117.1 826.54 1115.43 828.561C1068.84 884.75 983.32 920.907 892.388 938.963C835.53 950.255 778.536 960.469 725.524 966.746C689.837 970.971 655.626 972.491 623.025 973.114C604.209 973.479 585.105 972.172 569.405 967.445C558.963 964.299 550.042 959.77 543.522 952.702C533.673 942.033 530.77 927.594 533.551 916.879C536.743 904.645 552.808 898.444 556.182 917.715C560.392 941.714 533.065 979.193 506.832 1003.83C464.976 1043.33 421.022 1078.11 372.387 1094.08C354.3 1100.02 336.093 1103.02 317.778 1103.61C260.602 1105.48 203.243 1080.16 157.298 1049C134.454 1033.51 112.401 1017.13 95.7133 995.364C84.3752 980.576 75.0586 963.721 69.7391 944.495C66.973 934.464 65.5443 924.038 65.4987 913.855C65.4227 894.826 69.4504 877.561 75.4234 860.964C85.5 832.984 102.598 807.344 124.302 785.58C138.862 770.974 155.611 758.192 174.138 747.568C189.184 738.936 205.644 731.899 223.548 722.795C243.458 712.673 265.298 700.043 283.369 686.288" stroke="#21F225" stroke-width="0.8162" stroke-miterlimit="10" stroke-linecap="round" stroke-linejoin="round"/>
<path d="M463.92 512.685C464.163 393.27 263.163 311.487 170.513 208.274C141.651 176.114 117.425 153.636 114.035 131.826C118.58 118.239 125.054 107.873 131.772 99.6508C151.12 75.9867 173.902 69.2538 186.031 86.8536C158.217 82.902 129.052 127.783 123.291 180.704C122.486 188.045 122.182 195.538 122.319 203.061C123.018 242.121 134.006 279.373 151.135 310.727C160.695 328.221 172.2 343.875 184.617 357.052C254.758 431.525 356.269 435.72 423.811 382.191C452.415 359.53 475.957 328.251 501.308 301.289C521.355 279.966 542.754 261.864 569.899 253.429C602.5 243.307 638.414 250.268 673.158 260.375C716.58 273.202 761.066 289.997 799.867 323.16C817.847 338.525 834.793 358.603 847.241 381.932C857.439 401.067 864.643 422.3 867.075 445.052C868.306 456.527 868.261 468.716 864.385 478.002C861.269 485.48 856.163 490.252 851.253 494.432C809.306 530.118 761.81 540.179 722.188 524.95C743.39 517.184 766.491 518.339 788.985 520.588C811.388 522.822 833.927 526.105 856.299 530.619C937.246 546.988 1016.66 581.23 1078.5 624.181C1119.8 652.861 1147.14 683.729 1153.93 723.412C1159.52 756.408 1150.06 795.438 1125.86 831.808C1124.34 834.103 1122.68 836.352 1121.04 838.617C1074.87 901.994 988.131 943.289 896.241 962.272C839.171 974.066 781.857 983.002 728.298 987.151C692.095 989.963 657.305 989.72 624.112 988.367C604.947 987.577 585.462 985.039 569.549 978.747C559.002 974.582 550.035 968.898 543.666 960.539C534.046 947.924 531.857 931.297 535.854 918.865C540.444 904.608 558.682 897.055 563.911 916.828C570.325 941.161 544.001 980.495 518.528 1006.45C477.872 1048.08 435.073 1085.64 386.803 1104.24C368.717 1111.2 350.448 1115.14 331.982 1116.64C273.908 1121.34 214.938 1098.34 166.637 1069.44C142.548 1055.03 119.081 1039.65 100.767 1018.54C88.3652 1004.22 77.9086 987.668 71.4036 968.336C68.0296 958.335 65.9778 947.818 65.2787 937.407C63.9868 918.12 66.753 900.018 71.6469 882.373C79.8541 852.736 95.4173 824.695 116.087 800.636C129.994 784.449 146.271 770.102 164.449 758.004C179.252 748.17 195.545 739.994 213.251 730.282C233.07 719.415 254.789 706.739 273.27 693.638" stroke="#21F225" stroke-width="0.8162" stroke-miterlimit="10" stroke-linecap="round" stroke-linejoin="round"/>
<path d="M465.206 510.489C467.972 385.299 269.996 302.801 173.79 206.367C142.678 175.179 116.507 153.628 111.43 132.365C114.713 119.766 119.683 109.963 124.896 102.075C139.836 79.3833 157.755 71.7233 165.932 86.4658C135.444 81.3591 103.649 127.608 96.9157 181.973C95.9886 189.512 95.563 197.187 95.6238 204.892C95.9886 245.032 107.418 283.134 125.306 315.051C135.307 332.909 147.375 348.807 160.369 362.106C233.961 437.399 340.73 438.843 411.372 378.824C441.374 353.336 465.874 318.532 492.426 288.439C513.37 264.699 535.818 244.348 564.269 234.317C598.451 222.264 636.128 228.389 672.513 237.812C717.972 249.743 764.449 265.945 804.861 299.458C823.525 314.93 841.095 335.372 853.861 359.294C864.303 378.854 871.537 400.664 873.695 424.1C874.79 435.91 874.501 448.464 870.2 457.978C866.734 465.653 861.187 470.486 855.837 474.711C810.15 510.717 758.476 520.048 714.947 502.92C736.696 494.317 760.436 495.184 783.523 497.236C806.518 499.287 829.635 502.449 852.569 506.963C935.553 523.331 1016.61 558.607 1079.59 606.573C1121.45 638.46 1149.65 674.83 1157.41 719.544C1163.88 757.206 1155.32 800.658 1131.43 841.132C1129.93 843.685 1128.3 846.208 1126.66 848.731C1080.91 919.298 992.943 965.714 900.095 985.639C842.812 997.935 785.194 1005.58 731.073 1007.62C694.353 1009 658.986 1007.08 625.185 1003.68C605.685 1001.78 585.806 997.95 569.68 990.107C559.026 984.925 550.013 978.085 543.797 968.434C534.404 953.859 532.93 935.058 538.143 920.909C544.131 904.631 564.543 895.755 571.625 916C580.258 940.682 554.937 981.839 530.209 1009.15C490.739 1052.92 449.125 1093.26 401.22 1114.46C383.134 1122.46 364.789 1127.35 346.201 1129.72C287.262 1137.27 226.635 1116.57 175.993 1089.93C150.673 1076.6 125.778 1062.24 105.837 1041.75C92.3713 1027.92 80.7901 1011.66 73.0693 992.22C69.1025 982.235 66.4123 971.641 65.0444 961.018C62.5519 941.457 64.0566 922.52 67.841 903.826C74.194 872.532 88.2222 842.104 107.843 815.735C121.081 797.953 136.888 782.04 154.746 768.498C169.306 757.449 185.416 748.132 202.94 737.828C222.653 726.231 244.265 713.51 263.172 701.047" stroke="#21F225" stroke-width="0.8162" stroke-miterlimit="10" stroke-linecap="round" stroke-linejoin="round"/>
<path d="M466.508 508.302C471.797 377.336 276.786 294.368 177.083 204.469C143.677 174.345 115.606 153.645 108.842 132.914C110.879 121.318 114.344 112.077 118.022 104.493C128.555 82.7897 141.61 74.1721 145.835 86.0574C112.687 79.8108 78.3388 127.443 70.5268 183.221C69.4781 190.942 68.9158 198.815 68.931 206.718C68.8702 247.921 80.8466 286.875 99.4952 319.354C109.952 337.562 122.551 353.718 136.139 367.138C213.18 443.252 325.208 441.93 398.966 375.437C430.366 347.137 455.839 308.791 483.576 275.583C505.432 249.426 528.883 226.826 558.657 215.184C594.419 201.201 633.859 206.505 671.87 215.229C719.365 226.263 767.833 241.888 809.857 275.735C829.205 291.313 847.413 312.12 860.499 336.62C871.168 356.606 878.448 378.978 880.348 403.113C881.305 415.241 880.773 428.175 876.047 437.918C872.232 445.806 866.244 450.684 860.453 454.94C811.012 491.249 755.173 499.867 707.754 480.838C730.05 471.415 754.413 471.993 778.092 473.847C801.665 475.701 825.375 478.771 848.887 483.27C933.892 499.623 1016.65 535.963 1080.72 588.945C1123.17 624.038 1152.22 665.895 1160.93 715.655C1168.28 757.983 1160.64 805.873 1137.07 850.435C1135.58 853.247 1133.98 856.028 1132.35 858.809C1087.03 936.55 997.832 988.103 904.012 1008.97C846.501 1021.77 788.579 1028.11 733.91 1028.03C696.674 1027.98 660.73 1024.32 626.336 1018.93C606.486 1015.89 586.211 1010.79 569.888 1001.4C559.113 995.201 550.069 987.206 544.005 976.278C534.825 959.743 534.065 938.769 540.51 922.901C547.881 904.587 570.481 894.419 579.418 915.12C590.239 940.197 565.937 983.148 541.984 1011.78C503.714 1057.7 463.286 1100.81 415.715 1124.63C397.659 1133.67 379.223 1139.5 360.499 1142.76C300.693 1153.19 238.425 1134.8 185.427 1110.37C158.86 1098.14 132.552 1084.75 111 1064.93C96.4554 1051.56 83.7799 1035.6 74.8279 1016.08C70.2532 1006.11 66.94 995.444 64.9186 984.592C61.2406 964.758 61.4685 945 64.1587 925.257C68.6574 892.276 81.1201 859.478 99.7079 830.814C112.262 811.451 127.628 793.957 145.151 778.972C159.468 766.722 175.396 756.265 192.738 745.353C212.359 733.011 233.85 720.26 253.167 708.451" stroke="#21F225" stroke-width="0.8162" stroke-miterlimit="10" stroke-linecap="round" stroke-linejoin="round"/>
<path d="M467.804 506.092C475.616 369.336 283.583 286.17 180.355 202.548C144.623 173.61 114.698 153.639 106.247 133.44C107.038 122.832 108.998 114.169 111.156 106.904C117.297 86.2187 125.489 76.6132 125.762 85.6563C89.9545 78.2699 52.9462 127.255 44.1614 184.462C42.9759 192.38 42.3072 200.435 42.2616 208.521C41.8664 250.788 54.3596 290.562 73.7073 323.634C84.6502 342.176 97.7665 358.606 111.932 372.163C192.423 449.113 309.709 444.979 386.568 372.041C419.382 340.9 445.797 299.043 474.75 262.719C497.502 234.146 521.987 209.311 553.083 196.058C590.41 180.145 631.629 184.629 671.281 192.654C720.813 202.806 771.272 217.838 814.907 252.004C834.954 267.704 853.77 288.845 867.175 313.953C878.072 334.349 885.443 357.299 887.024 382.133C887.86 394.596 887.054 407.895 881.917 417.865C877.738 425.951 871.324 430.89 865.093 435.176C811.913 471.804 751.894 479.708 700.569 458.764C723.397 448.52 748.414 448.794 772.686 450.45C796.851 452.107 821.154 455.071 845.228 459.585C932.27 475.923 1016.73 513.342 1081.88 571.324C1124.94 609.655 1154.81 656.968 1164.47 711.758C1172.73 758.752 1165.98 811.08 1142.71 859.731C1141.23 862.801 1139.67 865.856 1138.06 868.895C1093.16 953.794 1002.73 1010.5 907.952 1032.31C850.228 1045.59 792.003 1050.64 736.772 1048.47C699.034 1046.98 662.512 1041.58 627.51 1034.21C607.326 1030.01 586.641 1023.68 570.12 1012.73C559.223 1005.51 550.149 996.365 544.237 984.145C535.285 965.649 535.255 942.502 542.9 924.917C551.684 904.581 576.428 893.137 587.234 914.263C600.274 939.766 576.975 984.465 553.767 1014.44C516.682 1062.49 477.485 1108.41 430.218 1134.82C412.178 1144.9 393.666 1151.68 374.805 1155.81C314.163 1169.13 250.222 1153.02 194.885 1130.83C167.087 1119.69 139.35 1107.28 116.172 1088.12C100.563 1075.21 86.778 1059.55 76.595 1039.94C71.4275 1029.98 67.4759 1019.24 64.801 1008.16C59.9222 988.036 58.8887 967.458 60.4846 946.666C63.1291 911.998 74.0265 876.844 91.5959 845.885C103.481 824.926 118.376 805.882 135.565 789.438C149.639 775.972 165.385 764.375 182.544 752.885C202.058 739.799 223.428 727.017 243.186 715.846" stroke="#21F225" stroke-width="0.8162" stroke-miterlimit="10" stroke-linecap="round" stroke-linejoin="round"/>
<path d="M469.1 503.89C479.435 361.359 290.427 278.238 183.642 200.634C145.585 172.973 113.79 153.641 103.652 133.959C103.196 124.338 103.652 116.252 104.275 109.307C106.038 89.6247 109.337 79.0466 105.658 85.2475C67.1911 76.7212 27.523 127.059 17.7808 185.71C16.4585 193.81 15.6834 202.063 15.577 210.331C14.8627 253.677 27.7814 294.303 47.889 327.922C59.2727 346.814 72.9665 363.486 87.6939 377.18C171.787 454.799 294.196 448.02 374.155 368.639C408.367 334.67 435.754 289.287 465.893 249.832C489.557 218.857 515.06 191.759 547.463 176.894C586.356 159.067 629.353 162.699 670.647 170.04C722.216 179.296 774.666 193.734 819.912 228.25C840.642 244.057 860.081 265.562 873.805 291.248C884.931 312.07 892.348 335.597 893.67 361.1C894.369 373.882 893.32 387.561 887.758 397.759C883.228 406.042 876.374 411.027 869.702 415.359C812.783 452.291 748.585 459.48 693.354 436.637C716.729 425.557 742.384 425.557 767.234 427.016C791.992 428.475 816.872 431.332 841.509 435.846C930.572 452.17 1016.78 490.667 1082.98 553.65C1126.68 595.218 1157.33 648.002 1167.96 707.823C1177.09 759.483 1171.24 816.249 1148.31 868.988C1146.85 872.332 1145.3 875.63 1143.72 878.943C1099.26 971 1007.58 1032.84 911.847 1055.63C853.911 1069.41 795.381 1073.15 739.588 1068.88C701.348 1065.96 664.233 1058.82 628.623 1049.46C608.105 1044.11 587.01 1036.52 570.292 1024.03C559.273 1015.79 550.154 1005.47 544.408 991.974C535.685 971.517 536.368 946.197 545.214 926.894C555.412 904.537 582.314 891.831 594.959 913.353C610.203 939.296 587.907 985.743 565.474 1017.04C529.59 1067.22 491.609 1115.95 444.661 1144.95C426.651 1156.07 408.048 1163.79 389.034 1168.81C327.572 1185.03 261.96 1171.21 204.251 1151.24C175.207 1141.19 146.056 1129.76 121.252 1111.27C104.579 1098.82 89.6696 1083.44 78.2707 1063.76C72.5105 1053.82 67.9358 1042.98 64.5769 1031.7C58.5127 1011.29 56.2177 989.877 56.7041 968.052C57.5096 931.697 66.8263 894.187 83.3774 860.918C94.5787 838.378 109.017 817.754 125.888 799.865C139.718 785.199 155.281 772.463 172.258 760.365C191.667 746.534 212.929 733.722 233.098 723.189" stroke="#21F225" stroke-width="0.8162" stroke-miterlimit="10" stroke-linecap="round" stroke-linejoin="round"/>
<path d="M470.396 501.689C483.269 353.382 297.361 270.535 186.914 198.722C146.516 172.459 112.867 153.628 101.042 134.493C99.34 125.861 98.3065 118.368 97.3946 111.726C94.8109 93.0624 93.1998 81.4963 85.5549 84.84C44.4278 75.1585 2.10007 126.879 -8.61487 186.959C-10.0739 195.242 -10.9403 203.692 -11.1227 212.158C-12.1714 256.568 1.18816 298.06 22.0709 332.241C33.8953 351.497 48.1363 368.413 63.4716 382.229C150.984 460.699 278.682 451.093 361.742 365.267C397.367 328.457 425.636 279.517 457.036 236.992C481.552 203.555 508.119 174.268 541.859 157.793C582.318 138.035 627.092 140.846 670.028 147.488C723.648 155.847 778.059 169.708 824.931 204.559C846.346 220.471 866.408 242.342 880.451 268.62C891.805 289.868 899.267 313.957 900.316 340.159C900.878 353.276 899.586 367.304 893.598 377.745C888.719 386.226 881.424 391.272 874.311 395.634C813.654 432.87 745.276 439.345 686.138 414.586C710.061 402.686 736.339 402.382 761.797 403.659C787.132 404.92 812.605 407.686 837.819 412.185C928.919 428.493 1016.87 468.1 1084.1 536.053C1128.43 580.873 1159.88 639.099 1171.44 703.966C1181.47 760.291 1176.52 821.511 1153.89 878.323C1152.46 881.925 1150.94 885.496 1149.34 889.053C1105.48 988.329 1012.36 1055.08 915.712 1078.99C857.517 1093.17 798.744 1095.69 742.373 1089.32C703.632 1084.95 665.924 1076.1 629.722 1064.75C608.854 1058.24 587.348 1049.41 570.448 1035.38C559.307 1026.13 550.158 1014.64 544.565 999.865C536.053 977.447 537.482 949.953 547.528 928.934C559.14 904.57 588.199 890.603 602.699 912.519C620.162 938.934 598.869 987.083 577.18 1019.71C542.482 1072.04 505.763 1123.57 459.088 1155.16C441.124 1167.32 422.429 1176 403.264 1181.88C340.996 1201 273.682 1189.47 213.617 1171.71C183.342 1162.76 152.747 1152.31 126.332 1134.46C108.596 1122.49 92.5766 1107.38 79.9466 1087.62C73.5937 1077.68 68.3806 1066.77 64.3682 1055.28C57.1185 1034.56 53.5621 1012.34 52.939 989.484C51.9055 951.427 59.6415 911.592 75.1744 875.997C85.6918 851.893 99.6591 829.688 116.225 810.325C129.798 794.457 145.194 780.566 161.988 767.875C181.275 753.3 202.447 740.442 223.04 730.563" stroke="#21F225" stroke-width="0.8162" stroke-miterlimit="10" stroke-linecap="round" stroke-linejoin="round"/>
<path d="M471.681 499.492C487.077 345.394 304.406 263.064 190.19 196.814C147.467 172.025 109.425 155.231 98.4364 135.032C94.5152 127.843 92.9801 120.456 90.5179 114.149C83.6026 96.4732 77.0065 85.6062 65.4556 84.4511C20.5593 79.9524 -23.3188 126.703 -34.9912 188.211C-36.5871 196.692 -37.5598 205.325 -37.8181 213.973C-39.2012 259.447 -25.401 301.805 -3.75837 336.533C8.50681 356.139 23.295 373.314 39.223 387.266C130.156 466.587 263.158 454.124 349.303 361.884C386.341 322.232 415.583 269.812 448.154 224.14C473.581 188.318 501.151 156.75 536.214 138.664C578.238 116.991 624.791 118.967 669.352 124.91C725.009 132.387 781.365 145.731 829.894 180.84C851.962 196.905 872.678 219.095 887.04 245.95C898.622 267.623 906.115 292.291 906.905 319.177C907.315 332.612 905.795 347.02 899.382 357.69C894.153 366.368 886.402 371.459 878.864 375.867C814.422 413.331 741.91 419.183 678.867 392.509C703.336 379.788 730.253 379.196 756.288 380.259C782.216 381.323 808.267 383.983 834.059 388.497C927.18 404.79 1016.93 445.522 1085.15 518.429C1130.16 566.502 1162.36 630.168 1174.88 700.081C1185.8 761.073 1181.68 826.715 1159.44 887.631C1158.03 891.491 1156.52 895.321 1154.96 899.151C1111.51 1005.53 1017.2 1077.51 919.596 1102.31C861.188 1117.01 802.126 1118.19 745.178 1109.74C705.935 1103.92 667.635 1093.34 630.824 1080C609.622 1072.34 587.706 1062.26 570.608 1046.68C559.346 1036.41 550.151 1023.76 544.71 1007.71C536.396 983.335 538.585 953.683 549.832 930.931C562.857 904.546 594.089 889.333 610.428 911.644C630.125 938.53 609.805 988.397 588.876 1022.35C555.364 1076.82 519.921 1131.14 473.505 1165.32C455.57 1178.53 436.816 1188.15 417.483 1194.91C354.44 1216.97 285.408 1207.7 222.973 1192.16C191.466 1184.32 159.443 1174.82 131.402 1157.65C112.586 1146.13 95.4726 1131.29 81.6268 1111.49C74.6811 1101.55 68.8448 1090.56 64.1637 1078.87C55.7285 1057.84 50.8954 1034.81 49.178 1010.92C46.3055 971.146 52.4457 929.001 66.9754 891.081C76.8089 865.395 90.3203 841.625 106.552 820.803C119.881 803.72 135.095 788.688 151.707 775.405C170.888 760.085 191.953 747.197 212.972 737.971" stroke="#21F225" stroke-width="0.8162" stroke-miterlimit="10" stroke-linecap="round" stroke-linejoin="round"/>
<path d="M472.984 497.298C490.903 337.425 311.652 255.809 193.469 194.924C148.436 171.716 109.771 154.648 95.8339 135.589C91.1831 129.236 87.6571 122.564 83.6295 116.576C72.3979 99.8575 60.7558 87.1971 45.3445 84.051C-1.66439 74.4608 -48.7494 126.516 -61.3945 189.468C-63.1272 198.131 -64.2062 206.961 -64.5254 215.792C-66.2276 262.345 -52.0019 305.554 -29.5841 340.83C-16.8782 360.8 -1.54287 378.233 14.9779 392.292C109.33 472.464 247.743 457.25 336.882 358.49C375.38 316.041 405.549 260.08 439.289 211.262C465.644 173.053 494.186 139.191 530.602 119.524C574.176 95.8755 622.522 97.061 668.726 102.32C726.419 108.901 784.797 121.637 834.906 157.095C857.673 173.251 878.997 195.821 893.679 223.269C905.503 245.368 913.026 270.597 913.558 298.183C913.832 311.952 912.069 326.71 905.229 337.623C899.652 346.483 891.46 351.651 883.48 356.104C815.33 393.903 738.608 399.009 671.674 370.436C696.691 356.879 724.246 355.998 750.874 356.879C777.395 357.745 804.023 360.299 830.392 364.813C925.535 381.09 1017.08 422.947 1086.3 500.794C1131.98 552.149 1164.94 621.242 1178.42 696.185C1190.22 761.843 1187.04 831.954 1165.08 896.927C1163.68 901.046 1162.21 905.15 1160.66 909.223C1117.55 1022.74 1022.08 1099.95 923.498 1125.66C864.877 1140.88 805.543 1140.64 748.001 1130.19C708.272 1122.87 669.379 1110.62 631.961 1095.3C610.409 1086.5 588.052 1075.18 570.802 1058.03C559.388 1046.75 550.193 1032.92 544.904 1015.6C536.833 989.243 539.736 957.432 552.184 932.963C566.638 904.557 600.029 888.127 618.206 910.803C640.153 938.176 620.79 989.729 600.637 1025.04C568.325 1081.65 534.143 1138.77 487.985 1175.55C470.112 1189.8 451.251 1200.37 431.766 1207.99C367.948 1232.97 297.199 1226.07 232.392 1212.65C199.655 1205.94 166.218 1197.34 136.535 1180.87C116.656 1169.79 98.4327 1155.23 83.3558 1135.38C75.8022 1125.44 69.3429 1114.36 63.993 1102.47C54.3723 1081.12 48.3082 1057.27 45.4357 1032.38C40.785 990.884 45.2229 946.413 58.7799 906.198C67.899 878.932 80.9545 853.566 96.8978 831.315C109.953 813.016 124.969 796.815 141.445 782.984C160.473 766.874 181.462 754.001 202.907 745.413" stroke="#21F225" stroke-width="0.8162" stroke-miterlimit="10" stroke-linecap="round" stroke-linejoin="round"/>
<path d="M192.869 752.766C129.309 775.852 74.108 841.221 50.6111 921.241C26.4303 1003.57 37.9052 1101.65 85.0661 1159.2C125.692 1208.8 185.087 1223.68 241.793 1233.07C329.458 1247.6 426.12 1251.17 502.447 1185.69C548.362 1146.3 581.251 1086.4 612.363 1027.65C631.771 991.017 650.161 937.777 625.965 909.903C605.964 886.862 570.369 904.508 554.517 934.935C540.869 961.122 537.236 995.091 545.079 1023.42C558.028 1070.22 596.739 1094.02 633.078 1110.54C726.032 1152.84 827.847 1175.6 927.382 1148.98C1026.92 1122.35 1123.58 1039.94 1166.32 919.296C1219.54 769.013 1177.09 588.881 1087.42 483.16C997.751 377.439 870.357 336.586 745.425 333.485C718.205 332.801 690.012 333.987 664.448 348.364C735.288 378.837 816.22 374.491 888.078 336.342C896.498 331.874 905.131 326.646 911.059 317.572C918.323 306.447 920.33 291.309 920.193 277.205C919.585 213.751 882.212 162.7 839.899 133.382C788.194 97.559 727.81 85.4306 668.08 79.7463C620.235 75.1868 570.126 74.8828 524.971 100.401C438.978 149.006 395.45 274.333 324.458 355.113C232.112 460.18 88.5162 478.357 -9.25573 397.334C-56.5534 358.137 -94.4129 292.252 -91.2212 217.612C-88.0295 142.972 -30.64 68.7274 25.2449 83.6371C51.7207 90.7044 72.5122 114.612 93.2277 136.102C153.809 198.963 502.63 265.366 474.269 495.075" stroke="#21F225" stroke-width="0.8162" stroke-miterlimit="10" stroke-linecap="round" stroke-linejoin="round"/>
</g>
</svg>
