<svg width="346" height="1120" viewBox="0 0 346 1120" fill="none" xmlns="http://www.w3.org/2000/svg">
<path d="M-299 574.682C-325.541 589.413 -476.994 705.131 -585.22 597.497C-605.777 577.053 -617.596 548.967 -620.855 522.84C-624.114 496.712 -619.424 472.212 -611.522 450.062C-588.753 386.217 -536.97 338.504 -468.983 328.677C-452.575 326.305 -434.936 326.157 -417.283 332.291C-402.378 337.473 -388.251 346.836 -374.377 356.074C-320.987 391.615 -267.604 427.163 -214.206 462.71C-166.068 494.755 -116.403 527.518 -64.5059 540.878C-5.53168 556.065 50.8574 544.367 97.4121 520.354C124.217 506.526 150.344 484.473 147.909 449.93C145.756 419.449 120.551 388.314 92.095 371.437C63.6383 354.547 32.6143 349.418 3.20013 347.417C-51.4573 343.702 -107.725 351.197 -139.217 388.875C-160.939 414.869 -168.36 452.808 -166.236 491.748C-164.112 530.688 -153.064 570.899 -140.48 610.522C-131.997 637.227 -122.683 664.281 -120.685 690.634C-117.043 738.626 -138.066 778.717 -164.426 810.907C-197.753 851.615 -242.758 884.345 -299.647 887.262C-356.536 890.165 -426.293 856.864 -460.18 798.857C-472.512 777.736 -479.657 753.639 -476.174 733.101C-473.418 716.817 -464.305 703.872 -453.798 692.985C-422.701 660.761 -378.915 643.713 -334.531 630.349C-321.03 626.281 -307.052 622.32 -297.132 612.999C-287.218 603.686 -282.227 587.539 -289.225 571.864" stroke="#21F225" stroke-width="0.8162" stroke-miterlimit="10" stroke-linecap="round" stroke-linejoin="round"/>
<path d="M-299.491 573.138C-327.682 584.21 -476.583 696.206 -584.726 595.138C-605.456 575.762 -618.187 549.43 -621.719 524.294C-625.241 499.205 -620.732 475.623 -613.327 454.339C-591.982 392.97 -542.857 346.119 -477.767 337.979C-463.063 336.136 -445.891 338.054 -427.973 345.262C-425.358 346.303 -422.765 347.454 -420.169 348.687C-407.691 354.679 -395.456 362.562 -383.39 370.071C-377.128 373.948 -370.872 377.729 -364.66 381.43C-331.292 401.156 -298.873 418.249 -269.067 435.203C-253.819 443.875 -239.09 452.689 -224.073 461.4C-213.264 467.665 -202.24 474.008 -190.686 480.127C-178.268 486.716 -165.134 493.263 -151.865 499.373C-134.963 507.198 -117.711 514.09 -99.9894 519.947C-90.8925 522.953 -81.6648 525.699 -72.3798 528.08C-64.0709 530.216 -55.8268 532.005 -47.7253 533.535C-43.379 534.334 -39.0711 535.045 -34.9367 535.704C-31.9394 536.179 -29.0611 536.598 -26.214 536.937C-3.40976 539.659 17.8389 538.13 37.3248 532.866C45.3638 529.921 53.5004 526.739 61.445 523.265C69.3559 519.8 77.1006 516.015 84.6351 511.987C112.295 497.202 140.07 475.013 140.043 441.884C140.015 412.637 117.381 383.312 91.7081 368.124C65.8314 352.815 37.3125 349.136 9.92548 348.738C8.08513 348.712 6.24478 348.686 4.39213 348.688C-44.8557 348.769 -96.2782 359.833 -126.613 396.997C-148.183 423.311 -156.321 460.848 -155.466 499.133C-154.987 523.366 -151.187 547.99 -145.775 572.562C-142.617 586.894 -138.953 601.214 -135.119 615.26C-132.383 625.169 -129.546 635.052 -127.03 644.787C-123 660.3 -119.725 675.495 -118.788 690.38C-117.678 708.122 -119.758 724.509 -124.124 740.584C-130.629 764.6 -143.406 787.023 -158.221 806.504C-181.739 837.426 -211.638 863.971 -248.45 877.408C-260.681 881.872 -273.688 884.862 -287.471 886.107C-325.105 889.493 -369.116 876.764 -404.27 851.158C-421.029 839.004 -435.829 824 -447.13 806.328C-455.093 793.819 -461.189 780.096 -463.99 766.635C-465.662 758.616 -466.153 750.702 -465.194 743.231C-463.168 727.407 -454.918 714.695 -445.352 703.868C-427.988 684.365 -405.978 670.061 -381.841 658.587C-366.464 651.227 -350.211 645.014 -333.767 639.339C-320.928 634.88 -307.536 630.53 -298.021 621.025C-288.454 611.476 -283.572 595.334 -290.095 579.738" stroke="#21F225" stroke-width="0.8162" stroke-miterlimit="10" stroke-linecap="round" stroke-linejoin="round"/>
<path d="M-299.966 571.595C-329.799 579.015 -476.265 687.275 -584.229 592.782C-605.153 574.468 -618.775 549.896 -622.58 525.751C-626.372 501.708 -622.03 479.029 -615.123 458.61C-595.187 399.717 -548.716 353.55 -486.523 347.269C-473.509 345.953 -456.834 349.988 -438.634 358.208C-435.998 359.398 -433.345 360.669 -430.701 362.023C-417.847 368.59 -405.047 376.699 -392.386 384.056C-385.778 387.895 -379.166 391.529 -372.638 394.982C-337.467 413.566 -304.098 426.633 -275.964 439.595C-261.456 446.28 -247.964 453.309 -233.91 460.077C-223.848 464.923 -213.446 469.854 -202.089 474.608C-189.895 479.704 -176.406 484.997 -162.766 490.036C-145.404 496.519 -127.583 502.166 -109.021 507.469C-99.5833 510.171 -89.9166 512.807 -80.2164 515.29C-71.617 517.493 -63.0867 519.543 -54.7612 521.458C-50.3288 522.478 -45.927 523.431 -41.8798 524.401C-38.9257 525.111 -36.2133 525.771 -33.5393 526.343C-12.1355 530.898 6.94867 531.096 23.8663 526.854C31.7452 523.294 40.019 519.702 48.13 515.858C56.2007 512.03 64.1489 507.934 71.9299 503.634C100.445 487.89 129.864 465.614 132.241 433.843C134.34 405.86 114.289 378.315 91.3931 364.823C68.0891 351.09 42.0799 348.956 16.7161 350.079C15.0039 350.156 13.2917 350.233 11.5808 350.338C-34.1616 353.166 -83.6096 367.128 -113.937 405.132C-135.347 431.773 -144.107 468.903 -144.618 506.537C-144.943 530.406 -142.294 554.546 -138.079 578.569C-135.6 592.572 -132.76 606.536 -129.685 620.025C-127.514 629.551 -125.2 638.947 -123.22 648.08C-120.017 662.635 -117.452 676.572 -116.819 690.167C-116.05 706.386 -117.704 721.153 -121.191 736.591C-126.394 759.688 -138.068 782.446 -151.943 802.141C-173.946 833.419 -202.127 860.427 -237.463 874.968C-249.244 879.812 -261.82 883.233 -275.216 884.985C-311.939 889.796 -355.442 878.909 -390.598 855.49C-407.349 844.335 -422.351 830.516 -433.999 813.846C-442.228 802.06 -448.7 789.012 -451.997 776.041C-453.955 768.336 -454.755 760.664 -454.14 753.414C-452.837 738.056 -445.5 725.547 -436.825 714.811C-421.151 695.418 -400.749 680.948 -378.198 668.908C-363.815 661.235 -348.514 654.563 -332.915 648.383C-320.73 643.552 -307.933 638.794 -298.81 629.103C-289.596 619.312 -284.823 603.189 -290.85 587.664" stroke="#21F225" stroke-width="0.8162" stroke-miterlimit="10" stroke-linecap="round" stroke-linejoin="round"/>
<path d="M-300.449 570.046C-331.925 573.814 -476.058 678.336 -583.719 590.425C-604.865 573.162 -619.35 550.376 -623.428 527.208C-627.477 504.21 -623.315 482.449 -616.913 462.876C-598.401 406.473 -554.562 360.708 -495.286 356.553C-483.929 355.756 -467.78 361.882 -449.303 371.161C-446.632 372.5 -443.938 373.899 -441.227 375.365C-428.002 382.53 -414.632 390.83 -401.363 398.047C-394.408 401.835 -387.442 405.321 -380.583 408.54C-343.57 425.926 -309.331 434.985 -282.834 444.001C-269.081 448.685 -256.803 453.948 -243.728 458.762C-234.405 462.194 -224.619 465.72 -213.474 469.083C-201.496 472.706 -187.654 476.689 -173.654 480.698C-155.833 485.798 -137.443 490.241 -118.039 494.99C-108.248 497.388 -98.1493 499.907 -88.0475 502.494C-79.1505 504.771 -70.3424 507.046 -61.8052 509.375C-57.2802 510.609 -52.791 511.811 -48.8311 513.093C-45.9201 514.037 -43.3737 514.938 -40.88 515.738C-20.8694 522.132 -3.96395 524.043 10.3926 520.829C18.1185 516.662 26.5216 512.64 34.786 508.44C43.0173 504.261 51.1612 499.835 59.1886 495.263C88.5658 478.554 119.604 456.26 124.404 425.799C128.612 399.127 111.154 373.308 91.0426 361.518C70.3179 349.354 46.8236 348.73 23.4714 351.416C21.9009 351.595 20.3096 351.769 18.7269 351.977C-23.521 357.607 -70.8977 374.489 -101.304 413.256C-122.491 440.269 -131.983 476.956 -133.811 513.93C-134.974 537.444 -133.45 561.099 -130.425 584.551C-128.639 598.226 -126.583 611.833 -124.294 624.765C-122.675 633.908 -120.918 642.826 -119.461 651.341C-117.131 664.948 -115.223 677.625 -114.893 689.915C-114.472 704.607 -115.7 717.753 -118.302 732.559C-122.205 754.724 -132.788 777.832 -145.709 797.739C-166.191 829.367 -192.666 856.866 -226.519 872.502C-237.843 877.735 -250.002 881.573 -263.011 883.832C-298.843 890.076 -341.858 881.066 -376.984 859.785C-393.733 849.635 -408.917 836.98 -420.925 821.326C-429.406 810.264 -436.269 797.891 -440.061 785.409C-442.305 778.019 -443.414 770.601 -443.145 763.546C-442.571 748.648 -436.119 736.353 -428.37 725.704C-414.357 706.447 -395.607 691.757 -374.628 679.18C-361.246 671.159 -346.889 664.048 -332.135 657.376C-320.605 652.161 -308.401 647.008 -299.678 637.124C-290.825 627.084 -286.146 610.979 -291.697 595.534" stroke="#21F225" stroke-width="0.8162" stroke-miterlimit="10" stroke-linecap="round" stroke-linejoin="round"/>
<path d="M-300.935 568.494C-334.046 568.603 -475.989 669.414 -583.226 588.066C-604.615 571.847 -619.941 550.866 -624.299 528.656C-628.611 506.71 -624.631 485.854 -618.726 467.145C-601.617 413.211 -560.361 367.478 -504.052 365.847C-494.323 365.568 -478.715 373.785 -459.973 384.124C-457.282 385.613 -454.527 387.132 -451.763 388.712C-438.166 396.488 -424.213 404.964 -410.356 412.036C-403.042 415.772 -395.726 419.118 -388.559 422.096C-349.697 438.277 -314.665 443.298 -289.727 448.397C-276.765 451.049 -265.658 454.598 -253.561 457.443C-244.964 459.462 -235.794 461.582 -224.874 463.568C-213.092 465.711 -198.923 468.413 -184.551 471.365C-166.284 475.11 -147.318 478.328 -127.075 482.509C-116.942 484.603 -106.405 487.011 -95.8877 489.701C-86.693 492.053 -77.6001 494.56 -68.8447 497.295C-64.2206 498.736 -59.644 500.186 -55.7778 501.788C-52.9165 502.974 -50.5295 504.107 -48.2161 505.136C-29.5844 513.382 -14.8721 516.994 -3.07026 514.801C4.4963 510.033 13.0351 505.573 21.4666 501.016C29.8578 496.475 38.1981 491.73 46.472 486.887C76.7046 469.22 109.337 446.963 116.598 417.742C122.89 392.438 108.051 368.288 90.7168 358.207C72.5649 347.62 51.6056 348.499 30.2506 352.734C28.8082 353.016 27.3588 353.293 25.8976 353.611C-12.8695 362.044 -58.2255 381.787 -88.6392 421.381C-109.652 448.735 -119.835 485.005 -122.981 521.319C-124.981 544.477 -124.582 567.648 -122.746 590.543C-121.647 603.882 -120.388 617.131 -118.877 629.513C-117.812 638.26 -116.604 646.705 -115.676 654.611C-114.186 667.261 -112.982 678.688 -112.942 689.672C-112.863 702.829 -113.658 714.347 -115.388 728.536C-117.977 749.754 -127.475 773.233 -139.443 793.34C-158.41 825.324 -183.186 853.306 -215.543 870.039C-226.411 875.659 -238.153 879.914 -250.773 882.694C-285.721 890.379 -328.241 883.237 -363.337 864.095C-380.099 854.951 -395.444 843.467 -407.82 828.822C-416.545 818.489 -423.799 806.792 -428.094 794.793C-430.622 787.718 -432.04 780.554 -432.117 773.708C-432.264 759.289 -426.705 747.202 -419.868 736.625C-407.516 717.518 -390.412 702.588 -371.003 689.486C-358.616 681.125 -345.204 673.561 -331.315 666.404C-320.439 660.804 -308.829 655.257 -300.505 645.181C-292.006 634.898 -287.436 618.799 -292.498 603.433" stroke="#21F225" stroke-width="0.8162" stroke-miterlimit="10" stroke-linecap="round" stroke-linejoin="round"/>
<path d="M-301.424 566.949C-336.186 563.398 -476.053 660.526 -582.73 585.707C-604.382 570.526 -620.521 551.363 -625.161 530.109C-629.721 509.228 -625.937 489.264 -620.523 471.414C-604.837 419.97 -566.049 373.681 -512.815 375.141C-504.654 375.369 -489.66 385.688 -470.642 397.074C-467.923 398.704 -465.121 400.358 -462.296 402.044C-448.334 410.424 -433.799 419.077 -419.354 426.017C-411.686 429.709 -404.009 432.9 -396.538 435.644C-355.822 450.613 -320.121 451.588 -296.632 452.793C-284.514 453.415 -274.497 455.247 -263.399 456.118C-255.514 456.735 -246.954 457.429 -236.28 458.033C-224.68 458.694 -210.204 460.123 -195.454 462.01C-176.733 464.407 -157.199 466.394 -136.108 470.014C-125.628 471.81 -114.658 474.102 -103.726 476.894C-94.2338 479.32 -84.8625 482.066 -75.8888 485.208C-71.1794 486.857 -66.5082 488.562 -62.7364 490.469C-59.9111 491.896 -57.6972 493.264 -55.564 494.52C-38.2976 504.617 -25.7849 509.937 -16.5513 508.766C-9.1377 503.39 -0.468942 498.514 8.1153 493.587C16.6664 488.682 25.2102 483.627 33.7169 478.512C64.8113 459.88 98.9868 437.719 108.754 409.687C117.083 385.773 104.916 363.276 90.359 354.892C74.7864 345.873 56.3557 348.262 36.9985 354.06C35.6915 354.452 34.3694 354.818 33.0364 355.239C-2.25703 366.468 -45.5925 389.072 -76.0133 429.495C-96.8593 457.182 -107.739 493.055 -112.182 528.701C-115.027 551.512 -115.746 574.19 -115.1 596.514C-114.687 609.518 -114.225 622.41 -113.494 634.243C-112.98 642.606 -112.323 650.566 -111.924 657.862C-111.274 669.555 -110.768 679.723 -111.024 689.41C-111.293 701.039 -111.649 710.922 -112.507 724.494C-113.781 744.766 -122.196 768.601 -133.216 788.928C-150.676 821.262 -173.745 849.749 -204.614 867.557C-215.039 873.565 -226.356 878.244 -238.583 881.524C-272.653 890.656 -314.671 885.377 -349.731 868.38C-366.497 860.247 -382.011 849.927 -394.754 836.291C-403.731 826.682 -411.361 815.674 -416.158 804.157C-418.965 797.403 -420.699 790.488 -421.122 783.836C-421.998 769.891 -417.331 758.012 -411.407 747.507C-400.715 728.55 -385.258 713.365 -367.426 699.746C-356.033 691.044 -343.581 683.028 -330.529 675.387C-320.308 669.401 -309.299 663.453 -301.359 653.198C-293.214 642.659 -288.753 626.592 -293.333 611.298" stroke="#21F225" stroke-width="0.8162" stroke-miterlimit="10" stroke-linecap="round" stroke-linejoin="round"/>
<path d="M-301.906 565.405C-338.31 558.202 -476.265 651.681 -582.226 583.363C-604.176 569.215 -621.093 551.888 -626.015 531.578C-630.817 511.755 -627.234 492.689 -622.319 475.705C-608.05 426.716 -571.391 390.383 -521.584 384.437C-515.226 386.654 -500.606 397.586 -481.316 410.039C-478.562 411.818 -475.713 413.592 -472.835 415.406C-458.508 424.39 -443.383 433.212 -428.349 440.021C-420.322 443.661 -412.29 446.705 -404.516 449.215C-361.939 462.965 -325.689 459.94 -303.535 457.212C-292.309 455.826 -283.301 455.91 -273.25 454.815C-266.048 454.031 -258.112 453.299 -247.697 452.534C-236.252 451.699 -221.497 451.87 -206.374 452.7C-187.214 453.748 -167.11 454.518 -145.159 457.562C-134.344 459.062 -122.93 461.236 -111.583 464.118C-101.786 466.61 -92.1375 469.582 -82.9521 473.137C-78.1501 475 -73.3979 476.962 -69.7069 479.173C-66.9313 480.842 -64.8833 482.45 -62.9239 483.927C-47.0214 495.903 -36.7168 502.897 -30.0444 502.754C-22.7908 496.764 -13.9856 491.464 -5.2343 486.18C3.47675 480.912 12.2233 475.532 20.9771 470.16C52.927 450.569 88.5993 428.539 100.925 401.654C111.231 379.167 101.784 358.301 90.0165 351.597C77.0045 344.183 61.1483 348.045 43.7683 355.4C42.603 355.895 41.3954 356.365 40.2042 356.888C8.36495 370.935 -32.9304 396.379 -63.3585 437.629C-84.0305 465.656 -95.6068 501.119 -101.354 536.105C-105.044 558.567 -106.874 580.746 -107.418 602.514C-107.691 615.196 -108.02 627.709 -108.074 638.999C-108.113 646.966 -108.005 654.454 -108.135 661.14C-108.333 671.869 -108.538 680.781 -109.069 689.175C-109.715 699.277 -109.611 707.504 -109.597 720.472C-109.565 739.778 -116.887 764.004 -126.954 784.53C-142.892 817.213 -164.268 846.218 -193.635 865.087C-203.61 871.491 -214.509 876.6 -226.336 880.374C-259.542 890.967 -301.059 887.537 -336.068 872.67C-352.853 865.55 -368.521 856.393 -381.639 843.76C-390.861 834.881 -398.874 824.555 -404.175 813.507C-407.26 807.075 -409.317 800.414 -410.072 793.956C-411.662 780.498 -407.901 768.827 -402.883 758.387C-393.858 739.601 -380.034 724.148 -363.794 710.012C-353.402 700.963 -341.888 692.501 -329.687 684.374C-320.114 677.997 -309.706 671.648 -302.165 661.214C-294.374 650.432 -290.014 634.378 -294.105 619.162" stroke="#21F225" stroke-width="0.8162" stroke-miterlimit="10" stroke-linecap="round" stroke-linejoin="round"/>
<path d="M-302.387 563.848C-340.433 552.993 -476.616 642.891 -581.721 580.992C-603.996 567.879 -621.657 552.393 -626.868 533.02C-631.911 514.269 -628.531 496.088 -624.114 479.955C-611.267 433.47 -577.134 399.033 -530.352 393.72C-525.665 396.703 -511.55 409.471 -491.989 422.991C-489.208 424.912 -486.311 426.821 -483.373 428.741C-468.674 438.336 -452.973 447.328 -437.344 454.012C-428.964 457.593 -420.577 460.49 -412.486 462.78C-368.041 475.303 -331.359 468.394 -310.423 461.617C-300.147 458.288 -292.056 456.537 -283.078 453.505C-276.541 451.297 -269.236 449.134 -259.098 447.022C-247.803 444.67 -232.774 443.603 -217.273 443.368C-197.666 443.076 -176.994 442.614 -154.188 445.09C-143.033 446.299 -131.18 448.349 -119.418 451.334C-109.323 453.901 -99.3896 457.105 -89.9925 461.073C-85.0986 463.137 -80.2512 465.367 -76.6546 467.884C-73.9215 469.801 -72.0329 471.643 -70.2609 473.34C-55.7217 487.209 -47.6259 495.863 -43.5146 496.748C-36.4139 490.151 -27.4723 484.427 -18.5747 478.78C-9.71024 473.156 -0.760796 467.452 8.23942 461.807C41.0512 441.251 78.1399 419.385 93.0981 393.621C105.314 372.579 98.6526 353.312 89.6761 348.304C79.2304 342.473 65.9424 347.815 50.5336 356.749C49.4964 357.347 48.4235 357.912 47.3604 358.538C18.9552 375.412 -20.2865 403.695 -50.7218 445.772C-71.2341 474.126 -83.5061 509.207 -90.5518 543.511C-95.0856 565.625 -98.0337 587.312 -99.7677 608.523C-100.727 620.869 -101.846 633.018 -102.692 643.773C-103.285 651.343 -103.726 658.358 -104.378 664.441C-105.423 674.207 -106.325 681.874 -107.146 688.963C-108.14 697.538 -107.612 704.102 -106.71 716.48C-105.373 734.792 -111.602 759.423 -120.715 780.175C-135.138 813.215 -154.827 842.745 -182.686 862.669C-192.21 869.481 -202.693 875.007 -214.126 879.267C-246.473 891.343 -287.483 889.741 -322.442 877.018C-339.239 870.904 -355.062 862.909 -368.554 851.293C-378.013 843.137 -386.41 833.506 -392.228 822.928C-395.591 816.817 -397.957 810.411 -399.071 804.149C-401.376 791.176 -398.521 779.715 -394.416 769.333C-387.058 750.704 -374.867 734.996 -360.211 720.336C-350.807 710.939 -340.252 702.025 -328.901 693.428C-319.983 686.666 -310.176 679.915 -303.027 669.295C-295.597 658.251 -291.332 642.228 -294.947 627.091" stroke="#21F225" stroke-width="0.8162" stroke-miterlimit="10" stroke-linecap="round" stroke-linejoin="round"/>
<path d="M-302.867 562.301C-342.556 547.795 -477.119 634.194 -581.216 578.631C-603.844 566.554 -622.206 552.935 -627.721 534.473C-632.991 516.806 -629.828 499.497 -625.908 484.23C-614.479 440.214 -582.864 407.678 -539.112 403.02C-536.097 406.769 -522.479 421.366 -502.648 435.953C-499.832 438.023 -496.894 440.059 -493.896 442.086C-478.833 452.285 -462.535 461.453 -446.325 467.999C-437.585 471.528 -428.849 474.285 -420.443 476.327C-374.13 487.623 -337.05 476.996 -317.312 466.004C-307.995 460.816 -300.795 457.085 -292.907 452.178C-287.016 448.512 -280.369 444.931 -270.487 441.492C-259.343 437.609 -244.039 435.319 -228.159 434.019C-208.105 432.385 -186.864 430.706 -163.212 432.594C-151.715 433.513 -139.424 435.439 -127.254 438.519C-116.869 441.154 -106.651 444.59 -97.028 448.972C-92.0351 451.242 -87.1061 453.742 -83.5973 456.557C-80.9067 458.722 -79.1841 460.805 -77.5859 462.722C-64.4158 478.504 -58.5158 488.805 -56.9727 490.712C-50.025 483.506 -40.9606 477.359 -31.8894 471.349C-22.8651 465.361 -13.7121 459.346 -4.47907 453.43C29.1881 431.916 67.6178 410.209 85.2832 385.557C99.3471 365.942 95.5343 348.306 89.3478 344.979C81.469 340.745 70.7679 347.533 57.3174 358.059C56.422 358.759 55.4636 359.428 54.5357 360.164C29.5588 379.884 -7.62397 410.971 -38.0522 453.89C-58.3912 482.57 -71.3731 517.255 -79.7094 550.897C-85.1011 572.664 -89.1945 593.86 -92.0778 614.498C-93.7509 626.511 -95.6333 638.294 -97.2649 648.506C-98.4033 655.672 -99.4018 662.209 -100.582 667.696C-102.475 676.485 -104.073 682.908 -105.19 688.712C-106.54 695.752 -105.581 700.648 -103.792 712.449C-101.171 729.761 -106.292 754.809 -114.451 775.775C-127.353 809.163 -145.353 839.247 -171.719 860.197C-180.799 867.412 -190.858 873.361 -201.898 878.122C-233.378 891.687 -273.902 891.906 -308.804 881.321C-325.62 876.219 -341.591 869.394 -355.457 858.781C-365.161 851.355 -373.928 842.405 -380.269 832.304C-383.903 826.521 -386.585 820.363 -388.045 814.295C-391.05 801.822 -389.115 790.556 -385.93 780.24C-380.232 761.788 -369.682 745.792 -356.603 730.628C-348.194 720.876 -338.576 711.516 -328.083 702.442C-319.814 695.288 -310.607 688.135 -303.856 677.337C-296.782 666.037 -292.617 650.04 -295.75 634.975" stroke="#21F225" stroke-width="0.8162" stroke-miterlimit="10" stroke-linecap="round" stroke-linejoin="round"/>
<path d="M-303.353 560.757C-344.685 542.585 -477.787 625.604 -580.723 576.28C-603.737 565.248 -622.766 553.5 -628.585 535.935C-634.076 519.359 -631.13 502.909 -627.708 488.507C-617.688 446.967 -588.599 416.325 -547.878 412.308C-546.542 416.83 -533.422 433.257 -513.326 448.904C-510.483 451.116 -507.505 453.281 -504.44 455.42C-489.005 466.23 -472.125 475.561 -455.326 481.976C-446.227 485.453 -437.136 488.049 -428.426 489.87C-380.246 499.927 -342.691 485.742 -324.213 470.388C-315.825 463.42 -309.575 457.589 -302.756 450.841C-297.526 445.676 -291.508 440.704 -281.91 435.953C-270.917 430.511 -255.337 427.025 -239.079 424.661C-218.585 421.678 -196.768 418.788 -172.262 420.094C-160.424 420.723 -147.695 422.511 -135.109 425.708C-124.427 428.417 -113.931 432.079 -104.089 436.88C-99.0109 439.358 -93.857 441.984 -90.5658 445.24C-88.0222 447.754 -86.3682 449.97 -84.9373 452.101C-73.15 469.797 -69.4392 481.736 -70.4508 484.664C-63.6631 476.845 -54.4551 470.281 -45.2377 463.907C-36.0534 457.556 -26.7041 451.224 -17.2175 445.043C17.305 422.571 56.9991 400.993 77.4556 377.489C93.291 359.284 92.4039 343.309 89.0002 341.658C83.6631 339.062 75.5664 347.233 64.0755 359.379C63.3219 360.182 62.4916 360.954 61.6847 361.787C40.1446 384.387 5.01212 418.245 -25.4162 461.997C-45.5956 491.005 -59.2867 525.307 -68.9004 558.274C-75.1502 579.693 -80.3486 600.383 -84.4209 620.478C-86.7869 632.162 -89.4469 643.567 -91.8705 653.243C-93.5617 660.013 -95.1033 666.071 -96.8187 670.954C-99.5594 678.766 -101.855 683.945 -103.261 688.458C-104.973 693.957 -103.585 697.17 -100.9 708.415C-97.0096 724.7 -100.995 750.192 -108.207 771.364C-119.601 805.102 -135.892 835.744 -160.759 857.715C-169.388 865.338 -179.043 871.719 -189.677 876.952C-220.31 892.027 -260.328 894.061 -295.173 885.599C-312.008 881.51 -328.12 875.848 -342.361 866.237C-352.303 859.533 -361.439 851.279 -368.311 841.648C-372.209 836.186 -375.206 830.289 -377.033 824.411C-380.739 812.437 -379.717 801.373 -377.445 791.116C-373.405 772.855 -364.491 756.549 -353.002 740.882C-345.589 730.776 -336.923 720.97 -327.281 711.411C-319.659 703.865 -311.067 696.312 -304.694 685.34C-297.981 673.778 -293.924 657.813 -296.561 642.82" stroke="#21F225" stroke-width="0.8162" stroke-miterlimit="10" stroke-linecap="round" stroke-linejoin="round"/>
<path d="M-303.83 559.207C-346.805 537.382 -478.576 617.136 -580.214 573.915C-603.648 563.95 -623.303 554.072 -629.435 537.384C-635.124 521.905 -632.424 506.314 -629.493 492.77C-620.896 453.707 -594.325 424.966 -556.629 421.597C-556.964 426.885 -544.342 445.141 -523.975 461.855C-521.104 464.209 -518.073 466.501 -514.947 468.761C-499.153 480.182 -481.677 489.674 -464.297 495.965C-454.845 499.384 -445.392 501.839 -436.372 503.434C-386.325 512.25 -348.167 494.61 -331.084 474.799C-323.567 466.089 -318.361 458.088 -312.566 449.537C-308.04 442.861 -302.637 436.498 -293.281 430.446C-282.447 423.439 -266.576 418.77 -249.953 415.342C-229.013 411.018 -206.633 406.917 -181.267 407.634C-169.088 407.972 -155.921 409.637 -142.927 412.93C-131.947 415.713 -121.159 419.6 -111.113 424.808C-105.936 427.494 -100.837 430.525 -97.4969 433.943C-94.8985 436.598 -93.5078 439.162 -92.2577 441.507C-81.8661 461.131 -80.3317 474.695 -83.9045 478.651C-77.2697 470.224 -67.9324 463.229 -58.5479 456.499C-49.2102 449.792 -39.658 443.135 -29.925 436.682C5.45944 413.245 46.3547 391.765 69.6589 369.447C87.2302 352.621 89.3401 338.228 88.69 338.356C86.0016 337.209 80.3944 346.933 70.8775 360.712C70.252 361.617 69.5498 362.493 68.8847 363.428C50.7827 388.936 17.6992 425.537 -12.7291 470.124C-32.7489 499.459 -47.1493 533.379 -58.0405 565.67C-65.1482 586.741 -71.451 606.939 -76.7136 626.463C-79.766 637.812 -83.2035 648.837 -86.4256 657.986C-88.663 664.351 -90.7614 669.931 -93.0052 674.218C-96.5802 681.053 -99.5936 684.981 -101.281 688.209C-103.356 692.167 -101.552 693.699 -97.957 704.386C-92.8187 719.639 -95.6604 745.58 -101.919 766.965C-111.792 801.053 -126.393 832.275 -149.768 855.246C-157.946 863.291 -167.184 870.089 -177.418 875.801C-207.19 892.4 -246.716 896.235 -281.498 889.903C-298.358 886.834 -314.598 882.32 -329.234 873.72C-339.413 867.739 -348.912 860.172 -356.314 851.026C-360.477 845.884 -363.79 840.249 -365.97 834.559C-370.369 823.077 -370.266 812.236 -368.915 802.017C-366.527 783.953 -359.263 767.325 -349.357 751.162C-342.939 740.687 -335.217 730.443 -326.432 720.419C-319.466 712.475 -311.475 704.521 -305.493 693.377C-299.148 681.559 -295.179 665.62 -297.333 650.712" stroke="#21F225" stroke-width="0.8162" stroke-miterlimit="10" stroke-linecap="round" stroke-linejoin="round"/>
<path d="M-304.32 557.662C-348.937 532.185 -479.522 608.818 -579.725 571.564C-603.604 562.68 -623.845 554.67 -630.303 538.845C-636.171 524.469 -633.763 509.734 -631.31 497.047C-624.22 460.451 -600.07 433.62 -565.412 430.899C-567.426 436.946 -555.295 457.038 -534.664 474.826C-531.758 477.329 -528.686 479.749 -525.506 482.122C-509.348 494.161 -491.283 503.81 -473.307 509.975C-463.495 513.343 -453.695 515.644 -444.364 517.011C-392.45 524.587 -353.566 503.5 -338.001 479.224C-331.302 468.77 -327.233 458.616 -322.431 448.241C-318.636 440.042 -313.821 432.285 -304.719 424.947C-294.059 416.349 -277.896 410.523 -260.888 406.024C-239.501 400.359 -216.551 395.054 -190.34 395.169C-177.826 395.224 -164.214 396.757 -150.805 400.153C-139.527 403.01 -128.455 407.115 -118.197 412.751C-112.928 415.637 -107.747 418.951 -104.488 422.661C-101.939 425.571 -100.714 428.362 -99.6382 430.928C-90.6624 452.487 -91.2842 467.668 -97.4181 472.653C-90.9362 463.617 -81.469 456.206 -71.9253 449.099C-62.4205 442.035 -52.6655 435.054 -42.6996 428.33C-6.45982 403.934 35.5989 382.479 61.7951 361.414C81.0657 345.919 86.1858 333.239 88.3055 335.056C88.1899 335.485 85.1332 346.608 77.5988 362.053C77.1078 363.055 76.5273 364.041 75.9975 365.085C61.3615 393.513 30.292 432.84 -0.12927 478.266C-19.9894 507.929 -35.1135 541.453 -47.275 573.076C-55.2407 593.799 -62.6551 613.498 -69.1001 632.472C-72.839 643.485 -77.054 654.131 -81.0745 662.752C-83.8518 668.706 -86.4932 673.806 -89.2784 677.512C-93.6746 683.354 -97.4058 686.033 -99.3881 687.99C-101.814 690.379 -99.6328 690.244 -95.1083 700.38C-88.7561 714.596 -90.4129 740.999 -95.7244 762.59C-104.083 797.034 -116.967 828.835 -138.864 852.807C-146.597 861.268 -155.41 868.503 -165.259 874.682C-194.176 892.824 -233.219 898.44 -267.93 894.231C-284.815 892.182 -301.19 888.823 -316.207 881.233C-326.625 875.975 -336.479 869.103 -344.425 860.427C-348.846 855.599 -352.48 850.233 -355.021 844.724C-360.099 833.748 -360.923 823.109 -360.492 812.942C-359.743 795.075 -354.149 778.119 -345.826 761.473C-340.403 750.63 -333.634 739.94 -325.692 729.452C-319.374 721.116 -311.998 712.748 -306.4 701.438C-300.423 689.351 -296.542 673.45 -298.214 658.614" stroke="#21F225" stroke-width="0.8162" stroke-miterlimit="10" stroke-linecap="round" stroke-linejoin="round"/>
<path d="M-304.805 556.114C-351.064 526.984 -480.584 600.66 -579.217 569.207C-603.568 561.447 -624.347 555.282 -631.154 540.302C-637.179 527.034 -635.058 513.147 -633.095 501.319C-627.428 467.199 -605.798 442.27 -574.164 440.183C-577.849 446.995 -566.379 469.096 -545.32 487.779C-542.368 490.403 -539.268 492.978 -536.028 495.458C-519.505 508.101 -500.851 517.919 -482.293 523.96C-472.122 527.276 -461.966 529.43 -452.332 530.563C-398.544 536.891 -358.838 512.353 -344.888 483.617C-338.958 471.409 -336.095 459.119 -332.257 446.919C-329.206 437.225 -324.98 428.048 -316.106 419.421C-305.64 409.24 -289.151 402.25 -271.772 396.679C-249.931 389.679 -226.418 383.164 -199.348 382.676C-186.486 382.448 -172.443 383.85 -158.618 387.348C-147.036 390.273 -135.693 394.611 -125.209 400.659C-119.848 403.76 -114.586 407.33 -111.408 411.344C-108.901 414.503 -107.843 417.534 -106.947 420.314C-99.388 443.796 -102.158 460.613 -110.86 466.62C-104.538 456.97 -94.9348 449.135 -85.2305 441.678C-75.5658 434.251 -65.6145 426.953 -55.4087 419.963C-18.307 394.603 24.8716 373.12 53.9968 353.368C74.944 339.158 83.1988 328.08 87.9938 331.748C90.5086 333.676 89.9174 346.278 84.3927 363.388C84.0364 364.486 83.5912 365.581 83.1823 366.722C72.0338 398.09 42.9503 440.128 12.5426 486.388C-7.16507 516.371 -22.9984 549.514 -36.4301 580.467C-45.2675 600.844 -53.7662 620.042 -61.4007 638.459C-65.8261 649.136 -70.8115 659.411 -75.6376 667.496C-78.9475 673.046 -82.1457 677.667 -85.4729 680.777C-90.6832 685.634 -95.1055 687.048 -97.4164 687.743C-100.152 688.561 -97.6628 686.763 -92.1737 696.352C-84.6421 709.526 -85.0803 736.382 -89.4378 758.186C-96.2815 792.986 -107.454 825.387 -127.861 850.332C-135.129 859.214 -143.538 866.881 -152.988 873.525C-181.029 893.232 -219.608 900.623 -254.243 898.529C-271.153 897.5 -287.656 895.289 -303.06 888.717C-313.702 884.18 -323.919 877.995 -332.41 869.791C-337.082 865.283 -341.032 860.178 -343.952 854.859C-349.697 844.374 -351.453 833.959 -351.957 823.831C-352.839 806.167 -348.93 788.87 -342.175 771.74C-337.749 760.529 -331.931 749.394 -324.832 738.441C-319.17 729.692 -312.401 720.944 -307.188 709.455C-301.573 697.106 -297.785 681.236 -298.982 666.48" stroke="#21F225" stroke-width="0.8162" stroke-miterlimit="10" stroke-linecap="round" stroke-linejoin="round"/>
<path d="M-305.284 554.569C-353.186 521.774 -481.735 592.681 -578.717 566.856C-603.559 560.241 -624.835 555.919 -632.018 541.758C-638.18 529.604 -636.367 516.559 -634.902 505.596C-630.658 473.952 -611.546 450.924 -582.936 449.485C-588.293 457.064 -577.159 480.814 -555.999 500.737C-553.038 503.524 -549.871 506.213 -546.564 508.806C-529.676 522.067 -510.433 532.026 -491.287 537.95C-480.762 541.207 -470.251 543.213 -460.301 544.113C-404.647 549.187 -364.047 521.145 -351.781 488.014C-346.603 474.017 -344.977 459.656 -342.085 445.594C-339.79 434.406 -336.148 423.801 -327.507 413.894C-317.242 402.123 -300.421 393.975 -282.677 387.34C-260.395 379.006 -236.306 371.28 -208.383 370.196C-195.186 369.684 -180.698 370.955 -166.459 374.543C-154.58 377.542 -142.945 382.105 -132.256 388.574C-126.803 391.875 -121.459 395.728 -118.362 400.033C-115.911 403.441 -115.013 406.706 -114.291 409.706C-108.161 435.124 -113.074 453.558 -124.337 460.593C-118.175 450.343 -108.428 442.077 -98.5711 434.25C-88.753 426.466 -78.5988 418.844 -68.1394 411.589C-30.1823 385.27 14.1128 363.692 46.1697 345.306C68.7843 332.334 80.0229 323.127 87.6532 328.426C92.7214 331.951 94.6526 345.94 91.1643 364.7C90.9426 365.894 90.6261 367.106 90.3519 368.343C82.7175 402.635 55.5927 447.387 25.2 494.508C5.65192 524.818 -10.9115 557.573 -25.5999 587.856C-35.3089 607.886 -44.8983 626.591 -53.7297 644.444C-58.848 654.794 -64.5907 664.681 -70.229 672.239C-74.0643 677.391 -77.8057 681.533 -81.6956 684.042C-87.7058 687.926 -92.8107 688.109 -95.473 687.494C-98.5018 686.795 -95.7274 683.289 -89.2674 692.324C-80.583 704.47 -79.7752 731.777 -83.1788 753.795C-88.5012 788.944 -97.9414 821.964 -116.899 847.87C-123.709 857.181 -131.707 865.285 -140.766 872.375C-167.929 893.659 -206.045 902.826 -240.611 902.828C-257.552 902.826 -274.171 901.748 -289.969 896.2C-300.843 892.379 -311.409 886.882 -320.457 879.163C-325.38 874.975 -329.652 870.125 -332.932 865.001C-339.344 855.007 -342.025 844.822 -343.464 834.733C-345.969 817.279 -343.752 799.634 -338.559 782.027C-335.143 770.435 -330.262 758.867 -324.013 747.457C-319.006 738.31 -312.845 729.154 -308.009 717.506C-302.763 704.887 -299.069 689.063 -299.769 674.378" stroke="#21F225" stroke-width="0.8162" stroke-miterlimit="10" stroke-linecap="round" stroke-linejoin="round"/>
<path d="M-305.77 553.015C-355.314 516.567 -482.972 584.866 -578.217 564.487C-603.575 559.06 -623.039 555.012 -632.876 543.202C-637.074 531.225 -637.669 519.96 -636.695 509.856C-633.881 480.696 -617.274 459.554 -591.703 458.763C-598.738 467.115 -588.088 492.694 -566.663 513.69C-563.668 516.627 -560.46 519.443 -557.093 522.142C-539.847 536.015 -520.008 546.137 -500.28 551.936C-489.389 555.134 -478.53 556.987 -468.269 557.672C-410.742 561.486 -369.221 529.912 -358.674 492.421C-354.227 476.628 -353.858 460.202 -351.925 444.28C-350.387 431.612 -347.341 419.566 -338.908 408.377C-328.85 395.023 -311.703 385.711 -293.574 378.004C-270.846 368.328 -246.193 359.406 -217.419 357.712C-203.873 356.917 -188.948 358.05 -174.299 361.748C-162.123 364.821 -150.204 369.602 -139.303 376.485C-133.75 379.993 -128.338 384.116 -125.316 388.719C-122.914 392.382 -122.182 395.874 -121.627 399.101C-116.935 426.436 -123.982 446.506 -137.807 454.569C-131.797 443.711 -121.928 435.022 -111.904 426.839C-101.926 418.691 -91.5678 410.758 -80.8691 403.225C-42.0501 375.941 3.35881 354.212 38.3508 337.261C62.6386 325.506 76.8941 318.147 87.3143 325.128C94.9488 330.236 99.376 345.627 97.9312 366.044C97.8376 367.341 97.6557 368.649 97.5096 369.989C93.4167 407.204 68.2232 454.671 37.8448 502.639C18.4492 533.27 1.15573 565.637 -14.7894 595.25C-25.3771 614.927 -36.0437 633.137 -46.0646 650.434C-51.8694 660.448 -58.3753 669.969 -64.8264 676.986C-69.1944 681.734 -73.4782 685.41 -77.9244 687.31C-84.7337 690.236 -90.5615 689.203 -93.5356 687.25C-96.8837 685.062 -93.8247 679.833 -86.3671 688.299C-76.5637 699.427 -74.4768 727.163 -76.9265 749.394C-80.7413 784.893 -88.4351 818.531 -105.937 845.404C-112.281 855.151 -119.868 863.679 -128.536 871.229C-154.813 894.11 -192.474 905.032 -226.958 907.129C-243.924 908.16 -260.672 908.203 -276.857 903.686C-287.962 900.581 -298.871 895.763 -308.483 888.537C-313.657 884.655 -318.237 880.074 -321.905 875.147C-328.969 865.642 -332.582 855.681 -334.976 845.639C-339.085 828.386 -338.594 810.389 -334.956 792.311C-332.549 780.352 -328.62 768.338 -323.208 756.457C-318.864 746.905 -313.317 737.348 -308.851 725.533C-303.988 712.647 -300.374 696.854 -300.592 682.255" stroke="#21F225" stroke-width="0.8162" stroke-miterlimit="10" stroke-linecap="round" stroke-linejoin="round"/>
<path d="M-306.249 551.465C-357.436 511.366 -484.248 577.251 -577.711 562.124C-603.595 557.939 -623.421 555.44 -633.728 544.652C-637.985 533.69 -638.964 523.367 -638.488 514.127C-637.097 487.457 -623.009 468.204 -600.462 468.06C-609.175 477.171 -599.01 504.579 -577.334 526.65C-574.311 529.729 -571.049 532.672 -567.636 535.492C-550.024 549.983 -529.59 560.253 -509.273 565.935C-498.029 569.074 -486.808 570.786 -476.244 571.238C-416.858 573.791 -374.384 538.649 -365.568 496.827C-361.859 479.218 -362.744 460.768 -361.759 442.972C-360.976 428.836 -358.528 415.35 -350.315 402.866C-340.479 387.93 -322.979 377.451 -304.486 368.667C-281.303 357.656 -256.088 347.523 -226.461 345.234C-212.573 344.163 -197.21 345.158 -182.154 348.952C-169.687 352.093 -157.477 357.099 -146.363 364.409C-140.719 368.117 -135.224 372.524 -132.283 377.418C-129.938 381.33 -129.372 385.062 -128.984 388.502C-125.736 417.748 -134.904 439.467 -151.29 448.544C-145.441 437.072 -135.428 427.966 -125.251 419.413C-115.113 410.902 -104.559 402.651 -93.6201 394.854C-53.9458 366.611 -7.41917 344.671 30.5105 329.209C56.4826 318.616 73.7433 313.146 86.9606 321.816C97.1686 328.513 104.072 345.314 104.69 367.366C104.731 368.759 104.678 370.184 104.66 371.627C104.115 411.758 80.8395 461.954 50.4818 510.762C31.2387 541.714 13.208 573.686 -3.97942 602.643C-15.4459 621.966 -27.1896 639.682 -38.4138 656.423C-44.9051 666.101 -52.1604 675.256 -59.438 681.732C-64.3243 686.088 -69.1649 689.286 -74.1603 690.584C-81.7687 692.551 -88.3408 690.283 -91.6118 687.018C-95.3071 683.33 -90.8575 675.372 -83.4804 684.287C-73.9811 695.765 -69.1913 722.576 -70.6942 745.012C-72.9878 780.86 -78.9274 815.137 -94.9947 842.959C-100.873 853.14 -108.049 862.107 -116.339 870.103C-141.718 894.581 -178.936 907.272 -213.352 911.451C-230.342 913.516 -247.213 914.686 -263.8 911.187C-275.136 908.797 -286.381 904.652 -296.556 897.932C-301.968 894.356 -306.87 890.043 -310.911 885.313C-318.621 876.291 -323.174 866.56 -326.516 856.558C-332.214 839.507 -333.47 821.164 -331.387 802.616C-330.003 790.276 -326.998 777.829 -322.435 765.491C-318.747 755.54 -313.814 745.583 -309.727 733.595C-305.232 720.44 -301.705 704.685 -301.441 690.158" stroke="#21F225" stroke-width="0.8162" stroke-miterlimit="10" stroke-linecap="round" stroke-linejoin="round"/>
<path d="M-306.737 549.917C-359.566 506.165 -485.552 569.815 -577.22 559.769C-603.635 556.875 -623.819 555.863 -634.594 546.11C-638.919 536.156 -640.281 526.788 -640.297 518.394C-640.336 494.207 -628.753 476.841 -609.236 477.352C-619.622 487.228 -609.955 516.466 -588.007 539.604C-584.957 542.824 -581.647 545.902 -578.167 548.835C-560.203 563.944 -539.167 574.37 -518.262 579.92C-506.658 583.008 -495.089 584.566 -484.215 584.79C-422.956 586.082 -379.552 547.34 -372.464 501.227C-369.48 481.787 -371.634 461.328 -371.595 441.657C-371.575 426.048 -369.73 411.128 -361.711 397.348C-352.096 380.83 -334.249 369.193 -315.379 359.33C-291.742 346.984 -265.964 335.655 -235.484 332.756C-221.262 331.402 -205.454 332.266 -189.983 336.162C-177.218 339.377 -164.716 344.609 -153.391 352.332C-147.648 356.248 -142.079 360.917 -139.219 366.116C-136.922 370.283 -136.523 374.242 -136.309 377.903C-134.512 409.066 -145.801 432.421 -164.748 442.526C-159.051 430.446 -148.909 420.91 -138.572 412.007C-128.28 403.14 -117.517 394.558 -106.338 386.495C-65.8021 357.287 -18.1391 335.099 22.7031 321.17C50.3794 311.73 70.6202 308.193 86.6397 318.516C99.401 326.811 108.801 345.027 111.474 368.708C111.644 370.204 111.732 371.731 111.835 373.271C114.85 416.29 93.4743 469.238 63.1445 518.892C44.0468 550.157 25.2795 581.749 6.85611 610.041C-5.49634 629.005 -18.3093 646.247 -30.7237 662.417C-37.8943 671.766 -45.9129 680.556 -54.0104 686.484C-59.4286 690.449 -64.8117 693.182 -70.3641 693.858C-78.7846 694.88 -86.0816 691.355 -89.6495 686.778C-93.6997 681.569 -90.0526 673.002 -80.5622 680.261C-68.5634 689.455 -63.8751 717.96 -64.4305 740.617C-65.2094 776.821 -69.3818 811.722 -84.0218 840.486C-89.4211 851.102 -96.1856 860.506 -104.098 868.948C-128.557 895.042 -165.354 909.484 -199.702 915.744C-216.723 918.85 -233.717 921.134 -250.69 918.665C-262.258 916.991 -273.839 913.519 -284.584 907.299C-290.242 904.022 -295.452 899.977 -299.879 895.443C-308.23 886.897 -313.715 877.39 -318.011 867.449C-325.3 850.585 -328.309 831.918 -327.767 812.885C-327.4 800.171 -325.339 787.272 -321.606 774.482C-318.587 764.119 -314.262 753.768 -310.545 741.614C-306.432 728.19 -302.979 712.474 -302.239 698.026" stroke="#21F225" stroke-width="0.8162" stroke-miterlimit="10" stroke-linecap="round" stroke-linejoin="round"/>
<path d="M-307.216 548.372C-361.695 500.962 -486.837 562.574 -576.713 557.41C-603.657 555.862 -624.201 556.296 -635.445 547.564C-639.836 538.619 -641.576 530.199 -642.083 522.663C-643.545 500.966 -634.481 485.487 -617.989 486.633C-630.046 497.275 -620.87 528.335 -598.672 552.547C-595.587 555.917 -592.237 559.122 -588.697 562.162C-570.368 577.889 -548.744 588.456 -527.256 593.895C-515.293 596.918 -503.369 598.329 -492.184 598.34C-429.059 598.364 -384.705 555.999 -379.351 505.617C-377.094 484.332 -380.507 461.884 -381.429 440.325C-382.158 423.256 -380.931 406.89 -373.119 391.814C-363.746 373.722 -345.526 360.911 -326.291 349.984C-302.214 336.304 -275.858 323.777 -244.527 320.269C-229.963 318.638 -213.717 319.365 -197.838 323.357C-184.775 326.647 -171.989 332.097 -160.452 340.247C-154.616 344.363 -148.973 349.309 -146.18 354.799C-143.933 359.207 -143.7 363.407 -143.659 367.289C-143.307 400.361 -156.723 425.359 -178.232 436.492C-172.688 423.805 -162.423 413.845 -151.919 404.571C-141.468 395.341 -130.501 386.448 -119.076 378.114C-77.6845 347.948 -28.8591 325.484 14.8761 313.109C44.2626 304.801 67.4956 303.168 86.2992 315.193C101.633 325.065 113.503 344.725 118.246 370.021C118.543 371.62 118.767 373.243 119.005 374.892C125.58 420.799 106.11 476.49 75.8085 527.004C56.8632 558.591 37.3515 589.781 17.6858 617.417C4.44743 636.02 -9.4355 652.775 -23.0532 668.389C-30.9103 677.403 -39.6776 685.839 -48.6023 691.214C-54.5388 694.787 -60.478 697.054 -66.5873 697.108C-75.8128 697.192 -83.849 692.398 -87.7066 686.516C-92.1046 679.793 -88.169 669.584 -77.6564 676.219C-64.5619 684.477 -58.5777 713.335 -58.1727 736.198C-57.4369 772.758 -59.8212 808.29 -73.0541 838.003C-77.974 849.053 -84.3338 858.903 -91.8696 867.778C-115.387 895.493 -151.784 911.693 -186.057 920.028C-203.095 924.174 -220.219 927.565 -237.586 926.134C-249.386 925.162 -261.297 922.356 -272.618 916.656C-278.521 913.678 -284.039 909.902 -288.852 905.578C-297.843 897.494 -304.253 888.231 -309.518 878.337C-318.391 861.653 -323.166 842.663 -324.151 823.158C-324.814 810.071 -323.685 796.732 -320.781 783.476C-318.424 772.709 -314.714 761.957 -311.36 749.644C-307.63 735.951 -304.256 720.28 -303.021 705.903" stroke="#21F225" stroke-width="0.8162" stroke-miterlimit="10" stroke-linecap="round" stroke-linejoin="round"/>
<path d="M-307.707 546.823C-363.822 495.754 -488.093 555.484 -576.219 555.061C-603.675 554.925 -624.595 556.739 -636.309 549.028C-640.766 541.091 -642.884 533.62 -643.888 526.949C-646.773 507.742 -640.221 494.144 -626.76 495.944C-640.489 507.352 -631.805 540.234 -609.348 565.527C-606.236 569.039 -602.838 572.379 -599.238 575.525C-580.55 591.863 -558.324 602.586 -536.254 607.901C-523.939 610.865 -511.66 612.128 -500.158 611.905C-435.167 610.662 -389.877 564.662 -386.257 510.023C-384.72 486.887 -389.4 462.457 -391.275 439.017C-392.76 420.481 -392.151 402.682 -384.539 386.303C-375.393 366.636 -356.791 352.699 -337.208 340.655C-312.64 325.686 -285.751 311.909 -253.581 307.792C-238.675 305.884 -221.992 306.473 -205.697 310.568C-192.337 313.932 -179.267 319.601 -167.518 328.164C-161.591 332.481 -155.872 337.704 -153.154 343.491C-150.963 348.149 -150.895 352.589 -151.022 356.684C-152.121 391.66 -167.651 418.313 -191.728 430.468C-186.337 417.173 -175.936 406.79 -165.279 397.16C-154.667 387.566 -143.504 378.356 -131.833 369.75C-89.5856 338.626 -39.579 315.851 7.0304 305.064C38.1529 297.861 64.3523 298.16 85.9335 311.895C103.854 323.342 118.188 344.454 124.986 371.364C125.418 373.059 125.77 374.799 126.136 376.538C136.271 425.319 118.7 483.775 88.4264 535.135C69.6265 567.036 49.3776 597.832 28.4767 624.817C14.3524 643.061 -0.606983 659.335 -15.4077 674.385C-23.9578 683.071 -33.4669 691.16 -43.2193 695.967C-49.6807 699.156 -56.183 700.952 -62.8358 700.383C-72.8798 699.529 -81.6415 693.465 -85.7889 686.278C-90.5419 678.034 -86.3157 666.224 -74.7758 672.2C-60.5834 679.564 -53.2983 708.741 -51.9466 731.81C-49.6967 768.713 -50.2787 804.888 -62.1181 835.551C-66.5586 847.036 -72.5007 857.316 -79.672 866.652C-102.241 895.996 -138.23 913.946 -172.45 924.35C-189.512 929.543 -206.767 934.028 -224.52 933.641C-236.552 933.371 -248.806 931.231 -260.684 926.044C-266.831 923.365 -272.658 919.844 -277.858 915.73C-287.489 908.109 -294.831 899.082 -301.05 889.249C-311.5 872.739 -318.061 853.446 -320.567 833.449C-322.254 819.995 -322.062 806.21 -320.002 792.49C-318.314 781.324 -315.212 770.165 -312.228 757.685C-308.887 743.718 -305.587 728.084 -303.869 713.793" stroke="#21F225" stroke-width="0.8162" stroke-miterlimit="10" stroke-linecap="round" stroke-linejoin="round"/>
<path d="M-308.192 545.282C-365.95 490.56 -489.266 548.562 -575.718 552.705C-603.676 554.044 -624.99 557.169 -637.166 550.486C-641.697 543.564 -644.191 537.041 -645.681 531.221C-649.988 514.505 -645.948 502.8 -635.519 505.241C-650.932 517.416 -642.726 552.119 -620.005 578.487C-616.852 582.14 -613.42 585.616 -609.766 588.875C-590.714 605.831 -567.898 616.709 -545.239 621.907C-532.565 624.819 -519.931 625.921 -508.125 625.478C-441.276 622.961 -395.037 573.311 -393.149 514.443C-392.346 489.443 -398.278 463.057 -401.115 437.716C-403.355 417.726 -403.357 398.474 -395.939 380.799C-387.027 359.564 -368.067 344.44 -348.105 331.331C-323.09 315.021 -295.631 300.054 -262.609 295.328C-247.361 293.144 -230.24 293.595 -213.53 297.792C-199.866 301.223 -186.511 307.124 -174.557 316.108C-168.53 320.632 -162.743 326.125 -160.099 332.21C-157.965 337.116 -158.056 341.79 -158.35 346.112C-160.894 382.984 -178.551 411.294 -205.189 424.477C-199.958 410.568 -189.42 399.761 -178.603 389.768C-167.825 379.817 -156.472 370.283 -144.561 361.412C-101.445 329.329 -50.2515 306.223 -0.794407 297.039C32.0778 290.94 61.237 293.179 85.5952 308.61C106.089 321.632 122.894 344.202 131.754 372.721C132.314 374.519 132.808 376.361 133.295 378.21C146.996 429.859 131.311 491.079 101.072 543.293C82.4178 575.507 61.431 605.895 39.2956 632.244C24.2782 650.121 8.28532 665.954 -7.74081 680.415C-16.9559 688.784 -27.2418 696.509 -37.8149 700.754C-44.801 703.558 -51.8666 704.883 -59.0627 703.691C-69.9325 701.894 -79.4126 694.566 -83.8496 686.074C-88.9577 676.309 -84.4265 662.912 -71.8736 668.216C-56.5698 674.684 -47.9981 704.167 -45.6917 727.462C-41.9271 764.722 -40.6939 801.525 -51.1541 833.126C-55.108 845.052 -60.6318 855.776 -67.4471 865.539C-89.0411 896.51 -124.656 916.219 -158.809 928.692C-175.888 934.925 -193.273 940.516 -211.427 941.162C-223.684 941.6 -236.282 940.112 -248.728 935.453C-255.122 933.059 -261.257 929.806 -266.842 925.916C-277.115 918.743 -285.388 909.954 -292.574 900.195C-304.596 883.851 -312.935 864.263 -316.976 843.774C-319.699 829.954 -320.446 815.722 -319.201 801.536C-318.19 789.967 -315.702 778.407 -313.075 765.76C-310.123 751.531 -306.89 735.928 -304.69 721.709" stroke="#21F225" stroke-width="0.8162" stroke-miterlimit="10" stroke-linecap="round" stroke-linejoin="round"/>
<path d="M-308.667 543.736C-368.066 485.362 -490.34 541.767 -575.207 550.344C-603.643 553.218 -625.367 557.6 -638.013 551.939C-642.603 546.031 -645.475 540.457 -647.476 535.489C-653.199 521.27 -651.685 511.446 -644.287 514.528C-661.372 527.469 -653.605 563.964 -630.678 591.443C-627.491 595.232 -624.025 598.856 -620.297 602.221C-600.925 619.831 -577.476 630.815 -554.228 635.894C-541.194 638.741 -528.212 639.703 -516.096 639.033C-447.388 635.242 -400.208 581.936 -400.038 518.839C-399.963 491.98 -407.146 463.626 -410.944 436.397C-413.933 414.947 -414.566 394.262 -407.342 375.278C-398.665 352.475 -379.338 336.17 -359.011 321.998C-333.55 304.346 -305.513 288.195 -271.646 282.854C-256.056 280.392 -238.491 280.699 -221.373 284.992C-207.411 288.498 -193.772 294.617 -181.599 304.021C-175.481 308.746 -169.619 314.515 -167.049 320.897C-164.963 326.059 -165.222 330.96 -165.689 335.502C-169.692 374.272 -189.462 404.237 -218.655 418.442C-213.577 403.924 -202.909 392.701 -191.932 382.344C-181 372.038 -169.438 362.185 -157.287 353.036C-113.316 319.995 -60.8949 296.541 -8.60967 288.983C26.0253 283.973 58.1242 288.16 85.2665 305.293C108.333 319.891 127.617 343.925 138.537 374.038C139.225 375.939 139.854 377.877 140.469 379.83C157.729 434.339 143.937 498.331 113.727 551.405C95.2116 583.941 73.4797 613.914 50.1162 639.619C34.2057 657.129 17.1435 672.489 -0.0728523 686.379C-9.97373 694.426 -21.0221 701.799 -32.4093 705.476C-39.9267 707.903 -47.5492 708.749 -55.2814 706.941C-66.9834 704.206 -77.1819 695.614 -81.9022 685.81C-87.3788 674.525 -82.522 659.546 -68.9632 664.172C-52.5396 669.778 -42.6889 699.547 -39.4294 723.042C-34.1435 760.651 -31.0951 798.083 -40.1819 830.641C-43.6291 843 -48.7553 854.163 -55.2068 864.373C-75.8181 896.978 -111.046 918.446 -145.159 932.974C-162.255 940.261 -179.785 946.933 -198.312 948.622C-210.815 949.762 -223.737 948.92 -236.744 944.808C-243.39 942.707 -249.826 939.714 -255.798 936.035C-266.705 929.303 -275.909 920.765 -284.056 911.074C-297.663 894.883 -307.786 875.021 -313.35 854.038C-317.108 839.866 -318.787 825.167 -318.365 810.523C-318.023 798.555 -316.149 786.595 -313.887 773.774C-311.324 759.271 -308.157 743.712 -305.474 729.579" stroke="#21F225" stroke-width="0.8162" stroke-miterlimit="10" stroke-linecap="round" stroke-linejoin="round"/>
<path d="M-309.154 542.182C-370.203 480.15 -491.299 535.068 -574.715 547.984C-603.586 552.458 -625.757 558.025 -638.872 553.384C-643.529 548.486 -646.771 543.866 -649.271 539.75C-656.389 528.033 -657.415 520.077 -653.041 523.807C-671.798 537.513 -664.529 575.838 -641.345 604.385C-638.123 608.322 -634.616 612.074 -630.829 615.545C-611.099 633.767 -587.043 644.858 -563.217 649.861C-549.818 652.621 -536.486 653.457 -524.06 652.573C-453.487 647.514 -405.386 590.533 -406.927 523.226C-407.586 494.49 -416.02 464.194 -420.767 435.063C-424.51 412.159 -425.754 390.035 -418.724 369.74C-410.288 345.377 -390.589 327.885 -369.891 312.641C-343.975 293.655 -315.368 276.313 -280.663 270.35C-264.718 267.611 -246.736 267.774 -229.196 272.177C-214.943 275.75 -200.994 282.073 -188.627 291.925C-182.403 296.85 -176.486 302.904 -173.985 309.577C-171.961 314.994 -172.373 320.122 -173.014 324.884C-178.462 365.55 -200.352 397.178 -232.113 412.405C-227.194 397.286 -216.391 385.626 -205.254 374.906C-194.162 364.236 -182.397 354.059 -169.999 344.652C-125.166 310.645 -71.5106 286.851 -16.4109 280.918C20.0075 277.003 55.0254 283.132 84.9446 301.96C110.59 318.128 132.346 343.634 145.321 375.348C146.137 377.352 146.907 379.392 147.651 381.448C168.462 438.812 156.571 505.582 126.396 559.508C108.019 592.352 85.5489 621.917 60.9581 646.992C44.1538 664.122 26.0295 679.014 7.62349 692.347C-2.96386 700.059 -14.7741 707.093 -26.9754 710.202C-35.0241 712.251 -43.2033 712.619 -51.4789 710.188C-64.0067 706.51 -74.917 696.647 -79.9335 685.544C-85.7587 672.731 -80.5885 656.199 -66.0316 660.126C-48.4608 664.87 -37.3593 694.912 -33.1522 718.627C-26.3516 756.592 -21.4613 794.638 -29.1949 828.162C-32.149 840.955 -36.8569 852.563 -42.959 863.206C-62.5674 897.437 -97.4357 920.664 -131.495 937.248C-148.602 945.581 -166.276 953.347 -185.189 956.081C-197.924 957.923 -211.183 957.727 -224.759 954.155C-231.651 952.34 -238.396 949.615 -244.753 946.146C-256.308 939.857 -266.438 931.562 -275.545 921.939C-290.738 905.901 -302.638 885.77 -309.716 864.288C-314.511 849.749 -317.121 834.611 -317.528 819.501C-317.862 807.13 -316.603 794.769 -314.691 781.787C-312.524 767.016 -309.423 751.502 -306.251 737.433" stroke="#21F225" stroke-width="0.8162" stroke-miterlimit="10" stroke-linecap="round" stroke-linejoin="round"/>
<path d="M-309.637 540.633C-372.329 474.948 -492.112 528.462 -574.213 545.621C-603.475 551.734 -626.143 558.454 -639.735 554.828C-644.459 550.937 -648.071 547.272 -651.075 544.015C-659.589 534.787 -663.161 528.72 -661.812 533.098C-682.24 547.57 -675.469 587.724 -652.014 617.337C-648.764 621.417 -645.21 625.303 -641.363 628.881C-621.261 647.714 -596.622 658.967 -572.215 663.846C-558.463 666.548 -544.771 667.216 -532.04 666.125C-459.615 659.656 -410.573 599.136 -413.826 527.619C-415.219 497.018 -424.898 464.759 -430.612 433.734C-435.097 409.377 -436.973 385.807 -430.144 364.209C-421.941 338.292 -401.884 319.599 -380.807 303.291C-354.445 282.963 -325.267 264.431 -289.71 257.858C-273.423 254.843 -255.003 254.869 -237.055 259.368C-222.505 263.015 -208.264 269.562 -195.693 279.822C-189.377 284.947 -183.385 291.278 -180.958 298.248C-178.991 303.915 -179.569 309.269 -180.376 314.259C-187.277 356.814 -211.286 390.106 -245.608 406.36C-240.85 390.628 -229.903 378.55 -218.612 367.473C-207.361 356.44 -195.399 345.946 -182.761 336.274C-137.073 301.31 -82.1638 277.152 -24.2625 272.859C13.9524 270.025 51.8834 278.117 84.5796 298.642C112.798 316.385 137.026 343.362 152.068 376.664C153.02 378.777 153.911 380.915 154.796 383.072C179.166 443.283 169.161 512.832 139.036 567.624C120.803 600.782 97.5886 629.933 71.7703 654.377C54.0795 671.134 34.8794 685.559 15.2766 698.329C4.00281 705.706 -8.56931 712.401 -21.5848 714.941C-30.1648 716.613 -38.9143 716.503 -47.7196 713.449C-61.0731 708.827 -72.7019 697.7 -78.0146 685.299C-84.1883 670.958 -78.691 652.872 -63.1634 656.102C-44.4447 659.996 -32.0923 690.311 -26.932 714.226C-18.6173 752.534 -11.8845 791.207 -18.2654 825.683C-20.7129 838.909 -25.0161 850.962 -30.7681 862.053C-49.3601 897.909 -83.8613 922.903 -117.888 941.55C-135.011 950.936 -152.831 959.783 -172.123 963.568C-185.097 966.106 -198.7 966.562 -212.83 963.53C-219.968 962 -227.022 959.53 -233.764 956.299C-245.961 950.444 -257.022 942.387 -267.089 932.845C-283.861 916.953 -297.545 896.561 -306.145 874.572C-311.976 859.681 -315.525 844.083 -316.748 828.508C-317.751 815.738 -317.106 802.976 -315.558 789.822C-313.787 774.783 -310.746 759.306 -307.099 745.316" stroke="#21F225" stroke-width="0.8162" stroke-miterlimit="10" stroke-linecap="round" stroke-linejoin="round"/>
<path d="M-310.121 539.082C-374.448 469.738 -492.78 521.909 -573.717 543.263C-603.319 551.075 -626.543 558.882 -640.597 556.283C-645.388 553.401 -649.356 550.69 -652.872 548.285C-662.761 541.538 -668.894 537.361 -670.582 542.387C-692.689 557.618 -686.401 599.615 -662.689 630.296C-659.412 634.517 -655.803 638.531 -651.896 642.229C-631.436 661.673 -606.201 673.088 -581.198 677.842C-567.087 680.492 -553.047 681.006 -539.999 679.682C-465.714 671.966 -415.746 607.749 -420.71 532.023C-422.838 499.543 -433.815 465.352 -440.437 432.423C-445.717 406.614 -448.169 381.61 -441.528 358.695C-433.566 331.217 -413.136 311.337 -391.689 293.958C-364.873 272.281 -335.13 252.58 -298.722 245.384C-282.093 242.093 -263.236 241.98 -244.872 246.582C-230.025 250.303 -215.499 257.069 -202.716 267.756C-196.301 273.088 -190.248 279.683 -187.888 286.957C-185.977 292.873 -186.714 298.46 -187.696 303.67C-196.049 348.116 -222.178 383.07 -259.068 400.346C-254.463 384.006 -243.393 371.505 -231.929 360.065C-220.524 348.675 -208.352 337.863 -195.475 327.913C-148.925 291.983 -92.7474 267.476 -32.0718 264.825C7.9466 263.078 48.7764 273.119 84.2502 295.353C115.048 314.666 141.755 343.121 158.844 378.017C159.931 380.227 160.964 382.467 161.957 384.735C189.978 447.748 181.668 520.071 151.683 575.773C133.527 609.221 109.636 637.967 82.5838 661.788C63.992 678.159 43.7376 692.137 22.9446 704.336C10.9778 711.384 -2.35611 717.741 -16.1721 719.712C-25.2833 721.007 -34.5968 720.411 -43.9383 716.741C-58.1241 711.182 -70.4583 698.777 -76.0671 685.078C-82.5822 669.216 -76.7579 649.575 -60.2531 652.101C-40.3656 655.151 -26.7838 685.721 -20.6761 709.855C-10.8467 748.52 -2.25897 787.792 -7.29968 823.249C-9.24116 836.894 -13.1324 849.399 -18.5414 860.931C-36.1105 898.405 -70.2648 925.173 -104.252 945.875C-121.385 956.309 -139.363 966.25 -159.035 971.072C-172.241 974.312 -186.189 975.407 -200.88 972.922C-208.271 971.672 -215.633 969.47 -222.754 966.456C-235.6 961.029 -247.579 953.222 -258.606 943.761C-276.964 928.009 -292.417 907.369 -302.546 884.867C-309.406 869.63 -313.9 853.58 -315.947 837.518C-317.626 824.358 -317.596 811.182 -316.404 797.86C-315.036 782.561 -312.056 767.107 -307.919 753.196" stroke="#21F225" stroke-width="0.8162" stroke-miterlimit="10" stroke-linecap="round" stroke-linejoin="round"/>
<path d="M-310.607 537.54C-376.584 464.537 -493.291 515.405 -573.218 540.907C-603.118 550.442 -627.257 561.186 -641.456 557.74C-646.513 556.518 -650.646 554.089 -654.666 552.557C-665.938 548.27 -673.869 546.738 -679.341 551.684C-700.617 570.9 -697.331 611.506 -673.354 643.248C-670.043 647.618 -666.393 651.759 -662.432 655.571C-641.614 675.626 -615.784 687.204 -590.199 691.834C-575.735 694.426 -561.339 694.792 -547.974 693.247C-471.83 684.284 -420.944 616.351 -427.61 536.436C-430.473 502.078 -442.674 465.944 -450.277 431.122C-456.292 403.865 -459.389 377.415 -452.942 353.191C-445.214 324.158 -424.419 303.085 -402.606 284.642C-375.337 261.63 -345.007 240.793 -307.771 232.927C-290.791 229.393 -271.505 229.109 -252.733 233.807C-237.588 237.602 -222.778 244.6 -209.783 255.701C-203.282 261.241 -197.148 268.104 -194.862 275.677C-193.007 281.841 -193.917 287.663 -195.059 293.093C-204.919 339.417 -233.106 376.051 -272.564 394.35C-268.112 377.402 -256.906 364.477 -245.295 352.674C-233.731 340.921 -221.363 329.792 -208.232 319.575C-160.826 282.688 -103.354 257.817 -39.9178 256.807C1.91724 256.133 45.6329 268.139 83.8908 292.075C117.261 312.963 146.407 342.912 165.597 379.374C166.811 381.686 167.973 384.029 169.108 386.4C200.646 452.248 194.291 527.361 164.32 583.896C146.316 617.664 121.672 645.975 93.3932 669.18C73.9077 685.171 52.5846 698.689 30.5949 710.324C17.9416 717.037 3.8459 723.055 -10.7842 724.458C-20.4268 725.375 -30.3035 724.309 -40.1812 720.022C-55.2057 713.533 -68.2316 699.85 -74.1439 684.847C-81.0074 667.456 -74.8425 646.26 -57.3669 648.089C-36.3043 650.288 -21.4989 681.133 -14.4444 705.474C-3.10017 744.495 7.34884 784.359 3.63476 820.797C2.19997 834.876 -1.27367 847.81 -6.33892 859.798C-22.8578 898.888 -56.6788 927.431 -90.6332 950.197C-107.769 961.683 -125.906 972.706 -145.957 978.579C-159.409 982.521 -173.695 984.248 -188.927 982.316C-196.57 981.345 -204.234 979.403 -211.733 976.62C-225.236 971.615 -238.138 964.065 -250.119 954.679C-270.07 939.059 -287.291 918.185 -298.944 895.164C-306.84 879.574 -312.265 863.07 -315.142 846.543C-317.496 832.979 -318.081 819.402 -317.246 805.913C-316.274 790.346 -313.353 774.93 -308.727 761.097" stroke="#21F225" stroke-width="0.8162" stroke-miterlimit="10" stroke-linecap="round" stroke-linejoin="round"/>
<path d="M-311.083 535.991C-378.703 459.336 -493.614 508.899 -572.708 538.558C-602.85 549.855 -627.384 560.775 -642.304 559.204C-647.279 558.683 -651.925 557.496 -656.463 556.837C-669.126 554.99 -680.054 555.069 -688.111 560.982C-712.685 579.021 -708.27 623.4 -684.029 656.215C-680.69 660.728 -676.993 665.004 -672.972 668.922C-651.782 689.588 -625.37 701.328 -599.196 705.827C-584.373 708.367 -569.622 708.586 -555.954 706.807C-477.949 696.597 -426.05 624.943 -434.508 540.836C-438.065 504.598 -451.537 466.516 -460.123 429.801C-466.865 401.089 -470.628 373.203 -464.348 347.667C-456.888 317.062 -435.7 294.807 -413.509 275.299C-385.792 250.946 -354.886 228.897 -316.811 220.436C-299.49 216.612 -279.765 216.204 -260.578 221.004C-245.129 224.867 -230.041 232.091 -216.827 243.611C-210.228 249.358 -204.033 256.486 -201.813 264.362C-200.022 270.769 -201.085 276.83 -202.393 282.487C-213.678 330.7 -244.012 368.999 -286.025 388.318C-281.733 370.756 -270.39 357.407 -258.613 345.247C-246.888 333.131 -234.324 321.685 -220.946 311.196C-172.685 273.351 -113.919 248.115 -47.7288 248.741C-4.06289 249.153 42.5314 263.116 83.5663 288.748C119.51 311.213 151.161 342.625 172.378 380.689C173.721 383.105 175.024 385.55 176.28 388.018C211.33 456.749 206.938 534.643 176.98 592.025C159.129 626.115 133.696 653.945 104.227 676.579C83.8252 692.157 61.4622 705.24 38.2828 716.319C24.9438 722.71 10.0732 728.404 -5.35874 729.21C-15.5384 729.771 -25.9733 728.199 -36.3871 723.295C-52.238 715.849 -65.9752 700.909 -72.1836 684.607C-79.3892 665.682 -72.8757 642.951 -54.4437 644.069C-32.1923 645.417 -16.1841 676.531 -8.16201 701.084C4.70341 740.454 17.0072 780.918 14.627 818.343C13.7118 832.841 10.6364 846.228 5.91417 858.657C-9.56166 899.357 -42.9993 929.72 -76.9708 954.503C-94.0957 967.056 -112.413 979.126 -132.835 986.07C-146.534 990.702 -161.165 993.068 -176.943 991.696C-184.846 991.011 -192.818 989.324 -200.696 986.771C-214.855 982.188 -228.669 974.868 -241.615 965.597C-263.133 950.082 -282.176 929.017 -295.323 905.474C-304.269 889.546 -310.64 872.576 -314.312 855.575C-317.356 841.621 -318.576 827.638 -318.057 813.98C-317.522 798.147 -314.626 782.773 -309.518 769.013" stroke="#21F225" stroke-width="0.8162" stroke-miterlimit="10" stroke-linecap="round" stroke-linejoin="round"/>
<path d="M-310.341 776.876C-326.594 816.65 -319.374 870.531 -291.728 915.738C-263.286 962.253 -212.217 998.701 -164.996 1001.06C-124.313 1003.09 -91.9637 981.48 -63.345 958.792C-19.0973 923.721 23.8308 879.738 25.5754 815.865C26.6212 777.439 12.4567 736.397 -1.92993 696.678C-10.8923 671.911 -28.1098 640.535 -51.5571 640.032C-70.9391 639.617 -77.8205 663.904 -70.2599 684.35C-63.7553 701.95 -49.3134 718.155 -32.6296 726.551C-5.07316 740.423 22.65 732.355 45.9342 722.296C105.511 696.584 159.675 658.366 189.612 600.144C219.548 541.922 221.999 461.251 183.438 389.65C135.398 300.466 32.481 243.586 -55.5541 240.69C-143.589 237.794 -217.183 280.337 -271.952 337.83C-283.889 350.353 -295.361 364.132 -299.5 382.302C-254.926 361.954 -222.438 321.998 -209.735 271.89C-208.246 266.019 -207.024 259.724 -208.766 253.062C-210.904 244.894 -217.174 237.491 -223.873 231.537C-254.005 204.747 -293.987 200.557 -325.844 207.967C-364.772 217.023 -396.248 240.276 -424.412 265.97C-446.974 286.549 -468.499 310.01 -475.754 342.157C-489.565 403.382 -449.137 477.352 -441.4 545.244C-431.341 633.552 -484.057 708.911 -563.921 720.367C-602.557 725.909 -649.73 715.619 -683.507 682.267C-717.284 648.915 -727.749 590.216 -696.883 570.268C-682.259 560.819 -662.132 561.232 -643.175 560.65C-587.73 558.953 -407.624 423.067 -311.582 534.438" stroke="#21F225" stroke-width="0.8162" stroke-miterlimit="10" stroke-linecap="round" stroke-linejoin="round"/>
</svg>
