<svg width="179" height="797" viewBox="0 0 179 797" fill="none" xmlns="http://www.w3.org/2000/svg">
<mask id="mask0_167_19" style="mask-type:alpha" maskUnits="userSpaceOnUse" x="0" y="0" width="179" height="797">
<rect width="179" height="797" fill="#D9D9D9"/>
</mask>
<g mask="url(#mask0_167_19)">
<path d="M-261.378 456.943C-271.151 485.682 -305.655 673.133 -458.129 666.065C-487.09 664.722 -514.709 651.85 -534.67 634.679C-554.631 617.509 -567.61 596.206 -576.629 574.488C-602.635 511.891 -596.31 441.763 -552.535 388.823C-541.97 376.047 -529.001 364.092 -511.802 356.781C-497.278 350.611 -480.523 348.061 -464.039 345.589C-400.612 336.067 -337.185 326.555 -273.749 317.033C-216.56 308.448 -157.759 299.371 -110.334 274.417C-56.4383 246.064 -22.5134 199.528 -4.14592 150.47C6.42844 122.224 10.9768 88.3375 -14.025 64.3786C-36.0912 43.2395 -75.675 37.0977 -108.093 43.7031C-140.521 50.2988 -166.952 67.3336 -190.091 85.6046C-233.083 119.558 -269.741 162.899 -267.771 211.966C-266.409 245.813 -246.429 278.908 -218.704 306.333C-190.979 333.759 -155.789 356.134 -119.856 377.042C-95.6359 391.131 -70.5665 404.921 -51.3878 423.105C-16.4586 456.219 -5.11164 500.042 -3.02574 541.596C-0.379738 594.14 -11.746 648.614 -51.9382 688.98C-92.1401 729.337 -166.19 751.509 -230.254 731.288C-253.575 723.919 -275.052 710.863 -286.264 693.307C-295.158 679.391 -297.099 663.679 -296.626 648.556C-295.226 603.797 -274.232 561.76 -250.321 522.05C-243.049 509.97 -235.353 497.647 -234.261 484.079C-233.17 470.521 -240.316 455.205 -256.028 448.291" stroke="#21F225" stroke-width="0.8162" stroke-miterlimit="10" stroke-linecap="round" stroke-linejoin="round"/>
<path d="M-262.78 456.129C-276.232 483.265 -311.344 666.244 -459.347 663.985C-487.719 663.55 -514.836 652.59 -534.333 636.337C-553.792 620.113 -566.288 599.612 -575.095 578.868C-600.493 519.063 -595.558 451.358 -552.797 401.615C-543.14 390.374 -529.128 380.264 -511.011 373.571C-508.375 372.586 -505.681 371.698 -502.929 370.867C-489.66 366.927 -475.3 364.552 -461.317 362.012C-454.074 360.679 -446.899 359.279 -439.811 357.85C-401.84 350.057 -366.341 340.95 -332.87 333.495C-315.748 329.68 -298.916 326.32 -281.939 322.689C-269.723 320.072 -257.294 317.368 -244.624 314.142C-230.999 310.685 -216.87 306.716 -202.935 302.332C-185.157 296.779 -167.746 290.299 -150.682 282.738C-141.923 278.856 -133.241 274.694 -124.762 270.223C-117.172 266.225 -109.862 262.014 -102.832 257.707C-99.075 255.38 -95.4053 253.014 -91.8998 250.725C-89.36 249.064 -86.9458 247.442 -84.6088 245.781C-65.884 232.483 -51.1668 217.08 -40.2641 200.094C-36.2855 192.513 -32.3937 184.691 -28.8399 176.782C-25.3055 168.902 -22.109 160.896 -19.2313 152.852C-8.66657 123.321 -2.98833 88.2277 -25.2573 63.699C-44.9188 42.0482 -81.3834 35.5201 -110.605 41.5074C-140.059 47.543 -163.661 63.9694 -184.22 82.0666C-185.601 83.2833 -186.982 84.5001 -188.353 85.7459C-224.789 118.879 -255.46 161.611 -252.978 209.519C-251.288 243.502 -232.109 276.78 -205.765 304.572C-189.136 322.206 -169.783 337.898 -149.272 352.471C-137.307 360.969 -124.975 369.119 -112.701 376.951C-104.019 382.456 -95.2798 387.873 -86.8782 393.397C-73.4744 402.185 -60.8431 411.243 -50.1528 421.644C-37.4153 434.043 -27.9515 447.582 -20.3901 462.425C-9.08183 484.588 -3.49046 509.783 -1.38524 534.166C1.95606 572.871 -2.37024 612.619 -20.6219 647.298C-26.6864 658.818 -34.3154 669.769 -43.6923 679.948C-69.3026 707.731 -110.461 727.856 -153.704 732.491C-174.283 734.741 -195.326 733.563 -215.567 728.059C-229.869 724.138 -243.601 718.064 -254.716 709.971C-261.341 705.152 -267.019 699.619 -271.326 693.438C-280.452 680.353 -282.876 665.395 -283.059 650.948C-283.291 624.835 -276.589 599.457 -266.411 574.745C-259.96 558.965 -252.089 543.447 -243.717 528.198C-237.198 516.272 -230.197 504.056 -229.531 490.623C-228.855 477.123 -236.078 461.884 -251.384 454.709" stroke="#21F225" stroke-width="0.8162" stroke-miterlimit="10" stroke-linecap="round" stroke-linejoin="round"/>
<path d="M-264.166 455.305C-281.288 480.838 -317.106 659.414 -460.56 661.906C-488.362 662.389 -514.957 653.331 -533.991 637.995C-552.948 622.728 -564.961 603.008 -573.556 583.24C-598.335 526.216 -594.907 460.8 -553.044 414.379C-544.285 404.664 -529.221 396.456 -510.216 390.324C-507.464 389.435 -504.644 388.595 -501.776 387.822C-487.841 384.056 -472.911 381.468 -458.59 378.417C-451.115 376.823 -443.776 375.075 -436.62 373.25C-398.079 363.4 -364.579 350.672 -335.029 341.382C-319.79 336.592 -305.073 332.739 -290.115 328.316C-279.405 325.149 -268.386 321.817 -256.779 317.713C-244.321 313.3 -230.773 308.162 -217.282 302.735C-200.064 295.879 -183.067 288.095 -165.752 279.558C-156.945 275.222 -148.013 270.684 -139.157 266.01C-131.306 261.867 -123.609 257.656 -116.154 253.485C-112.185 251.264 -108.284 249.013 -104.634 247.014C-101.968 245.556 -99.5153 244.224 -97.1494 242.852C-78.2314 231.853 -63.9585 219.183 -54.2726 204.678C-50.825 196.75 -47.1071 188.532 -43.6789 180.237C-40.2699 171.98 -37.1315 163.607 -34.2537 155.196C-23.6987 124.381 -16.8615 88.119 -36.4361 62.982C-53.6738 40.8386 -87.0289 33.8952 -113.054 39.2742C-139.543 44.7497 -160.248 60.6353 -178.287 78.5007C-179.504 79.7078 -180.721 80.9149 -181.918 82.1414C-213.912 114.956 -241.173 158.509 -238.122 207.035C-236.094 241.153 -217.649 274.546 -192.753 302.774C-176.964 320.678 -158.79 336.785 -139.534 351.754C-128.293 360.464 -116.811 368.904 -105.474 376.833C-97.4681 382.434 -89.4432 387.842 -81.8431 393.279C-69.6947 401.912 -58.4347 410.516 -48.8357 420.164C-37.3729 431.665 -28.6816 443.717 -20.8981 457.497C-9.2422 478.105 -2.60789 502.808 0.33748 526.718C5.04041 564.67 2.29787 603.607 -14.1189 638.111C-19.5944 649.613 -26.615 660.593 -35.3642 670.887C-59.3424 699.114 -98.8877 720.263 -140.664 726.521C-160.567 729.505 -180.962 729.34 -200.788 724.811C-214.8 721.605 -228.358 716.284 -239.512 708.887C-246.137 704.493 -251.883 699.346 -256.296 693.561C-265.644 681.307 -268.609 667.111 -269.391 653.331C-270.801 628.435 -265.402 604.013 -256.779 579.947C-251.274 564.603 -244.418 549.383 -237.011 534.328C-231.226 522.566 -224.94 510.446 -224.689 497.139C-224.438 483.697 -231.729 468.545 -246.62 461.09" stroke="#21F225" stroke-width="0.8162" stroke-miterlimit="10" stroke-linecap="round" stroke-linejoin="round"/>
<path d="M-265.565 454.481C-286.357 478.411 -322.957 652.651 -461.766 659.817C-489.027 661.227 -515.062 654.071 -533.642 639.644C-552.087 625.322 -563.617 606.404 -572.019 587.602C-596.181 533.378 -594.433 470.029 -553.304 427.142C-545.424 418.924 -529.345 412.618 -509.423 407.085C-506.545 406.283 -503.609 405.511 -500.615 404.777C-486.005 401.204 -470.524 398.374 -455.846 394.811C-448.149 392.947 -440.646 390.852 -433.403 388.63C-394.302 376.656 -362.849 360.374 -337.162 349.259C-323.826 343.494 -311.194 339.148 -298.273 333.933C-289.061 330.216 -279.442 326.256 -268.926 321.264C-257.618 315.904 -244.687 309.559 -231.621 303.128C-214.992 294.939 -198.382 285.88 -180.816 276.368C-171.951 271.569 -162.777 266.654 -153.554 261.786C-145.433 257.499 -137.379 253.269 -129.489 249.261C-125.308 247.137 -121.175 245.012 -117.379 243.303C-114.589 242.048 -112.097 241.005 -109.712 239.923C-90.591 231.222 -76.7816 221.285 -68.3028 209.262C-65.3767 200.986 -61.8519 192.363 -58.5493 183.7C-55.2562 175.077 -52.195 166.327 -49.3172 157.549C-38.7718 125.44 -30.7469 88.0772 -47.6466 62.2835C-62.441 39.6959 -92.7156 32.289 -115.535 37.0595C-139.059 41.9653 -156.886 57.2812 -172.385 74.9534C-173.428 76.1412 -174.491 77.3387 -175.524 78.5555C-203.046 111.099 -226.812 155.425 -223.306 204.569C-220.863 238.813 -203.259 272.37 -179.783 300.994C-164.853 319.197 -147.837 335.701 -129.847 351.046C-119.34 359.978 -108.679 368.679 -98.2973 376.723C-90.958 382.411 -83.667 387.839 -76.8685 393.169C-66.0044 401.687 -56.0771 409.798 -47.579 418.683C-37.4006 429.286 -29.4818 439.851 -21.4666 452.569C-9.47262 471.613 -1.79535 495.842 1.99983 519.27C8.06439 556.459 6.91521 594.613 -7.66679 628.934C-12.5436 640.416 -18.9751 651.425 -27.0966 661.835C-49.4524 690.526 -87.3753 712.737 -127.693 720.559C-146.92 724.287 -166.668 725.107 -186.079 721.573C-199.792 719.072 -213.186 714.514 -224.378 707.812C-231.003 703.843 -236.807 699.092 -241.346 693.684C-250.925 682.26 -254.402 668.817 -255.812 655.722C-258.361 632.043 -254.334 608.567 -247.236 585.159C-242.707 570.229 -236.846 555.319 -230.395 540.467C-225.354 528.859 -219.772 516.846 -219.946 503.664C-220.129 490.279 -227.478 475.205 -241.964 467.489" stroke="#21F225" stroke-width="0.8162" stroke-miterlimit="10" stroke-linecap="round" stroke-linejoin="round"/>
<path d="M-266.967 453.658C-291.428 475.976 -328.897 645.996 -462.984 657.739C-489.724 660.085 -515.17 654.832 -533.315 641.302C-551.248 627.937 -562.305 609.811 -570.494 591.984C-594.038 540.532 -594.183 478.94 -553.556 439.917C-546.535 433.176 -529.452 428.782 -508.622 423.857C-505.629 423.152 -502.567 422.428 -499.458 421.742C-484.161 418.372 -468.131 415.282 -453.114 411.216C-445.186 409.072 -437.518 406.639 -430.208 404.031C-390.547 389.922 -361.219 370.116 -339.317 357.147C-327.931 350.406 -317.318 345.578 -306.444 339.561C-298.719 335.283 -290.501 330.696 -281.076 324.835C-270.907 318.509 -258.594 310.996 -245.963 303.531C-229.913 294.039 -213.699 283.686 -195.892 273.189C-186.978 267.936 -177.553 262.644 -167.954 257.574C-159.562 253.141 -151.141 248.892 -142.817 245.039C-138.423 243.002 -134.058 241.003 -130.118 239.593C-127.202 238.55 -124.672 237.787 -122.267 236.995C-102.924 230.592 -89.5975 223.388 -82.3259 213.838C-79.9213 205.224 -76.5896 196.185 -73.4029 187.146C-70.2354 178.146 -67.2417 169.029 -64.364 159.884C-53.8282 126.491 -44.5962 88.0849 -58.8402 61.5572C-71.1721 38.5834 -98.3854 30.655 -117.999 34.8268C-138.558 39.1724 -153.498 53.8993 -166.477 71.3784C-167.355 72.5565 -168.244 73.7346 -169.113 74.9514C-192.174 107.235 -212.521 152.323 -208.465 202.085C-205.664 236.464 -188.852 270.176 -166.795 299.195C-152.725 317.698 -136.868 334.598 -120.133 350.329C-110.36 359.474 -100.529 368.445 -91.0944 376.606C-84.4311 382.371 -77.8643 387.817 -71.8674 393.051C-62.2684 401.424 -53.7027 409.082 -46.2958 417.194C-37.4017 426.889 -30.2556 435.957 -22.0085 447.632C-9.67661 465.092 -0.946742 488.868 3.68859 511.803C11.1148 548.239 11.5494 585.611 -1.18815 619.739C-5.46618 631.201 -11.3087 642.239 -18.7928 652.775C-39.5263 681.939 -75.8267 705.203 -114.686 714.589C-133.247 719.07 -152.329 720.866 -171.334 718.326C-184.738 716.53 -197.968 712.735 -209.209 706.728C-215.833 703.184 -221.695 698.829 -226.35 693.807C-236.142 683.223 -240.14 670.534 -242.177 658.106C-245.857 635.653 -243.211 613.104 -237.629 590.362C-234.066 575.848 -229.208 561.237 -223.723 546.606C-219.426 535.153 -214.549 523.246 -215.148 510.19C-215.756 496.864 -223.182 481.866 -237.252 473.88" stroke="#21F225" stroke-width="0.8162" stroke-miterlimit="10" stroke-linecap="round" stroke-linejoin="round"/>
<path d="M-268.368 452.841C-296.508 473.555 -334.914 639.452 -464.201 655.656C-490.439 658.949 -515.267 655.589 -532.978 642.957C-550.38 630.548 -560.983 613.214 -568.96 596.353C-591.885 547.701 -594.232 487.355 -553.808 452.686C-547.608 447.375 -529.569 444.951 -507.831 440.615C-504.722 439.997 -501.535 439.34 -498.309 438.693C-482.337 435.526 -465.756 432.175 -450.392 427.617C-442.232 425.203 -434.4 422.412 -427.022 419.428C-386.801 403.175 -359.694 379.921 -341.481 365.04C-332.084 357.363 -323.432 351.993 -314.625 345.185C-308.367 340.347 -301.559 335.113 -293.244 328.392C-284.205 321.091 -272.52 312.429 -260.324 303.921C-244.844 293.125 -229.035 281.478 -210.977 269.996C-202.005 264.289 -192.339 258.62 -182.363 253.348C-173.701 248.77 -164.913 244.512 -156.154 240.813C-151.557 238.872 -146.951 236.998 -142.876 235.878C-139.824 235.038 -137.265 234.565 -134.841 234.063C-115.267 229.949 -102.423 225.487 -96.3679 218.418C-94.4848 209.457 -91.3366 200.022 -88.285 190.606C-85.2431 181.23 -82.3074 171.746 -79.4393 162.244C-68.9132 127.556 -58.474 88.1848 -70.0624 60.8556C-79.9511 37.5437 -104.074 29.0456 -120.491 32.609C-138.086 36.3849 -150.138 50.5323 -160.587 67.8279C-161.292 68.9964 -162.026 70.1553 -162.73 71.3624C-181.339 103.385 -198.268 149.236 -193.662 199.616C-190.514 234.13 -174.483 268.017 -153.836 297.412C-140.626 316.224 -125.928 333.51 -110.457 349.618C-101.419 358.975 -92.4182 368.217 -83.9297 376.493C-77.9328 382.345 -72.1 387.801 -66.9046 392.939C-58.5706 401.167 -51.3666 408.361 -45.0509 415.71C-37.4412 424.507 -31.0676 432.069 -22.5888 442.701C-9.91892 458.577 -0.146101 481.889 5.33905 504.351C14.1172 540.033 16.1549 576.633 5.2425 610.558C1.55355 622.011 -3.69015 633.078 -10.5466 643.72C-29.6577 673.367 -64.3358 697.674 -101.728 708.625C-119.612 713.859 -138.038 716.63 -156.637 715.085C-169.741 713.994 -182.788 710.962 -194.077 705.65C-200.692 702.531 -206.621 698.572 -211.401 693.927C-221.416 684.183 -225.935 672.247 -228.601 660.485C-233.41 639.259 -232.154 617.627 -228.089 595.561C-225.491 581.462 -221.648 567.16 -217.109 552.732C-213.555 541.434 -209.393 529.633 -210.397 516.702C-211.44 503.424 -218.924 488.523 -232.589 480.267" stroke="#21F225" stroke-width="0.8162" stroke-miterlimit="10" stroke-linecap="round" stroke-linejoin="round"/>
<path d="M-269.761 452.022C-301.571 471.133 -341.01 633.041 -465.401 653.582C-491.166 657.84 -515.338 656.363 -532.623 644.62C-549.494 633.157 -559.644 616.624 -567.408 600.739C-589.735 554.859 -586.973 503.319 -554.062 465.464C-547.862 462.837 -529.688 461.118 -507.033 457.391C-503.797 456.86 -500.495 456.261 -497.144 455.672C-480.495 452.707 -463.364 449.086 -447.652 444.035C-439.26 441.341 -431.264 438.203 -423.819 434.842C-383.037 416.436 -358.209 389.85 -343.627 372.951C-336.24 364.385 -329.509 358.398 -322.797 350.836C-317.988 345.419 -312.6 339.547 -305.395 331.986C-297.477 323.681 -286.429 313.898 -274.667 304.357C-259.766 292.267 -244.354 279.336 -226.044 266.85C-217.025 260.698 -207.107 254.643 -196.764 249.158C-187.832 244.426 -178.687 240.148 -169.493 236.614C-164.684 234.769 -159.846 233.031 -155.626 232.191C-152.449 231.563 -149.851 231.38 -147.408 231.158C-127.582 229.352 -115.25 227.613 -110.402 223.026C-109.05 213.717 -106.086 203.877 -103.15 194.085C-100.234 184.331 -97.3655 174.471 -94.4878 164.612C-83.9714 128.639 -72.3347 88.3602 -81.2577 60.162C-88.7226 36.5797 -109.736 27.4635 -122.956 30.3992C-137.577 33.644 -146.732 47.154 -154.67 64.2758C-155.201 65.425 -155.78 66.5838 -156.312 67.7716C-170.469 99.5623 -183.979 146.147 -178.822 197.146C-175.316 231.795 -160.078 265.845 -140.841 295.627C-128.49 314.748 -114.951 332.411 -100.736 348.905C-92.4212 358.484 -84.261 367.977 -76.719 376.379C-71.398 382.308 -66.2895 387.784 -61.8956 392.825C-54.8363 400.907 -49.0035 407.648 -43.7598 414.224C-37.4538 422.143 -31.8528 428.169 -23.1326 437.768C-10.144 452.051 0.700766 474.918 7.02607 496.888C17.1659 531.807 20.8066 567.654 11.7194 601.357C8.62917 612.8 3.98415 623.906 -2.24458 634.644C-19.7333 664.793 -52.7987 690.133 -88.7225 702.629C-105.941 708.626 -123.7 712.363 -141.903 711.813C-154.699 711.427 -167.572 709.157 -178.918 704.532C-185.524 701.837 -191.521 698.284 -196.417 694.006C-206.634 685.102 -211.684 673.929 -214.978 662.823C-220.907 642.843 -221.042 622.11 -218.502 600.729C-216.88 587.045 -214.031 573.043 -210.448 558.828C-207.638 547.674 -204.191 535.979 -205.61 523.184C-207.078 509.963 -214.63 495.14 -227.879 486.613" stroke="#21F225" stroke-width="0.8162" stroke-miterlimit="10" stroke-linecap="round" stroke-linejoin="round"/>
<path d="M-271.163 451.191C-306.643 468.699 -347.173 626.764 -466.62 651.485C-491.931 656.729 -515.417 657.115 -532.287 646.261C-548.617 635.754 -558.322 620.013 -565.884 605.093C-587.583 562.023 -585.42 513.584 -554.324 478.23C-548.849 477.293 -529.815 477.274 -506.242 474.155C-502.891 473.711 -499.463 473.179 -495.996 472.629C-478.662 469.867 -460.99 465.985 -444.921 460.442C-436.307 457.468 -428.147 453.981 -420.614 450.244C-379.273 429.675 -356.734 399.922 -345.773 380.84C-340.394 371.472 -335.575 364.742 -330.959 356.466C-327.598 350.44 -323.639 343.931 -317.546 335.558C-310.757 326.23 -300.337 315.346 -289.009 304.762C-274.678 291.378 -259.672 277.153 -241.111 263.672C-232.033 257.076 -221.874 250.635 -211.155 244.947C-201.952 240.07 -192.44 235.773 -182.812 232.403C-177.8 230.645 -172.711 229.042 -168.355 228.492C-165.043 228.076 -162.407 228.173 -159.954 228.241C-139.867 228.752 -128.057 229.728 -124.416 227.623C-123.586 217.966 -120.805 207.72 -118.004 197.56C-115.213 187.44 -112.413 177.204 -109.535 166.977C-99.0282 129.711 -86.2327 88.6011 -92.4518 59.4661C-97.5313 35.6714 -115.406 25.8696 -125.421 28.1872C-137.077 30.8815 -143.334 43.7639 -148.752 60.7312C-149.119 61.8707 -149.534 63.0102 -149.901 64.1883C-159.616 95.7666 -169.698 143.076 -163.99 194.692C-160.147 229.477 -145.681 263.711 -127.864 293.86C-116.372 313.289 -103.992 331.338 -91.0322 348.219C-83.4515 358.011 -76.1218 367.764 -69.5261 376.301C-64.8812 382.308 -60.4969 387.802 -56.8948 392.747C-51.1103 400.685 -46.6295 406.971 -42.477 412.775C-37.4554 419.796 -32.6559 424.306 -23.675 432.871C-10.387 445.541 1.53932 467.974 8.72409 489.471C20.2255 523.637 25.4692 558.74 18.2072 592.211C15.7254 603.655 11.6694 614.789 6.05876 625.624C-9.79795 656.295 -41.2603 682.648 -75.7066 696.699C-92.2586 703.449 -109.351 708.152 -127.149 708.606C-139.636 708.915 -152.325 707.418 -163.739 703.488C-170.335 701.219 -176.39 698.061 -181.421 694.169C-191.841 686.106 -197.423 675.695 -201.353 665.247C-208.412 646.502 -209.929 626.677 -208.915 605.972C-208.258 592.694 -206.423 579 -203.787 565.007C-201.72 554.008 -198.987 542.42 -200.822 529.75C-202.734 516.578 -210.334 501.841 -223.178 493.054" stroke="#21F225" stroke-width="0.8162" stroke-miterlimit="10" stroke-linecap="round" stroke-linejoin="round"/>
<path d="M-272.558 450.367C-311.707 466.272 -353.387 620.657 -467.831 649.396C-492.708 655.644 -515.459 657.885 -531.944 647.909C-547.714 638.358 -556.994 623.41 -564.343 609.465C-585.434 569.176 -583.86 523.837 -554.57 491.003C-549.819 491.756 -529.926 493.427 -505.436 490.916C-501.959 490.559 -498.415 490.095 -494.832 489.583C-476.822 487.024 -458.59 482.872 -442.182 476.836C-433.337 473.582 -425.012 469.758 -417.412 465.625C-375.511 442.892 -355.173 410.116 -347.931 388.717C-344.512 378.615 -341.683 371.015 -339.133 362.083C-337.231 355.41 -334.71 348.293 -329.698 339.109C-324.049 328.747 -314.247 316.772 -303.354 305.145C-289.593 290.467 -274.982 274.958 -256.19 260.472C-247.054 253.432 -236.654 246.605 -225.567 240.714C-216.104 235.693 -206.225 231.376 -196.152 228.16C-190.928 226.49 -185.597 225.031 -181.107 224.761C-177.659 224.558 -174.984 224.944 -172.512 225.292C-152.155 228.141 -140.866 231.811 -138.442 232.187C-138.133 222.183 -135.545 211.541 -132.861 200.995C-130.195 190.498 -127.453 179.895 -124.585 169.311C-114.088 130.76 -100.191 88.8684 -103.658 58.7388C-106.41 34.7606 -121.079 24.2538 -127.897 25.9438C-136.579 28.0973 -139.949 40.3133 -142.846 57.1454C-143.039 58.2656 -143.3 59.4051 -143.493 60.5736C-148.756 91.9587 -155.429 139.963 -149.152 192.198C-144.961 227.108 -131.287 261.525 -114.87 292.051C-104.247 311.799 -93.0452 330.254 -81.3216 347.482C-74.4942 357.505 -67.9757 367.5 -62.3264 376.163C-58.3574 382.237 -54.707 387.751 -51.8969 392.608C-47.3967 400.392 -44.2679 406.225 -41.1969 411.275C-37.4694 417.398 -33.4714 420.382 -24.2201 427.924C-10.6521 438.991 2.37515 460.989 10.4097 482.003C23.2728 515.406 30.1389 549.785 24.6731 583.015C22.79 594.458 19.3328 605.621 14.3498 616.563C0.134754 647.755 -29.7438 675.132 -62.7127 690.728C-78.5983 698.241 -95.0152 703.91 -112.417 705.358C-124.594 706.372 -137.1 705.629 -148.582 702.403C-155.159 700.559 -161.281 697.797 -166.438 694.282C-177.041 687.058 -183.173 677.411 -187.741 667.629C-195.911 650.13 -198.837 631.193 -199.33 611.174C-199.648 598.301 -198.808 584.907 -197.128 571.136C-195.805 560.282 -193.786 548.8 -196.037 536.265C-198.383 523.141 -206.041 508.492 -218.479 499.434" stroke="#21F225" stroke-width="0.8162" stroke-miterlimit="10" stroke-linecap="round" stroke-linejoin="round"/>
<path d="M-273.955 449.55C-316.783 463.842 -359.65 614.742 -469.044 647.324C-493.505 654.606 -515.494 658.681 -531.602 649.574C-546.802 640.98 -555.667 626.813 -562.804 613.844C-583.276 576.336 -582.301 534.097 -554.827 503.774C-550.8 506.227 -530.047 509.587 -504.649 507.685C-501.057 507.414 -497.397 507.019 -493.689 506.545C-474.993 504.189 -456.22 499.766 -439.465 493.238C-430.388 489.704 -421.909 485.522 -414.231 481.022C-371.779 456.117 -353.48 420.386 -350.1 396.601C-348.564 385.805 -347.85 377.287 -347.328 367.707C-346.923 360.368 -345.802 352.643 -341.882 342.677C-337.391 331.262 -328.188 318.216 -317.73 305.546C-304.548 289.573 -290.323 272.78 -271.289 257.29C-262.096 249.806 -251.464 242.582 -239.991 236.498C-230.257 231.332 -220.021 226.996 -209.504 223.944C-204.077 222.37 -198.495 220.854 -193.869 221.057C-190.296 221.211 -187.583 221.743 -185.091 222.361C-164.474 227.556 -153.706 233.91 -152.489 236.759C-152.712 226.407 -150.297 215.359 -147.748 204.447C-145.208 193.573 -142.533 182.603 -139.655 171.652C-129.168 131.817 -114.248 89.172 -114.876 58.0187C-115.368 33.8956 -126.754 22.6549 -130.385 23.7172C-136.082 25.3782 -136.594 36.8699 -136.951 53.5861C-136.971 54.687 -137.067 55.8169 -137.106 56.9757C-137.888 88.187 -141.181 136.868 -134.344 189.72C-129.815 224.765 -116.923 259.376 -101.906 290.259C-92.1528 310.326 -82.1096 329.147 -71.6318 346.771C-65.5383 357.017 -59.8504 367.254 -55.1474 376.051C-51.8544 382.202 -48.9284 387.726 -46.9198 392.497C-43.704 400.126 -41.9271 405.505 -39.9377 409.792C-37.5138 415.017 -34.327 416.465 -24.786 422.993C-10.9669 432.448 3.19984 454.012 12.0746 474.542C26.2896 507.192 34.7974 540.837 31.1277 573.816C29.853 585.259 26.9849 596.471 22.6199 607.49C10.0466 639.232 -18.2386 667.614 -49.7396 684.745C-64.9589 693.021 -80.6997 699.646 -97.7056 702.089C-109.574 703.798 -121.887 703.818 -133.446 701.297C-140.003 699.868 -146.183 697.512 -151.485 694.383C-162.272 688 -168.945 679.115 -174.15 669.989C-183.421 653.746 -187.766 635.678 -189.775 616.355C-191.069 603.887 -191.233 590.802 -190.509 577.244C-189.929 566.534 -188.635 555.168 -191.281 542.759C-194.072 529.683 -201.788 515.13 -213.811 505.792" stroke="#21F225" stroke-width="0.8162" stroke-miterlimit="10" stroke-linecap="round" stroke-linejoin="round"/>
<path d="M-275.35 448.721C-321.848 461.411 -365.922 608.998 -470.256 645.231C-494.311 653.584 -515.508 659.465 -531.259 651.218C-545.87 643.57 -554.339 630.205 -561.263 618.201C-581.127 583.484 -580.741 544.345 -555.073 516.533C-551.77 520.675 -530.158 525.726 -503.843 524.432C-500.134 524.248 -496.349 523.91 -492.515 523.486C-473.143 521.342 -453.82 516.639 -436.717 509.628C-427.418 505.813 -418.765 501.284 -411.01 496.407C-368.008 469.329 -351.582 430.634 -352.229 404.483C-352.509 392.982 -354.025 383.556 -355.473 373.33C-356.603 365.343 -356.874 357 -354.005 346.232C-350.683 333.765 -342.06 319.647 -332.046 305.943C-319.434 288.677 -305.605 270.609 -286.33 254.105C-277.078 246.177 -266.204 238.567 -254.365 232.28C-244.36 226.969 -233.757 222.604 -222.816 219.717C-217.176 218.229 -211.363 217.051 -206.592 217.341C-202.884 217.563 -200.132 218.529 -197.63 219.427C-176.752 226.988 -166.506 236.008 -166.496 241.338C-167.24 230.639 -165.019 219.185 -162.585 207.896C-160.171 196.656 -157.564 185.309 -154.686 173.991C-144.208 132.862 -128.332 89.4829 -126.053 57.2963C-124.334 33.0284 -132.436 20.9476 -132.832 21.4787C-135.594 22.4347 -133.219 33.405 -131.017 50.0053C-130.872 51.0966 -130.804 52.2168 -130.669 53.3563C-126.951 84.413 -126.884 133.75 -119.486 187.221C-114.619 222.401 -102.51 257.205 -88.8932 288.445C-80.0088 308.831 -71.1147 328.029 -61.902 346.029C-56.5424 356.488 -51.685 366.966 -47.9284 375.908C-45.3114 382.127 -43.1193 387.67 -41.9025 392.354C-39.9615 399.819 -39.5559 404.753 -38.6384 408.278C-37.5182 412.604 -35.1523 412.527 -25.3119 418.032C-11.261 425.883 4.05495 447.012 13.7795 467.06C29.3562 498.947 39.5056 531.887 37.6128 564.605C36.9562 576.058 34.6771 587.299 30.9302 598.404C20.0178 630.697 -6.69327 660.083 -36.7167 678.75C-51.2697 687.799 -66.3346 695.36 -82.9542 698.817C-94.5136 701.222 -106.633 701.994 -118.26 700.188C-124.798 699.174 -131.036 697.224 -136.473 694.471C-147.443 688.919 -154.647 680.817 -160.509 672.338C-170.871 657.35 -176.656 640.151 -180.171 621.523C-182.45 609.452 -183.609 596.676 -183.831 583.349C-184.005 572.784 -183.425 561.524 -186.477 549.25C-189.712 536.233 -197.476 521.757 -209.084 512.158" stroke="#21F225" stroke-width="0.8162" stroke-miterlimit="10" stroke-linecap="round" stroke-linejoin="round"/>
<path d="M-276.75 447.906C-326.918 458.992 -372.209 603.47 -471.472 643.16C-495.132 652.614 -515.508 660.272 -530.921 652.885C-544.923 646.173 -553.035 633.638 -559.737 622.591C-579.061 590.713 -579.186 554.615 -555.333 529.324C-552.765 535.157 -530.283 541.897 -503.051 541.221C-499.217 541.125 -495.315 540.854 -491.366 540.478C-471.308 538.546 -451.444 533.563 -433.984 526.06C-424.453 521.965 -415.646 517.088 -407.814 511.835C-364.261 482.584 -349.611 440.847 -354.382 412.407C-356.439 400.162 -360.244 389.906 -363.653 378.994C-366.347 370.37 -367.989 361.389 -366.173 349.84C-364.049 336.31 -355.985 321.139 -346.405 306.383C-334.363 287.823 -320.921 268.48 -301.423 250.962C-292.114 242.599 -280.999 234.594 -268.783 228.104C-258.508 222.648 -247.547 218.254 -236.162 215.541C-230.319 214.14 -224.255 213.117 -219.349 213.677C-215.505 214.121 -212.724 215.367 -210.204 216.545C-189.074 226.492 -179.34 238.157 -180.538 245.97C-181.803 234.922 -179.765 223.073 -177.467 211.398C-175.168 199.78 -172.629 188.057 -169.76 176.382C-159.292 133.968 -142.537 89.8264 -137.274 56.6258C-133.402 32.2033 -138.124 19.3692 -135.333 19.292C-135.131 19.6879 -129.925 29.9822 -125.136 46.486C-124.827 47.5579 -124.595 48.6781 -124.286 49.808C-116.039 80.7005 -112.649 130.704 -104.682 184.793C-99.4771 220.108 -88.1689 255.105 -75.9432 286.703C-67.9279 307.407 -60.1927 326.982 -52.2257 345.369C-47.6 356.04 -43.5731 366.759 -40.7629 375.846C-38.8219 382.123 -37.354 387.676 -36.9291 392.292C-36.2627 399.573 -37.2285 404.064 -37.383 406.845C-37.5761 410.244 -36.0503 408.68 -25.8912 413.151C-11.6375 419.418 4.86618 440.094 15.4309 459.659C32.3692 490.793 44.1796 523.008 44.0541 555.475C44.0058 566.938 42.3352 578.217 39.187 589.409C29.9453 622.272 4.78897 652.653 -23.757 672.845C-37.6437 682.667 -52.0325 691.174 -68.2562 695.636C-79.5066 698.736 -91.4232 700.262 -103.137 699.17C-109.656 698.562 -115.952 697.026 -121.534 694.651C-132.668 689.929 -140.423 682.599 -146.931 674.777C-158.375 661.035 -165.618 644.715 -170.63 626.791C-173.894 615.116 -176.057 602.649 -177.216 589.545C-178.133 579.125 -178.287 567.971 -181.735 555.832C-185.424 542.863 -193.227 528.474 -204.429 518.605" stroke="#21F225" stroke-width="0.8162" stroke-miterlimit="10" stroke-linecap="round" stroke-linejoin="round"/>
<path d="M-278.15 447.084C-331.987 456.567 -378.476 598.138 -472.679 641.072C-495.933 651.676 -515.469 661.062 -530.573 654.534C-543.948 648.75 -551.702 637.036 -558.192 626.954C-576.907 597.867 -577.621 564.869 -555.584 542.079C-553.74 549.602 -530.399 558.274 -502.249 557.974C-498.299 557.936 -494.272 557.762 -490.207 557.424C-469.473 555.695 -449.058 550.442 -431.251 542.456C-421.488 538.081 -412.517 532.857 -404.617 527.227C-360.514 495.793 -347.574 450.946 -356.535 420.286C-360.34 407.258 -366.472 396.23 -371.822 384.613C-376.071 375.381 -379.104 365.743 -378.321 353.392C-377.404 338.82 -369.881 322.567 -360.746 306.768C-349.264 286.914 -336.217 266.296 -316.488 247.755C-307.111 238.947 -295.764 230.556 -283.171 223.863C-272.626 218.253 -261.308 213.849 -249.478 211.29C-243.423 209.986 -237.127 209.098 -232.077 209.938C-228.098 210.595 -225.278 212.13 -222.748 213.588C-201.377 225.911 -192.135 240.232 -194.55 250.526C-196.346 239.131 -194.492 226.876 -192.309 214.834C-190.136 202.84 -187.664 190.75 -184.796 178.717C-174.338 135.01 -156.772 90.0952 -148.457 55.8999C-142.479 31.3037 -143.802 17.5522 -137.786 17.05C-134.628 16.7893 -126.603 26.5235 -119.206 42.9113C-118.733 43.9639 -118.327 45.0745 -117.864 46.1947C-105.059 76.9231 -98.3761 127.603 -89.8393 182.3C-84.3059 217.75 -73.7798 252.94 -62.9447 284.895C-55.8082 305.928 -49.2125 325.86 -42.5009 344.633C-38.6092 355.516 -35.4031 366.477 -33.5489 375.709C-32.2742 382.044 -31.5403 387.616 -31.9169 392.155C-32.5156 399.253 -34.843 403.27 -36.0887 405.337C-37.5662 407.78 -36.9289 404.777 -26.4221 408.195C-11.9946 412.898 5.71621 433.091 17.1307 452.173C35.4306 482.554 48.9118 514.064 50.5438 546.251C51.1232 557.714 50.0416 569.041 47.5018 580.311C39.9598 613.743 16.3389 645.128 -10.7296 666.837C-23.9499 677.431 -37.6628 686.875 -53.4906 692.351C-64.4222 696.136 -76.1457 698.415 -87.9465 698.039C-94.436 697.836 -100.79 696.706 -106.526 694.726C-117.825 690.815 -126.12 684.278 -133.296 677.112C-145.811 664.616 -154.531 649.175 -161.03 631.947C-165.279 620.667 -168.447 608.509 -170.542 595.627C-172.223 585.342 -173.082 574.314 -176.935 562.301C-181.068 549.38 -188.92 535.078 -199.716 524.948" stroke="#21F225" stroke-width="0.8162" stroke-miterlimit="10" stroke-linecap="round" stroke-linejoin="round"/>
<path d="M-279.541 446.262C-337.058 454.132 -384.686 592.999 -473.887 638.995C-496.735 650.777 -515.402 661.863 -530.235 656.194C-542.963 651.327 -550.38 640.444 -556.657 631.337C-574.764 605.041 -576.067 575.144 -555.836 554.864C-554.716 564.077 -530.515 574.197 -501.458 574.748C-497.392 574.825 -493.24 574.69 -489.048 574.39C-467.629 572.874 -446.683 567.331 -428.519 558.862C-418.533 554.207 -409.398 548.635 -401.421 542.619C-356.777 509.003 -345.527 460.96 -358.689 428.174C-364.252 414.326 -372.692 402.593 -379.993 390.232C-385.806 380.401 -390.229 370.098 -390.48 356.954C-390.779 341.339 -383.788 324.005 -375.096 307.173C-364.184 286.034 -351.524 264.132 -331.563 244.577C-322.128 235.335 -310.54 226.547 -297.58 219.642C-286.764 213.887 -275.079 209.454 -262.815 207.069C-256.557 205.852 -250.01 205.118 -244.824 206.229C-240.72 207.108 -237.862 208.923 -235.312 210.661C-213.7 225.378 -204.96 242.336 -208.582 255.112C-210.899 243.379 -209.229 230.709 -207.181 218.29C-205.134 205.929 -202.73 193.462 -199.852 181.063C-189.403 136.071 -171.074 90.3357 -159.669 55.1844C-151.625 30.3854 -149.481 16.0158 -140.268 14.8184C-134.146 14.0265 -123.32 23.0944 -113.306 39.3374C-112.669 40.3707 -112.089 41.4812 -111.462 42.5821C-94.0889 73.1174 -84.1326 124.492 -75.0068 179.817C-69.1353 215.403 -59.4108 250.796 -49.9566 283.098C-43.6989 304.459 -38.2428 324.758 -32.7963 343.918C-29.6385 355.023 -27.2532 366.206 -26.3551 375.592C-25.737 381.985 -25.7274 387.567 -26.9248 392.038C-28.7693 398.952 -32.4293 402.516 -34.8146 403.849C-37.5282 405.365 -37.8275 400.903 -26.9731 403.26C-12.3815 406.427 6.55579 426.117 18.8201 444.717C38.4817 474.335 53.6624 505.14 57.0133 537.066C58.2205 548.539 57.7376 559.915 55.7869 571.252C49.9541 605.264 27.8687 637.653 2.25848 660.868C-10.2956 672.244 -23.3325 682.606 -38.7643 689.105C-49.3869 693.576 -60.9076 696.599 -72.7954 696.956C-79.2558 697.159 -85.6777 696.435 -91.5491 694.841C-103.012 691.742 -111.838 685.996 -119.68 679.487C-133.257 668.237 -143.465 653.674 -151.442 637.141C-156.695 626.258 -160.847 614.409 -163.88 601.758C-166.313 591.618 -167.897 580.696 -172.136 568.818C-176.723 555.946 -184.613 541.74 -194.994 531.33" stroke="#21F225" stroke-width="0.8162" stroke-miterlimit="10" stroke-linecap="round" stroke-linejoin="round"/>
<path d="M-280.945 445.436C-342.131 451.703 -390.851 588.04 -475.108 636.904C-497.541 649.912 -514.682 659.984 -529.901 657.841C-541.055 651.786 -549.06 643.838 -555.125 635.697C-572.623 612.202 -574.516 585.385 -556.1 567.625C-555.704 578.538 -530.635 590.339 -500.66 591.507C-496.469 591.671 -492.2 591.604 -487.893 591.343C-465.798 590.039 -444.302 584.216 -425.789 575.264C-415.572 570.32 -406.282 564.4 -398.219 558.017C-353.034 522.209 -343.474 470.93 -360.837 436.069C-368.147 421.381 -378.905 408.962 -388.166 395.867C-395.534 385.447 -401.367 374.477 -402.632 360.522C-404.148 343.874 -397.697 325.458 -389.441 307.573C-379.098 285.14 -366.824 261.973 -346.641 241.394C-337.139 231.708 -325.319 222.525 -311.982 215.427C-300.896 209.526 -288.854 205.065 -276.155 202.844C-269.685 201.714 -262.906 201.134 -257.575 202.515C-253.336 203.616 -250.448 205.712 -247.87 207.73C-226.035 224.833 -217.779 244.436 -222.607 259.694C-225.446 247.613 -223.969 234.548 -222.037 221.752C-220.116 209.015 -217.769 196.18 -214.901 183.414C-204.462 137.128 -185.409 90.5334 -170.865 54.4744C-160.764 29.4532 -155.144 14.427 -142.735 12.6019C-133.647 11.2595 -120.031 19.6901 -107.39 35.7882C-106.589 36.8118 -105.845 37.9031 -105.053 38.9943C-83.0933 69.3171 -69.8825 121.407 -60.1773 177.349C-53.9775 213.07 -45.0545 248.666 -36.9813 281.316C-31.612 303.006 -27.2857 323.662 -23.0946 343.208C-20.6707 354.525 -19.0967 365.95 -19.1643 375.481C-19.2125 381.932 -19.9175 387.533 -21.9358 391.927C-25.0164 398.667 -30.0283 401.816 -33.5434 402.366C-37.4931 402.994 -38.7389 397.064 -27.5271 398.329C-12.7906 399.99 7.38271 419.14 20.4968 437.257C41.5104 466.121 58.4004 496.212 63.4799 527.877C65.3244 539.36 65.4306 550.774 64.0787 562.189C59.9745 596.789 39.4052 630.173 15.2628 654.886C3.38475 667.044 -8.99545 678.323 -24.0217 685.846C-34.3353 691.003 -45.6532 694.759 -57.6278 695.86C-64.069 696.459 -70.5393 696.14 -76.5652 694.952C-88.1825 692.654 -97.5497 687.7 -106.067 681.867C-120.697 671.843 -132.421 658.179 -141.865 642.341C-148.114 631.863 -153.27 620.323 -157.239 607.885C-160.436 597.89 -162.744 587.084 -167.369 575.332C-172.42 562.517 -180.348 548.389 -190.314 537.718" stroke="#21F225" stroke-width="0.8162" stroke-miterlimit="10" stroke-linecap="round" stroke-linejoin="round"/>
<path d="M-282.341 444.61C-347.197 449.274 -396.911 583.254 -476.32 634.813C-498.309 649.095 -514.677 660.558 -529.559 659.486C-540.075 654.223 -547.733 647.232 -553.585 640.066C-570.466 619.371 -572.957 595.644 -556.347 580.396C-556.685 592.998 -530.747 606.479 -499.864 608.275C-495.557 608.527 -491.163 608.517 -486.74 608.314C-463.959 607.223 -441.922 601.11 -423.052 591.675C-412.613 586.451 -403.149 580.183 -395.018 573.424C-349.302 535.433 -341.432 480.871 -362.986 443.963C-372.064 428.424 -385.11 415.349 -396.331 401.501C-405.245 390.502 -412.488 378.865 -414.786 364.1C-417.529 346.427 -411.599 326.911 -403.796 307.983C-394.014 284.256 -382.136 259.814 -361.721 238.221C-352.151 228.101 -340.099 218.521 -326.396 211.22C-315.049 205.175 -302.64 200.685 -289.497 198.637C-282.824 197.594 -275.793 197.17 -270.328 198.821C-265.963 200.144 -263.037 202.529 -260.439 204.818C-238.392 224.306 -230.599 246.555 -236.644 264.285C-240.014 251.857 -238.711 238.385 -236.915 225.213C-235.118 212.099 -232.839 198.898 -229.971 185.774C-219.542 138.204 -199.803 90.7016 -182.082 53.7735C-169.953 28.4819 -160.837 12.8377 -145.222 10.3848C-133.16 8.49203 -116.763 16.3045 -101.495 32.2288C-100.529 33.2331 -99.612 34.3244 -98.656 35.4059C-72.109 65.5067 -55.644 118.33 -45.3593 174.881C-38.8312 210.738 -30.7193 246.536 -24.0078 279.534C-19.5269 301.551 -16.3305 322.565 -13.4044 342.507C-11.7145 354.037 -10.9419 365.693 -11.9848 375.379C-12.6801 381.888 -14.119 387.508 -16.9485 391.825C-21.2652 398.391 -27.6581 401.124 -32.2741 400.902C-37.4889 400.651 -39.5362 391.767 -28.083 393.418C-13.3369 395.543 8.21749 412.191 22.1718 429.825C44.5469 457.926 63.1655 487.313 69.9447 518.717C72.4265 530.209 73.1315 541.672 72.3589 553.163C69.993 588.344 50.9398 622.742 28.246 648.951C17.0439 661.891 5.33003 674.088 -9.30991 682.634C-19.3145 688.476 -30.4296 692.957 -42.4815 694.811C-48.8937 695.796 -55.4219 695.893 -61.5927 695.101C-73.3645 693.595 -83.2725 689.442 -92.4659 684.276C-108.139 675.469 -121.388 662.721 -132.301 647.579C-139.563 637.507 -145.695 626.266 -150.601 614.06C-154.55 604.21 -157.583 593.52 -162.604 581.893C-168.109 569.126 -176.076 555.085 -185.636 544.144" stroke="#21F225" stroke-width="0.8162" stroke-miterlimit="10" stroke-linecap="round" stroke-linejoin="round"/>
<path d="M-283.742 443.79C-352.268 446.851 -402.87 578.62 -477.538 632.738C-499.053 648.334 -514.688 661.139 -529.222 661.148C-539.111 656.677 -546.411 650.651 -552.06 644.442C-568.332 626.547 -571.413 605.901 -556.609 593.173C-557.671 607.465 -530.873 622.636 -499.073 625.041C-494.65 625.379 -490.13 625.437 -485.582 625.273C-462.125 624.404 -439.538 618.001 -420.32 608.074C-409.649 602.569 -400.031 595.954 -391.823 588.818C-345.566 548.635 -339.424 490.78 -365.141 451.853C-375.985 435.446 -391.321 421.733 -404.502 407.132C-414.97 395.553 -423.623 383.26 -426.935 367.664C-430.904 348.968 -425.496 328.36 -418.138 308.38C-408.916 283.359 -397.424 257.652 -376.787 235.035C-367.159 224.48 -354.866 214.505 -340.786 207.001C-329.168 200.811 -316.392 196.292 -302.815 194.409C-295.929 193.453 -288.667 193.173 -283.056 195.104C-278.556 196.649 -275.601 199.314 -272.984 201.883C-250.725 223.766 -243.405 248.652 -250.657 268.864C-254.549 256.088 -253.439 242.211 -251.758 228.671C-250.088 215.19 -247.876 201.603 -245.008 188.122C-234.588 139.258 -214.173 90.8089 -193.266 53.0599C-179.099 27.4786 -166.478 11.2646 -147.676 8.15504C-132.649 5.73115 -113.451 12.9159 -95.5668 28.6664C-94.4369 29.6611 -93.3457 30.733 -92.2351 31.8049C-61.1108 61.6545 -41.3913 115.241 -30.5176 172.4C-23.6708 208.392 -16.3605 244.403 -11.0106 277.738C-7.42783 300.085 -5.34191 321.465 -3.68091 341.783C-2.71522 353.526 -2.75385 365.424 -4.77215 375.254C-6.12412 381.831 -8.27761 387.47 -11.9376 391.7C-17.4903 398.112 -25.2642 400.401 -30.9811 399.406C-37.4803 398.267 -40.5318 389.469 -28.6248 388.475C-13.56 387.229 9.05663 405.201 23.8607 422.361C47.5975 449.709 67.9447 478.371 76.4138 509.515C79.5427 521.007 80.8464 532.518 80.6533 544.087C80.0545 579.846 62.4885 615.259 41.2432 642.964C30.7172 656.696 19.6599 669.801 5.42559 679.371C-4.26999 685.899 -15.1823 691.104 -27.3211 693.712C-33.714 695.083 -40.2904 695.585 -46.6157 695.199C-58.5421 694.474 -68.9909 691.114 -78.8506 686.633C-95.5764 679.033 -110.342 667.223 -122.722 652.756C-130.988 643.09 -138.125 632.149 -143.948 620.164C-148.67 610.459 -152.417 599.885 -157.825 588.383C-163.793 575.675 -171.789 561.711 -180.944 550.509" stroke="#21F225" stroke-width="0.8162" stroke-miterlimit="10" stroke-linecap="round" stroke-linejoin="round"/>
<path d="M-285.135 442.966C-357.34 444.424 -408.686 574.117 -478.747 630.649C-499.751 647.597 -514.68 661.715 -528.876 662.797C-538.137 659.117 -545.08 654.047 -550.517 648.804C-566.171 633.71 -569.85 616.153 -556.862 605.927C-558.648 621.909 -530.991 638.76 -498.283 641.793C-493.734 642.218 -489.099 642.343 -484.435 642.218C-460.292 641.561 -437.174 634.869 -417.599 624.468C-406.706 618.674 -396.923 611.711 -388.628 604.208C-341.84 561.833 -337.427 500.656 -367.296 459.73C-379.917 442.444 -397.522 428.104 -412.684 412.749C-424.687 400.591 -434.769 387.641 -439.105 371.224C-444.31 351.524 -439.414 329.796 -432.5 308.782C-423.847 282.477 -412.732 255.495 -391.873 231.855C-382.177 220.866 -369.652 210.494 -355.205 202.788C-343.318 196.453 -330.184 191.904 -316.162 190.195C-309.074 189.326 -301.571 189.2 -295.815 191.393C-291.189 193.15 -288.196 196.105 -285.559 198.954C-263.088 223.222 -256.241 250.754 -264.7 273.448C-269.114 260.324 -268.196 246.051 -266.641 232.126C-265.096 218.268 -262.943 204.314 -260.075 190.465C-249.665 140.317 -228.574 90.883 -204.48 52.3421C-188.285 26.4518 -172.168 9.63908 -150.159 5.92115C-132.168 2.93715 -110.17 9.53285 -89.6682 25.0902C-88.3742 26.0752 -87.1188 27.1278 -85.8344 28.1901C-50.1327 57.7886 -27.1588 112.128 -15.6863 169.906C-8.5112 206.032 -2.02176 242.246 1.96656 275.929C4.65119 298.604 5.61689 320.342 6.01282 341.056C6.24459 353.011 5.41411 365.15 2.4108 375.126C0.411808 381.76 -2.46597 387.429 -6.95646 391.571C-13.7356 397.829 -22.9097 399.674 -29.7179 397.906C-37.4917 395.878 -41.4318 385.671 -29.1868 383.527C-13.9384 380.852 9.87562 398.215 25.5295 414.883C50.6279 441.479 72.7231 469.406 82.8725 500.309C86.6484 511.8 88.5508 523.369 88.9274 535.006C90.1152 571.336 74.0267 607.781 54.23 636.974C44.3895 651.488 33.9794 665.501 20.1506 676.104C10.7544 683.308 0.0448672 689.228 -12.1712 692.608C-18.5448 694.365 -25.1695 695.273 -31.6396 695.302C-43.7301 695.35 -54.7004 692.791 -65.2458 688.996C-83.0242 682.593 -99.3155 671.729 -113.144 657.939C-122.425 648.688 -130.546 638.046 -137.296 626.274C-142.781 616.714 -147.253 606.255 -153.037 594.879C-159.469 582.229 -167.494 568.352 -176.233 556.869" stroke="#21F225" stroke-width="0.8162" stroke-miterlimit="10" stroke-linecap="round" stroke-linejoin="round"/>
<path d="M-286.538 442.15C-362.413 441.995 -414.377 569.709 -479.957 628.577C-500.391 646.916 -514.674 662.309 -528.531 664.463C-537.165 661.575 -543.751 657.461 -548.975 653.193C-564.011 640.9 -568.289 626.424 -557.106 618.718C-559.617 636.39 -531.1 654.922 -497.475 658.582C-492.81 659.093 -488.049 659.286 -483.269 659.2C-458.451 658.755 -434.782 651.773 -414.859 640.89C-403.744 634.816 -393.798 627.505 -385.425 619.616C-338.106 575.049 -335.441 510.55 -369.452 467.635C-383.851 449.46 -403.725 434.502 -420.856 418.394C-434.405 405.656 -445.907 392.059 -451.266 374.812C-457.698 354.098 -453.275 331.279 -446.853 309.203C-438.702 281.613 -428.032 253.347 -406.96 228.693C-397.197 217.269 -384.44 206.501 -369.617 198.592C-357.459 192.112 -343.968 187.535 -329.511 185.99C-322.22 185.208 -314.475 185.237 -308.575 187.699C-303.824 189.679 -300.792 192.923 -298.136 196.043C-275.461 222.696 -269.068 252.874 -278.745 278.049C-283.679 264.578 -282.945 249.899 -281.516 235.607C-280.097 221.373 -278.011 207.052 -275.143 192.837C-264.742 141.404 -242.985 90.9461 -215.694 51.6519C-197.472 25.414 -177.859 8.04116 -152.644 3.72451C-131.679 0.17075 -106.88 6.18703 -83.7709 21.5609C-82.3127 22.5266 -80.8835 23.5792 -79.4446 24.6221C-39.1751 53.96 -12.9372 109.072 -0.875669 167.458C6.61812 203.72 12.2964 240.136 14.9328 274.167C16.7193 297.17 16.5648 319.275 15.7054 340.366C15.2032 352.543 13.5905 364.923 9.59249 375.034C6.94649 381.736 3.33481 387.434 -1.97652 391.48C-9.99179 397.593 -20.5565 398.983 -28.4559 396.444C-37.5141 393.527 -42.3136 381.939 -29.7499 378.617C-14.2891 374.542 10.703 391.268 27.1971 407.453C53.6475 433.285 77.5098 460.479 89.3299 491.149C93.7528 502.641 96.2539 514.249 97.21 525.982C100.194 562.881 85.583 600.35 67.2155 631.04C58.0607 646.346 48.2879 661.257 34.8744 672.893C25.7775 680.773 15.2611 687.417 2.9775 691.55C-3.37677 693.694 -10.0594 694.998 -16.6744 695.442C-28.9291 696.263 -40.4305 694.505 -51.6423 691.396C-70.4733 686.181 -88.2903 676.292 -103.577 663.159C-113.862 654.323 -122.978 643.98 -130.665 632.43C-136.913 623.025 -142.109 612.672 -148.279 601.422C-155.184 588.829 -163.238 575.03 -171.562 563.287" stroke="#21F225" stroke-width="0.8162" stroke-miterlimit="10" stroke-linecap="round" stroke-linejoin="round"/>
<path d="M-287.933 441.333C-367.477 439.575 -419.895 565.367 -481.169 626.495C-500.985 646.263 -514.678 662.892 -528.188 666.117C-536.194 664.032 -542.423 660.874 -547.435 657.561C-561.853 648.069 -566.72 636.683 -557.352 631.488C-560.597 650.86 -531.211 671.062 -496.668 675.34C-491.878 675.929 -487.002 676.199 -482.105 676.161C-456.601 675.929 -432.391 668.667 -412.112 657.301C-400.765 650.946 -390.664 643.279 -382.214 635.022C-334.373 588.263 -333.456 520.423 -371.591 475.538C-387.786 456.475 -409.9 440.908 -429.021 424.037C-444.105 410.73 -457.036 396.466 -463.41 378.389C-471.068 356.67 -467.176 332.731 -461.188 309.612C-453.608 280.728 -443.313 251.197 -422.02 225.519C-412.189 213.66 -399.201 202.497 -384 194.385C-371.572 187.751 -357.714 183.154 -342.823 181.783C-335.32 181.088 -327.343 181.271 -321.298 184.004C-316.421 186.206 -313.35 189.73 -310.666 193.13C-287.788 222.159 -281.859 254.992 -292.742 282.65C-298.208 268.831 -297.658 253.746 -296.354 239.077C-295.05 224.467 -293.042 209.778 -290.174 195.206C-279.773 142.479 -257.359 90.9785 -226.882 50.9601C-206.622 24.3649 -183.513 6.44157 -155.102 1.51653C-131.172 -2.59733 -103.563 2.83953 -77.8462 18.0203C-76.2238 18.9763 -74.6208 20.0096 -73.0177 21.0525C-28.1805 50.12 1.31179 106.014 13.972 165.009C21.7845 201.406 26.642 238.015 27.936 272.404C28.8148 295.735 27.5981 318.207 25.4349 339.684C24.2278 352.073 21.7942 364.705 16.8112 374.951C13.5182 381.72 9.17259 387.447 3.04043 391.397C-6.22058 397.365 -18.1662 398.301 -27.1569 394.989C-37.4995 391.184 -43.1391 378.215 -30.276 373.715C-14.5932 368.23 11.5578 384.318 28.9114 400.03C56.7234 425.109 82.3529 451.55 95.8244 481.988C100.904 493.48 104.013 505.136 105.52 516.947C110.319 554.396 97.1667 592.918 80.2381 625.095C71.7689 641.183 62.6431 657.001 49.6255 669.671C40.8377 678.227 30.5048 685.586 18.1535 690.492C11.8089 693.012 5.07804 694.721 -1.67217 695.59C-14.1007 697.174 -26.1332 696.218 -38.0113 693.814C-57.8949 689.777 -77.2282 680.864 -93.983 668.396C-105.282 659.985 -115.392 649.942 -123.997 638.595C-131.017 629.344 -136.937 619.107 -143.485 607.973C-150.853 595.448 -158.936 581.716 -166.854 569.703" stroke="#21F225" stroke-width="0.8162" stroke-miterlimit="10" stroke-linecap="round" stroke-linejoin="round"/>
<path d="M-289.323 440.506C-372.537 437.145 -425.254 561.053 -482.375 624.403C-501.515 645.629 -514.668 663.465 -527.84 667.763C-535.208 666.469 -541.08 664.267 -545.899 661.93C-559.689 655.238 -565.164 646.942 -557.612 644.258C-561.581 665.319 -531.317 687.144 -495.876 692.108C-490.97 692.774 -485.968 693.132 -480.946 693.122C-454.766 693.161 -430.015 685.551 -409.378 673.702C-397.809 667.058 -387.544 659.052 -379.017 650.419C-330.655 601.468 -331.495 530.286 -373.744 483.421C-391.725 463.47 -416.09 447.285 -437.19 429.661C-453.81 415.774 -468.17 400.874 -475.567 381.956C-484.451 359.233 -481.081 334.173 -475.538 310.021C-468.527 279.843 -458.6 249.047 -437.094 222.346C-427.195 210.052 -413.975 198.483 -398.408 190.169C-385.709 183.389 -371.494 178.764 -356.159 177.557C-348.453 176.948 -340.234 177.286 -334.044 180.29C-329.032 182.713 -325.933 186.518 -323.229 190.198C-300.158 221.612 -294.683 257.091 -306.773 287.221C-312.76 273.054 -312.394 257.574 -311.215 242.529C-310.037 227.551 -308.087 212.486 -305.228 197.547C-294.837 143.535 -271.747 90.9532 -238.083 50.2395C-215.785 23.2676 -189.19 4.81318 -157.573 -0.720254C-130.679 -5.39422 -100.25 -0.536772 -71.9355 14.4412C-70.1489 15.3875 -68.3817 16.4015 -66.6145 17.4348C-17.2192 46.2318 15.5372 102.908 28.7962 162.521C36.9273 199.063 40.9542 235.865 40.906 270.601C40.877 294.261 38.5497 317.1 35.1215 338.953C33.1901 351.565 29.955 364.448 23.987 374.819C20.047 381.666 14.9674 387.412 8.02406 391.265C-2.4827 397.098 -15.8093 397.581 -25.8911 393.486C-37.5278 388.802 -43.9883 374.443 -30.8355 368.764C-14.9015 361.889 12.389 377.33 30.5827 392.549C59.7563 416.866 87.1531 442.553 102.286 472.779C108.031 484.252 111.73 495.966 113.806 507.863C120.431 545.863 108.746 585.428 93.2273 619.101C85.4535 635.982 76.9457 652.698 64.3531 666.391C55.8549 675.633 45.7151 683.687 33.3156 689.375C26.9806 692.282 20.2014 694.387 13.3064 695.671C0.70406 698.008 -11.85 697.863 -24.3943 696.154C-45.3499 693.296 -66.1896 685.377 -84.4026 673.567C-96.7056 665.59 -107.821 655.827 -117.342 644.692C-125.126 635.595 -131.77 625.475 -138.704 614.456C-146.545 601.989 -154.647 588.334 -162.151 576.06" stroke="#21F225" stroke-width="0.8162" stroke-miterlimit="10" stroke-linecap="round" stroke-linejoin="round"/>
<path d="M-290.728 439.682C-377.621 434.718 -430.464 556.734 -483.596 622.324C-501.983 645.027 -514.672 664.042 -527.506 669.411C-534.247 668.909 -539.751 667.663 -544.367 666.292C-557.51 662.39 -563.614 657.185 -557.868 657.012C-562.561 679.763 -531.437 703.278 -495.088 708.86C-490.057 709.613 -484.938 710.038 -479.801 710.067C-452.945 710.318 -427.673 702.38 -406.659 690.087C-394.878 683.134 -384.439 674.8 -375.825 665.799C-326.931 614.656 -329.558 540.134 -375.902 491.298C-395.689 470.449 -422.284 453.665 -445.364 435.269C-463.519 420.812 -479.299 405.255 -487.72 385.497C-497.83 361.779 -494.982 335.59 -489.883 310.395C-483.432 278.923 -473.881 246.862 -452.172 219.137C-442.197 206.399 -428.764 194.444 -412.811 185.926C-399.851 179.002 -385.269 174.319 -369.49 173.314C-361.571 172.783 -353.121 173.295 -346.786 176.559C-341.649 179.215 -338.51 183.29 -335.787 187.249C-312.514 221.039 -307.492 259.174 -320.799 291.786C-327.308 277.281 -327.134 261.386 -326.082 245.964C-325.029 230.609 -323.146 215.168 -320.278 199.871C-309.897 144.566 -286.121 90.9019 -249.28 49.5026C-224.925 22.1445 -194.863 3.16857 -160.05 -2.97325C-130.19 -8.21697 -96.9415 -3.92928 -66.0296 10.8555C-64.0789 11.7922 -62.1379 12.7869 -60.2065 13.8105C-6.26281 42.3372 29.7673 99.796 43.625 160.017C52.0652 196.694 55.2713 233.69 53.8904 268.783C52.944 292.761 49.5157 315.967 44.8321 338.207C42.1668 351.031 38.1399 364.174 31.1869 374.671C26.5998 381.595 20.7863 387.361 13.0221 391.117C1.26963 396.805 -13.4379 396.824 -24.611 391.967C-37.532 386.385 -44.8037 370.664 -31.3805 363.798C-15.1761 355.512 13.2249 370.316 32.2684 385.062C62.8037 408.625 91.9774 433.53 108.761 463.564C115.164 475.026 119.471 486.789 122.097 498.773C130.557 537.304 120.321 577.931 106.221 613.092C99.1428 630.754 91.2628 648.378 79.0854 663.105C70.8866 673.023 60.9303 681.782 48.4728 688.252C42.1475 691.535 35.32 694.046 28.2801 695.746C15.4943 698.845 2.41883 699.502 -10.7919 698.488C-32.8194 696.808 -55.1559 689.884 -74.8271 678.72C-88.144 671.169 -100.244 661.705 -110.693 650.783C-119.249 641.84 -126.617 631.836 -133.918 620.933C-142.233 608.534 -150.354 594.956 -157.452 582.402" stroke="#21F225" stroke-width="0.8162" stroke-miterlimit="10" stroke-linecap="round" stroke-linejoin="round"/>
<path d="M-292.126 438.859C-382.689 432.292 -435.503 552.386 -484.811 620.236C-502.387 644.417 -514.67 664.619 -527.176 671.06C-533.289 671.35 -538.426 671.06 -542.84 670.664C-555.345 669.544 -562.067 667.448 -558.126 669.785C-563.544 694.227 -531.56 719.432 -494.294 725.622C-489.147 726.462 -483.903 726.955 -478.65 727.022C-451.108 727.476 -425.295 719.268 -403.934 706.492C-391.93 699.258 -381.337 690.558 -372.636 681.2C-323.318 627.768 -327.625 549.991 -378.063 499.186C-399.646 477.448 -428.482 460.046 -453.551 440.896C-473.232 425.861 -490.451 409.656 -499.895 389.068C-511.223 364.355 -508.915 337.036 -504.25 310.798C-498.369 278.032 -489.195 244.706 -467.264 215.957C-457.221 202.785 -443.556 190.434 -427.236 181.714C-414.006 174.645 -399.057 169.932 -382.853 169.092C-374.731 168.648 -366.04 169.314 -359.56 172.848C-354.297 175.726 -351.13 180.082 -348.378 184.321C-324.911 220.486 -320.343 261.277 -334.858 296.371C-341.898 281.518 -341.898 265.217 -340.971 249.428C-340.044 233.697 -338.228 217.888 -335.36 202.235C-324.988 145.645 -300.527 90.8706 -260.509 48.805C-234.097 21.0412 -200.559 1.56315 -162.549 -5.18706C-129.725 -10.9909 -93.6562 -7.27296 -60.1466 7.29938C-58.0221 8.22645 -55.9265 9.21145 -53.8213 10.2158C4.67089 38.4624 43.965 96.7131 58.4408 157.542C67.1996 194.354 69.5752 231.543 66.8616 266.994C65.0075 291.291 60.4687 314.873 54.5201 337.499C51.1208 350.536 46.302 363.94 38.3639 374.563C33.1299 381.564 26.5728 387.358 17.9975 391.009C4.99922 396.552 -11.0893 396.117 -23.3536 390.497C-37.559 384.017 -45.6322 366.924 -31.958 358.89C-15.4736 349.204 14.0381 363.37 33.9218 377.624C65.809 400.424 96.7692 424.557 115.195 454.387C122.264 465.831 127.169 477.651 130.356 489.732C140.66 528.784 131.882 570.473 119.193 607.141C112.809 625.595 105.547 644.117 93.7949 659.877C85.8858 670.471 76.113 679.945 63.6072 687.187C57.2916 690.847 50.4062 693.754 43.2407 695.888C30.2714 699.741 16.6648 701.2 2.79744 700.89C-20.302 700.379 -44.1354 694.459 -65.2744 683.943C-79.5957 676.825 -92.7002 667.651 -104.066 656.932C-113.385 648.144 -121.478 638.256 -129.165 627.469C-137.953 615.137 -146.093 601.627 -152.786 588.812" stroke="#21F225" stroke-width="0.8162" stroke-miterlimit="10" stroke-linecap="round" stroke-linejoin="round"/>
<path d="M-293.525 438.035C-387.757 429.855 -440.397 547.979 -486.026 618.156C-502.713 643.824 -514.678 665.205 -526.837 672.718C-532.322 673.8 -537.083 674.456 -541.303 675.036C-553.161 676.677 -560.51 677.701 -558.386 682.558C-564.537 708.69 -531.675 735.585 -493.501 742.393C-488.238 743.32 -482.868 743.87 -477.489 743.986C-449.272 744.653 -422.908 736.164 -401.19 722.896C-388.955 715.382 -378.206 706.334 -369.428 696.59C-319.569 640.985 -325.673 559.848 -380.205 507.072C-403.595 484.436 -434.69 466.475 -461.71 446.523C-482.955 430.947 -501.564 414.066 -512.032 392.628C-524.586 366.921 -522.8 338.472 -518.58 311.191C-513.268 277.121 -504.461 242.549 -482.318 212.767C-472.207 199.161 -458.311 186.413 -441.614 177.49C-428.114 170.277 -412.807 165.535 -396.159 164.869C-387.825 164.511 -378.911 165.332 -372.277 169.137C-366.888 172.237 -363.682 176.872 -360.911 181.392C-337.251 219.933 -333.137 263.379 -348.869 300.954C-356.43 285.754 -356.623 269.058 -355.812 252.882C-355.01 236.784 -353.253 220.599 -350.394 204.578C-340.032 146.694 -314.866 90.8095 -271.69 48.0968C-243.212 19.9275 -206.216 -0.0527322 -165 -7.40167C-129.212 -13.7753 -90.3134 -10.6271 -54.2158 3.75211C-51.9271 4.65986 -49.6577 5.62555 -47.398 6.63953C15.6812 34.5095 58.0946 93.6776 73.285 155.086C82.2949 192.063 83.8979 229.406 79.8517 265.224C77.0705 289.839 71.4501 313.798 64.2364 336.801C60.1032 350.06 54.4925 363.725 45.5792 374.463C39.6981 381.542 32.3974 387.355 23.0109 390.909C8.76689 396.317 -8.70257 395.409 -22.0581 389.026C-37.5382 381.648 -46.4129 363.184 -32.4876 353.971C-15.7038 342.875 14.8894 356.405 35.6229 370.185C68.8717 392.232 101.609 415.563 121.686 445.22C129.411 456.634 134.925 468.512 138.663 480.69C150.811 520.254 143.481 563.025 132.202 601.189C126.514 620.426 119.87 639.865 108.533 656.649C100.923 667.919 91.3241 678.097 78.7701 686.122C72.4545 690.159 65.5207 693.471 58.2201 696.02C45.0577 700.627 30.9392 702.886 16.4152 703.282C-7.76582 703.939 -33.0767 699.024 -55.6932 689.154C-71.0092 682.472 -85.118 673.597 -97.4209 663.071C-107.503 654.447 -116.329 644.665 -124.393 633.994C-133.654 621.739 -141.824 608.287 -148.101 595.202" stroke="#21F225" stroke-width="0.8162" stroke-miterlimit="10" stroke-linecap="round" stroke-linejoin="round"/>
<path d="M-294.921 437.219C-392.833 427.436 -445.144 543.503 -487.239 616.075C-502.989 643.221 -513.66 667.392 -526.494 674.374C-531.062 676.866 -535.755 677.841 -539.763 679.405C-550.994 683.799 -557.899 687.99 -558.633 695.33C-561.491 723.856 -531.786 751.736 -492.705 759.153C-487.316 760.167 -481.831 760.785 -476.336 760.949C-447.443 761.828 -420.529 753.059 -398.463 739.308C-386.005 731.514 -375.093 722.118 -366.228 711.998C-315.828 654.22 -323.747 569.712 -382.355 514.977C-407.55 491.443 -440.857 472.863 -469.876 452.168C-492.637 436.012 -512.695 418.494 -524.186 396.215C-537.957 369.514 -536.702 339.935 -532.926 311.62C-528.175 276.257 -519.696 240.449 -497.388 209.614C-487.181 195.592 -473.082 182.43 -456.018 173.304C-442.247 165.945 -426.574 161.185 -409.491 160.682C-400.954 160.422 -391.799 161.387 -385.02 165.463C-379.506 168.785 -376.271 173.71 -373.47 178.499C-349.666 219.445 -345.948 265.518 -362.896 305.575C-370.979 290.028 -371.356 272.925 -370.68 256.383C-370.004 239.908 -368.314 223.356 -365.446 206.968C-355.093 147.8 -329.213 90.7757 -282.888 47.4257C-252.343 18.8315 -211.89 -1.63163 -167.468 -9.58895C-128.715 -16.5226 -87.0067 -13.9056 -48.3017 0.222508C-45.8488 1.1206 -43.4152 2.07664 -40.9817 3.07131C26.6073 30.6805 72.3426 90.6019 88.1027 152.619C97.441 189.73 98.1943 227.257 92.825 263.442C89.1264 288.376 82.4051 312.712 73.9263 336.101C69.0592 349.572 62.6567 363.498 52.7583 374.362C46.2302 381.517 38.1956 387.36 27.9979 390.817C12.5081 396.099 -6.33258 394.709 -20.789 387.563C-37.5535 379.287 -47.2201 359.442 -33.0437 349.061C-15.9606 336.545 15.7239 349.456 37.2975 362.754C71.9081 384.048 106.422 406.568 128.14 436.06C136.532 447.455 142.645 459.372 146.943 471.655C160.955 511.712 155.064 555.574 145.195 595.245C140.212 615.264 134.176 635.611 123.264 653.428C115.944 665.384 106.519 676.257 93.9355 685.055C87.6199 689.468 80.6379 693.176 73.2117 696.151C59.8465 701.51 45.2162 704.581 30.0355 705.672C4.76326 707.498 -22.0154 703.596 -46.1095 694.364C-62.4298 688.116 -77.5332 679.531 -90.7632 669.217C-101.618 660.748 -111.168 651.082 -119.609 640.527C-129.343 628.339 -137.532 614.955 -143.394 601.599" stroke="#21F225" stroke-width="0.8162" stroke-miterlimit="10" stroke-linecap="round" stroke-linejoin="round"/>
<path d="M-296.315 436.39C-397.896 425.005 -449.754 538.899 -488.44 613.991C-503.186 642.605 -514.031 667.172 -526.14 676.027C-530.177 678.982 -534.416 681.223 -538.221 683.782C-548.844 690.918 -556.888 698.316 -558.887 708.108C-564.981 737.977 -531.906 767.894 -491.906 775.929C-486.402 777.029 -480.791 777.715 -475.181 777.918C-445.601 778.999 -418.147 769.961 -395.733 755.717C-383.044 747.643 -371.967 737.899 -363.034 727.402C-312.094 667.452 -321.761 579.506 -384.512 522.868C-411.483 498.407 -447.04 479.238 -478.058 457.8C-502.336 441.054 -523.852 422.919 -536.348 399.781C-551.374 372.094 -550.621 341.375 -547.279 312.018C-543.098 275.361 -535.005 238.268 -512.476 206.429C-502.21 191.963 -487.87 178.414 -470.429 169.086C-456.388 161.573 -440.358 156.793 -422.83 156.455C-414.081 156.281 -404.704 157.401 -397.771 161.747C-392.141 165.291 -388.857 170.496 -386.028 175.566C-362.011 218.867 -358.766 267.616 -376.921 310.145C-385.535 294.25 -386.095 276.741 -385.535 259.823C-384.985 242.971 -383.362 226.052 -380.494 209.297C-370.152 148.845 -343.556 90.681 -294.094 46.6936C-261.463 17.6745 -217.562 -3.27143 -169.944 -11.8371C-128.226 -19.3309 -83.6782 -17.3126 -42.3948 -3.35835C-39.7777 -2.46991 -37.1703 -1.53318 -34.5823 -0.548174C37.5455 26.8389 86.6028 87.5039 102.942 150.139C112.609 187.386 112.454 225.086 105.82 261.648C101.165 286.891 93.382 311.603 83.6478 335.378C78.0564 349.072 70.8619 363.277 59.9689 374.238C52.8034 381.49 44.0156 387.333 33.0067 390.693C16.2616 395.821 -3.95043 393.977 -19.4981 386.068C-37.547 376.884 -47.9861 355.668 -33.578 344.118C-16.1858 330.173 16.5706 342.476 39.0037 355.281C74.9758 375.812 111.267 397.531 134.636 426.859C143.695 438.215 150.406 450.2 155.254 462.58C171.12 503.129 166.736 548.082 158.209 589.26C153.95 610.061 148.485 631.306 138.016 650.166C130.976 662.797 121.725 674.376 109.113 683.956C102.797 688.755 95.7576 692.859 88.2059 696.259C74.6379 702.372 59.486 706.225 43.668 708.05C17.3045 711.005 -10.9517 708.185 -36.504 699.571C-53.8286 693.777 -69.9461 685.482 -84.0838 675.351C-95.7108 667.056 -106.005 657.515 -114.793 647.047C-125.029 634.956 -133.209 621.62 -138.665 607.994" stroke="#21F225" stroke-width="0.8162" stroke-miterlimit="10" stroke-linecap="round" stroke-linejoin="round"/>
<path d="M-133.994 614.373C-119.325 654.758 -77.7902 689.832 -26.9464 704.762C25.3653 720.126 87.6816 712.835 124.252 682.87C155.763 657.057 165.217 619.317 171.185 583.287C180.417 527.586 182.687 466.168 141.085 417.67C116.054 388.497 77.9957 367.599 40.6619 347.831C17.3887 335.499 -16.4396 323.814 -34.1504 339.188C-48.7903 351.897 -37.5787 374.513 -18.2454 384.586C-1.60652 393.258 19.9768 395.566 37.9773 390.583C67.7111 382.355 82.8339 357.759 93.331 334.669C120.206 275.607 134.672 210.915 117.753 147.672C100.834 84.4283 48.4744 23.0101 -28.1824 -4.14523C-123.67 -37.9639 -238.124 -10.992 -305.298 45.984C-372.472 102.96 -398.43 183.905 -400.4 263.285C-400.834 280.58 -400.081 298.494 -390.946 314.737C-371.584 269.726 -374.345 218.303 -398.584 172.645C-401.423 167.295 -404.745 161.809 -410.511 158.043C-417.58 153.427 -427.198 152.152 -436.16 152.239C-476.477 152.626 -508.915 176.372 -527.543 203.257C-550.305 236.11 -558.011 274.477 -561.623 312.429C-564.52 342.829 -564.713 374.668 -548.499 403.359C-517.616 457.998 -437.985 485.655 -386.658 530.763C-319.9 589.439 -308.35 680.677 -359.831 742.801C-384.736 772.853 -426.599 796.908 -474.024 794.881C-521.45 792.853 -568.624 756.388 -559.15 720.879C-554.66 704.057 -539.47 690.846 -525.815 677.684C-485.874 639.191 -443.682 417.554 -297.727 435.574" stroke="#21F225" stroke-width="0.8162" stroke-miterlimit="10" stroke-linecap="round" stroke-linejoin="round"/>
</g>
</svg>
